<?xml version="1.0" encoding="utf-8"?>
<!-- Generator: Adobe Illustrator 19.1.0, SVG Export Plug-In . SVG Version: 6.00 Build 0)  -->
<!DOCTYPE svg PUBLIC "-//W3C//DTD SVG 1.1//EN" "http://www.w3.org/Graphics/SVG/1.1/DTD/svg11.dtd">
<svg version="1.1" id="圖層_1" xmlns="http://www.w3.org/2000/svg" xmlns:xlink="http://www.w3.org/1999/xlink" x="0px" y="0px"
	 viewBox="139 25.1 889 742.9" style="enable-background:new 139 25.1 889 742.9;" xml:space="preserve">
<style type="text/css">
	.st0{fill:none;stroke:#424242;stroke-width:4;stroke-miterlimit:10;}
	.st1{enable-background:new    ;}
	.st2{fill:#D6D6D6;}
	.st3{fill:#EFEFEF;}
	.st4{fill:#FFFFFF;}
	.st5{fill:#FFFFFF;stroke:#D6D6D6;stroke-miterlimit:10;}
	.st6{fill:#4F4E4E;}
	.st7{fill:#80529B;}
	.st8{fill:#00ACD0;}
	.st9{fill:#00D096;}
	.st10{fill:#404040;}
	.st11{fill:#E95A78;}
	.st12{fill:#FFA800;}
	.st13{fill:#C2C2C4;}
	.st14{fill:#EAEAEA;}
	.st15{opacity:0.35;}
	.st16{fill:#F2F2F2;}
	.st17{opacity:0.7;}
	.st18{fill:none;}
	.st19{fill:none;stroke:#000000;stroke-width:2;stroke-miterlimit:10;stroke-dasharray:3.9304,1.9652;}
	.st20{fill:none;stroke:#000000;stroke-width:2;stroke-miterlimit:10;stroke-dasharray:4.004,2.002;}
	.st21{opacity:8.000000e-02;fill:#FFA800;enable-background:new    ;}
	.st22{opacity:8.000000e-02;fill:#00ACD0;enable-background:new    ;}
	.st23{fill:none;stroke:#000000;stroke-width:2;stroke-miterlimit:10;stroke-dasharray:4,2;}
	.st24{opacity:8.000000e-02;fill:#00D096;enable-background:new    ;}
	.st25{opacity:8.000000e-02;fill:#80529B;enable-background:new    ;}
	.st26{opacity:8.000000e-02;fill:#E95A78;enable-background:new    ;}
	.st27{opacity:0.6;}
	.st28{fill:#969696;}
	.st29{fill:none;stroke:#969696;stroke-width:2;stroke-miterlimit:10;}
	.st30{fill:none;stroke:#969696;stroke-width:2;stroke-miterlimit:10;stroke-dasharray:4,2;}
	.st31{fill:none;stroke:#969696;stroke-width:2;stroke-miterlimit:10;stroke-dasharray:4.0138,2.0069;}
	.st32{font-family:'SourceHanSansTW-Bold-B5pc-H';}
	.st33{font-size:36px;}
	.st34{font-family:'SourceHanSansTW-Light-B5pc-H';}
	.st35{font-size:24px;}
</style>
<g>
	<path d="M476.6,631.7c-1.5,0-2.6,0.5-3.5,1.6s-1.3,2.5-1.3,4.3c0,1.9,0.4,3.4,1.2,4.4c0.8,1,2,1.5,3.5,1.5c0.7,0,1.3-0.1,1.9-0.2
		c0.6-0.1,1.3-0.3,1.9-0.5v2.2c-1.2,0.5-2.6,0.7-4.2,0.7c-2.3,0-4.1-0.7-5.3-2.1c-1.2-1.4-1.8-3.4-1.8-6c0-1.6,0.3-3.1,0.9-4.3
		c0.6-1.2,1.5-2.2,2.6-2.8s2.5-1,4-1c1.6,0,3.1,0.3,4.4,1l-0.9,2.1c-0.5-0.2-1.1-0.5-1.7-0.7C477.9,631.8,477.3,631.7,476.6,631.7
		L476.6,631.7z M494.1,639.5c0,1.9-0.5,3.5-1.5,4.5s-2.4,1.6-4.2,1.6c-1.1,0-2.1-0.2-2.9-0.8s-1.5-1.2-2-2.2s-0.7-2-0.7-3.3
		c0-1.9,0.5-3.4,1.5-4.5s2.4-1.6,4.2-1.6c1.7,0,3.1,0.6,4.1,1.7C493.6,636.1,494.1,637.6,494.1,639.5L494.1,639.5z M485.5,639.5
		c0,2.7,1,4.1,3,4.1c2,0,3-1.4,3-4.1c0-2.7-1-4.1-3-4.1c-1.1,0-1.8,0.3-2.3,1.1C485.7,637.2,485.5,638.2,485.5,639.5L485.5,639.5z
		 M499.6,645.5H497v-16.7h2.5V645.5z M505.7,645.5h-2.5v-16.7h2.5L505.7,645.5L505.7,645.5z M516.7,645.5l-0.5-1.7h-0.1
		c-0.6,0.7-1.1,1.2-1.7,1.5c-0.6,0.3-1.3,0.4-2.2,0.4c-1.2,0-2.1-0.3-2.7-0.9s-1-1.5-1-2.7c0-1.2,0.5-2.1,1.4-2.8s2.3-1,4.2-1
		l2.1-0.1v-0.6c0-0.8-0.2-1.3-0.5-1.7c-0.4-0.4-0.9-0.6-1.6-0.6c-0.6,0-1.2,0.1-1.8,0.3c-0.6,0.2-1.1,0.4-1.6,0.6l-0.8-1.8
		c0.6-0.3,1.4-0.6,2.1-0.8c0.8-0.2,1.5-0.3,2.2-0.3c1.5,0,2.7,0.3,3.4,1c0.8,0.7,1.2,1.7,1.2,3.1v8L516.7,645.5L516.7,645.5z
		 M513,643.7c0.9,0,1.7-0.3,2.2-0.8c0.6-0.5,0.8-1.2,0.8-2.2v-1l-1.5,0.1c-1.2,0-2.1,0.2-2.6,0.6c-0.5,0.4-0.8,0.9-0.8,1.6
		c0,0.5,0.2,0.9,0.5,1.2C511.9,643.6,512.3,643.7,513,643.7L513,643.7z M528.1,633.4c1.5,0,2.6,0.5,3.5,1.6s1.2,2.6,1.2,4.5
		c0,1.9-0.4,3.5-1.3,4.5c-0.8,1.1-2,1.6-3.5,1.6c-1.5,0-2.7-0.5-3.5-1.6h-0.2l-0.5,1.4h-1.9v-16.7h2.5v4c0,0.3,0,0.7,0,1.3
		c0,0.6-0.1,1-0.1,1.1h0.1C525.4,634,526.6,633.4,528.1,633.4L528.1,633.4z M527.5,635.4c-1,0-1.8,0.3-2.2,0.9
		c-0.4,0.6-0.7,1.6-0.7,3v0.2c0,1.4,0.2,2.5,0.7,3.1s1.2,1,2.2,1c0.9,0,1.6-0.4,2-1.1c0.5-0.7,0.7-1.7,0.7-3.1
		C530.2,636.8,529.3,635.4,527.5,635.4L527.5,635.4z M546.3,639.5c0,1.9-0.5,3.5-1.5,4.5s-2.4,1.6-4.2,1.6c-1.1,0-2.1-0.2-2.9-0.8
		c-0.9-0.5-1.5-1.2-2-2.2s-0.7-2-0.7-3.3c0-1.9,0.5-3.4,1.5-4.5s2.4-1.6,4.2-1.6c1.7,0,3.1,0.6,4.1,1.7
		C545.8,636.1,546.3,637.6,546.3,639.5L546.3,639.5z M537.7,639.5c0,2.7,1,4.1,3,4.1c2,0,3-1.4,3-4.1c0-2.7-1-4.1-3-4.1
		c-1.1,0-1.8,0.3-2.3,1.1C537.9,637.2,537.7,638.2,537.7,639.5L537.7,639.5z M555.2,633.4c0.5,0,0.9,0,1.3,0.1l-0.2,2.4
		c-0.4-0.1-0.7-0.1-1.1-0.1c-1,0-1.8,0.3-2.5,1c-0.6,0.7-0.9,1.5-0.9,2.6v6.2h-2.5v-11.9h2l0.3,2.1h0.1c0.4-0.7,0.9-1.3,1.5-1.7
		C553.8,633.6,554.5,633.4,555.2,633.4L555.2,633.4z M566.1,645.5l-0.5-1.7h-0.1c-0.6,0.7-1.1,1.2-1.7,1.5c-0.6,0.3-1.3,0.4-2.2,0.4
		c-1.2,0-2.1-0.3-2.7-0.9c-0.7-0.6-1-1.5-1-2.7c0-1.2,0.5-2.1,1.4-2.8c0.9-0.6,2.3-1,4.2-1l2.1-0.1v-0.6c0-0.8-0.2-1.3-0.5-1.7
		c-0.4-0.4-0.9-0.6-1.6-0.6c-0.6,0-1.2,0.1-1.8,0.3s-1.1,0.4-1.6,0.6l-0.8-1.8c0.6-0.3,1.4-0.6,2.1-0.8c0.8-0.2,1.5-0.3,2.2-0.3
		c1.5,0,2.7,0.3,3.4,1c0.8,0.7,1.2,1.7,1.2,3.1v8L566.1,645.5L566.1,645.5z M562.4,643.7c0.9,0,1.7-0.3,2.2-0.8
		c0.6-0.5,0.8-1.2,0.8-2.2v-1l-1.5,0.1c-1.2,0-2.1,0.2-2.6,0.6c-0.5,0.4-0.8,0.9-0.8,1.6c0,0.5,0.2,0.9,0.5,1.2
		C561.3,643.6,561.7,643.7,562.4,643.7L562.4,643.7z M575.9,643.6c0.6,0,1.2-0.1,1.8-0.3v1.9c-0.3,0.1-0.6,0.2-1.1,0.3
		c-0.4,0.1-0.9,0.1-1.4,0.1c-2.4,0-3.6-1.3-3.6-3.8v-6.4h-1.6v-1.1l1.7-0.9l0.9-2.5h1.6v2.6h3.4v1.9h-3.4v6.4c0,0.6,0.2,1.1,0.5,1.3
		C575,643.5,575.4,643.6,575.9,643.6L575.9,643.6z M580,630.4c0-0.5,0.1-0.8,0.4-1s0.6-0.4,1.1-0.4c0.4,0,0.8,0.1,1,0.4
		c0.2,0.2,0.4,0.6,0.4,1c0,0.4-0.1,0.8-0.4,1c-0.2,0.2-0.6,0.4-1,0.4c-0.5,0-0.8-0.1-1.1-0.4C580.1,631.2,579.9,630.9,580,630.4
		L580,630.4z M582.6,645.5h-2.5v-11.9h2.5V645.5z M588.9,645.5l-4.5-11.9h2.7l2.4,6.9c0.4,1.2,0.7,2.1,0.8,2.8h0.1
		c0.1-0.5,0.3-1.5,0.8-2.8l2.4-6.9h2.7l-4.5,11.9L588.9,645.5L588.9,645.5z M603.2,645.7c-1.8,0-3.3-0.5-4.3-1.6
		c-1-1.1-1.6-2.6-1.6-4.5c0-1.9,0.5-3.5,1.5-4.6s2.3-1.7,4-1.7c1.6,0,2.8,0.5,3.7,1.4c0.9,1,1.4,2.3,1.4,3.9v1.4h-7.9
		c0,1.2,0.3,2,0.9,2.7c0.6,0.6,1.4,0.9,2.5,0.9c0.7,0,1.4-0.1,2-0.2c0.6-0.1,1.3-0.4,2-0.7v2.1c-0.6,0.3-1.2,0.5-1.9,0.6
		S604,645.7,603.2,645.7L603.2,645.7z M602.7,635.3c-0.8,0-1.4,0.3-1.9,0.8s-0.8,1.2-0.9,2.2h5.4c0-1-0.2-1.7-0.7-2.2
		C604.2,635.5,603.5,635.3,602.7,635.3L602.7,635.3z M619.2,645.5h-2.5v-15.7h8.9v2.2h-6.3v4.9h5.9v2.2h-5.9L619.2,645.5
		L619.2,645.5z M636.5,645.5l-0.4-1.6H636c-0.3,0.6-0.8,1-1.5,1.3c-0.6,0.3-1.4,0.5-2.2,0.5c-1.4,0-2.5-0.4-3.2-1.1
		s-1.1-1.8-1.1-3.3v-7.8h2.5v7.3c0,0.9,0.2,1.6,0.6,2c0.4,0.5,1,0.7,1.8,0.7c1.1,0,1.8-0.3,2.3-1c0.5-0.6,0.7-1.7,0.7-3.2v-5.9h2.5
		v11.9L636.5,645.5L636.5,645.5z M652.5,645.5H650v-7.3c0-0.9-0.2-1.6-0.6-2.1c-0.4-0.5-1-0.7-1.8-0.7c-1.1,0-1.8,0.3-2.3,0.9
		c-0.5,0.6-0.7,1.7-0.7,3.2v5.9h-2.5v-11.9h2l0.4,1.6h0.1c0.4-0.6,0.9-1,1.5-1.3c0.7-0.3,1.4-0.5,2.2-0.5c2.8,0,4.3,1.5,4.3,4.3
		L652.5,645.5L652.5,645.5z M660,645.7c-1.5,0-2.6-0.5-3.5-1.6s-1.2-2.6-1.2-4.5c0-1.9,0.4-3.5,1.3-4.5c0.8-1.1,2-1.6,3.5-1.6
		c1.6,0,2.8,0.6,3.6,1.7h0.1c-0.1-0.9-0.2-1.5-0.2-2v-4.3h2.5v16.7h-2l-0.4-1.6h-0.1C662.8,645.1,661.6,645.7,660,645.7L660,645.7z
		 M660.7,643.6c1,0,1.8-0.3,2.3-0.9c0.5-0.6,0.7-1.5,0.7-2.8v-0.4c0-1.5-0.2-2.6-0.7-3.2s-1.2-0.9-2.3-0.9c-0.9,0-1.6,0.4-2.1,1.1
		c-0.5,0.7-0.7,1.7-0.7,3.1c0,1.3,0.2,2.3,0.7,3C659.1,643.3,659.8,643.6,660.7,643.6L660.7,643.6z M669.6,630.4
		c0-0.5,0.1-0.8,0.4-1s0.6-0.4,1.1-0.4c0.4,0,0.8,0.1,1,0.4s0.4,0.6,0.4,1c0,0.4-0.1,0.8-0.4,1c-0.2,0.2-0.6,0.4-1,0.4
		c-0.5,0-0.8-0.1-1.1-0.4C669.7,631.2,669.6,630.9,669.6,630.4L669.6,630.4z M672.3,645.5h-2.5v-11.9h2.5L672.3,645.5L672.3,645.5z
		 M686.3,645.5h-2.5v-7.3c0-0.9-0.2-1.6-0.6-2.1c-0.4-0.5-1-0.7-1.8-0.7c-1.1,0-1.8,0.3-2.3,0.9s-0.7,1.7-0.7,3.2v5.9h-2.5v-11.9h2
		l0.4,1.6h0.1c0.4-0.6,0.9-1,1.5-1.3s1.4-0.5,2.2-0.5c2.8,0,4.3,1.5,4.3,4.3L686.3,645.5L686.3,645.5z M699.9,633.6v1.4l-2,0.4
		c0.2,0.2,0.3,0.6,0.5,0.9s0.2,0.8,0.2,1.2c0,1.2-0.4,2.2-1.3,2.9s-2,1.1-3.5,1.1c-0.4,0-0.7,0-1-0.1c-0.5,0.3-0.8,0.7-0.8,1.2
		c0,0.3,0.1,0.5,0.4,0.6c0.3,0.1,0.7,0.2,1.4,0.2h2.1c1.3,0,2.3,0.3,3,0.8c0.7,0.6,1,1.4,1,2.4c0,1.3-0.6,2.4-1.7,3.1
		c-1.1,0.7-2.7,1.1-4.8,1.1c-1.6,0-2.9-0.3-3.7-0.9s-1.3-1.4-1.3-2.5c0-0.7,0.2-1.3,0.7-1.8c0.5-0.5,1.1-0.8,1.9-1
		c-0.3-0.1-0.6-0.4-0.8-0.7c-0.2-0.3-0.3-0.7-0.3-1c0-0.4,0.1-0.8,0.4-1.1s0.6-0.6,1.1-0.9c-0.6-0.3-1.1-0.7-1.5-1.3
		c-0.4-0.6-0.6-1.3-0.6-2.1c0-1.3,0.4-2.3,1.2-3c0.8-0.7,2-1.1,3.5-1.1c0.3,0,0.7,0,1.1,0.1c0.4,0,0.6,0.1,0.8,0.1L699.9,633.6
		L699.9,633.6z M690.5,647.3c0,0.5,0.2,1,0.7,1.3c0.5,0.3,1.2,0.4,2.1,0.4c1.4,0,2.4-0.2,3.1-0.6s1-0.9,1-1.6c0-0.5-0.2-0.9-0.6-1.1
		c-0.4-0.2-1.1-0.3-2.1-0.3h-1.9c-0.7,0-1.3,0.2-1.7,0.5C690.8,646.3,690.5,646.7,690.5,647.3L690.5,647.3z M691.6,637.4
		c0,0.7,0.2,1.3,0.6,1.7c0.4,0.4,0.9,0.6,1.7,0.6c1.5,0,2.2-0.8,2.2-2.3c0-0.8-0.2-1.4-0.5-1.8c-0.4-0.4-0.9-0.6-1.6-0.6
		c-0.7,0-1.3,0.2-1.7,0.6S691.6,636.6,691.6,637.4L691.6,637.4z M365.9,671.3c0,1.1-0.4,2-1.1,2.5s-1.8,0.9-3.2,0.9h-1.8v4.7H359
		V668h2.8C364.5,668,365.9,669.1,365.9,671.3L365.9,671.3z M359.8,674.1h1.6c1.3,0,2.2-0.2,2.8-0.6s0.9-1.1,0.9-2.1
		c0-0.9-0.3-1.5-0.8-2s-1.4-0.6-2.5-0.6h-1.9V674.1z M372.3,670.8c0.4,0,0.7,0,1.2,0.1l-0.1,0.7c-0.4-0.1-0.7-0.1-1.1-0.1
		c-0.7,0-1.3,0.3-1.8,0.9c-0.5,0.6-0.7,1.4-0.7,2.3v4.7h-0.8V671h0.7l0.1,1.5h0.1c0.3-0.6,0.7-1.1,1.1-1.3S371.7,670.8,372.3,670.8
		L372.3,670.8z M383,675.2c0,1.4-0.3,2.5-1,3.2c-0.7,0.8-1.6,1.2-2.8,1.2c-0.7,0-1.4-0.2-2-0.5s-1-0.9-1.3-1.5s-0.5-1.4-0.5-2.3
		c0-1.4,0.3-2.5,1-3.2s1.6-1.2,2.8-1.2c1.2,0,2.1,0.4,2.7,1.2S383,673.8,383,675.2z M376.3,675.2c0,1.2,0.3,2.1,0.8,2.7s1.2,1,2.2,1
		s1.7-0.3,2.2-1s0.8-1.6,0.8-2.7c0-1.2-0.3-2.1-0.8-2.7s-1.2-1-2.2-1c-0.9,0-1.7,0.3-2.2,1S376.3,674,376.3,675.2L376.3,675.2z
		 M385,683.3c-0.4,0-0.8-0.1-1.1-0.2v-0.7c0.4,0.1,0.7,0.2,1,0.2c0.8,0,1.2-0.5,1.2-1.4V671h0.8v10.1c0,0.7-0.2,1.2-0.5,1.6
		S385.6,683.3,385,683.3L385,683.3z M386,668.6c0-0.5,0.2-0.8,0.5-0.8c0.2,0,0.3,0.1,0.4,0.2c0.1,0.1,0.1,0.3,0.1,0.6
		c0,0.2,0,0.4-0.1,0.6s-0.2,0.2-0.4,0.2C386.2,669.4,386,669.1,386,668.6L386,668.6z M394,679.6c-1.2,0-2.2-0.4-2.9-1.1
		c-0.7-0.8-1-1.8-1-3.2c0-1.4,0.3-2.4,1-3.3c0.7-0.8,1.6-1.2,2.7-1.2c1,0,1.8,0.3,2.4,1s0.9,1.6,0.9,2.8v0.6h-6.1
		c0,1.2,0.3,2.1,0.8,2.7s1.3,0.9,2.3,0.9c0.5,0,0.9,0,1.3-0.1s0.8-0.2,1.4-0.4v0.7c-0.5,0.2-0.9,0.3-1.3,0.4S394.5,679.6,394,679.6
		L394,679.6z M393.8,671.5c-0.8,0-1.5,0.3-2,0.8s-0.8,1.3-0.9,2.3h5.2c0-1-0.2-1.8-0.6-2.3S394.5,671.5,393.8,671.5L393.8,671.5z
		 M403.5,679.6c-1.2,0-2.2-0.4-2.9-1.1s-1-1.8-1-3.2c0-1.4,0.4-2.5,1.1-3.3s1.7-1.2,2.9-1.2c0.7,0,1.4,0.1,2.1,0.4l-0.2,0.7
		c-0.7-0.2-1.4-0.4-1.9-0.4c-1,0-1.8,0.3-2.4,1s-0.8,1.6-0.8,2.8c0,1.1,0.3,2,0.8,2.7s1.3,1,2.2,1c0.8,0,1.5-0.1,2.1-0.4v0.7
		C405.1,679.5,404.4,679.6,403.5,679.6L403.5,679.6z M410.8,678.9c0.5,0,0.9,0,1.3-0.1v0.6c-0.4,0.1-0.8,0.2-1.3,0.2
		c-0.8,0-1.3-0.2-1.7-0.6s-0.5-1-0.5-1.9v-5.5h-1.3v-0.5l1.3-0.4l0.4-1.9h0.4v2.1h2.5v0.7h-2.5v5.4c0,0.7,0.1,1.1,0.3,1.4
		S410.3,678.9,410.8,678.9z M420,677.3c0,0.8-0.3,1.3-0.9,1.8s-1.4,0.6-2.5,0.6c-1.1,0-2-0.2-2.7-0.5v-0.8c0.9,0.4,1.8,0.6,2.7,0.6
		c0.8,0,1.5-0.1,1.9-0.4s0.7-0.7,0.7-1.1c0-0.4-0.2-0.8-0.5-1.1s-0.9-0.6-1.7-0.9c-0.9-0.3-1.4-0.6-1.8-0.8s-0.6-0.5-0.8-0.8
		s-0.3-0.6-0.3-1c0-0.6,0.3-1.1,0.8-1.5s1.3-0.6,2.2-0.6c0.9,0,1.8,0.2,2.6,0.5l-0.3,0.7c-0.8-0.3-1.6-0.5-2.3-0.5
		c-0.7,0-1.2,0.1-1.6,0.3s-0.6,0.5-0.6,1c0,0.4,0.2,0.8,0.5,1.1s0.9,0.6,1.8,0.9c0.8,0.3,1.3,0.5,1.7,0.7s0.6,0.5,0.8,0.8
		S420,676.9,420,677.3L420,677.3z M430.2,678.9c0.5,0,0.9,0,1.3-0.1v0.6c-0.4,0.1-0.8,0.2-1.3,0.2c-0.8,0-1.3-0.2-1.7-0.6
		s-0.5-1-0.5-1.9v-5.5h-1.3v-0.5l1.3-0.4l0.4-1.9h0.4v2.1h2.5v0.7h-2.5v5.4c0,0.7,0.1,1.1,0.3,1.4S429.7,678.9,430.2,678.9
		L430.2,678.9z M441.1,675.2c0,1.4-0.3,2.5-1,3.2s-1.6,1.2-2.8,1.2c-0.7,0-1.4-0.2-2-0.5s-1-0.9-1.3-1.5s-0.5-1.4-0.5-2.3
		c0-1.4,0.3-2.5,1-3.2s1.6-1.2,2.8-1.2c1.2,0,2.1,0.4,2.7,1.2S441.1,673.8,441.1,675.2L441.1,675.2z M434.4,675.2
		c0,1.2,0.3,2.1,0.8,2.7s1.2,1,2.2,1s1.7-0.3,2.2-1s0.8-1.6,0.8-2.7c0-1.2-0.3-2.1-0.8-2.7s-1.2-1-2.2-1s-1.7,0.3-2.2,1
		S434.4,674,434.4,675.2L434.4,675.2z M454.5,677.3c0,0.8-0.3,1.3-0.9,1.8s-1.4,0.6-2.5,0.6c-1.1,0-2-0.2-2.7-0.5v-0.8
		c0.9,0.4,1.8,0.6,2.7,0.6c0.8,0,1.5-0.1,1.9-0.4s0.7-0.7,0.7-1.1c0-0.4-0.2-0.8-0.5-1.1s-0.9-0.6-1.7-0.9c-0.9-0.3-1.4-0.6-1.8-0.8
		s-0.6-0.5-0.8-0.8s-0.3-0.6-0.3-1c0-0.6,0.3-1.1,0.8-1.5s1.3-0.6,2.2-0.6c0.9,0,1.8,0.2,2.6,0.5L454,672c-0.8-0.3-1.6-0.5-2.3-0.5
		c-0.7,0-1.2,0.1-1.6,0.3s-0.6,0.5-0.6,1c0,0.4,0.2,0.8,0.5,1.1s0.9,0.6,1.8,0.9c0.8,0.3,1.3,0.5,1.7,0.7s0.6,0.5,0.8,0.8
		S454.5,676.9,454.5,677.3L454.5,677.3z M458.1,671v5.5c0,0.9,0.2,1.5,0.5,1.9s0.9,0.6,1.7,0.6c1,0,1.8-0.3,2.2-0.8s0.7-1.3,0.7-2.5
		V671h0.8v8.5h-0.7l-0.1-1.2h0c-0.6,0.9-1.5,1.3-2.9,1.3c-1.9,0-2.9-1-2.9-3.1V671L458.1,671L458.1,671z M471.3,679.6
		c-1.3,0-2.3-0.5-2.9-1.5h-0.1l0,0.7c0,0.4,0,0.8,0,1.3v3.2h-0.8V671h0.7l0.1,1.2h0c0.6-0.9,1.5-1.4,2.8-1.4c1.1,0,2,0.4,2.6,1.1
		s0.9,1.8,0.9,3.3c0,1.4-0.3,2.5-1,3.2S472.4,679.6,471.3,679.6L471.3,679.6z M471.3,678.9c0.9,0,1.5-0.3,2-1s0.7-1.5,0.7-2.7
		c0-2.5-0.9-3.7-2.7-3.7c-1,0-1.7,0.3-2.2,0.8s-0.7,1.4-0.7,2.7v0.2c0,1.3,0.2,2.3,0.7,2.8S470.3,678.9,471.3,678.9L471.3,678.9z
		 M481.7,679.6c-1.3,0-2.3-0.5-2.9-1.5h-0.1l0,0.7c0,0.4,0,0.8,0,1.3v3.2H478V671h0.7l0.1,1.2h0c0.6-0.9,1.5-1.4,2.8-1.4
		c1.1,0,2,0.4,2.6,1.1s0.9,1.8,0.9,3.3c0,1.4-0.3,2.5-1,3.2S482.8,679.6,481.7,679.6L481.7,679.6z M481.6,678.9c0.9,0,1.5-0.3,2-1
		s0.7-1.5,0.7-2.7c0-2.5-0.9-3.7-2.7-3.7c-1,0-1.7,0.3-2.2,0.8s-0.7,1.4-0.7,2.7v0.2c0,1.3,0.2,2.3,0.7,2.8S480.6,678.9,481.6,678.9
		L481.6,678.9z M495.4,675.2c0,1.4-0.3,2.5-1,3.2s-1.6,1.2-2.8,1.2c-0.7,0-1.4-0.2-2-0.5s-1-0.9-1.3-1.5s-0.5-1.4-0.5-2.3
		c0-1.4,0.3-2.5,1-3.2s1.6-1.2,2.8-1.2c1.2,0,2.1,0.4,2.7,1.2S495.4,673.8,495.4,675.2z M488.7,675.2c0,1.2,0.3,2.1,0.8,2.7
		s1.2,1,2.2,1s1.7-0.3,2.2-1s0.8-1.6,0.8-2.7c0-1.2-0.3-2.1-0.8-2.7s-1.2-1-2.2-1s-1.7,0.3-2.2,1S488.7,674,488.7,675.2L488.7,675.2
		z M501.9,670.8c0.4,0,0.7,0,1.2,0.1l-0.1,0.7c-0.4-0.1-0.7-0.1-1.1-0.1c-0.7,0-1.3,0.3-1.8,0.9s-0.7,1.4-0.7,2.3v4.7h-0.8V671h0.7
		l0.1,1.5h0.1c0.4-0.6,0.7-1.1,1.1-1.3S501.3,670.8,501.9,670.8L501.9,670.8z M507.8,678.9c0.5,0,0.9,0,1.3-0.1v0.6
		c-0.4,0.1-0.8,0.2-1.3,0.2c-0.8,0-1.3-0.2-1.7-0.6s-0.5-1-0.5-1.9v-5.5h-1.3v-0.5l1.3-0.4l0.4-1.9h0.4v2.1h2.5v0.7h-2.5v5.4
		c0,0.7,0.1,1.1,0.3,1.4S507.3,678.9,507.8,678.9L507.8,678.9z M518.9,678.9c0.5,0,0.9,0,1.3-0.1v0.6c-0.4,0.1-0.8,0.2-1.3,0.2
		c-0.8,0-1.3-0.2-1.7-0.6s-0.5-1-0.5-1.9v-5.5h-1.3v-0.5l1.3-0.4l0.4-1.9h0.4v2.1h2.5v0.7h-2.5v5.4c0,0.7,0.1,1.1,0.3,1.4
		S518.4,678.9,518.9,678.9z M528.7,679.5V674c0-0.9-0.2-1.5-0.5-1.9s-0.9-0.6-1.7-0.6c-1,0-1.8,0.3-2.2,0.8s-0.7,1.3-0.7,2.5v4.7
		h-0.8v-12.2h0.8v3.9l0,1.1h0.1c0.3-0.5,0.7-0.9,1.2-1.1s1.1-0.3,1.8-0.3c1.9,0,2.9,1,2.9,3.1v5.6L528.7,679.5L528.7,679.5z
		 M536.5,679.6c-1.2,0-2.2-0.4-2.9-1.1s-1-1.8-1-3.2c0-1.4,0.3-2.4,1-3.3c0.7-0.8,1.6-1.2,2.7-1.2c1,0,1.8,0.3,2.4,1
		s0.9,1.6,0.9,2.8v0.6h-6.1c0,1.2,0.3,2.1,0.8,2.7s1.3,0.9,2.3,0.9c0.5,0,0.9,0,1.3-0.1s0.8-0.2,1.4-0.4v0.7
		c-0.5,0.2-0.9,0.3-1.3,0.4S537,679.6,536.5,679.6L536.5,679.6z M536.3,671.5c-0.8,0-1.5,0.3-2,0.8s-0.8,1.3-0.9,2.3h5.2
		c0-1-0.2-1.8-0.6-2.3S537,671.5,536.3,671.5L536.3,671.5z M553.5,679.5V674c0-0.9-0.2-1.5-0.5-1.9s-0.9-0.6-1.7-0.6
		c-1,0-1.8,0.3-2.2,0.8c-0.5,0.5-0.7,1.3-0.7,2.5v4.7h-0.8V671h0.7l0.1,1.2h0c0.6-0.9,1.5-1.3,2.9-1.3c1.9,0,2.9,1,2.9,3.1v5.6
		L553.5,679.5L553.5,679.5z M561.3,679.6c-1.2,0-2.2-0.4-2.9-1.1s-1-1.8-1-3.2c0-1.4,0.3-2.4,1-3.3s1.6-1.2,2.7-1.2
		c1,0,1.8,0.3,2.4,1c0.6,0.7,0.9,1.6,0.9,2.8v0.6h-6.1c0,1.2,0.3,2.1,0.8,2.7s1.3,0.9,2.3,0.9c0.5,0,0.9,0,1.3-0.1s0.8-0.2,1.4-0.4
		v0.7c-0.5,0.2-0.9,0.3-1.3,0.4S561.8,679.6,561.3,679.6L561.3,679.6z M561,671.5c-0.8,0-1.5,0.3-2,0.8s-0.8,1.3-0.9,2.3h5.2
		c0-1-0.2-1.8-0.6-2.3S561.8,671.5,561,671.5L561,671.5z M569.7,678.9c0.5,0,0.9,0,1.3-0.1v0.6c-0.4,0.1-0.8,0.2-1.3,0.2
		c-0.8,0-1.3-0.2-1.7-0.6s-0.5-1-0.5-1.9v-5.5h-1.3v-0.5l1.3-0.4l0.4-1.9h0.4v2.1h2.5v0.7h-2.5v5.4c0,0.7,0.1,1.1,0.3,1.4
		S569.2,678.9,569.7,678.9L569.7,678.9z M580.4,679.5l-1.9-5.7c-0.1-0.4-0.3-1-0.5-1.7h0l-0.2,0.6l-0.4,1.1l-1.9,5.7h-0.8l-2.4-8.5
		h0.8l1.4,4.9c0.3,1.2,0.5,2.1,0.6,2.7h0c0.3-1.2,0.5-2,0.7-2.4l1.8-5.2h0.7l1.7,5.2c0.4,1.2,0.6,2,0.7,2.4h0c0-0.3,0.2-1.2,0.6-2.7
		l1.3-4.9h0.8l-2.3,8.5L580.4,679.5L580.4,679.5z M593,675.2c0,1.4-0.3,2.5-1,3.2s-1.6,1.2-2.8,1.2c-0.7,0-1.4-0.2-2-0.5
		s-1-0.9-1.3-1.5s-0.5-1.4-0.5-2.3c0-1.4,0.3-2.5,1-3.2s1.6-1.2,2.8-1.2c1.2,0,2.1,0.4,2.7,1.2S593,673.8,593,675.2L593,675.2z
		 M586.3,675.2c0,1.2,0.3,2.1,0.8,2.7c0.5,0.7,1.2,1,2.2,1s1.7-0.3,2.2-1s0.8-1.6,0.8-2.7c0-1.2-0.3-2.1-0.8-2.7
		c-0.5-0.6-1.2-1-2.2-1s-1.7,0.3-2.2,1C586.5,673.1,586.3,674,586.3,675.2L586.3,675.2z M599.5,670.8c0.4,0,0.7,0,1.2,0.1l-0.1,0.7
		c-0.4-0.1-0.7-0.1-1.1-0.1c-0.7,0-1.3,0.3-1.8,0.9s-0.7,1.4-0.7,2.3v4.7h-0.8V671h0.7l0.1,1.5h0.1c0.4-0.6,0.7-1.1,1.1-1.3
		S598.9,670.8,599.5,670.8L599.5,670.8z M603.9,675.7l4.3-4.8h0.9l-3.3,3.6l3.6,4.9h-0.9l-3.2-4.3l-1.4,1.3v3h-0.8v-12.2h0.8v6.1
		L603.9,675.7L603.9,675.7L603.9,675.7z M621.8,679.5l-0.2-1.3h-0.1c-0.4,0.5-0.9,0.9-1.3,1.2s-1,0.3-1.6,0.3
		c-0.8,0-1.5-0.2-1.9-0.6s-0.7-1-0.7-1.8c0-0.8,0.3-1.5,1-1.9c0.7-0.5,1.7-0.7,3-0.7l1.6,0v-0.6c0-0.8-0.2-1.4-0.5-1.8
		s-0.9-0.6-1.6-0.6c-0.8,0-1.6,0.2-2.4,0.7l-0.3-0.7c0.9-0.4,1.9-0.7,2.8-0.7c0.9,0,1.6,0.2,2.1,0.7s0.7,1.2,0.7,2.3v5.6
		L621.8,679.5L621.8,679.5z M618.7,678.9c0.9,0,1.6-0.3,2.1-0.8s0.8-1.2,0.8-2.2v-0.8l-1.5,0.1c-1.2,0.1-2,0.2-2.6,0.6
		c-0.5,0.3-0.8,0.8-0.8,1.5c0,0.5,0.2,0.9,0.5,1.2S618.1,678.9,618.7,678.9L618.7,678.9z M631.8,679.5V674c0-0.9-0.2-1.5-0.5-1.9
		c-0.4-0.4-0.9-0.6-1.7-0.6c-1,0-1.8,0.3-2.2,0.8c-0.5,0.5-0.7,1.3-0.7,2.5v4.7h-0.8V671h0.7l0.1,1.2h0c0.6-0.9,1.5-1.3,2.9-1.3
		c1.9,0,2.9,1,2.9,3.1v5.6L631.8,679.5L631.8,679.5z M639.3,670.8c0.6,0,1.1,0.1,1.6,0.3s0.8,0.6,1.2,1.1h0c0-0.7,0-1.3,0-1.9v-3.1
		h0.8v12.2h-0.5l-0.2-1.3h-0.1c-0.6,1-1.6,1.5-2.8,1.5c-1.2,0-2.1-0.4-2.7-1.1c-0.6-0.7-0.9-1.8-0.9-3.2c0-1.5,0.3-2.6,0.9-3.4
		C637.2,671.2,638.1,670.8,639.3,670.8L639.3,670.8z M639.3,671.5c-0.9,0-1.6,0.3-2.1,1s-0.7,1.6-0.7,2.8c0,2.4,0.9,3.6,2.8,3.6
		c1,0,1.7-0.3,2.1-0.8s0.7-1.5,0.7-2.8v-0.1c0-1.3-0.2-2.3-0.7-2.8S640.3,671.5,639.3,671.5L639.3,671.5z M651.3,668.6
		c0-0.5,0.2-0.8,0.5-0.8c0.2,0,0.3,0.1,0.4,0.2s0.1,0.3,0.1,0.6c0,0.2,0,0.4-0.1,0.6s-0.2,0.2-0.4,0.2
		C651.5,669.4,651.3,669.1,651.3,668.6L651.3,668.6z M652.2,679.5h-0.8V671h0.8V679.5z M658.1,678.9c0.5,0,0.9,0,1.3-0.1v0.6
		c-0.4,0.1-0.8,0.2-1.3,0.2c-0.8,0-1.3-0.2-1.7-0.6s-0.5-1-0.5-1.9v-5.5h-1.3v-0.5l1.3-0.4l0.4-1.9h0.4v2.1h2.5v0.7h-2.5v5.4
		c0,0.7,0.1,1.1,0.3,1.4S657.6,678.9,658.1,678.9L658.1,678.9z M667.3,677.3c0,0.8-0.3,1.3-0.9,1.8s-1.4,0.6-2.5,0.6
		c-1.1,0-2-0.2-2.7-0.5v-0.8c0.9,0.4,1.8,0.6,2.7,0.6c0.8,0,1.5-0.1,1.9-0.4s0.7-0.7,0.7-1.1c0-0.4-0.2-0.8-0.5-1.1
		s-0.9-0.6-1.7-0.9c-0.8-0.3-1.4-0.6-1.8-0.8s-0.6-0.5-0.8-0.8s-0.3-0.6-0.3-1c0-0.6,0.3-1.1,0.8-1.5s1.3-0.6,2.2-0.6
		c0.9,0,1.8,0.2,2.6,0.5l-0.3,0.7c-0.8-0.3-1.6-0.5-2.3-0.5c-0.7,0-1.2,0.1-1.6,0.3s-0.6,0.5-0.6,1c0,0.4,0.2,0.8,0.5,1.1
		s0.9,0.6,1.8,0.9c0.8,0.3,1.3,0.5,1.7,0.7s0.6,0.5,0.8,0.8S667.3,676.9,667.3,677.3L667.3,677.3z M677.1,679.5l-3.3-8.5h0.8
		l2.2,5.8c0.3,0.7,0.5,1.4,0.7,1.9h0c0.2-0.7,0.4-1.4,0.7-2l2.2-5.8h0.8l-3.3,8.5L677.1,679.5L677.1,679.5z M683.3,668.6
		c0-0.5,0.2-0.8,0.5-0.8c0.2,0,0.3,0.1,0.4,0.2s0.1,0.3,0.1,0.6c0,0.2,0,0.4-0.1,0.6s-0.2,0.2-0.4,0.2
		C683.4,669.4,683.3,669.1,683.3,668.6L683.3,668.6z M684.1,679.5h-0.8V671h0.8V679.5z M693.1,677.3c0,0.8-0.3,1.3-0.9,1.8
		s-1.4,0.6-2.5,0.6c-1.1,0-2-0.2-2.7-0.5v-0.8c0.9,0.4,1.8,0.6,2.7,0.6c0.8,0,1.5-0.1,1.9-0.4s0.7-0.7,0.7-1.1
		c0-0.4-0.2-0.8-0.5-1.1s-0.9-0.6-1.7-0.9c-0.8-0.3-1.4-0.6-1.8-0.8s-0.6-0.5-0.8-0.8s-0.3-0.6-0.3-1c0-0.6,0.3-1.1,0.8-1.5
		s1.3-0.6,2.2-0.6c0.9,0,1.8,0.2,2.6,0.5l-0.3,0.7c-0.8-0.3-1.6-0.5-2.3-0.5c-0.7,0-1.2,0.1-1.6,0.3s-0.6,0.5-0.6,1
		c0,0.4,0.2,0.8,0.5,1.1s0.9,0.6,1.8,0.9c0.8,0.3,1.3,0.5,1.7,0.7s0.6,0.5,0.8,0.8S693.1,676.9,693.1,677.3L693.1,677.3z
		 M695.9,668.6c0-0.5,0.2-0.8,0.5-0.8c0.2,0,0.3,0.1,0.4,0.2s0.1,0.3,0.1,0.6c0,0.2,0,0.4-0.1,0.6s-0.2,0.2-0.4,0.2
		C696.1,669.4,695.9,669.1,695.9,668.6L695.9,668.6z M696.8,679.5H696V671h0.8V679.5z M707.5,675.2c0,1.4-0.3,2.5-1,3.2
		s-1.6,1.2-2.8,1.2c-0.7,0-1.4-0.2-2-0.5s-1-0.9-1.3-1.5s-0.5-1.4-0.5-2.3c0-1.4,0.3-2.5,1-3.2s1.6-1.2,2.8-1.2
		c1.2,0,2.1,0.4,2.7,1.2S707.5,673.8,707.5,675.2L707.5,675.2z M700.8,675.2c0,1.2,0.3,2.1,0.8,2.7s1.2,1,2.2,1s1.7-0.3,2.2-1
		s0.8-1.6,0.8-2.7c0-1.2-0.3-2.1-0.8-2.7s-1.2-1-2.2-1s-1.7,0.3-2.2,1S700.8,674,700.8,675.2L700.8,675.2z M716.6,679.5V674
		c0-0.9-0.2-1.5-0.5-1.9s-0.9-0.6-1.7-0.6c-1,0-1.8,0.3-2.2,0.8s-0.7,1.3-0.7,2.5v4.7h-0.8V671h0.7l0.2,1.2h0
		c0.6-0.9,1.5-1.3,2.9-1.3c1.9,0,2.9,1,2.9,3.1v5.6L716.6,679.5L716.6,679.5z M731,679.5l-0.2-1.3h-0.1c-0.4,0.5-0.9,0.9-1.3,1.2
		s-1,0.3-1.6,0.3c-0.8,0-1.5-0.2-1.9-0.6s-0.7-1-0.7-1.8c0-0.8,0.3-1.5,1-1.9s1.7-0.7,3-0.7l1.6,0v-0.6c0-0.8-0.2-1.4-0.5-1.8
		s-0.9-0.6-1.6-0.6c-0.8,0-1.6,0.2-2.4,0.7l-0.3-0.7c0.9-0.4,1.9-0.7,2.8-0.7c0.9,0,1.6,0.2,2.1,0.7s0.7,1.2,0.7,2.3v5.6L731,679.5
		L731,679.5z M727.9,678.9c0.9,0,1.6-0.3,2.1-0.8s0.8-1.2,0.8-2.2v-0.8l-1.5,0.1c-1.2,0.1-2,0.2-2.5,0.6s-0.8,0.8-0.8,1.5
		c0,0.5,0.2,0.9,0.5,1.2S727.3,678.9,727.9,678.9L727.9,678.9z M738.4,670.8c0.4,0,0.7,0,1.2,0.1l-0.1,0.7c-0.4-0.1-0.7-0.1-1.1-0.1
		c-0.7,0-1.3,0.3-1.8,0.9s-0.7,1.4-0.7,2.3v4.7h-0.8V671h0.7l0.1,1.5h0.1c0.3-0.6,0.7-1.1,1.1-1.3S737.9,670.8,738.4,670.8
		L738.4,670.8z M745.6,679.6c-1.2,0-2.2-0.4-2.9-1.1s-1-1.8-1-3.2c0-1.4,0.3-2.4,1-3.3s1.6-1.2,2.7-1.2c1,0,1.8,0.3,2.4,1
		s0.9,1.6,0.9,2.8v0.6h-6.1c0,1.2,0.3,2.1,0.8,2.7s1.3,0.9,2.3,0.9c0.5,0,0.9,0,1.3-0.1s0.8-0.2,1.4-0.4v0.7
		c-0.5,0.2-0.9,0.3-1.3,0.4S746.1,679.6,745.6,679.6L745.6,679.6z M745.3,671.5c-0.8,0-1.5,0.3-2,0.8s-0.8,1.3-0.9,2.3h5.2
		c0-1-0.2-1.8-0.6-2.3S746.1,671.5,745.3,671.5L745.3,671.5z M759.8,671.6h-2v7.8h-0.8v-7.8h-1.6v-0.5l1.6-0.3v-0.7
		c0-1,0.2-1.8,0.6-2.3s1-0.7,1.9-0.7c0.5,0,0.9,0.1,1.4,0.2l-0.2,0.7c-0.4-0.1-0.8-0.2-1.2-0.2c-0.6,0-1,0.2-1.3,0.5
		s-0.4,0.9-0.4,1.7v0.8h2L759.8,671.6L759.8,671.6z M762.9,671v5.5c0,0.9,0.2,1.5,0.5,1.9s0.9,0.6,1.7,0.6c1,0,1.8-0.3,2.2-0.8
		s0.7-1.3,0.7-2.5V671h0.8v8.5h-0.7l-0.1-1.2h0c-0.6,0.9-1.5,1.3-2.9,1.3c-1.9,0-2.9-1-2.9-3.1V671L762.9,671L762.9,671z
		 M778.4,679.5V674c0-0.9-0.2-1.5-0.5-1.9s-0.9-0.6-1.7-0.6c-1,0-1.8,0.3-2.2,0.8s-0.7,1.3-0.7,2.5v4.7h-0.8V671h0.7l0.1,1.2h0
		c0.6-0.9,1.5-1.3,2.9-1.3c1.9,0,2.9,1,2.9,3.1v5.6L778.4,679.5L778.4,679.5z M785.8,670.8c0.6,0,1.1,0.1,1.6,0.3s0.8,0.6,1.2,1.1h0
		c0-0.7,0-1.3,0-1.9v-3.1h0.8v12.2h-0.5l-0.2-1.3h-0.1c-0.6,1-1.6,1.5-2.8,1.5c-1.2,0-2.1-0.4-2.7-1.1s-0.9-1.8-0.9-3.2
		c0-1.5,0.3-2.6,0.9-3.4S784.7,670.8,785.8,670.8L785.8,670.8z M785.8,671.5c-0.9,0-1.6,0.3-2.1,1s-0.7,1.6-0.7,2.8
		c0,2.4,0.9,3.6,2.8,3.6c1,0,1.7-0.3,2.1-0.8s0.7-1.5,0.7-2.8v-0.1c0-1.3-0.2-2.3-0.7-2.8S786.8,671.5,785.8,671.5L785.8,671.5z
		 M796.5,679.6c-1.2,0-2.2-0.4-2.9-1.1s-1-1.8-1-3.2c0-1.4,0.3-2.4,1-3.3s1.6-1.2,2.7-1.2c1,0,1.8,0.3,2.4,1s0.9,1.6,0.9,2.8v0.6
		h-6.1c0,1.2,0.3,2.1,0.8,2.7s1.3,0.9,2.3,0.9c0.5,0,0.9,0,1.3-0.1s0.8-0.2,1.4-0.4v0.7c-0.5,0.2-0.9,0.3-1.3,0.4
		S797,679.6,796.5,679.6L796.5,679.6z M796.3,671.5c-0.8,0-1.5,0.3-2,0.8s-0.8,1.3-0.9,2.3h5.2c0-1-0.2-1.8-0.6-2.3
		S797,671.5,796.3,671.5L796.3,671.5z M805.8,670.8c0.6,0,1.1,0.1,1.6,0.3s0.8,0.6,1.2,1.1h0c0-0.7,0-1.3,0-1.9v-3.1h0.8v12.2h-0.5
		l-0.2-1.3h-0.1c-0.6,1-1.6,1.5-2.8,1.5c-1.2,0-2.1-0.4-2.7-1.1s-0.9-1.8-0.9-3.2c0-1.5,0.3-2.6,0.9-3.4S804.6,670.8,805.8,670.8
		L805.8,670.8z M805.8,671.5c-0.9,0-1.6,0.3-2.1,1s-0.7,1.6-0.7,2.8c0,2.4,0.9,3.6,2.8,3.6c1,0,1.7-0.3,2.1-0.8s0.7-1.5,0.7-2.8
		v-0.1c0-1.3-0.2-2.3-0.7-2.8S806.7,671.5,805.8,671.5L805.8,671.5z M380.2,696v5.5c0,0.9,0.2,1.5,0.5,1.9s0.9,0.6,1.7,0.6
		c1,0,1.8-0.3,2.2-0.8s0.7-1.3,0.7-2.5V696h0.8v8.5h-0.7l-0.1-1.2h0c-0.6,0.9-1.5,1.3-2.9,1.3c-1.9,0-2.9-1-2.9-3.1V696L380.2,696
		L380.2,696z M395,702.3c0,0.8-0.3,1.3-0.9,1.8s-1.4,0.6-2.5,0.6c-1.1,0-2-0.2-2.7-0.5v-0.8c0.9,0.4,1.8,0.6,2.7,0.6
		c0.8,0,1.5-0.1,1.9-0.4s0.7-0.7,0.7-1.1c0-0.4-0.2-0.8-0.5-1.1s-0.9-0.6-1.7-0.9c-0.9-0.3-1.4-0.6-1.8-0.8
		c-0.3-0.2-0.6-0.5-0.8-0.8c-0.2-0.3-0.3-0.6-0.3-1c0-0.6,0.3-1.1,0.8-1.5s1.3-0.6,2.2-0.6c0.9,0,1.8,0.2,2.6,0.5l-0.3,0.7
		c-0.8-0.3-1.6-0.5-2.3-0.5c-0.7,0-1.2,0.1-1.6,0.3s-0.6,0.5-0.6,1c0,0.4,0.2,0.8,0.5,1.1c0.3,0.3,0.9,0.6,1.8,0.9
		c0.8,0.3,1.3,0.5,1.7,0.7s0.6,0.5,0.8,0.8S395,701.9,395,702.3L395,702.3z M397.9,693.6c0-0.5,0.2-0.8,0.5-0.8
		c0.2,0,0.3,0.1,0.4,0.2s0.1,0.3,0.1,0.6c0,0.2,0,0.4-0.1,0.6s-0.2,0.2-0.4,0.2C398.1,694.4,397.9,694.1,397.9,693.6L397.9,693.6z
		 M398.8,704.5H398V696h0.8L398.8,704.5L398.8,704.5z M408.4,704.5V699c0-0.9-0.2-1.5-0.5-1.9s-0.9-0.6-1.7-0.6
		c-1,0-1.8,0.3-2.2,0.8s-0.7,1.3-0.7,2.5v4.7h-0.8V696h0.7l0.1,1.2h0c0.6-0.9,1.5-1.3,2.9-1.3c1.9,0,2.9,1,2.9,3.1v5.6L408.4,704.5
		L408.4,704.5z M419.3,696v0.5l-1.8,0.1c0.5,0.6,0.7,1.2,0.7,1.9c0,0.8-0.3,1.5-0.8,2s-1.3,0.8-2.2,0.8c-0.4,0-0.7,0-0.8,0
		c-0.3,0.2-0.5,0.4-0.7,0.6s-0.2,0.5-0.2,0.7c0,0.3,0.1,0.5,0.3,0.6s0.5,0.2,1,0.2h1.5c0.9,0,1.6,0.2,2.1,0.6s0.7,0.9,0.7,1.7
		c0,0.9-0.4,1.6-1.1,2.1s-1.8,0.7-3.1,0.7c-1.1,0-1.9-0.2-2.5-0.6s-0.9-1-0.9-1.7c0-0.6,0.2-1.1,0.5-1.5s0.9-0.7,1.5-0.8
		c-0.3-0.1-0.5-0.3-0.6-0.5s-0.2-0.4-0.2-0.7c0-0.6,0.4-1.1,1.1-1.5c-0.5-0.2-0.9-0.5-1.2-1s-0.4-0.9-0.4-1.5c0-0.8,0.3-1.5,0.8-2
		s1.3-0.8,2.2-0.8c0.6,0,1,0.1,1.3,0.2L419.3,696L419.3,696z M412.4,705.9c0,1.2,0.9,1.8,2.6,1.8c2.2,0,3.3-0.7,3.3-2.1
		c0-0.5-0.2-0.9-0.5-1.1s-0.9-0.3-1.7-0.3h-1.4C413.2,704.1,412.4,704.7,412.4,705.9L412.4,705.9z M413.1,698.6
		c0,0.7,0.2,1.2,0.6,1.5s0.9,0.5,1.6,0.5c0.7,0,1.2-0.2,1.6-0.5s0.6-0.9,0.6-1.6c0-0.7-0.2-1.3-0.6-1.6s-0.9-0.5-1.6-0.5
		c-0.7,0-1.2,0.2-1.6,0.6S413.1,697.9,413.1,698.6L413.1,698.6z M432,704.5l-0.2-1.3h-0.1c-0.4,0.5-0.9,0.9-1.3,1.2s-1,0.3-1.6,0.3
		c-0.8,0-1.5-0.2-1.9-0.6s-0.7-1-0.7-1.8c0-0.8,0.3-1.5,1-1.9s1.7-0.7,3-0.7l1.6,0v-0.6c0-0.8-0.2-1.4-0.5-1.8s-0.9-0.6-1.6-0.6
		c-0.8,0-1.6,0.2-2.4,0.7l-0.3-0.7c0.9-0.4,1.9-0.7,2.8-0.7c0.9,0,1.6,0.2,2.1,0.7s0.7,1.2,0.7,2.3v5.6L432,704.5L432,704.5z
		 M428.8,703.9c0.9,0,1.6-0.3,2.1-0.8s0.8-1.2,0.8-2.2v-0.8l-1.5,0.1c-1.2,0.1-2,0.2-2.5,0.6s-0.8,0.8-0.8,1.5
		c0,0.5,0.2,0.9,0.5,1.2S428.2,703.9,428.8,703.9L428.8,703.9z M443.3,703.9c0.5,0,0.9,0,1.3-0.1v0.6c-0.4,0.1-0.8,0.2-1.3,0.2
		c-0.8,0-1.3-0.2-1.7-0.6s-0.5-1-0.5-1.9v-5.5h-1.3v-0.5l1.3-0.4l0.4-1.9h0.4v2.1h2.5v0.7h-2.5v5.4c0,0.7,0.1,1.1,0.3,1.4
		S442.8,703.9,443.3,703.9L443.3,703.9z M450.5,695.8c0.4,0,0.7,0,1.2,0.1l-0.1,0.7c-0.4-0.1-0.7-0.1-1.1-0.1
		c-0.7,0-1.3,0.3-1.8,0.9s-0.7,1.4-0.7,2.3v4.7h-0.8V696h0.7l0.1,1.5h0.1c0.3-0.6,0.7-1.1,1.1-1.3S450,695.8,450.5,695.8
		L450.5,695.8z M459.4,704.5l-0.2-1.3h-0.1c-0.4,0.5-0.9,0.9-1.3,1.2s-1,0.3-1.6,0.3c-0.8,0-1.5-0.2-1.9-0.6s-0.7-1-0.7-1.8
		c0-0.8,0.3-1.5,1-1.9s1.7-0.7,3-0.7l1.6,0v-0.6c0-0.8-0.2-1.4-0.5-1.8s-0.9-0.6-1.6-0.6c-0.8,0-1.6,0.2-2.4,0.7l-0.3-0.7
		c0.9-0.4,1.9-0.7,2.8-0.7c0.9,0,1.6,0.2,2.1,0.7s0.7,1.2,0.7,2.3v5.6L459.4,704.5L459.4,704.5z M456.3,703.9c0.9,0,1.6-0.3,2.1-0.8
		s0.8-1.2,0.8-2.2v-0.8l-1.5,0.1c-1.2,0.1-2,0.2-2.5,0.6s-0.8,0.8-0.8,1.5c0,0.5,0.2,0.9,0.5,1.2S455.7,703.9,456.3,703.9
		L456.3,703.9z M469.4,704.5V699c0-0.9-0.2-1.5-0.5-1.9s-0.9-0.6-1.7-0.6c-1,0-1.8,0.3-2.2,0.8s-0.7,1.3-0.7,2.5v4.7h-0.8V696h0.7
		l0.1,1.2h0c0.6-0.9,1.5-1.3,2.9-1.3c1.9,0,2.9,1,2.9,3.1v5.6L469.4,704.5L469.4,704.5z M479,702.3c0,0.8-0.3,1.3-0.9,1.8
		s-1.4,0.6-2.5,0.6c-1.1,0-2-0.2-2.7-0.5v-0.8c0.9,0.4,1.8,0.6,2.7,0.6c0.8,0,1.5-0.1,1.9-0.4s0.7-0.7,0.7-1.1
		c0-0.4-0.2-0.8-0.5-1.1s-0.9-0.6-1.7-0.9c-0.9-0.3-1.4-0.6-1.8-0.8s-0.6-0.5-0.8-0.8s-0.3-0.6-0.3-1c0-0.6,0.3-1.1,0.8-1.5
		s1.3-0.6,2.2-0.6c0.9,0,1.8,0.2,2.6,0.5l-0.3,0.7c-0.8-0.3-1.6-0.5-2.3-0.5c-0.7,0-1.2,0.1-1.6,0.3s-0.6,0.5-0.6,1
		c0,0.4,0.2,0.8,0.5,1.1s0.9,0.6,1.8,0.9c0.8,0.3,1.3,0.5,1.7,0.7s0.6,0.5,0.8,0.8S479,701.9,479,702.3L479,702.3z M485.6,704.6
		c-1.3,0-2.3-0.5-2.9-1.5h-0.1l0,0.7c0,0.4,0,0.8,0,1.3v3.2H482V696h0.7l0.1,1.2h0c0.6-0.9,1.5-1.4,2.8-1.4c1.1,0,2,0.4,2.6,1.1
		s0.9,1.8,0.9,3.3c0,1.4-0.3,2.5-1,3.2S486.7,704.6,485.6,704.6L485.6,704.6z M485.6,703.9c0.9,0,1.5-0.3,2-1s0.7-1.5,0.7-2.7
		c0-2.5-0.9-3.7-2.7-3.7c-1,0-1.7,0.3-2.2,0.8s-0.7,1.4-0.7,2.7v0.2c0,1.3,0.2,2.3,0.7,2.8S484.6,703.9,485.6,703.9L485.6,703.9z
		 M497.5,704.5l-0.2-1.3h-0.1c-0.4,0.5-0.9,0.9-1.3,1.2s-1,0.3-1.6,0.3c-0.8,0-1.5-0.2-1.9-0.6s-0.7-1-0.7-1.8c0-0.8,0.3-1.5,1-1.9
		s1.7-0.7,3-0.7l1.6,0v-0.6c0-0.8-0.2-1.4-0.5-1.8s-0.9-0.6-1.6-0.6c-0.8,0-1.6,0.2-2.4,0.7l-0.3-0.7c0.9-0.4,1.9-0.7,2.8-0.7
		c0.9,0,1.6,0.2,2.1,0.7s0.7,1.2,0.7,2.3v5.6L497.5,704.5L497.5,704.5z M494.3,703.9c0.9,0,1.6-0.3,2.1-0.8s0.8-1.2,0.8-2.2v-0.8
		l-1.5,0.1c-1.2,0.1-2,0.2-2.5,0.6s-0.8,0.8-0.8,1.5c0,0.5,0.2,0.9,0.5,1.2S493.8,703.9,494.3,703.9L494.3,703.9z M504.9,695.8
		c0.4,0,0.7,0,1.2,0.1l-0.1,0.7c-0.4-0.1-0.7-0.1-1.1-0.1c-0.7,0-1.3,0.3-1.8,0.9s-0.7,1.4-0.7,2.3v4.7h-0.8V696h0.7l0.1,1.5h0.1
		c0.4-0.6,0.7-1.1,1.1-1.3S504.4,695.8,504.9,695.8L504.9,695.8z M512,704.6c-1.2,0-2.2-0.4-2.9-1.1s-1-1.8-1-3.2
		c0-1.4,0.3-2.4,1-3.3s1.6-1.2,2.7-1.2c1,0,1.8,0.3,2.4,1c0.6,0.7,0.9,1.6,0.9,2.8v0.6h-6.1c0,1.2,0.3,2.1,0.8,2.7s1.3,0.9,2.3,0.9
		c0.5,0,0.9,0,1.3-0.1s0.8-0.2,1.4-0.4v0.7c-0.5,0.2-0.9,0.3-1.3,0.4S512.5,704.6,512,704.6L512,704.6z M511.8,696.5
		c-0.8,0-1.5,0.3-2,0.8s-0.8,1.3-0.9,2.3h5.2c0-1-0.2-1.8-0.6-2.3S512.6,696.5,511.8,696.5L511.8,696.5z M524.1,704.5V699
		c0-0.9-0.2-1.5-0.5-1.9c-0.4-0.4-0.9-0.6-1.7-0.6c-1,0-1.8,0.3-2.2,0.8c-0.5,0.5-0.7,1.3-0.7,2.5v4.7h-0.8V696h0.7l0.1,1.2h0
		c0.6-0.9,1.5-1.3,2.9-1.3c1.9,0,2.9,1,2.9,3.1v5.6L524.1,704.5L524.1,704.5z M530.7,703.9c0.5,0,0.9,0,1.3-0.1v0.6
		c-0.4,0.1-0.8,0.2-1.3,0.2c-0.8,0-1.3-0.2-1.7-0.6s-0.5-1-0.5-1.9v-5.5h-1.3v-0.5l1.3-0.4l0.4-1.9h0.4v2.1h2.5v0.7h-2.5v5.4
		c0,0.7,0.1,1.1,0.3,1.4S530.2,703.9,530.7,703.9L530.7,703.9z M543.2,704.6c-1.3,0-2.3-0.5-2.9-1.5h-0.1l0,0.7c0,0.4,0,0.8,0,1.3
		v3.2h-0.8V696h0.7l0.1,1.2h0c0.6-0.9,1.5-1.4,2.8-1.4c1.1,0,2,0.4,2.6,1.1c0.6,0.8,0.9,1.8,0.9,3.3c0,1.4-0.3,2.5-1,3.2
		C545.1,704.2,544.3,704.6,543.2,704.6L543.2,704.6z M543.2,703.9c0.9,0,1.5-0.3,2-1c0.5-0.6,0.7-1.5,0.7-2.7c0-2.5-0.9-3.7-2.7-3.7
		c-1,0-1.7,0.3-2.2,0.8s-0.7,1.4-0.7,2.7v0.2c0,1.3,0.2,2.3,0.7,2.8S542.2,703.9,543.2,703.9L543.2,703.9z M555,704.5l-0.2-1.3h-0.1
		c-0.4,0.5-0.9,0.9-1.3,1.2s-1,0.3-1.6,0.3c-0.8,0-1.5-0.2-1.9-0.6c-0.5-0.4-0.7-1-0.7-1.8c0-0.8,0.3-1.5,1-1.9s1.7-0.7,3-0.7l1.6,0
		v-0.6c0-0.8-0.2-1.4-0.5-1.8s-0.9-0.6-1.6-0.6c-0.8,0-1.6,0.2-2.4,0.7l-0.3-0.7c0.9-0.4,1.9-0.7,2.8-0.7c0.9,0,1.6,0.2,2.1,0.7
		s0.7,1.2,0.7,2.3v5.6L555,704.5L555,704.5z M551.9,703.9c0.9,0,1.6-0.3,2.1-0.8s0.8-1.2,0.8-2.2v-0.8l-1.5,0.1
		c-1.2,0.1-2,0.2-2.6,0.6c-0.5,0.3-0.8,0.8-0.8,1.5c0,0.5,0.2,0.9,0.5,1.2C550.9,703.8,551.3,703.9,551.9,703.9L551.9,703.9z
		 M562.5,695.8c0.4,0,0.7,0,1.2,0.1l-0.1,0.7c-0.4-0.1-0.7-0.1-1.1-0.1c-0.7,0-1.3,0.3-1.8,0.9s-0.7,1.4-0.7,2.3v4.7h-0.8V696h0.7
		l0.1,1.5h0.1c0.3-0.6,0.7-1.1,1.1-1.3S561.9,695.8,562.5,695.8L562.5,695.8z M568.4,703.9c0.5,0,0.9,0,1.3-0.1v0.6
		c-0.4,0.1-0.8,0.2-1.3,0.2c-0.8,0-1.3-0.2-1.7-0.6s-0.5-1-0.5-1.9v-5.5H565v-0.5l1.3-0.4l0.4-1.9h0.4v2.1h2.5v0.7H567v5.4
		c0,0.7,0.1,1.1,0.3,1.4S567.9,703.9,568.4,703.9z M572.2,693.6c0-0.5,0.2-0.8,0.5-0.8c0.2,0,0.3,0.1,0.4,0.2
		c0.1,0.1,0.1,0.3,0.1,0.6c0,0.2,0,0.4-0.1,0.6s-0.2,0.2-0.4,0.2C572.4,694.4,572.2,694.1,572.2,693.6L572.2,693.6z M573.1,704.5
		h-0.8V696h0.8V704.5z M580.1,704.6c-1.2,0-2.2-0.4-2.9-1.1s-1-1.8-1-3.2c0-1.4,0.4-2.5,1.1-3.3s1.7-1.2,2.9-1.2
		c0.7,0,1.4,0.1,2.1,0.4l-0.2,0.7c-0.7-0.2-1.4-0.4-1.9-0.4c-1,0-1.8,0.3-2.4,1c-0.5,0.6-0.8,1.6-0.8,2.8c0,1.1,0.3,2,0.8,2.7
		s1.3,1,2.2,1c0.8,0,1.5-0.1,2.1-0.4v0.7C581.7,704.5,581,704.6,580.1,704.6L580.1,704.6z M585,693.6c0-0.5,0.2-0.8,0.5-0.8
		c0.2,0,0.3,0.1,0.4,0.2s0.1,0.3,0.1,0.6c0,0.2,0,0.4-0.1,0.6s-0.2,0.2-0.4,0.2C585.2,694.4,585,694.1,585,693.6L585,693.6z
		 M585.9,704.5h-0.8V696h0.8L585.9,704.5L585.9,704.5z M593.2,704.6c-1.3,0-2.3-0.5-2.9-1.5h-0.1l0,0.7c0,0.4,0,0.8,0,1.3v3.2h-0.8
		V696h0.7l0.1,1.2h0c0.6-0.9,1.5-1.4,2.8-1.4c1.1,0,2,0.4,2.6,1.1c0.6,0.8,0.9,1.8,0.9,3.3c0,1.4-0.3,2.5-1,3.2
		C595.2,704.2,594.3,704.6,593.2,704.6L593.2,704.6z M593.2,703.9c0.9,0,1.5-0.3,2-1c0.5-0.6,0.7-1.5,0.7-2.7c0-2.5-0.9-3.7-2.7-3.7
		c-1,0-1.7,0.3-2.2,0.8s-0.7,1.4-0.7,2.7v0.2c0,1.3,0.2,2.3,0.7,2.8S592.2,703.9,593.2,703.9L593.2,703.9z M605.1,704.5l-0.2-1.3
		h-0.1c-0.4,0.5-0.9,0.9-1.3,1.2s-1,0.3-1.6,0.3c-0.8,0-1.5-0.2-1.9-0.6c-0.5-0.4-0.7-1-0.7-1.8c0-0.8,0.3-1.5,1-1.9s1.7-0.7,3-0.7
		l1.6,0v-0.6c0-0.8-0.2-1.4-0.5-1.8s-0.9-0.6-1.6-0.6c-0.8,0-1.6,0.2-2.4,0.7l-0.3-0.7c0.9-0.4,1.9-0.7,2.8-0.7
		c0.9,0,1.6,0.2,2.1,0.7c0.5,0.5,0.7,1.2,0.7,2.3v5.6L605.1,704.5L605.1,704.5z M601.9,703.9c0.9,0,1.6-0.3,2.1-0.8
		c0.5-0.5,0.8-1.2,0.8-2.2v-0.8l-1.5,0.1c-1.2,0.1-2,0.2-2.6,0.6c-0.5,0.3-0.8,0.8-0.8,1.5c0,0.5,0.2,0.9,0.5,1.2
		S601.3,703.9,601.9,703.9L601.9,703.9z M611.4,703.9c0.5,0,0.9,0,1.3-0.1v0.6c-0.4,0.1-0.8,0.2-1.3,0.2c-0.8,0-1.3-0.2-1.7-0.6
		s-0.5-1-0.5-1.9v-5.5h-1.3v-0.5l1.3-0.4l0.4-1.9h0.4v2.1h2.5v0.7H610v5.4c0,0.7,0.1,1.1,0.3,1.4S610.9,703.9,611.4,703.9
		L611.4,703.9z M622.4,700.2c0,1.4-0.3,2.5-1,3.2s-1.6,1.2-2.8,1.2c-0.7,0-1.4-0.2-2-0.5s-1-0.9-1.3-1.5s-0.5-1.4-0.5-2.3
		c0-1.4,0.3-2.5,1-3.2s1.6-1.2,2.8-1.2c1.2,0,2.1,0.4,2.7,1.2S622.4,698.8,622.4,700.2z M615.7,700.2c0,1.2,0.3,2.1,0.8,2.7
		s1.2,1,2.2,1s1.7-0.3,2.2-1c0.5-0.7,0.8-1.6,0.8-2.7c0-1.2-0.3-2.1-0.8-2.7c-0.5-0.6-1.2-1-2.2-1s-1.7,0.3-2.2,1
		C615.9,698.1,615.7,699,615.7,700.2L615.7,700.2z M628.9,695.8c0.4,0,0.7,0,1.2,0.1l-0.1,0.7c-0.4-0.1-0.7-0.1-1.1-0.1
		c-0.7,0-1.3,0.3-1.8,0.9s-0.7,1.4-0.7,2.3v4.7h-0.8V696h0.7l0.1,1.5h0.1c0.3-0.6,0.7-1.1,1.1-1.3S628.3,695.8,628.9,695.8
		L628.9,695.8z M631.1,696h0.8l1.8,4.8c0.5,1.5,0.9,2.5,1,3h0c0.2-0.7,0.6-1.7,1.1-3l1.8-4.7h0.8l-3.8,9.9c-0.3,0.8-0.6,1.3-0.8,1.6
		s-0.5,0.5-0.7,0.6c-0.3,0.1-0.6,0.2-1,0.2c-0.3,0-0.6-0.1-1-0.2v-0.7c0.3,0.1,0.6,0.1,1,0.1c0.3,0,0.5-0.1,0.7-0.2s0.4-0.3,0.5-0.6
		s0.4-0.7,0.6-1.2s0.4-0.9,0.4-1.1L631.1,696L631.1,696z M649.2,695.8c1.2,0,2.1,0.4,2.7,1.1s0.9,1.8,0.9,3.3c0,1.4-0.3,2.5-1,3.3
		s-1.5,1.1-2.7,1.1c-0.6,0-1.1-0.1-1.6-0.4s-0.9-0.6-1.2-1.1h-0.1l-0.2,1.3h-0.5v-12.2h0.8v3.1c0,0.5,0,0.9,0,1.3l0,0.7h0.1
		c0.3-0.5,0.7-0.9,1.2-1.1C648,695.9,648.6,695.8,649.2,695.8L649.2,695.8z M649.2,696.5c-1,0-1.7,0.3-2.1,0.9s-0.6,1.5-0.6,2.8v0.1
		c0,1.3,0.2,2.2,0.7,2.8s1.2,0.8,2.1,0.8c0.9,0,1.6-0.3,2.1-1s0.7-1.6,0.7-2.8C652,697.7,651.1,696.5,649.2,696.5L649.2,696.5z
		 M656.6,696v5.5c0,0.9,0.2,1.5,0.5,1.9s0.9,0.6,1.7,0.6c1,0,1.8-0.3,2.2-0.8s0.7-1.3,0.7-2.5V696h0.8v8.5h-0.7l-0.1-1.2h0
		c-0.6,0.9-1.5,1.3-2.9,1.3c-1.9,0-2.9-1-2.9-3.1V696L656.6,696L656.6,696z M669.3,695.8c0.6,0,1.1,0.1,1.6,0.3s0.8,0.6,1.2,1.1h0
		c0-0.7,0-1.3,0-1.9v-3.1h0.8v12.2h-0.5l-0.2-1.3h-0.1c-0.6,1-1.6,1.5-2.8,1.5c-1.2,0-2.1-0.4-2.7-1.1s-0.9-1.8-0.9-3.2
		c0-1.5,0.3-2.6,0.9-3.4S668.1,695.8,669.3,695.8L669.3,695.8z M669.3,696.5c-0.9,0-1.6,0.3-2.1,1s-0.7,1.6-0.7,2.8
		c0,2.4,0.9,3.6,2.8,3.6c1,0,1.7-0.3,2.1-0.8s0.7-1.5,0.7-2.8v-0.1c0-1.3-0.2-2.3-0.7-2.8S670.3,696.5,669.3,696.5L669.3,696.5z
		 M683.1,696v0.5l-1.8,0.1c0.5,0.6,0.7,1.2,0.7,1.9c0,0.8-0.3,1.5-0.8,2s-1.3,0.8-2.2,0.8c-0.4,0-0.7,0-0.8,0
		c-0.3,0.2-0.5,0.4-0.7,0.6s-0.2,0.5-0.2,0.7c0,0.3,0.1,0.5,0.3,0.6s0.5,0.2,1,0.2h1.5c0.9,0,1.6,0.2,2.1,0.6s0.7,0.9,0.7,1.7
		c0,0.9-0.4,1.6-1.1,2.1s-1.8,0.7-3.1,0.7c-1.1,0-1.9-0.2-2.5-0.6s-0.9-1-0.9-1.7c0-0.6,0.2-1.1,0.5-1.5s0.9-0.7,1.5-0.8
		c-0.3-0.1-0.5-0.3-0.6-0.5s-0.2-0.4-0.2-0.7c0-0.6,0.4-1.1,1.1-1.5c-0.5-0.2-0.9-0.5-1.2-1s-0.4-0.9-0.4-1.5c0-0.8,0.3-1.5,0.8-2
		s1.3-0.8,2.2-0.8c0.6,0,1,0.1,1.3,0.2L683.1,696L683.1,696z M676.3,705.9c0,1.2,0.9,1.8,2.6,1.8c2.2,0,3.3-0.7,3.3-2.1
		c0-0.5-0.2-0.9-0.5-1.1s-0.9-0.3-1.7-0.3h-1.4C677,704.1,676.3,704.7,676.3,705.9z M676.9,698.6c0,0.7,0.2,1.2,0.6,1.5
		s0.9,0.5,1.6,0.5c0.7,0,1.2-0.2,1.6-0.5s0.6-0.9,0.6-1.6c0-0.7-0.2-1.3-0.6-1.6s-0.9-0.5-1.6-0.5c-0.7,0-1.2,0.2-1.6,0.6
		S676.9,697.9,676.9,698.6L676.9,698.6z M689.1,704.6c-1.2,0-2.2-0.4-2.9-1.1s-1-1.8-1-3.2c0-1.4,0.3-2.4,1-3.3s1.6-1.2,2.7-1.2
		c1,0,1.8,0.3,2.4,1s0.9,1.6,0.9,2.8v0.6H686c0,1.2,0.3,2.1,0.8,2.7s1.3,0.9,2.3,0.9c0.5,0,0.9,0,1.3-0.1s0.8-0.2,1.4-0.4v0.7
		c-0.5,0.2-0.9,0.3-1.3,0.4S689.6,704.6,689.1,704.6L689.1,704.6z M688.9,696.5c-0.8,0-1.5,0.3-2,0.8s-0.8,1.3-0.9,2.3h5.2
		c0-1-0.2-1.8-0.6-2.3S689.6,696.5,688.9,696.5L688.9,696.5z M697.5,703.9c0.5,0,0.9,0,1.3-0.1v0.6c-0.4,0.1-0.8,0.2-1.3,0.2
		c-0.8,0-1.3-0.2-1.7-0.6s-0.5-1-0.5-1.9v-5.5H694v-0.5l1.3-0.4l0.4-1.9h0.4v2.1h2.5v0.7h-2.5v5.4c0,0.7,0.1,1.1,0.3,1.4
		S697,703.9,697.5,703.9L697.5,703.9z M701.3,693.6c0-0.5,0.2-0.8,0.5-0.8c0.2,0,0.3,0.1,0.4,0.2s0.1,0.3,0.1,0.6
		c0,0.2,0,0.4-0.1,0.6s-0.2,0.2-0.4,0.2C701.5,694.4,701.3,694.1,701.3,693.6L701.3,693.6z M702.2,704.5h-0.8V696h0.8L702.2,704.5
		L702.2,704.5z M711.8,704.5V699c0-0.9-0.2-1.5-0.5-1.9s-0.9-0.6-1.7-0.6c-1,0-1.8,0.3-2.2,0.8s-0.7,1.3-0.7,2.5v4.7h-0.8V696h0.7
		l0.1,1.2h0c0.6-0.9,1.5-1.3,2.9-1.3c1.9,0,2.9,1,2.9,3.1v5.6L711.8,704.5L711.8,704.5z M722.7,696v0.5l-1.8,0.1
		c0.5,0.6,0.7,1.2,0.7,1.9c0,0.8-0.3,1.5-0.8,2s-1.3,0.8-2.2,0.8c-0.4,0-0.7,0-0.8,0c-0.3,0.2-0.5,0.4-0.7,0.6s-0.2,0.5-0.2,0.7
		c0,0.3,0.1,0.5,0.3,0.6s0.5,0.2,1,0.2h1.5c0.9,0,1.6,0.2,2.1,0.6s0.7,0.9,0.7,1.7c0,0.9-0.4,1.6-1.1,2.1s-1.8,0.7-3.1,0.7
		c-1.1,0-1.9-0.2-2.5-0.6s-0.9-1-0.9-1.7c0-0.6,0.2-1.1,0.5-1.5s0.9-0.7,1.5-0.8c-0.3-0.1-0.5-0.3-0.6-0.5s-0.2-0.4-0.2-0.7
		c0-0.6,0.4-1.1,1.1-1.5c-0.5-0.2-0.9-0.5-1.2-1s-0.4-0.9-0.4-1.5c0-0.8,0.3-1.5,0.8-2s1.3-0.8,2.2-0.8c0.6,0,1,0.1,1.3,0.2
		L722.7,696L722.7,696z M715.8,705.9c0,1.2,0.9,1.8,2.6,1.8c2.2,0,3.3-0.7,3.3-2.1c0-0.5-0.2-0.9-0.5-1.1s-0.9-0.3-1.7-0.3h-1.4
		C716.6,704.1,715.8,704.7,715.8,705.9z M716.5,698.6c0,0.7,0.2,1.2,0.6,1.5s0.9,0.5,1.6,0.5c0.7,0,1.2-0.2,1.6-0.5s0.6-0.9,0.6-1.6
		c0-0.7-0.2-1.3-0.6-1.6s-0.9-0.5-1.6-0.5c-0.7,0-1.2,0.2-1.6,0.6S716.5,697.9,716.5,698.6L716.5,698.6z M733.8,704.6
		c-1.3,0-2.3-0.5-2.9-1.5h-0.1l0,0.7c0,0.4,0,0.8,0,1.3v3.2h-0.8V696h0.7l0.1,1.2h0c0.6-0.9,1.5-1.4,2.8-1.4c1.1,0,2,0.4,2.6,1.1
		s0.9,1.8,0.9,3.3c0,1.4-0.3,2.5-1,3.2S734.9,704.6,733.8,704.6L733.8,704.6z M733.8,703.9c0.9,0,1.5-0.3,2-1s0.7-1.5,0.7-2.7
		c0-2.5-0.9-3.7-2.7-3.7c-1,0-1.7,0.3-2.2,0.8s-0.7,1.4-0.7,2.7v0.2c0,1.3,0.2,2.3,0.7,2.8S732.8,703.9,733.8,703.9L733.8,703.9z
		 M743.9,695.8c0.4,0,0.7,0,1.2,0.1l-0.1,0.7c-0.4-0.1-0.7-0.1-1.1-0.1c-0.7,0-1.3,0.3-1.8,0.9s-0.7,1.4-0.7,2.3v4.7h-0.8V696h0.7
		l0.1,1.5h0.1c0.3-0.6,0.7-1.1,1.1-1.3S743.3,695.8,743.9,695.8L743.9,695.8z M754.6,700.2c0,1.4-0.3,2.5-1,3.2s-1.6,1.2-2.8,1.2
		c-0.7,0-1.4-0.2-2-0.5s-1-0.9-1.3-1.5s-0.5-1.4-0.5-2.3c0-1.4,0.3-2.5,1-3.2s1.6-1.2,2.8-1.2c1.2,0,2.1,0.4,2.7,1.2
		S754.6,698.8,754.6,700.2L754.6,700.2z M747.9,700.2c0,1.2,0.3,2.1,0.8,2.7s1.2,1,2.2,1s1.7-0.3,2.2-1s0.8-1.6,0.8-2.7
		c0-1.2-0.3-2.1-0.8-2.7s-1.2-1-2.2-1s-1.7,0.3-2.2,1S747.9,699,747.9,700.2L747.9,700.2z M761.1,704.6c-1.2,0-2.2-0.4-2.9-1.1
		s-1-1.8-1-3.2c0-1.4,0.4-2.5,1.1-3.3s1.7-1.2,2.9-1.2c0.7,0,1.4,0.1,2.1,0.4l-0.2,0.7c-0.7-0.2-1.4-0.4-1.9-0.4c-1,0-1.8,0.3-2.4,1
		s-0.8,1.6-0.8,2.8c0,1.1,0.3,2,0.8,2.7s1.3,1,2.2,1c0.8,0,1.5-0.1,2.1-0.4v0.7C762.7,704.5,762,704.6,761.1,704.6L761.1,704.6z
		 M769.6,704.6c-1.2,0-2.2-0.4-2.9-1.1s-1-1.8-1-3.2c0-1.4,0.3-2.4,1-3.3s1.6-1.2,2.7-1.2c1,0,1.8,0.3,2.4,1s0.9,1.6,0.9,2.8v0.6
		h-6.1c0,1.2,0.3,2.1,0.8,2.7s1.3,0.9,2.3,0.9c0.5,0,0.9,0,1.3-0.1s0.8-0.2,1.4-0.4v0.7c-0.5,0.2-0.9,0.3-1.3,0.4
		S770.1,704.6,769.6,704.6L769.6,704.6z M769.3,696.5c-0.8,0-1.5,0.3-2,0.8s-0.8,1.3-0.9,2.3h5.2c0-1-0.2-1.8-0.6-2.3
		S770.1,696.5,769.3,696.5L769.3,696.5z M781,702.3c0,0.8-0.3,1.3-0.9,1.8s-1.4,0.6-2.5,0.6c-1.1,0-2-0.2-2.7-0.5v-0.8
		c0.9,0.4,1.8,0.6,2.7,0.6c0.8,0,1.5-0.1,1.9-0.4s0.7-0.7,0.7-1.1c0-0.4-0.2-0.8-0.5-1.1s-0.9-0.6-1.7-0.9c-0.8-0.3-1.4-0.6-1.8-0.8
		s-0.6-0.5-0.8-0.8s-0.3-0.6-0.3-1c0-0.6,0.3-1.1,0.8-1.5s1.3-0.6,2.2-0.6c0.9,0,1.8,0.2,2.6,0.5l-0.3,0.7c-0.8-0.3-1.6-0.5-2.3-0.5
		c-0.7,0-1.2,0.1-1.6,0.3s-0.6,0.5-0.6,1c0,0.4,0.2,0.8,0.5,1.1s0.9,0.6,1.8,0.9c0.8,0.3,1.3,0.5,1.7,0.7s0.6,0.5,0.8,0.8
		S781,701.9,781,702.3L781,702.3z M789.2,702.3c0,0.8-0.3,1.3-0.9,1.8s-1.4,0.6-2.5,0.6c-1.1,0-2-0.2-2.7-0.5v-0.8
		c0.9,0.4,1.8,0.6,2.7,0.6c0.8,0,1.5-0.1,1.9-0.4s0.7-0.7,0.7-1.1c0-0.4-0.2-0.8-0.5-1.1s-0.9-0.6-1.7-0.9c-0.8-0.3-1.4-0.6-1.8-0.8
		s-0.6-0.5-0.8-0.8s-0.3-0.6-0.3-1c0-0.6,0.3-1.1,0.8-1.5s1.3-0.6,2.2-0.6c0.9,0,1.8,0.2,2.6,0.5l-0.3,0.7c-0.8-0.3-1.6-0.5-2.3-0.5
		c-0.7,0-1.2,0.1-1.6,0.3s-0.6,0.5-0.6,1c0,0.4,0.2,0.8,0.5,1.1s0.9,0.6,1.8,0.9c0.8,0.3,1.3,0.5,1.7,0.7s0.6,0.5,0.8,0.8
		S789.2,701.9,789.2,702.3L789.2,702.3z"/>
	<path class="st0" d="M569,734h29"/>
	<g class="st1">
		<path class="st2" d="M762.9,329l-0.2,4.3l-38.8,13.4l0.2-4.3L762.9,329z M371.2,394l0.2-4.3c0.4-7.4,2-14.9,5-22.2
			c11.9-29,43.2-53,88.2-67.6c9.7-3.1,19.9-5.7,30.4-7.8c84.3-16.3,180.5,4.7,229.1,50.3l-0.2,4.3c-48.6-45.6-144.8-66.6-229.1-50.3
			c-10.5,2-20.8,4.7-30.4,7.8c-45,14.5-76.4,38.5-88.2,67.6C373.2,379.1,371.6,386.5,371.2,394L371.2,394z"/>
		<path class="st3" d="M388.8,443.9c-12.5-16-18.4-33-17.6-49.9l0.2-4.3c-0.7,14.7,3.7,29.4,12.9,43.4l0,1.1l0-1.1
			c4.6,7,10.5,13.9,17.5,20.5c54.1,50.7,161.9,74.2,256.3,55.9c11.8-2.3,23.2-5.2,34-8.7c65.6-21.2,102.4-59.6,104.3-100.5l-0.2,4.3
			c-1.9,40.9-38.7,79.3-104.3,100.5c-10.8,3.5-22.3,6.4-34,8.7c-94.4,18.3-202.2-5.2-256.3-55.9
			C396.8,453.3,392.5,448.6,388.8,443.9c-0.2-0.4-0.4-0.9-0.7-1.3C388.4,443,388.6,443.5,388.8,443.9L388.8,443.9z M388.2,442.7
			L388.2,442.7L388.2,442.7l-0.1-0.1l0,0l0,0l0,0l0,0l0,0l0,0l0,0l0,0l0,0l0,0l0,0l0,0l0,0l0,0l0,0l0,0l0,0l0,0l0,0l0,0l0,0l0,0l0,0
			l0,0l0,0l0,0L388.2,442.7L388.2,442.7L388.2,442.7 M387.8,441.7L387.8,441.7L387.8,441.7L387.8,441.7L387.8,441.7L387.8,441.7
			l0,0.1l0,0l0,0l0,0l0,0l0,0v0l0,0v0v0l0,0v0l0,0l0,0l0,0l0,0l0,0L387.8,441.7L387.8,441.7L387.8,441.7L387.8,441.7L387.8,441.7
			L387.8,441.7 M387.8,441.7l-0.1-0.2l-0.1-0.2l-0.1-0.2l-0.1-0.2l-0.1-0.2l-0.1-0.2L387,440l-0.1-0.3l-0.1-0.3l-0.1-0.3l-0.1-0.3
			l-0.1-0.2l-0.1-0.2l-0.1-0.2l-0.1-0.2l-0.1-0.2l0.1,0.2l0.1,0.2l0.1,0.2l0.1,0.2l0.1,0.2l0.1,0.3l0.1,0.3l0.1,0.3l0.1,0.3l0.1,0.2
			l0.1,0.2l0.1,0.2l0.1,0.2l0.1,0.2l0.1,0.2L387.8,441.7 M386.1,437.8l-0.1-0.2l-0.1-0.2l-0.1-0.2l-0.1-0.2l-0.1-0.2l-0.1-0.2
			l-0.1-0.2l-0.1-0.2l-0.1-0.2l-0.1-0.3l-0.1-0.3l-0.1-0.3l-0.1-0.3l-0.1-0.3l-0.1-0.3l-0.1-0.3l0.1,0.3l0.1,0.3l0.1,0.3l0.1,0.3
			l0.1,0.3l0.1,0.3l0.1,0.3l0.1,0.3l0.1,0.2l0.1,0.2l0.1,0.2l0.1,0.2l0.1,0.2l0.1,0.2l0.1,0.2L386.1,437.8"/>
		<path class="st2" d="M797.7,400.4l-0.2,4.3c-2,41.1-39,79.7-104.8,101c-10.9,3.5-22.4,6.5-34.3,8.8c-95,18.4-203.5-5.3-257.9-56.3
			c-21.3-19.9-31.7-42.1-30.6-64.3l0.2-4.3c-1.1,22.1,9.4,44.4,30.6,64.3c54.4,51,162.9,74.7,257.9,56.3c11.8-2.3,23.4-5.2,34.3-8.8
			C758.7,480.1,795.7,441.5,797.7,400.4L797.7,400.4z M763.3,328c66.1,61.9,34.3,139.5-70.4,173.4c-10.9,3.5-22.4,6.5-34.3,8.8
			c-95,18.4-203.5-5.3-257.9-56.3c-28.4-26.6-37.5-57.4-25.6-86.6c11.9-29.2,43.5-53.4,88.8-68c9.7-3.1,20-5.8,30.6-7.8
			c84.7-16.4,181.3,4.6,230,49.9L763.3,328z M692.2,500.7c103.9-33.6,135.6-110.5,70.7-171.7l-38.8,13.4
			c-48.6-45.6-144.8-66.6-229.1-50.3c-10.5,2-20.8,4.7-30.4,7.8c-45,14.5-76.4,38.5-88.2,67.6c-11.9,29-2.9,59.6,25.4,86
			c54.1,50.7,161.9,74.2,256.3,55.9C669.9,507.2,681.4,504.2,692.2,500.7"/>
		<path class="st2" d="M796.5,400.3l-0.2,4.3c1.2-23.9-9.6-48.7-33.6-71.3l0.2-4.3C786.9,351.6,797.7,376.4,796.5,400.3L796.5,400.3
			z"/>
		<path class="st4" d="M495.1,292.1c84.3-16.3,180.5,4.7,228.8,49.9l39.1-13c64.9,61.2,33.2,138.1-70.7,171.7
			c-10.8,3.5-22.3,6.4-34,8.7c-94.4,18.3-202.2-5.2-256.3-55.9c-28.3-26.5-37.3-57-25.4-86c11.9-29,43.2-53,88.2-67.6
			C474.3,296.8,484.6,294.2,495.1,292.1L495.1,292.1z"/>
	</g>
	<path class="st5" d="M708.5,165.3c0,6.3-5.4,12.2-12.2,12.2H463.8c-6.8,0-12.3-5.9-12.3-12.2v-49.5c0-6.3,5.6-10.3,12.3-10.3h232.5
		c6.8,0,12.2,4,12.2,10.3V165.3z"/>
	<path class="st6" d="M493.4,148.5c-1.1,0-2.2-0.2-3.2-0.6c-1.1-0.5-2.1-1.1-3-2c-1.6-1.7-2.5-3.9-2.5-6.2c0-2.6,1.1-5,3.1-6.7
		c2.5-2.1,6.1-2.7,9.1-1.4c3.3,1.4,5.4,4.6,5.4,8.1c0,1.1-0.2,2.2-0.6,3.3C500.2,146.4,497,148.5,493.4,148.5L493.4,148.5z
		 M493.4,135.9c-0.9,0-1.8,0.3-2.5,0.9c-0.9,0.7-1.4,1.8-1.4,2.9c0,1,0.4,2,1.1,2.7c0.4,0.4,0.8,0.7,1.3,0.9
		c0.5,0.2,0.9,0.3,1.4,0.3c1.6,0,3-0.9,3.6-2.4c0.2-0.5,0.3-0.9,0.3-1.4c0-1.6-0.9-2.9-2.4-3.6C494.4,136,493.9,135.9,493.4,135.9
		L493.4,135.9z"/>
	<g>
		<path class="st6" d="M505.8,133.6c0.7-0.1,1.8-0.3,2.9-0.3c1.6,0,2.6,0.3,3.4,0.9c0.6,0.5,1,1.2,1,2.2c0,1.2-0.8,2.2-2.1,2.7v0
			c1.2,0.3,2.5,1.3,2.5,3.1c0,1.1-0.4,1.9-1,2.4c-0.9,0.8-2.2,1.1-4.2,1.1c-1.1,0-1.9-0.1-2.4-0.1V133.6L505.8,133.6z M507.4,138.6
			h1.4c1.7,0,2.6-0.9,2.6-2.1c0-1.4-1.1-2-2.7-2c-0.7,0-1.1,0.1-1.4,0.1L507.4,138.6L507.4,138.6z M507.4,144.5
			c0.3,0.1,0.8,0.1,1.3,0.1c1.6,0,3.1-0.6,3.1-2.4c0-1.7-1.4-2.4-3.2-2.4h-1.3V144.5z M519,133.5v7.2c0,2.7,1.2,3.9,2.9,3.9
			c1.8,0,3-1.2,3-3.9v-7.2h1.6v7.1c0,3.8-2,5.3-4.6,5.3c-2.5,0-4.4-1.4-4.4-5.2v-7.2H519L519,133.5z M531,133.6
			c1-0.1,2.1-0.3,3.4-0.3c2.3,0,3.9,0.5,5,1.5c1.1,1,1.7,2.4,1.7,4.4c0,2-0.6,3.6-1.8,4.8c-1.1,1.1-3,1.8-5.4,1.8
			c-1.1,0-2.1-0.1-2.9-0.1V133.6L531,133.6z M532.6,144.4c0.4,0.1,1,0.1,1.6,0.1c3.4,0,5.2-1.9,5.2-5.2c0-2.9-1.6-4.7-5-4.7
			c-0.8,0-1.4,0.1-1.8,0.2L532.6,144.4L532.6,144.4z M554.2,145.1c-0.7,0.3-2.1,0.7-3.8,0.7c-1.9,0-3.4-0.5-4.6-1.6
			c-1.1-1-1.7-2.6-1.7-4.6c0-3.6,2.5-6.3,6.6-6.3c1.4,0,2.5,0.3,3,0.6l-0.4,1.3c-0.7-0.3-1.5-0.5-2.7-0.5c-3,0-4.9,1.9-4.9,4.9
			c0,3.1,1.9,4.9,4.7,4.9c1,0,1.7-0.1,2.1-0.3v-3.6h-2.5v-1.3h4V145.1L554.2,145.1z M564.8,139.9H560v4.4h5.3v1.3h-6.9v-12.2h6.6
			v1.3h-5v3.9h4.8L564.8,139.9L564.8,139.9z M571.5,134.8h-3.7v-1.3h9.1v1.3h-3.7v10.9h-1.6L571.5,134.8L571.5,134.8z"/>
	</g>
	<path class="st6" d="M479.4,148.2c-2.7,0-5.2-1.2-6.9-3.4c-0.7-0.9-1.2-1.9-1.5-2.9c-0.3-1.2-0.4-2.4-0.3-3.6
		c0.3-2.3,1.5-4.4,3.3-5.8c2-1.6,4.7-2.2,7.2-1.6l-1,4.8c-1.1-0.2-2.3,0-3.2,0.7c-0.8,0.6-1.3,1.5-1.5,2.5c-0.1,0.5,0,1.1,0.1,1.6
		c0.1,0.5,0.4,0.9,0.7,1.3c1,1.3,2.6,1.8,4.1,1.4l1.4,4.8C481,148.1,480.2,148.2,479.4,148.2z M480.4,140.8
		c-0.8,0.6-1.8,0.4-2.4-0.3c-0.6-0.8-0.4-1.8,0.3-2.4c0.8-0.6,1.8-0.4,2.4,0.3C481.3,139.1,481.2,140.2,480.4,140.8"/>
	<path class="st6" d="M493.4,148.5c-2.7,0-5.2-1.2-6.9-3.4c-0.7-0.9-1.2-1.9-1.5-2.9c-0.3-1.2-0.4-2.4-0.3-3.6
		c0.3-2.3,1.5-4.4,3.3-5.8c2-1.6,4.7-2.2,7.2-1.6l-1,4.8c-1.1-0.2-2.3,0-3.2,0.7c-0.8,0.6-1.3,1.5-1.5,2.5c-0.1,0.5,0,1.1,0.1,1.6
		c0.1,0.5,0.4,0.9,0.6,1.3c1,1.3,2.6,1.8,4.1,1.4l1.4,4.8C495,148.4,494.2,148.5,493.4,148.5L493.4,148.5z M494.4,141.1
		c-0.8,0.6-1.8,0.4-2.4-0.3c-0.6-0.8-0.5-1.8,0.3-2.4c0.8-0.6,1.8-0.4,2.4,0.3C495.3,139.4,495.2,140.5,494.4,141.1"/>
	<path class="st6" d="M479.4,148.2c-1.1,0-2.2-0.2-3.2-0.6c-1.1-0.4-2.2-1.1-3-2l3.5-3.5c0.4,0.4,0.8,0.7,1.3,0.9c1,0.4,2,0.4,3-0.1
		l2,4.5C481.8,148,480.6,148.2,479.4,148.2L479.4,148.2z M473.1,145.6c-1.6-1.7-2.6-3.9-2.6-6.2c0-2.6,1.1-5,3.1-6.7
		c2.5-2.1,6.1-2.7,9.1-1.4l-1.9,4.6c-1.3-0.6-2.9-0.3-4,0.6c-0.9,0.7-1.4,1.8-1.4,2.9c0,1,0.4,2,1.1,2.7L473.1,145.6L473.1,145.6z"
		/>
	<path class="st7" d="M649,121.7l-29.2-31.4c8.1-7.6,18.1-11.5,29.2-11.5C649,78.9,649,121.7,649,121.7z"/>
	<path class="st8" d="M649,121.7l-40.5,14c-5.7-16.5-1.4-33.4,11.3-45.3L649,121.7L649,121.7z"/>
	<path class="st9" d="M649,121.7l-3.7,42.7c-17.3-1.5-31.1-12.3-36.8-28.8L649,121.7L649,121.7z"/>
	<path class="st10" d="M649,121.7l16.1,39.8c-6.5,2.6-12.9,3.6-19.8,3C645.2,164.5,649,121.7,649,121.7z"/>
	<path class="st11" d="M649,121.7l37.5,20.8c-5.1,9.1-11.8,15.1-21.4,19C665,161.5,649,121.7,649,121.7z"/>
	<path class="st12" d="M649,121.7l33.8-26.4c10.7,13.7,12.2,32,3.7,47.2L649,121.7L649,121.7z"/>
	<path class="st13" d="M649,121.7V78.9c13.9,0,25.2,5.5,33.8,16.5C682.7,95.4,649,121.7,649,121.7z"/>
	<circle class="st4" cx="650.6" cy="121.7" r="24"/>
	<path d="M668.2,121.4c0,9.5-7.7,17.2-17.2,17.2s-17.2-7.7-17.2-17.2s7.7-17.2,17.2-17.2C660.5,104.2,668.2,111.9,668.2,121.4z"/>
	<path class="st4" d="M650.2,114.1v-1.2h1.7v1.1c0.4,0.1,0.8,0.2,1.1,0.3c1.4,0.5,2.2,1.5,2.2,2.9c0,0.4,0,0.8,0,1.2h-3.7
		c0-0.2,0-0.3,0-0.5c0-0.4,0-0.8-0.1-1.1c0-0.3-0.2-0.5-0.5-0.5c-0.3,0-0.6,0.1-0.6,0.4c-0.2,0.6-0.2,1.1,0.1,1.7
		c0.1,0.2,0.2,0.3,0.4,0.4c0.7,0.5,1.5,1,2.2,1.4c0.3,0.2,0.7,0.5,1,0.7c0.7,0.5,1.2,1.2,1.4,2.1c0.3,1.1,0.3,2.2,0,3.3
		c-0.4,1.4-1.4,2.2-2.7,2.6c-0.3,0.1-0.5,0.1-0.8,0.2v1.3h-1.7v-1.4c-0.2,0-0.5-0.1-0.7-0.1c-0.9-0.2-1.7-0.7-2.2-1.4
		c-0.3-0.5-0.5-1-0.6-1.6c-0.1-0.7-0.1-1.4-0.1-2.1h3.7c0,0.1,0,0.1,0,0.2l0,2.1c0,0.1,0,0.2,0,0.3c0,0.3,0.2,0.4,0.4,0.5
		c0.3,0.1,0.6,0,0.7-0.3c0.1-0.1,0.1-0.3,0.1-0.5c0-0.6,0-1.2-0.1-1.8c-0.1-0.3-0.2-0.6-0.5-0.8c-0.2-0.2-0.5-0.4-0.7-0.5
		c-0.7-0.5-1.4-0.9-2.1-1.4c-0.9-0.7-1.4-1.6-1.6-2.6c-0.2-0.8-0.1-1.6,0.1-2.3c0.4-1,1.1-1.7,2.1-2c0.4-0.1,0.7-0.2,1.1-0.3
		C650,114.1,650.1,114.1,650.2,114.1L650.2,114.1z"/>
	<ellipse class="st14" cx="523.5" cy="421.3" rx="11.9" ry="4"/>
	<g>
		<path class="st13" d="M516.5,384c4.9,3.5,8.4,3.5,14.1,0c2.2,2.8,2.9,5.9,3.5,9.3c0.2,1.3,0.6,4.4,0.5,5.7
			c-0.2,3.1-0.8,3.2-1.6,3.8c-0.4,0.2-0.5,0.8-0.6,1.3c-0.5,3.7-1.3,7.5-1.5,11.2c-0.3,5.7-6.5,7.6-10.4,6c-2.6-1.1-4.2-2.9-4.5-5.8
			c-0.4-3.8-1-7.6-1.5-11.4c-0.1-0.6-0.1-1.4-0.9-1.6c0,0-1.6-0.6-1.6-3.4c-0.1-4.9,0.7-9.7,3.4-14
			C515.7,384.9,516.3,384.2,516.5,384L516.5,384z M531.8,376.4c-0.1,4.5-3.9,8.2-8.4,8.2c-4.5,0-8.2-3.9-8.2-8.5
			c0.1-4.5,3.8-8.2,8.4-8.1C528.2,368,531.9,371.8,531.8,376.4L531.8,376.4z"/>
	</g>
	<g class="st15">
		<ellipse class="st14" cx="381.4" cy="507.1" rx="13.1" ry="4.4"/>
		<g>
			<path class="st13" d="M373.7,466c5.4,3.9,9.3,3.9,15.6,0c2.4,3.1,3.2,6.5,3.9,10.3c0.2,1.4,0.6,4.8,0.6,6.3
				c-0.2,3.5-0.9,3.6-1.8,4.2c-0.4,0.3-0.6,0.9-0.6,1.4c-0.6,4.1-1.4,8.2-1.6,12.4c-0.3,6.3-7.2,8.4-11.4,6.6
				c-2.9-1.2-4.6-3.2-5-6.4c-0.4-4.2-1.1-8.4-1.7-12.5c-0.1-0.6-0.1-1.5-0.9-1.8c0,0-1.7-0.7-1.7-3.7c-0.1-5.4,0.8-10.7,3.7-15.4
				C372.8,467,373.5,466.2,373.7,466L373.7,466z M390.5,457.7c-0.1,5-4.3,9-9.2,9c-5,0-9.1-4.3-9-9.4c0.1-5,4.2-9,9.2-8.9
				C386.6,448.4,390.6,452.6,390.5,457.7L390.5,457.7z"/>
		</g>
	</g>
	<g class="st15">
		<ellipse class="st14" cx="782.4" cy="513.9" rx="13.1" ry="4.4"/>
		<g>
			<path class="st13" d="M774.8,472.8c5.4,3.9,9.3,3.9,15.6,0c2.4,3.1,3.2,6.5,3.9,10.3c0.2,1.4,0.6,4.8,0.6,6.3
				c-0.2,3.5-0.9,3.6-1.8,4.2c-0.4,0.3-0.6,0.9-0.6,1.4c-0.6,4.1-1.4,8.2-1.6,12.4c-0.3,6.3-7.2,8.4-11.4,6.6
				c-2.9-1.2-4.6-3.2-5-6.4c-0.4-4.2-1.1-8.4-1.7-12.5c-0.1-0.6-0.1-1.5-0.9-1.8c0,0-1.7-0.7-1.7-3.7c-0.1-5.4,0.8-10.7,3.7-15.4
				C773.9,473.8,774.6,473,774.8,472.8L774.8,472.8z M791.6,464.5c-0.1,5-4.3,9-9.2,9c-5,0-9.1-4.3-9-9.4c0.1-5,4.2-9,9.2-8.9
				C787.7,455.2,791.7,459.3,791.6,464.5L791.6,464.5z"/>
		</g>
	</g>
	<g>
		<path class="st16" d="M654.3,539c0.4-0.8,0.6-1.7,0.7-2.7c0.2-3.8,0.9-7.5,1.5-11.2c0.1-0.5,0.2-1,0.6-1.3
			c0.8-0.6,1.5-0.7,1.6-3.8c0.1-1.3-0.3-4.4-0.5-5.7c-0.6-3.4-1.3-6.5-3.5-9.3c-5.7,3.5-9.2,3.5-14.1,0c-0.2,0.2-0.8,0.9-1,1.2
			c-2.6,4.3-3.4,9.1-3.4,14c0,2.7,1.6,3.4,1.6,3.4c0.8,0.2,0.8,1,0.9,1.6c0.6,3.8,1.1,7.6,1.5,11.4c0.1,0.9,0.3,1.7,0.7,2.4
			c-3.2,0.7-5.2,1.9-5.2,3.3c0,2.2,5.3,4,11.9,4c6.6,0,11.9-1.8,11.9-4C659.4,540.9,657.4,539.7,654.3,539L654.3,539z M647.5,505.6
			c4.5,0,8.3-3.7,8.4-8.2c0.1-4.6-3.6-8.4-8.2-8.5c-4.6,0-8.3,3.6-8.4,8.1C639.2,501.7,642.9,505.6,647.5,505.6L647.5,505.6z
			 M597.9,560.3c0.4-0.9,0.7-1.8,0.7-2.9c0.2-4.1,1-8.3,1.6-12.4c0.1-0.5,0.3-1.1,0.6-1.4c0.9-0.6,1.6-0.7,1.8-4.2
			c0.1-1.5-0.3-4.8-0.6-6.3c-0.6-3.8-1.4-7.2-3.8-10.3c-6.3,3.9-10.2,3.9-15.6,0c-0.2,0.2-0.9,1-1.1,1.3c-2.9,4.7-3.8,10-3.7,15.4
			c0,3,1.7,3.7,1.7,3.7c0.9,0.3,0.8,1.2,0.9,1.8c0.6,4.2,1.2,8.3,1.7,12.5c0.1,1,0.4,1.9,0.7,2.7c-3.5,0.8-5.8,2.1-5.8,3.6
			c0,2.4,5.9,4.4,13.1,4.4s13.1-2,13.1-4.4C603.5,562.4,601.3,561.1,597.9,560.3L597.9,560.3z M590.3,523.5c5,0,9.1-4,9.2-9
			c0.1-5.1-3.9-9.3-9-9.3c-5,0-9.2,4-9.2,8.9C581.3,519.2,585.3,523.4,590.3,523.5L590.3,523.5z"/>
	</g>
	<g class="st15">
		<ellipse class="st14" cx="647.5" cy="542.3" rx="11.9" ry="4"/>
		<g>
			<path class="st13" d="M640.6,505c4.9,3.5,8.4,3.5,14.1,0c2.2,2.8,2.9,5.9,3.5,9.3c0.2,1.3,0.6,4.4,0.5,5.7
				c-0.2,3.1-0.8,3.2-1.6,3.8c-0.4,0.2-0.5,0.8-0.6,1.3c-0.5,3.7-1.3,7.5-1.5,11.2c-0.3,5.7-6.5,7.6-10.4,6
				c-2.6-1.1-4.2-2.9-4.5-5.8c-0.4-3.8-1-7.6-1.5-11.4c-0.1-0.6-0.1-1.4-0.9-1.6c0,0-1.6-0.6-1.6-3.4c-0.1-4.9,0.7-9.7,3.4-14
				C639.8,505.9,640.4,505.2,640.6,505L640.6,505z M655.8,497.4c-0.1,4.5-3.9,8.2-8.4,8.2c-4.6,0-8.2-3.9-8.2-8.5
				c0-4.5,3.8-8.2,8.4-8.1C652.3,489,655.9,492.8,655.8,497.4L655.8,497.4z"/>
		</g>
	</g>
	<g class="st15">
		<ellipse class="st14" cx="590.4" cy="563.9" rx="13.1" ry="4.4"/>
		<g>
			<path class="st13" d="M582.7,522.8c5.4,3.9,9.3,3.9,15.6,0c2.4,3.1,3.2,6.5,3.9,10.3c0.2,1.4,0.6,4.8,0.6,6.3
				c-0.2,3.5-0.9,3.6-1.8,4.2c-0.4,0.3-0.6,0.9-0.6,1.4c-0.6,4.1-1.4,8.2-1.6,12.4c-0.3,6.3-7.2,8.4-11.4,6.6
				c-2.9-1.2-4.6-3.2-5-6.4c-0.4-4.2-1.1-8.4-1.7-12.5c-0.1-0.6-0.1-1.5-0.9-1.8c0,0-1.7-0.7-1.7-3.7c-0.1-5.4,0.8-10.7,3.7-15.4
				C581.8,523.8,582.5,523,582.7,522.8L582.7,522.8z M599.6,514.5c-0.1,5-4.3,9-9.2,9c-5,0-9.1-4.3-9-9.4c0.1-5,4.2-9,9.2-8.9
				C595.6,505.2,599.6,509.3,599.6,514.5L599.6,514.5z"/>
		</g>
	</g>
	<g class="st15">
		<ellipse class="st14" cx="431.4" cy="276.1" rx="9.5" ry="3.2"/>
		<g>
			<path class="st13" d="M425.9,246.4c3.9,2.8,6.7,2.8,11.2,0c1.7,2.2,2.3,4.7,2.8,7.4c0.2,1,0.5,3.5,0.4,4.5
				c-0.1,2.5-0.6,2.6-1.3,3c-0.3,0.2-0.4,0.7-0.5,1c-0.4,3-1,6-1.2,8.9c-0.2,4.5-5.2,6-8.2,4.8c-2.1-0.9-3.3-2.3-3.6-4.6
				c-0.3-3-0.8-6.1-1.2-9.1c-0.1-0.5,0-1.1-0.7-1.3c0,0-1.2-0.5-1.2-2.7c-0.1-3.9,0.6-7.7,2.7-11.1
				C425.2,247.1,425.7,246.5,425.9,246.4L425.9,246.4z M438,240.4c-0.1,3.6-3.1,6.5-6.7,6.5c-3.6,0-6.6-3.1-6.5-6.8
				c0-3.6,3-6.5,6.7-6.5C435.2,233.7,438.1,236.7,438,240.4L438,240.4z"/>
		</g>
	</g>
	<g class="st15">
		<ellipse class="st14" cx="623.6" cy="283.1" rx="9.5" ry="3.2"/>
		<g>
			<path class="st13" d="M618.1,253.4c3.9,2.8,6.7,2.8,11.2,0c1.7,2.2,2.3,4.7,2.8,7.4c0.2,1,0.5,3.5,0.4,4.5
				c-0.1,2.5-0.6,2.6-1.3,3c-0.3,0.2-0.4,0.7-0.5,1c-0.4,3-1,6-1.2,8.9c-0.2,4.5-5.2,6-8.2,4.8c-2.1-0.9-3.3-2.3-3.6-4.6
				c-0.3-3-0.8-6.1-1.2-9.1c-0.1-0.5,0-1.1-0.7-1.3c0,0-1.2-0.5-1.2-2.7c-0.1-3.9,0.6-7.7,2.7-11.1
				C617.5,254.1,617.9,253.5,618.1,253.4L618.1,253.4z M630.3,247.4c-0.1,3.6-3.1,6.5-6.7,6.5c-3.6,0-6.6-3.1-6.5-6.8
				c0-3.6,3-6.5,6.7-6.5C627.4,240.7,630.3,243.7,630.3,247.4L630.3,247.4z"/>
		</g>
	</g>
	<g class="st15">
		<ellipse class="st14" cx="377.4" cy="325.1" rx="9.5" ry="3.2"/>
		<g>
			<path class="st13" d="M371.8,295.4c3.9,2.8,6.7,2.8,11.2,0c1.7,2.2,2.3,4.7,2.8,7.4c0.2,1,0.5,3.5,0.4,4.5
				c-0.1,2.5-0.6,2.6-1.3,3c-0.3,0.2-0.4,0.7-0.5,1c-0.4,3-1,6-1.2,8.9c-0.2,4.5-5.2,6-8.2,4.8c-2.1-0.9-3.3-2.3-3.6-4.6
				c-0.3-3-0.8-6-1.2-9.1c-0.1-0.5,0-1.1-0.7-1.3c0,0-1.2-0.5-1.2-2.7c-0.1-3.9,0.6-7.7,2.7-11.1
				C371.2,296.1,371.7,295.5,371.8,295.4L371.8,295.4z M384,289.4c-0.1,3.6-3.1,6.5-6.7,6.5c-3.6,0-6.6-3.1-6.5-6.8
				c0-3.6,3-6.5,6.7-6.5C381.2,282.7,384.1,285.7,384,289.4L384,289.4z"/>
		</g>
	</g>
	<ellipse class="st14" cx="466.5" cy="385.3" rx="11.9" ry="4"/>
	<g>
		<path class="st13" d="M459.6,348c4.9,3.5,8.4,3.5,14.1,0c2.2,2.8,2.9,5.9,3.5,9.3c0.2,1.3,0.6,4.4,0.5,5.7
			c-0.1,3.1-0.8,3.2-1.6,3.8c-0.4,0.2-0.5,0.8-0.6,1.3c-0.5,3.7-1.3,7.5-1.5,11.2c-0.3,5.7-6.5,7.6-10.4,6c-2.6-1.1-4.2-2.9-4.5-5.8
			c-0.4-3.8-1-7.6-1.5-11.4c-0.1-0.6-0.1-1.4-0.9-1.6c0,0-1.6-0.6-1.6-3.4c-0.1-4.9,0.7-9.7,3.4-14
			C458.8,348.9,459.4,348.2,459.6,348L459.6,348z M474.8,340.4c-0.1,4.5-3.9,8.2-8.4,8.2c-4.6,0-8.2-3.9-8.2-8.5
			c0-4.5,3.8-8.2,8.4-8.1C471.3,332,474.9,335.8,474.8,340.4L474.8,340.4z"/>
	</g>
	<g class="st17">
		<ellipse class="st12" cx="466.5" cy="385.3" rx="11.9" ry="4"/>
		<g>
			<path class="st12" d="M459.6,348c4.9,3.5,8.4,3.5,14.1,0c2.2,2.8,2.9,5.9,3.5,9.3c0.2,1.3,0.6,4.4,0.5,5.7
				c-0.1,3.1-0.8,3.2-1.6,3.8c-0.4,0.2-0.5,0.8-0.6,1.3c-0.5,3.7-1.3,7.5-1.5,11.2c-0.3,5.7-6.5,7.6-10.4,6
				c-2.6-1.1-4.2-2.9-4.5-5.8c-0.4-3.8-1-7.6-1.5-11.4c-0.1-0.6-0.1-1.4-0.9-1.6c0,0-1.6-0.6-1.6-3.4c-0.1-4.9,0.7-9.7,3.4-14
				C458.8,348.9,459.4,348.2,459.6,348L459.6,348z M474.8,340.4c-0.1,4.5-3.9,8.2-8.4,8.2c-4.6,0-8.2-3.9-8.2-8.5
				c0-4.5,3.8-8.2,8.4-8.1C471.3,332,474.9,335.8,474.8,340.4L474.8,340.4z"/>
		</g>
	</g>
	<path class="st18" d="M435.6,306.7"/>
	<ellipse class="st14" cx="572.1" cy="460.9" rx="13.1" ry="4.4"/>
	<g>
		<path class="st7" d="M564.4,419.8c5.4,3.9,9.3,3.9,15.6,0c2.4,3.1,3.2,6.5,3.9,10.3c0.2,1.4,0.6,4.8,0.6,6.3
			c-0.2,3.5-0.9,3.6-1.8,4.2c-0.4,0.3-0.6,0.9-0.6,1.4c-0.6,4.1-1.4,8.2-1.6,12.4c-0.3,6.3-7.2,8.4-11.4,6.6c-2.9-1.2-4.6-3.2-5-6.4
			c-0.4-4.2-1.1-8.4-1.7-12.5c-0.1-0.6-0.1-1.5-0.9-1.8c0,0-1.7-0.7-1.7-3.7c-0.1-5.4,0.8-10.7,3.7-15.4
			C563.5,420.8,564.2,420,564.4,419.8L564.4,419.8z M581.3,411.5c-0.1,5-4.3,9-9.2,9c-5,0-9.1-4.3-9-9.4c0.1-5,4.2-9,9.2-8.9
			C577.3,402.2,581.3,406.3,581.3,411.5L581.3,411.5z"/>
	</g>
	<g transform="matrix(.995 .097 -.097 .995 34.635 -63.356)">
		
			<ellipse transform="matrix(2.532796e-06 1 -1 2.532796e-06 1147.5167 -474.2673)" class="st14" cx="810.9" cy="336.6" rx="11.9" ry="19.5"/>
		
			<ellipse transform="matrix(2.532796e-06 1 -1 2.532796e-06 1147.5167 -474.2673)" class="st19" cx="810.9" cy="336.6" rx="11.9" ry="19.5"/>
	</g>
	<g transform="matrix(.986 -.168 .168 .986 -65.982 89.785)">
		
			<ellipse transform="matrix(2.532709e-06 1 -1 2.532709e-06 1114.0734 -147.6583)" class="st14" cx="630.9" cy="483.2" rx="14.3" ry="23.4"/>
		
			<ellipse transform="matrix(2.532709e-06 1 -1 2.532709e-06 1114.0734 -147.6583)" class="st20" cx="630.9" cy="483.2" rx="14.3" ry="23.4"/>
	</g>
	<g class="st15">
		<ellipse class="st14" cx="339.5" cy="383.3" rx="11.9" ry="4"/>
		<g>
			<path class="st13" d="M332.5,346c4.9,3.5,8.4,3.5,14.1,0c2.2,2.8,2.9,5.9,3.5,9.3c0.2,1.3,0.6,4.4,0.5,5.7
				c-0.2,3.1-0.8,3.2-1.6,3.8c-0.4,0.2-0.5,0.8-0.6,1.3c-0.5,3.7-1.3,7.5-1.5,11.2c-0.3,5.7-6.6,7.6-10.4,6
				c-2.6-1.1-4.2-2.9-4.5-5.8c-0.4-3.8-1-7.6-1.5-11.4c-0.1-0.6-0.1-1.4-0.9-1.6c0,0-1.6-0.6-1.6-3.4c-0.1-4.9,0.7-9.7,3.4-14
				C331.7,346.9,332.3,346.2,332.5,346L332.5,346z M347.8,338.4c-0.1,4.5-3.9,8.2-8.4,8.2c-4.6,0-8.2-3.9-8.2-8.5
				c0.1-4.5,3.8-8.2,8.4-8.1C344.2,330,347.9,333.8,347.8,338.4L347.8,338.4z"/>
		</g>
	</g>
	<ellipse class="st14" cx="478.4" cy="306.1" rx="9.5" ry="3.2"/>
	<g>
		<path class="st13" d="M472.8,276.4c3.9,2.8,6.7,2.8,11.2,0c1.7,2.2,2.3,4.7,2.8,7.4c0.2,1,0.5,3.5,0.4,4.5c-0.1,2.5-0.6,2.6-1.3,3
			c-0.3,0.2-0.4,0.7-0.5,1c-0.4,3-1,6-1.2,8.9c-0.2,4.5-5.2,6-8.2,4.8c-2.1-0.9-3.3-2.3-3.6-4.6c-0.3-3-0.8-6-1.2-9.1
			c-0.1-0.5,0-1.1-0.7-1.3c0,0-1.2-0.5-1.2-2.7c-0.1-3.9,0.6-7.7,2.7-11.1C472.2,277.1,472.7,276.5,472.8,276.4L472.8,276.4z
			 M485,270.4c-0.1,3.6-3.1,6.5-6.7,6.5c-3.6,0-6.6-3.1-6.5-6.8c0-3.6,3-6.5,6.7-6.5C482.2,263.7,485.1,266.7,485,270.4L485,270.4z"
			/>
	</g>
	<path d="M789.5,317.8l0.1-2l2.9,0.1l0,2L789.5,317.8z M789.6,313.9l0.1-4l2.8,0l0,4L789.6,313.9z M789.7,308l0-4l2.7,0l0,4
		L789.7,308z M789.8,302l0-4l2.7,0l0.1,4L789.8,302z M789.7,296.1l-0.1-4l2.6-0.1l0.1,4L789.7,296.1z M789.5,290.2l-0.2-4l2.5-0.1
		l0.2,4L789.5,290.2z M789.3,284.3l-0.2-4l2.4-0.2l0.3,3.9L789.3,284.3z M788.9,278.4l-0.3-3.9l2.3-0.2l0.4,3.9L788.9,278.4z
		 M788.4,272.5l-0.4-3.9l2.3-0.2l0.4,3.9L788.4,272.5z M787.8,266.7l-0.5-3.9l2.2-0.3l0.5,3.9L787.8,266.7z M787,260.8l-0.6-3.9
		l2.1-0.3l0.6,3.9L787,260.8z M786.2,254.9l-0.6-3.9l2-0.4l0.7,3.9L786.2,254.9z M785.2,249.1l-0.7-3.9l1.9-0.4l0.8,3.9L785.2,249.1
		z M784.1,243.3l-0.8-3.9l1.9-0.4l0.9,3.9L784.1,243.3z M782.8,237.5l-0.9-3.8l1.8-0.4l1,3.8L782.8,237.5z M781.4,231.8l-1-3.8
		l1.7-0.5l1.1,3.8L781.4,231.8z M779.8,226.1l-1.1-3.8l1.6-0.5l1.2,3.8L779.8,226.1z M778.1,220.4l-1.2-3.8l1.5-0.5l1.3,3.7
		L778.1,220.4z M776.2,214.8l-1.3-3.7l1.4-0.5l1.4,3.7L776.2,214.8z M774.2,209.3l-1.5-3.7l1.4-0.5l1.5,3.7L774.2,209.3z M772,203.8
		l-1.6-3.6l1.3-0.6l1.6,3.6L772,203.8z M769.6,198.4l-1.7-3.6l1.2-0.6l1.7,3.6L769.6,198.4z M767.1,193.1l-1.8-3.5l1.1-0.6l1.9,3.5
		L767.1,193.1z M764.3,187.8l-1.9-3.5l1-0.6l2,3.4L764.3,187.8z M761.4,182.7l-2.1-3.4l0.9-0.6l2.1,3.4L761.4,182.7z M758.3,177.6
		l-2.2-3.3l0.8-0.6l2.2,3.3L758.3,177.6z M755,172.7l-2.3-3.2l0.8-0.6l2.3,3.2L755,172.7z M751.6,167.9l-2.4-3.1l0.7-0.5l2.5,3.1
		L751.6,167.9z M747.9,163.2l-2.5-3l0.6-0.5l2.6,3L747.9,163.2z M744.1,158.7l-2.7-2.9l0.5-0.5l2.7,2.9L744.1,158.7z M740.1,154.4
		l-2.8-2.8l0.5-0.5l2.8,2.8L740.1,154.4z M735.9,150.2l-2.9-2.7l0.4-0.4l2.9,2.7L735.9,150.2z M731.5,146.2l-3-2.6l0.3-0.4l3,2.5
		L731.5,146.2z M727,142.4l-3.1-2.4l0.3-0.3l3.2,2.4L727,142.4z M722.3,138.7l-3.2-2.3l0.2-0.3l3.3,2.3L722.3,138.7z M717.5,135.4
		l-3.3-2.1l0.1-0.2l3.4,2.1L717.5,135.4z M712.4,132.2l-3.4-2l0.1-0.2l3.5,1.9L712.4,132.2z M707.3,129.3l-3.5-1.8l0.1-0.1l3.6,1.7
		L707.3,129.3z M702,126.7l-3.6-1.6l0,0L702,126.7L702,126.7z M696.5,124.4l-1.9-0.6L696.5,124.4L696.5,124.4z M795.8,314.3l-5,1.9
		l-4.8-2.2l4.5,11.7L795.8,314.3z M530.5,285.1l0.3-2l2.8,0.4l-0.3,2L530.5,285.1z M531.1,281.1l0.6-3.9l2.7,0.4l-0.6,4L531.1,281.1
		z M532.1,275.2l0.7-3.9l2.6,0.4l-0.6,3.9L532.1,275.2z M533.1,269.2l0.8-3.9l2.5,0.5l-0.7,3.9L533.1,269.2z M534.3,263.3l0.8-3.9
		l2.4,0.5l-0.8,3.9L534.3,263.3z M535.5,257.4l0.9-3.9l2.3,0.5l-0.8,3.9L535.5,257.4z M536.8,251.6l0.9-3.9l2.2,0.5l-0.9,3.9
		L536.8,251.6z M538.3,245.7l1-3.9l2.1,0.5l-0.9,3.9L538.3,245.7z M539.8,239.9l1.1-3.9l2,0.5l-1,3.9L539.8,239.9z M541.5,234.1
		l1.1-3.8l1.9,0.6l-1.1,3.8L541.5,234.1z M543.2,228.4l1.2-3.8l1.8,0.6l-1.2,3.8L543.2,228.4z M545.1,222.6l1.3-3.8l1.7,0.6
		l-1.2,3.8L545.1,222.6z M547,217l1.4-3.8l1.6,0.6l-1.3,3.8L547,217z M549.1,211.3l1.5-3.7l1.5,0.6l-1.4,3.7L549.1,211.3z
		 M551.3,205.7l1.5-3.7l1.4,0.6l-1.5,3.7L551.3,205.7z M553.7,200.2l1.6-3.7l1.3,0.6l-1.6,3.7L553.7,200.2z M556.1,194.7l1.7-3.6
		l1.2,0.6l-1.7,3.6L556.1,194.7z M558.7,189.3l1.8-3.6l1.1,0.5l-1.8,3.6L558.7,189.3z M561.5,183.9l1.9-3.5l1,0.5l-1.8,3.6
		L561.5,183.9z M564.4,178.7l2-3.5l0.9,0.5l-1.9,3.5L564.4,178.7z M567.4,173.5l2.1-3.4l0.8,0.5l-2,3.4L567.4,173.5z M570.6,168.4
		l2.2-3.3l0.7,0.4l-2.1,3.4L570.6,168.4z M573.9,163.4l2.3-3.3l0.6,0.4l-2.3,3.3L573.9,163.4z M577.4,158.5l2.4-3.2l0.5,0.4
		l-2.4,3.2L577.4,158.5z M581,153.7l2.5-3.1l0.4,0.3l-2.5,3.1L581,153.7z M584.9,149.1l2.6-3l0.3,0.3l-2.6,3L584.9,149.1z
		 M588.9,144.6l2.8-2.9l0.3,0.2l-2.7,2.9L588.9,144.6z M593,140.3l2.9-2.8l0.2,0.2l-2.9,2.8L593,140.3z M597.4,136.2l3-2.6l0.1,0.1
		l-3,2.7L597.4,136.2z M602,132.3l3.2-2.4l0,0.1l-3.2,2.4L602,132.3z M606.9,128.8l1.7-1.1L606.9,128.8L606.9,128.8z M537.3,282.2
		l-5.1,1.4l-4.6-2.7l3.3,12.1L537.3,282.2z"/>
	<circle cx="793.1" cy="338.7" r="8.8"/>
	<path class="st4" d="M792.5,334v-0.7h1.1v0.7c0.3,0.1,0.5,0.1,0.7,0.2c0.9,0.3,1.4,1,1.4,1.9c0,0.2,0,0.5,0,0.7h-2.3
		c0-0.1,0-0.2,0-0.3c0-0.2,0-0.5,0-0.7c0-0.2-0.1-0.3-0.3-0.3c-0.2,0-0.4,0.1-0.4,0.2c-0.1,0.4-0.1,0.7,0.1,1.1
		c0,0.1,0.1,0.2,0.2,0.2c0.5,0.3,0.9,0.6,1.4,0.9c0.2,0.1,0.4,0.3,0.7,0.4c0.5,0.3,0.8,0.8,0.9,1.3c0.2,0.7,0.2,1.4,0,2.1
		c-0.3,0.9-0.9,1.4-1.7,1.6c-0.2,0-0.3,0.1-0.5,0.1v0.9h-1.1v-0.9c-0.2,0-0.3-0.1-0.5-0.1c-0.6-0.2-1.1-0.4-1.4-0.9
		c-0.2-0.3-0.3-0.6-0.4-1c-0.1-0.4-0.1-0.9-0.1-1.3h2.3c0,0,0,0.1,0,0.1c0,0.4,0,0.9,0,1.3c0,0.1,0,0.1,0,0.2c0,0.2,0.1,0.3,0.3,0.3
		c0.2,0,0.4,0,0.5-0.2c0-0.1,0.1-0.2,0.1-0.3c0-0.4,0-0.8-0.1-1.1c0-0.2-0.2-0.4-0.3-0.5c-0.1-0.1-0.3-0.2-0.5-0.3
		c-0.4-0.3-0.9-0.6-1.3-0.9c-0.6-0.4-0.9-1-1-1.7c-0.1-0.5-0.1-1,0.1-1.5c0.2-0.7,0.7-1.1,1.4-1.3c0.2-0.1,0.5-0.1,0.7-0.2
		C792.4,334,792.5,334,792.5,334L792.5,334z"/>
	<circle cx="656.1" cy="450.7" r="8.8"/>
	<path class="st4" d="M655.5,446v-0.7h1.1v0.7c0.3,0.1,0.5,0.1,0.7,0.2c0.9,0.3,1.4,1,1.4,1.9c0,0.2,0,0.5,0,0.7h-2.3
		c0-0.1,0-0.2,0-0.3c0-0.2,0-0.5,0-0.7c0-0.2-0.1-0.3-0.3-0.3c-0.2,0-0.4,0.1-0.4,0.2c-0.1,0.4-0.1,0.7,0.1,1.1
		c0,0.1,0.1,0.2,0.2,0.2c0.5,0.3,0.9,0.6,1.4,0.9c0.2,0.1,0.4,0.3,0.7,0.4c0.5,0.3,0.8,0.8,0.9,1.3c0.2,0.7,0.2,1.4,0,2.1
		c-0.3,0.9-0.9,1.4-1.7,1.6c-0.2,0-0.3,0.1-0.5,0.1v0.9h-1.1v-0.9c-0.2,0-0.3-0.1-0.5-0.1c-0.6-0.2-1.1-0.4-1.4-0.9
		c-0.2-0.3-0.3-0.6-0.4-1c-0.1-0.4-0.1-0.9-0.1-1.3h2.3c0,0,0,0.1,0,0.1c0,0.4,0,0.9,0,1.3c0,0.1,0,0.1,0,0.2c0,0.2,0.1,0.3,0.3,0.3
		c0.2,0,0.4,0,0.5-0.2c0-0.1,0.1-0.2,0.1-0.3c0-0.4,0-0.8-0.1-1.1c0-0.2-0.2-0.4-0.3-0.5c-0.1-0.1-0.3-0.2-0.5-0.3
		c-0.4-0.3-0.9-0.6-1.3-0.9c-0.6-0.4-0.9-1-1-1.7c-0.1-0.5-0.1-1,0.1-1.5c0.2-0.7,0.7-1.1,1.4-1.3c0.2-0.1,0.5-0.1,0.7-0.2
		C655.4,446,655.5,446,655.5,446L655.5,446z"/>
	<path class="st18" d="M736.6,403.3"/>
	<ellipse class="st14" cx="544.7" cy="364.7" rx="11.9" ry="4"/>
	<g>
		<path class="st11" d="M537.8,327.4c4.9,3.5,8.4,3.5,14.1,0c2.2,2.8,2.9,5.9,3.5,9.3c0.2,1.3,0.6,4.4,0.5,5.7
			c-0.2,3.1-0.8,3.2-1.6,3.8c-0.4,0.2-0.5,0.8-0.6,1.3c-0.5,3.7-1.3,7.5-1.5,11.2c-0.3,5.7-6.5,7.6-10.4,6c-2.6-1.1-4.2-2.9-4.5-5.8
			c-0.4-3.8-1-7.6-1.5-11.4c-0.1-0.6-0.1-1.4-0.9-1.6c0,0-1.6-0.6-1.6-3.4c-0.1-4.9,0.7-9.7,3.4-14
			C537,328.3,537.6,327.6,537.8,327.4L537.8,327.4z M553.1,319.8c-0.1,4.5-3.9,8.2-8.4,8.2c-4.6,0-8.2-3.9-8.2-8.5
			c0-4.5,3.8-8.2,8.4-8.1C549.5,311.4,553.1,315.2,553.1,319.8L553.1,319.8z"/>
	</g>
	<ellipse class="st21" cx="444.6" cy="367.9" rx="57" ry="34.8"/>
	
		<ellipse transform="matrix(0.123 -0.9924 0.9924 0.123 205.6875 904.9243)" class="st22" cx="614.9" cy="336.1" rx="34.1" ry="51.7"/>
	
		<ellipse transform="matrix(0.123 -0.9924 0.9924 0.123 205.6875 904.9243)" class="st23" cx="614.9" cy="336.1" rx="34.1" ry="51.7"/>
	
		<ellipse transform="matrix(0.2161 -0.9764 0.9764 0.2161 -76.311 836.9748)" class="st24" cx="483.1" cy="466" rx="25.5" ry="48.5"/>
	
		<ellipse transform="matrix(2.699016e-02 -0.9996 0.9996 2.699016e-02 181.3782 823.4149)" class="st25" cx="513.7" cy="318.5" rx="11.3" ry="20"/>
	
		<ellipse transform="matrix(2.699016e-02 -0.9996 0.9996 2.699016e-02 181.3782 823.4149)" class="st23" cx="513.7" cy="318.5" rx="11.3" ry="20"/>
	
		<ellipse transform="matrix(-0.5391 -0.8422 0.8422 -0.5391 760.7456 1282.6636)" class="st26" cx="731.3" cy="433.2" rx="33.2" ry="60.9"/>
	<ellipse class="st14" cx="442.8" cy="345.1" rx="9.5" ry="3.2"/>
	<g>
		<path class="st13" d="M437.2,315.4c3.9,2.8,6.7,2.8,11.2,0c1.7,2.2,2.3,4.7,2.8,7.4c0.2,1,0.5,3.5,0.4,4.5c-0.1,2.5-0.6,2.6-1.3,3
			c-0.3,0.2-0.4,0.7-0.5,1c-0.4,3-1,6-1.2,8.9c-0.2,4.5-5.2,6-8.2,4.8c-2.1-0.9-3.3-2.3-3.6-4.6c-0.3-3-0.8-6-1.2-9.1
			c-0.1-0.5,0-1.1-0.7-1.3c0,0-1.2-0.5-1.2-2.7c-0.1-3.9,0.6-7.7,2.7-11.1C436.6,316.1,437.1,315.5,437.2,315.4L437.2,315.4z
			 M449.4,309.4c-0.1,3.6-3.1,6.5-6.7,6.5c-3.6,0-6.6-3.1-6.5-6.8c0-3.6,3-6.5,6.7-6.5C446.6,302.7,449.5,305.7,449.4,309.4
			L449.4,309.4z"/>
	</g>
	<g class="st17">
		<ellipse class="st12" cx="442.8" cy="345.1" rx="9.5" ry="3.2"/>
		<g>
			<path class="st12" d="M437.2,315.4c3.9,2.8,6.7,2.8,11.2,0c1.7,2.2,2.3,4.7,2.8,7.4c0.2,1,0.5,3.5,0.4,4.5
				c-0.1,2.5-0.6,2.6-1.3,3c-0.3,0.2-0.4,0.7-0.5,1c-0.4,3-1,6-1.2,8.9c-0.2,4.5-5.2,6-8.2,4.8c-2.1-0.9-3.3-2.3-3.6-4.6
				c-0.3-3-0.8-6-1.2-9.1c-0.1-0.5,0-1.1-0.7-1.3c0,0-1.2-0.5-1.2-2.7c-0.1-3.9,0.6-7.7,2.7-11.1
				C436.6,316.1,437.1,315.5,437.2,315.4L437.2,315.4z M449.4,309.4c-0.1,3.6-3.1,6.5-6.7,6.5c-3.6,0-6.6-3.1-6.5-6.8
				c0-3.6,3-6.5,6.7-6.5C446.6,302.7,449.5,305.7,449.4,309.4L449.4,309.4z"/>
		</g>
	</g>
	<ellipse class="st14" cx="419.5" cy="388.3" rx="11.9" ry="4"/>
	<g>
		<path class="st13" d="M412.5,351c4.9,3.5,8.4,3.5,14.1,0c2.2,2.8,2.9,5.9,3.5,9.3c0.2,1.3,0.6,4.4,0.5,5.7
			c-0.1,3.1-0.8,3.2-1.6,3.8c-0.4,0.2-0.5,0.8-0.6,1.3c-0.5,3.7-1.3,7.5-1.5,11.2c-0.3,5.7-6.5,7.6-10.4,6c-2.6-1.1-4.2-2.9-4.5-5.8
			c-0.4-3.8-1-7.6-1.5-11.4c-0.1-0.6-0.1-1.4-0.9-1.6c0,0-1.6-0.6-1.6-3.4c-0.1-4.9,0.7-9.7,3.4-14
			C411.7,351.9,412.4,351.2,412.5,351L412.5,351z M427.8,343.4c-0.1,4.5-3.9,8.2-8.4,8.2c-4.6,0-8.2-3.9-8.2-8.5
			c0-4.5,3.8-8.2,8.4-8.1C424.2,335,427.9,338.8,427.8,343.4L427.8,343.4z"/>
	</g>
	<g class="st17">
		<ellipse class="st12" cx="419.5" cy="388.3" rx="11.9" ry="4"/>
		<g>
			<path class="st12" d="M412.5,351c4.9,3.5,8.4,3.5,14.1,0c2.2,2.8,2.9,5.9,3.5,9.3c0.2,1.3,0.6,4.4,0.5,5.7
				c-0.1,3.1-0.8,3.2-1.6,3.8c-0.4,0.2-0.5,0.8-0.6,1.3c-0.5,3.7-1.3,7.5-1.5,11.2c-0.3,5.7-6.5,7.6-10.4,6
				c-2.6-1.1-4.2-2.9-4.5-5.8c-0.4-3.8-1-7.6-1.5-11.4c-0.1-0.6-0.1-1.4-0.9-1.6c0,0-1.6-0.6-1.6-3.4c-0.1-4.9,0.7-9.7,3.4-14
				C411.7,351.9,412.4,351.2,412.5,351L412.5,351z M427.8,343.4c-0.1,4.5-3.9,8.2-8.4,8.2c-4.6,0-8.2-3.9-8.2-8.5
				c0-4.5,3.8-8.2,8.4-8.1C424.2,335,427.9,338.8,427.8,343.4L427.8,343.4z"/>
		</g>
	</g>
	<ellipse class="st14" cx="643.5" cy="336.8" rx="9.5" ry="3.2"/>
	<g>
		<path class="st13" d="M638,307.1c3.9,2.8,6.7,2.8,11.2,0c1.7,2.2,2.3,4.7,2.8,7.4c0.2,1,0.5,3.5,0.4,4.5c-0.1,2.5-0.6,2.6-1.3,3
			c-0.3,0.2-0.4,0.7-0.5,1c-0.4,3-1,6-1.2,8.9c-0.2,4.5-5.2,6-8.2,4.8c-2.1-0.9-3.3-2.3-3.6-4.6c-0.3-3-0.8-6-1.2-9.1
			c-0.1-0.5,0-1.1-0.7-1.3c0,0-1.2-0.5-1.2-2.7c-0.1-3.9,0.6-7.7,2.7-11.1C637.3,307.9,637.8,307.3,638,307.1L638,307.1z
			 M650.2,301.1c-0.1,3.6-3.1,6.5-6.7,6.5c-3.6,0-6.6-3.1-6.5-6.8c0-3.6,3-6.5,6.7-6.5C647.3,294.4,650.2,297.4,650.2,301.1
			L650.2,301.1z"/>
	</g>
	<g class="st27">
		<ellipse class="st8" cx="643.5" cy="336.8" rx="9.5" ry="3.2"/>
		<g>
			<path class="st8" d="M638,307.1c3.9,2.8,6.7,2.8,11.2,0c1.7,2.2,2.3,4.7,2.8,7.4c0.2,1,0.5,3.5,0.4,4.5c-0.1,2.5-0.6,2.6-1.3,3
				c-0.3,0.2-0.4,0.7-0.5,1c-0.4,3-1,6-1.2,8.9c-0.2,4.5-5.2,6-8.2,4.8c-2.1-0.9-3.3-2.3-3.6-4.6c-0.3-3-0.8-6-1.2-9.1
				c-0.1-0.5,0-1.1-0.7-1.3c0,0-1.2-0.5-1.2-2.7c-0.1-3.9,0.6-7.7,2.7-11.1C637.3,307.9,637.8,307.3,638,307.1L638,307.1z
				 M650.2,301.1c-0.1,3.6-3.1,6.5-6.7,6.5c-3.6,0-6.6-3.1-6.5-6.8c0-3.6,3-6.5,6.7-6.5C647.3,294.4,650.2,297.4,650.2,301.1
				L650.2,301.1z"/>
		</g>
	</g>
	<path d="M599,275.9l-0.3-2l2.7-0.5l0.4,2L599,275.9z M598.3,271.9l-0.6-4.1l2.6-0.4l0.7,4L598.3,271.9z M597.5,265.8l-0.5-4.1
		l2.5-0.3l0.6,4.1L597.5,265.8z M596.8,259.6l-0.3-4.1l2.4-0.2l0.4,4.1L596.8,259.6z M596.3,253.5l-0.2-4.1l2.2-0.1l0.3,4.1
		L596.3,253.5z M596.1,247.3l-0.1-4.1l2.1-0.1l0.2,4.1L596.1,247.3z M596,241.1l0.1-4.1l2,0l0,4.1L596,241.1z M596.1,234.9l0.2-4.1
		l1.8,0.1L598,235L596.1,234.9z M596.5,228.8l0.4-4.1l1.7,0.1l-0.3,4.1L596.5,228.8z M597,222.6l0.5-4.1l1.6,0.2l-0.4,4.1L597,222.6
		z M597.9,216.5l0.7-4l1.4,0.2l-0.6,4.1L597.9,216.5z M598.9,210.4l0.9-4l1.3,0.3l-0.8,4L598.9,210.4z M600.3,204.4l1-4l1.1,0.3
		l-0.9,4L600.3,204.4z M601.9,198.4l1.2-3.9l1,0.3l-1.1,3.9L601.9,198.4z M603.7,192.5l1.4-3.9l0.8,0.3l-1.3,3.9L603.7,192.5z
		 M605.9,186.8l1.6-3.8l0.7,0.3l-1.5,3.8L605.9,186.8z M608.3,181.1l1.8-3.7l0.6,0.3l-1.7,3.7L608.3,181.1z M611.1,175.6l2-3.6
		l0.4,0.2l-1.9,3.6L611.1,175.6z M614.1,170.2l2.2-3.5l0.3,0.2l-2.1,3.5L614.1,170.2z M617.4,165l2.4-3.3l0.2,0.1l-2.3,3.4
		L617.4,165z M621.1,160.1l2.7-3.1l0.1,0.1l-2.6,3.2L621.1,160.1z M625.2,155.5l1.4-1.4L625.2,155.5L625.2,155.5z M604.5,271.1
		l-4.4,3l-5.2-1.1l7,10.4L604.5,271.1z"/>
	<ellipse class="st14" cx="656" cy="403.3" rx="11.9" ry="4"/>
	<g>
		<path class="st13" d="M649.1,366c4.9,3.5,8.4,3.5,14.1,0c2.2,2.8,2.9,5.9,3.5,9.3c0.2,1.3,0.6,4.4,0.5,5.7
			c-0.2,3.1-0.8,3.2-1.6,3.8c-0.4,0.2-0.5,0.8-0.6,1.3c-0.5,3.7-1.3,7.5-1.5,11.2c-0.3,5.7-6.5,7.6-10.4,6c-2.6-1.1-4.2-2.9-4.5-5.8
			c-0.4-3.8-1-7.6-1.5-11.4c-0.1-0.6-0.1-1.4-0.9-1.6c0,0-1.6-0.6-1.6-3.4c-0.1-4.9,0.7-9.7,3.4-14
			C648.3,366.9,648.9,366.2,649.1,366L649.1,366z M664.4,358.4c-0.1,4.5-3.9,8.2-8.4,8.2c-4.6,0-8.2-3.9-8.2-8.5
			c0-4.5,3.8-8.2,8.4-8.1C660.8,350,664.4,353.8,664.4,358.4L664.4,358.4z"/>
	</g>
	<ellipse class="st14" cx="731.4" cy="407.9" rx="13.1" ry="4.4"/>
	<g>
		<path class="st13" d="M723.8,366.8c5.4,3.9,9.3,3.9,15.6,0c2.4,3.1,3.2,6.5,3.9,10.3c0.2,1.4,0.6,4.8,0.6,6.3
			c-0.2,3.5-0.9,3.6-1.8,4.2c-0.4,0.3-0.6,0.9-0.6,1.4c-0.6,4.1-1.4,8.2-1.6,12.4c-0.3,6.3-7.2,8.4-11.4,6.6c-2.9-1.2-4.6-3.2-5-6.4
			c-0.4-4.2-1.1-8.4-1.7-12.5c-0.1-0.6-0.1-1.5-0.9-1.8c0,0-1.7-0.7-1.7-3.7c-0.1-5.4,0.8-10.7,3.7-15.4
			C722.9,367.8,723.6,367,723.8,366.8L723.8,366.8z M740.6,358.5c-0.1,5-4.3,9-9.2,9c-5,0-9.1-4.3-9-9.4c0.1-5,4.2-9,9.2-8.9
			C736.7,349.2,740.7,353.3,740.6,358.5L740.6,358.5z"/>
	</g>
	<ellipse class="st14" cx="706.3" cy="457.9" rx="13.1" ry="4.4"/>
	<g>
		<path class="st13" d="M698.7,416.8c5.4,3.9,9.3,3.9,15.6,0c2.4,3.1,3.2,6.5,3.9,10.3c0.2,1.4,0.6,4.8,0.6,6.3
			c-0.2,3.5-0.9,3.6-1.8,4.2c-0.4,0.3-0.6,0.9-0.6,1.4c-0.6,4.1-1.4,8.2-1.6,12.4c-0.3,6.3-7.2,8.4-11.4,6.6c-2.9-1.2-4.6-3.2-5-6.4
			c-0.4-4.2-1.1-8.4-1.7-12.5c-0.1-0.6-0.1-1.5-0.9-1.8c0,0-1.7-0.7-1.7-3.7c-0.1-5.4,0.8-10.7,3.7-15.4
			C697.8,417.8,698.5,417,698.7,416.8L698.7,416.8z M715.5,408.5c-0.1,5-4.3,9-9.2,9c-5,0-9.1-4.3-9-9.4c0.1-5,4.2-9,9.2-8.9
			C711.6,399.2,715.6,403.3,715.5,408.5L715.5,408.5z"/>
	</g>
	<ellipse class="st14" cx="761.1" cy="433.9" rx="13.1" ry="4.4"/>
	<g>
		<path class="st13" d="M753.4,392.8c5.4,3.9,9.3,3.9,15.6,0c2.4,3.1,3.2,6.5,3.8,10.3c0.2,1.4,0.6,4.8,0.6,6.3
			c-0.2,3.5-0.9,3.6-1.8,4.2c-0.4,0.3-0.6,0.9-0.6,1.4c-0.6,4.1-1.4,8.2-1.6,12.4c-0.3,6.3-7.2,8.4-11.4,6.6c-2.9-1.2-4.6-3.2-5-6.4
			c-0.4-4.2-1.1-8.4-1.7-12.5c-0.1-0.6-0.1-1.5-0.9-1.8c0,0-1.7-0.7-1.7-3.7c-0.1-5.4,0.8-10.7,3.7-15.4
			C752.5,393.8,753.2,393,753.4,392.8L753.4,392.8z M770.3,384.5c-0.1,5-4.3,9-9.2,9c-5,0-9.1-4.3-9-9.4c0.1-5,4.2-9,9.2-8.9
			C766.3,375.2,770.3,379.3,770.3,384.5L770.3,384.5z"/>
	</g>
	<g class="st27">
		<ellipse class="st11" cx="731.4" cy="407.9" rx="13.1" ry="4.4"/>
		<g>
			<path class="st11" d="M723.8,366.8c5.4,3.9,9.3,3.9,15.6,0c2.4,3.1,3.2,6.5,3.9,10.3c0.2,1.4,0.6,4.8,0.6,6.3
				c-0.2,3.5-0.9,3.6-1.8,4.2c-0.4,0.3-0.6,0.9-0.6,1.4c-0.6,4.1-1.4,8.2-1.6,12.4c-0.3,6.3-7.2,8.4-11.4,6.6
				c-2.9-1.2-4.6-3.2-5-6.4c-0.4-4.2-1.1-8.4-1.7-12.5c-0.1-0.6-0.1-1.5-0.9-1.8c0,0-1.7-0.7-1.7-3.7c-0.1-5.4,0.8-10.7,3.7-15.4
				C722.9,367.8,723.6,367,723.8,366.8L723.8,366.8z M740.6,358.5c-0.1,5-4.3,9-9.2,9c-5,0-9.1-4.3-9-9.4c0.1-5,4.2-9,9.2-8.9
				C736.7,349.2,740.7,353.3,740.6,358.5L740.6,358.5z"/>
		</g>
	</g>
	<g class="st27">
		<ellipse class="st11" cx="706.3" cy="457.9" rx="13.1" ry="4.4"/>
		<g>
			<path class="st11" d="M698.7,416.8c5.4,3.9,9.3,3.9,15.6,0c2.4,3.1,3.2,6.5,3.9,10.3c0.2,1.4,0.6,4.8,0.6,6.3
				c-0.2,3.5-0.9,3.6-1.8,4.2c-0.4,0.3-0.6,0.9-0.6,1.4c-0.6,4.1-1.4,8.2-1.6,12.4c-0.3,6.3-7.2,8.4-11.4,6.6
				c-2.9-1.2-4.6-3.2-5-6.4c-0.4-4.2-1.1-8.4-1.7-12.5c-0.1-0.6-0.1-1.5-0.9-1.8c0,0-1.7-0.7-1.7-3.7c-0.1-5.4,0.8-10.7,3.7-15.4
				C697.8,417.8,698.5,417,698.7,416.8L698.7,416.8z M715.5,408.5c-0.1,5-4.3,9-9.2,9c-5,0-9.1-4.3-9-9.4c0.1-5,4.2-9,9.2-8.9
				C711.6,399.2,715.6,403.3,715.5,408.5L715.5,408.5z"/>
		</g>
	</g>
	<g class="st27">
		<ellipse class="st11" cx="761.1" cy="433.9" rx="13.1" ry="4.4"/>
		<g>
			<path class="st11" d="M753.4,392.8c5.4,3.9,9.3,3.9,15.6,0c2.4,3.1,3.2,6.5,3.8,10.3c0.2,1.4,0.6,4.8,0.6,6.3
				c-0.2,3.5-0.9,3.6-1.8,4.2c-0.4,0.3-0.6,0.9-0.6,1.4c-0.6,4.1-1.4,8.2-1.6,12.4c-0.3,6.3-7.2,8.4-11.4,6.6
				c-2.9-1.2-4.6-3.2-5-6.4c-0.4-4.2-1.1-8.4-1.7-12.5c-0.1-0.6-0.1-1.5-0.9-1.8c0,0-1.7-0.7-1.7-3.7c-0.1-5.4,0.8-10.7,3.7-15.4
				C752.5,393.8,753.2,393,753.4,392.8L753.4,392.8z M770.3,384.5c-0.1,5-4.3,9-9.2,9c-5,0-9.1-4.3-9-9.4c0.1-5,4.2-9,9.2-8.9
				C766.3,375.2,770.3,379.3,770.3,384.5L770.3,384.5z"/>
		</g>
	</g>
	<ellipse class="st14" cx="502.1" cy="482.9" rx="13.1" ry="4.4"/>
	<g>
		<path class="st13" d="M494.4,441.8c5.4,3.9,9.3,3.9,15.6,0c2.4,3.1,3.2,6.5,3.9,10.3c0.2,1.4,0.6,4.8,0.6,6.3
			c-0.2,3.5-0.9,3.6-1.8,4.2c-0.4,0.3-0.6,0.9-0.6,1.4c-0.6,4.1-1.4,8.2-1.6,12.4c-0.3,6.3-7.2,8.4-11.4,6.6c-2.9-1.2-4.6-3.2-5-6.4
			c-0.4-4.2-1.1-8.4-1.7-12.5c-0.1-0.6-0.1-1.5-0.9-1.8c0,0-1.7-0.7-1.7-3.7c-0.1-5.4,0.8-10.7,3.7-15.4
			C493.5,442.8,494.2,442,494.4,441.8L494.4,441.8z M511.3,433.5c-0.1,5-4.3,9-9.2,9c-5,0-9.1-4.3-9-9.4c0.1-5,4.2-9,9.2-8.9
			C507.3,424.2,511.3,428.3,511.3,433.5L511.3,433.5z"/>
	</g>
	<ellipse class="st14" cx="461.4" cy="462.9" rx="13.1" ry="4.4"/>
	<g>
		<path class="st13" d="M453.8,421.8c5.4,3.9,9.3,3.9,15.6,0c2.4,3.1,3.2,6.5,3.9,10.3c0.2,1.4,0.6,4.8,0.6,6.3
			c-0.2,3.5-0.9,3.6-1.8,4.2c-0.4,0.3-0.6,0.9-0.6,1.4c-0.6,4.1-1.4,8.2-1.6,12.4c-0.3,6.3-7.2,8.4-11.4,6.6c-2.9-1.2-4.6-3.2-5-6.4
			c-0.4-4.2-1.1-8.4-1.7-12.5c-0.1-0.6-0.1-1.5-0.9-1.8c0,0-1.7-0.7-1.7-3.7c-0.1-5.4,0.8-10.7,3.7-15.4
			C452.9,422.8,453.6,422,453.8,421.8L453.8,421.8z M470.6,413.5c-0.1,5-4.3,9-9.2,9c-5,0-9.1-4.3-9-9.4c0.1-5,4.2-9,9.2-8.9
			C466.7,404.2,470.7,408.3,470.6,413.5L470.6,413.5z"/>
	</g>
	<g class="st27">
		<ellipse class="st9" cx="502.1" cy="482.9" rx="13.1" ry="4.4"/>
		<g>
			<path class="st9" d="M494.4,441.8c5.4,3.9,9.3,3.9,15.6,0c2.4,3.1,3.2,6.5,3.9,10.3c0.2,1.4,0.6,4.8,0.6,6.3
				c-0.2,3.5-0.9,3.6-1.8,4.2c-0.4,0.3-0.6,0.9-0.6,1.4c-0.6,4.1-1.4,8.2-1.6,12.4c-0.3,6.3-7.2,8.4-11.4,6.6
				c-2.9-1.2-4.6-3.2-5-6.4c-0.4-4.2-1.1-8.4-1.7-12.5c-0.1-0.6-0.1-1.5-0.9-1.8c0,0-1.7-0.7-1.7-3.7c-0.1-5.4,0.8-10.7,3.7-15.4
				C493.5,442.8,494.2,442,494.4,441.8L494.4,441.8z M511.3,433.5c-0.1,5-4.3,9-9.2,9c-5,0-9.1-4.3-9-9.4c0.1-5,4.2-9,9.2-8.9
				C507.3,424.2,511.3,428.3,511.3,433.5L511.3,433.5z"/>
		</g>
	</g>
	<g class="st27">
		<ellipse class="st9" cx="461.4" cy="462.9" rx="13.1" ry="4.4"/>
		<g>
			<path class="st9" d="M453.8,421.8c5.4,3.9,9.3,3.9,15.6,0c2.4,3.1,3.2,6.5,3.9,10.3c0.2,1.4,0.6,4.8,0.6,6.3
				c-0.2,3.5-0.9,3.6-1.8,4.2c-0.4,0.3-0.6,0.9-0.6,1.4c-0.6,4.1-1.4,8.2-1.6,12.4c-0.3,6.3-7.2,8.4-11.4,6.6
				c-2.9-1.2-4.6-3.2-5-6.4c-0.4-4.2-1.1-8.4-1.7-12.5c-0.1-0.6-0.1-1.5-0.9-1.8c0,0-1.7-0.7-1.7-3.7c-0.1-5.4,0.8-10.7,3.7-15.4
				C452.9,422.8,453.6,422,453.8,421.8L453.8,421.8z M470.6,413.5c-0.1,5-4.3,9-9.2,9c-5,0-9.1-4.3-9-9.4c0.1-5,4.2-9,9.2-8.9
				C466.7,404.2,470.7,408.3,470.6,413.5L470.6,413.5z"/>
		</g>
	</g>
	<g class="st15">
		<ellipse class="st14" cx="685.4" cy="292.1" rx="9.5" ry="3.2"/>
		<g>
			<path class="st13" d="M679.8,262.4c3.9,2.8,6.7,2.8,11.2,0c1.7,2.2,2.3,4.7,2.8,7.4c0.2,1,0.5,3.5,0.4,4.5
				c-0.1,2.5-0.6,2.6-1.3,3c-0.3,0.2-0.4,0.7-0.5,1c-0.4,3-1,6-1.2,8.9c-0.2,4.5-5.2,6-8.2,4.8c-2.1-0.9-3.3-2.3-3.6-4.6
				c-0.3-3-0.8-6-1.2-9.1c-0.1-0.4,0-1.1-0.7-1.3c0,0-1.2-0.5-1.2-2.7c-0.1-3.9,0.6-7.7,2.7-11.1
				C679.2,263.1,679.7,262.5,679.8,262.4L679.8,262.4z M692,256.4c-0.1,3.6-3.1,6.5-6.7,6.5c-3.6,0-6.6-3.1-6.5-6.8
				c0-3.6,3-6.5,6.7-6.5C689.2,249.7,692.1,252.7,692,256.4L692,256.4z"/>
		</g>
	</g>
	<circle cx="529.1" cy="306.7" r="8.8"/>
	<path class="st4" d="M528.5,302v-0.7h1.1v0.7c0.3,0.1,0.5,0.1,0.7,0.2c0.9,0.3,1.4,1,1.4,1.9c0,0.2,0,0.5,0,0.7h-2.3
		c0-0.1,0-0.2,0-0.3c0-0.2,0-0.5,0-0.7c0-0.2-0.1-0.3-0.3-0.3c-0.2,0-0.4,0.1-0.4,0.2c-0.1,0.4-0.1,0.7,0.1,1.1
		c0,0.1,0.1,0.2,0.2,0.2c0.5,0.3,0.9,0.6,1.4,0.9c0.2,0.1,0.4,0.3,0.7,0.4c0.5,0.3,0.8,0.8,0.9,1.3c0.2,0.7,0.2,1.4,0,2.1
		c-0.3,0.9-0.9,1.4-1.7,1.6c-0.2,0-0.3,0.1-0.5,0.1v0.9h-1.1v-0.9c-0.2,0-0.3-0.1-0.5-0.1c-0.6-0.2-1.1-0.4-1.4-0.9
		c-0.2-0.3-0.3-0.6-0.4-1c-0.1-0.4-0.1-0.9-0.1-1.3h2.3c0,0,0,0.1,0,0.1c0,0.4,0,0.9,0,1.3c0,0.1,0,0.1,0,0.2c0,0.2,0.1,0.3,0.3,0.3
		c0.2,0,0.4,0,0.5-0.2c0-0.1,0.1-0.2,0.1-0.3c0-0.4,0-0.8-0.1-1.1c0-0.2-0.2-0.4-0.3-0.5c-0.1-0.1-0.3-0.2-0.5-0.3
		c-0.4-0.3-0.9-0.6-1.3-0.9c-0.6-0.4-0.9-1-1-1.7c-0.1-0.5-0.1-1,0.1-1.5c0.2-0.7,0.7-1.1,1.4-1.3c0.2-0.1,0.5-0.1,0.7-0.2
		C528.4,302,528.5,302,528.5,302L528.5,302z"/>
	<circle cx="605.1" cy="298.7" r="8.8"/>
	<path class="st4" d="M604.5,294v-0.7h1.1v0.7c0.3,0.1,0.5,0.1,0.7,0.2c0.9,0.3,1.4,1,1.4,1.9c0,0.2,0,0.5,0,0.7h-2.3
		c0-0.1,0-0.2,0-0.3c0-0.2,0-0.5,0-0.7c0-0.2-0.1-0.3-0.3-0.3c-0.2,0-0.4,0.1-0.4,0.2c-0.1,0.4-0.1,0.7,0.1,1.1
		c0,0.1,0.1,0.2,0.2,0.2c0.5,0.3,0.9,0.6,1.4,0.9c0.2,0.1,0.4,0.3,0.7,0.4c0.5,0.3,0.8,0.8,0.9,1.3c0.2,0.7,0.2,1.4,0,2.1
		c-0.3,0.9-0.9,1.4-1.7,1.6c-0.2,0-0.3,0.1-0.5,0.1v0.9h-1.1v-0.9c-0.2,0-0.3-0.1-0.5-0.1c-0.6-0.2-1.1-0.4-1.4-0.9
		c-0.2-0.3-0.3-0.6-0.4-1c-0.1-0.4-0.1-0.9-0.1-1.3h2.3c0,0,0,0.1,0,0.1c0,0.4,0,0.9,0,1.3c0,0.1,0,0.1,0,0.2c0,0.2,0.1,0.3,0.3,0.3
		c0.2,0,0.4,0,0.5-0.2c0-0.1,0.1-0.2,0.1-0.3c0-0.4,0-0.8-0.1-1.1c0-0.2-0.2-0.4-0.3-0.5c-0.1-0.1-0.3-0.2-0.5-0.3
		c-0.4-0.3-0.9-0.6-1.3-0.9c-0.6-0.4-0.9-1-1-1.7c-0.1-0.5-0.1-1,0.1-1.5c0.2-0.7,0.7-1.1,1.4-1.3c0.2-0.1,0.5-0.1,0.7-0.2
		C604.4,294,604.5,294,604.5,294L604.5,294z"/>
	<ellipse class="st14" cx="809.8" cy="351.1" rx="9.5" ry="3.2"/>
	<g>
		<path class="st28" d="M804.2,321.4c3.9,2.8,6.7,2.8,11.2,0c1.7,2.2,2.3,4.7,2.8,7.4c0.2,1,0.5,3.5,0.4,4.5c-0.1,2.5-0.6,2.6-1.3,3
			c-0.3,0.2-0.4,0.7-0.5,1c-0.4,3-1,6-1.2,8.9c-0.2,4.5-5.2,6-8.2,4.8c-2.1-0.9-3.3-2.3-3.6-4.6c-0.3-3-0.8-6-1.2-9.1
			c-0.1-0.5,0-1.1-0.7-1.3c0,0-1.2-0.5-1.2-2.7c-0.1-3.9,0.6-7.7,2.7-11.1C803.6,322.1,804.1,321.5,804.2,321.4L804.2,321.4z
			 M816.4,315.4c-0.1,3.6-3.1,6.5-6.7,6.5c-3.6,0-6.6-3.1-6.5-6.8c0-3.6,3-6.5,6.7-6.5C813.5,308.7,816.4,311.7,816.4,315.4
			L816.4,315.4z"/>
	</g>
	<ellipse class="st14" cx="606.9" cy="362.3" rx="11.9" ry="4"/>
	<g>
		<path class="st13" d="M599.9,325c4.9,3.5,8.4,3.5,14.1,0c2.2,2.8,2.9,5.9,3.5,9.3c0.2,1.3,0.6,4.4,0.5,5.7
			c-0.2,3.1-0.8,3.2-1.6,3.8c-0.4,0.2-0.5,0.8-0.6,1.3c-0.5,3.7-1.3,7.5-1.5,11.2c-0.3,5.7-6.6,7.6-10.4,6c-2.6-1.1-4.2-2.9-4.5-5.8
			c-0.4-3.8-1-7.6-1.5-11.4c-0.1-0.6-0.1-1.4-0.9-1.6c0,0-1.6-0.6-1.6-3.4c-0.1-4.9,0.7-9.7,3.4-14
			C599.1,325.9,599.7,325.2,599.9,325L599.9,325z M615.2,317.4c-0.1,4.5-3.9,8.2-8.4,8.2c-4.6,0-8.2-3.9-8.2-8.5
			c0-4.5,3.8-8.2,8.4-8.1C611.6,309,615.3,312.8,615.2,317.4L615.2,317.4z"/>
	</g>
	<g class="st27">
		<ellipse class="st8" cx="606.9" cy="362.3" rx="11.9" ry="4"/>
		<g>
			<path class="st8" d="M599.9,325c4.9,3.5,8.4,3.5,14.1,0c2.2,2.8,2.9,5.9,3.5,9.3c0.2,1.3,0.6,4.4,0.5,5.7
				c-0.2,3.1-0.8,3.2-1.6,3.8c-0.4,0.2-0.5,0.8-0.6,1.3c-0.5,3.7-1.3,7.5-1.5,11.2c-0.3,5.7-6.6,7.6-10.4,6
				c-2.6-1.1-4.2-2.9-4.5-5.8c-0.4-3.8-1-7.6-1.5-11.4c-0.1-0.6-0.1-1.4-0.9-1.6c0,0-1.6-0.6-1.6-3.4c-0.1-4.9,0.7-9.7,3.4-14
				C599.1,325.9,599.7,325.2,599.9,325L599.9,325z M615.2,317.4c-0.1,4.5-3.9,8.2-8.4,8.2c-4.6,0-8.2-3.9-8.2-8.5
				c0-4.5,3.8-8.2,8.4-8.1C611.6,309,615.3,312.8,615.2,317.4L615.2,317.4z"/>
		</g>
	</g>
	<ellipse class="st14" cx="589.8" cy="311.1" rx="9.5" ry="3.2"/>
	<g>
		<path class="st13" d="M584.2,281.4c3.9,2.8,6.7,2.8,11.2,0c1.7,2.2,2.3,4.7,2.8,7.4c0.2,1,0.5,3.5,0.4,4.5c-0.1,2.5-0.6,2.6-1.3,3
			c-0.3,0.2-0.4,0.7-0.5,1c-0.4,3-1,6-1.2,8.9c-0.2,4.5-5.2,6-8.2,4.8c-2.1-0.9-3.3-2.3-3.6-4.6c-0.3-3-0.8-6-1.2-9.1
			c-0.1-0.5,0-1.1-0.7-1.3c0,0-1.2-0.5-1.2-2.7c-0.1-3.9,0.6-7.7,2.7-11.1C583.6,282.1,584.1,281.5,584.2,281.4L584.2,281.4z
			 M596.4,275.4c-0.1,3.6-3.1,6.5-6.7,6.5c-3.6,0-6.6-3.1-6.5-6.8c0-3.6,3-6.5,6.7-6.5C593.5,268.7,596.4,271.7,596.4,275.4
			L596.4,275.4z"/>
	</g>
	<g class="st27">
		<ellipse class="st8" cx="589.8" cy="311.1" rx="9.5" ry="3.2"/>
		<g>
			<path class="st8" d="M584.2,281.4c3.9,2.8,6.7,2.8,11.2,0c1.7,2.2,2.3,4.7,2.8,7.4c0.2,1,0.5,3.5,0.4,4.5c-0.1,2.5-0.6,2.6-1.3,3
				c-0.3,0.2-0.4,0.7-0.5,1c-0.4,3-1,6-1.2,8.9c-0.2,4.5-5.2,6-8.2,4.8c-2.1-0.9-3.3-2.3-3.6-4.6c-0.3-3-0.8-6-1.2-9.1
				c-0.1-0.5,0-1.1-0.7-1.3c0,0-1.2-0.5-1.2-2.7c-0.1-3.9,0.6-7.7,2.7-11.1C583.6,282.1,584.1,281.5,584.2,281.4L584.2,281.4z
				 M596.4,275.4c-0.1,3.6-3.1,6.5-6.7,6.5c-3.6,0-6.6-3.1-6.5-6.8c0-3.6,3-6.5,6.7-6.5C593.5,268.7,596.4,271.7,596.4,275.4
				L596.4,275.4z"/>
		</g>
	</g>
	<path d="M664,429.1l0.9-1.8l2.6,1.3l-0.9,1.8L664,429.1z M665.8,425.6l1.8-3.6l2.5,1.3l-1.8,3.6L665.8,425.6z M668.6,420.2l1.8-3.6
		l2.5,1.2l-1.8,3.6L668.6,420.2z M671.3,414.8l1.8-3.6l2.5,1.2l-1.7,3.6L671.3,414.8z M673.9,409.4l1.7-3.6l2.4,1.1l-1.7,3.7
		L673.9,409.4z M676.5,403.9l1.7-3.7l2.4,1.1l-1.6,3.7L676.5,403.9z M679,398.4l1.6-3.7l2.3,1l-1.6,3.7L679,398.4z M681.4,392.9
		l1.6-3.7l2.3,1l-1.5,3.7L681.4,392.9z M683.7,387.4l1.5-3.7l2.2,0.9l-1.5,3.7L683.7,387.4z M686,381.8l1.5-3.7l2.2,0.9l-1.4,3.8
		L686,381.8z M688.2,376.2l1.4-3.8l2.1,0.8l-1.4,3.8L688.2,376.2z M690.3,370.5l1.4-3.8l2.1,0.8l-1.3,3.8L690.3,370.5z M692.4,364.9
		l1.3-3.8l2.1,0.7l-1.3,3.8L692.4,364.9z M694.3,359.2l1.3-3.8l2,0.6l-1.2,3.8L694.3,359.2z M696.2,353.4l1.2-3.8l2,0.6l-1.2,3.9
		L696.2,353.4z M698,347.7l1.1-3.9l1.9,0.5l-1.1,3.9L698,347.7z M699.7,341.9l1.1-3.9l1.9,0.5l-1,3.9L699.7,341.9z M701.2,336.1
		l1-3.9l1.8,0.5l-1,3.9L701.2,336.1z M702.7,330.2l0.9-3.9l1.8,0.4l-0.9,3.9L702.7,330.2z M704.1,324.4l0.9-3.9l1.7,0.4l-0.8,3.9
		L704.1,324.4z M705.4,318.5l0.8-4l1.7,0.3l-0.7,4L705.4,318.5z M706.5,312.6l0.7-4l1.6,0.3l-0.7,4L706.5,312.6z M707.6,306.6l0.6-4
		l1.5,0.2l-0.6,4L707.6,306.6z M708.5,300.7l0.5-4l1.5,0.2l-0.5,4L708.5,300.7z M709.3,294.7l0.5-4l1.4,0.2l-0.4,4L709.3,294.7z
		 M710,288.7l0.4-4l1.4,0.1l-0.3,4L710,288.7z M710.5,282.7l0.3-4l1.3,0.1l-0.2,4L710.5,282.7z M710.9,276.7l0.2-4l1.3,0.1l-0.2,4
		L710.9,276.7z M711.2,270.7l0.1-4l1.2,0l-0.1,4L711.2,270.7z M711.3,264.6l0-4l1.1,0l0,4L711.3,264.6z M711.3,258.6l-0.1-4l1.1,0
		l0.1,4L711.3,258.6z M711.1,252.6l-0.2-4l1-0.1l0.3,4L711.1,252.6z M710.7,246.6l-0.3-4l1-0.1l0.4,4L710.7,246.6z M710.2,240.5
		l-0.4-4l0.9-0.1l0.5,4L710.2,240.5z M709.6,234.6l-0.5-4l0.8-0.1l0.6,4L709.6,234.6z M708.7,228.6l-0.7-4l0.8-0.1l0.7,4
		L708.7,228.6z M707.7,222.6l-0.8-4l0.7-0.1l0.8,3.9L707.7,222.6z M706.5,216.7l-0.9-3.9l0.6-0.1l0.9,3.9L706.5,216.7z M705.1,210.8
		l-1-3.9l0.6-0.2l1.1,3.9L705.1,210.8z M703.6,205l-1.2-3.9l0.5-0.2l1.2,3.9L703.6,205z M701.8,199.2l-1.3-3.8l0.4-0.1l1.3,3.8
		L701.8,199.2z M699.9,193.5l-1.4-3.8l0.4-0.1l1.5,3.8L699.9,193.5z M697.7,187.9l-1.5-3.7l0.3-0.1l1.6,3.7L697.7,187.9z
		 M695.4,182.3l-1.7-3.7l0.3-0.1l1.7,3.6L695.4,182.3z M692.8,176.9l-1.8-3.6l0.2-0.1l1.9,3.6L692.8,176.9z M690,171.5l-2-3.5
		l0.1-0.1l2,3.5L690,171.5z M687,166.3l-2.1-3.4l0.1-0.1l2.2,3.4L687,166.3z M683.7,161.2l-2.3-3.3l0,0L683.7,161.2L683.7,161.2z
		 M680.2,156.3l-1.3-1.5L680.2,156.3L680.2,156.3z M671.2,428.7l-5.3-0.4l-3.4-4.1l-1,12.5L671.2,428.7z"/>
	<ellipse class="st14" cx="635.9" cy="460.9" rx="13.1" ry="4.4"/>
	<g>
		<path class="st8" d="M628.3,419.8c5.4,3.9,9.3,3.9,15.6,0c2.4,3.1,3.2,6.5,3.9,10.3c0.2,1.4,0.6,4.8,0.6,6.3
			c-0.2,3.5-0.9,3.6-1.8,4.2c-0.4,0.3-0.6,0.9-0.6,1.4c-0.6,4.1-1.4,8.2-1.6,12.4c-0.3,6.3-7.2,8.4-11.4,6.6c-2.9-1.2-4.6-3.2-5-6.4
			c-0.4-4.2-1.1-8.4-1.7-12.5c-0.1-0.6-0.1-1.5-0.9-1.8c0,0-1.7-0.7-1.7-3.7c-0.1-5.4,0.8-10.7,3.7-15.4
			C627.4,420.8,628.1,420,628.3,419.8L628.3,419.8z M645.1,411.5c-0.1,5-4.3,9-9.2,9c-5,0-9.1-4.3-9-9.4c0.1-5,4.2-9,9.2-8.9
			C641.2,402.2,645.2,406.3,645.1,411.5L645.1,411.5z"/>
	</g>
	<path class="st29" d="M383,435h-2"/>
	<path class="st30" d="M379,435h-17"/>
	<path class="st29" d="M360.6,434.7h-2l0-2"/>
	<path class="st31" d="M358.6,430.7l1-288"/>
	<path class="st29" d="M359.8,142l-0.2-2h2.4"/>
	<path class="st30" d="M364,140h72"/>
	<path class="st29" d="M437,140h2"/>
	<path class="st28" d="M436,144.2l1.9-4.4l-1.9-4.4l10.5,4.4L436,144.2z"/>
	<ellipse class="st14" cx="513.8" cy="319.1" rx="9.5" ry="3.2"/>
	<g>
		<path class="st13" d="M508.2,289.4c3.9,2.8,6.7,2.8,11.2,0c1.7,2.2,2.3,4.7,2.8,7.4c0.2,1,0.5,3.5,0.4,4.5c-0.1,2.5-0.6,2.6-1.3,3
			c-0.3,0.2-0.4,0.7-0.5,1c-0.4,3-1,6-1.2,8.9c-0.2,4.5-5.2,6-8.2,4.8c-2.1-0.9-3.3-2.3-3.6-4.6c-0.3-3-0.8-6-1.2-9.1
			c-0.1-0.5,0-1.1-0.7-1.3c0,0-1.2-0.5-1.2-2.7c-0.1-3.9,0.6-7.7,2.7-11.1C507.6,290.1,508.1,289.5,508.2,289.4L508.2,289.4z
			 M520.4,283.4c-0.1,3.6-3.1,6.5-6.7,6.5c-3.6,0-6.6-3.1-6.5-6.8c0-3.6,3-6.5,6.7-6.5C517.6,276.7,520.5,279.7,520.4,283.4
			L520.4,283.4z"/>
	</g>
	<g class="st27">
		<ellipse class="st7" cx="513.8" cy="319.1" rx="9.5" ry="3.2"/>
		<g>
			<path class="st7" d="M508.2,289.4c3.9,2.8,6.7,2.8,11.2,0c1.7,2.2,2.3,4.7,2.8,7.4c0.2,1,0.5,3.5,0.4,4.5c-0.1,2.5-0.6,2.6-1.3,3
				c-0.3,0.2-0.4,0.7-0.5,1c-0.4,3-1,6-1.2,8.9c-0.2,4.5-5.2,6-8.2,4.8c-2.1-0.9-3.3-2.3-3.6-4.6c-0.3-3-0.8-6-1.2-9.1
				c-0.1-0.5,0-1.1-0.7-1.3c0,0-1.2-0.5-1.2-2.7c-0.1-3.9,0.6-7.7,2.7-11.1C507.6,290.1,508.1,289.5,508.2,289.4L508.2,289.4z
				 M520.4,283.4c-0.1,3.6-3.1,6.5-6.7,6.5c-3.6,0-6.6-3.1-6.5-6.8c0-3.6,3-6.5,6.7-6.5C517.6,276.7,520.5,279.7,520.4,283.4
				L520.4,283.4z"/>
		</g>
	</g>
	<g class="st27">
		<ellipse class="st7" cx="513.8" cy="319.1" rx="9.5" ry="3.2"/>
		<g class="st27">
			<path class="st7" d="M508.2,289.4c3.9,2.8,6.7,2.8,11.2,0c1.7,2.2,2.3,4.7,2.8,7.4c0.2,1,0.5,3.5,0.4,4.5c-0.1,2.5-0.6,2.6-1.3,3
				c-0.3,0.2-0.4,0.7-0.5,1c-0.4,3-1,6-1.2,8.9c-0.2,4.5-5.2,6-8.2,4.8c-2.1-0.9-3.3-2.3-3.6-4.6c-0.3-3-0.8-6-1.2-9.1
				c-0.1-0.5,0-1.1-0.7-1.3c0,0-1.2-0.5-1.2-2.7c-0.1-3.9,0.6-7.7,2.7-11.1C507.6,290.1,508.1,289.5,508.2,289.4L508.2,289.4z
				 M520.4,283.4c-0.1,3.6-3.1,6.5-6.7,6.5c-3.6,0-6.6-3.1-6.5-6.8c0-3.6,3-6.5,6.7-6.5C517.6,276.7,520.5,279.7,520.4,283.4
				L520.4,283.4z"/>
		</g>
	</g>
</g>
<text transform="matrix(1 0 0 1 328.5649 542.2794)" class="st32 st33">協力資助 </text>
<text transform="matrix(1 0 0 1 328.5647 576.061)"><tspan x="0" y="0" class="st34 st35">支援網絡及願景的專案</tspan><tspan x="0" y="28.8" class="st34 st35">以透明的參與式預算流程資助</tspan></text>
</svg>
