<?xml version="1.0" encoding="utf-8"?>
<!-- Generator: Adobe Illustrator 19.1.0, SVG Export Plug-In . SVG Version: 6.00 Build 0)  -->
<!DOCTYPE svg PUBLIC "-//W3C//DTD SVG 1.1//EN" "http://www.w3.org/Graphics/SVG/1.1/DTD/svg11.dtd">
<svg version="1.1" id="圖層_1" xmlns="http://www.w3.org/2000/svg" xmlns:xlink="http://www.w3.org/1999/xlink" x="0px" y="0px"
	 viewBox="139 25.1 889 742.9" style="enable-background:new 139 25.1 889 742.9;" xml:space="preserve">
<style type="text/css">
	.st0{fill:none;stroke:#424242;stroke-width:4;stroke-miterlimit:10;}
	.st1{enable-background:new    ;}
	.st2{fill:#D6D6D6;}
	.st3{fill:#EFEFEF;}
	.st4{fill:#FFFFFF;}
	.st5{fill:#EAEAEA;}
	.st6{fill:#E95A78;}
	.st7{fill:#00D096;}
	.st8{fill:#4F4E4E;}
	.st9{fill:#FFA800;}
	.st10{fill:#00ACD0;}
	.st11{fill:#80529B;}
	.st12{opacity:0.2;fill:#FFA800;enable-background:new    ;}
	.st13{opacity:0.2;fill:#00ACD0;enable-background:new    ;}
	.st14{opacity:0.2;fill:#00D096;enable-background:new    ;}
	.st15{opacity:0.2;fill:#80529B;enable-background:new    ;}
	.st16{fill:none;}
	.st17{opacity:0.2;fill:#E95A78;enable-background:new    ;}
	.st18{fill:#C2C2C4;}
	.st19{opacity:0.7;}
	.st20{opacity:0.6;}
	.st21{fill:none;stroke:#C2C2C4;stroke-miterlimit:10;stroke-dasharray:4,3;}
	.st22{font-family:'SourceHanSansTW-Light-B5pc-H';}
	.st23{font-size:24px;}
	.st24{font-family:'SourceHanSansTW-Bold-B5pc-H';}
	.st25{font-size:36px;}
</style>
<g>
	<path d="M477,645.5h-2.6V632h-4.6v-2.2h11.8v2.2H477L477,645.5L477,645.5z M494.2,645.5h-2.5v-7.3c0-0.9-0.2-1.6-0.6-2
		c-0.4-0.5-1-0.7-1.8-0.7c-1.1,0-1.8,0.3-2.3,1c-0.5,0.6-0.7,1.7-0.7,3.2v5.9h-2.5v-16.7h2.5v4.2c0,0.7,0,1.4-0.1,2.2h0.2
		c0.3-0.6,0.8-1,1.4-1.3s1.3-0.5,2.1-0.5c2.9,0,4.3,1.5,4.3,4.3L494.2,645.5L494.2,645.5z M502.9,645.7c-1.8,0-3.3-0.5-4.3-1.6
		s-1.6-2.6-1.6-4.5c0-1.9,0.5-3.5,1.5-4.6s2.3-1.7,4-1.7c1.6,0,2.8,0.5,3.7,1.4s1.4,2.3,1.4,3.9v1.4h-7.9c0,1.2,0.3,2,0.9,2.7
		c0.6,0.6,1.4,0.9,2.5,0.9c0.7,0,1.4-0.1,2-0.2c0.6-0.1,1.3-0.4,2-0.7v2.1c-0.6,0.3-1.2,0.5-1.9,0.6S503.7,645.7,502.9,645.7
		L502.9,645.7z M502.5,635.3c-0.8,0-1.4,0.3-1.9,0.8s-0.8,1.2-0.9,2.2h5.4c0-1-0.2-1.7-0.7-2.2C503.9,635.5,503.3,635.3,502.5,635.3
		L502.5,635.3z M525.3,645.5h-8.9v-15.7h8.9v2.2H519v4.3h5.9v2.1H519v4.9h6.3V645.5z M538.8,645.5h-2.5v-7.3c0-0.9-0.2-1.6-0.6-2
		c-0.4-0.5-1-0.7-1.8-0.7c-1.1,0-1.8,0.3-2.3,0.9s-0.7,1.7-0.7,3.2v5.9h-2.5v-11.9h2l0.4,1.6h0.1c0.4-0.6,0.9-1,1.5-1.3
		c0.7-0.3,1.4-0.5,2.2-0.5c2.8,0,4.3,1.5,4.3,4.3L538.8,645.5L538.8,645.5z M550.3,642.1c0,1.2-0.4,2-1.3,2.7
		c-0.8,0.6-2.1,0.9-3.6,0.9c-1.6,0-2.9-0.2-3.8-0.7v-2.2c1.4,0.6,2.7,1,3.9,1c1.6,0,2.3-0.5,2.3-1.4c0-0.3-0.1-0.6-0.3-0.8
		s-0.5-0.4-0.8-0.6s-0.9-0.5-1.6-0.7c-1.4-0.5-2.3-1.1-2.8-1.6s-0.7-1.2-0.7-2.1c0-1,0.4-1.8,1.2-2.4c0.8-0.6,1.9-0.8,3.3-0.8
		c1.4,0,2.7,0.3,4,0.8l-0.8,1.9c-1.3-0.5-2.4-0.8-3.2-0.8c-1.3,0-2,0.4-2,1.1c0,0.4,0.2,0.7,0.5,0.9c0.4,0.3,1.1,0.6,2.3,1.1
		c1,0.4,1.7,0.7,2.1,1c0.4,0.3,0.8,0.7,1,1.1C550.2,641,550.3,641.5,550.3,642.1L550.3,642.1z M559.1,645.7c-1.5,0-2.7-0.5-3.5-1.6
		h-0.2c0.1,1,0.2,1.6,0.2,1.8v4.9h-2.5v-17.2h2c0.1,0.2,0.2,0.8,0.4,1.6h0.1c0.8-1.2,2-1.8,3.5-1.8c1.5,0,2.6,0.5,3.5,1.6
		s1.2,2.6,1.2,4.5s-0.4,3.5-1.3,4.5C561.7,645.1,560.6,645.7,559.1,645.7L559.1,645.7z M558.5,635.4c-1,0-1.7,0.3-2.2,0.9
		c-0.5,0.6-0.7,1.5-0.7,2.8v0.4c0,1.4,0.2,2.5,0.7,3.1c0.5,0.6,1.2,1,2.2,1c0.9,0,1.5-0.4,2-1.1s0.7-1.7,0.7-3.1
		c0-1.3-0.2-2.3-0.7-3C560.1,635.8,559.4,635.4,558.5,635.4L558.5,635.4z M566.6,630.4c0-0.5,0.1-0.8,0.4-1s0.6-0.4,1.1-0.4
		c0.4,0,0.8,0.1,1,0.4c0.2,0.2,0.4,0.6,0.4,1c0,0.4-0.1,0.8-0.4,1c-0.2,0.2-0.6,0.4-1,0.4c-0.5,0-0.8-0.1-1.1-0.4
		C566.7,631.2,566.6,630.9,566.6,630.4L566.6,630.4z M569.3,645.5h-2.5v-11.9h2.5V645.5L569.3,645.5z M578.9,633.4
		c0.5,0,0.9,0,1.3,0.1l-0.2,2.4c-0.4-0.1-0.7-0.1-1.1-0.1c-1,0-1.8,0.3-2.5,1c-0.6,0.7-0.9,1.5-0.9,2.6v6.2h-2.5v-11.9h2l0.3,2.1
		h0.1c0.4-0.7,0.9-1.3,1.5-1.7S578.2,633.4,578.9,633.4L578.9,633.4z M589.8,645.5l-0.5-1.7h-0.1c-0.6,0.7-1.1,1.2-1.7,1.5
		c-0.6,0.3-1.3,0.4-2.2,0.4c-1.2,0-2.1-0.3-2.7-0.9s-1-1.5-1-2.7c0-1.2,0.5-2.1,1.4-2.8s2.3-1,4.2-1l2.1-0.1v-0.6
		c0-0.8-0.2-1.3-0.5-1.7c-0.4-0.4-0.9-0.6-1.7-0.6c-0.6,0-1.2,0.1-1.8,0.3c-0.6,0.2-1.1,0.4-1.6,0.6l-0.8-1.8
		c0.6-0.3,1.4-0.6,2.1-0.8c0.8-0.2,1.5-0.3,2.2-0.3c1.5,0,2.6,0.3,3.4,1c0.8,0.7,1.2,1.7,1.2,3.1v8L589.8,645.5L589.8,645.5z
		 M586.1,643.7c0.9,0,1.7-0.3,2.2-0.8c0.6-0.5,0.8-1.2,0.8-2.2v-1l-1.5,0.1c-1.2,0-2.1,0.2-2.6,0.6c-0.5,0.4-0.8,0.9-0.8,1.6
		c0,0.5,0.2,0.9,0.5,1.2C585,643.6,585.4,643.7,586.1,643.7L586.1,643.7z M597.7,645.5h-2.5v-16.7h2.5L597.7,645.5L597.7,645.5z
		 M620.4,645.5h-3.1l-7.7-12.5h-0.1l0.1,0.7c0.1,1.3,0.2,2.5,0.2,3.7v8.2h-2.3v-15.7h3.1l7.7,12.5h0.1c0-0.2,0-0.8-0.1-1.8
		c0-1-0.1-1.8-0.1-2.4v-8.2h2.4V645.5L620.4,645.5z M629.4,645.7c-1.8,0-3.3-0.5-4.3-1.6c-1-1.1-1.6-2.6-1.6-4.5
		c0-1.9,0.5-3.5,1.5-4.6c1-1.1,2.3-1.7,4-1.7c1.6,0,2.8,0.5,3.7,1.4s1.4,2.3,1.4,3.9v1.4h-7.9c0,1.2,0.3,2,0.9,2.7
		c0.6,0.6,1.4,0.9,2.5,0.9c0.7,0,1.4-0.1,2-0.2c0.6-0.1,1.3-0.4,2-0.7v2.1c-0.6,0.3-1.2,0.5-1.9,0.6S630.2,645.7,629.4,645.7
		L629.4,645.7z M629,635.3c-0.8,0-1.4,0.3-1.9,0.8s-0.8,1.2-0.9,2.2h5.4c0-1-0.2-1.7-0.7-2.2C630.4,635.5,629.8,635.3,629,635.3
		L629,635.3z M641.3,643.6c0.6,0,1.2-0.1,1.8-0.3v1.9c-0.3,0.1-0.6,0.2-1.1,0.3c-0.4,0.1-0.9,0.1-1.4,0.1c-2.4,0-3.6-1.3-3.6-3.8
		v-6.4h-1.6v-1.1l1.7-0.9l0.9-2.5h1.6v2.6h3.4v1.9h-3.4v6.4c0,0.6,0.2,1.1,0.5,1.3C640.4,643.5,640.8,643.6,641.3,643.6L641.3,643.6
		z M655.3,645.5l-1.5-5.5c-0.2-0.6-0.5-2-1-4.1h-0.1c-0.4,1.9-0.7,3.3-1,4.1l-1.6,5.5h-2.8l-3.3-11.9h2.6l1.5,5.9
		c0.3,1.4,0.6,2.7,0.7,3.7h0.1c0.1-0.5,0.2-1.1,0.3-1.8c0.1-0.7,0.3-1.2,0.4-1.5l1.8-6.3h2.8l1.8,6.3c0.1,0.3,0.2,0.9,0.4,1.6
		s0.3,1.3,0.3,1.7h0.1c0.1-0.9,0.4-2.1,0.8-3.7l1.5-5.9h2.5l-3.4,11.9L655.3,645.5L655.3,645.5z M674.1,639.5c0,1.9-0.5,3.5-1.5,4.5
		s-2.4,1.6-4.2,1.6c-1.1,0-2.1-0.2-2.9-0.8s-1.5-1.2-2-2.2s-0.7-2-0.7-3.3c0-1.9,0.5-3.4,1.5-4.5s2.4-1.6,4.2-1.6
		c1.7,0,3.1,0.6,4.1,1.7C673.6,636.1,674.1,637.6,674.1,639.5L674.1,639.5z M665.4,639.5c0,2.7,1,4.1,3,4.1c2,0,3-1.4,3-4.1
		c0-2.7-1-4.1-3-4.1c-1.1,0-1.8,0.3-2.3,1.1C665.7,637.2,665.4,638.2,665.4,639.5L665.4,639.5z M683,633.4c0.5,0,0.9,0,1.3,0.1
		l-0.2,2.4c-0.4-0.1-0.7-0.1-1.1-0.1c-1,0-1.8,0.3-2.5,1c-0.6,0.7-0.9,1.5-0.9,2.6v6.2H677v-11.9h2l0.3,2.1h0.1
		c0.4-0.7,0.9-1.3,1.5-1.7S682.3,633.4,683,633.4L683,633.4z M688.9,639.2l1.4-1.8l3.6-3.8h2.9l-4.8,5.1l5.1,6.8h-3l-3.8-5.2
		l-1.4,1.1v4.1h-2.5v-16.7h2.5v8.2L688.9,639.2L688.9,639.2L688.9,639.2z M385.7,676.5c0,1-0.4,1.7-1.1,2.3s-1.6,0.8-2.8,0.8
		c-1.4,0-2.5-0.2-3.2-0.5v-0.8c0.8,0.3,1.9,0.5,3.1,0.5c0.9,0,1.7-0.2,2.2-0.6s0.8-1,0.8-1.7c0-0.4-0.1-0.8-0.3-1.1
		s-0.5-0.5-0.9-0.8c-0.4-0.2-1-0.5-1.8-0.8c-1.2-0.4-2-0.8-2.4-1.3s-0.7-1.1-0.7-1.9c0-0.9,0.3-1.5,1-2.1s1.5-0.8,2.6-0.8
		c1.1,0,2.1,0.2,3,0.6l-0.3,0.7c-0.9-0.4-1.9-0.6-2.7-0.6c-0.8,0-1.5,0.2-2,0.6s-0.8,0.9-0.8,1.6c0,0.4,0.1,0.8,0.2,1
		s0.4,0.5,0.8,0.7s0.9,0.5,1.8,0.8c0.9,0.3,1.6,0.6,2,0.9s0.8,0.6,1,1S385.7,676,385.7,676.5L385.7,676.5z M395.7,675.2
		c0,1.4-0.3,2.5-1,3.2s-1.6,1.2-2.8,1.2c-0.7,0-1.4-0.2-2-0.5s-1-0.9-1.3-1.5s-0.5-1.4-0.5-2.3c0-1.4,0.3-2.5,1-3.2s1.6-1.2,2.8-1.2
		c1.2,0,2.1,0.4,2.7,1.2S395.7,673.8,395.7,675.2L395.7,675.2z M389,675.2c0,1.2,0.3,2.1,0.8,2.7s1.2,1,2.2,1s1.7-0.3,2.2-1
		s0.8-1.6,0.8-2.7c0-1.2-0.3-2.1-0.8-2.7s-1.2-1-2.2-1c-0.9,0-1.7,0.3-2.2,1S389,674,389,675.2L389,675.2z M402.3,679.6
		c-1.2,0-2.2-0.4-2.9-1.1s-1-1.8-1-3.2c0-1.4,0.4-2.5,1.1-3.3s1.7-1.2,2.9-1.2c0.7,0,1.4,0.1,2.1,0.4l-0.2,0.7
		c-0.7-0.2-1.4-0.4-1.9-0.4c-1,0-1.8,0.3-2.4,1s-0.8,1.6-0.8,2.8c0,1.1,0.3,2,0.8,2.7s1.3,1,2.2,1c0.8,0,1.5-0.1,2.1-0.4v0.7
		C403.8,679.5,403.1,679.6,402.3,679.6L402.3,679.6z M407.2,668.6c0-0.5,0.2-0.8,0.5-0.8c0.2,0,0.3,0.1,0.4,0.2s0.1,0.3,0.1,0.6
		c0,0.2,0,0.4-0.1,0.6s-0.2,0.2-0.4,0.2C407.3,669.4,407.2,669.1,407.2,668.6L407.2,668.6z M408,679.5h-0.8V671h0.8V679.5z
		 M416.8,679.5l-0.2-1.3h-0.1c-0.4,0.5-0.9,0.9-1.3,1.2s-1,0.3-1.6,0.3c-0.8,0-1.5-0.2-1.9-0.6s-0.7-1-0.7-1.8c0-0.8,0.3-1.5,1-1.9
		s1.7-0.7,3-0.7l1.6,0v-0.6c0-0.8-0.2-1.4-0.5-1.8s-0.9-0.6-1.6-0.6c-0.8,0-1.6,0.2-2.4,0.7l-0.3-0.7c0.9-0.4,1.9-0.7,2.8-0.7
		c0.9,0,1.6,0.2,2.1,0.7s0.7,1.2,0.7,2.3v5.6L416.8,679.5L416.8,679.5z M413.7,678.9c0.9,0,1.6-0.3,2.1-0.8s0.8-1.2,0.8-2.2v-0.8
		l-1.5,0.1c-1.2,0.1-2,0.2-2.5,0.6s-0.8,0.8-0.8,1.5c0,0.5,0.2,0.9,0.5,1.2S413.1,678.9,413.7,678.9L413.7,678.9z M421.7,679.5H421
		v-12.2h0.8V679.5z M433.8,679.6c-1.2,0-2.2-0.4-2.9-1.1s-1-1.8-1-3.2c0-1.4,0.3-2.4,1-3.3s1.6-1.2,2.7-1.2c1,0,1.8,0.3,2.4,1
		s0.9,1.6,0.9,2.8v0.6h-6.1c0,1.2,0.3,2.1,0.8,2.7s1.3,0.9,2.3,0.9c0.5,0,0.9,0,1.3-0.1s0.8-0.2,1.4-0.4v0.7
		c-0.5,0.2-0.9,0.3-1.3,0.4S434.3,679.6,433.8,679.6L433.8,679.6z M433.5,671.5c-0.8,0-1.5,0.3-2,0.8s-0.8,1.3-0.9,2.3h5.2
		c0-1-0.2-1.8-0.6-2.3S434.3,671.5,433.5,671.5L433.5,671.5z M445.8,679.5v-5.5c0-0.9-0.2-1.5-0.5-1.9s-0.9-0.6-1.7-0.6
		c-1,0-1.8,0.3-2.2,0.8s-0.7,1.3-0.7,2.5v4.7h-0.8V671h0.7l0.1,1.2h0c0.6-0.9,1.5-1.3,2.9-1.3c1.9,0,2.9,1,2.9,3.1v5.6L445.8,679.5
		L445.8,679.5z M452.4,678.9c0.5,0,0.9,0,1.3-0.1v0.6c-0.4,0.1-0.8,0.2-1.3,0.2c-0.8,0-1.3-0.2-1.7-0.6s-0.5-1-0.5-1.9v-5.5h-1.3
		v-0.5l1.3-0.4l0.4-1.9h0.4v2.1h2.5v0.7H451v5.4c0,0.7,0.1,1.1,0.3,1.4S451.9,678.9,452.4,678.9z M459.7,679.6
		c-1.2,0-2.2-0.4-2.9-1.1s-1-1.8-1-3.2c0-1.4,0.3-2.4,1-3.3s1.6-1.2,2.7-1.2c1,0,1.8,0.3,2.4,1s0.9,1.6,0.9,2.8v0.6h-6.1
		c0,1.2,0.3,2.1,0.8,2.7s1.3,0.9,2.3,0.9c0.5,0,0.9,0,1.3-0.1s0.8-0.2,1.4-0.4v0.7c-0.5,0.2-0.9,0.3-1.3,0.4
		S460.2,679.6,459.7,679.6L459.7,679.6z M459.5,671.5c-0.8,0-1.5,0.3-2,0.8s-0.8,1.3-0.9,2.3h5.2c0-1-0.2-1.8-0.6-2.3
		S460.3,671.5,459.5,671.5L459.5,671.5z M469.2,670.8c0.4,0,0.7,0,1.2,0.1l-0.1,0.7c-0.4-0.1-0.7-0.1-1.1-0.1
		c-0.7,0-1.3,0.3-1.8,0.9s-0.7,1.4-0.7,2.3v4.7h-0.8V671h0.7l0.1,1.5h0.1c0.4-0.6,0.7-1.1,1.1-1.3S468.7,670.8,469.2,670.8
		L469.2,670.8z M476.6,679.6c-1.3,0-2.3-0.5-2.9-1.5h-0.1l0,0.7c0,0.4,0,0.8,0,1.3v3.2h-0.8V671h0.7l0.1,1.2h0
		c0.6-0.9,1.5-1.4,2.8-1.4c1.1,0,2,0.4,2.6,1.1s0.9,1.8,0.9,3.3c0,1.4-0.3,2.5-1,3.2S477.6,679.6,476.6,679.6L476.6,679.6z
		 M476.5,678.9c0.9,0,1.5-0.3,2-1s0.7-1.5,0.7-2.7c0-2.5-0.9-3.7-2.7-3.7c-1,0-1.7,0.3-2.2,0.8s-0.7,1.4-0.7,2.7v0.2
		c0,1.3,0.2,2.3,0.7,2.8S475.5,678.9,476.5,678.9L476.5,678.9z M486.6,670.8c0.4,0,0.7,0,1.2,0.1l-0.1,0.7c-0.4-0.1-0.7-0.1-1.1-0.1
		c-0.7,0-1.3,0.3-1.8,0.9s-0.7,1.4-0.7,2.3v4.7h-0.8V671h0.7l0.1,1.5h0.1c0.4-0.6,0.7-1.1,1.1-1.3S486,670.8,486.6,670.8
		L486.6,670.8z M490.2,668.6c0-0.5,0.2-0.8,0.5-0.8c0.2,0,0.3,0.1,0.4,0.2s0.1,0.3,0.1,0.6c0,0.2,0,0.4-0.1,0.6s-0.2,0.2-0.4,0.2
		C490.3,669.4,490.2,669.1,490.2,668.6L490.2,668.6z M491,679.5h-0.8V671h0.8V679.5z M500,677.2c0,0.8-0.3,1.3-0.9,1.8
		s-1.4,0.6-2.5,0.6c-1.1,0-2-0.2-2.7-0.5v-0.8c0.9,0.4,1.8,0.6,2.7,0.6c0.8,0,1.5-0.1,1.9-0.4s0.7-0.7,0.7-1.1
		c0-0.4-0.2-0.8-0.5-1.1s-0.9-0.6-1.7-0.9c-0.9-0.3-1.4-0.6-1.8-0.8s-0.6-0.5-0.8-0.8s-0.3-0.6-0.3-1c0-0.6,0.3-1.1,0.8-1.5
		s1.3-0.6,2.2-0.6c0.9,0,1.8,0.2,2.6,0.5l-0.3,0.7c-0.8-0.3-1.6-0.5-2.3-0.5c-0.7,0-1.2,0.1-1.6,0.3s-0.6,0.5-0.6,1
		c0,0.4,0.2,0.8,0.5,1.1s0.9,0.6,1.8,0.9c0.8,0.3,1.3,0.5,1.7,0.7s0.6,0.5,0.8,0.8S500,676.9,500,677.2L500,677.2z M506.4,679.6
		c-1.2,0-2.2-0.4-2.9-1.1s-1-1.8-1-3.2c0-1.4,0.3-2.4,1-3.3s1.6-1.2,2.7-1.2c1,0,1.8,0.3,2.4,1s0.9,1.6,0.9,2.8v0.6h-6.1
		c0,1.2,0.3,2.1,0.8,2.7s1.3,0.9,2.3,0.9c0.5,0,0.9,0,1.3-0.1s0.8-0.2,1.4-0.4v0.7c-0.5,0.2-0.9,0.3-1.3,0.4
		S506.9,679.6,506.4,679.6L506.4,679.6z M506.1,671.5c-0.8,0-1.5,0.3-2,0.8s-0.8,1.3-0.9,2.3h5.2c0-1-0.2-1.8-0.6-2.3
		S506.9,671.5,506.1,671.5L506.1,671.5z M519.3,679.5l-3.3-8.5h0.8l2.2,5.8c0.3,0.7,0.5,1.4,0.7,1.9h0c0.2-0.7,0.4-1.4,0.7-2
		l2.2-5.8h0.8l-3.3,8.5H519.3L519.3,679.5z M529.1,679.6c-1.2,0-2.2-0.4-2.9-1.1s-1-1.8-1-3.2c0-1.4,0.3-2.4,1-3.3s1.6-1.2,2.7-1.2
		c1,0,1.8,0.3,2.4,1c0.6,0.7,0.9,1.6,0.9,2.8v0.6h-6.1c0,1.2,0.3,2.1,0.8,2.7c0.5,0.6,1.3,0.9,2.3,0.9c0.5,0,0.9,0,1.3-0.1
		c0.4-0.1,0.8-0.2,1.4-0.4v0.7c-0.5,0.2-0.9,0.3-1.3,0.4S529.5,679.6,529.1,679.6L529.1,679.6z M528.8,671.5c-0.8,0-1.5,0.3-2,0.8
		s-0.8,1.3-0.9,2.3h5.2c0-1-0.2-1.8-0.6-2.3S529.6,671.5,528.8,671.5L528.8,671.5z M541.1,679.5v-5.5c0-0.9-0.2-1.5-0.5-1.9
		c-0.4-0.4-0.9-0.6-1.7-0.6c-1,0-1.8,0.3-2.2,0.8c-0.5,0.5-0.7,1.3-0.7,2.5v4.7h-0.8V671h0.7l0.1,1.2h0c0.6-0.9,1.5-1.3,2.9-1.3
		c1.9,0,2.9,1,2.9,3.1v5.6L541.1,679.5L541.1,679.5z M547.7,678.9c0.5,0,0.9,0,1.3-0.1v0.6c-0.4,0.1-0.8,0.2-1.3,0.2
		c-0.8,0-1.3-0.2-1.7-0.6c-0.4-0.4-0.5-1-0.5-1.9v-5.5h-1.3v-0.5l1.3-0.4l0.4-1.9h0.4v2.1h2.5v0.7h-2.5v5.4c0,0.7,0.1,1.1,0.3,1.4
		S547.2,678.9,547.7,678.9L547.7,678.9z M552.3,671v5.5c0,0.9,0.2,1.5,0.5,1.9c0.4,0.4,0.9,0.6,1.7,0.6c1,0,1.8-0.3,2.2-0.8
		c0.5-0.5,0.7-1.3,0.7-2.5V671h0.8v8.5h-0.7l-0.1-1.2h0c-0.5,0.9-1.5,1.3-2.9,1.3c-1.9,0-2.9-1-2.9-3.1V671L552.3,671L552.3,671z
		 M565.2,670.8c0.4,0,0.7,0,1.2,0.1l-0.1,0.7c-0.4-0.1-0.7-0.1-1.1-0.1c-0.7,0-1.3,0.3-1.8,0.9s-0.7,1.4-0.7,2.3v4.7h-0.8V671h0.7
		l0.1,1.5h0.1c0.3-0.6,0.7-1.1,1.1-1.3S564.6,670.8,565.2,670.8L565.2,670.8z M572.3,679.6c-1.2,0-2.2-0.4-2.9-1.1s-1-1.8-1-3.2
		c0-1.4,0.3-2.4,1-3.3s1.6-1.2,2.7-1.2c1,0,1.8,0.3,2.4,1s0.9,1.6,0.9,2.8v0.6h-6.1c0,1.2,0.3,2.1,0.8,2.7s1.3,0.9,2.3,0.9
		c0.5,0,0.9,0,1.3-0.1s0.8-0.2,1.4-0.4v0.7c-0.5,0.2-0.9,0.3-1.3,0.4S572.8,679.6,572.3,679.6L572.3,679.6z M572.1,671.5
		c-0.8,0-1.5,0.3-2,0.8s-0.8,1.3-0.9,2.3h5.2c0-1-0.2-1.8-0.6-2.3S572.8,671.5,572.1,671.5L572.1,671.5z M583.7,677.2
		c0,0.8-0.3,1.3-0.9,1.8s-1.4,0.6-2.5,0.6c-1.1,0-2-0.2-2.7-0.5v-0.8c0.9,0.4,1.8,0.6,2.7,0.6c0.8,0,1.5-0.1,1.9-0.4
		c0.4-0.3,0.7-0.7,0.7-1.1c0-0.4-0.2-0.8-0.5-1.1c-0.3-0.3-0.9-0.6-1.7-0.9c-0.9-0.3-1.4-0.6-1.8-0.8c-0.3-0.2-0.6-0.5-0.8-0.8
		c-0.2-0.3-0.3-0.6-0.3-1c0-0.6,0.3-1.1,0.8-1.5s1.3-0.6,2.2-0.6c0.9,0,1.8,0.2,2.6,0.5l-0.3,0.7c-0.8-0.3-1.6-0.5-2.3-0.5
		c-0.7,0-1.2,0.1-1.6,0.3c-0.4,0.2-0.6,0.5-0.6,1c0,0.4,0.2,0.8,0.5,1.1c0.3,0.3,0.9,0.6,1.8,0.9c0.8,0.3,1.3,0.5,1.7,0.7
		s0.6,0.5,0.8,0.8C583.6,676.5,583.7,676.9,583.7,677.2L583.7,677.2z M596.8,679.5l-0.2-1.3h-0.1c-0.4,0.5-0.9,0.9-1.3,1.2
		c-0.5,0.2-1,0.3-1.6,0.3c-0.8,0-1.5-0.2-1.9-0.6s-0.7-1-0.7-1.8c0-0.8,0.3-1.5,1-1.9c0.7-0.5,1.7-0.7,3-0.7l1.6,0v-0.6
		c0-0.8-0.2-1.4-0.5-1.8s-0.9-0.6-1.6-0.6c-0.8,0-1.6,0.2-2.4,0.7l-0.3-0.7c0.9-0.4,1.9-0.7,2.8-0.7c0.9,0,1.6,0.2,2.1,0.7
		s0.7,1.2,0.7,2.3v5.6L596.8,679.5L596.8,679.5z M593.7,678.9c0.9,0,1.6-0.3,2.1-0.8s0.8-1.2,0.8-2.2v-0.8l-1.5,0.1
		c-1.2,0.1-2,0.2-2.6,0.6c-0.5,0.3-0.8,0.8-0.8,1.5c0,0.5,0.2,0.9,0.5,1.2C592.6,678.8,593.1,678.9,593.7,678.9L593.7,678.9z
		 M606.9,679.5v-5.5c0-0.9-0.2-1.5-0.5-1.9s-0.9-0.6-1.7-0.6c-1,0-1.8,0.3-2.2,0.8s-0.7,1.3-0.7,2.5v4.7h-0.8V671h0.7l0.1,1.2h0
		c0.6-0.9,1.5-1.3,2.9-1.3c1.9,0,2.9,1,2.9,3.1v5.6L606.9,679.5L606.9,679.5z M614.3,670.8c0.6,0,1.1,0.1,1.6,0.3s0.8,0.6,1.2,1.1h0
		c0-0.7,0-1.3,0-1.9v-3.1h0.8v12.2h-0.5l-0.2-1.3h-0.1c-0.6,1-1.6,1.5-2.8,1.5c-1.2,0-2.1-0.4-2.7-1.1s-0.9-1.8-0.9-3.2
		c0-1.5,0.3-2.6,0.9-3.4C612.2,671.2,613.1,670.8,614.3,670.8L614.3,670.8z M614.3,671.5c-0.9,0-1.6,0.3-2.1,1s-0.7,1.6-0.7,2.8
		c0,2.4,0.9,3.6,2.8,3.6c1,0,1.7-0.3,2.1-0.8c0.4-0.6,0.7-1.5,0.7-2.8v-0.1c0-1.3-0.2-2.3-0.7-2.8
		C616,671.8,615.3,671.5,614.3,671.5L614.3,671.5z M631.7,677.2c0,0.8-0.3,1.3-0.9,1.8s-1.4,0.6-2.5,0.6c-1.1,0-2-0.2-2.7-0.5v-0.8
		c0.9,0.4,1.8,0.6,2.7,0.6c0.8,0,1.5-0.1,1.9-0.4s0.7-0.7,0.7-1.1c0-0.4-0.2-0.8-0.5-1.1s-0.9-0.6-1.7-0.9c-0.9-0.3-1.4-0.6-1.8-0.8
		s-0.6-0.5-0.8-0.8s-0.3-0.6-0.3-1c0-0.6,0.3-1.1,0.8-1.5c0.5-0.4,1.3-0.6,2.2-0.6c0.9,0,1.8,0.2,2.6,0.5l-0.3,0.7
		c-0.8-0.3-1.6-0.5-2.3-0.5c-0.7,0-1.2,0.1-1.6,0.3s-0.6,0.5-0.6,1c0,0.4,0.2,0.8,0.5,1.1s0.9,0.6,1.8,0.9c0.8,0.3,1.3,0.5,1.7,0.7
		s0.6,0.5,0.8,0.8S631.7,676.9,631.7,677.2L631.7,677.2z M641.7,675.2c0,1.4-0.3,2.5-1,3.2s-1.6,1.2-2.8,1.2c-0.7,0-1.4-0.2-2-0.5
		s-1-0.9-1.3-1.5c-0.3-0.7-0.5-1.4-0.5-2.3c0-1.4,0.3-2.5,1-3.2c0.7-0.8,1.6-1.2,2.8-1.2c1.2,0,2.1,0.4,2.7,1.2
		S641.7,673.8,641.7,675.2L641.7,675.2z M635,675.2c0,1.2,0.3,2.1,0.8,2.7s1.2,1,2.2,1s1.7-0.3,2.2-1c0.5-0.7,0.8-1.6,0.8-2.7
		c0-1.2-0.3-2.1-0.8-2.7c-0.5-0.6-1.2-1-2.2-1s-1.7,0.3-2.2,1C635.3,673.1,635,674,635,675.2L635,675.2z M648.3,679.6
		c-1.2,0-2.2-0.4-2.9-1.1s-1-1.8-1-3.2c0-1.4,0.4-2.5,1.1-3.3s1.7-1.2,2.9-1.2c0.7,0,1.4,0.1,2.1,0.4l-0.2,0.7
		c-0.7-0.2-1.4-0.4-1.9-0.4c-1,0-1.8,0.3-2.4,1s-0.8,1.6-0.8,2.8c0,1.1,0.3,2,0.8,2.7c0.5,0.6,1.3,1,2.2,1c0.8,0,1.5-0.1,2.1-0.4
		v0.7C649.9,679.5,649.1,679.6,648.3,679.6L648.3,679.6z M653.2,668.6c0-0.5,0.2-0.8,0.5-0.8c0.2,0,0.3,0.1,0.4,0.2s0.1,0.3,0.1,0.6
		c0,0.2,0,0.4-0.1,0.6s-0.2,0.2-0.4,0.2C653.3,669.4,653.2,669.1,653.2,668.6L653.2,668.6z M654.1,679.5h-0.8V671h0.8L654.1,679.5
		L654.1,679.5z M662.9,679.5l-0.2-1.3h-0.1c-0.4,0.5-0.9,0.9-1.3,1.2s-1,0.3-1.6,0.3c-0.8,0-1.5-0.2-1.9-0.6s-0.7-1-0.7-1.8
		c0-0.8,0.3-1.5,1-1.9s1.7-0.7,3-0.7l1.6,0v-0.6c0-0.8-0.2-1.4-0.5-1.8s-0.9-0.6-1.6-0.6c-0.8,0-1.6,0.2-2.4,0.7l-0.3-0.7
		c0.9-0.4,1.9-0.7,2.8-0.7c0.9,0,1.6,0.2,2.1,0.7s0.7,1.2,0.7,2.3v5.6L662.9,679.5L662.9,679.5z M659.7,678.9c0.9,0,1.6-0.3,2.1-0.8
		s0.8-1.2,0.8-2.2v-0.8l-1.5,0.1c-1.2,0.1-2,0.2-2.5,0.6s-0.8,0.8-0.8,1.5c0,0.5,0.2,0.9,0.5,1.2S659.1,678.9,659.7,678.9
		L659.7,678.9z M667.7,679.5H667v-12.2h0.8V679.5z M679.8,679.6c-1.2,0-2.2-0.4-2.9-1.1s-1-1.8-1-3.2c0-1.4,0.3-2.4,1-3.3
		s1.6-1.2,2.7-1.2c1,0,1.8,0.3,2.4,1s0.9,1.6,0.9,2.8v0.6h-6.1c0,1.2,0.3,2.1,0.8,2.7s1.3,0.9,2.3,0.9c0.5,0,0.9,0,1.3-0.1
		s0.8-0.2,1.4-0.4v0.7c-0.5,0.2-0.9,0.3-1.3,0.4S680.3,679.6,679.8,679.6L679.8,679.6z M679.6,671.5c-0.8,0-1.5,0.3-2,0.8
		s-0.8,1.3-0.9,2.3h5.2c0-1-0.2-1.8-0.6-2.3S680.3,671.5,679.6,671.5L679.6,671.5z M691.8,679.5v-5.5c0-0.9-0.2-1.5-0.5-1.9
		s-0.9-0.6-1.7-0.6c-1,0-1.8,0.3-2.2,0.8s-0.7,1.3-0.7,2.5v4.7h-0.8V671h0.7l0.1,1.2h0c0.6-0.9,1.5-1.3,2.9-1.3c1.9,0,2.9,1,2.9,3.1
		v5.6L691.8,679.5L691.8,679.5z M698.4,678.9c0.5,0,0.9,0,1.3-0.1v0.6c-0.4,0.1-0.8,0.2-1.3,0.2c-0.8,0-1.3-0.2-1.7-0.6
		s-0.5-1-0.5-1.9v-5.5h-1.3v-0.5l1.3-0.4l0.4-1.9h0.4v2.1h2.5v0.7H697v5.4c0,0.7,0.1,1.1,0.3,1.4S697.9,678.9,698.4,678.9
		L698.4,678.9z M705.7,670.8c0.4,0,0.7,0,1.2,0.1l-0.1,0.7c-0.4-0.1-0.7-0.1-1.1-0.1c-0.7,0-1.3,0.3-1.8,0.9s-0.7,1.4-0.7,2.3v4.7
		h-0.8V671h0.7l0.1,1.5h0.1c0.3-0.6,0.7-1.1,1.1-1.3S705.1,670.8,705.7,670.8L705.7,670.8z M712.8,679.6c-1.2,0-2.2-0.4-2.9-1.1
		s-1-1.8-1-3.2c0-1.4,0.3-2.4,1-3.3s1.6-1.2,2.7-1.2c1,0,1.8,0.3,2.4,1s0.9,1.6,0.9,2.8v0.6h-6.1c0,1.2,0.3,2.1,0.8,2.7
		s1.3,0.9,2.3,0.9c0.5,0,0.9,0,1.3-0.1s0.8-0.2,1.4-0.4v0.7c-0.5,0.2-0.9,0.3-1.3,0.4S713.3,679.6,712.8,679.6L712.8,679.6z
		 M712.6,671.5c-0.8,0-1.5,0.3-2,0.8s-0.8,1.3-0.9,2.3h5.2c0-1-0.2-1.8-0.6-2.3S713.3,671.5,712.6,671.5L712.6,671.5z M722.6,679.6
		c-1.3,0-2.3-0.5-2.9-1.5h-0.1l0,0.7c0,0.4,0,0.8,0,1.3v3.2h-0.8V671h0.7l0.1,1.2h0c0.6-0.9,1.5-1.4,2.8-1.4c1.1,0,2,0.4,2.6,1.1
		s0.9,1.8,0.9,3.3c0,1.4-0.3,2.5-1,3.2S723.7,679.6,722.6,679.6L722.6,679.6z M722.6,678.9c0.9,0,1.5-0.3,2-1s0.7-1.5,0.7-2.7
		c0-2.5-0.9-3.7-2.7-3.7c-1,0-1.7,0.3-2.2,0.8s-0.7,1.4-0.7,2.7v0.2c0,1.3,0.2,2.3,0.7,2.8S721.5,678.9,722.6,678.9L722.6,678.9z
		 M732.6,670.8c0.4,0,0.7,0,1.2,0.1l-0.1,0.7c-0.4-0.1-0.7-0.1-1.1-0.1c-0.7,0-1.3,0.3-1.8,0.9s-0.7,1.4-0.7,2.3v4.7h-0.8V671h0.7
		l0.1,1.5h0.1c0.3-0.6,0.7-1.1,1.1-1.3S732,670.8,732.6,670.8L732.6,670.8z M739.7,679.6c-1.2,0-2.2-0.4-2.9-1.1s-1-1.8-1-3.2
		c0-1.4,0.3-2.4,1-3.3s1.6-1.2,2.7-1.2c1,0,1.8,0.3,2.4,1s0.9,1.6,0.9,2.8v0.6h-6.1c0,1.2,0.3,2.1,0.8,2.7s1.3,0.9,2.3,0.9
		c0.5,0,0.9,0,1.3-0.1s0.8-0.2,1.4-0.4v0.7c-0.5,0.2-0.9,0.3-1.3,0.4S740.2,679.6,739.7,679.6L739.7,679.6z M739.5,671.5
		c-0.8,0-1.5,0.3-2,0.8s-0.8,1.3-0.9,2.3h5.2c0-1-0.2-1.8-0.6-2.3S740.2,671.5,739.5,671.5L739.5,671.5z M751.8,679.5v-5.5
		c0-0.9-0.2-1.5-0.5-1.9s-0.9-0.6-1.7-0.6c-1,0-1.8,0.3-2.2,0.8s-0.7,1.3-0.7,2.5v4.7h-0.8V671h0.7l0.2,1.2h0
		c0.6-0.9,1.5-1.3,2.9-1.3c1.9,0,2.9,1,2.9,3.1v5.6L751.8,679.5L751.8,679.5z M759.5,679.6c-1.2,0-2.2-0.4-2.9-1.1s-1-1.8-1-3.2
		c0-1.4,0.3-2.4,1-3.3s1.6-1.2,2.7-1.2c1,0,1.8,0.3,2.4,1s0.9,1.6,0.9,2.8v0.6h-6.1c0,1.2,0.3,2.1,0.8,2.7s1.3,0.9,2.3,0.9
		c0.5,0,0.9,0,1.3-0.1s0.8-0.2,1.4-0.4v0.7c-0.5,0.2-0.9,0.3-1.3,0.4S760,679.6,759.5,679.6L759.5,679.6z M759.3,671.5
		c-0.8,0-1.5,0.3-2,0.8s-0.8,1.3-0.9,2.3h5.2c0-1-0.2-1.8-0.6-2.3S760.1,671.5,759.3,671.5L759.3,671.5z M766.4,671v5.5
		c0,0.9,0.2,1.5,0.5,1.9s0.9,0.6,1.7,0.6c1,0,1.8-0.3,2.2-0.8s0.7-1.3,0.7-2.5V671h0.8v8.5h-0.7l-0.1-1.2h0
		c-0.6,0.9-1.5,1.3-2.9,1.3c-1.9,0-2.9-1-2.9-3.1V671L766.4,671L766.4,671z M779.3,670.8c0.4,0,0.7,0,1.2,0.1l-0.1,0.7
		c-0.4-0.1-0.7-0.1-1.1-0.1c-0.7,0-1.3,0.3-1.8,0.9s-0.7,1.4-0.7,2.3v4.7h-0.8V671h0.7l0.1,1.5h0.1c0.3-0.6,0.7-1.1,1.1-1.3
		S778.7,670.8,779.3,670.8L779.3,670.8z M788.2,677.2c0,0.8-0.3,1.3-0.9,1.8s-1.4,0.6-2.5,0.6c-1.1,0-2-0.2-2.7-0.5v-0.8
		c0.9,0.4,1.8,0.6,2.7,0.6c0.8,0,1.5-0.1,1.9-0.4s0.7-0.7,0.7-1.1c0-0.4-0.2-0.8-0.5-1.1s-0.9-0.6-1.7-0.9c-0.8-0.3-1.4-0.6-1.8-0.8
		s-0.6-0.5-0.8-0.8s-0.3-0.6-0.3-1c0-0.6,0.3-1.1,0.8-1.5s1.3-0.6,2.2-0.6c0.9,0,1.8,0.2,2.6,0.5l-0.3,0.7c-0.8-0.3-1.6-0.5-2.3-0.5
		c-0.7,0-1.2,0.1-1.6,0.3s-0.6,0.5-0.6,1c0,0.4,0.2,0.8,0.5,1.1s0.9,0.6,1.8,0.9c0.8,0.3,1.3,0.5,1.7,0.7s0.6,0.5,0.8,0.8
		S788.2,676.9,788.2,677.2L788.2,677.2z M405.5,704.5l-1.9-5.7c-0.1-0.4-0.3-1-0.5-1.7h0l-0.2,0.6l-0.4,1.1l-1.9,5.7h-0.8l-2.4-8.5
		h0.8l1.4,4.9c0.3,1.2,0.5,2.1,0.6,2.7h0c0.3-1.2,0.5-2,0.7-2.4l1.8-5.2h0.7l1.7,5.2c0.4,1.2,0.6,2,0.7,2.4h0c0-0.3,0.2-1.2,0.6-2.7
		l1.3-4.9h0.8l-2.3,8.5L405.5,704.5L405.5,704.5z M418.1,700.2c0,1.4-0.3,2.5-1,3.2s-1.6,1.2-2.8,1.2c-0.7,0-1.4-0.2-2-0.5
		s-1-0.9-1.3-1.5s-0.5-1.4-0.5-2.3c0-1.4,0.3-2.5,1-3.2s1.6-1.2,2.8-1.2c1.2,0,2.1,0.4,2.7,1.2S418.1,698.8,418.1,700.2L418.1,700.2
		z M411.4,700.2c0,1.2,0.3,2.1,0.8,2.7s1.2,1,2.2,1s1.7-0.3,2.2-1s0.8-1.6,0.8-2.7c0-1.2-0.3-2.1-0.8-2.7s-1.2-1-2.2-1
		s-1.7,0.3-2.2,1S411.4,699,411.4,700.2L411.4,700.2z M424.6,695.8c0.4,0,0.7,0,1.2,0.1l-0.1,0.7c-0.4-0.1-0.7-0.1-1.1-0.1
		c-0.7,0-1.3,0.3-1.8,0.9s-0.7,1.4-0.7,2.3v4.7h-0.8V696h0.7l0.1,1.5h0.1c0.4-0.6,0.7-1.1,1.1-1.3S424,695.8,424.6,695.8
		L424.6,695.8z M429,700.7l4.3-4.8h0.9l-3.3,3.6l3.6,4.9h-0.9l-3.2-4.3l-1.4,1.3v3h-0.8v-12.2h0.8v6.1L429,700.7L429,700.7
		L429,700.7z M436.7,693.6c0-0.5,0.2-0.8,0.5-0.8c0.2,0,0.3,0.1,0.4,0.2s0.1,0.3,0.1,0.6c0,0.2,0,0.4-0.1,0.6s-0.2,0.2-0.4,0.2
		C436.8,694.4,436.7,694.1,436.7,693.6L436.7,693.6z M437.6,704.5h-0.8V696h0.8V704.5z M447.1,704.5v-5.5c0-0.9-0.2-1.5-0.5-1.9
		s-0.9-0.6-1.7-0.6c-1,0-1.8,0.3-2.2,0.8s-0.7,1.3-0.7,2.5v4.7h-0.8V696h0.7l0.1,1.2h0c0.6-0.9,1.5-1.3,2.9-1.3c1.9,0,2.9,1,2.9,3.1
		v5.6L447.1,704.5L447.1,704.5z M458.1,696v0.5l-1.8,0.1c0.5,0.6,0.7,1.2,0.7,1.9c0,0.8-0.3,1.5-0.8,2s-1.3,0.8-2.2,0.8
		c-0.4,0-0.7,0-0.8,0c-0.3,0.2-0.5,0.4-0.7,0.6s-0.2,0.5-0.2,0.7c0,0.3,0.1,0.5,0.3,0.6s0.5,0.2,1,0.2h1.5c0.9,0,1.6,0.2,2.1,0.6
		s0.7,0.9,0.7,1.7c0,0.9-0.4,1.6-1.1,2.1s-1.8,0.7-3.1,0.7c-1.1,0-1.9-0.2-2.5-0.6s-0.9-1-0.9-1.7c0-0.6,0.2-1.1,0.5-1.5
		s0.9-0.7,1.5-0.8c-0.3-0.1-0.5-0.3-0.6-0.5s-0.2-0.4-0.2-0.7c0-0.6,0.4-1.1,1.1-1.5c-0.5-0.2-0.9-0.5-1.2-1s-0.4-0.9-0.4-1.5
		c0-0.8,0.3-1.5,0.8-2s1.3-0.8,2.2-0.8c0.6,0,1,0.1,1.3,0.2L458.1,696L458.1,696z M451.2,705.9c0,1.2,0.9,1.8,2.6,1.8
		c2.2,0,3.3-0.7,3.3-2.1c0-0.5-0.2-0.9-0.5-1.1s-0.9-0.3-1.7-0.3h-1.4C452,704.1,451.2,704.7,451.2,705.9L451.2,705.9z M451.8,698.6
		c0,0.7,0.2,1.2,0.6,1.5s0.9,0.5,1.6,0.5c0.7,0,1.2-0.2,1.6-0.5s0.6-0.9,0.6-1.6c0-0.7-0.2-1.3-0.6-1.6s-0.9-0.5-1.6-0.5
		c-0.7,0-1.2,0.2-1.6,0.6S451.8,697.9,451.8,698.6L451.8,698.6z M467.8,703.9c0.5,0,0.9,0,1.3-0.1v0.6c-0.4,0.1-0.8,0.2-1.3,0.2
		c-0.8,0-1.3-0.2-1.7-0.6s-0.5-1-0.5-1.9v-5.5h-1.3v-0.5l1.3-0.4l0.4-1.9h0.4v2.1h2.5v0.7h-2.5v5.4c0,0.7,0.1,1.1,0.3,1.4
		S467.3,703.9,467.8,703.9L467.8,703.9z M478.7,700.2c0,1.4-0.3,2.5-1,3.2s-1.6,1.2-2.8,1.2c-0.7,0-1.4-0.2-2-0.5s-1-0.9-1.3-1.5
		s-0.5-1.4-0.5-2.3c0-1.4,0.3-2.5,1-3.2s1.6-1.2,2.8-1.2c1.2,0,2.1,0.4,2.7,1.2S478.7,698.8,478.7,700.2L478.7,700.2z M472,700.2
		c0,1.2,0.3,2.1,0.8,2.7s1.2,1,2.2,1s1.7-0.3,2.2-1s0.8-1.6,0.8-2.7c0-1.2-0.3-2.1-0.8-2.7s-1.2-1-2.2-1s-1.7,0.3-2.2,1
		S472,699,472,700.2L472,700.2z M488.5,696v0.5l-1.8,0.1c0.5,0.6,0.7,1.2,0.7,1.9c0,0.8-0.3,1.5-0.8,2s-1.3,0.8-2.2,0.8
		c-0.4,0-0.7,0-0.8,0c-0.3,0.2-0.5,0.4-0.7,0.6s-0.2,0.5-0.2,0.7c0,0.3,0.1,0.5,0.3,0.6s0.5,0.2,1,0.2h1.5c0.9,0,1.6,0.2,2.1,0.6
		s0.7,0.9,0.7,1.7c0,0.9-0.4,1.6-1.1,2.1s-1.8,0.7-3.1,0.7c-1.1,0-1.9-0.2-2.5-0.6s-0.9-1-0.9-1.7c0-0.6,0.2-1.1,0.5-1.5
		s0.9-0.7,1.5-0.8c-0.3-0.1-0.5-0.3-0.6-0.5s-0.2-0.4-0.2-0.7c0-0.6,0.4-1.1,1.1-1.5c-0.5-0.2-0.9-0.5-1.2-1s-0.4-0.9-0.4-1.5
		c0-0.8,0.3-1.5,0.8-2s1.3-0.8,2.2-0.8c0.6,0,1,0.1,1.3,0.2L488.5,696L488.5,696z M481.6,705.9c0,1.2,0.9,1.8,2.6,1.8
		c2.2,0,3.3-0.7,3.3-2.1c0-0.5-0.2-0.9-0.5-1.1s-0.9-0.3-1.7-0.3H484C482.4,704.1,481.6,704.7,481.6,705.9L481.6,705.9z
		 M482.3,698.6c0,0.7,0.2,1.2,0.6,1.5s0.9,0.5,1.6,0.5c0.7,0,1.3-0.2,1.6-0.5s0.6-0.9,0.6-1.6c0-0.7-0.2-1.3-0.6-1.6
		s-0.9-0.5-1.6-0.5c-0.7,0-1.2,0.2-1.6,0.6S482.3,697.9,482.3,698.6L482.3,698.6z M494.5,704.6c-1.2,0-2.2-0.4-2.9-1.1s-1-1.8-1-3.2
		c0-1.4,0.3-2.4,1-3.3s1.6-1.2,2.7-1.2c1,0,1.8,0.3,2.4,1s0.9,1.6,0.9,2.8v0.6h-6.1c0,1.2,0.3,2.1,0.8,2.7s1.3,0.9,2.3,0.9
		c0.5,0,0.9,0,1.3-0.1s0.8-0.2,1.4-0.4v0.7c-0.5,0.2-0.9,0.3-1.3,0.4S495,704.6,494.5,704.6L494.5,704.6z M494.3,696.5
		c-0.8,0-1.5,0.3-2,0.8s-0.8,1.3-0.9,2.3h5.2c0-1-0.2-1.8-0.6-2.3S495,696.5,494.3,696.5L494.3,696.5z M502.9,703.9
		c0.5,0,0.9,0,1.3-0.1v0.6c-0.4,0.1-0.8,0.2-1.3,0.2c-0.8,0-1.3-0.2-1.7-0.6s-0.5-1-0.5-1.9v-5.5h-1.3v-0.5l1.3-0.4l0.4-1.9h0.4v2.1
		h2.5v0.7h-2.5v5.4c0,0.7,0.1,1.1,0.3,1.4S502.4,703.9,502.9,703.9z M512.7,704.5v-5.5c0-0.9-0.2-1.5-0.5-1.9
		c-0.4-0.4-0.9-0.6-1.7-0.6c-1,0-1.8,0.3-2.2,0.8s-0.7,1.3-0.7,2.5v4.7h-0.8v-12.2h0.8v3.9l0,1.1h0.1c0.3-0.5,0.7-0.9,1.2-1.1
		s1.1-0.3,1.8-0.3c1.9,0,2.9,1,2.9,3.1v5.6L512.7,704.5L512.7,704.5z M520.5,704.6c-1.2,0-2.2-0.4-2.9-1.1c-0.7-0.8-1-1.8-1-3.2
		c0-1.4,0.3-2.4,1-3.3s1.6-1.2,2.7-1.2c1,0,1.8,0.3,2.4,1s0.9,1.6,0.9,2.8v0.6h-6.1c0,1.2,0.3,2.1,0.8,2.7s1.3,0.9,2.3,0.9
		c0.5,0,0.9,0,1.3-0.1c0.4-0.1,0.8-0.2,1.4-0.4v0.7c-0.5,0.2-0.9,0.3-1.3,0.4S521,704.6,520.5,704.6L520.5,704.6z M520.2,696.5
		c-0.8,0-1.5,0.3-2,0.8c-0.5,0.5-0.8,1.3-0.9,2.3h5.2c0-1-0.2-1.8-0.6-2.3S521,696.5,520.2,696.5L520.2,696.5z M530,695.8
		c0.4,0,0.7,0,1.2,0.1l-0.1,0.7c-0.4-0.1-0.7-0.1-1.1-0.1c-0.7,0-1.3,0.3-1.8,0.9s-0.7,1.4-0.7,2.3v4.7h-0.8V696h0.7l0.1,1.5h0.1
		c0.4-0.6,0.7-1.1,1.1-1.3S529.4,695.8,530,695.8L530,695.8z M545.4,704.5l-1.9-5.7c-0.1-0.4-0.3-1-0.5-1.7h0l-0.2,0.6l-0.4,1.1
		l-1.9,5.7h-0.8l-2.4-8.5h0.8l1.4,4.9c0.3,1.2,0.5,2.1,0.6,2.7h0c0.3-1.2,0.5-2,0.7-2.4l1.8-5.2h0.7l1.7,5.2c0.4,1.2,0.6,2,0.7,2.4
		h0c0-0.3,0.2-1.2,0.6-2.7l1.3-4.9h0.8l-2.3,8.5L545.4,704.5L545.4,704.5z M550.9,693.6c0-0.5,0.2-0.8,0.5-0.8
		c0.2,0,0.3,0.1,0.4,0.2s0.1,0.3,0.1,0.6c0,0.2,0,0.4-0.1,0.6s-0.2,0.2-0.4,0.2C551,694.4,550.9,694.1,550.9,693.6L550.9,693.6z
		 M551.8,704.5H551V696h0.8V704.5z M557.6,703.9c0.5,0,0.9,0,1.3-0.1v0.6c-0.4,0.1-0.8,0.2-1.3,0.2c-0.8,0-1.3-0.2-1.7-0.6
		c-0.4-0.4-0.5-1-0.5-1.9v-5.5h-1.3v-0.5l1.3-0.4l0.4-1.9h0.4v2.1h2.5v0.7h-2.5v5.4c0,0.7,0.1,1.1,0.3,1.4S557.1,703.9,557.6,703.9z
		 M567.5,704.5v-5.5c0-0.9-0.2-1.5-0.5-1.9s-0.9-0.6-1.7-0.6c-1,0-1.8,0.3-2.2,0.8s-0.7,1.3-0.7,2.5v4.7h-0.8v-12.2h0.8v3.9l0,1.1
		h0.1c0.3-0.5,0.7-0.9,1.2-1.1s1.1-0.3,1.8-0.3c1.9,0,2.9,1,2.9,3.1v5.6L567.5,704.5L567.5,704.5z M582,702.2c0,0.8-0.3,1.3-0.9,1.8
		c-0.6,0.4-1.4,0.6-2.5,0.6c-1.1,0-2-0.2-2.7-0.5v-0.8c0.9,0.4,1.8,0.6,2.7,0.6c0.8,0,1.5-0.1,1.9-0.4c0.4-0.3,0.7-0.7,0.7-1.1
		c0-0.4-0.2-0.8-0.5-1.1c-0.3-0.3-0.9-0.6-1.7-0.9c-0.8-0.3-1.4-0.6-1.8-0.8s-0.6-0.5-0.8-0.8s-0.3-0.6-0.3-1c0-0.6,0.3-1.1,0.8-1.5
		c0.5-0.4,1.3-0.6,2.2-0.6c0.9,0,1.8,0.2,2.6,0.5l-0.3,0.7c-0.8-0.3-1.6-0.5-2.3-0.5c-0.7,0-1.2,0.1-1.6,0.3s-0.6,0.5-0.6,1
		c0,0.4,0.2,0.8,0.5,1.1c0.3,0.3,0.9,0.6,1.8,0.9c0.8,0.3,1.3,0.5,1.7,0.7s0.6,0.5,0.8,0.8C581.9,701.5,582,701.9,582,702.2
		L582,702.2z M590.9,704.5v-5.5c0-0.9-0.2-1.5-0.5-1.9c-0.4-0.4-0.9-0.6-1.7-0.6c-1,0-1.8,0.3-2.2,0.8c-0.5,0.5-0.7,1.3-0.7,2.5v4.7
		H585v-12.2h0.8v3.9l0,1.1h0.1c0.3-0.5,0.7-0.9,1.2-1.1s1.1-0.3,1.8-0.3c1.9,0,2.9,1,2.9,3.1v5.6L590.9,704.5L590.9,704.5z
		 M600.4,704.5l-0.2-1.3h-0.1c-0.4,0.5-0.9,0.9-1.3,1.2s-1,0.3-1.6,0.3c-0.8,0-1.5-0.2-1.9-0.6s-0.7-1-0.7-1.8c0-0.8,0.3-1.5,1-1.9
		c0.7-0.5,1.7-0.7,3-0.7l1.6,0v-0.6c0-0.8-0.2-1.4-0.5-1.8s-0.9-0.6-1.6-0.6c-0.8,0-1.6,0.2-2.4,0.7l-0.3-0.7
		c0.9-0.4,1.9-0.7,2.8-0.7c0.9,0,1.6,0.2,2.1,0.7s0.7,1.2,0.7,2.3v5.6L600.4,704.5L600.4,704.5z M597.3,703.9c0.9,0,1.6-0.3,2.1-0.8
		s0.8-1.2,0.8-2.2v-0.8l-1.5,0.1c-1.2,0.1-2,0.2-2.5,0.6c-0.5,0.3-0.8,0.8-0.8,1.5c0,0.5,0.2,0.9,0.5,1.2S596.7,703.9,597.3,703.9
		L597.3,703.9z M607.9,695.8c0.4,0,0.7,0,1.2,0.1l-0.1,0.7c-0.4-0.1-0.7-0.1-1.1-0.1c-0.7,0-1.3,0.3-1.8,0.9s-0.7,1.4-0.7,2.3v4.7
		h-0.8V696h0.7l0.1,1.5h0.1c0.3-0.6,0.7-1.1,1.1-1.3S607.3,695.8,607.9,695.8L607.9,695.8z M615,704.6c-1.2,0-2.2-0.4-2.9-1.1
		s-1-1.8-1-3.2c0-1.4,0.3-2.4,1-3.3s1.6-1.2,2.7-1.2c1,0,1.8,0.3,2.4,1c0.6,0.7,0.9,1.6,0.9,2.8v0.6h-6.1c0,1.2,0.3,2.1,0.8,2.7
		s1.3,0.9,2.3,0.9c0.5,0,0.9,0,1.3-0.1c0.4-0.1,0.8-0.2,1.4-0.4v0.7c-0.5,0.2-0.9,0.3-1.3,0.4S615.5,704.6,615,704.6L615,704.6z
		 M614.7,696.5c-0.8,0-1.5,0.3-2,0.8s-0.8,1.3-0.9,2.3h5.2c0-1-0.2-1.8-0.6-2.3S615.5,696.5,614.7,696.5L614.7,696.5z M624.2,695.8
		c0.6,0,1.1,0.1,1.6,0.3s0.9,0.6,1.2,1.1h0c0-0.7,0-1.3,0-1.9v-3.1h0.8v12.2h-0.5l-0.2-1.3H627c-0.6,1-1.6,1.5-2.8,1.5
		c-1.2,0-2.1-0.4-2.7-1.1s-0.9-1.8-0.9-3.2c0-1.5,0.3-2.6,0.9-3.4C622.2,696.2,623.1,695.8,624.2,695.8L624.2,695.8z M624.2,696.5
		c-0.9,0-1.6,0.3-2.1,1s-0.7,1.6-0.7,2.8c0,2.4,0.9,3.6,2.8,3.6c1,0,1.7-0.3,2.1-0.8c0.5-0.6,0.7-1.5,0.7-2.8v-0.1
		c0-1.3-0.2-2.3-0.7-2.8C625.9,696.8,625.2,696.5,624.2,696.5L624.2,696.5z M638.3,704.5L635,696h0.8l2.2,5.8
		c0.3,0.7,0.5,1.4,0.7,1.9h0c0.2-0.7,0.4-1.4,0.7-2l2.2-5.8h0.8l-3.3,8.5H638.3L638.3,704.5z M644.4,693.6c0-0.5,0.2-0.8,0.5-0.8
		c0.2,0,0.3,0.1,0.4,0.2c0.1,0.1,0.1,0.3,0.1,0.6c0,0.2,0,0.4-0.1,0.6s-0.2,0.2-0.4,0.2C644.6,694.4,644.4,694.1,644.4,693.6
		L644.4,693.6z M645.3,704.5h-0.8V696h0.8V704.5z M654.2,702.2c0,0.8-0.3,1.3-0.9,1.8s-1.4,0.6-2.5,0.6c-1.1,0-2-0.2-2.7-0.5v-0.8
		c0.9,0.4,1.8,0.6,2.7,0.6c0.8,0,1.5-0.1,1.9-0.4s0.7-0.7,0.7-1.1c0-0.4-0.2-0.8-0.5-1.1s-0.9-0.6-1.7-0.9c-0.9-0.3-1.4-0.6-1.8-0.8
		c-0.3-0.2-0.6-0.5-0.8-0.8c-0.2-0.3-0.3-0.6-0.3-1c0-0.6,0.3-1.1,0.8-1.5c0.5-0.4,1.3-0.6,2.2-0.6c0.9,0,1.8,0.2,2.6,0.5l-0.3,0.7
		c-0.8-0.3-1.6-0.5-2.3-0.5c-0.7,0-1.2,0.1-1.6,0.3c-0.4,0.2-0.6,0.5-0.6,1c0,0.4,0.2,0.8,0.5,1.1c0.3,0.3,0.9,0.6,1.8,0.9
		c0.8,0.3,1.3,0.5,1.7,0.7s0.6,0.5,0.8,0.8S654.2,701.9,654.2,702.2L654.2,702.2z M657.1,693.6c0-0.5,0.2-0.8,0.5-0.8
		c0.2,0,0.3,0.1,0.4,0.2s0.1,0.3,0.1,0.6c0,0.2,0,0.4-0.1,0.6s-0.2,0.2-0.4,0.2C657.3,694.4,657.1,694.1,657.1,693.6L657.1,693.6z
		 M658,704.5h-0.8V696h0.8V704.5z M668.7,700.2c0,1.4-0.3,2.5-1,3.2s-1.6,1.2-2.8,1.2c-0.7,0-1.4-0.2-2-0.5s-1-0.9-1.3-1.5
		s-0.5-1.4-0.5-2.3c0-1.4,0.3-2.5,1-3.2s1.6-1.2,2.8-1.2c1.2,0,2.1,0.4,2.7,1.2S668.7,698.8,668.7,700.2L668.7,700.2z M662,700.2
		c0,1.2,0.3,2.1,0.8,2.7s1.2,1,2.2,1s1.7-0.3,2.2-1s0.8-1.6,0.8-2.7c0-1.2-0.3-2.1-0.8-2.7s-1.2-1-2.2-1s-1.7,0.3-2.2,1
		S662,699,662,700.2L662,700.2z M677.7,704.5v-5.5c0-0.9-0.2-1.5-0.5-1.9s-0.9-0.6-1.7-0.6c-1,0-1.8,0.3-2.2,0.8s-0.7,1.3-0.7,2.5
		v4.7h-0.8V696h0.7l0.1,1.2h0c0.5-0.9,1.5-1.3,2.9-1.3c1.9,0,2.9,1,2.9,3.1v5.6L677.7,704.5L677.7,704.5z M692.2,704.5l-0.2-1.3
		h-0.1c-0.4,0.5-0.9,0.9-1.3,1.2s-1,0.3-1.6,0.3c-0.8,0-1.5-0.2-1.9-0.6s-0.7-1-0.7-1.8c0-0.8,0.3-1.5,1-1.9s1.7-0.7,3-0.7l1.6,0
		v-0.6c0-0.8-0.2-1.4-0.5-1.8s-0.9-0.6-1.6-0.6c-0.8,0-1.6,0.2-2.4,0.7l-0.3-0.7c0.9-0.4,1.9-0.7,2.8-0.7c0.9,0,1.6,0.2,2.1,0.7
		s0.7,1.2,0.7,2.3v5.6L692.2,704.5L692.2,704.5z M689,703.9c0.9,0,1.6-0.3,2.1-0.8s0.8-1.2,0.8-2.2v-0.8l-1.5,0.1
		c-1.2,0.1-2,0.2-2.5,0.6s-0.8,0.8-0.8,1.5c0,0.5,0.2,0.9,0.5,1.2S688.4,703.9,689,703.9L689,703.9z M702.2,704.5v-5.5
		c0-0.9-0.2-1.5-0.5-1.9s-0.9-0.6-1.7-0.6c-1,0-1.8,0.3-2.2,0.8s-0.7,1.3-0.7,2.5v4.7h-0.8V696h0.7l0.1,1.2h0
		c0.5-0.9,1.5-1.3,2.9-1.3c1.9,0,2.9,1,2.9,3.1v5.6L702.2,704.5L702.2,704.5z M709.6,695.8c0.6,0,1.1,0.1,1.6,0.3s0.8,0.6,1.2,1.1h0
		c0-0.7,0-1.3,0-1.9v-3.1h0.8v12.2h-0.5l-0.2-1.3h-0.1c-0.6,1-1.6,1.5-2.8,1.5c-1.2,0-2.1-0.4-2.7-1.1s-0.9-1.8-0.9-3.2
		c0-1.5,0.3-2.6,0.9-3.4S708.5,695.8,709.6,695.8L709.6,695.8z M709.6,696.5c-0.9,0-1.6,0.3-2.1,1s-0.7,1.6-0.7,2.8
		c0,2.4,0.9,3.6,2.8,3.6c1,0,1.7-0.3,2.1-0.8s0.7-1.5,0.7-2.8v-0.1c0-1.3-0.2-2.3-0.7-2.8S710.6,696.5,709.6,696.5L709.6,696.5z
		 M723.7,704.5l-3.3-8.5h0.8l2.2,5.8c0.3,0.7,0.5,1.4,0.7,1.9h0c0.2-0.7,0.4-1.4,0.7-2l2.2-5.8h0.8l-3.3,8.5H723.7z M735.1,704.5
		l-0.2-1.3h-0.1c-0.4,0.5-0.9,0.9-1.3,1.2s-1,0.3-1.6,0.3c-0.8,0-1.5-0.2-1.9-0.6s-0.7-1-0.7-1.8c0-0.8,0.3-1.5,1-1.9s1.7-0.7,3-0.7
		l1.6,0v-0.6c0-0.8-0.2-1.4-0.5-1.8s-0.9-0.6-1.6-0.6c-0.8,0-1.6,0.2-2.4,0.7l-0.3-0.7c0.9-0.4,1.9-0.7,2.8-0.7
		c0.9,0,1.6,0.2,2.1,0.7s0.7,1.2,0.7,2.3v5.6L735.1,704.5L735.1,704.5z M732,703.9c0.9,0,1.6-0.3,2.1-0.8s0.8-1.2,0.8-2.2v-0.8
		l-1.5,0.1c-1.2,0.1-2,0.2-2.5,0.6s-0.8,0.8-0.8,1.5c0,0.5,0.2,0.9,0.5,1.2S731.4,703.9,732,703.9L732,703.9z M740,704.5h-0.8v-12.2
		h0.8V704.5z M744.3,696v5.5c0,0.9,0.2,1.5,0.5,1.9s0.9,0.6,1.7,0.6c1,0,1.8-0.3,2.2-0.8s0.7-1.3,0.7-2.5V696h0.8v8.5h-0.7l-0.1-1.2
		h0c-0.6,0.9-1.5,1.3-2.9,1.3c-1.9,0-2.9-1-2.9-3.1V696L744.3,696L744.3,696z M757.3,704.6c-1.2,0-2.2-0.4-2.9-1.1s-1-1.8-1-3.2
		c0-1.4,0.3-2.4,1-3.3s1.6-1.2,2.7-1.2c1,0,1.8,0.3,2.4,1s0.9,1.6,0.9,2.8v0.6h-6.1c0,1.2,0.3,2.1,0.8,2.7s1.3,0.9,2.3,0.9
		c0.5,0,0.9,0,1.3-0.1s0.8-0.2,1.4-0.4v0.7c-0.5,0.2-0.9,0.3-1.3,0.4S757.8,704.6,757.3,704.6L757.3,704.6z M757.1,696.5
		c-0.8,0-1.5,0.3-2,0.8s-0.8,1.3-0.9,2.3h5.2c0-1-0.2-1.8-0.6-2.3S757.8,696.5,757.1,696.5L757.1,696.5z M768.7,702.2
		c0,0.8-0.3,1.3-0.9,1.8s-1.4,0.6-2.5,0.6c-1.1,0-2-0.2-2.7-0.5v-0.8c0.9,0.4,1.8,0.6,2.7,0.6c0.8,0,1.5-0.1,1.9-0.4
		s0.7-0.7,0.7-1.1c0-0.4-0.2-0.8-0.5-1.1s-0.9-0.6-1.7-0.9c-0.8-0.3-1.4-0.6-1.8-0.8s-0.6-0.5-0.8-0.8s-0.3-0.6-0.3-1
		c0-0.6,0.3-1.1,0.8-1.5s1.3-0.6,2.2-0.6c0.9,0,1.8,0.2,2.6,0.5l-0.3,0.7c-0.8-0.3-1.6-0.5-2.3-0.5c-0.7,0-1.2,0.1-1.6,0.3
		s-0.6,0.5-0.6,1c0,0.4,0.2,0.8,0.5,1.1s0.9,0.6,1.8,0.9c0.8,0.3,1.3,0.5,1.7,0.7s0.6,0.5,0.8,0.8S768.7,701.9,768.7,702.2
		L768.7,702.2z"/>
	<path class="st0" d="M569,734h29"/>
	<g class="st1">
		<path class="st2" d="M762.9,329l-0.2,4.3l-38.8,13.4l0.2-4.3L762.9,329z M371.2,393.9l0.2-4.3c0.4-7.4,2-14.9,5-22.2
			c11.9-29,43.2-53,88.2-67.6c9.7-3.1,19.9-5.7,30.4-7.8c84.3-16.3,180.5,4.7,229.1,50.3l-0.2,4.3c-48.6-45.6-144.8-66.6-229.1-50.3
			c-10.5,2-20.8,4.7-30.4,7.8c-45,14.5-76.4,38.5-88.2,67.6C373.2,379.1,371.5,386.5,371.2,393.9L371.2,393.9z"/>
		<path class="st3" d="M388.8,443.9c-12.5-16-18.4-33-17.6-49.9l0.2-4.3c-0.7,14.7,3.7,29.4,12.9,43.4l0,1.1l0-1.1
			c4.6,7,10.5,13.9,17.5,20.5c54.1,50.7,161.9,74.2,256.3,55.9c11.8-2.3,23.2-5.2,34-8.7c65.6-21.2,102.4-59.6,104.3-100.5l-0.2,4.3
			c-1.9,40.9-38.7,79.3-104.3,100.5c-10.8,3.5-22.3,6.4-34,8.7c-94.4,18.3-202.2-5.2-256.3-55.9
			C396.7,453.3,392.5,448.6,388.8,443.9c-0.2-0.4-0.4-0.9-0.7-1.3C388.3,443,388.6,443.5,388.8,443.9L388.8,443.9z M388.2,442.6
			L388.2,442.6L388.2,442.6l-0.1-0.1l0,0l0,0l0,0l0,0l0,0l0,0l0,0l0,0l0,0l0,0l0,0l0,0l0,0l0,0l0,0l0,0l0,0l0,0l0,0l0,0l0,0l0,0l0,0
			l0,0l0,0l0,0L388.2,442.6L388.2,442.6L388.2,442.6 M387.8,441.7L387.8,441.7L387.8,441.7L387.8,441.7L387.8,441.7L387.8,441.7
			l0,0.1l0,0l0,0l0,0l0,0l0,0v0l0,0l0,0v0v0l0,0l0,0l0,0l0,0l0,0l0,0l0,0L387.8,441.7L387.8,441.7L387.8,441.7L387.8,441.7
			L387.8,441.7L387.8,441.7 M387.8,441.7l-0.1-0.2l-0.1-0.2l-0.1-0.2l-0.1-0.2l-0.1-0.2l-0.1-0.2L387,440l-0.1-0.3l-0.1-0.3
			l-0.1-0.3l-0.1-0.3l-0.1-0.2l-0.1-0.2l-0.1-0.2l-0.1-0.2l-0.1-0.2l0.1,0.2l0.1,0.2l0.1,0.2l0.1,0.2l0.1,0.2l0.1,0.3l0.1,0.3
			l0.1,0.3l0.1,0.3l0.1,0.2l0.1,0.2l0.1,0.2l0.1,0.2l0.1,0.2l0.1,0.2L387.8,441.7 M386,437.8l-0.1-0.2l-0.1-0.2l-0.1-0.2l-0.1-0.2
			l-0.1-0.2l-0.1-0.2l-0.1-0.2l-0.1-0.2l-0.1-0.2l-0.1-0.3l-0.1-0.3l-0.1-0.3l-0.1-0.3l-0.1-0.3l-0.1-0.3l-0.1-0.3l0.1,0.3l0.1,0.3
			l0.1,0.3l0.1,0.3l0.1,0.3l0.1,0.3l0.1,0.3l0.1,0.2l0.1,0.2l0.1,0.2l0.1,0.2l0.1,0.2l0.1,0.2l0.1,0.2l0.1,0.2L386,437.8"/>
		<path class="st2" d="M797.7,400.4l-0.2,4.3c-2,41.1-39,79.7-104.8,101c-10.9,3.5-22.4,6.5-34.3,8.8c-95,18.4-203.5-5.3-257.9-56.3
			c-21.3-19.9-31.7-42.1-30.6-64.3l0.2-4.3c-1.1,22.1,9.4,44.4,30.6,64.3c54.4,51,162.9,74.7,257.9,56.3c11.8-2.3,23.4-5.2,34.3-8.8
			C758.7,480.1,795.7,441.5,797.7,400.4L797.7,400.4z M763.3,328c66.1,61.9,34.3,139.5-70.4,173.4c-10.9,3.5-22.4,6.5-34.3,8.8
			c-95,18.4-203.5-5.3-257.9-56.3c-28.4-26.6-37.5-57.4-25.6-86.6c11.9-29.2,43.5-53.4,88.8-68c9.7-3.1,20-5.8,30.6-7.8
			c84.7-16.4,181.3,4.6,230,49.9L763.3,328L763.3,328z M692.2,500.7c103.9-33.6,135.6-110.5,70.7-171.7l-38.8,13.4
			c-48.6-45.6-144.8-66.6-229.1-50.3c-10.5,2-20.8,4.7-30.4,7.8c-45,14.5-76.4,38.5-88.2,67.6c-11.9,29-2.9,59.6,25.4,86
			c54.1,50.7,161.9,74.2,256.3,55.9C669.9,507.2,681.3,504.2,692.2,500.7"/>
		<path class="st2" d="M796.5,400.3l-0.2,4.3c1.2-23.9-9.6-48.7-33.6-71.3l0.2-4.3C786.8,351.6,797.6,376.4,796.5,400.3L796.5,400.3
			z"/>
		<path class="st4" d="M495,292.1c84.3-16.3,180.5,4.7,228.8,49.9l39.1-13c64.9,61.2,33.2,138.1-70.7,171.7
			c-10.8,3.5-22.3,6.4-34,8.7c-94.4,18.3-202.2-5.2-256.3-55.9c-28.3-26.5-37.3-57-25.4-86c11.9-29,43.2-53,88.2-67.6
			C474.3,296.8,484.5,294.2,495,292.1L495,292.1z"/>
	</g>
	<ellipse class="st5" cx="544.7" cy="364.7" rx="11.9" ry="4"/>
	<g>
		<path class="st6" d="M537.7,327.4c4.9,3.5,8.4,3.5,14.1,0c2.2,2.8,2.9,5.9,3.5,9.3c0.2,1.3,0.6,4.4,0.5,5.7
			c-0.2,3.1-0.8,3.2-1.6,3.8c-0.4,0.2-0.5,0.8-0.6,1.3c-0.5,3.7-1.3,7.5-1.5,11.2c-0.3,5.7-6.5,7.6-10.4,6c-2.6-1.1-4.2-2.9-4.5-5.8
			c-0.4-3.8-1-7.6-1.5-11.4c-0.1-0.6-0.1-1.4-0.9-1.6c0,0-1.6-0.6-1.6-3.4c-0.1-4.9,0.7-9.7,3.4-14
			C536.9,328.3,537.6,327.6,537.7,327.4L537.7,327.4z M553,319.8c-0.1,4.5-3.9,8.2-8.4,8.2c-4.6,0-8.2-3.9-8.2-8.5
			c0-4.5,3.8-8.2,8.4-8.1C549.5,311.4,553.1,315.2,553,319.8L553,319.8z"/>
	</g>
	<ellipse class="st5" cx="647.5" cy="542.3" rx="11.9" ry="4"/>
	<g>
		<path class="st7" d="M640.5,505c4.9,3.5,8.4,3.5,14.1,0c2.2,2.8,2.9,5.9,3.5,9.3c0.2,1.3,0.6,4.4,0.5,5.7
			c-0.2,3.1-0.8,3.2-1.6,3.8c-0.4,0.2-0.5,0.8-0.6,1.3c-0.5,3.7-1.3,7.5-1.5,11.2c-0.3,5.7-6.5,7.6-10.4,6c-2.6-1.1-4.2-2.9-4.5-5.8
			c-0.4-3.8-1-7.6-1.5-11.4c-0.1-0.6-0.1-1.4-0.9-1.6c0,0-1.6-0.6-1.6-3.4c-0.1-4.9,0.7-9.7,3.4-14
			C639.7,505.9,640.3,505.2,640.5,505L640.5,505z M655.8,497.4c-0.1,4.5-3.9,8.2-8.4,8.2c-4.6,0-8.2-3.9-8.2-8.5
			c0.1-4.5,3.8-8.2,8.4-8.1C652.2,489,655.9,492.8,655.8,497.4L655.8,497.4z"/>
	</g>
	<ellipse class="st5" cx="523.4" cy="421.3" rx="11.9" ry="4"/>
	<g>
		<path class="st8" d="M516.5,384c4.9,3.5,8.4,3.5,14.1,0c2.2,2.8,2.9,5.9,3.5,9.3c0.2,1.3,0.6,4.4,0.5,5.7
			c-0.2,3.1-0.8,3.2-1.6,3.8c-0.4,0.2-0.5,0.8-0.6,1.3c-0.5,3.7-1.3,7.5-1.5,11.2c-0.3,5.7-6.5,7.6-10.4,6c-2.6-1.1-4.2-2.9-4.5-5.8
			c-0.4-3.8-1-7.6-1.5-11.4c-0.1-0.6-0.1-1.4-0.9-1.6c0,0-1.6-0.6-1.6-3.4c-0.1-4.9,0.7-9.7,3.4-14
			C515.7,384.9,516.3,384.2,516.5,384L516.5,384z M531.8,376.4c-0.1,4.5-3.9,8.2-8.4,8.2c-4.6,0-8.2-3.9-8.2-8.5
			c0-4.5,3.8-8.2,8.4-8.1C528.2,368,531.8,371.8,531.8,376.4L531.8,376.4z"/>
	</g>
	<ellipse class="st5" cx="339.4" cy="383.3" rx="11.9" ry="4"/>
	<g>
		<path class="st8" d="M332.5,346c4.9,3.5,8.4,3.5,14.1,0c2.2,2.8,2.9,5.9,3.5,9.3c0.2,1.3,0.6,4.4,0.5,5.7
			c-0.1,3.1-0.8,3.2-1.6,3.8c-0.4,0.2-0.5,0.8-0.6,1.3c-0.5,3.7-1.3,7.5-1.5,11.2c-0.3,5.7-6.5,7.6-10.4,6c-2.6-1.1-4.2-2.9-4.5-5.8
			c-0.4-3.8-1-7.6-1.5-11.4c-0.1-0.6-0.1-1.4-0.9-1.6c0,0-1.6-0.6-1.6-3.4c-0.1-4.9,0.7-9.7,3.4-14
			C331.7,346.9,332.3,346.2,332.5,346L332.5,346z M347.8,338.4c-0.1,4.5-3.9,8.2-8.4,8.2c-4.6,0-8.2-3.9-8.2-8.5
			c0-4.5,3.8-8.2,8.4-8.1C344.2,330,347.8,333.8,347.8,338.4L347.8,338.4z"/>
	</g>
	<ellipse class="st5" cx="381.3" cy="507.1" rx="13.1" ry="4.4"/>
	<g>
		<path class="st6" d="M373.6,466c5.4,3.9,9.3,3.9,15.6,0c2.4,3.1,3.2,6.5,3.9,10.3c0.2,1.4,0.6,4.8,0.6,6.3
			c-0.2,3.5-0.9,3.6-1.8,4.2c-0.4,0.3-0.6,0.9-0.6,1.4c-0.6,4.1-1.4,8.2-1.6,12.4c-0.3,6.3-7.2,8.4-11.4,6.6c-2.9-1.2-4.6-3.2-5-6.4
			c-0.4-4.2-1.1-8.4-1.7-12.5c-0.1-0.6-0.1-1.5-0.9-1.8c0,0-1.7-0.7-1.7-3.7c-0.1-5.4,0.8-10.7,3.7-15.4
			C372.8,467,373.4,466.2,373.6,466L373.6,466z M390.5,457.7c-0.1,5-4.3,9-9.2,9c-5,0-9.1-4.3-9-9.4c0.1-5,4.2-9,9.2-8.9
			C386.5,448.4,390.6,452.6,390.5,457.7L390.5,457.7z"/>
	</g>
	<ellipse class="st5" cx="572" cy="460.9" rx="13.1" ry="4.4"/>
	<g>
		<path class="st9" d="M564.4,419.8c5.4,3.9,9.3,3.9,15.6,0c2.4,3.1,3.2,6.5,3.8,10.3c0.2,1.4,0.6,4.8,0.6,6.3
			c-0.2,3.5-0.9,3.6-1.8,4.2c-0.4,0.3-0.6,0.9-0.6,1.4c-0.6,4.1-1.4,8.2-1.6,12.4c-0.3,6.3-7.2,8.4-11.4,6.6c-2.9-1.2-4.6-3.2-5-6.4
			c-0.4-4.2-1.1-8.4-1.7-12.5c-0.1-0.6-0.1-1.5-0.9-1.8c0,0-1.7-0.7-1.7-3.7c-0.1-5.4,0.8-10.7,3.7-15.4
			C563.5,420.8,564.2,420,564.4,419.8L564.4,419.8z M581.2,411.5c-0.1,5-4.3,9-9.2,9c-5,0-9.1-4.3-9-9.4c0.1-5,4.2-9,9.2-8.9
			C577.3,402.2,581.3,406.3,581.2,411.5L581.2,411.5z"/>
	</g>
	<ellipse class="st5" cx="635.9" cy="460.9" rx="13.1" ry="4.4"/>
	<g>
		<path class="st10" d="M628.2,419.8c5.4,3.9,9.3,3.9,15.6,0c2.4,3.1,3.2,6.5,3.9,10.3c0.2,1.4,0.6,4.8,0.6,6.3
			c-0.2,3.5-0.9,3.6-1.8,4.2c-0.4,0.3-0.6,0.9-0.6,1.4c-0.6,4.1-1.4,8.2-1.6,12.4c-0.3,6.3-7.2,8.4-11.4,6.6c-2.9-1.2-4.6-3.2-5-6.4
			c-0.4-4.2-1.1-8.4-1.7-12.5c-0.1-0.6-0.1-1.5-0.9-1.8c0,0-1.7-0.7-1.7-3.7c-0.1-5.4,0.8-10.7,3.7-15.4
			C627.3,420.8,628,420,628.2,419.8L628.2,419.8z M645.1,411.5c-0.1,5-4.3,9-9.2,9c-5,0-9.1-4.3-9-9.4c0.1-5,4.2-9,9.2-8.9
			C641.1,402.2,645.1,406.3,645.1,411.5L645.1,411.5z"/>
	</g>
	<ellipse class="st5" cx="782.4" cy="513.9" rx="13.1" ry="4.4"/>
	<g>
		<path class="st9" d="M774.7,472.8c5.4,3.9,9.3,3.9,15.6,0c2.4,3.1,3.2,6.5,3.9,10.3c0.2,1.4,0.6,4.8,0.6,6.3
			c-0.2,3.5-0.9,3.6-1.8,4.2c-0.4,0.3-0.6,0.9-0.6,1.4c-0.6,4.1-1.4,8.2-1.6,12.4c-0.3,6.3-7.2,8.4-11.4,6.6c-2.9-1.2-4.6-3.2-5-6.4
			c-0.4-4.2-1.1-8.4-1.7-12.5c-0.1-0.6-0.1-1.5-0.9-1.8c0,0-1.7-0.7-1.7-3.7c-0.1-5.4,0.8-10.7,3.7-15.4
			C773.8,473.8,774.5,473,774.7,472.8L774.7,472.8z M791.6,464.5c-0.1,5-4.3,9-9.2,9c-5,0-9.1-4.3-9-9.4c0.1-5,4.2-9,9.2-8.9
			C787.6,455.2,791.6,459.3,791.6,464.5L791.6,464.5z"/>
	</g>
	<ellipse class="st5" cx="590.3" cy="563.9" rx="13.1" ry="4.4"/>
	<g>
		<path class="st11" d="M582.7,522.8c5.4,3.9,9.3,3.9,15.6,0c2.4,3.1,3.2,6.5,3.9,10.3c0.2,1.4,0.6,4.8,0.6,6.3
			c-0.2,3.5-0.9,3.6-1.8,4.2c-0.4,0.3-0.6,0.9-0.6,1.4c-0.6,4.1-1.4,8.2-1.6,12.4c-0.3,6.3-7.2,8.4-11.4,6.6c-2.9-1.2-4.6-3.2-5-6.4
			c-0.4-4.2-1.1-8.4-1.7-12.5c-0.1-0.6-0.1-1.5-0.9-1.8c0,0-1.7-0.7-1.7-3.7c-0.1-5.4,0.8-10.7,3.7-15.4
			C581.8,523.8,582.5,523,582.7,522.8L582.7,522.8z M599.5,514.5c-0.1,5-4.3,9-9.2,9c-5,0-9.1-4.3-9-9.4c0.1-5,4.2-9,9.2-8.9
			C595.6,505.2,599.6,509.3,599.5,514.5L599.5,514.5z"/>
	</g>
	<ellipse class="st5" cx="431.4" cy="276.1" rx="9.5" ry="3.2"/>
	<g>
		<path class="st10" d="M425.8,246.4c3.9,2.8,6.7,2.8,11.2,0c1.7,2.2,2.3,4.7,2.8,7.4c0.2,1,0.5,3.5,0.4,4.5c-0.1,2.5-0.6,2.6-1.3,3
			c-0.3,0.2-0.4,0.7-0.5,1c-0.4,3-1,6-1.2,8.9c-0.2,4.5-5.2,6-8.2,4.8c-2.1-0.9-3.3-2.3-3.6-4.6c-0.3-3-0.8-6.1-1.2-9.1
			c-0.1-0.5,0-1.1-0.7-1.3c0,0-1.2-0.5-1.2-2.7c-0.1-3.9,0.6-7.7,2.7-11.1C425.2,247.1,425.7,246.5,425.8,246.4L425.8,246.4z
			 M438,240.4c-0.1,3.6-3.1,6.5-6.7,6.5c-3.6,0-6.6-3.1-6.5-6.8c0-3.6,3-6.5,6.7-6.5C435.1,233.7,438,236.7,438,240.4L438,240.4z"/>
	</g>
	<ellipse class="st5" cx="623.6" cy="283.1" rx="9.5" ry="3.2"/>
	<g>
		<path class="st11" d="M618,253.4c3.9,2.8,6.7,2.8,11.2,0c1.7,2.2,2.3,4.7,2.8,7.4c0.2,1,0.5,3.5,0.4,4.5c-0.1,2.5-0.6,2.6-1.3,3
			c-0.3,0.2-0.4,0.7-0.5,1c-0.4,3-1,6-1.2,8.9c-0.2,4.5-5.2,6-8.2,4.8c-2.1-0.9-3.3-2.3-3.6-4.6c-0.3-3-0.8-6.1-1.2-9.1
			c-0.1-0.5,0-1.1-0.7-1.3c0,0-1.2-0.5-1.2-2.7c-0.1-3.9,0.6-7.7,2.7-11.1C617.4,254.1,617.9,253.5,618,253.4L618,253.4z
			 M630.2,247.4c-0.1,3.6-3.1,6.5-6.7,6.5c-3.6,0-6.6-3.1-6.5-6.8c0-3.6,3-6.5,6.7-6.5C627.4,240.7,630.3,243.7,630.2,247.4
			L630.2,247.4z"/>
	</g>
	<ellipse class="st5" cx="478.3" cy="306.1" rx="9.5" ry="3.2"/>
	<g>
		<path class="st6" d="M472.8,276.4c3.9,2.8,6.7,2.8,11.2,0c1.7,2.2,2.3,4.7,2.8,7.4c0.2,1,0.5,3.5,0.4,4.5c-0.1,2.5-0.6,2.6-1.3,3
			c-0.3,0.2-0.4,0.7-0.5,1c-0.4,3-1,6-1.2,8.9c-0.2,4.5-5.2,6-8.2,4.8c-2.1-0.9-3.3-2.3-3.6-4.6c-0.3-3-0.8-6-1.2-9.1
			c-0.1-0.5,0-1.1-0.7-1.3c0,0-1.2-0.5-1.2-2.7c-0.1-3.9,0.6-7.7,2.7-11.1C472.2,277.1,472.7,276.5,472.8,276.4L472.8,276.4z
			 M485,270.4c-0.1,3.6-3.1,6.5-6.7,6.5c-3.6,0-6.6-3.1-6.5-6.8c0-3.6,3-6.5,6.7-6.5C482.1,263.7,485,266.7,485,270.4L485,270.4z"/>
	</g>
	<ellipse class="st5" cx="377.3" cy="325.1" rx="9.5" ry="3.2"/>
	<g>
		<path class="st7" d="M371.8,295.4c3.9,2.8,6.7,2.8,11.2,0c1.7,2.2,2.3,4.7,2.8,7.4c0.2,1,0.5,3.5,0.4,4.5c-0.1,2.5-0.6,2.6-1.3,3
			c-0.3,0.2-0.4,0.7-0.5,1c-0.4,3-1,6-1.2,8.9c-0.2,4.5-5.2,6-8.2,4.8c-2.1-0.9-3.3-2.3-3.6-4.6c-0.3-3-0.8-6-1.2-9.1
			c-0.1-0.5,0-1.1-0.7-1.3c0,0-1.2-0.5-1.2-2.7c-0.1-3.9,0.6-7.7,2.7-11.1C371.2,296.1,371.7,295.5,371.8,295.4L371.8,295.4z
			 M384,289.4c-0.1,3.6-3.1,6.5-6.7,6.5c-3.6,0-6.6-3.1-6.5-6.8c0-3.6,3-6.5,6.7-6.5C381.1,282.7,384,285.7,384,289.4L384,289.4z"/>
	</g>
	<ellipse class="st5" cx="685.3" cy="292.1" rx="9.5" ry="3.2"/>
	<g>
		<path class="st9" d="M679.8,262.4c3.9,2.8,6.7,2.8,11.2,0c1.7,2.2,2.3,4.7,2.8,7.4c0.2,1,0.5,3.5,0.4,4.5c-0.1,2.5-0.6,2.6-1.3,3
			c-0.3,0.2-0.4,0.7-0.5,1c-0.4,3-1,6-1.2,8.9c-0.2,4.5-5.2,6-8.2,4.8c-2.1-0.9-3.3-2.3-3.6-4.6c-0.3-3-0.8-6-1.2-9.1
			c-0.1-0.4,0-1.1-0.7-1.3c0,0-1.2-0.5-1.2-2.7c-0.1-3.9,0.6-7.7,2.7-11.1C679.2,263.1,679.7,262.5,679.8,262.4L679.8,262.4z
			 M692,256.4c-0.1,3.6-3.1,6.5-6.7,6.5c-3.6,0-6.6-3.1-6.5-6.8c0-3.6,3-6.5,6.7-6.5C689.1,249.7,692,252.7,692,256.4L692,256.4z"/>
	</g>
	<ellipse class="st5" cx="809.7" cy="352.1" rx="9.5" ry="3.2"/>
	<g>
		<path class="st8" d="M804.2,322.4c3.9,2.8,6.7,2.8,11.2,0c1.7,2.2,2.3,4.7,2.8,7.4c0.2,1,0.5,3.5,0.4,4.5c-0.1,2.5-0.6,2.6-1.3,3
			c-0.3,0.2-0.4,0.7-0.5,1c-0.4,3-1,6-1.2,8.9c-0.2,4.5-5.2,6-8.2,4.8c-2.1-0.9-3.3-2.3-3.6-4.6c-0.3-3-0.8-6-1.2-9.1
			c-0.1-0.5,0-1.1-0.7-1.3c0,0-1.2-0.5-1.2-2.7c-0.1-3.9,0.6-7.7,2.7-11.1C803.5,323.1,804,322.5,804.2,322.4L804.2,322.4z
			 M816.3,316.4c-0.1,3.6-3.1,6.5-6.7,6.5c-3.6,0-6.6-3.1-6.5-6.8c0-3.6,3-6.5,6.7-6.5C813.5,309.7,816.4,312.7,816.3,316.4
			L816.3,316.4z"/>
	</g>
	<ellipse class="st12" cx="444.5" cy="367.9" rx="57" ry="34.8"/>
	
		<ellipse transform="matrix(0.123 -0.9924 0.9924 0.123 205.6614 904.8774)" class="st13" cx="614.8" cy="336.1" rx="34.1" ry="51.7"/>
	
		<ellipse transform="matrix(0.2161 -0.9764 0.9764 0.2161 -76.3333 836.9286)" class="st14" cx="483" cy="466" rx="25.5" ry="48.5"/>
	
		<ellipse transform="matrix(2.699016e-02 -0.9996 0.9996 2.699016e-02 181.3505 823.3664)" class="st15" cx="513.6" cy="318.5" rx="11.3" ry="20"/>
	
		<ellipse transform="matrix(2.699016e-02 -0.9996 0.9996 2.699016e-02 181.3505 823.3664)" class="st16" cx="513.6" cy="318.5" rx="11.3" ry="20"/>
	
		<ellipse transform="matrix(-0.5391 -0.8422 0.8422 -0.5391 760.694 1282.6145)" class="st17" cx="731.3" cy="433.2" rx="33.2" ry="60.9"/>
	<ellipse class="st5" cx="419.5" cy="388.3" rx="11.9" ry="4"/>
	<g>
		<path class="st18" d="M412.5,351c4.9,3.5,8.4,3.5,14.1,0c2.2,2.8,2.9,5.9,3.5,9.3c0.2,1.3,0.6,4.4,0.5,5.7
			c-0.1,3.1-0.8,3.2-1.6,3.8c-0.4,0.2-0.5,0.8-0.6,1.3c-0.5,3.7-1.3,7.5-1.5,11.2c-0.3,5.7-6.5,7.6-10.4,6c-2.6-1.1-4.2-2.9-4.5-5.8
			c-0.4-3.8-1-7.6-1.5-11.4c-0.1-0.6-0.1-1.4-0.9-1.6c0,0-1.6-0.6-1.6-3.4c-0.1-4.9,0.7-9.7,3.4-14
			C411.7,351.9,412.3,351.2,412.5,351L412.5,351z M427.8,343.4c-0.1,4.5-3.9,8.2-8.4,8.2c-4.6,0-8.2-3.9-8.2-8.5
			c0-4.5,3.8-8.2,8.4-8.1C424.2,335,427.9,338.8,427.8,343.4L427.8,343.4z"/>
	</g>
	<ellipse class="st5" cx="442.8" cy="345.1" rx="9.5" ry="3.2"/>
	<g>
		<path class="st18" d="M437.2,315.4c3.9,2.8,6.7,2.8,11.2,0c1.7,2.2,2.3,4.7,2.8,7.4c0.2,1,0.5,3.5,0.4,4.5c-0.1,2.5-0.6,2.6-1.3,3
			c-0.3,0.2-0.4,0.7-0.5,1c-0.4,3-1,6-1.2,8.9c-0.2,4.5-5.2,6-8.2,4.8c-2.1-0.9-3.3-2.3-3.6-4.6c-0.3-3-0.8-6-1.2-9.1
			c-0.1-0.5,0-1.1-0.7-1.3c0,0-1.2-0.5-1.2-2.7c-0.1-3.9,0.6-7.7,2.7-11.1C436.6,316.1,437.1,315.5,437.2,315.4L437.2,315.4z
			 M449.4,309.4c-0.1,3.6-3.1,6.5-6.7,6.5c-3.6,0-6.6-3.1-6.5-6.8c0-3.6,3-6.5,6.7-6.5C446.5,302.7,449.4,305.7,449.4,309.4
			L449.4,309.4z"/>
	</g>
	<ellipse class="st5" cx="466.5" cy="385.3" rx="11.9" ry="4"/>
	<g>
		<path class="st18" d="M459.5,348c4.9,3.5,8.4,3.5,14.1,0c2.2,2.8,2.9,5.9,3.5,9.3c0.2,1.3,0.6,4.4,0.5,5.7
			c-0.1,3.1-0.8,3.2-1.6,3.8c-0.4,0.2-0.5,0.8-0.6,1.3c-0.5,3.7-1.3,7.5-1.5,11.2c-0.3,5.7-6.5,7.6-10.4,6c-2.6-1.1-4.2-2.9-4.5-5.8
			c-0.4-3.8-1-7.6-1.5-11.4c-0.1-0.6-0.1-1.4-0.9-1.6c0,0-1.6-0.6-1.6-3.4c-0.1-4.9,0.7-9.7,3.4-14
			C458.7,348.9,459.3,348.2,459.5,348L459.5,348z M474.8,340.4c-0.1,4.5-3.9,8.2-8.4,8.2c-4.6,0-8.2-3.9-8.2-8.5
			c0-4.5,3.8-8.2,8.4-8.1C471.2,332,474.9,335.8,474.8,340.4L474.8,340.4z"/>
	</g>
	<g class="st19">
		<ellipse class="st9" cx="419.5" cy="388.3" rx="11.9" ry="4"/>
		<g>
			<path class="st9" d="M412.5,351c4.9,3.5,8.4,3.5,14.1,0c2.2,2.8,2.9,5.9,3.5,9.3c0.2,1.3,0.6,4.4,0.5,5.7
				c-0.1,3.1-0.8,3.2-1.6,3.8c-0.4,0.2-0.5,0.8-0.6,1.3c-0.5,3.7-1.3,7.5-1.5,11.2c-0.3,5.7-6.5,7.6-10.4,6
				c-2.6-1.1-4.2-2.9-4.5-5.8c-0.4-3.8-1-7.6-1.5-11.4c-0.1-0.6-0.1-1.4-0.9-1.6c0,0-1.6-0.6-1.6-3.4c-0.1-4.9,0.7-9.7,3.4-14
				C411.7,351.9,412.3,351.2,412.5,351L412.5,351z M427.8,343.4c-0.1,4.5-3.9,8.2-8.4,8.2c-4.6,0-8.2-3.9-8.2-8.5
				c0-4.5,3.8-8.2,8.4-8.1C424.2,335,427.9,338.8,427.8,343.4L427.8,343.4z"/>
		</g>
	</g>
	<g class="st19">
		<ellipse class="st9" cx="442.8" cy="345.1" rx="9.5" ry="3.2"/>
		<g>
			<path class="st9" d="M437.2,315.4c3.9,2.8,6.7,2.8,11.2,0c1.7,2.2,2.3,4.7,2.8,7.4c0.2,1,0.5,3.5,0.4,4.5c-0.1,2.5-0.6,2.6-1.3,3
				c-0.3,0.2-0.4,0.7-0.5,1c-0.4,3-1,6-1.2,8.9c-0.2,4.5-5.2,6-8.2,4.8c-2.1-0.9-3.3-2.3-3.6-4.6c-0.3-3-0.8-6-1.2-9.1
				c-0.1-0.5,0-1.1-0.7-1.3c0,0-1.2-0.5-1.2-2.7c-0.1-3.9,0.6-7.7,2.7-11.1C436.6,316.1,437.1,315.5,437.2,315.4L437.2,315.4z
				 M449.4,309.4c-0.1,3.6-3.1,6.5-6.7,6.5c-3.6,0-6.6-3.1-6.5-6.8c0-3.6,3-6.5,6.7-6.5C446.5,302.7,449.4,305.7,449.4,309.4
				L449.4,309.4z"/>
		</g>
	</g>
	<g class="st19">
		<ellipse class="st9" cx="466.5" cy="385.3" rx="11.9" ry="4"/>
		<g>
			<path class="st9" d="M459.5,348c4.9,3.5,8.4,3.5,14.1,0c2.2,2.8,2.9,5.9,3.5,9.3c0.2,1.3,0.6,4.4,0.5,5.7
				c-0.1,3.1-0.8,3.2-1.6,3.8c-0.4,0.2-0.5,0.8-0.6,1.3c-0.5,3.7-1.3,7.5-1.5,11.2c-0.3,5.7-6.5,7.6-10.4,6
				c-2.6-1.1-4.2-2.9-4.5-5.8c-0.4-3.8-1-7.6-1.5-11.4c-0.1-0.6-0.1-1.4-0.9-1.6c0,0-1.6-0.6-1.6-3.4c-0.1-4.9,0.7-9.7,3.4-14
				C458.7,348.9,459.3,348.2,459.5,348L459.5,348z M474.8,340.4c-0.1,4.5-3.9,8.2-8.4,8.2c-4.6,0-8.2-3.9-8.2-8.5
				c0-4.5,3.8-8.2,8.4-8.1C471.2,332,474.9,335.8,474.8,340.4L474.8,340.4z"/>
		</g>
	</g>
	<ellipse class="st5" cx="502" cy="482.9" rx="13.1" ry="4.4"/>
	<g>
		<path class="st18" d="M494.4,441.8c5.4,3.9,9.3,3.9,15.6,0c2.4,3.1,3.2,6.5,3.8,10.3c0.2,1.4,0.6,4.8,0.6,6.3
			c-0.2,3.5-0.9,3.6-1.8,4.2c-0.4,0.3-0.6,0.9-0.6,1.4c-0.6,4.1-1.4,8.2-1.6,12.4c-0.3,6.3-7.2,8.4-11.4,6.6c-2.9-1.2-4.6-3.2-5-6.4
			c-0.4-4.2-1.1-8.4-1.7-12.5c-0.1-0.6-0.1-1.5-0.9-1.8c0,0-1.7-0.7-1.7-3.7c-0.1-5.4,0.8-10.7,3.7-15.4
			C493.5,442.8,494.2,442,494.4,441.8L494.4,441.8z M511.2,433.5c-0.1,5-4.3,9-9.2,9c-5,0-9.1-4.3-9-9.4c0.1-5,4.2-9,9.2-8.9
			C507.3,424.2,511.3,428.3,511.2,433.5L511.2,433.5z"/>
	</g>
	<ellipse class="st5" cx="461.4" cy="462.9" rx="13.1" ry="4.4"/>
	<g>
		<path class="st18" d="M453.7,421.8c5.4,3.9,9.3,3.9,15.6,0c2.4,3.1,3.2,6.5,3.9,10.3c0.2,1.4,0.6,4.8,0.6,6.3
			c-0.2,3.5-0.9,3.6-1.8,4.2c-0.4,0.3-0.6,0.9-0.6,1.4c-0.6,4.1-1.4,8.2-1.6,12.4c-0.3,6.3-7.2,8.4-11.4,6.6c-2.9-1.2-4.6-3.2-5-6.4
			c-0.4-4.2-1.1-8.4-1.7-12.5c-0.1-0.6-0.1-1.5-0.9-1.8c0,0-1.7-0.7-1.7-3.7c-0.1-5.4,0.8-10.7,3.7-15.4
			C452.8,422.8,453.5,422,453.7,421.8L453.7,421.8z M470.6,413.5c-0.1,5-4.3,9-9.2,9c-5,0-9.1-4.3-9-9.4c0.1-5,4.2-9,9.2-8.9
			C466.6,404.2,470.6,408.3,470.6,413.5L470.6,413.5z"/>
	</g>
	<g class="st20">
		<ellipse class="st7" cx="502" cy="482.9" rx="13.1" ry="4.4"/>
		<g>
			<path class="st7" d="M494.4,441.8c5.4,3.9,9.3,3.9,15.6,0c2.4,3.1,3.2,6.5,3.8,10.3c0.2,1.4,0.6,4.8,0.6,6.3
				c-0.2,3.5-0.9,3.6-1.8,4.2c-0.4,0.3-0.6,0.9-0.6,1.4c-0.6,4.1-1.4,8.2-1.6,12.4c-0.3,6.3-7.2,8.4-11.4,6.6
				c-2.9-1.2-4.6-3.2-5-6.4c-0.4-4.2-1.1-8.4-1.7-12.5c-0.1-0.6-0.1-1.5-0.9-1.8c0,0-1.7-0.7-1.7-3.7c-0.1-5.4,0.8-10.7,3.7-15.4
				C493.5,442.8,494.2,442,494.4,441.8L494.4,441.8z M511.2,433.5c-0.1,5-4.3,9-9.2,9c-5,0-9.1-4.3-9-9.4c0.1-5,4.2-9,9.2-8.9
				C507.3,424.2,511.3,428.3,511.2,433.5L511.2,433.5z"/>
		</g>
	</g>
	<g class="st20">
		<ellipse class="st7" cx="461.4" cy="462.9" rx="13.1" ry="4.4"/>
		<g>
			<path class="st7" d="M453.7,421.8c5.4,3.9,9.3,3.9,15.6,0c2.4,3.1,3.2,6.5,3.9,10.3c0.2,1.4,0.6,4.8,0.6,6.3
				c-0.2,3.5-0.9,3.6-1.8,4.2c-0.4,0.3-0.6,0.9-0.6,1.4c-0.6,4.1-1.4,8.2-1.6,12.4c-0.3,6.3-7.2,8.4-11.4,6.6
				c-2.9-1.2-4.6-3.2-5-6.4c-0.4-4.2-1.1-8.4-1.7-12.5c-0.1-0.6-0.1-1.5-0.9-1.8c0,0-1.7-0.7-1.7-3.7c-0.1-5.4,0.8-10.7,3.7-15.4
				C452.8,422.8,453.5,422,453.7,421.8L453.7,421.8z M470.6,413.5c-0.1,5-4.3,9-9.2,9c-5,0-9.1-4.3-9-9.4c0.1-5,4.2-9,9.2-8.9
				C466.6,404.2,470.6,408.3,470.6,413.5L470.6,413.5z"/>
		</g>
	</g>
	<ellipse class="st5" cx="731.4" cy="407.9" rx="13.1" ry="4.4"/>
	<g>
		<path class="st18" d="M723.7,366.8c5.4,3.9,9.3,3.9,15.6,0c2.4,3.1,3.2,6.5,3.9,10.3c0.2,1.4,0.6,4.8,0.6,6.3
			c-0.2,3.5-0.9,3.6-1.8,4.2c-0.4,0.3-0.6,0.9-0.6,1.4c-0.6,4.1-1.4,8.2-1.6,12.4c-0.3,6.3-7.2,8.4-11.4,6.6c-2.9-1.2-4.6-3.2-5-6.4
			c-0.4-4.2-1.1-8.4-1.7-12.5c-0.1-0.6-0.1-1.5-0.9-1.8c0,0-1.7-0.7-1.7-3.7c-0.1-5.4,0.8-10.7,3.7-15.4
			C722.8,367.8,723.5,367,723.7,366.8L723.7,366.8z M740.6,358.5c-0.1,5-4.3,9-9.2,9c-5,0-9.1-4.3-9-9.4c0.1-5,4.2-9,9.2-8.9
			C736.6,349.2,740.6,353.3,740.6,358.5L740.6,358.5z"/>
	</g>
	<ellipse class="st5" cx="706.3" cy="457.9" rx="13.1" ry="4.4"/>
	<g>
		<path class="st18" d="M698.6,416.8c5.4,3.9,9.3,3.9,15.6,0c2.4,3.1,3.2,6.5,3.9,10.3c0.2,1.4,0.6,4.8,0.6,6.3
			c-0.2,3.5-0.9,3.6-1.8,4.2c-0.4,0.3-0.6,0.9-0.6,1.4c-0.6,4.1-1.4,8.2-1.6,12.4c-0.3,6.3-7.2,8.4-11.4,6.6c-2.9-1.2-4.6-3.2-5-6.4
			c-0.4-4.2-1.1-8.4-1.7-12.5c-0.1-0.6-0.1-1.5-0.9-1.8c0,0-1.7-0.7-1.7-3.7c-0.1-5.4,0.8-10.7,3.7-15.4
			C697.8,417.8,698.4,417,698.6,416.8L698.6,416.8z M715.5,408.5c-0.1,5-4.3,9-9.2,9c-5,0-9.1-4.3-9-9.4c0.1-5,4.2-9,9.2-8.9
			C711.5,399.2,715.6,403.3,715.5,408.5L715.5,408.5z"/>
	</g>
	<ellipse class="st5" cx="761" cy="433.9" rx="13.1" ry="4.4"/>
	<g>
		<path class="st18" d="M753.4,392.8c5.4,3.9,9.3,3.9,15.6,0c2.4,3.1,3.2,6.5,3.8,10.3c0.2,1.4,0.6,4.8,0.6,6.3
			c-0.2,3.5-0.9,3.6-1.8,4.2c-0.4,0.3-0.6,0.9-0.6,1.4c-0.6,4.1-1.4,8.2-1.6,12.4c-0.3,6.3-7.2,8.4-11.4,6.6c-2.9-1.2-4.6-3.2-5-6.4
			c-0.4-4.2-1.1-8.4-1.7-12.5c-0.1-0.6-0.1-1.5-0.9-1.8c0,0-1.7-0.7-1.7-3.7c-0.1-5.4,0.8-10.7,3.7-15.4
			C752.5,393.8,753.2,393,753.4,392.8L753.4,392.8z M770.2,384.5c-0.1,5-4.3,9-9.2,9c-5,0-9.1-4.3-9-9.4c0.1-5,4.2-9,9.2-8.9
			C766.3,375.2,770.3,379.3,770.2,384.5L770.2,384.5z"/>
	</g>
	<g class="st20">
		<ellipse class="st6" cx="731.4" cy="407.9" rx="13.1" ry="4.4"/>
		<g>
			<path class="st6" d="M723.7,366.8c5.4,3.9,9.3,3.9,15.6,0c2.4,3.1,3.2,6.5,3.9,10.3c0.2,1.4,0.6,4.8,0.6,6.3
				c-0.2,3.5-0.9,3.6-1.8,4.2c-0.4,0.3-0.6,0.9-0.6,1.4c-0.6,4.1-1.4,8.2-1.6,12.4c-0.3,6.3-7.2,8.4-11.4,6.6
				c-2.9-1.2-4.6-3.2-5-6.4c-0.4-4.2-1.1-8.4-1.7-12.5c-0.1-0.6-0.1-1.5-0.9-1.8c0,0-1.7-0.7-1.7-3.7c-0.1-5.4,0.8-10.7,3.7-15.4
				C722.8,367.8,723.5,367,723.7,366.8L723.7,366.8z M740.6,358.5c-0.1,5-4.3,9-9.2,9c-5,0-9.1-4.3-9-9.4c0.1-5,4.2-9,9.2-8.9
				C736.6,349.2,740.6,353.3,740.6,358.5L740.6,358.5z"/>
		</g>
	</g>
	<g class="st20">
		<ellipse class="st6" cx="706.3" cy="457.9" rx="13.1" ry="4.4"/>
		<g>
			<path class="st6" d="M698.6,416.8c5.4,3.9,9.3,3.9,15.6,0c2.4,3.1,3.2,6.5,3.9,10.3c0.2,1.4,0.6,4.8,0.6,6.3
				c-0.2,3.5-0.9,3.6-1.8,4.2c-0.4,0.3-0.6,0.9-0.6,1.4c-0.6,4.1-1.4,8.2-1.6,12.4c-0.3,6.3-7.2,8.4-11.4,6.6
				c-2.9-1.2-4.6-3.2-5-6.4c-0.4-4.2-1.1-8.4-1.7-12.5c-0.1-0.6-0.1-1.5-0.9-1.8c0,0-1.7-0.7-1.7-3.7c-0.1-5.4,0.8-10.7,3.7-15.4
				C697.8,417.8,698.4,417,698.6,416.8L698.6,416.8z M715.5,408.5c-0.1,5-4.3,9-9.2,9c-5,0-9.1-4.3-9-9.4c0.1-5,4.2-9,9.2-8.9
				C711.5,399.2,715.6,403.3,715.5,408.5L715.5,408.5z"/>
		</g>
	</g>
	<g class="st20">
		<ellipse class="st6" cx="761" cy="433.9" rx="13.1" ry="4.4"/>
		<g>
			<path class="st6" d="M753.4,392.8c5.4,3.9,9.3,3.9,15.6,0c2.4,3.1,3.2,6.5,3.8,10.3c0.2,1.4,0.6,4.8,0.6,6.3
				c-0.2,3.5-0.9,3.6-1.8,4.2c-0.4,0.3-0.6,0.9-0.6,1.4c-0.6,4.1-1.4,8.2-1.6,12.4c-0.3,6.3-7.2,8.4-11.4,6.6
				c-2.9-1.2-4.6-3.2-5-6.4c-0.4-4.2-1.1-8.4-1.7-12.5c-0.1-0.6-0.1-1.5-0.9-1.8c0,0-1.7-0.7-1.7-3.7c-0.1-5.4,0.8-10.7,3.7-15.4
				C752.5,393.8,753.2,393,753.4,392.8L753.4,392.8z M770.2,384.5c-0.1,5-4.3,9-9.2,9c-5,0-9.1-4.3-9-9.4c0.1-5,4.2-9,9.2-8.9
				C766.3,375.2,770.3,379.3,770.2,384.5L770.2,384.5z"/>
		</g>
	</g>
	<ellipse class="st5" cx="606.8" cy="362.3" rx="11.9" ry="4"/>
	<g>
		<path class="st18" d="M599.9,325c4.9,3.5,8.4,3.5,14.1,0c2.2,2.8,2.9,5.9,3.5,9.3c0.2,1.3,0.6,4.4,0.5,5.7
			c-0.2,3.1-0.8,3.2-1.6,3.8c-0.4,0.2-0.5,0.8-0.6,1.3c-0.5,3.7-1.3,7.5-1.5,11.2c-0.3,5.7-6.5,7.6-10.4,6c-2.6-1.1-4.2-2.9-4.5-5.8
			c-0.4-3.8-1-7.6-1.5-11.4c-0.1-0.6-0.1-1.4-0.9-1.6c0,0-1.6-0.6-1.6-3.4c-0.1-4.9,0.7-9.7,3.4-14
			C599.1,325.9,599.7,325.2,599.9,325L599.9,325z M615.2,317.4c-0.1,4.5-3.9,8.2-8.4,8.2c-4.6,0-8.2-3.9-8.2-8.5
			c0-4.5,3.8-8.2,8.4-8.1C611.6,309,615.2,312.8,615.2,317.4L615.2,317.4z"/>
	</g>
	<ellipse class="st5" cx="643.5" cy="336.8" rx="9.5" ry="3.2"/>
	<g>
		<path class="st18" d="M637.9,307.1c3.9,2.8,6.7,2.8,11.2,0c1.7,2.2,2.3,4.7,2.8,7.4c0.2,1,0.5,3.5,0.4,4.5c-0.1,2.5-0.6,2.6-1.3,3
			c-0.3,0.2-0.4,0.7-0.5,1c-0.4,3-1,6-1.2,8.9c-0.2,4.5-5.2,6-8.2,4.8c-2.1-0.9-3.3-2.3-3.6-4.6c-0.3-3-0.8-6-1.2-9.1
			c-0.1-0.5,0-1.1-0.7-1.3c0,0-1.2-0.5-1.2-2.7c-0.1-3.9,0.6-7.7,2.7-11.1C637.3,307.8,637.8,307.3,637.9,307.1L637.9,307.1z
			 M650.1,301.1c-0.1,3.6-3.1,6.5-6.7,6.5c-3.6,0-6.6-3.1-6.5-6.8c0-3.6,3-6.5,6.7-6.5C647.3,294.4,650.2,297.4,650.1,301.1
			L650.1,301.1z"/>
	</g>
	<ellipse class="st5" cx="589.7" cy="311.1" rx="9.5" ry="3.2"/>
	<g>
		<path class="st18" d="M584.2,281.4c3.9,2.8,6.7,2.8,11.2,0c1.7,2.2,2.3,4.7,2.8,7.4c0.2,1,0.5,3.5,0.4,4.5c-0.1,2.5-0.6,2.6-1.3,3
			c-0.3,0.2-0.4,0.7-0.5,1c-0.4,3-1,6-1.2,8.9c-0.2,4.5-5.2,6-8.2,4.8c-2.1-0.9-3.3-2.3-3.6-4.6c-0.3-3-0.8-6-1.2-9.1
			c-0.1-0.5,0-1.1-0.7-1.3c0,0-1.2-0.5-1.2-2.7c-0.1-3.9,0.6-7.7,2.7-11.1C583.5,282.1,584,281.5,584.2,281.4L584.2,281.4z
			 M596.3,275.4c-0.1,3.6-3.1,6.5-6.7,6.5c-3.6,0-6.6-3.1-6.5-6.8c0-3.6,3-6.5,6.7-6.5C593.5,268.7,596.4,271.7,596.3,275.4
			L596.3,275.4z"/>
	</g>
	<g class="st20">
		<ellipse class="st10" cx="606.8" cy="362.3" rx="11.9" ry="4"/>
		<g>
			<path class="st10" d="M599.9,325c4.9,3.5,8.4,3.5,14.1,0c2.2,2.8,2.9,5.9,3.5,9.3c0.2,1.3,0.6,4.4,0.5,5.7
				c-0.2,3.1-0.8,3.2-1.6,3.8c-0.4,0.2-0.5,0.8-0.6,1.3c-0.5,3.7-1.3,7.5-1.5,11.2c-0.3,5.7-6.5,7.6-10.4,6
				c-2.6-1.1-4.2-2.9-4.5-5.8c-0.4-3.8-1-7.6-1.5-11.4c-0.1-0.6-0.1-1.4-0.9-1.6c0,0-1.6-0.6-1.6-3.4c-0.1-4.9,0.7-9.7,3.4-14
				C599.1,325.9,599.7,325.2,599.9,325L599.9,325z M615.2,317.4c-0.1,4.5-3.9,8.2-8.4,8.2c-4.6,0-8.2-3.9-8.2-8.5
				c0-4.5,3.8-8.2,8.4-8.1C611.6,309,615.2,312.8,615.2,317.4L615.2,317.4z"/>
		</g>
	</g>
	<g class="st20">
		<ellipse class="st10" cx="643.5" cy="336.8" rx="9.5" ry="3.2"/>
		<g>
			<path class="st10" d="M637.9,307.1c3.9,2.8,6.7,2.8,11.2,0c1.7,2.2,2.3,4.7,2.8,7.4c0.2,1,0.5,3.5,0.4,4.5
				c-0.1,2.5-0.6,2.6-1.3,3c-0.3,0.2-0.4,0.7-0.5,1c-0.4,3-1,6-1.2,8.9c-0.2,4.5-5.2,6-8.2,4.8c-2.1-0.9-3.3-2.3-3.6-4.6
				c-0.3-3-0.8-6-1.2-9.1c-0.1-0.5,0-1.1-0.7-1.3c0,0-1.2-0.5-1.2-2.7c-0.1-3.9,0.6-7.7,2.7-11.1
				C637.3,307.8,637.8,307.3,637.9,307.1L637.9,307.1z M650.1,301.1c-0.1,3.6-3.1,6.5-6.7,6.5c-3.6,0-6.6-3.1-6.5-6.8
				c0-3.6,3-6.5,6.7-6.5C647.3,294.4,650.2,297.4,650.1,301.1L650.1,301.1z"/>
		</g>
	</g>
	<g class="st20">
		<ellipse class="st10" cx="589.7" cy="311.1" rx="9.5" ry="3.2"/>
		<g>
			<path class="st10" d="M584.2,281.4c3.9,2.8,6.7,2.8,11.2,0c1.7,2.2,2.3,4.7,2.8,7.4c0.2,1,0.5,3.5,0.4,4.5
				c-0.1,2.5-0.6,2.6-1.3,3c-0.3,0.2-0.4,0.7-0.5,1c-0.4,3-1,6-1.2,8.9c-0.2,4.5-5.2,6-8.2,4.8c-2.1-0.9-3.3-2.3-3.6-4.6
				c-0.3-3-0.8-6-1.2-9.1c-0.1-0.5,0-1.1-0.7-1.3c0,0-1.2-0.5-1.2-2.7c-0.1-3.9,0.6-7.7,2.7-11.1C583.5,282.1,584,281.5,584.2,281.4
				L584.2,281.4z M596.3,275.4c-0.1,3.6-3.1,6.5-6.7,6.5c-3.6,0-6.6-3.1-6.5-6.8c0-3.6,3-6.5,6.7-6.5
				C593.5,268.7,596.4,271.7,596.3,275.4L596.3,275.4z"/>
		</g>
	</g>
	<ellipse class="st5" cx="656" cy="403.3" rx="11.9" ry="4"/>
	<g>
		<path class="st11" d="M649,366c4.9,3.5,8.4,3.5,14.1,0c2.2,2.8,2.9,5.9,3.5,9.3c0.2,1.3,0.6,4.4,0.5,5.7c-0.2,3.1-0.8,3.2-1.6,3.8
			c-0.4,0.2-0.5,0.8-0.6,1.3c-0.5,3.7-1.3,7.5-1.5,11.2c-0.3,5.7-6.5,7.6-10.4,6c-2.6-1.1-4.2-2.9-4.5-5.8c-0.4-3.8-1-7.6-1.5-11.4
			c-0.1-0.6,0-1.4-0.9-1.6c0,0-1.6-0.6-1.6-3.4c-0.1-4.9,0.7-9.7,3.4-14C648.3,366.9,648.9,366.2,649,366L649,366z M664.3,358.4
			c-0.1,4.5-3.9,8.2-8.4,8.2c-4.6,0-8.2-3.9-8.2-8.5c0-4.5,3.8-8.2,8.4-8.1C660.8,350,664.4,353.8,664.3,358.4L664.3,358.4z"/>
	</g>
	<ellipse class="st5" cx="513.8" cy="319.1" rx="9.5" ry="3.2"/>
	<g>
		<path class="st18" d="M508.2,289.4c3.9,2.8,6.7,2.8,11.2,0c1.7,2.2,2.3,4.7,2.8,7.4c0.2,1,0.5,3.5,0.4,4.5c-0.1,2.5-0.6,2.6-1.3,3
			c-0.3,0.2-0.4,0.7-0.5,1c-0.4,3-1,6-1.2,8.9c-0.2,4.5-5.2,6-8.2,4.8c-2.1-0.9-3.3-2.3-3.6-4.6c-0.3-3-0.8-6-1.2-9.1
			c-0.1-0.5,0-1.1-0.7-1.3c0,0-1.2-0.5-1.2-2.7c-0.1-3.9,0.6-7.7,2.7-11.1C507.6,290.1,508.1,289.5,508.2,289.4L508.2,289.4z
			 M520.4,283.4c-0.1,3.6-3.1,6.5-6.7,6.5c-3.6,0-6.6-3.1-6.5-6.8c0-3.6,3-6.5,6.7-6.5C517.5,276.7,520.4,279.7,520.4,283.4
			L520.4,283.4z"/>
	</g>
	<g class="st20">
		<ellipse class="st11" cx="513.8" cy="319.1" rx="9.5" ry="3.2"/>
		<g>
			<path class="st11" d="M508.2,289.4c3.9,2.8,6.7,2.8,11.2,0c1.7,2.2,2.3,4.7,2.8,7.4c0.2,1,0.5,3.5,0.4,4.5
				c-0.1,2.5-0.6,2.6-1.3,3c-0.3,0.2-0.4,0.7-0.5,1c-0.4,3-1,6-1.2,8.9c-0.2,4.5-5.2,6-8.2,4.8c-2.1-0.9-3.3-2.3-3.6-4.6
				c-0.3-3-0.8-6-1.2-9.1c-0.1-0.5,0-1.1-0.7-1.3c0,0-1.2-0.5-1.2-2.7c-0.1-3.9,0.6-7.7,2.7-11.1
				C507.6,290.1,508.1,289.5,508.2,289.4L508.2,289.4z M520.4,283.4c-0.1,3.6-3.1,6.5-6.7,6.5c-3.6,0-6.6-3.1-6.5-6.8
				c0-3.6,3-6.5,6.7-6.5C517.5,276.7,520.4,279.7,520.4,283.4L520.4,283.4z"/>
		</g>
	</g>
	<path class="st21" d="M572.1,401.7c0,0,30-57,75.8,86.5"/>
	<g>
		<path class="st21" d="M442.5,302.1c-40.3-70-64.3-20.7-64.3-20.7 M467.1,331.1c0,0,31-31,56,36.7 M478.1,263.1
			c11.2-42.5,26.7-29.3,35.7,13.7 M419.1,334.7c0,0,19.2-40,41.7,69.3 M339.5,328.7c5.7-22.3,52.7-39,79.7,6 M589.9,268
			c0,0,37.5-136,115.8,130.8 M635.1,402c0.2,0-55.8-81.6-132.3,21.4 M656.4,349.2c0,0,38-70,74.5-0.8 M381.8,447.7
			c0,0,17.3-69.7,78.3-44 M782.1,455c0,0-97.5-37-191.7,50.1 M760.9,374.5c22.8-116.5,48.5-67.2,49-65 M431.5,233.1
			c0,0,16.7-43.3,46.7,30.3 M544.8,311.1c0,0,34.8-42.8,90.6,90.9 M502.8,424.1c0,0,29.7-18.3,87.7,80.7 M643.4,293.7
			c0,0,21.8-83.2,41.8-44.2"/>
	</g>
</g>
<text transform="matrix(1 0 0 1 326.193 567.061)"><tspan x="0" y="0" class="st22 st23">社會企業創業團隊</tspan><tspan x="0" y="28.8" class="st22 st23">為共同的願景與價值而同心協力</tspan></text>
<text transform="matrix(1 0 0 1 392.853 530.3403)" class="st24 st25">網絡</text>
</svg>
