<?xml version="1.0" encoding="utf-8"?>
<!-- Generator: Adobe Illustrator 19.1.0, SVG Export Plug-In . SVG Version: 6.00 Build 0)  -->
<!DOCTYPE svg PUBLIC "-//W3C//DTD SVG 1.1//EN" "http://www.w3.org/Graphics/SVG/1.1/DTD/svg11.dtd">
<svg version="1.1" id="圖層_1" xmlns="http://www.w3.org/2000/svg" xmlns:xlink="http://www.w3.org/1999/xlink" x="0px" y="0px"
	 viewBox="139 25.1 889 742.9" style="enable-background:new 139 25.1 889 742.9;" xml:space="preserve">
<style type="text/css">
	.st0{fill:none;stroke:#424242;stroke-width:4;stroke-miterlimit:10;}
	.st1{fill:#C2C2C4;}
	.st2{fill:#E95A78;}
	.st3{fill:#00D096;}
	.st4{fill:#FFA800;}
	.st5{fill:#80529B;}
	.st6{fill:#4F4E4E;}
	.st7{fill:#00ACD0;}
	.st8{fill:#FFFFFF;stroke:#D6D6D6;stroke-miterlimit:10;}
	.st9{fill:#969696;}
	.st10{fill:none;stroke:#D6D6D6;stroke-miterlimit:10;}
	.st11{fill:none;stroke:#C2C2C4;stroke-width:2;stroke-miterlimit:10;}
	.st12{fill:#AFAFAF;}
	.st13{fill:none;stroke:#FFA800;stroke-width:2;stroke-miterlimit:10;stroke-dasharray:4,2;}
	.st14{fill:none;stroke:#80529B;stroke-width:2;stroke-miterlimit:10;stroke-dasharray:4,2;}
	.st15{fill:#F2F2F2;}
	.st16{clip-path:url(#SVGID_2_);}
	.st17{fill:#EAEAEA;}
	.st18{fill:none;stroke:#C2C2C4;stroke-miterlimit:10;}
	.st19{clip-path:url(#SVGID_4_);}
	.st20{clip-path:url(#SVGID_6_);}
	.st21{clip-path:url(#SVGID_8_);}
	.st22{clip-path:url(#SVGID_10_);}
	.st23{fill:#F2F2F2;stroke:#C2C2C4;stroke-miterlimit:10;}
	.st24{fill:none;stroke:#00D096;stroke-width:2;stroke-miterlimit:10;stroke-dasharray:4,2;}
	.st25{font-family:'SourceHanSansTW-Bold-B5pc-H';}
	.st26{font-size:36px;}
	.st27{font-family:'SourceHanSansTW-Light-B5pc-H';}
	.st28{font-size:24px;}
</style>
<g>
	<path d="M465.2,699.2c0,1.4-0.5,2.5-1.5,3.3s-2.4,1.2-4.2,1.2s-3.2-0.3-4.4-0.8v-2.4c0.7,0.3,1.5,0.6,2.3,0.8s1.6,0.3,2.3,0.3
		c1,0,1.8-0.2,2.2-0.6s0.7-0.9,0.7-1.6c0-0.6-0.2-1.1-0.7-1.5s-1.4-0.9-2.8-1.5c-1.4-0.6-2.4-1.2-3-2s-0.9-1.6-0.9-2.7
		c0-1.3,0.5-2.3,1.4-3.1s2.2-1.1,3.8-1.1c1.5,0,3,0.3,4.5,1l-0.8,2.1c-1.4-0.6-2.6-0.9-3.7-0.9c-0.8,0-1.5,0.2-1.9,0.5
		c-0.4,0.4-0.6,0.8-0.6,1.4c0,0.4,0.1,0.8,0.3,1c0.2,0.3,0.5,0.6,0.9,0.8s1.1,0.6,2.1,1c1.2,0.5,2,0.9,2.5,1.3s0.9,0.9,1.2,1.4
		C465.1,697.9,465.2,698.5,465.2,699.2L465.2,699.2z M474,703.7c-1.5,0-2.7-0.5-3.5-1.6h-0.1c0.1,1,0.1,1.6,0.1,1.8v4.9H468v-17.2h2
		c0.1,0.2,0.2,0.8,0.4,1.6h0.1c0.8-1.2,2-1.8,3.5-1.8c1.5,0,2.6,0.5,3.5,1.6s1.2,2.6,1.2,4.5s-0.4,3.5-1.3,4.5
		C476.7,703.1,475.5,703.7,474,703.7L474,703.7z M473.4,693.4c-1,0-1.7,0.3-2.2,0.9s-0.7,1.5-0.7,2.8v0.4c0,1.4,0.2,2.5,0.7,3.1
		c0.5,0.6,1.2,1,2.2,1c0.9,0,1.5-0.4,2-1.1s0.7-1.7,0.7-3.1c0-1.3-0.2-2.3-0.7-3C475,693.8,474.3,693.4,473.4,693.4L473.4,693.4z
		 M489.2,703.5l-0.5-1.7h-0.1c-0.6,0.7-1.1,1.2-1.7,1.5c-0.6,0.3-1.3,0.4-2.2,0.4c-1.2,0-2.1-0.3-2.7-0.9s-1-1.5-1-2.7
		c0-1.2,0.5-2.1,1.4-2.8s2.3-1,4.2-1l2-0.1v-0.6c0-0.8-0.2-1.3-0.5-1.7c-0.4-0.4-0.9-0.6-1.6-0.6c-0.6,0-1.2,0.1-1.8,0.3
		s-1.1,0.4-1.6,0.6l-0.8-1.8c0.6-0.3,1.4-0.6,2.1-0.8c0.8-0.2,1.5-0.3,2.2-0.3c1.5,0,2.6,0.3,3.4,1c0.8,0.7,1.2,1.7,1.2,3.1v8
		L489.2,703.5L489.2,703.5z M485.4,701.7c0.9,0,1.7-0.3,2.2-0.8c0.6-0.5,0.8-1.2,0.8-2.2v-1l-1.5,0.1c-1.2,0-2.1,0.2-2.6,0.6
		c-0.5,0.4-0.8,0.9-0.8,1.6c0,0.5,0.2,0.9,0.5,1.2C484.3,701.6,484.8,701.7,485.4,701.7L485.4,701.7z M499.3,703.7
		c-1.8,0-3.2-0.5-4.1-1.6c-0.9-1-1.4-2.6-1.4-4.5c0-2,0.5-3.5,1.5-4.6s2.4-1.6,4.2-1.6c1.3,0,2.4,0.2,3.4,0.7l-0.8,2
		c-1.1-0.4-1.9-0.6-2.6-0.6c-2.1,0-3.1,1.4-3.1,4.1c0,1.3,0.3,2.3,0.8,3c0.5,0.7,1.3,1,2.2,1c1.1,0,2.2-0.3,3.2-0.8v2.2
		c-0.5,0.3-0.9,0.5-1.4,0.6C500.6,703.6,500,703.7,499.3,703.7L499.3,703.7z M510.6,703.7c-1.8,0-3.3-0.5-4.3-1.6
		c-1-1.1-1.6-2.6-1.6-4.5c0-1.9,0.5-3.5,1.5-4.6s2.3-1.7,4-1.7c1.6,0,2.8,0.5,3.7,1.4c0.9,1,1.4,2.3,1.4,3.9v1.4h-7.9
		c0,1.2,0.3,2,0.9,2.7c0.6,0.6,1.4,0.9,2.5,0.9c0.7,0,1.4-0.1,2-0.2c0.6-0.1,1.3-0.4,2-0.7v2.1c-0.6,0.3-1.2,0.5-1.9,0.6
		S511.4,703.7,510.6,703.7L510.6,703.7z M510.1,693.3c-0.8,0-1.4,0.3-1.9,0.8s-0.8,1.2-0.9,2.2h5.4c0-1-0.2-1.7-0.7-2.2
		C511.5,693.5,510.9,693.3,510.1,693.3z M526,700.1c0,1.2-0.4,2-1.3,2.7s-2.1,0.9-3.6,0.9c-1.6,0-2.9-0.2-3.8-0.7v-2.2
		c1.4,0.6,2.7,1,3.9,1c1.6,0,2.3-0.5,2.3-1.4c0-0.3-0.1-0.5-0.3-0.8s-0.5-0.4-0.9-0.6s-0.9-0.5-1.6-0.7c-1.4-0.5-2.3-1.1-2.8-1.6
		c-0.5-0.5-0.7-1.2-0.7-2.1c0-1,0.4-1.8,1.2-2.4c0.8-0.6,1.9-0.8,3.3-0.8c1.4,0,2.7,0.3,4,0.8l-0.8,1.9c-1.3-0.5-2.4-0.8-3.2-0.8
		c-1.3,0-2,0.4-2,1.1c0,0.4,0.2,0.7,0.5,0.9c0.4,0.3,1.1,0.6,2.3,1.1c1,0.4,1.7,0.7,2.1,1c0.4,0.3,0.8,0.7,1,1.1
		C525.9,699,526,699.5,526,700.1L526,700.1z M540.4,693.5h-2.9v10H535v-10h-2v-1.2l2-0.8v-0.8c0-1.4,0.3-2.4,1-3.1
		c0.7-0.7,1.7-1,3-1c0.9,0,1.8,0.1,2.6,0.4L541,689c-0.6-0.2-1.2-0.3-1.8-0.3c-0.6,0-1,0.2-1.3,0.5c-0.3,0.4-0.4,0.9-0.4,1.6v0.8
		h2.9L540.4,693.5L540.4,693.5z M553,697.5c0,1.9-0.5,3.5-1.5,4.5c-1,1.1-2.4,1.6-4.2,1.6c-1.1,0-2.1-0.2-2.9-0.8
		c-0.9-0.5-1.5-1.2-2-2.2s-0.7-2-0.7-3.3c0-1.9,0.5-3.4,1.5-4.5c1-1.1,2.4-1.6,4.2-1.6c1.7,0,3.1,0.6,4.1,1.7
		C552.5,694.1,553,695.6,553,697.5L553,697.5z M544.4,697.5c0,2.7,1,4.1,3,4.1c2,0,3-1.4,3-4.1c0-2.7-1-4.1-3-4.1
		c-1.1,0-1.8,0.3-2.3,1.1C544.6,695.2,544.4,696.2,544.4,697.5L544.4,697.5z M561.9,691.4c0.5,0,0.9,0,1.3,0.1l-0.2,2.4
		c-0.4-0.1-0.7-0.1-1.1-0.1c-1,0-1.8,0.3-2.5,1c-0.6,0.7-0.9,1.5-0.9,2.6v6.2h-2.5v-11.9h2l0.3,2.1h0.1c0.4-0.7,0.9-1.3,1.5-1.7
		S561.2,691.4,561.9,691.4L561.9,691.4z M578,689.7c-1.5,0-2.6,0.5-3.5,1.6c-0.8,1-1.3,2.5-1.3,4.3c0,1.9,0.4,3.4,1.2,4.4
		c0.8,1,2,1.5,3.5,1.5c0.7,0,1.3-0.1,1.9-0.2c0.6-0.1,1.3-0.3,1.9-0.5v2.2c-1.2,0.5-2.6,0.7-4.2,0.7c-2.3,0-4.1-0.7-5.3-2.1
		c-1.2-1.4-1.8-3.4-1.8-6c0-1.6,0.3-3.1,0.9-4.3c0.6-1.2,1.5-2.2,2.6-2.8s2.5-1,4-1c1.6,0,3.1,0.3,4.4,1l-0.9,2.1
		c-0.5-0.2-1.1-0.5-1.7-0.7C579.3,689.8,578.7,689.7,578,689.7L578,689.7z M595.6,697.5c0,1.9-0.5,3.5-1.5,4.5s-2.4,1.6-4.2,1.6
		c-1.1,0-2.1-0.2-2.9-0.8c-0.9-0.5-1.5-1.2-2-2.2s-0.7-2-0.7-3.3c0-1.9,0.5-3.4,1.5-4.5c1-1.1,2.4-1.6,4.2-1.6
		c1.7,0,3.1,0.6,4.1,1.7C595.1,694.1,595.6,695.6,595.6,697.5L595.6,697.5z M586.9,697.5c0,2.7,1,4.1,3,4.1c2,0,3-1.4,3-4.1
		c0-2.7-1-4.1-3-4.1c-1.1,0-1.8,0.3-2.3,1.1C587.2,695.2,586.9,696.2,586.9,697.5L586.9,697.5z M601,703.5h-2.5v-16.7h2.5V703.5z
		 M607.1,703.5h-2.5v-16.7h2.5V703.5z M618.2,703.5l-0.5-1.7h-0.1c-0.6,0.7-1.2,1.2-1.7,1.5c-0.6,0.3-1.3,0.4-2.2,0.4
		c-1.2,0-2.1-0.3-2.7-0.9c-0.7-0.6-1-1.5-1-2.7c0-1.2,0.5-2.1,1.4-2.8c0.9-0.6,2.3-1,4.2-1l2.1-0.1v-0.6c0-0.8-0.2-1.3-0.5-1.7
		c-0.4-0.4-0.9-0.6-1.6-0.6c-0.6,0-1.2,0.1-1.8,0.3c-0.6,0.2-1.1,0.4-1.6,0.6l-0.8-1.8c0.6-0.3,1.4-0.6,2.1-0.8
		c0.8-0.2,1.5-0.3,2.2-0.3c1.5,0,2.6,0.3,3.4,1c0.8,0.7,1.2,1.7,1.2,3.1v8L618.2,703.5L618.2,703.5z M614.4,701.7
		c0.9,0,1.7-0.3,2.2-0.8c0.6-0.5,0.8-1.2,0.8-2.2v-1l-1.5,0.1c-1.2,0-2.1,0.2-2.6,0.6c-0.5,0.4-0.8,0.9-0.8,1.6
		c0,0.5,0.2,0.9,0.5,1.2C613.3,701.6,613.8,701.7,614.4,701.7L614.4,701.7z M629.6,691.4c1.5,0,2.6,0.5,3.5,1.6
		c0.8,1.1,1.2,2.6,1.2,4.5c0,1.9-0.4,3.5-1.3,4.5c-0.8,1.1-2,1.6-3.5,1.6c-1.5,0-2.7-0.5-3.5-1.6h-0.2l-0.5,1.4h-1.9v-16.7h2.5v4
		c0,0.3,0,0.7,0,1.3s0,1-0.1,1.1h0.1C626.8,692,628,691.4,629.6,691.4L629.6,691.4z M628.9,693.4c-1,0-1.8,0.3-2.2,0.9
		c-0.4,0.6-0.7,1.6-0.7,3v0.2c0,1.4,0.2,2.5,0.7,3.1s1.2,1,2.2,1c0.9,0,1.6-0.4,2-1.1s0.7-1.7,0.7-3.1
		C631.7,694.8,630.8,693.4,628.9,693.4L628.9,693.4z M647.8,697.5c0,1.9-0.5,3.5-1.5,4.5s-2.4,1.6-4.2,1.6c-1.1,0-2.1-0.2-2.9-0.8
		c-0.9-0.5-1.5-1.2-2-2.2s-0.7-2-0.7-3.3c0-1.9,0.5-3.4,1.5-4.5s2.4-1.6,4.2-1.6c1.7,0,3.1,0.6,4.1,1.7
		C647.3,694.1,647.8,695.6,647.8,697.5L647.8,697.5z M639.1,697.5c0,2.7,1,4.1,3,4.1c2,0,3-1.4,3-4.1c0-2.7-1-4.1-3-4.1
		c-1.1,0-1.8,0.3-2.3,1.1C639.3,695.2,639.1,696.2,639.1,697.5L639.1,697.5z M656.7,691.4c0.5,0,0.9,0,1.3,0.1l-0.2,2.4
		c-0.4-0.1-0.7-0.1-1.1-0.1c-1,0-1.8,0.3-2.5,1c-0.6,0.7-0.9,1.5-0.9,2.6v6.2h-2.5v-11.9h2l0.3,2.1h0.1c0.4-0.7,0.9-1.3,1.5-1.7
		S656,691.4,656.7,691.4L656.7,691.4z M667.6,703.5l-0.5-1.7H667c-0.6,0.7-1.2,1.2-1.7,1.5c-0.6,0.3-1.3,0.4-2.2,0.4
		c-1.2,0-2.1-0.3-2.7-0.9s-1-1.5-1-2.7c0-1.2,0.5-2.1,1.4-2.8s2.3-1,4.2-1l2.1-0.1v-0.6c0-0.8-0.2-1.3-0.5-1.7
		c-0.4-0.4-0.9-0.6-1.6-0.6c-0.6,0-1.2,0.1-1.8,0.3s-1.1,0.4-1.6,0.6l-0.8-1.8c0.6-0.3,1.3-0.6,2.1-0.8c0.8-0.2,1.5-0.3,2.2-0.3
		c1.5,0,2.7,0.3,3.4,1c0.8,0.7,1.2,1.7,1.2,3.1v8L667.6,703.5L667.6,703.5z M663.8,701.7c0.9,0,1.7-0.3,2.2-0.8
		c0.6-0.5,0.8-1.2,0.8-2.2v-1l-1.5,0.1c-1.2,0-2.1,0.2-2.6,0.6c-0.5,0.4-0.8,0.9-0.8,1.6c0,0.5,0.2,0.9,0.5,1.2
		S663.2,701.7,663.8,701.7L663.8,701.7z M677.3,701.6c0.6,0,1.2-0.1,1.8-0.3v1.9c-0.3,0.1-0.6,0.2-1.1,0.3c-0.4,0.1-0.9,0.1-1.4,0.1
		c-2.4,0-3.6-1.3-3.6-3.8v-6.4h-1.6v-1.1l1.7-0.9l0.9-2.5h1.6v2.6h3.4v1.9h-3.4v6.4c0,0.6,0.2,1.1,0.5,1.3
		C676.4,701.5,676.8,701.6,677.3,701.6L677.3,701.6z M681.4,688.4c0-0.5,0.1-0.8,0.4-1s0.6-0.4,1.1-0.4c0.4,0,0.8,0.1,1,0.4
		s0.4,0.6,0.4,1c0,0.4-0.1,0.8-0.4,1c-0.2,0.2-0.6,0.4-1,0.4c-0.5,0-0.8-0.1-1.1-0.4C681.5,689.2,681.4,688.9,681.4,688.4
		L681.4,688.4z M684.1,703.5h-2.5v-11.9h2.5L684.1,703.5L684.1,703.5z M698.2,697.5c0,1.9-0.5,3.5-1.5,4.5s-2.4,1.6-4.2,1.6
		c-1.1,0-2.1-0.2-2.9-0.8s-1.5-1.2-2-2.2s-0.7-2-0.7-3.3c0-1.9,0.5-3.4,1.5-4.5s2.4-1.6,4.2-1.6c1.7,0,3.1,0.6,4.1,1.7
		C697.7,694.1,698.2,695.6,698.2,697.5L698.2,697.5z M689.6,697.5c0,2.7,1,4.1,3,4.1c2,0,3-1.4,3-4.1c0-2.7-1-4.1-3-4.1
		c-1.1,0-1.8,0.3-2.3,1.1C689.8,695.2,689.6,696.2,689.6,697.5L689.6,697.5z M711.6,703.5H709v-7.3c0-0.9-0.2-1.6-0.6-2
		c-0.4-0.5-1-0.7-1.8-0.7c-1.1,0-1.8,0.3-2.3,0.9s-0.7,1.7-0.7,3.2v5.9h-2.5v-11.9h2l0.4,1.6h0.1c0.4-0.6,0.9-1,1.5-1.3
		s1.4-0.5,2.2-0.5c2.8,0,4.3,1.5,4.3,4.3L711.6,703.5L711.6,703.5z"/>
	<path class="st0" d="M569,735h29"/>
	<path class="st1" d="M378,557h54v3h-54V557z"/>
	<circle class="st2" cx="353.3" cy="195.9" r="6.9"/>
	<circle class="st3" cx="353.3" cy="223.3" r="6.9"/>
	<circle class="st4" cx="353.3" cy="250.7" r="6.9"/>
	<circle class="st5" cx="353.3" cy="278.1" r="6.9"/>
	<circle class="st4" cx="432.7" cy="195.9" r="6.9"/>
	<circle class="st6" cx="432.7" cy="223.3" r="6.9"/>
	<circle class="st2" cx="432.7" cy="250.7" r="6.9"/>
	<circle class="st7" cx="432.7" cy="278.1" r="6.9"/>
	<circle class="st3" cx="472.7" cy="195.9" r="6.9"/>
	<circle class="st3" cx="739.7" cy="282.7" r="7.5"/>
	<circle class="st2" cx="709.4" cy="282.7" r="7.5"/>
	<circle class="st4" cx="684.8" cy="264.9" r="7.5"/>
	<path class="st5" d="M677.8,243.2c-4,1.3-8.2-0.9-9.5-4.8c-1.3-4,0.9-8.2,4.8-9.5c4-1.3,8.2,0.9,9.5,4.8
		C683.9,237.7,681.7,241.9,677.8,243.2L677.8,243.2z"/>
	<path class="st3" d="M682.5,214.3c-4-1.3-6.1-5.5-4.8-9.5c1.3-4,5.5-6.1,9.5-4.8c4,1.3,6.1,5.5,4.8,9.5
		C690.7,213.5,686.5,215.6,682.5,214.3L682.5,214.3z"/>
	<circle class="st2" cx="709.4" cy="189.3" r="7.5"/>
	<circle class="st4" cx="739.7" cy="189.3" r="7.5"/>
	<circle class="st7" cx="764.3" cy="207.2" r="7.5"/>
	<circle class="st6" cx="773.7" cy="236" r="7.5"/>
	<circle class="st5" cx="764.3" cy="264.9" r="7.5"/>
	<circle class="st3" cx="739.7" cy="282.7" r="7.5"/>
	<circle class="st2" cx="709.4" cy="282.7" r="7.5"/>
	<circle class="st5" cx="472.7" cy="223.3" r="6.9"/>
	<circle class="st7" cx="472.7" cy="250.7" r="6.9"/>
	<circle class="st6" cx="472.7" cy="278.1" r="6.9"/>
	<path class="st6" d="M561.3,195.9c0,3.8-3.1,6.9-6.9,6.9c-3.8,0-6.9-3.1-6.9-6.9s3.1-6.9,6.9-6.9
		C558.2,189,561.3,192.1,561.3,195.9L561.3,195.9z"/>
	<path class="st4" d="M561.3,223.3c0,3.8-3.1,6.9-6.9,6.9c-3.8,0-6.9-3.1-6.9-6.9c0-3.8,3.1-6.9,6.9-6.9
		C558.2,216.4,561.3,219.5,561.3,223.3L561.3,223.3z"/>
	<path class="st5" d="M561.3,250.7c0,3.8-3.1,6.9-6.9,6.9c-3.8,0-6.9-3.1-6.9-6.9s3.1-6.9,6.9-6.9
		C558.2,243.8,561.3,246.9,561.3,250.7L561.3,250.7z"/>
	<path class="st2" d="M561.3,278.1c0,3.8-3.1,6.9-6.9,6.9c-3.8,0-6.9-3.1-6.9-6.9c0-3.8,3.1-6.9,6.9-6.9
		C558.2,271.2,561.3,274.3,561.3,278.1L561.3,278.1z"/>
	<path class="st8" d="M370.5,181.5h44v109h-44V181.5z M491.5,181.5h45v112h-45V181.5z"/>
	<g>
		<path class="st9" d="M561.6,409.1c0,1.4-0.3,2.5-1,3.2c-0.7,0.8-1.7,1.2-2.9,1.2c-1.3,0-2.2-0.4-2.9-1.2c-0.7-0.8-1-1.9-1-3.3
			c0-1.4,0.3-2.5,1-3.2s1.7-1.1,2.9-1.1c1.2,0,2.2,0.4,2.9,1.2S561.6,407.7,561.6,409.1L561.6,409.1z M554.8,409.1
			c0,1.2,0.2,2,0.7,2.6s1.2,0.9,2.2,0.9c1,0,1.7-0.3,2.2-0.9s0.7-1.5,0.7-2.6c0-1.2-0.2-2-0.7-2.6s-1.2-0.9-2.1-0.9
			c-0.9,0-1.7,0.3-2.2,0.9S554.8,407.9,554.8,409.1L554.8,409.1z M571.4,413.4h-1.1l-4.7-7.2h0c0.1,0.8,0.1,1.6,0.1,2.3v4.9h-0.9
			v-8.6h1.1l4.7,7.2h0c0-0.1,0-0.4-0.1-1s0-1,0-1.2v-4.9h0.9L571.4,413.4L571.4,413.4z M575,413.4v-8.6h1v7.7h3.8v0.9H575z
			 M582.4,413.4v-8.6h1v8.6H582.4z M593.6,413.4h-1.1l-4.7-7.2h0c0.1,0.8,0.1,1.6,0.1,2.3v4.9h-0.9v-8.6h1.1l4.7,7.2h0
			c0-0.1,0-0.4-0.1-1c0-0.6,0-1,0-1.2v-4.9h0.9L593.6,413.4L593.6,413.4z M602,413.4h-4.8v-8.6h4.8v0.9h-3.8v2.8h3.6v0.9h-3.5v3.2
			h3.8L602,413.4L602,413.4z"/>
	</g>
	<path d="M403.8,339.4h-6.6V328h6.6v2h-4.2v2.5h3.9v2h-3.9v2.9h4.2L403.8,339.4L403.8,339.4z M414.4,339.4h-2.4v-5.1
		c0-0.6-0.1-1.1-0.3-1.4s-0.6-0.5-1.1-0.5c-0.7,0-1.1,0.2-1.4,0.7s-0.4,1.2-0.4,2.2v4.1h-2.4v-8.7h1.8l0.3,1.1h0.1
		c0.3-0.4,0.6-0.7,1.1-1s1-0.3,1.6-0.3c1,0,1.8,0.3,2.3,0.8s0.8,1.3,0.8,2.4L414.4,339.4L414.4,339.4z M423.4,336.8
		c0,0.9-0.3,1.6-0.9,2s-1.6,0.7-2.8,0.7c-0.6,0-1.2,0-1.6-0.1s-0.9-0.2-1.3-0.4v-2c0.4,0.2,0.9,0.4,1.5,0.5s1,0.2,1.5,0.2
		c0.9,0,1.3-0.2,1.3-0.8c0-0.2-0.1-0.3-0.2-0.5s-0.3-0.2-0.6-0.4s-0.7-0.3-1.1-0.5c-0.7-0.3-1.2-0.5-1.5-0.8s-0.5-0.5-0.7-0.8
		s-0.2-0.7-0.2-1.1c0-0.8,0.3-1.4,0.9-1.8s1.5-0.6,2.6-0.6c1,0,2.1,0.2,3.1,0.7l-0.7,1.7c-0.4-0.2-0.8-0.3-1.2-0.5s-0.8-0.2-1.2-0.2
		c-0.7,0-1.1,0.2-1.1,0.6c0,0.2,0.1,0.4,0.3,0.6s0.7,0.4,1.5,0.7c0.7,0.3,1.2,0.5,1.5,0.8s0.6,0.5,0.7,0.8S423.4,336.4,423.4,336.8
		L423.4,336.8z M430.4,339.6c-1,0-1.8-0.4-2.4-1.1h-0.1c0.1,0.7,0.1,1.2,0.1,1.3v3.5h-2.4v-12.6h1.9l0.3,1.1h0.1
		c0.6-0.9,1.4-1.3,2.5-1.3c1,0,1.8,0.4,2.4,1.2s0.9,1.9,0.9,3.3c0,0.9-0.1,1.7-0.4,2.4s-0.7,1.2-1.2,1.6S431.1,339.6,430.4,339.6
		L430.4,339.6z M429.7,332.4c-0.6,0-1,0.2-1.3,0.5s-0.4,1-0.4,1.8v0.3c0,0.9,0.1,1.6,0.4,2s0.7,0.6,1.3,0.6c1.1,0,1.6-0.9,1.6-2.6
		c0-0.9-0.1-1.5-0.4-1.9S430.3,332.4,429.7,332.4L429.7,332.4z M436.1,328.4c0-0.8,0.4-1.2,1.3-1.2s1.3,0.4,1.3,1.2
		c0,0.4-0.1,0.7-0.3,0.9s-0.5,0.3-1,0.3C436.5,329.6,436.1,329.2,436.1,328.4z M438.6,339.4h-2.4v-8.7h2.4L438.6,339.4L438.6,339.4z
		 M446.3,330.5c0.3,0,0.6,0,0.8,0.1l-0.2,2.2c-0.2-0.1-0.4-0.1-0.7-0.1c-0.8,0-1.4,0.2-1.8,0.6s-0.6,0.9-0.6,1.6v4.4h-2.4v-8.7h1.8
		l0.4,1.5h0.1c0.3-0.5,0.6-0.9,1.1-1.2S445.8,330.5,446.3,330.5L446.3,330.5z M454.7,339.4l-0.5-1.2h-0.1c-0.4,0.5-0.8,0.9-1.2,1
		s-1,0.3-1.7,0.3c-0.8,0-1.5-0.2-2-0.7s-0.7-1.2-0.7-2c0-0.9,0.3-1.6,1-2s1.6-0.7,2.9-0.7l1.5,0v-0.4c0-0.9-0.5-1.3-1.4-1.3
		c-0.7,0-1.5,0.2-2.5,0.6l-0.8-1.6c1-0.5,2.1-0.8,3.3-0.8c1.2,0,2.1,0.3,2.7,0.8s0.9,1.3,0.9,2.3v5.8L454.7,339.4L454.7,339.4z
		 M454,335.4l-0.9,0c-0.7,0-1.2,0.1-1.5,0.4s-0.5,0.6-0.5,1c0,0.7,0.4,1,1.2,1c0.6,0,1-0.2,1.3-0.5s0.5-0.7,0.5-1.3V335.4L454,335.4
		z M461.6,339.4h-2.4v-12.2h2.4V339.4z M476,336.2c0,1-0.4,1.8-1.1,2.4s-1.8,0.9-3.1,0.9c-1.2,0-2.3-0.2-3.2-0.7v-2.2
		c0.8,0.3,1.4,0.6,2,0.7s1,0.2,1.5,0.2c0.5,0,0.9-0.1,1.2-0.3s0.4-0.5,0.4-0.9c0-0.2-0.1-0.4-0.2-0.6s-0.3-0.3-0.5-0.5
		s-0.7-0.4-1.5-0.8c-0.7-0.3-1.2-0.6-1.6-0.9s-0.6-0.7-0.8-1.1s-0.3-0.9-0.3-1.4c0-1,0.3-1.8,1-2.4s1.6-0.9,2.8-0.9
		c0.6,0,1.2,0.1,1.7,0.2s1.1,0.3,1.7,0.6l-0.8,1.9c-0.6-0.2-1.1-0.4-1.5-0.5s-0.8-0.1-1.2-0.1c-0.5,0-0.8,0.1-1.1,0.3
		s-0.4,0.5-0.4,0.8c0,0.2,0,0.4,0.1,0.6s0.3,0.3,0.5,0.5s0.7,0.4,1.5,0.8c1.1,0.5,1.8,1,2.2,1.5S476,335.5,476,336.2L476,336.2z
		 M483,339.6c-1,0-1.8-0.4-2.4-1.1h-0.1c0.1,0.7,0.1,1.2,0.1,1.3v3.5h-2.4v-12.6h1.9l0.3,1.1h0.1c0.6-0.9,1.4-1.3,2.5-1.3
		c1,0,1.8,0.4,2.4,1.2s0.9,1.9,0.9,3.3c0,0.9-0.1,1.7-0.4,2.4s-0.7,1.2-1.2,1.6S483.7,339.6,483,339.6L483,339.6z M482.3,332.4
		c-0.6,0-1,0.2-1.3,0.5s-0.4,1-0.4,1.8v0.3c0,0.9,0.1,1.6,0.4,2s0.7,0.6,1.3,0.6c1.1,0,1.6-0.9,1.6-2.6c0-0.9-0.1-1.5-0.4-1.9
		S482.9,332.4,482.3,332.4L482.3,332.4z M494.3,339.4l-0.5-1.2h-0.1c-0.4,0.5-0.8,0.9-1.2,1s-1,0.3-1.7,0.3c-0.8,0-1.5-0.2-2-0.7
		s-0.7-1.2-0.7-2c0-0.9,0.3-1.6,1-2s1.6-0.7,2.9-0.7l1.5,0v-0.4c0-0.9-0.5-1.3-1.4-1.3c-0.7,0-1.5,0.2-2.5,0.6l-0.8-1.6
		c1-0.5,2.1-0.8,3.3-0.8c1.2,0,2.1,0.3,2.7,0.8s0.9,1.3,0.9,2.3v5.8L494.3,339.4L494.3,339.4z M493.6,335.4l-0.9,0
		c-0.7,0-1.2,0.1-1.5,0.4s-0.5,0.6-0.5,1c0,0.7,0.4,1,1.2,1c0.6,0,1-0.2,1.3-0.5s0.5-0.7,0.5-1.3L493.6,335.4L493.6,335.4z
		 M502.4,339.6c-2.7,0-4.1-1.5-4.1-4.5c0-1.5,0.4-2.6,1.1-3.4s1.8-1.2,3.2-1.2c1,0,1.9,0.2,2.7,0.6l-0.7,1.8c-0.4-0.1-0.7-0.3-1-0.4
		s-0.6-0.1-1-0.1c-1.2,0-1.9,0.9-1.9,2.6c0,1.7,0.6,2.6,1.9,2.6c0.5,0,0.9-0.1,1.3-0.2s0.8-0.3,1.2-0.6v2c-0.4,0.2-0.8,0.4-1.2,0.5
		S503,339.6,502.4,339.6L502.4,339.6z M511.4,339.6c-1.4,0-2.5-0.4-3.3-1.2s-1.2-1.9-1.2-3.3c0-1.5,0.4-2.6,1.1-3.4s1.7-1.2,3-1.2
		c1.2,0,2.2,0.4,2.9,1.1s1,1.7,1,2.9v1.2h-5.6c0,0.7,0.2,1.2,0.6,1.6s0.9,0.6,1.6,0.6c0.5,0,1-0.1,1.5-0.2s1-0.3,1.5-0.5v1.8
		c-0.4,0.2-0.9,0.4-1.3,0.5S512.1,339.6,511.4,339.6L511.4,339.6z M511.1,332.2c-0.5,0-0.9,0.2-1.2,0.5s-0.5,0.8-0.5,1.4h3.3
		c0-0.6-0.2-1-0.5-1.4C512,332.4,511.6,332.2,511.1,332.2L511.1,332.2z M405.7,351.3c-1.1,0-1.9,0.3-2.5,1s-0.9,1.6-0.9,2.8
		c0,1.2,0.3,2.2,0.9,2.8s1.4,1,2.5,1c0.7,0,1.4-0.1,2-0.3v0.5c-0.6,0.2-1.3,0.3-2.1,0.3c-1.2,0-2.1-0.4-2.8-1.2s-1-1.9-1-3.3
		c0-0.9,0.2-1.6,0.5-2.3s0.8-1.2,1.4-1.5s1.3-0.5,2.2-0.5c0.8,0,1.6,0.2,2.2,0.5l-0.2,0.5C407.1,351.4,406.4,351.3,405.7,351.3
		L405.7,351.3z M417.6,355.1c0,1.4-0.3,2.4-1,3.2s-1.6,1.2-2.8,1.2c-1.2,0-2.1-0.4-2.8-1.2s-1-1.9-1-3.2c0-1.4,0.3-2.4,1-3.2
		s1.6-1.2,2.8-1.2c1.2,0,2.1,0.4,2.8,1.2S417.6,353.7,417.6,355.1L417.6,355.1z M410.6,355.1c0,1.2,0.3,2.2,0.8,2.8s1.3,1,2.4,1
		c1,0,1.8-0.3,2.4-1s0.8-1.6,0.8-2.9c0-1.2-0.3-2.2-0.8-2.8s-1.3-1-2.4-1c-1,0-1.8,0.3-2.4,1S410.6,353.9,410.6,355.1L410.6,355.1z
		 M427.3,359.4h-0.5l-1.9-6.6c-0.2-0.5-0.3-1-0.4-1.3c-0.1,0.3-0.1,0.7-0.3,1.2s-0.7,2.7-1.9,6.8H422l-2.4-8.6h0.6l1.5,5.5
		c0.1,0.2,0.1,0.4,0.2,0.6s0.1,0.4,0.1,0.5s0.1,0.3,0.1,0.5s0.1,0.3,0.1,0.5c0.1-0.5,0.3-1.3,0.6-2.4l1.5-5.2h0.7l1.7,6
		c0.2,0.7,0.3,1.2,0.4,1.7c0-0.3,0.1-0.6,0.2-0.9s0.7-2.6,1.8-6.7h0.6L427.3,359.4L427.3,359.4z M439.3,355.1c0,1.4-0.3,2.4-1,3.2
		s-1.6,1.2-2.8,1.2c-1.2,0-2.1-0.4-2.8-1.2s-1-1.9-1-3.2c0-1.4,0.3-2.4,1-3.2s1.6-1.2,2.8-1.2c1.2,0,2.1,0.4,2.8,1.2
		S439.3,353.7,439.3,355.1L439.3,355.1z M432.3,355.1c0,1.2,0.3,2.2,0.8,2.8s1.3,1,2.4,1c1,0,1.8-0.3,2.4-1s0.8-1.6,0.8-2.9
		c0-1.2-0.3-2.2-0.8-2.8s-1.3-1-2.4-1c-1,0-1.8,0.3-2.4,1S432.3,353.9,432.3,355.1L432.3,355.1z M442.8,355.7v3.7h-0.6v-8.6h2
		c1.1,0,1.8,0.2,2.4,0.6s0.8,1,0.8,1.8c0,0.6-0.1,1.1-0.5,1.5s-0.8,0.7-1.4,0.9l2.3,3.9h-0.7l-2.2-3.7L442.8,355.7L442.8,355.7z
		 M442.8,355.2h1.6c0.7,0,1.3-0.2,1.7-0.5s0.6-0.8,0.6-1.4c0-0.7-0.2-1.1-0.6-1.4s-1-0.4-1.9-0.4h-1.4L442.8,355.2L442.8,355.2z
		 M456,359.4h-0.7l-3.3-4.5l-1.1,1v3.5h-0.6v-8.6h0.6v4.5l1-1l3.4-3.5h0.8l-3.5,3.6L456,359.4L456,359.4z M458.1,359.4v-8.6h0.6v8.6
		H458.1z M468.2,359.4h-0.6l-5.1-7.6h0c0,0.9,0.1,1.6,0.1,2v5.6H462v-8.6h0.6l5.1,7.6h0c0-0.7-0.1-1.4-0.1-2v-5.6h0.6L468.2,359.4
		L468.2,359.4z M474.9,355.1h3.2v3.9c-0.8,0.4-1.8,0.5-2.8,0.5c-1.4,0-2.4-0.4-3.1-1.1s-1.1-1.8-1.1-3.2c0-0.9,0.2-1.6,0.5-2.3
		s0.9-1.2,1.5-1.6s1.4-0.5,2.3-0.5c0.9,0,1.8,0.2,2.5,0.5l-0.2,0.5c-0.7-0.3-1.5-0.5-2.3-0.5c-1.1,0-2,0.4-2.7,1s-1,1.6-1,2.8
		c0,1.3,0.3,2.3,0.9,2.9s1.6,1,2.8,1c0.8,0,1.5-0.1,2-0.3v-3h-2.5L474.9,355.1L474.9,355.1z M491.4,359.4h-0.6v-4.2h-5v4.2h-0.6
		v-8.6h0.6v3.8h5v-3.8h0.6L491.4,359.4L491.4,359.4z M501,350.8v5.5c0,1-0.3,1.8-0.9,2.3s-1.4,0.8-2.4,0.8c-1,0-1.8-0.3-2.3-0.8
		s-0.8-1.3-0.8-2.3v-5.5h0.6v5.5c0,0.8,0.2,1.5,0.7,1.9s1.1,0.7,1.9,0.7c0.8,0,1.4-0.2,1.9-0.7s0.7-1.1,0.7-1.9v-5.6H501z
		 M504.2,350.8h2.4c1.1,0,1.8,0.2,2.3,0.5s0.7,0.9,0.7,1.6c0,0.5-0.1,0.9-0.5,1.2s-0.7,0.5-1.3,0.6v0c0.7,0.1,1.2,0.3,1.5,0.6
		s0.5,0.8,0.5,1.4c0,0.8-0.3,1.4-0.8,1.8s-1.3,0.6-2.2,0.6h-2.6L504.2,350.8L504.2,350.8z M504.8,354.7h1.9c0.8,0,1.4-0.1,1.8-0.4
		s0.5-0.7,0.5-1.3s-0.2-1-0.6-1.2s-1-0.4-1.8-0.4h-1.7L504.8,354.7L504.8,354.7z M504.8,355.2v3.7h2c1.6,0,2.4-0.6,2.4-1.9
		c0-1.2-0.8-1.8-2.5-1.8L504.8,355.2L504.8,355.2z M660.7,339.4h-6.6V328h6.6v2h-4.2v2.5h3.9v2h-3.9v2.9h4.2L660.7,339.4
		L660.7,339.4z M671.4,339.4H669v-5.1c0-0.6-0.1-1.1-0.3-1.4s-0.6-0.5-1.1-0.5c-0.7,0-1.1,0.2-1.4,0.7s-0.4,1.2-0.4,2.2v4.1h-2.4
		v-8.7h1.8l0.3,1.1h0.1c0.3-0.4,0.6-0.7,1.1-1s1-0.3,1.6-0.3c1,0,1.8,0.3,2.3,0.8s0.8,1.3,0.8,2.4L671.4,339.4L671.4,339.4z
		 M680.3,336.8c0,0.9-0.3,1.6-0.9,2s-1.6,0.7-2.8,0.7c-0.6,0-1.2,0-1.6-0.1s-0.9-0.2-1.3-0.4v-2c0.4,0.2,0.9,0.4,1.5,0.5
		s1,0.2,1.5,0.2c0.9,0,1.3-0.2,1.3-0.8c0-0.2-0.1-0.3-0.2-0.5s-0.3-0.2-0.6-0.4s-0.7-0.3-1.1-0.5c-0.7-0.3-1.2-0.5-1.5-0.8
		s-0.5-0.5-0.7-0.8s-0.2-0.7-0.2-1.1c0-0.8,0.3-1.4,0.9-1.8s1.5-0.6,2.6-0.6c1.1,0,2.1,0.2,3.1,0.7l-0.7,1.7
		c-0.4-0.2-0.8-0.3-1.2-0.5s-0.8-0.2-1.2-0.2c-0.7,0-1.1,0.2-1.1,0.6c0,0.2,0.1,0.4,0.3,0.6s0.7,0.4,1.5,0.7
		c0.7,0.3,1.2,0.5,1.5,0.8s0.6,0.5,0.7,0.8S680.3,336.4,680.3,336.8L680.3,336.8z M687.4,339.6c-1,0-1.8-0.4-2.4-1.1h-0.1
		c0.1,0.7,0.1,1.2,0.1,1.3v3.5h-2.4v-12.6h1.9l0.3,1.1h0.1c0.6-0.9,1.4-1.3,2.5-1.3c1,0,1.8,0.4,2.4,1.2s0.9,1.9,0.9,3.3
		c0,0.9-0.1,1.7-0.4,2.4s-0.7,1.2-1.2,1.6S688.1,339.6,687.4,339.6L687.4,339.6z M686.7,332.4c-0.6,0-1,0.2-1.3,0.5s-0.4,1-0.4,1.8
		v0.3c0,0.9,0.1,1.6,0.4,2s0.7,0.6,1.3,0.6c1.1,0,1.6-0.9,1.6-2.6c0-0.9-0.1-1.5-0.4-1.9S687.2,332.4,686.7,332.4L686.7,332.4z
		 M693,328.4c0-0.8,0.4-1.2,1.3-1.2s1.3,0.4,1.3,1.2c0,0.4-0.1,0.7-0.3,0.9s-0.5,0.3-1,0.3C693.4,329.6,693,329.2,693,328.4z
		 M695.5,339.4h-2.4v-8.7h2.4V339.4z M703.3,330.5c0.3,0,0.6,0,0.8,0.1l-0.2,2.2c-0.2-0.1-0.4-0.1-0.7-0.1c-0.8,0-1.4,0.2-1.8,0.6
		s-0.6,0.9-0.6,1.6v4.4h-2.4v-8.7h1.8l0.4,1.5h0.1c0.3-0.5,0.6-0.9,1.1-1.2S702.7,330.5,703.3,330.5L703.3,330.5z M711.6,339.4
		l-0.5-1.2h-0.1c-0.4,0.5-0.8,0.9-1.2,1s-1,0.3-1.7,0.3c-0.8,0-1.5-0.2-2-0.7s-0.7-1.2-0.7-2c0-0.9,0.3-1.6,1-2s1.6-0.7,2.9-0.7
		l1.5,0v-0.4c0-0.9-0.5-1.3-1.4-1.3c-0.7,0-1.5,0.2-2.5,0.6l-0.8-1.6c1-0.5,2.1-0.8,3.3-0.8c1.2,0,2.1,0.3,2.7,0.8s0.9,1.3,0.9,2.3
		v5.8L711.6,339.4L711.6,339.4z M710.9,335.4l-0.9,0c-0.7,0-1.2,0.1-1.5,0.4s-0.5,0.6-0.5,1c0,0.7,0.4,1,1.2,1c0.6,0,1-0.2,1.3-0.5
		s0.5-0.7,0.5-1.3V335.4L710.9,335.4z M718.5,339.4h-2.4v-12.2h2.4V339.4z M728.6,335v4.4h-2.4V328h3.3c1.6,0,2.7,0.3,3.4,0.8
		s1.1,1.4,1.1,2.6c0,0.7-0.2,1.3-0.6,1.8s-0.9,0.9-1.6,1.2c1.7,2.6,2.8,4.2,3.4,5h-2.7l-2.7-4.4L728.6,335L728.6,335z M728.6,333.1
		h0.8c0.8,0,1.3-0.1,1.7-0.4s0.5-0.7,0.5-1.2c0-0.5-0.2-0.9-0.6-1.2s-0.9-0.3-1.7-0.3h-0.7L728.6,333.1L728.6,333.1z M740.9,339.6
		c-1.4,0-2.5-0.4-3.3-1.2s-1.2-1.9-1.2-3.3c0-1.5,0.4-2.6,1.1-3.4s1.7-1.2,3-1.2c1.2,0,2.2,0.4,2.9,1.1s1,1.7,1,2.9v1.2h-5.6
		c0,0.7,0.2,1.2,0.6,1.6s0.9,0.6,1.6,0.6c0.5,0,1-0.1,1.5-0.2s1-0.3,1.5-0.5v1.8c-0.4,0.2-0.9,0.4-1.3,0.5S741.5,339.6,740.9,339.6
		L740.9,339.6z M740.5,332.2c-0.5,0-0.9,0.2-1.2,0.5s-0.5,0.8-0.5,1.4h3.3c0-0.6-0.2-1-0.5-1.4S741,332.2,740.5,332.2L740.5,332.2z
		 M750.4,337.7c0.4,0,0.9-0.1,1.5-0.3v1.8c-0.6,0.3-1.3,0.4-2.2,0.4c-1,0-1.6-0.2-2.1-0.7s-0.7-1.2-0.7-2.2v-4.2h-1.1v-1l1.3-0.8
		l0.7-1.8h1.5v1.9h2.4v1.8h-2.4v4.2c0,0.3,0.1,0.6,0.3,0.8S750.1,337.7,750.4,337.7L750.4,337.7z M759,330.5c0.3,0,0.6,0,0.8,0.1
		l-0.2,2.2c-0.2-0.1-0.4-0.1-0.7-0.1c-0.8,0-1.4,0.2-1.8,0.6s-0.6,0.9-0.6,1.6v4.4h-2.4v-8.7h1.8l0.4,1.5h0.1
		c0.3-0.5,0.6-0.9,1.1-1.2S758.4,330.5,759,330.5L759,330.5z M765.7,339.6c-1.4,0-2.5-0.4-3.3-1.2s-1.2-1.9-1.2-3.3
		c0-1.5,0.4-2.6,1.1-3.4s1.7-1.2,3-1.2c1.2,0,2.2,0.4,2.9,1.1s1,1.7,1,2.9v1.2h-5.6c0,0.7,0.2,1.2,0.6,1.6s0.9,0.6,1.6,0.6
		c0.5,0,1-0.1,1.5-0.2s1-0.3,1.5-0.5v1.8c-0.4,0.2-0.9,0.4-1.3,0.5S766.4,339.6,765.7,339.6L765.7,339.6z M765.4,332.2
		c-0.5,0-0.9,0.2-1.2,0.5s-0.5,0.8-0.5,1.4h3.3c0-0.6-0.2-1-0.5-1.4S765.9,332.2,765.4,332.2L765.4,332.2z M777.2,339.4l-0.5-1.2
		h-0.1c-0.4,0.5-0.8,0.9-1.2,1s-1,0.3-1.7,0.3c-0.8,0-1.5-0.2-2-0.7s-0.7-1.2-0.7-2c0-0.9,0.3-1.6,1-2s1.6-0.7,2.9-0.7l1.5,0v-0.4
		c0-0.9-0.5-1.3-1.4-1.3c-0.7,0-1.5,0.2-2.5,0.6l-0.8-1.6c1-0.5,2.1-0.8,3.3-0.8c1.2,0,2.1,0.3,2.7,0.8s0.9,1.3,0.9,2.3v5.8
		L777.2,339.4L777.2,339.4z M776.5,335.4l-0.9,0c-0.7,0-1.2,0.1-1.5,0.4s-0.5,0.6-0.5,1c0,0.7,0.4,1,1.2,1c0.6,0,1-0.2,1.3-0.5
		s0.5-0.7,0.5-1.3L776.5,335.4L776.5,335.4z M785.4,337.7c0.4,0,0.9-0.1,1.5-0.3v1.8c-0.6,0.3-1.3,0.4-2.2,0.4c-1,0-1.6-0.2-2.1-0.7
		s-0.7-1.2-0.7-2.2v-4.2h-1.1v-1l1.3-0.8l0.7-1.8h1.5v1.9h2.4v1.8h-2.4v4.2c0,0.3,0.1,0.6,0.3,0.8S785.1,337.7,785.4,337.7
		L785.4,337.7z M671.9,359.4h-4.7v-8.6h4.7v0.5h-4.1v3.2h3.9v0.6h-3.9v3.7h4.1L671.9,359.4L671.9,359.4z M679.8,350.8h0.7l-3.2,8.6
		h-0.5l-3.2-8.6h0.6l2.2,5.8c0.3,0.9,0.5,1.5,0.7,2c0.1-0.3,0.2-0.7,0.5-1.4L679.8,350.8L679.8,350.8z M687.3,359.4h-4.7v-8.6h4.7
		v0.5h-4.1v3.2h3.9v0.6h-3.9v3.7h4.1V359.4L687.3,359.4z M690.7,355.7v3.7h-0.6v-8.6h2c1.1,0,1.8,0.2,2.4,0.6s0.8,1,0.8,1.8
		c0,0.6-0.2,1.1-0.5,1.5s-0.8,0.7-1.4,0.9l2.3,3.9H695l-2.2-3.7L690.7,355.7L690.7,355.7z M690.7,355.2h1.6c0.7,0,1.3-0.2,1.7-0.5
		s0.6-0.8,0.6-1.4c0-0.7-0.2-1.1-0.6-1.4s-1-0.4-1.9-0.4h-1.4V355.2L690.7,355.2z M700.1,355.5l2.5-4.7h0.6l-2.9,5.3v3.3h-0.6v-3.3
		l-2.9-5.3h0.7L700.1,355.5L700.1,355.5z M708.9,355.8c0-1.1,0.2-2,0.5-2.8s0.7-1.3,1.3-1.7s1.2-0.5,2-0.5c0.4,0,0.7,0,1,0.1v0.5
		c-0.3-0.1-0.6-0.2-1-0.2c-1,0-1.7,0.3-2.3,1s-0.8,1.7-0.9,3h0.1c0.3-0.4,0.6-0.7,1-0.9s0.8-0.3,1.2-0.3c0.8,0,1.4,0.2,1.9,0.7
		s0.7,1.1,0.7,1.9c0,0.9-0.2,1.6-0.7,2.1s-1.1,0.8-1.9,0.8c-0.9,0-1.6-0.3-2.1-1S708.9,356.9,708.9,355.8L708.9,355.8z M711.7,359
		c0.6,0,1.1-0.2,1.5-0.6s0.5-1,0.5-1.7c0-0.7-0.2-1.2-0.5-1.5s-0.8-0.5-1.4-0.5c-0.4,0-0.8,0.1-1.1,0.3s-0.6,0.4-0.8,0.7
		s-0.3,0.6-0.3,0.9c0,0.4,0.1,0.9,0.3,1.2s0.5,0.7,0.8,1S711.3,359,711.7,359L711.7,359z M724.9,359.4l-3.2-7.9h0c0,0.5,0,1,0,1.5
		v6.4h-0.6v-8.6h0.9l3,7.5h0l3-7.5h0.9v8.6h-0.6v-6.5c0-0.5,0-0.9,0.1-1.4h0l-3.2,7.9L724.9,359.4L724.9,359.4z M739.6,355.1
		c0,1.4-0.3,2.4-1,3.2s-1.6,1.2-2.8,1.2c-1.2,0-2.1-0.4-2.8-1.2s-1-1.9-1-3.2c0-1.4,0.3-2.4,1-3.2s1.6-1.2,2.8-1.2
		c1.2,0,2.1,0.4,2.8,1.2S739.6,353.7,739.6,355.1L739.6,355.1z M732.6,355.1c0,1.2,0.3,2.2,0.8,2.8s1.3,1,2.4,1c1,0,1.8-0.3,2.4-1
		s0.8-1.6,0.8-2.9c0-1.2-0.3-2.2-0.8-2.8s-1.3-1-2.4-1c-1,0-1.8,0.3-2.4,1S732.6,353.9,732.6,355.1L732.6,355.1z M748.7,359.4h-0.6
		l-5.1-7.6h0c0,0.9,0.1,1.6,0.1,2v5.6h-0.6v-8.6h0.6l5.1,7.6h0c0-0.7-0.1-1.4-0.1-2v-5.6h0.6L748.7,359.4L748.7,359.4z M754.3,359.4
		h-0.6v-8h-2.8v-0.6h6.2v0.6h-2.8L754.3,359.4L754.3,359.4z M765.4,359.4h-0.6v-4.2h-5v4.2h-0.6v-8.6h0.6v3.8h5v-3.8h0.6
		L765.4,359.4L765.4,359.4z M773.5,357.2c0,0.7-0.3,1.3-0.8,1.7s-1.2,0.6-2.1,0.6c-1,0-1.8-0.1-2.4-0.3v-0.6
		c0.6,0.3,1.4,0.4,2.4,0.4c0.7,0,1.3-0.2,1.7-0.5s0.6-0.7,0.6-1.3c0-0.3-0.1-0.6-0.2-0.8s-0.4-0.4-0.7-0.6s-0.8-0.4-1.4-0.6
		c-0.9-0.3-1.5-0.6-1.8-1s-0.5-0.8-0.5-1.4c0-0.6,0.2-1.2,0.8-1.6s1.1-0.6,1.9-0.6c0.8,0,1.6,0.2,2.3,0.5l-0.2,0.5
		c-0.7-0.3-1.4-0.4-2-0.4c-0.6,0-1.1,0.1-1.5,0.4s-0.6,0.7-0.6,1.2c0,0.3,0.1,0.6,0.2,0.8s0.3,0.4,0.6,0.5s0.7,0.4,1.3,0.6
		c0.7,0.2,1.2,0.5,1.5,0.7s0.6,0.5,0.7,0.7S773.5,356.8,773.5,357.2L773.5,357.2z"/>
	<path class="st10" d="M339,409.5h195 M617,409.5h195"/>
	<g>
		<path class="st9" d="M557.7,133.1c0,1.4-0.3,2.4-1,3.2c-0.7,0.8-1.7,1.2-2.9,1.2c-1.3,0-2.2-0.4-2.9-1.2s-1-1.9-1-3.3
			c0-1.4,0.3-2.5,1-3.2s1.7-1.2,2.9-1.2c1.2,0,2.2,0.4,2.9,1.2S557.7,131.7,557.7,133.1L557.7,133.1z M550.9,133.1
			c0,1.2,0.2,2,0.7,2.6c0.5,0.6,1.2,0.9,2.2,0.9c1,0,1.7-0.3,2.2-0.9c0.5-0.6,0.7-1.5,0.7-2.6c0-1.2-0.2-2-0.7-2.6
			c-0.5-0.6-1.2-0.9-2.1-0.9c-1,0-1.7,0.3-2.2,0.9S550.9,131.9,550.9,133.1L550.9,133.1z M561.9,137.4h-1v-8.6h4.8v0.9h-3.8v3.1h3.6
			v0.9h-3.5L561.9,137.4L561.9,137.4z M569.2,137.4h-1v-8.6h4.8v0.9h-3.8v3.1h3.6v0.9h-3.5L569.2,137.4L569.2,137.4z M575.6,137.4
			v-8.6h1v7.7h3.8v0.9H575.6L575.6,137.4z M583.1,137.4v-8.6h1v8.6H583.1L583.1,137.4z M594.3,137.4h-1.1l-4.7-7.2h0
			c0.1,0.8,0.1,1.6,0.1,2.3v4.9h-0.9v-8.6h1.1l4.7,7.2h0c0-0.1,0-0.4-0.1-1c0-0.6,0-1,0-1.2v-4.9h0.9L594.3,137.4L594.3,137.4z
			 M602.6,137.4h-4.8v-8.6h4.8v0.9h-3.8v2.8h3.6v0.9h-3.5v3.2h3.8V137.4L602.6,137.4z"/>
	</g>
	<path class="st10" d="M339,135.5h195 M617,135.5h195"/>
	<path class="st11" d="M399,189v15 M386,189v15 M399,215v14 M386,215v14 M399,244v15 M386,244v15 M399,270v14 M386,270v14 M521,189
		v15 M508,189v15 M521,215v14 M508,215v14 M521,244v15 M508,244v15 M521,270v14 M508,270v14"/>
	<g>
		<path class="st12" d="M727.2,220.3c2.3,3.7,4.1,7.8,3.6,12.4c-0.1,1.2-0.8,2.5-1.5,3.6c-1.4,2.2-3,4.2-4.5,6.4
			c-3.3-1.9-5.2-6.7-3.8-10.7c0.9-2.4,2.4-4.5,3.6-6.8C725.4,223.7,726.2,222.1,727.2,220.3L727.2,220.3z M731.6,227.8
			c3,2.6,4.2,8.6,2.4,11.4c-0.7,1.1-2,1.9-3.2,2.6c-1.1,0.6-2.4,0.7-3.9,1.1c0.2-0.9,0.3-1.6,0.5-2.2c0.3-0.6,0.7-1.3,1.2-1.8
			C731.3,235.8,733,232.5,731.6,227.8L731.6,227.8z M722.8,242.8c-3.1,0-5.1-1.5-5.9-4.1c-0.7-2.3,0.3-5.1,2.6-6.7
			C719,236,718.7,240.1,722.8,242.8L722.8,242.8z M727.1,244.7c2.1-0.5,4.2-1.1,6.3-1.5c0.4-0.1,1,0.7,1.5,1.1
			c-0.4,0.4-0.6,0.9-1.1,1.1c-2.3,1.1-4.5,0.7-6.7-0.3C727.1,245,727.1,244.8,727.1,244.7L727.1,244.7z M718.6,248.2
			c0,0.1,0,0.1,0,0.1c-0.3,0.1-0.7,0.3-1,0.4c-0.4,0.1-0.7,0.3-1,0.5c-0.2,0.1-0.4,0.2-0.6,0.3c-0.3,0.1-0.3,0.4-0.2,0.6
			c0,0.1,0,0.3,0,0.4c0.1,0.1,0.2,0.2,0.3,0.3c0,0.4,0.3,0.8,0.9,1.2c0.1,0.1,0.2,0.1,0.3,0.2c0.2,0,0.3-0.1,0.5-0.3
			c0.2-0.1,0.4-0.2,0.6-0.3c1-0.3,2-0.9,2.8-1.4c0.1,0,0.1-0.1,0.1-0.1c0.8-0.4,0.9-0.4,1.8-0.9C721.1,248.6,720.2,247,718.6,248.2
			L718.6,248.2z M734.4,250.5c0.8-0.8,1.3-1.8,0.6-2.6c0,0,0,0,0,0c-0.6-0.1-1.1-0.3-1.7-0.3c-0.1,0-0.2,0-0.4,0
			c-0.3-0.1-0.4-0.2-0.5-0.5c-2.3-0.6-4.7-1.3-7.1-1.8c-2.2-0.5-4.4-0.7-6.6-1c-1.2-0.2-1.3,0.7-1.5,1.5c-0.2,1,0.5,1.1,1.3,1.2
			c1.3,0.2,2.7,0.5,4,0.8c3,0.7,6,1.5,9,2.2C732.2,250.5,733.4,250.8,734.4,250.5L734.4,250.5z"/>
	</g>
	<path class="st9" d="M483.2,511H354.6c-0.2,0-0.6-0.9-0.6-0.7v74c0,0.2,0.4,0.7,0.6,0.7H407v7h-16v7h55v-7h-17v-7h54.2
		c0.2,0-0.2-0.5-0.2-0.7v-74C483,510.1,483.4,511,483.2,511z"/>
	<g>
		<path class="st9" d="M625.2,506.7h-81.8c-0.1-1.5-0.3-2.7-0.3-4c0-14.2,0-28.4,0-42.6c0-6.4,2.1-8.7,8.4-8.7c21.9,0,43.8,0,65.7,0
			c5.8,0,8,2.4,8,8.1C625.3,475.1,625.3,490.6,625.2,506.7L625.2,506.7z M526.7,510.1h115c1.3,4.8,0.8,5.5-5.2,6.1
			c-3.3,0.4-6.8,0.4-10.2,0.4c-28.5,0-57,0-85.6,0c-3,0-5.9,0-8.8-0.4C526,515.6,525.5,515,526.7,510.1L526.7,510.1z"/>
	</g>
	<g>
		<path class="st9" d="M812.8,584.3c0,0.2,0.6,0.4,0.4,0.4h-54.4v7h17v7h-55v-7h16v-7h-52.2c-0.2,0-0.8-0.2-0.8-0.4v-74
			c0-0.2,0.6,0.5,0.8,0.5h128.2V584.3z M808.8,578.7v-64h-120v64H808.8z M812.8,510.3c0-0.2,0.6,0.5,0.4,0.5h-0.4V510.3z"/>
		<path class="st3" d="M688.8,514.7h120v64h-120V514.7z"/>
		<path class="st5" d="M620.8,456.2v46h-73.4v-46H620.8z"/>
		<path class="st4" d="M358.8,514.7h120v64h-120V514.7z"/>
	</g>
	<path class="st13" d="M533.8,473.2c0,0-44.3,1.6-80,26.6"/>
	<path class="st14" d="M628.5,484.4"/>
	<g>
		<circle id="a" class="st15" cx="380.1" cy="548.1" r="11"/>
	</g>
	<g>
		<defs>
			<circle id="SVGID_1_" cx="380.1" cy="548.1" r="11"/>
		</defs>
		<clipPath id="SVGID_2_">
			<use xlink:href="#SVGID_1_"  style="overflow:visible;"/>
		</clipPath>
		<g class="st16">
			<ellipse class="st17" cx="380" cy="576.3" rx="7.6" ry="2.5"/>
			<g>
				<path class="st5" d="M375.6,552.3c3.1,2.2,5.4,2.2,9,0c1.4,1.8,1.9,3.7,2.2,5.9c0.1,0.8,0.4,2.8,0.3,3.6c-0.1,2-0.5,2-1,2.4
					c-0.2,0.2-0.3,0.5-0.4,0.8c-0.3,2.4-0.8,4.7-0.9,7.1c-0.2,3.6-4.2,4.8-6.6,3.8c-1.7-0.7-2.7-1.8-2.9-3.7c-0.2-2.4-0.6-4.8-1-7.2
					c-0.1-0.4,0-0.9-0.5-1c0,0-1-0.4-1-2.1c0-3.1,0.5-6.2,2.1-8.9C375.1,552.8,375.5,552.4,375.6,552.3L375.6,552.3z M385.3,547.5
					c0,2.9-2.5,5.2-5.3,5.2c-2.9,0-5.2-2.5-5.2-5.4c0-2.9,2.4-5.2,5.3-5.2C383.1,542.1,385.4,544.5,385.3,547.5L385.3,547.5z"/>
			</g>
		</g>
	</g>
	<g>
		<circle id="a_1_" class="st18" cx="380.1" cy="548.1" r="11"/>
	</g>
	<g>
		<circle id="c" class="st15" cx="562.1" cy="477.1" r="9"/>
	</g>
	<g>
		<defs>
			<circle id="SVGID_3_" cx="562.1" cy="477.1" r="9"/>
		</defs>
		<clipPath id="SVGID_4_">
			<use xlink:href="#SVGID_3_"  style="overflow:visible;"/>
		</clipPath>
		<g class="st19">
			<ellipse class="st17" cx="562" cy="500.2" rx="6.2" ry="2.1"/>
			<g>
				<path class="st2" d="M558.5,480.5c2.6,1.8,4.4,1.8,7.3,0c1.1,1.4,1.5,3.1,1.8,4.8c0.1,0.7,0.3,2.3,0.3,3c-0.1,1.6-0.4,1.7-0.9,2
					c-0.2,0.1-0.3,0.4-0.3,0.7c-0.3,1.9-0.7,3.9-0.8,5.8c-0.1,3-3.4,3.9-5.4,3.1c-1.4-0.6-2.2-1.5-2.3-3c-0.2-2-0.5-3.9-0.8-5.9
					c0-0.3,0-0.7-0.4-0.8c0,0-0.8-0.3-0.8-1.7c0-2.6,0.4-5,1.7-7.3C558,481,558.4,480.6,558.5,480.5L558.5,480.5z M566.4,476.6
					c0,2.3-2,4.3-4.3,4.2c-2.4,0-4.3-2-4.2-4.4c0-2.3,2-4.2,4.3-4.2C564.5,472.2,566.4,474.2,566.4,476.6L566.4,476.6z"/>
			</g>
		</g>
	</g>
	<g>
		<circle id="c_1_" class="st18" cx="562.1" cy="477.1" r="9"/>
	</g>
	<g>
		<circle id="e" class="st15" cx="584.1" cy="477.1" r="9"/>
	</g>
	<g>
		<defs>
			<circle id="SVGID_5_" cx="584.1" cy="477.1" r="9"/>
		</defs>
		<clipPath id="SVGID_6_">
			<use xlink:href="#SVGID_5_"  style="overflow:visible;"/>
		</clipPath>
		<g class="st20">
			<ellipse class="st17" cx="584" cy="500.2" rx="6.2" ry="2.1"/>
			<g>
				<path class="st6" d="M580.5,480.5c2.6,1.8,4.4,1.8,7.3,0c1.1,1.4,1.5,3.1,1.8,4.8c0.1,0.7,0.3,2.3,0.3,3c-0.1,1.6-0.4,1.7-0.9,2
					c-0.2,0.1-0.3,0.4-0.3,0.7c-0.3,1.9-0.7,3.9-0.8,5.8c-0.1,3-3.4,3.9-5.4,3.1c-1.4-0.6-2.2-1.5-2.3-3c-0.2-2-0.5-3.9-0.8-5.9
					c0-0.3,0-0.7-0.4-0.8c0,0-0.8-0.3-0.8-1.7c0-2.6,0.4-5,1.7-7.3C580,481,580.4,480.6,580.5,480.5L580.5,480.5z M588.4,476.6
					c0,2.3-2,4.3-4.3,4.2c-2.4,0-4.3-2-4.2-4.4c0-2.3,2-4.2,4.3-4.2C586.5,472.2,588.4,474.2,588.4,476.6L588.4,476.6z"/>
			</g>
		</g>
	</g>
	<g>
		<circle id="e_1_" class="st18" cx="584.1" cy="477.1" r="9"/>
	</g>
	<g>
		<circle id="g" class="st15" cx="606.1" cy="477.1" r="9"/>
	</g>
	<g>
		<defs>
			<circle id="SVGID_7_" cx="606.1" cy="477.1" r="9"/>
		</defs>
		<clipPath id="SVGID_8_">
			<use xlink:href="#SVGID_7_"  style="overflow:visible;"/>
		</clipPath>
		<g class="st21">
			<ellipse class="st17" cx="606" cy="500.2" rx="6.2" ry="2.1"/>
			<g>
				<path class="st7" d="M602.5,480.5c2.6,1.8,4.4,1.8,7.3,0c1.1,1.4,1.5,3.1,1.8,4.8c0.1,0.7,0.3,2.3,0.3,3c-0.1,1.6-0.4,1.7-0.9,2
					c-0.2,0.1-0.3,0.4-0.3,0.7c-0.3,1.9-0.7,3.9-0.8,5.8c-0.1,3-3.4,3.9-5.4,3.1c-1.4-0.6-2.2-1.5-2.3-3c-0.2-2-0.5-3.9-0.8-5.9
					c0-0.3,0-0.7-0.4-0.8c0,0-0.8-0.3-0.8-1.7c0-2.6,0.4-5,1.7-7.3C602,481,602.4,480.6,602.5,480.5L602.5,480.5z M610.4,476.6
					c0,2.3-2,4.3-4.3,4.2c-2.4,0-4.3-2-4.2-4.4c0-2.3,2-4.2,4.3-4.2C608.5,472.2,610.4,474.2,610.4,476.6L610.4,476.6z"/>
			</g>
		</g>
	</g>
	<g>
		<circle id="g_1_" class="st18" cx="606.1" cy="477.1" r="9"/>
	</g>
	<g>
		<circle id="i" class="st15" cx="788.1" cy="547.1" r="11"/>
	</g>
	<g>
		<defs>
			<circle id="SVGID_9_" cx="788.1" cy="547.1" r="11"/>
		</defs>
		<clipPath id="SVGID_10_">
			<use xlink:href="#SVGID_9_"  style="overflow:visible;"/>
		</clipPath>
		<g class="st22">
			<ellipse class="st17" cx="788" cy="575.3" rx="7.6" ry="2.5"/>
			<g>
				<path class="st4" d="M783.6,551.8c3.1,2.2,5.4,2.2,9,0c1.4,1.8,1.9,3.7,2.2,5.9c0.1,0.8,0.4,2.8,0.3,3.6c-0.1,2-0.5,2-1,2.4
					c-0.2,0.2-0.3,0.5-0.4,0.8c-0.3,2.4-0.8,4.7-0.9,7.1c-0.2,3.6-4.2,4.8-6.6,3.8c-1.7-0.7-2.7-1.8-2.9-3.7c-0.2-2.4-0.6-4.8-1-7.2
					c-0.1-0.4,0-0.9-0.5-1c0,0-1-0.4-1-2.1c0-3.1,0.5-6.2,2.1-8.9C783.1,552.3,783.5,551.9,783.6,551.8L783.6,551.8z M793.3,547
					c0,2.9-2.5,5.2-5.3,5.2c-2.9,0-5.2-2.5-5.2-5.4c0-2.9,2.4-5.2,5.3-5.2C791.1,541.6,793.4,544,793.3,547L793.3,547z"/>
			</g>
		</g>
	</g>
	<g>
		<circle id="i_1_" class="st18" cx="788.1" cy="547.1" r="11"/>
	</g>
	<g>
		<path class="st23" d="M465.5,556.5h-67v-5.3l-4-4.5l4-4v-4.2h67V556.5z"/>
		<path class="st1" d="M405,543h36v3h-36V543z M405,549h20v3h-20V549z"/>
	</g>
	<g>
		<path class="st23" d="M700.5,556.5h67v-5.3l4-4.5l-4-4v-4.2h-67V556.5z"/>
		<path class="st1" d="M707,543h54v3h-54V543z M707,549h29v3h-29V549z"/>
	</g>
	<path class="st24" d="M490.8,591.7c97.7,43,188,0,188,0"/>
	<path class="st14" d="M634.8,472.4c0,0,44.3,1.6,80,26.6"/>
</g>
<text transform="matrix(1 0 0 1 510.7289 666.4071)" class="st25 st26">協作空間</text>
<text transform="matrix(1 0 0 1 374.5002 169.5305)" class="st27 st28">共同工作中心</text>
<text transform="matrix(1 0 0 1 650.6586 169.5305)" class="st27 st28">半年一次避靜</text>
</svg>
