<?xml version="1.0" encoding="utf-8"?>
<!-- Generator: Adobe Illustrator 19.1.0, SVG Export Plug-In . SVG Version: 6.00 Build 0)  -->
<!DOCTYPE svg PUBLIC "-//W3C//DTD SVG 1.1//EN" "http://www.w3.org/Graphics/SVG/1.1/DTD/svg11.dtd">
<svg version="1.1" id="圖層_1" xmlns="http://www.w3.org/2000/svg" xmlns:xlink="http://www.w3.org/1999/xlink" x="0px" y="0px"
	 viewBox="139 25.1 889 742.9" style="enable-background:new 139 25.1 889 742.9;" xml:space="preserve">
<style type="text/css">
	.st0{fill:none;stroke:#424242;stroke-width:4;stroke-miterlimit:10;}
	.st1{enable-background:new    ;}
	.st2{fill:#D6D6D6;}
	.st3{fill:#EFEFEF;}
	.st4{fill:#FFFFFF;}
	.st5{fill:#EAEAEA;}
	.st6{fill:#00D096;}
	.st7{fill:#00ACD0;}
	.st8{fill:#E95A78;}
	.st9{fill:#80529B;}
	.st10{fill:#4F4E4E;}
	.st11{opacity:0.35;}
	.st12{fill:#C2C2C4;}
	.st13{fill:#FFA800;}
	.st14{fill:#F2F2F2;}
	.st15{fill:none;stroke:#00D096;stroke-miterlimit:10;}
	.st16{fill:none;stroke:#00D096;stroke-miterlimit:10;stroke-dasharray:4,2;}
	.st17{fill:#F2F2F2;stroke:#00D096;stroke-miterlimit:10;}
	.st18{fill:none;}
	.st19{fill:none;stroke:#FFA800;stroke-miterlimit:10;}
	.st20{fill:none;stroke:#FFA800;stroke-miterlimit:10;stroke-dasharray:4,2;}
	.st21{fill:none;stroke:#E95A78;stroke-miterlimit:10;}
	.st22{fill:none;stroke:#E95A78;stroke-miterlimit:10;stroke-dasharray:4,2;}
	.st23{fill:#F2F2F2;stroke:#E95A78;stroke-miterlimit:10;}
	.st24{fill:none;stroke:#00D096;stroke-miterlimit:10;stroke-dasharray:3.9868,1.9934;}
	.st25{fill:none;stroke:#00D096;stroke-miterlimit:10;stroke-dasharray:5,2;}
	.st26{fill:none;stroke:#FFA800;stroke-miterlimit:10;stroke-dasharray:3.9643,1.9821;}
	.st27{fill:none;stroke:#FFA800;stroke-miterlimit:10;stroke-dasharray:3,2;}
	.st28{fill:#F2F2F2;stroke:#FFA800;stroke-miterlimit:10;}
	.st29{fill:#FFFFFF;stroke:#D6D6D6;stroke-miterlimit:10;}
	.st30{font-family:'SourceHanSansTW-Bold-B5pc-H';}
	.st31{font-size:36px;}
	.st32{font-family:'SourceHanSansTW-Light-B5pc-H';}
	.st33{font-size:24px;}
</style>
<g>
	<path d="M431.8,631.7c-1.5,0-2.6,0.5-3.5,1.6s-1.3,2.5-1.3,4.3c0,1.9,0.4,3.4,1.2,4.4c0.8,1,2,1.5,3.5,1.5c0.7,0,1.3-0.1,1.9-0.2
		c0.6-0.1,1.3-0.3,1.9-0.5v2.2c-1.2,0.5-2.6,0.7-4.2,0.7c-2.3,0-4.1-0.7-5.3-2.1c-1.2-1.4-1.8-3.4-1.8-6c0-1.6,0.3-3.1,0.9-4.3
		c0.6-1.2,1.5-2.2,2.6-2.8s2.5-1,4-1c1.6,0,3.1,0.3,4.4,1l-0.9,2.1c-0.5-0.2-1.1-0.5-1.7-0.7C433.1,631.8,432.4,631.7,431.8,631.7
		L431.8,631.7z M449.3,639.5c0,1.9-0.5,3.5-1.5,4.5s-2.4,1.6-4.2,1.6c-1.1,0-2.1-0.2-2.9-0.8s-1.5-1.2-2-2.2s-0.7-2-0.7-3.3
		c0-1.9,0.5-3.4,1.5-4.5s2.4-1.6,4.2-1.6c1.7,0,3.1,0.6,4.1,1.7C448.8,636.1,449.3,637.6,449.3,639.5L449.3,639.5z M440.7,639.5
		c0,2.7,1,4.1,3,4.1c2,0,3-1.4,3-4.1c0-2.7-1-4.1-3-4.1c-1.1,0-1.8,0.3-2.3,1.1S440.7,638.2,440.7,639.5L440.7,639.5z M454.7,645.5
		h-2.5v-16.7h2.5V645.5z M460.9,645.5h-2.5v-16.7h2.5L460.9,645.5L460.9,645.5z M471.9,645.5l-0.5-1.7h-0.1
		c-0.6,0.7-1.1,1.2-1.7,1.5c-0.6,0.3-1.3,0.4-2.2,0.4c-1.2,0-2.1-0.3-2.7-0.9s-1-1.5-1-2.7c0-1.2,0.5-2.1,1.4-2.8s2.3-1,4.2-1
		l2.1-0.1v-0.6c0-0.8-0.2-1.3-0.5-1.7c-0.4-0.4-0.9-0.6-1.6-0.6c-0.6,0-1.2,0.1-1.8,0.3s-1.1,0.4-1.6,0.6l-0.8-1.8
		c0.6-0.3,1.4-0.6,2.1-0.8c0.8-0.2,1.5-0.3,2.2-0.3c1.5,0,2.6,0.3,3.4,1c0.8,0.7,1.2,1.7,1.2,3.1v8L471.9,645.5L471.9,645.5z
		 M468.2,643.7c0.9,0,1.7-0.3,2.2-0.8c0.6-0.5,0.8-1.2,0.8-2.2v-1l-1.5,0.1c-1.2,0-2.1,0.2-2.6,0.6c-0.5,0.4-0.8,0.9-0.8,1.6
		c0,0.5,0.2,0.9,0.5,1.2C467.1,643.6,467.5,643.7,468.2,643.7L468.2,643.7z M483.3,633.4c1.5,0,2.6,0.5,3.5,1.6s1.2,2.6,1.2,4.5
		c0,1.9-0.4,3.5-1.3,4.5c-0.8,1.1-2,1.6-3.5,1.6c-1.5,0-2.7-0.5-3.5-1.6h-0.2l-0.5,1.4h-1.9v-16.7h2.5v4c0,0.3,0,0.7,0,1.3
		s0,1-0.1,1.1h0.1C480.6,634,481.7,633.4,483.3,633.4L483.3,633.4z M482.7,635.4c-1,0-1.8,0.3-2.2,0.9c-0.4,0.6-0.7,1.6-0.7,3v0.2
		c0,1.4,0.2,2.5,0.7,3.1c0.5,0.6,1.2,1,2.2,1c0.9,0,1.6-0.4,2-1.1s0.7-1.7,0.7-3.1C485.4,636.8,484.5,635.4,482.7,635.4L482.7,635.4
		z M501.5,639.5c0,1.9-0.5,3.5-1.5,4.5s-2.4,1.6-4.2,1.6c-1.1,0-2.1-0.2-2.9-0.8s-1.5-1.2-2-2.2s-0.7-2-0.7-3.3
		c0-1.9,0.5-3.4,1.5-4.5s2.4-1.6,4.2-1.6c1.7,0,3.1,0.6,4.1,1.7C501,636.1,501.5,637.6,501.5,639.5L501.5,639.5z M492.8,639.5
		c0,2.7,1,4.1,3,4.1c2,0,3-1.4,3-4.1c0-2.7-1-4.1-3-4.1c-1.1,0-1.8,0.3-2.3,1.1C493.1,637.2,492.8,638.2,492.8,639.5L492.8,639.5z
		 M510.4,633.4c0.5,0,0.9,0,1.3,0.1l-0.2,2.4c-0.4-0.1-0.7-0.1-1.1-0.1c-1,0-1.8,0.3-2.5,1c-0.6,0.7-0.9,1.5-0.9,2.6v6.2h-2.5v-11.9
		h2l0.3,2.1h0.1c0.4-0.7,0.9-1.3,1.5-1.7S509.7,633.4,510.4,633.4L510.4,633.4z M521.3,645.5l-0.5-1.7h-0.1
		c-0.6,0.7-1.1,1.2-1.7,1.5c-0.6,0.3-1.3,0.4-2.2,0.4c-1.2,0-2.1-0.3-2.7-0.9s-1-1.5-1-2.7c0-1.2,0.5-2.1,1.4-2.8
		c0.9-0.6,2.3-1,4.2-1l2.1-0.1v-0.6c0-0.8-0.2-1.3-0.5-1.7c-0.4-0.4-0.9-0.6-1.6-0.6c-0.6,0-1.2,0.1-1.8,0.3
		c-0.6,0.2-1.1,0.4-1.6,0.6l-0.8-1.8c0.6-0.3,1.3-0.6,2.1-0.8c0.8-0.2,1.5-0.3,2.2-0.3c1.5,0,2.7,0.3,3.4,1c0.8,0.7,1.2,1.7,1.2,3.1
		v8L521.3,645.5L521.3,645.5z M517.5,643.7c0.9,0,1.7-0.3,2.2-0.8c0.6-0.5,0.8-1.2,0.8-2.2v-1l-1.5,0.1c-1.2,0-2.1,0.2-2.6,0.6
		c-0.5,0.4-0.8,0.9-0.8,1.6c0,0.5,0.2,0.9,0.5,1.2C516.4,643.6,516.9,643.7,517.5,643.7L517.5,643.7z M531.1,643.6
		c0.6,0,1.2-0.1,1.9-0.3v1.9c-0.3,0.1-0.6,0.2-1.1,0.3c-0.4,0.1-0.9,0.1-1.4,0.1c-2.4,0-3.6-1.3-3.6-3.8v-6.4h-1.6v-1.1l1.7-0.9
		l0.9-2.5h1.6v2.6h3.4v1.9h-3.4v6.4c0,0.6,0.2,1.1,0.5,1.3C530.2,643.5,530.6,643.6,531.1,643.6L531.1,643.6z M535.1,630.4
		c0-0.5,0.1-0.8,0.4-1c0.2-0.2,0.6-0.4,1.1-0.4c0.4,0,0.8,0.1,1,0.4s0.4,0.6,0.4,1c0,0.4-0.1,0.8-0.4,1c-0.2,0.2-0.6,0.4-1,0.4
		c-0.5,0-0.8-0.1-1.1-0.4C535.3,631.2,535.1,630.9,535.1,630.4L535.1,630.4z M537.8,645.5h-2.5v-11.9h2.5V645.5z M544.1,645.5
		l-4.5-11.9h2.7l2.4,6.9c0.4,1.2,0.7,2.1,0.8,2.8h0.1c0.1-0.5,0.3-1.5,0.8-2.8l2.4-6.9h2.7l-4.5,11.9L544.1,645.5L544.1,645.5z
		 M558.4,645.7c-1.8,0-3.3-0.5-4.3-1.6s-1.6-2.6-1.6-4.5c0-1.9,0.5-3.5,1.5-4.6c1-1.1,2.3-1.7,4-1.7c1.6,0,2.8,0.5,3.7,1.4
		c0.9,1,1.4,2.3,1.4,3.9v1.4h-7.9c0,1.2,0.3,2,0.9,2.7c0.6,0.6,1.4,0.9,2.5,0.9c0.7,0,1.4-0.1,2-0.2c0.6-0.1,1.3-0.4,1.9-0.7v2.1
		c-0.6,0.3-1.2,0.5-1.9,0.6S559.2,645.7,558.4,645.7L558.4,645.7z M557.9,635.3c-0.8,0-1.4,0.3-1.9,0.8s-0.8,1.2-0.9,2.2h5.4
		c0-1-0.2-1.7-0.7-2.2C559.3,635.5,558.7,635.3,557.9,635.3L557.9,635.3z M584.6,637.5c0,2.6-0.7,4.6-2.2,5.9
		c-1.4,1.4-3.5,2.1-6.2,2.1h-4.4v-15.7h4.9c2.5,0,4.4,0.7,5.8,2C583.9,633.1,584.6,635,584.6,637.5L584.6,637.5z M581.9,637.5
		c0-3.8-1.8-5.6-5.3-5.6h-2.2v11.4h1.8C580,643.3,581.9,641.4,581.9,637.5L581.9,637.5z M592.9,645.7c-1.8,0-3.3-0.5-4.3-1.6
		c-1-1.1-1.6-2.6-1.6-4.5c0-1.9,0.5-3.5,1.5-4.6c1-1.1,2.3-1.7,4-1.7c1.6,0,2.8,0.5,3.7,1.4s1.4,2.3,1.4,3.9v1.4h-7.9
		c0,1.2,0.3,2,0.9,2.7c0.6,0.6,1.4,0.9,2.5,0.9c0.7,0,1.4-0.1,2-0.2c0.6-0.1,1.3-0.4,2-0.7v2.1c-0.6,0.3-1.2,0.5-1.9,0.6
		S593.7,645.7,592.9,645.7L592.9,645.7z M592.5,635.3c-0.8,0-1.4,0.3-1.9,0.8s-0.8,1.2-0.9,2.2h5.4c0-1-0.2-1.7-0.7-2.2
		C593.9,635.5,593.3,635.3,592.5,635.3L592.5,635.3z M605.2,645.7c-1.8,0-3.2-0.5-4.1-1.6c-0.9-1-1.4-2.6-1.4-4.5
		c0-2,0.5-3.5,1.5-4.6c1-1.1,2.4-1.6,4.2-1.6c1.3,0,2.4,0.2,3.4,0.7l-0.8,2c-1.1-0.4-1.9-0.6-2.6-0.6c-2.1,0-3.1,1.4-3.1,4.1
		c0,1.3,0.3,2.3,0.8,3c0.5,0.7,1.3,1,2.2,1c1.1,0,2.2-0.3,3.2-0.8v2.2c-0.5,0.3-0.9,0.5-1.4,0.6
		C606.5,645.6,605.9,645.7,605.2,645.7L605.2,645.7z M611.1,630.4c0-0.5,0.1-0.8,0.4-1c0.2-0.2,0.6-0.4,1.1-0.4c0.4,0,0.8,0.1,1,0.4
		s0.4,0.6,0.4,1c0,0.4-0.1,0.8-0.4,1c-0.2,0.2-0.6,0.4-1,0.4c-0.5,0-0.8-0.1-1.1-0.4C611.3,631.2,611.1,630.9,611.1,630.4
		L611.1,630.4z M613.8,645.5h-2.5v-11.9h2.5V645.5z M625.4,642.1c0,1.2-0.4,2-1.3,2.7c-0.8,0.6-2.1,0.9-3.6,0.9
		c-1.6,0-2.9-0.2-3.8-0.7v-2.2c1.4,0.6,2.7,1,3.9,1c1.6,0,2.3-0.5,2.3-1.4c0-0.3-0.1-0.6-0.3-0.8s-0.5-0.4-0.9-0.6
		c-0.4-0.2-0.9-0.5-1.6-0.7c-1.4-0.5-2.3-1.1-2.8-1.6c-0.5-0.5-0.7-1.2-0.7-2.1c0-1,0.4-1.8,1.2-2.4c0.8-0.6,1.9-0.8,3.3-0.8
		c1.4,0,2.7,0.3,4,0.8l-0.8,1.9c-1.3-0.5-2.4-0.8-3.2-0.8c-1.3,0-2,0.4-2,1.1c0,0.4,0.2,0.7,0.5,0.9c0.4,0.3,1.1,0.6,2.3,1.1
		c1,0.4,1.7,0.7,2.1,1c0.4,0.3,0.8,0.7,1,1.1C625.3,641,625.4,641.5,625.4,642.1L625.4,642.1z M628,630.4c0-0.5,0.1-0.8,0.4-1
		s0.6-0.4,1.1-0.4c0.4,0,0.8,0.1,1,0.4c0.2,0.2,0.4,0.6,0.4,1c0,0.4-0.1,0.8-0.4,1c-0.2,0.2-0.6,0.4-1,0.4c-0.5,0-0.8-0.1-1.1-0.4
		C628.1,631.2,628,630.9,628,630.4L628,630.4z M630.7,645.5h-2.5v-11.9h2.5V645.5z M644.8,639.5c0,1.9-0.5,3.5-1.5,4.5
		c-1,1.1-2.4,1.6-4.2,1.6c-1.1,0-2.1-0.2-2.9-0.8s-1.5-1.2-2-2.2s-0.7-2-0.7-3.3c0-1.9,0.5-3.4,1.5-4.5s2.4-1.6,4.2-1.6
		c1.7,0,3.1,0.6,4.1,1.7C644.3,636.1,644.8,637.6,644.8,639.5L644.8,639.5z M636.2,639.5c0,2.7,1,4.1,3,4.1c2,0,3-1.4,3-4.1
		c0-2.7-1-4.1-3-4.1c-1.1,0-1.8,0.3-2.3,1.1C636.4,637.2,636.2,638.2,636.2,639.5L636.2,639.5z M658.2,645.5h-2.5v-7.3
		c0-0.9-0.2-1.6-0.6-2.1c-0.4-0.5-1-0.7-1.8-0.7c-1.1,0-1.8,0.3-2.3,0.9c-0.5,0.6-0.7,1.7-0.7,3.2v5.9h-2.5v-11.9h2l0.4,1.6h0.1
		c0.4-0.6,0.9-1,1.5-1.3s1.4-0.5,2.2-0.5c2.8,0,4.3,1.5,4.3,4.3L658.2,645.5L658.2,645.5z M660.6,640.6v-2.1h5.5v2.1H660.6z
		 M675.8,645.5l-4.6-13.1h-0.1c0.1,1.9,0.2,3.8,0.2,5.5v7.6H669v-15.7h3.6l4.4,12.5h0.1l4.5-12.5h3.6v15.7h-2.5v-7.8
		c0-0.8,0-1.8,0.1-3c0-1.3,0.1-2,0.1-2.3h-0.1l-4.7,13.1L675.8,645.5L675.8,645.5z M696.5,645.5l-0.5-1.7h-0.1
		c-0.6,0.7-1.2,1.2-1.7,1.5c-0.6,0.3-1.3,0.4-2.2,0.4c-1.2,0-2.1-0.3-2.7-0.9s-1-1.5-1-2.7c0-1.2,0.5-2.1,1.4-2.8s2.3-1,4.2-1
		l2.1-0.1v-0.6c0-0.8-0.2-1.3-0.5-1.7c-0.4-0.4-0.9-0.6-1.6-0.6c-0.6,0-1.2,0.1-1.8,0.3s-1.1,0.4-1.6,0.6l-0.8-1.8
		c0.6-0.3,1.3-0.6,2.1-0.8c0.8-0.2,1.5-0.3,2.2-0.3c1.5,0,2.7,0.3,3.4,1c0.8,0.7,1.2,1.7,1.2,3.1v8L696.5,645.5L696.5,645.5z
		 M692.7,643.7c0.9,0,1.7-0.3,2.2-0.8c0.6-0.5,0.8-1.2,0.8-2.2v-1l-1.5,0.1c-1.2,0-2.1,0.2-2.6,0.6c-0.5,0.4-0.8,0.9-0.8,1.6
		c0,0.5,0.2,0.9,0.5,1.2S692.1,643.7,692.7,643.7L692.7,643.7z M704.3,639.2l1.4-1.8l3.6-3.8h2.9l-4.8,5.1l5.1,6.8h-3l-3.8-5.2
		l-1.4,1.1v4.1h-2.5v-16.7h2.5v8.2L704.3,639.2L704.3,639.2L704.3,639.2z M714.2,630.4c0-0.5,0.1-0.8,0.4-1s0.6-0.4,1.1-0.4
		c0.4,0,0.8,0.1,1,0.4s0.4,0.6,0.4,1c0,0.4-0.1,0.8-0.4,1c-0.2,0.2-0.6,0.4-1,0.4c-0.5,0-0.8-0.1-1.1-0.4
		C714.4,631.2,714.2,630.9,714.2,630.4L714.2,630.4z M716.9,645.5h-2.5v-11.9h2.5V645.5z M731,645.5h-2.5v-7.3
		c0-0.9-0.2-1.6-0.6-2.1c-0.4-0.5-1-0.7-1.8-0.7c-1.1,0-1.8,0.3-2.3,0.9s-0.7,1.7-0.7,3.2v5.9h-2.5v-11.9h2l0.4,1.6h0.1
		c0.4-0.6,0.9-1,1.5-1.3s1.4-0.5,2.2-0.5c2.8,0,4.3,1.5,4.3,4.3L731,645.5L731,645.5z M744.5,633.6v1.4l-2,0.4
		c0.2,0.2,0.3,0.6,0.5,0.9s0.2,0.8,0.2,1.2c0,1.2-0.4,2.2-1.3,2.9s-2,1.1-3.5,1.1c-0.4,0-0.7,0-1-0.1c-0.5,0.3-0.8,0.7-0.8,1.2
		c0,0.3,0.1,0.5,0.4,0.6c0.3,0.1,0.7,0.2,1.4,0.2h2.1c1.3,0,2.3,0.3,3,0.8c0.7,0.6,1,1.4,1,2.4c0,1.3-0.6,2.4-1.7,3.1
		c-1.1,0.7-2.7,1.1-4.8,1.1c-1.6,0-2.9-0.3-3.7-0.9s-1.3-1.4-1.3-2.5c0-0.7,0.2-1.3,0.7-1.8c0.5-0.5,1.1-0.8,1.9-1
		c-0.3-0.1-0.6-0.4-0.8-0.7c-0.2-0.3-0.3-0.7-0.3-1c0-0.4,0.1-0.8,0.4-1.1s0.6-0.6,1.1-0.9c-0.6-0.3-1.1-0.7-1.5-1.3
		c-0.4-0.6-0.6-1.3-0.6-2.1c0-1.3,0.4-2.3,1.2-3c0.8-0.7,2-1.1,3.5-1.1c0.3,0,0.7,0,1.1,0.1c0.4,0,0.6,0.1,0.8,0.1L744.5,633.6
		L744.5,633.6z M735.2,647.3c0,0.5,0.2,1,0.7,1.3s1.2,0.4,2.1,0.4c1.4,0,2.4-0.2,3.1-0.6s1-0.9,1-1.6c0-0.5-0.2-0.9-0.6-1.1
		c-0.4-0.2-1.1-0.3-2.1-0.3h-1.9c-0.7,0-1.3,0.2-1.7,0.5C735.4,646.3,735.2,646.7,735.2,647.3L735.2,647.3z M736.3,637.4
		c0,0.7,0.2,1.3,0.6,1.7c0.4,0.4,0.9,0.6,1.7,0.6c1.5,0,2.2-0.8,2.2-2.3c0-0.8-0.2-1.4-0.5-1.8c-0.4-0.4-0.9-0.6-1.6-0.6
		c-0.7,0-1.3,0.2-1.7,0.6S736.3,636.6,736.3,637.4L736.3,637.4z M349.1,673.6c0,1.9-0.5,3.4-1.5,4.3c-1,1-2.5,1.5-4.4,1.5h-2.7V668
		h3.1c1.8,0,3.2,0.5,4.2,1.4S349.1,671.8,349.1,673.6L349.1,673.6z M348.3,673.7c0-1.6-0.4-2.9-1.2-3.7s-2.1-1.2-3.7-1.2h-2.1v10
		h1.9C346.6,678.8,348.3,677.1,348.3,673.7L348.3,673.7z M352.3,668.6c0-0.5,0.2-0.8,0.5-0.8c0.2,0,0.3,0.1,0.4,0.2s0.1,0.3,0.1,0.6
		c0,0.2,0,0.4-0.1,0.6s-0.2,0.2-0.4,0.2C352.4,669.4,352.3,669.1,352.3,668.6L352.3,668.6z M353.2,679.5h-0.8V671h0.8L353.2,679.5
		L353.2,679.5z M358.7,679.5l-3.3-8.5h0.8l2.2,5.8c0.3,0.7,0.5,1.4,0.7,1.9h0c0.2-0.7,0.4-1.4,0.7-2l2.2-5.8h0.8l-3.3,8.5
		L358.7,679.5L358.7,679.5z M368.4,679.6c-1.2,0-2.2-0.4-2.9-1.1s-1-1.8-1-3.2c0-1.4,0.3-2.4,1-3.3s1.6-1.2,2.7-1.2
		c1,0,1.8,0.3,2.4,1s0.9,1.6,0.9,2.8v0.6h-6.1c0,1.2,0.3,2.1,0.8,2.7s1.3,0.9,2.3,0.9c0.5,0,0.9,0,1.3-0.1c0.4-0.1,0.8-0.2,1.4-0.4
		v0.7c-0.5,0.2-0.9,0.3-1.3,0.4S368.9,679.6,368.4,679.6L368.4,679.6z M368.1,671.5c-0.8,0-1.5,0.3-2,0.8c-0.5,0.5-0.8,1.3-0.9,2.3
		h5.2c0-1-0.2-1.8-0.6-2.3S368.9,671.5,368.1,671.5L368.1,671.5z M377.9,670.8c0.4,0,0.7,0,1.2,0.1l-0.1,0.7
		c-0.4-0.1-0.7-0.1-1.1-0.1c-0.7,0-1.3,0.3-1.8,0.9c-0.5,0.6-0.7,1.4-0.7,2.3v4.7h-0.8V671h0.7l0.1,1.5h0.1c0.4-0.6,0.7-1.1,1.1-1.3
		S377.3,670.8,377.9,670.8L377.9,670.8z M386.8,677.3c0,0.8-0.3,1.3-0.9,1.8c-0.6,0.4-1.4,0.6-2.5,0.6c-1.1,0-2-0.2-2.7-0.5v-0.8
		c0.9,0.4,1.8,0.6,2.7,0.6c0.8,0,1.5-0.1,1.9-0.4s0.7-0.7,0.7-1.1c0-0.4-0.2-0.8-0.5-1.1s-0.9-0.6-1.7-0.9c-0.9-0.3-1.4-0.6-1.8-0.8
		s-0.6-0.5-0.8-0.8s-0.3-0.6-0.3-1c0-0.6,0.3-1.1,0.8-1.5s1.3-0.6,2.2-0.6c0.9,0,1.8,0.2,2.6,0.5l-0.3,0.7c-0.8-0.3-1.6-0.5-2.3-0.5
		c-0.7,0-1.2,0.1-1.6,0.3c-0.4,0.2-0.6,0.5-0.6,1c0,0.4,0.2,0.8,0.5,1.1s0.9,0.6,1.8,0.9c0.8,0.3,1.3,0.5,1.7,0.7s0.6,0.5,0.8,0.8
		C386.7,676.5,386.8,676.9,386.8,677.3L386.8,677.3z M393.2,679.6c-1.2,0-2.2-0.4-2.9-1.1c-0.7-0.8-1-1.8-1-3.2c0-1.4,0.3-2.4,1-3.3
		c0.7-0.8,1.6-1.2,2.7-1.2c1,0,1.8,0.3,2.4,1s0.9,1.6,0.9,2.8v0.6h-6.1c0,1.2,0.3,2.1,0.8,2.7s1.3,0.9,2.3,0.9c0.5,0,0.9,0,1.3-0.1
		c0.4-0.1,0.8-0.2,1.4-0.4v0.7c-0.5,0.2-0.9,0.3-1.3,0.4S393.7,679.6,393.2,679.6L393.2,679.6z M393,671.5c-0.8,0-1.5,0.3-2,0.8
		s-0.8,1.3-0.9,2.3h5.2c0-1-0.2-1.8-0.6-2.3C394.4,671.8,393.8,671.5,393,671.5L393,671.5z M408,679.6c-1.3,0-2.3-0.5-2.9-1.5h-0.1
		l0,0.7c0,0.4,0,0.8,0,1.3v3.2h-0.8V671h0.7l0.1,1.2h0c0.6-0.9,1.5-1.4,2.8-1.4c1.1,0,2,0.4,2.6,1.1s0.9,1.8,0.9,3.3
		c0,1.4-0.3,2.5-1,3.2S409.1,679.6,408,679.6L408,679.6z M408,678.9c0.9,0,1.5-0.3,2-1s0.7-1.5,0.7-2.7c0-2.5-0.9-3.7-2.7-3.7
		c-1,0-1.7,0.3-2.2,0.8s-0.7,1.4-0.7,2.7v0.2c0,1.3,0.2,2.3,0.7,2.8S406.9,678.9,408,678.9L408,678.9z M418.1,679.6
		c-1.2,0-2.2-0.4-2.9-1.1s-1-1.8-1-3.2c0-1.4,0.3-2.4,1-3.3s1.6-1.2,2.7-1.2c1,0,1.8,0.3,2.4,1s0.9,1.6,0.9,2.8v0.6H415
		c0,1.2,0.3,2.1,0.8,2.7s1.3,0.9,2.3,0.9c0.5,0,0.9,0,1.3-0.1s0.8-0.2,1.4-0.4v0.7c-0.5,0.2-0.9,0.3-1.3,0.4
		S418.6,679.6,418.1,679.6L418.1,679.6z M417.9,671.5c-0.8,0-1.5,0.3-2,0.8s-0.8,1.3-0.9,2.3h5.2c0-1-0.2-1.8-0.6-2.3
		S418.6,671.5,417.9,671.5L417.9,671.5z M427.6,670.8c0.4,0,0.7,0,1.2,0.1l-0.1,0.7c-0.4-0.1-0.7-0.1-1.1-0.1
		c-0.7,0-1.3,0.3-1.8,0.9s-0.7,1.4-0.7,2.3v4.7h-0.8V671h0.7l0.1,1.5h0.1c0.4-0.6,0.7-1.1,1.1-1.3S427,670.8,427.6,670.8
		L427.6,670.8z M436.5,677.3c0,0.8-0.3,1.3-0.9,1.8s-1.4,0.6-2.5,0.6c-1.1,0-2-0.2-2.7-0.5v-0.8c0.9,0.4,1.8,0.6,2.7,0.6
		c0.8,0,1.5-0.1,1.9-0.4s0.7-0.7,0.7-1.1c0-0.4-0.2-0.8-0.5-1.1s-0.9-0.6-1.7-0.9c-0.8-0.3-1.4-0.6-1.8-0.8s-0.6-0.5-0.8-0.8
		s-0.3-0.6-0.3-1c0-0.6,0.3-1.1,0.8-1.5s1.3-0.6,2.2-0.6c0.9,0,1.8,0.2,2.6,0.5l-0.3,0.7c-0.8-0.3-1.6-0.5-2.3-0.5
		c-0.7,0-1.2,0.1-1.6,0.3s-0.6,0.5-0.6,1c0,0.4,0.2,0.8,0.5,1.1s0.9,0.6,1.8,0.9c0.8,0.3,1.3,0.5,1.7,0.7s0.6,0.5,0.8,0.8
		S436.5,676.9,436.5,677.3L436.5,677.3z M443.2,679.6c-1.3,0-2.3-0.5-2.9-1.5h-0.1l0,0.7c0,0.4,0,0.8,0,1.3v3.2h-0.8V671h0.7
		l0.1,1.2h0c0.6-0.9,1.5-1.4,2.8-1.4c1.1,0,2,0.4,2.6,1.1s0.9,1.8,0.9,3.3c0,1.4-0.3,2.5-1,3.2S444.2,679.6,443.2,679.6L443.2,679.6
		z M443.1,678.9c0.9,0,1.5-0.3,2-1s0.7-1.5,0.7-2.7c0-2.5-0.9-3.7-2.7-3.7c-1,0-1.7,0.3-2.2,0.8s-0.7,1.4-0.7,2.7v0.2
		c0,1.3,0.2,2.3,0.7,2.8S442.1,678.9,443.1,678.9L443.1,678.9z M453.3,679.6c-1.2,0-2.2-0.4-2.9-1.1s-1-1.8-1-3.2
		c0-1.4,0.3-2.4,1-3.3s1.6-1.2,2.7-1.2c1,0,1.8,0.3,2.4,1s0.9,1.6,0.9,2.8v0.6h-6.1c0,1.2,0.3,2.1,0.8,2.7s1.3,0.9,2.3,0.9
		c0.5,0,0.9,0,1.3-0.1s0.8-0.2,1.4-0.4v0.7c-0.5,0.2-0.9,0.3-1.3,0.4S453.8,679.6,453.3,679.6L453.3,679.6z M453,671.5
		c-0.8,0-1.5,0.3-2,0.8s-0.8,1.3-0.9,2.3h5.2c0-1-0.2-1.8-0.6-2.3S453.8,671.5,453,671.5L453,671.5z M462.8,679.6
		c-1.2,0-2.2-0.4-2.9-1.1s-1-1.8-1-3.2c0-1.4,0.4-2.5,1.1-3.3s1.7-1.2,2.9-1.2c0.7,0,1.4,0.1,2.1,0.4l-0.2,0.7
		c-0.7-0.2-1.4-0.4-1.9-0.4c-1,0-1.8,0.3-2.4,1s-0.8,1.6-0.8,2.8c0,1.1,0.3,2,0.8,2.7s1.3,1,2.2,1c0.8,0,1.5-0.1,2.1-0.4v0.7
		C464.4,679.5,463.7,679.6,462.8,679.6L462.8,679.6z M470.1,678.9c0.5,0,0.9,0,1.3-0.1v0.6c-0.4,0.1-0.8,0.2-1.3,0.2
		c-0.8,0-1.3-0.2-1.7-0.6s-0.5-1-0.5-1.9v-5.5h-1.3v-0.5l1.3-0.4l0.4-1.9h0.4v2.1h2.5v0.7h-2.5v5.4c0,0.7,0.1,1.1,0.3,1.4
		S469.6,678.9,470.1,678.9L470.1,678.9z M473.9,668.6c0-0.5,0.2-0.8,0.5-0.8c0.2,0,0.3,0.1,0.4,0.2s0.1,0.3,0.1,0.6
		c0,0.2,0,0.4-0.1,0.6s-0.2,0.2-0.4,0.2C474,669.4,473.9,669.1,473.9,668.6L473.9,668.6z M474.8,679.5H474V671h0.8L474.8,679.5
		L474.8,679.5z M480.3,679.5L477,671h0.8l2.2,5.8c0.3,0.7,0.5,1.4,0.7,1.9h0c0.2-0.7,0.4-1.4,0.7-2l2.2-5.8h0.8l-3.3,8.5
		L480.3,679.5L480.3,679.5z M490,679.6c-1.2,0-2.2-0.4-2.9-1.1s-1-1.8-1-3.2c0-1.4,0.3-2.4,1-3.3s1.6-1.2,2.7-1.2c1,0,1.8,0.3,2.4,1
		s0.9,1.6,0.9,2.8v0.6h-6.1c0,1.2,0.3,2.1,0.8,2.7s1.3,0.9,2.3,0.9c0.5,0,0.9,0,1.3-0.1s0.8-0.2,1.4-0.4v0.7
		c-0.5,0.2-0.9,0.3-1.3,0.4S490.5,679.6,490,679.6L490,679.6z M489.8,671.5c-0.8,0-1.5,0.3-2,0.8s-0.8,1.3-0.9,2.3h5.2
		c0-1-0.2-1.8-0.6-2.3S490.5,671.5,489.8,671.5L489.8,671.5z M501.4,677.3c0,0.8-0.3,1.3-0.9,1.8s-1.4,0.6-2.5,0.6
		c-1.1,0-2-0.2-2.7-0.5v-0.8c0.9,0.4,1.8,0.6,2.7,0.6c0.8,0,1.5-0.1,1.9-0.4s0.7-0.7,0.7-1.1c0-0.4-0.2-0.8-0.5-1.1
		s-0.9-0.6-1.7-0.9c-0.9-0.3-1.4-0.6-1.8-0.8s-0.6-0.5-0.8-0.8s-0.3-0.6-0.3-1c0-0.6,0.3-1.1,0.8-1.5s1.3-0.6,2.2-0.6
		c0.9,0,1.8,0.2,2.6,0.5l-0.3,0.7c-0.8-0.3-1.6-0.5-2.3-0.5c-0.7,0-1.2,0.1-1.6,0.3s-0.6,0.5-0.6,1c0,0.4,0.2,0.8,0.5,1.1
		s0.9,0.6,1.8,0.9c0.8,0.3,1.3,0.5,1.7,0.7s0.6,0.5,0.8,0.8S501.4,676.9,501.4,677.3L501.4,677.3z M512.7,679.6
		c-1.2,0-2.2-0.4-2.9-1.1s-1-1.8-1-3.2c0-1.4,0.4-2.5,1.1-3.3s1.7-1.2,2.9-1.2c0.7,0,1.4,0.1,2.1,0.4l-0.2,0.7
		c-0.7-0.2-1.4-0.4-1.9-0.4c-1,0-1.8,0.3-2.4,1s-0.8,1.6-0.8,2.8c0,1.1,0.3,2,0.8,2.7s1.3,1,2.2,1c0.8,0,1.5-0.1,2.1-0.4v0.7
		C514.3,679.5,513.6,679.6,512.7,679.6L512.7,679.6z M524.8,675.2c0,1.4-0.3,2.5-1,3.2s-1.6,1.2-2.8,1.2c-0.7,0-1.4-0.2-2-0.5
		s-1-0.9-1.3-1.5s-0.5-1.4-0.5-2.3c0-1.4,0.3-2.5,1-3.2s1.6-1.2,2.8-1.2c1.2,0,2.1,0.4,2.7,1.2C524.4,672.8,524.8,673.8,524.8,675.2
		L524.8,675.2z M518.1,675.2c0,1.2,0.3,2.1,0.8,2.7s1.2,1,2.2,1s1.7-0.3,2.2-1c0.5-0.7,0.8-1.6,0.8-2.7c0-1.2-0.3-2.1-0.8-2.7
		c-0.5-0.6-1.2-1-2.2-1s-1.7,0.3-2.2,1C518.3,673.1,518.1,674,518.1,675.2L518.1,675.2z M538.5,679.5v-5.6c0-0.8-0.2-1.4-0.5-1.8
		c-0.3-0.4-0.8-0.6-1.5-0.6c-0.9,0-1.5,0.2-1.9,0.7s-0.6,1.2-0.6,2.3v5h-0.8v-5.8c0-1.4-0.7-2.1-2-2.1c-0.9,0-1.5,0.3-1.9,0.8
		s-0.6,1.3-0.6,2.5v4.7h-0.8V671h0.6l0.2,1.2h0c0.2-0.4,0.6-0.8,1-1c0.4-0.2,0.9-0.3,1.4-0.3c1.3,0,2.2,0.5,2.6,1.5h0
		c0.3-0.5,0.6-0.9,1.1-1.1c0.5-0.3,1-0.4,1.6-0.4c0.9,0,1.6,0.2,2.1,0.7c0.5,0.5,0.7,1.3,0.7,2.4v5.6L538.5,679.5L538.5,679.5z
		 M546.3,679.6c-1.2,0-2.2-0.4-2.9-1.1c-0.7-0.8-1-1.8-1-3.2c0-1.4,0.3-2.4,1-3.3s1.6-1.2,2.7-1.2c1,0,1.8,0.3,2.4,1
		c0.6,0.7,0.9,1.6,0.9,2.8v0.6h-6.1c0,1.2,0.3,2.1,0.8,2.7c0.5,0.6,1.3,0.9,2.3,0.9c0.5,0,0.9,0,1.3-0.1c0.4-0.1,0.8-0.2,1.4-0.4
		v0.7c-0.5,0.2-0.9,0.3-1.3,0.4S546.8,679.6,546.3,679.6L546.3,679.6z M546,671.5c-0.8,0-1.5,0.3-2,0.8s-0.8,1.3-0.9,2.3h5.2
		c0-1-0.2-1.8-0.6-2.3S546.8,671.5,546,671.5L546,671.5z M559.6,678.9c0.5,0,0.9,0,1.3-0.1v0.6c-0.4,0.1-0.8,0.2-1.3,0.2
		c-0.8,0-1.3-0.2-1.7-0.6c-0.4-0.4-0.5-1-0.5-1.9v-5.5h-1.3v-0.5l1.3-0.4l0.4-1.9h0.4v2.1h2.5v0.7h-2.5v5.4c0,0.7,0.1,1.1,0.3,1.4
		S559.1,678.9,559.6,678.9L559.6,678.9z M570.6,675.2c0,1.4-0.3,2.5-1,3.2s-1.6,1.2-2.8,1.2c-0.7,0-1.4-0.2-2-0.5s-1-0.9-1.3-1.5
		s-0.5-1.4-0.5-2.3c0-1.4,0.3-2.5,1-3.2s1.6-1.2,2.8-1.2c1.2,0,2.1,0.4,2.7,1.2C570.2,672.8,570.6,673.8,570.6,675.2z M563.9,675.2
		c0,1.2,0.3,2.1,0.8,2.7c0.5,0.7,1.2,1,2.2,1s1.7-0.3,2.2-1c0.5-0.7,0.8-1.6,0.8-2.7c0-1.2-0.3-2.1-0.8-2.7s-1.2-1-2.2-1
		s-1.7,0.3-2.2,1S563.9,674,563.9,675.2L563.9,675.2z M580.3,671v0.5l-1.8,0.1c0.5,0.6,0.7,1.2,0.7,1.9c0,0.8-0.3,1.5-0.8,2
		c-0.5,0.5-1.3,0.8-2.2,0.8c-0.4,0-0.7,0-0.8,0c-0.3,0.2-0.5,0.4-0.7,0.6s-0.2,0.5-0.2,0.7c0,0.3,0.1,0.5,0.3,0.6s0.5,0.2,1,0.2h1.5
		c0.9,0,1.6,0.2,2.1,0.6s0.7,0.9,0.7,1.7c0,0.9-0.4,1.6-1.1,2.1s-1.8,0.7-3.1,0.7c-1.1,0-1.9-0.2-2.5-0.6s-0.9-1-0.9-1.7
		c0-0.6,0.2-1.1,0.5-1.5s0.9-0.7,1.5-0.8c-0.3-0.1-0.5-0.3-0.6-0.5s-0.2-0.4-0.2-0.7c0-0.6,0.4-1.1,1.1-1.5c-0.5-0.2-0.9-0.5-1.2-1
		s-0.4-0.9-0.4-1.5c0-0.8,0.3-1.5,0.8-2c0.5-0.5,1.3-0.8,2.2-0.8c0.6,0,1,0.1,1.3,0.2L580.3,671L580.3,671z M573.5,680.9
		c0,1.2,0.9,1.8,2.6,1.8c2.2,0,3.3-0.7,3.3-2.1c0-0.5-0.2-0.9-0.5-1.1s-0.9-0.3-1.7-0.3h-1.4C574.2,679.1,573.5,679.7,573.5,680.9
		L573.5,680.9z M574.1,673.6c0,0.7,0.2,1.2,0.6,1.5c0.4,0.4,0.9,0.5,1.6,0.5c0.7,0,1.2-0.2,1.6-0.5s0.6-0.9,0.6-1.6
		c0-0.7-0.2-1.3-0.6-1.6s-0.9-0.5-1.6-0.5c-0.7,0-1.2,0.2-1.6,0.6S574.1,672.9,574.1,673.6L574.1,673.6z M586.3,679.6
		c-1.2,0-2.2-0.4-2.9-1.1c-0.7-0.8-1-1.8-1-3.2c0-1.4,0.3-2.4,1-3.3s1.6-1.2,2.7-1.2c1,0,1.8,0.3,2.4,1s0.9,1.6,0.9,2.8v0.6h-6.1
		c0,1.2,0.3,2.1,0.8,2.7c0.5,0.6,1.3,0.9,2.3,0.9c0.5,0,0.9,0,1.3-0.1s0.8-0.2,1.4-0.4v0.7c-0.5,0.2-0.9,0.3-1.3,0.4
		S586.8,679.6,586.3,679.6L586.3,679.6z M586.1,671.5c-0.8,0-1.5,0.3-2,0.8c-0.5,0.5-0.8,1.3-0.9,2.3h5.2c0-1-0.2-1.8-0.6-2.3
		S586.8,671.5,586.1,671.5L586.1,671.5z M594.7,678.9c0.5,0,0.9,0,1.3-0.1v0.6c-0.4,0.1-0.8,0.2-1.3,0.2c-0.8,0-1.3-0.2-1.7-0.6
		c-0.4-0.4-0.5-1-0.5-1.9v-5.5h-1.3v-0.5l1.3-0.4l0.4-1.9h0.4v2.1h2.5v0.7h-2.5v5.4c0,0.7,0.1,1.1,0.3,1.4S594.2,678.9,594.7,678.9z
		 M604.5,679.5V674c0-0.9-0.2-1.5-0.5-1.9c-0.4-0.4-0.9-0.6-1.7-0.6c-1,0-1.8,0.3-2.2,0.8c-0.5,0.5-0.7,1.3-0.7,2.5v4.7h-0.8v-12.2
		h0.8v3.9l0,1.1h0.1c0.3-0.5,0.7-0.9,1.2-1.1c0.5-0.2,1.1-0.3,1.8-0.3c1.9,0,2.9,1,2.9,3.1v5.6L604.5,679.5L604.5,679.5z
		 M612.3,679.6c-1.2,0-2.2-0.4-2.9-1.1c-0.7-0.8-1-1.8-1-3.2c0-1.4,0.3-2.4,1-3.3s1.6-1.2,2.7-1.2c1,0,1.8,0.3,2.4,1
		s0.9,1.6,0.9,2.8v0.6h-6.1c0,1.2,0.3,2.1,0.8,2.7c0.5,0.6,1.3,0.9,2.3,0.9c0.5,0,0.9,0,1.3-0.1c0.4-0.1,0.8-0.2,1.4-0.4v0.7
		c-0.5,0.2-0.9,0.3-1.3,0.4S612.8,679.6,612.3,679.6L612.3,679.6z M612.1,671.5c-0.8,0-1.5,0.3-2,0.8s-0.8,1.3-0.9,2.3h5.2
		c0-1-0.2-1.8-0.6-2.3S612.8,671.5,612.1,671.5L612.1,671.5z M621.8,670.8c0.4,0,0.7,0,1.2,0.1l-0.1,0.7c-0.4-0.1-0.7-0.1-1.1-0.1
		c-0.7,0-1.3,0.3-1.8,0.9s-0.7,1.4-0.7,2.3v4.7h-0.8V671h0.7l0.1,1.5h0.1c0.3-0.6,0.7-1.1,1.1-1.3S621.2,670.8,621.8,670.8
		L621.8,670.8z M632.7,678.9c0.5,0,0.9,0,1.3-0.1v0.6c-0.4,0.1-0.8,0.2-1.3,0.2c-0.8,0-1.3-0.2-1.7-0.6c-0.4-0.4-0.5-1-0.5-1.9v-5.5
		h-1.3v-0.5l1.3-0.4l0.4-1.9h0.4v2.1h2.5v0.7h-2.5v5.4c0,0.7,0.1,1.1,0.3,1.4S632.2,678.9,632.7,678.9z M643.6,675.2
		c0,1.4-0.3,2.5-1,3.2s-1.6,1.2-2.8,1.2c-0.7,0-1.4-0.2-2-0.5s-1-0.9-1.3-1.5s-0.5-1.4-0.5-2.3c0-1.4,0.3-2.5,1-3.2s1.6-1.2,2.8-1.2
		c1.2,0,2.1,0.4,2.7,1.2S643.6,673.8,643.6,675.2L643.6,675.2z M636.9,675.2c0,1.2,0.3,2.1,0.8,2.7c0.5,0.7,1.2,1,2.2,1
		s1.7-0.3,2.2-1s0.8-1.6,0.8-2.7c0-1.2-0.3-2.1-0.8-2.7s-1.2-1-2.2-1s-1.7,0.3-2.2,1S636.9,674,636.9,675.2L636.9,675.2z
		 M662.3,679.5v-5.6c0-0.8-0.2-1.4-0.5-1.8s-0.8-0.6-1.5-0.6c-0.9,0-1.5,0.2-1.9,0.7s-0.6,1.2-0.6,2.3v5H657v-5.8
		c0-1.4-0.7-2.1-2-2.1c-0.9,0-1.5,0.3-1.9,0.8s-0.6,1.3-0.6,2.5v4.7h-0.8V671h0.6l0.2,1.2h0c0.2-0.4,0.6-0.8,1-1s0.9-0.3,1.4-0.3
		c1.3,0,2.2,0.5,2.6,1.5h0c0.3-0.5,0.6-0.9,1.1-1.1s1-0.4,1.6-0.4c0.9,0,1.6,0.2,2.1,0.7s0.7,1.3,0.7,2.4v5.6L662.3,679.5
		L662.3,679.5z M671.8,679.5l-0.2-1.3h-0.1c-0.4,0.5-0.9,0.9-1.3,1.2s-1,0.3-1.6,0.3c-0.8,0-1.5-0.2-1.9-0.6s-0.7-1-0.7-1.8
		c0-0.8,0.3-1.5,1-1.9s1.7-0.7,3-0.7l1.6,0v-0.6c0-0.8-0.2-1.4-0.5-1.8s-0.9-0.6-1.6-0.6c-0.8,0-1.6,0.2-2.4,0.7l-0.3-0.7
		c0.9-0.4,1.9-0.7,2.8-0.7c0.9,0,1.6,0.2,2.1,0.7s0.7,1.2,0.7,2.3v5.6L671.8,679.5L671.8,679.5z M668.7,678.9c0.9,0,1.6-0.3,2.1-0.8
		s0.8-1.2,0.8-2.2v-0.8l-1.5,0.1c-1.2,0.1-2,0.2-2.5,0.6s-0.8,0.8-0.8,1.5c0,0.5,0.2,0.9,0.5,1.2S668.1,678.9,668.7,678.9
		L668.7,678.9z M676.7,675.7l4.3-4.8h0.9l-3.3,3.6l3.6,4.9h-0.9l-3.2-4.3l-1.4,1.3v3h-0.8v-12.2h0.8v6.1L676.7,675.7L676.7,675.7
		L676.7,675.7z M687.9,679.6c-1.2,0-2.2-0.4-2.9-1.1s-1-1.8-1-3.2c0-1.4,0.3-2.4,1-3.3s1.6-1.2,2.7-1.2c1,0,1.8,0.3,2.4,1
		s0.9,1.6,0.9,2.8v0.6h-6.1c0,1.2,0.3,2.1,0.8,2.7s1.3,0.9,2.3,0.9c0.5,0,0.9,0,1.3-0.1s0.8-0.2,1.4-0.4v0.7
		c-0.5,0.2-0.9,0.3-1.3,0.4S688.4,679.6,687.9,679.6L687.9,679.6z M687.7,671.5c-0.8,0-1.5,0.3-2,0.8s-0.8,1.3-0.9,2.3h5.2
		c0-1-0.2-1.8-0.6-2.3S688.4,671.5,687.7,671.5L687.7,671.5z M702.1,670.8c0.6,0,1.1,0.1,1.6,0.3s0.8,0.6,1.2,1.1h0
		c0-0.7,0-1.3,0-1.9v-3.1h0.8v12.2h-0.5l-0.2-1.3h-0.1c-0.6,1-1.6,1.5-2.8,1.5c-1.2,0-2.1-0.4-2.7-1.1s-0.9-1.8-0.9-3.2
		c0-1.5,0.3-2.6,0.9-3.4S700.9,670.8,702.1,670.8L702.1,670.8z M702.1,671.5c-0.9,0-1.6,0.3-2.1,1s-0.7,1.6-0.7,2.8
		c0,2.4,0.9,3.6,2.8,3.6c1,0,1.7-0.3,2.1-0.8s0.7-1.5,0.7-2.8v-0.1c0-1.3-0.2-2.3-0.7-2.8S703.1,671.5,702.1,671.5L702.1,671.5z
		 M712.7,679.6c-1.2,0-2.2-0.4-2.9-1.1s-1-1.8-1-3.2c0-1.4,0.3-2.4,1-3.3s1.6-1.2,2.7-1.2c1,0,1.8,0.3,2.4,1s0.9,1.6,0.9,2.8v0.6
		h-6.1c0,1.2,0.3,2.1,0.8,2.7s1.3,0.9,2.3,0.9c0.5,0,0.9,0,1.3-0.1s0.8-0.2,1.4-0.4v0.7c-0.5,0.2-0.9,0.3-1.3,0.4
		S713.2,679.6,712.7,679.6L712.7,679.6z M712.5,671.5c-0.8,0-1.5,0.3-2,0.8s-0.8,1.3-0.9,2.3h5.2c0-1-0.2-1.8-0.6-2.3
		S713.3,671.5,712.5,671.5L712.5,671.5z M722.3,679.6c-1.2,0-2.2-0.4-2.9-1.1s-1-1.8-1-3.2c0-1.4,0.4-2.5,1.1-3.3s1.7-1.2,2.9-1.2
		c0.7,0,1.4,0.1,2.1,0.4l-0.2,0.7c-0.7-0.2-1.4-0.4-1.9-0.4c-1,0-1.8,0.3-2.4,1s-0.8,1.6-0.8,2.8c0,1.1,0.3,2,0.8,2.7s1.3,1,2.2,1
		c0.8,0,1.5-0.1,2.1-0.4v0.7C723.9,679.5,723.2,679.6,722.3,679.6L722.3,679.6z M727.2,668.6c0-0.5,0.2-0.8,0.5-0.8
		c0.2,0,0.3,0.1,0.4,0.2s0.1,0.3,0.1,0.6c0,0.2,0,0.4-0.1,0.6s-0.2,0.2-0.4,0.2C727.4,669.4,727.2,669.1,727.2,668.6L727.2,668.6z
		 M728.1,679.5h-0.8V671h0.8V679.5z M737,677.3c0,0.8-0.3,1.3-0.9,1.8s-1.4,0.6-2.5,0.6c-1.1,0-2-0.2-2.7-0.5v-0.8
		c0.9,0.4,1.8,0.6,2.7,0.6c0.8,0,1.5-0.1,1.9-0.4s0.7-0.7,0.7-1.1c0-0.4-0.2-0.8-0.5-1.1s-0.9-0.6-1.7-0.9c-0.8-0.3-1.4-0.6-1.8-0.8
		s-0.6-0.5-0.8-0.8s-0.3-0.6-0.3-1c0-0.6,0.3-1.1,0.8-1.5s1.3-0.6,2.2-0.6c0.9,0,1.8,0.2,2.6,0.5l-0.3,0.7c-0.8-0.3-1.6-0.5-2.3-0.5
		c-0.7,0-1.2,0.1-1.6,0.3s-0.6,0.5-0.6,1c0,0.4,0.2,0.8,0.5,1.1s0.9,0.6,1.8,0.9c0.8,0.3,1.3,0.5,1.7,0.7s0.6,0.5,0.8,0.8
		S737,676.9,737,677.3L737,677.3z M739.9,668.6c0-0.5,0.2-0.8,0.5-0.8c0.2,0,0.3,0.1,0.4,0.2s0.1,0.3,0.1,0.6c0,0.2,0,0.4-0.1,0.6
		s-0.2,0.2-0.4,0.2C740,669.4,739.9,669.1,739.9,668.6L739.9,668.6z M740.7,679.5H740V671h0.8L740.7,679.5L740.7,679.5z
		 M751.4,675.2c0,1.4-0.3,2.5-1,3.2s-1.6,1.2-2.8,1.2c-0.7,0-1.4-0.2-2-0.5s-1-0.9-1.3-1.5s-0.5-1.4-0.5-2.3c0-1.4,0.3-2.5,1-3.2
		s1.6-1.2,2.8-1.2c1.2,0,2.1,0.4,2.7,1.2S751.4,673.8,751.4,675.2L751.4,675.2z M744.7,675.2c0,1.2,0.3,2.1,0.8,2.7s1.2,1,2.2,1
		s1.7-0.3,2.2-1s0.8-1.6,0.8-2.7c0-1.2-0.3-2.1-0.8-2.7s-1.2-1-2.2-1s-1.7,0.3-2.2,1S744.7,674,744.7,675.2L744.7,675.2z
		 M760.5,679.5V674c0-0.9-0.2-1.5-0.5-1.9s-0.9-0.6-1.7-0.6c-1,0-1.8,0.3-2.2,0.8s-0.7,1.3-0.7,2.5v4.7h-0.8V671h0.7l0.1,1.2h0
		c0.6-0.9,1.5-1.3,2.9-1.3c1.9,0,2.9,1,2.9,3.1v5.6L760.5,679.5L760.5,679.5z M770.1,677.3c0,0.8-0.3,1.3-0.9,1.8s-1.4,0.6-2.5,0.6
		c-1.1,0-2-0.2-2.7-0.5v-0.8c0.9,0.4,1.8,0.6,2.7,0.6c0.8,0,1.5-0.1,1.9-0.4s0.7-0.7,0.7-1.1c0-0.4-0.2-0.8-0.5-1.1
		s-0.9-0.6-1.7-0.9c-0.8-0.3-1.4-0.6-1.8-0.8s-0.6-0.5-0.8-0.8s-0.3-0.6-0.3-1c0-0.6,0.3-1.1,0.8-1.5s1.3-0.6,2.2-0.6
		c0.9,0,1.8,0.2,2.6,0.5l-0.3,0.7c-0.8-0.3-1.6-0.5-2.3-0.5c-0.7,0-1.2,0.1-1.6,0.3s-0.6,0.5-0.6,1c0,0.4,0.2,0.8,0.5,1.1
		s0.9,0.6,1.8,0.9c0.8,0.3,1.3,0.5,1.7,0.7s0.6,0.5,0.8,0.8S770.1,676.9,770.1,677.3L770.1,677.3z M785,675.2c0,1.4-0.3,2.5-1,3.2
		s-1.6,1.2-2.8,1.2c-0.7,0-1.4-0.2-2-0.5s-1-0.9-1.3-1.5s-0.5-1.4-0.5-2.3c0-1.4,0.3-2.5,1-3.2s1.6-1.2,2.8-1.2
		c1.2,0,2.1,0.4,2.7,1.2S785,673.8,785,675.2L785,675.2z M778.3,675.2c0,1.2,0.3,2.1,0.8,2.7s1.2,1,2.2,1s1.7-0.3,2.2-1
		s0.8-1.6,0.8-2.7c0-1.2-0.3-2.1-0.8-2.7s-1.2-1-2.2-1s-1.7,0.3-2.2,1S778.3,674,778.3,675.2L778.3,675.2z M794.1,679.5V674
		c0-0.9-0.2-1.5-0.5-1.9s-0.9-0.6-1.7-0.6c-1,0-1.8,0.3-2.2,0.8s-0.7,1.3-0.7,2.5v4.7h-0.8V671h0.7l0.2,1.2h0
		c0.6-0.9,1.5-1.3,2.9-1.3c1.9,0,2.9,1,2.9,3.1v5.6L794.1,679.5L794.1,679.5z M799.2,679.5h-0.8v-12.2h0.8V679.5z M802.7,668.6
		c0-0.5,0.2-0.8,0.5-0.8c0.2,0,0.3,0.1,0.4,0.2s0.1,0.3,0.1,0.6c0,0.2,0,0.4-0.1,0.6s-0.2,0.2-0.4,0.2
		C802.9,669.4,802.7,669.1,802.7,668.6L802.7,668.6z M803.6,679.5h-0.8V671h0.8L803.6,679.5L803.6,679.5z M813.2,679.5V674
		c0-0.9-0.2-1.5-0.5-1.9s-0.9-0.6-1.7-0.6c-1,0-1.8,0.3-2.2,0.8s-0.7,1.3-0.7,2.5v4.7h-0.8V671h0.7l0.1,1.2h0
		c0.6-0.9,1.5-1.3,2.9-1.3c1.9,0,2.9,1,2.9,3.1v5.6L813.2,679.5L813.2,679.5z M820.9,679.6c-1.2,0-2.2-0.4-2.9-1.1s-1-1.8-1-3.2
		c0-1.4,0.3-2.4,1-3.3s1.6-1.2,2.7-1.2c1,0,1.8,0.3,2.4,1s0.9,1.6,0.9,2.8v0.6h-6.1c0,1.2,0.3,2.1,0.8,2.7s1.3,0.9,2.3,0.9
		c0.5,0,0.9,0,1.3-0.1s0.8-0.2,1.4-0.4v0.7c-0.5,0.2-0.9,0.3-1.3,0.4S821.4,679.6,820.9,679.6L820.9,679.6z M820.7,671.5
		c-0.8,0-1.5,0.3-2,0.8s-0.8,1.3-0.9,2.3h5.2c0-1-0.2-1.8-0.6-2.3S821.5,671.5,820.7,671.5L820.7,671.5z M828,677.6l0.1,0.2
		c-0.4,1.4-0.8,2.6-1.4,3.8h-0.5c0.4-1.4,0.7-2.7,0.9-3.9H828z M381.8,704.6c-1.2,0-2.2-0.4-2.9-1.1s-1-1.8-1-3.2
		c0-1.4,0.3-2.4,1-3.3s1.6-1.2,2.7-1.2c1,0,1.8,0.3,2.4,1s0.9,1.6,0.9,2.8v0.6h-6.1c0,1.2,0.3,2.1,0.8,2.7s1.3,0.9,2.3,0.9
		c0.5,0,0.9,0,1.3-0.1c0.4-0.1,0.8-0.2,1.4-0.4v0.7c-0.5,0.2-0.9,0.3-1.3,0.4C382.8,704.6,382.3,704.6,381.8,704.6L381.8,704.6z
		 M381.6,696.5c-0.8,0-1.5,0.3-2,0.8c-0.5,0.5-0.8,1.3-0.9,2.3h5.2c0-1-0.2-1.8-0.6-2.3S382.3,696.5,381.6,696.5L381.6,696.5z
		 M393.9,704.5V699c0-0.9-0.2-1.5-0.5-1.9c-0.4-0.4-0.9-0.6-1.7-0.6c-1,0-1.8,0.3-2.2,0.8c-0.5,0.5-0.7,1.3-0.7,2.5v4.7H388V696h0.7
		l0.1,1.2h0c0.6-0.9,1.5-1.3,2.9-1.3c1.9,0,2.9,1,2.9,3.1v5.6L393.9,704.5L393.9,704.5z M403.4,704.5l-0.2-1.3h-0.1
		c-0.4,0.5-0.9,0.9-1.3,1.2s-1,0.3-1.6,0.3c-0.8,0-1.5-0.2-1.9-0.6s-0.7-1-0.7-1.8c0-0.8,0.3-1.5,1-1.9s1.7-0.7,3-0.7l1.6,0v-0.6
		c0-0.8-0.2-1.4-0.5-1.8s-0.9-0.6-1.6-0.6c-0.8,0-1.6,0.2-2.4,0.7l-0.3-0.7c0.9-0.4,1.9-0.7,2.8-0.7c0.9,0,1.6,0.2,2.1,0.7
		s0.7,1.2,0.7,2.3v5.6L403.4,704.5L403.4,704.5z M400.2,703.9c0.9,0,1.6-0.3,2.1-0.8s0.8-1.2,0.8-2.2v-0.8l-1.5,0.1
		c-1.2,0.1-2,0.2-2.5,0.6s-0.8,0.8-0.8,1.5c0,0.5,0.2,0.9,0.5,1.2S399.6,703.9,400.2,703.9L400.2,703.9z M411.1,695.8
		c1.2,0,2.1,0.4,2.7,1.1s0.9,1.8,0.9,3.3c0,1.4-0.3,2.5-1,3.3s-1.5,1.1-2.7,1.1c-0.6,0-1.1-0.1-1.6-0.4s-0.9-0.6-1.1-1.1h-0.1
		l-0.2,1.3h-0.5v-12.2h0.8v3.1c0,0.5,0,0.9,0,1.3l0,0.7h0.1c0.3-0.5,0.7-0.9,1.2-1.1S410.4,695.8,411.1,695.8L411.1,695.8z
		 M411.1,696.5c-1,0-1.7,0.3-2.1,0.9s-0.6,1.5-0.6,2.8v0.1c0,1.3,0.2,2.2,0.7,2.8s1.2,0.8,2.1,0.8c0.9,0,1.6-0.3,2.1-1
		s0.7-1.6,0.7-2.8C413.8,697.7,412.9,696.5,411.1,696.5L411.1,696.5z M418.6,704.5h-0.8v-12.2h0.8L418.6,704.5L418.6,704.5z
		 M422.1,693.6c0-0.5,0.2-0.8,0.5-0.8c0.2,0,0.3,0.1,0.4,0.2s0.1,0.3,0.1,0.6c0,0.2,0,0.4-0.1,0.6s-0.2,0.2-0.4,0.2
		C422.3,694.4,422.1,694.1,422.1,693.6L422.1,693.6z M423,704.5h-0.8V696h0.8V704.5z M432.6,704.5V699c0-0.9-0.2-1.5-0.5-1.9
		s-0.9-0.6-1.7-0.6c-1,0-1.8,0.3-2.2,0.8s-0.7,1.3-0.7,2.5v4.7h-0.8V696h0.7l0.1,1.2h0c0.6-0.9,1.5-1.3,2.9-1.3c1.9,0,2.9,1,2.9,3.1
		v5.6L432.6,704.5L432.6,704.5z M443.5,696v0.5l-1.8,0.1c0.5,0.6,0.7,1.2,0.7,1.9c0,0.8-0.3,1.5-0.8,2s-1.3,0.8-2.2,0.8
		c-0.4,0-0.7,0-0.8,0c-0.3,0.2-0.5,0.4-0.7,0.6s-0.2,0.5-0.2,0.7c0,0.3,0.1,0.5,0.3,0.6s0.5,0.2,1,0.2h1.5c0.9,0,1.6,0.2,2.1,0.6
		s0.7,0.9,0.7,1.7c0,0.9-0.4,1.6-1.1,2.1s-1.8,0.7-3.1,0.7c-1.1,0-1.9-0.2-2.5-0.6s-0.9-1-0.9-1.7c0-0.6,0.2-1.1,0.5-1.5
		s0.9-0.7,1.5-0.8c-0.3-0.1-0.5-0.3-0.6-0.5s-0.2-0.4-0.2-0.7c0-0.6,0.4-1.1,1.1-1.5c-0.5-0.2-0.9-0.5-1.2-1s-0.4-0.9-0.4-1.5
		c0-0.8,0.3-1.5,0.8-2s1.3-0.8,2.2-0.8c0.6,0,1,0.1,1.3,0.2L443.5,696L443.5,696z M436.6,705.9c0,1.2,0.9,1.8,2.6,1.8
		c2.2,0,3.3-0.7,3.3-2.1c0-0.5-0.2-0.9-0.5-1.1s-0.9-0.3-1.7-0.3H439C437.4,704.1,436.6,704.7,436.6,705.9L436.6,705.9z
		 M437.3,698.6c0,0.7,0.2,1.2,0.6,1.5s0.9,0.5,1.6,0.5c0.7,0,1.2-0.2,1.6-0.5s0.6-0.9,0.6-1.6c0-0.7-0.2-1.3-0.6-1.6
		s-0.9-0.5-1.6-0.5c-0.7,0-1.2,0.2-1.6,0.6S437.3,697.9,437.3,698.6L437.3,698.6z M456.3,702.3c0,0.8-0.3,1.3-0.9,1.8
		s-1.4,0.6-2.5,0.6c-1.1,0-2-0.2-2.7-0.5v-0.8c0.9,0.4,1.8,0.6,2.7,0.6c0.8,0,1.5-0.1,1.9-0.4s0.7-0.7,0.7-1.1
		c0-0.4-0.2-0.8-0.5-1.1s-0.9-0.6-1.7-0.9c-0.9-0.3-1.4-0.6-1.8-0.8s-0.6-0.5-0.8-0.8s-0.3-0.6-0.3-1c0-0.6,0.3-1.1,0.8-1.5
		s1.3-0.6,2.2-0.6c0.9,0,1.8,0.2,2.6,0.5l-0.3,0.7c-0.8-0.3-1.6-0.5-2.3-0.5c-0.7,0-1.2,0.1-1.6,0.3s-0.6,0.5-0.6,1
		c0,0.4,0.2,0.8,0.5,1.1s0.9,0.6,1.8,0.9c0.8,0.3,1.3,0.5,1.7,0.7s0.6,0.5,0.8,0.8S456.3,701.9,456.3,702.3L456.3,702.3z
		 M465.2,704.5V699c0-0.9-0.2-1.5-0.5-1.9s-0.9-0.6-1.7-0.6c-1,0-1.8,0.3-2.2,0.8s-0.7,1.3-0.7,2.5v4.7h-0.8v-12.2h0.8v3.9l0,1.1
		h0.1c0.3-0.5,0.7-0.9,1.2-1.1s1.1-0.3,1.8-0.3c1.9,0,2.9,1,2.9,3.1v5.6L465.2,704.5L465.2,704.5z M474.6,704.5l-0.2-1.3h-0.1
		c-0.4,0.5-0.9,0.9-1.3,1.2s-1,0.3-1.6,0.3c-0.8,0-1.5-0.2-1.9-0.6s-0.7-1-0.7-1.8c0-0.8,0.3-1.5,1-1.9s1.7-0.7,3-0.7l1.6,0v-0.6
		c0-0.8-0.2-1.4-0.5-1.8s-0.9-0.6-1.6-0.6c-0.8,0-1.6,0.2-2.4,0.7l-0.3-0.7c0.9-0.4,1.9-0.7,2.8-0.7c0.9,0,1.6,0.2,2.1,0.7
		s0.7,1.2,0.7,2.3v5.6L474.6,704.5L474.6,704.5z M471.5,703.9c0.9,0,1.6-0.3,2.1-0.8s0.8-1.2,0.8-2.2v-0.8l-1.5,0.1
		c-1.2,0.1-2,0.2-2.5,0.6s-0.8,0.8-0.8,1.5c0,0.5,0.2,0.9,0.5,1.2S470.9,703.9,471.5,703.9L471.5,703.9z M482.1,695.8
		c0.4,0,0.7,0,1.2,0.1l-0.1,0.7c-0.4-0.1-0.7-0.1-1.1-0.1c-0.7,0-1.3,0.3-1.8,0.9s-0.7,1.4-0.7,2.3v4.7h-0.8V696h0.7l0.1,1.5h0.1
		c0.3-0.6,0.7-1.1,1.1-1.3S481.5,695.8,482.1,695.8L482.1,695.8z M489.2,704.6c-1.2,0-2.2-0.4-2.9-1.1s-1-1.8-1-3.2
		c0-1.4,0.3-2.4,1-3.3s1.6-1.2,2.7-1.2c1,0,1.8,0.3,2.4,1s0.9,1.6,0.9,2.8v0.6h-6.1c0,1.2,0.3,2.1,0.8,2.7s1.3,0.9,2.3,0.9
		c0.5,0,0.9,0,1.3-0.1s0.8-0.2,1.4-0.4v0.7c-0.5,0.2-0.9,0.3-1.3,0.4S489.7,704.6,489.2,704.6L489.2,704.6z M489,696.5
		c-0.8,0-1.5,0.3-2,0.8s-0.8,1.3-0.9,2.3h5.2c0-1-0.2-1.8-0.6-2.3S489.8,696.5,489,696.5L489,696.5z M498.5,695.8
		c0.6,0,1.1,0.1,1.6,0.3s0.9,0.6,1.2,1.1h0c0-0.7,0-1.3,0-1.9v-3.1h0.8v12.2h-0.5l-0.2-1.3h-0.1c-0.6,1-1.6,1.5-2.8,1.5
		c-1.2,0-2.1-0.4-2.7-1.1s-0.9-1.8-0.9-3.2c0-1.5,0.3-2.6,0.9-3.4S497.3,695.8,498.5,695.8L498.5,695.8z M498.5,696.5
		c-0.9,0-1.6,0.3-2.1,1s-0.7,1.6-0.7,2.8c0,2.4,0.9,3.6,2.8,3.6c1,0,1.7-0.3,2.1-0.8s0.7-1.5,0.7-2.8v-0.1c0-1.3-0.2-2.3-0.7-2.8
		S499.5,696.5,498.5,696.5L498.5,696.5z M511.3,696v5.5c0,0.9,0.2,1.5,0.5,1.9c0.4,0.4,0.9,0.6,1.7,0.6c1,0,1.8-0.3,2.2-0.8
		c0.5-0.5,0.7-1.3,0.7-2.5V696h0.8v8.5h-0.7l-0.1-1.2h0c-0.6,0.9-1.5,1.3-2.9,1.3c-1.9,0-2.9-1-2.9-3.1V696L511.3,696L511.3,696z
		 M526.8,704.5V699c0-0.9-0.2-1.5-0.5-1.9s-0.9-0.6-1.7-0.6c-1,0-1.8,0.3-2.2,0.8s-0.7,1.3-0.7,2.5v4.7h-0.8V696h0.7l0.1,1.2h0
		c0.6-0.9,1.5-1.3,2.9-1.3c1.9,0,2.9,1,2.9,3.1v5.6L526.8,704.5L526.8,704.5z M534.2,695.8c0.6,0,1.1,0.1,1.6,0.3s0.9,0.6,1.2,1.1h0
		c0-0.7,0-1.3,0-1.9v-3.1h0.8v12.2h-0.5l-0.2-1.3H537c-0.6,1-1.6,1.5-2.8,1.5c-1.2,0-2.1-0.4-2.7-1.1s-0.9-1.8-0.9-3.2
		c0-1.5,0.3-2.6,0.9-3.4C532.2,696.2,533.1,695.8,534.2,695.8L534.2,695.8z M534.2,696.5c-0.9,0-1.6,0.3-2.1,1
		c-0.5,0.7-0.7,1.6-0.7,2.8c0,2.4,0.9,3.6,2.8,3.6c1,0,1.7-0.3,2.1-0.8s0.7-1.5,0.7-2.8v-0.1c0-1.3-0.2-2.3-0.7-2.8
		S535.2,696.5,534.2,696.5L534.2,696.5z M544.9,704.6c-1.2,0-2.2-0.4-2.9-1.1c-0.7-0.8-1-1.8-1-3.2c0-1.4,0.3-2.4,1-3.3
		s1.6-1.2,2.7-1.2c1,0,1.8,0.3,2.4,1s0.9,1.6,0.9,2.8v0.6h-6.1c0,1.2,0.3,2.1,0.8,2.7c0.5,0.6,1.3,0.9,2.3,0.9c0.5,0,0.9,0,1.3-0.1
		c0.4-0.1,0.8-0.2,1.4-0.4v0.7c-0.5,0.2-0.9,0.3-1.3,0.4S545.4,704.6,544.9,704.6L544.9,704.6z M544.7,696.5c-0.8,0-1.5,0.3-2,0.8
		s-0.8,1.3-0.9,2.3h5.2c0-1-0.2-1.8-0.6-2.3S545.4,696.5,544.7,696.5L544.7,696.5z M554.4,695.8c0.4,0,0.7,0,1.2,0.1l-0.1,0.7
		c-0.4-0.1-0.7-0.1-1.1-0.1c-0.7,0-1.3,0.3-1.8,0.9s-0.7,1.4-0.7,2.3v4.7H551V696h0.7l0.1,1.5h0.1c0.3-0.6,0.7-1.1,1.1-1.3
		S553.8,695.8,554.4,695.8L554.4,695.8z M563.3,702.3c0,0.8-0.3,1.3-0.9,1.8s-1.4,0.6-2.5,0.6c-1.1,0-2-0.2-2.7-0.5v-0.8
		c0.9,0.4,1.8,0.6,2.7,0.6c0.8,0,1.5-0.1,1.9-0.4c0.4-0.3,0.7-0.7,0.7-1.1c0-0.4-0.2-0.8-0.5-1.1s-0.9-0.6-1.7-0.9
		c-0.9-0.3-1.4-0.6-1.8-0.8s-0.6-0.5-0.8-0.8s-0.3-0.6-0.3-1c0-0.6,0.3-1.1,0.8-1.5c0.5-0.4,1.3-0.6,2.2-0.6c0.9,0,1.8,0.2,2.6,0.5
		l-0.3,0.7c-0.8-0.3-1.6-0.5-2.3-0.5c-0.7,0-1.2,0.1-1.6,0.3s-0.6,0.5-0.6,1c0,0.4,0.2,0.8,0.5,1.1c0.3,0.3,0.9,0.6,1.8,0.9
		c0.8,0.3,1.3,0.5,1.7,0.7s0.6,0.5,0.8,0.8S563.3,701.9,563.3,702.3L563.3,702.3z M568.6,703.9c0.5,0,0.9,0,1.3-0.1v0.6
		c-0.4,0.1-0.8,0.2-1.3,0.2c-0.8,0-1.3-0.2-1.7-0.6s-0.5-1-0.5-1.9v-5.5h-1.3v-0.5l1.3-0.4l0.4-1.9h0.4v2.1h2.5v0.7h-2.5v5.4
		c0,0.7,0.1,1.1,0.3,1.4S568.1,703.9,568.6,703.9L568.6,703.9z M577.6,704.5l-0.2-1.3h-0.1c-0.4,0.5-0.9,0.9-1.3,1.2
		c-0.4,0.2-1,0.3-1.6,0.3c-0.8,0-1.5-0.2-1.9-0.6s-0.7-1-0.7-1.8c0-0.8,0.3-1.5,1-1.9c0.7-0.5,1.7-0.7,3-0.7l1.6,0v-0.6
		c0-0.8-0.2-1.4-0.5-1.8s-0.9-0.6-1.6-0.6c-0.8,0-1.6,0.2-2.4,0.7l-0.3-0.7c0.9-0.4,1.9-0.7,2.8-0.7c0.9,0,1.6,0.2,2.1,0.7
		c0.5,0.5,0.7,1.2,0.7,2.3v5.6L577.6,704.5L577.6,704.5z M574.5,703.9c0.9,0,1.6-0.3,2.1-0.8c0.5-0.5,0.8-1.2,0.8-2.2v-0.8l-1.5,0.1
		c-1.2,0.1-2,0.2-2.5,0.6s-0.8,0.8-0.8,1.5c0,0.5,0.2,0.9,0.5,1.2S573.9,703.9,574.5,703.9L574.5,703.9z M587.7,704.5V699
		c0-0.9-0.2-1.5-0.5-1.9c-0.4-0.4-0.9-0.6-1.7-0.6c-1,0-1.8,0.3-2.2,0.8c-0.5,0.5-0.7,1.3-0.7,2.5v4.7h-0.8V696h0.7l0.1,1.2h0
		c0.6-0.9,1.5-1.3,2.9-1.3c1.9,0,2.9,1,2.9,3.1v5.6L587.7,704.5L587.7,704.5z M595.1,695.8c0.6,0,1.1,0.1,1.6,0.3s0.9,0.6,1.2,1.1h0
		c0-0.7,0-1.3,0-1.9v-3.1h0.8v12.2h-0.5l-0.2-1.3h-0.1c-0.6,1-1.6,1.5-2.8,1.5c-1.2,0-2.1-0.4-2.7-1.1s-0.9-1.8-0.9-3.2
		c0-1.5,0.3-2.6,0.9-3.4C593,696.2,593.9,695.8,595.1,695.8L595.1,695.8z M595.1,696.5c-0.9,0-1.6,0.3-2.1,1s-0.7,1.6-0.7,2.8
		c0,2.4,0.9,3.6,2.8,3.6c1,0,1.7-0.3,2.1-0.8c0.5-0.6,0.7-1.5,0.7-2.8v-0.1c0-1.3-0.2-2.3-0.7-2.8
		C596.8,696.8,596.1,696.5,595.1,696.5L595.1,696.5z M602.2,693.6c0-0.5,0.2-0.8,0.5-0.8c0.2,0,0.3,0.1,0.4,0.2
		c0.1,0.1,0.1,0.3,0.1,0.6c0,0.2,0,0.4-0.1,0.6s-0.2,0.2-0.4,0.2C602.4,694.4,602.2,694.1,602.2,693.6L602.2,693.6z M603.1,704.5
		h-0.8V696h0.8V704.5z M612.7,704.5V699c0-0.9-0.2-1.5-0.5-1.9s-0.9-0.6-1.7-0.6c-1,0-1.8,0.3-2.2,0.8s-0.7,1.3-0.7,2.5v4.7h-0.8
		V696h0.7l0.1,1.2h0c0.6-0.9,1.5-1.3,2.9-1.3c1.9,0,2.9,1,2.9,3.1v5.6L612.7,704.5L612.7,704.5z M623.6,696v0.5l-1.8,0.1
		c0.5,0.6,0.7,1.2,0.7,1.9c0,0.8-0.3,1.5-0.8,2c-0.5,0.5-1.3,0.8-2.2,0.8c-0.4,0-0.7,0-0.8,0c-0.3,0.2-0.5,0.4-0.7,0.6
		s-0.2,0.5-0.2,0.7c0,0.3,0.1,0.5,0.3,0.6c0.2,0.1,0.6,0.2,1,0.2h1.5c0.9,0,1.6,0.2,2.1,0.6s0.7,0.9,0.7,1.7c0,0.9-0.4,1.6-1.1,2.1
		c-0.7,0.5-1.8,0.7-3.1,0.7c-1.1,0-1.9-0.2-2.5-0.6c-0.6-0.4-0.9-1-0.9-1.7c0-0.6,0.2-1.1,0.5-1.5s0.9-0.7,1.5-0.8
		c-0.3-0.1-0.5-0.3-0.6-0.5s-0.2-0.4-0.2-0.7c0-0.6,0.4-1.1,1.1-1.5c-0.5-0.2-0.9-0.5-1.2-1s-0.4-0.9-0.4-1.5c0-0.8,0.3-1.5,0.8-2
		c0.5-0.5,1.3-0.8,2.2-0.8c0.6,0,1,0.1,1.3,0.2L623.6,696L623.6,696z M616.7,705.9c0,1.2,0.9,1.8,2.6,1.8c2.2,0,3.3-0.7,3.3-2.1
		c0-0.5-0.2-0.9-0.5-1.1s-0.9-0.3-1.7-0.3h-1.4C617.5,704.1,616.7,704.7,616.7,705.9L616.7,705.9z M617.4,698.6
		c0,0.7,0.2,1.2,0.6,1.5s0.9,0.5,1.6,0.5c0.7,0,1.2-0.2,1.6-0.5s0.6-0.9,0.6-1.6c0-0.7-0.2-1.3-0.6-1.6s-0.9-0.5-1.6-0.5
		c-0.7,0-1.2,0.2-1.6,0.6S617.4,697.9,617.4,698.6L617.4,698.6z M636.2,704.5l-0.2-1.3H636c-0.4,0.5-0.9,0.9-1.3,1.2s-1,0.3-1.6,0.3
		c-0.8,0-1.5-0.2-1.9-0.6c-0.5-0.4-0.7-1-0.7-1.8c0-0.8,0.3-1.5,1-1.9s1.7-0.7,3-0.7l1.6,0v-0.6c0-0.8-0.2-1.4-0.5-1.8
		s-0.9-0.6-1.6-0.6c-0.8,0-1.6,0.2-2.4,0.7l-0.3-0.7c0.9-0.4,1.9-0.7,2.8-0.7c0.9,0,1.6,0.2,2.1,0.7s0.7,1.2,0.7,2.3v5.6
		L636.2,704.5L636.2,704.5z M633.1,703.9c0.9,0,1.6-0.3,2.1-0.8c0.5-0.5,0.8-1.2,0.8-2.2v-0.8l-1.5,0.1c-1.2,0.1-2,0.2-2.6,0.6
		s-0.8,0.8-0.8,1.5c0,0.5,0.2,0.9,0.5,1.2S632.5,703.9,633.1,703.9L633.1,703.9z M646.3,704.5V699c0-0.9-0.2-1.5-0.5-1.9
		s-0.9-0.6-1.7-0.6c-1,0-1.8,0.3-2.2,0.8s-0.7,1.3-0.7,2.5v4.7h-0.8V696h0.7l0.1,1.2h0c0.6-0.9,1.5-1.3,2.9-1.3c1.9,0,2.9,1,2.9,3.1
		v5.6L646.3,704.5L646.3,704.5z M653.7,695.8c0.6,0,1.1,0.1,1.6,0.3s0.8,0.6,1.2,1.1h0c0-0.7,0-1.3,0-1.9v-3.1h0.8v12.2h-0.5
		l-0.2-1.3h-0.1c-0.6,1-1.6,1.5-2.8,1.5c-1.2,0-2.1-0.4-2.7-1.1s-0.9-1.8-0.9-3.2c0-1.5,0.3-2.6,0.9-3.4S652.5,695.8,653.7,695.8
		L653.7,695.8z M653.7,696.5c-0.9,0-1.6,0.3-2.1,1s-0.7,1.6-0.7,2.8c0,2.4,0.9,3.6,2.8,3.6c1,0,1.7-0.3,2.1-0.8s0.7-1.5,0.7-2.8
		v-0.1c0-1.3-0.2-2.3-0.7-2.8S654.7,696.5,653.7,696.5L653.7,696.5z M669.3,704.6c-1.2,0-2.2-0.4-2.9-1.1s-1-1.8-1-3.2
		c0-1.4,0.4-2.5,1.1-3.3s1.7-1.2,2.9-1.2c0.7,0,1.4,0.1,2.1,0.4l-0.2,0.7c-0.7-0.2-1.4-0.4-1.9-0.4c-1,0-1.8,0.3-2.4,1
		s-0.8,1.6-0.8,2.8c0,1.1,0.3,2,0.8,2.7s1.3,1,2.2,1c0.8,0,1.5-0.1,2.1-0.4v0.7C670.9,704.5,670.2,704.6,669.3,704.6L669.3,704.6z
		 M681.3,700.2c0,1.4-0.3,2.5-1,3.2s-1.6,1.2-2.8,1.2c-0.7,0-1.4-0.2-2-0.5s-1-0.9-1.3-1.5s-0.5-1.4-0.5-2.3c0-1.4,0.3-2.5,1-3.2
		s1.6-1.2,2.8-1.2c1.2,0,2.1,0.4,2.7,1.2S681.3,698.8,681.3,700.2L681.3,700.2z M674.6,700.2c0,1.2,0.3,2.1,0.8,2.7s1.2,1,2.2,1
		s1.7-0.3,2.2-1s0.8-1.6,0.8-2.7c0-1.2-0.3-2.1-0.8-2.7s-1.2-1-2.2-1s-1.7,0.3-2.2,1S674.6,699,674.6,700.2L674.6,700.2z
		 M685.2,704.5h-0.8v-12.2h0.8V704.5z M689.7,704.5h-0.8v-12.2h0.8L689.7,704.5L689.7,704.5z M696.7,704.6c-1.2,0-2.2-0.4-2.9-1.1
		s-1-1.8-1-3.2c0-1.4,0.3-2.4,1-3.3s1.6-1.2,2.7-1.2c1,0,1.8,0.3,2.4,1s0.9,1.6,0.9,2.8v0.6h-6.1c0,1.2,0.3,2.1,0.8,2.7
		s1.3,0.9,2.3,0.9c0.5,0,0.9,0,1.3-0.1s0.8-0.2,1.4-0.4v0.7c-0.5,0.2-0.9,0.3-1.3,0.4S697.2,704.6,696.7,704.6L696.7,704.6z
		 M696.5,696.5c-0.8,0-1.5,0.3-2,0.8s-0.8,1.3-0.9,2.3h5.2c0-1-0.2-1.8-0.6-2.3S697.3,696.5,696.5,696.5L696.5,696.5z M706.3,704.6
		c-1.2,0-2.2-0.4-2.9-1.1s-1-1.8-1-3.2c0-1.4,0.4-2.5,1.1-3.3s1.7-1.2,2.9-1.2c0.7,0,1.4,0.1,2.1,0.4l-0.2,0.7
		c-0.7-0.2-1.4-0.4-1.9-0.4c-1,0-1.8,0.3-2.4,1s-0.8,1.6-0.8,2.8c0,1.1,0.3,2,0.8,2.7s1.3,1,2.2,1c0.8,0,1.5-0.1,2.1-0.4v0.7
		C707.9,704.5,707.1,704.6,706.3,704.6L706.3,704.6z M713.5,703.9c0.5,0,0.9,0,1.3-0.1v0.6c-0.4,0.1-0.8,0.2-1.3,0.2
		c-0.8,0-1.3-0.2-1.7-0.6s-0.5-1-0.5-1.9v-5.5h-1.3v-0.5l1.3-0.4l0.4-1.9h0.4v2.1h2.5v0.7h-2.5v5.4c0,0.7,0.1,1.1,0.3,1.4
		S713,703.9,713.5,703.9L713.5,703.9z M717.3,693.6c0-0.5,0.2-0.8,0.5-0.8c0.2,0,0.3,0.1,0.4,0.2s0.1,0.3,0.1,0.6
		c0,0.2,0,0.4-0.1,0.6s-0.2,0.2-0.4,0.2C717.5,694.4,717.3,694.1,717.3,693.6L717.3,693.6z M718.2,704.5h-0.8V696h0.8L718.2,704.5
		L718.2,704.5z M723.7,704.5l-3.3-8.5h0.8l2.2,5.8c0.3,0.7,0.5,1.4,0.7,1.9h0c0.2-0.7,0.4-1.4,0.7-2l2.2-5.8h0.8l-3.3,8.5
		L723.7,704.5L723.7,704.5z M733.4,704.6c-1.2,0-2.2-0.4-2.9-1.1s-1-1.8-1-3.2c0-1.4,0.3-2.4,1-3.3s1.6-1.2,2.7-1.2
		c1,0,1.8,0.3,2.4,1s0.9,1.6,0.9,2.8v0.6h-6.1c0,1.2,0.3,2.1,0.8,2.7s1.3,0.9,2.3,0.9c0.5,0,0.9,0,1.3-0.1s0.8-0.2,1.4-0.4v0.7
		c-0.5,0.2-0.9,0.3-1.3,0.4S733.9,704.6,733.4,704.6L733.4,704.6z M733.2,696.5c-0.8,0-1.5,0.3-2,0.8s-0.8,1.3-0.9,2.3h5.2
		c0-1-0.2-1.8-0.6-2.3S734,696.5,733.2,696.5L733.2,696.5z M749.7,704.5l-0.2-1.3h-0.1c-0.4,0.5-0.9,0.9-1.3,1.2s-1,0.3-1.6,0.3
		c-0.8,0-1.5-0.2-1.9-0.6s-0.7-1-0.7-1.8c0-0.8,0.3-1.5,1-1.9s1.7-0.7,3-0.7l1.6,0v-0.6c0-0.8-0.2-1.4-0.5-1.8s-0.9-0.6-1.6-0.6
		c-0.8,0-1.6,0.2-2.4,0.7l-0.3-0.7c0.9-0.4,1.9-0.7,2.8-0.7c0.9,0,1.6,0.2,2.1,0.7s0.7,1.2,0.7,2.3v5.6L749.7,704.5L749.7,704.5z
		 M746.6,703.9c0.9,0,1.6-0.3,2.1-0.8s0.8-1.2,0.8-2.2v-0.8l-1.5,0.1c-1.2,0.1-2,0.2-2.5,0.6s-0.8,0.8-0.8,1.5
		c0,0.5,0.2,0.9,0.5,1.2S746,703.9,746.6,703.9L746.6,703.9z M757.2,704.6c-1.2,0-2.2-0.4-2.9-1.1s-1-1.8-1-3.2
		c0-1.4,0.4-2.5,1.1-3.3s1.7-1.2,2.9-1.2c0.7,0,1.4,0.1,2.1,0.4l-0.2,0.7c-0.7-0.2-1.4-0.4-1.9-0.4c-1,0-1.8,0.3-2.4,1
		s-0.8,1.6-0.8,2.8c0,1.1,0.3,2,0.8,2.7s1.3,1,2.2,1c0.8,0,1.5-0.1,2.1-0.4v0.7C758.8,704.5,758.1,704.6,757.2,704.6L757.2,704.6z
		 M764.5,703.9c0.5,0,0.9,0,1.3-0.1v0.6c-0.4,0.1-0.8,0.2-1.3,0.2c-0.8,0-1.3-0.2-1.7-0.6s-0.5-1-0.5-1.9v-5.5H761v-0.5l1.3-0.4
		l0.4-1.9h0.4v2.1h2.5v0.7H763v5.4c0,0.7,0.1,1.1,0.3,1.4S764,703.9,764.5,703.9L764.5,703.9z M768.3,693.6c0-0.5,0.2-0.8,0.5-0.8
		c0.2,0,0.3,0.1,0.4,0.2s0.1,0.3,0.1,0.6c0,0.2,0,0.4-0.1,0.6s-0.2,0.2-0.4,0.2C768.4,694.4,768.3,694.1,768.3,693.6L768.3,693.6z
		 M769.1,704.5h-0.8V696h0.8V704.5z M779.8,700.2c0,1.4-0.3,2.5-1,3.2s-1.6,1.2-2.8,1.2c-0.7,0-1.4-0.2-2-0.5s-1-0.9-1.3-1.5
		s-0.5-1.4-0.5-2.3c0-1.4,0.3-2.5,1-3.2s1.6-1.2,2.8-1.2c1.2,0,2.1,0.4,2.7,1.2S779.8,698.8,779.8,700.2L779.8,700.2z M773.1,700.2
		c0,1.2,0.3,2.1,0.8,2.7s1.2,1,2.2,1s1.7-0.3,2.2-1s0.8-1.6,0.8-2.7c0-1.2-0.3-2.1-0.8-2.7s-1.2-1-2.2-1s-1.7,0.3-2.2,1
		S773.1,699,773.1,700.2L773.1,700.2z M788.9,704.5V699c0-0.9-0.2-1.5-0.5-1.9s-0.9-0.6-1.7-0.6c-1,0-1.8,0.3-2.2,0.8
		s-0.7,1.3-0.7,2.5v4.7H783V696h0.7l0.1,1.2h0c0.5-0.9,1.5-1.3,2.9-1.3c1.9,0,2.9,1,2.9,3.1v5.6L788.9,704.5L788.9,704.5z"/>
	<path class="st0" d="M570,734h29"/>
	<g class="st1">
		<path class="st2" d="M762.7,329l-0.2,4.3l-38.8,13.4l0.2-4.3L762.7,329z M371,394l0.2-4.3c0.4-7.4,2-14.9,5-22.2
			c11.9-29,43.2-53,88.2-67.6c9.7-3.1,19.9-5.7,30.4-7.8c84.3-16.3,180.5,4.7,229.1,50.3l-0.2,4.3c-48.6-45.6-144.8-66.6-229.1-50.3
			c-10.5,2-20.8,4.7-30.4,7.8c-45,14.5-76.4,38.5-88.2,67.6C373,379.1,371.3,386.5,371,394L371,394z"/>
		<path class="st3" d="M388.6,443.9c-12.5-16-18.4-33-17.6-49.9l0.2-4.3c-0.7,14.7,3.7,29.4,12.9,43.4l-0.1,1.1l0.1-1.1
			c4.6,7,10.5,13.9,17.5,20.5c54.1,50.7,161.9,74.2,256.3,55.9c11.8-2.3,23.2-5.2,34-8.7c65.6-21.2,102.4-59.6,104.3-100.5l-0.2,4.3
			c-1.9,40.9-38.7,79.3-104.3,100.5c-10.8,3.5-22.3,6.4-34,8.7c-94.4,18.3-202.2-5.2-256.3-55.9
			C396.6,453.3,392.3,448.6,388.6,443.9c-0.2-0.4-0.4-0.9-0.7-1.3C388.2,443,388.4,443.5,388.6,443.9L388.6,443.9z M388,442.7
			L388,442.7L388,442.7l-0.1-0.1l0,0l0,0l0,0l0,0l0,0l0,0l0,0l0,0l0,0l0,0l0,0l0,0l0,0l0,0l0,0l0,0l0,0l0,0l0,0l0,0l0,0l0,0l0,0l0,0
			l0,0l0,0L388,442.7L388,442.7L388,442.7 M387.6,441.7L387.6,441.7L387.6,441.7L387.6,441.7L387.6,441.7L387.6,441.7l0,0.1l0,0l0,0
			l0,0l0,0l0,0v0l0,0v0v0l0,0v0l0,0l0,0l0,0l0,0l0,0L387.6,441.7L387.6,441.7L387.6,441.7L387.6,441.7L387.6,441.7L387.6,441.7
			 M387.6,441.7l-0.1-0.2l-0.1-0.2l-0.1-0.2l-0.1-0.2l-0.1-0.2l-0.1-0.2l-0.1-0.2l-0.1-0.3l-0.1-0.3l-0.1-0.3l-0.1-0.3l-0.1-0.2
			l-0.1-0.2l-0.1-0.2l-0.1-0.2l-0.1-0.2l0.1,0.2l0.1,0.2l0.1,0.2l0.1,0.2l0.1,0.2l0.1,0.3l0.1,0.3l0.1,0.3l0.1,0.3l0.1,0.2l0.1,0.2
			l0.1,0.2l0.1,0.2l0.1,0.2l0.1,0.2L387.6,441.7 M385.8,437.8l-0.1-0.2l-0.1-0.2l-0.1-0.2l-0.1-0.2l-0.1-0.2l-0.1-0.2l-0.1-0.2
			l-0.1-0.2l-0.1-0.2l-0.1-0.3l-0.1-0.3l-0.1-0.3l-0.1-0.3l-0.1-0.3l-0.1-0.3l-0.1-0.3l0.1,0.3l0.1,0.3l0.1,0.3l0.1,0.3l0.1,0.3
			l0.1,0.3l0.1,0.3l0.1,0.2l0.1,0.2l0.1,0.2l0.1,0.2l0.1,0.2l0.1,0.2l0.1,0.2l0.1,0.2L385.8,437.8"/>
		<path class="st2" d="M797.5,400.4l-0.2,4.3c-2,41.1-39,79.7-104.8,101c-10.9,3.5-22.4,6.5-34.3,8.8c-95,18.4-203.5-5.3-257.9-56.3
			c-21.3-19.9-31.7-42.1-30.6-64.3l0.2-4.3c-1.1,22.1,9.4,44.4,30.6,64.3c54.4,51,162.9,74.7,257.9,56.3c11.8-2.3,23.4-5.2,34.3-8.8
			C758.5,480.1,795.5,441.5,797.5,400.4L797.5,400.4z M763.1,328c66.1,61.9,34.3,139.5-70.4,173.4c-10.9,3.5-22.4,6.5-34.3,8.8
			c-95,18.4-203.5-5.3-257.9-56.3c-28.4-26.6-37.5-57.4-25.6-86.6c11.9-29.2,43.5-53.4,88.8-68c9.7-3.1,20-5.8,30.6-7.8
			c84.7-16.4,181.3,4.6,230,49.9L763.1,328L763.1,328z M692,500.7c103.9-33.6,135.6-110.5,70.7-171.7l-38.8,13.4
			c-48.6-45.6-144.8-66.6-229.1-50.3c-10.5,2-20.8,4.7-30.4,7.8c-45,14.5-76.4,38.5-88.2,67.6c-11.9,29-2.9,59.6,25.4,86
			c54.1,50.7,161.9,74.2,256.3,55.9C669.7,507.2,681.2,504.2,692,500.7"/>
		<path class="st2" d="M796.3,400.3l-0.2,4.3c1.2-23.9-9.6-48.7-33.6-71.3l0.2-4.3C786.7,351.6,797.5,376.4,796.3,400.3z"/>
		<path class="st4" d="M494.9,292.1c84.3-16.3,180.5,4.7,228.8,49.9l39.1-13c64.9,61.2,33.2,138.1-70.7,171.7
			c-10.8,3.5-22.3,6.4-34,8.7c-94.4,18.3-202.2-5.2-256.3-55.9c-28.3-26.5-37.3-57-25.4-86c11.9-29,43.2-53,88.2-67.6
			C474.1,296.8,484.4,294.2,494.9,292.1L494.9,292.1z"/>
	</g>
	<ellipse class="st5" cx="544.5" cy="364.7" rx="11.9" ry="4"/>
	<g>
		<path class="st6" d="M537.6,327.4c4.9,3.5,8.4,3.5,14.1,0c2.2,2.8,2.9,5.9,3.5,9.3c0.2,1.3,0.6,4.4,0.5,5.7
			c-0.2,3.1-0.8,3.2-1.6,3.8c-0.4,0.2-0.5,0.8-0.6,1.3c-0.5,3.7-1.3,7.5-1.5,11.2c-0.3,5.7-6.6,7.6-10.4,6c-2.6-1.1-4.2-2.9-4.5-5.8
			c-0.4-3.8-1-7.6-1.5-11.4c-0.1-0.6-0.1-1.4-0.9-1.6c0,0-1.6-0.6-1.6-3.4c-0.1-4.9,0.7-9.7,3.4-14
			C536.8,328.3,537.4,327.6,537.6,327.4L537.6,327.4z M552.9,319.8c-0.1,4.5-3.9,8.2-8.4,8.2c-4.5,0-8.2-3.9-8.2-8.5
			c0-4.5,3.8-8.2,8.4-8.1C549.3,311.4,552.9,315.2,552.9,319.8L552.9,319.8z"/>
	</g>
	<ellipse class="st5" cx="419.3" cy="388.3" rx="11.9" ry="4"/>
	<g>
		<path class="st7" d="M412.3,351c4.9,3.5,8.4,3.5,14.1,0c2.2,2.8,2.9,5.9,3.5,9.3c0.2,1.3,0.6,4.4,0.5,5.7
			c-0.1,3.1-0.8,3.2-1.6,3.8c-0.4,0.2-0.5,0.8-0.6,1.3c-0.5,3.7-1.3,7.5-1.5,11.2c-0.3,5.7-6.5,7.6-10.4,6c-2.6-1.1-4.2-2.9-4.5-5.8
			c-0.4-3.8-1-7.6-1.5-11.4c-0.1-0.6-0.1-1.4-0.9-1.6c0,0-1.6-0.6-1.6-3.4c-0.1-4.9,0.7-9.7,3.4-14
			C411.5,351.9,412.1,351.2,412.3,351L412.3,351z M427.6,343.4c-0.1,4.5-3.9,8.2-8.4,8.2c-4.6,0-8.2-3.9-8.2-8.5
			c0-4.5,3.8-8.2,8.4-8.1C424,335,427.7,338.8,427.6,343.4L427.6,343.4z"/>
	</g>
	<ellipse class="st5" cx="606.7" cy="362.3" rx="11.9" ry="4"/>
	<g>
		<path class="st8" d="M599.7,325c4.9,3.5,8.4,3.5,14.1,0c2.2,2.8,2.9,5.9,3.5,9.3c0.2,1.3,0.6,4.4,0.5,5.7
			c-0.1,3.1-0.8,3.2-1.6,3.8c-0.4,0.2-0.5,0.8-0.6,1.3c-0.5,3.7-1.3,7.5-1.5,11.2c-0.3,5.7-6.5,7.6-10.4,6c-2.6-1.1-4.2-2.9-4.5-5.8
			c-0.4-3.8-1-7.6-1.5-11.4c-0.1-0.6-0.1-1.4-0.9-1.6c0,0-1.6-0.6-1.6-3.4c-0.1-4.9,0.7-9.7,3.4-14
			C598.9,325.9,599.5,325.2,599.7,325L599.7,325z M615,317.4c-0.1,4.5-3.9,8.2-8.4,8.2c-4.6,0-8.2-3.9-8.2-8.5
			c0.1-4.5,3.8-8.2,8.4-8.1C611.4,309,615.1,312.8,615,317.4L615,317.4z"/>
	</g>
	<ellipse class="st5" cx="655.8" cy="403.3" rx="11.9" ry="4"/>
	<g>
		<path class="st9" d="M648.9,366c4.9,3.5,8.4,3.5,14.1,0c2.2,2.8,2.9,5.9,3.5,9.3c0.2,1.3,0.6,4.4,0.5,5.7
			c-0.2,3.1-0.8,3.2-1.6,3.8c-0.4,0.2-0.5,0.8-0.6,1.3c-0.5,3.7-1.3,7.5-1.5,11.2c-0.3,5.7-6.5,7.6-10.4,6c-2.6-1.1-4.2-2.9-4.5-5.8
			c-0.4-3.8-1-7.6-1.5-11.4c-0.1-0.6,0-1.4-0.9-1.6c0,0-1.6-0.6-1.6-3.4c-0.1-4.9,0.7-9.7,3.4-14C648.1,366.9,648.7,366.2,648.9,366
			L648.9,366z M664.2,358.4c-0.1,4.5-3.9,8.2-8.4,8.2c-4.6,0-8.2-3.9-8.2-8.5c0-4.5,3.8-8.2,8.4-8.1
			C660.6,350,664.2,353.8,664.2,358.4L664.2,358.4z"/>
	</g>
	<ellipse class="st5" cx="523.3" cy="421.3" rx="11.9" ry="4"/>
	<g>
		<path class="st10" d="M516.3,384c4.9,3.5,8.4,3.5,14.1,0c2.2,2.8,2.9,5.9,3.5,9.3c0.2,1.3,0.6,4.4,0.5,5.7
			c-0.2,3.1-0.8,3.2-1.6,3.8c-0.4,0.2-0.5,0.8-0.6,1.3c-0.5,3.7-1.3,7.5-1.5,11.2c-0.3,5.7-6.6,7.6-10.4,6c-2.6-1.1-4.2-2.9-4.5-5.8
			c-0.4-3.8-1-7.6-1.5-11.4c-0.1-0.6-0.1-1.4-0.9-1.6c0,0-1.6-0.6-1.6-3.4c-0.1-4.9,0.7-9.7,3.4-14
			C515.5,384.9,516.1,384.2,516.3,384L516.3,384z M531.6,376.4c-0.1,4.5-3.9,8.2-8.4,8.2c-4.5,0-8.2-3.9-8.2-8.5
			c0-4.5,3.8-8.2,8.4-8.1C528,368,531.7,371.8,531.6,376.4L531.6,376.4z"/>
	</g>
	<g class="st11">
		<ellipse class="st5" cx="339.3" cy="383.3" rx="11.9" ry="4"/>
		<g>
			<path class="st12" d="M332.3,346c4.9,3.5,8.4,3.5,14.1,0c2.2,2.8,2.9,5.9,3.5,9.3c0.2,1.3,0.6,4.4,0.5,5.7
				c-0.2,3.1-0.8,3.2-1.6,3.8c-0.4,0.2-0.5,0.8-0.6,1.3c-0.5,3.7-1.3,7.5-1.5,11.2c-0.3,5.7-6.6,7.6-10.4,6
				c-2.6-1.1-4.2-2.9-4.5-5.8c-0.4-3.8-1-7.6-1.5-11.4c-0.1-0.6,0-1.4-0.9-1.6c0,0-1.6-0.6-1.6-3.4c-0.1-4.9,0.7-9.7,3.4-14
				C331.5,346.9,332.1,346.2,332.3,346L332.3,346z M347.6,338.4c-0.1,4.5-3.9,8.2-8.4,8.2c-4.6,0-8.2-3.9-8.2-8.5
				c0-4.5,3.8-8.2,8.4-8.1C344,330,347.7,333.8,347.6,338.4L347.6,338.4z"/>
		</g>
	</g>
	<g class="st11">
		<ellipse class="st5" cx="381.1" cy="507.1" rx="13.1" ry="4.4"/>
		<g>
			<path class="st12" d="M373.5,466c5.4,3.9,9.3,3.9,15.6,0c2.4,3.1,3.2,6.5,3.9,10.3c0.2,1.4,0.6,4.8,0.6,6.3
				c-0.2,3.5-0.9,3.6-1.8,4.2c-0.4,0.3-0.6,0.9-0.6,1.4c-0.6,4.1-1.4,8.2-1.6,12.4c-0.3,6.3-7.2,8.4-11.4,6.6
				c-2.9-1.2-4.6-3.2-5-6.4c-0.4-4.2-1.1-8.4-1.7-12.5c-0.1-0.6-0.1-1.5-0.9-1.8c0,0-1.7-0.7-1.7-3.7c-0.1-5.4,0.8-10.7,3.7-15.4
				C372.6,467,373.3,466.2,373.5,466L373.5,466z M390.3,457.7c-0.1,5-4.3,9-9.2,9c-5,0-9.1-4.3-9-9.4c0.1-5,4.2-9,9.2-8.9
				C386.4,448.4,390.4,452.6,390.3,457.7L390.3,457.7z"/>
		</g>
	</g>
	<ellipse class="st5" cx="571.9" cy="460.9" rx="13.1" ry="4.4"/>
	<g>
		<path class="st13" d="M564.2,419.8c5.4,3.9,9.3,3.9,15.6,0c2.4,3.1,3.2,6.5,3.9,10.3c0.2,1.4,0.6,4.8,0.6,6.3
			c-0.2,3.5-0.9,3.6-1.8,4.2c-0.4,0.3-0.6,0.9-0.6,1.4c-0.6,4.1-1.4,8.2-1.6,12.4c-0.3,6.3-7.2,8.4-11.4,6.6c-2.9-1.2-4.6-3.2-5-6.4
			c-0.4-4.2-1.1-8.4-1.7-12.5c-0.1-0.6-0.1-1.5-0.9-1.8c0,0-1.7-0.7-1.7-3.7c-0.1-5.4,0.8-10.7,3.7-15.4
			C563.3,420.8,564,420,564.2,419.8L564.2,419.8z M581,411.5c-0.1,5-4.3,9-9.2,9c-5,0-9.1-4.3-9-9.4c0.1-5,4.2-9,9.2-8.9
			C577.1,402.2,581.1,406.3,581,411.5L581,411.5z"/>
	</g>
	<ellipse class="st5" cx="501.9" cy="482.9" rx="13.1" ry="4.4"/>
	<g>
		<path class="st6" d="M494.2,441.8c5.4,3.9,9.3,3.9,15.6,0c2.4,3.1,3.2,6.5,3.9,10.3c0.2,1.4,0.6,4.8,0.6,6.3
			c-0.2,3.5-0.9,3.6-1.8,4.2c-0.4,0.3-0.6,0.9-0.6,1.4c-0.6,4.1-1.4,8.2-1.6,12.4c-0.3,6.3-7.2,8.4-11.4,6.6c-2.9-1.2-4.6-3.2-5-6.4
			c-0.4-4.2-1.1-8.4-1.7-12.5c-0.1-0.6-0.1-1.5-0.9-1.8c0,0-1.7-0.7-1.7-3.7c-0.1-5.4,0.8-10.7,3.7-15.4
			C493.3,442.8,494,442,494.2,441.8L494.2,441.8z M511,433.5c-0.1,5-4.3,9-9.2,9c-5,0-9.1-4.3-9-9.4c0.1-5,4.2-9,9.2-8.9
			C507.1,424.2,511.1,428.3,511,433.5L511,433.5z"/>
	</g>
	<ellipse class="st5" cx="635.7" cy="460.9" rx="13.1" ry="4.4"/>
	<g>
		<path class="st7" d="M628,419.8c5.4,3.9,9.3,3.9,15.6,0c2.4,3.1,3.2,6.5,3.9,10.3c0.2,1.4,0.6,4.8,0.6,6.3
			c-0.2,3.5-0.9,3.6-1.8,4.2c-0.4,0.3-0.6,0.9-0.6,1.4c-0.6,4.1-1.4,8.2-1.6,12.4c-0.3,6.3-7.2,8.4-11.4,6.6c-2.9-1.2-4.6-3.2-5-6.4
			c-0.4-4.2-1.1-8.4-1.7-12.5c-0.1-0.6-0.1-1.5-0.9-1.8c0,0-1.7-0.7-1.7-3.7c-0.1-5.4,0.8-10.7,3.7-15.4
			C627.2,420.8,627.8,420,628,419.8L628,419.8z M644.9,411.5c-0.1,5-4.3,9-9.2,9c-5,0-9.1-4.3-9-9.4c0.1-5,4.2-9,9.2-8.9
			C640.9,402.2,645,406.3,644.9,411.5L644.9,411.5z"/>
	</g>
	<g class="st11">
		<ellipse class="st5" cx="782.2" cy="513.9" rx="13.1" ry="4.4"/>
		<g>
			<path class="st12" d="M774.5,472.8c5.4,3.9,9.3,3.9,15.6,0c2.4,3.1,3.2,6.5,3.9,10.3c0.2,1.4,0.6,4.8,0.6,6.3
				c-0.2,3.5-0.9,3.6-1.8,4.2c-0.4,0.3-0.6,0.9-0.6,1.4c-0.6,4.1-1.4,8.2-1.6,12.4c-0.3,6.3-7.2,8.4-11.4,6.6
				c-2.9-1.2-4.6-3.2-5-6.4c-0.4-4.2-1.1-8.4-1.7-12.5c-0.1-0.6-0.1-1.5-0.9-1.8c0,0-1.7-0.7-1.7-3.7c-0.1-5.4,0.8-10.7,3.7-15.4
				C773.7,473.8,774.4,473,774.5,472.8L774.5,472.8z M791.4,464.5c-0.1,5-4.3,9-9.2,9c-5,0-9.1-4.3-9-9.4c0.1-5,4.2-9,9.2-8.9
				C787.5,455.2,791.5,459.3,791.4,464.5L791.4,464.5z"/>
		</g>
	</g>
	<ellipse class="st5" cx="461.2" cy="462.9" rx="13.1" ry="4.4"/>
	<g>
		<path class="st8" d="M453.5,421.8c5.4,3.9,9.3,3.9,15.6,0c2.4,3.1,3.2,6.5,3.9,10.3c0.2,1.4,0.6,4.8,0.6,6.3
			c-0.2,3.5-0.9,3.6-1.8,4.2c-0.4,0.3-0.6,0.9-0.6,1.4c-0.6,4.1-1.4,8.2-1.6,12.4c-0.3,6.3-7.2,8.4-11.4,6.6c-2.9-1.2-4.6-3.2-5-6.4
			c-0.4-4.2-1.1-8.4-1.7-12.5c-0.1-0.6-0.1-1.5-0.9-1.8c0,0-1.7-0.7-1.7-3.7c-0.1-5.4,0.8-10.7,3.7-15.4
			C452.7,422.8,453.4,422,453.5,421.8L453.5,421.8z M470.4,413.5c-0.1,5-4.3,9-9.2,9c-5,0-9.1-4.3-9-9.4c0.1-5,4.2-9,9.2-8.9
			C466.5,404.2,470.5,408.3,470.4,413.5L470.4,413.5z"/>
	</g>
	<ellipse class="st5" cx="731.2" cy="407.9" rx="13.1" ry="4.4"/>
	<g>
		<path class="st8" d="M723.5,366.8c5.4,3.9,9.3,3.9,15.6,0c2.4,3.1,3.2,6.5,3.9,10.3c0.2,1.4,0.6,4.8,0.6,6.3
			c-0.2,3.5-0.9,3.6-1.8,4.2c-0.4,0.3-0.6,0.9-0.6,1.4c-0.6,4.1-1.4,8.2-1.6,12.4c-0.3,6.3-7.2,8.4-11.4,6.6c-2.9-1.2-4.6-3.2-5-6.4
			c-0.4-4.2-1.1-8.4-1.7-12.5c-0.1-0.6-0.1-1.5-0.9-1.8c0,0-1.7-0.7-1.7-3.7c-0.1-5.4,0.8-10.7,3.7-15.4
			C722.7,367.8,723.4,367,723.5,366.8L723.5,366.8z M740.4,358.5c-0.1,5-4.3,9-9.2,9c-5,0-9.1-4.3-9-9.4c0.1-5,4.2-9,9.2-8.9
			C736.5,349.2,740.5,353.3,740.4,358.5L740.4,358.5z"/>
	</g>
	<g>
		<path class="st14" d="M654.1,539c0.4-0.8,0.6-1.7,0.7-2.7c0.2-3.8,0.9-7.5,1.5-11.2c0.1-0.5,0.2-1,0.6-1.3
			c0.8-0.6,1.5-0.7,1.6-3.8c0.1-1.3-0.3-4.4-0.5-5.7c-0.6-3.4-1.3-6.5-3.5-9.3c-5.7,3.5-9.2,3.5-14.1,0c-0.2,0.2-0.8,0.9-1,1.2
			c-2.6,4.3-3.4,9.1-3.4,14c0,2.7,1.6,3.4,1.6,3.4c0.8,0.2,0.8,1,0.9,1.6c0.6,3.8,1.1,7.6,1.5,11.4c0.1,0.9,0.3,1.7,0.7,2.4
			c-3.2,0.7-5.2,1.9-5.2,3.3c0,2.2,5.3,4,11.9,4s11.9-1.8,11.9-4C659.2,540.9,657.2,539.7,654.1,539L654.1,539z M647.3,505.6
			c4.5,0,8.3-3.7,8.4-8.2c0.1-4.6-3.6-8.4-8.2-8.5c-4.6,0-8.3,3.6-8.4,8.1C639,501.7,642.7,505.6,647.3,505.6L647.3,505.6z
			 M597.7,560.3c0.4-0.9,0.7-1.8,0.7-2.9c0.2-4.1,1-8.3,1.6-12.4c0.1-0.5,0.3-1.1,0.6-1.4c0.9-0.6,1.6-0.7,1.8-4.2
			c0.1-1.5-0.3-4.8-0.6-6.3c-0.6-3.8-1.4-7.2-3.9-10.3c-6.3,3.9-10.2,3.9-15.6,0c-0.2,0.2-0.9,1-1.1,1.3c-2.9,4.7-3.8,10-3.7,15.4
			c0,3,1.7,3.7,1.7,3.7c0.9,0.3,0.8,1.2,0.9,1.8c0.6,4.2,1.2,8.3,1.7,12.5c0.1,1,0.4,1.9,0.7,2.7c-3.5,0.8-5.8,2.1-5.8,3.6
			c0,2.4,5.9,4.4,13.1,4.4c7.3,0,13.1-2,13.1-4.4C603.3,562.4,601.1,561.1,597.7,560.3L597.7,560.3z M590.1,523.5c5,0,9.1-4,9.2-9
			c0.1-5.1-3.9-9.3-9-9.3c-5,0-9.2,4-9.2,8.9C581,519.2,585.1,523.4,590.1,523.5L590.1,523.5z"/>
	</g>
	<ellipse class="st5" cx="706.1" cy="457.9" rx="13.1" ry="4.4"/>
	<g>
		<path class="st10" d="M698.5,416.8c5.4,3.9,9.3,3.9,15.6,0c2.4,3.1,3.2,6.5,3.9,10.3c0.2,1.4,0.6,4.8,0.6,6.3
			c-0.2,3.5-0.9,3.6-1.8,4.2c-0.4,0.3-0.6,0.9-0.6,1.4c-0.6,4.1-1.4,8.2-1.6,12.4c-0.3,6.3-7.2,8.4-11.4,6.6c-2.9-1.2-4.6-3.2-5-6.4
			c-0.4-4.2-1.1-8.4-1.7-12.5c-0.1-0.6-0.1-1.5-0.9-1.8c0,0-1.7-0.7-1.7-3.7c-0.1-5.4,0.8-10.7,3.7-15.4
			C697.6,417.8,698.3,417,698.5,416.8L698.5,416.8z M715.3,408.5c-0.1,5-4.3,9-9.2,9c-5,0-9.1-4.3-9-9.4c0.1-5,4.2-9,9.2-8.9
			C711.4,399.2,715.4,403.3,715.3,408.5L715.3,408.5z"/>
	</g>
	<ellipse class="st5" cx="643.3" cy="336.8" rx="9.5" ry="3.2"/>
	<g>
		<path class="st6" d="M637.8,307.1c3.9,2.8,6.7,2.8,11.2,0c1.7,2.2,2.3,4.7,2.8,7.4c0.2,1,0.5,3.5,0.4,4.5c-0.1,2.5-0.6,2.6-1.3,3
			c-0.3,0.2-0.4,0.7-0.5,1c-0.4,3-1,6-1.2,8.9c-0.2,4.5-5.2,6-8.2,4.8c-2.1-0.9-3.3-2.3-3.6-4.6c-0.3-3-0.8-6-1.2-9.1
			c-0.1-0.5,0-1.1-0.7-1.3c0,0-1.2-0.5-1.2-2.7c-0.1-3.9,0.6-7.7,2.7-11.1C637.1,307.9,637.6,307.3,637.8,307.1L637.8,307.1z
			 M649.9,301.1c-0.1,3.6-3.1,6.5-6.7,6.5c-3.6,0-6.6-3.1-6.5-6.8c0-3.6,3-6.5,6.7-6.5C647.1,294.4,650,297.4,649.9,301.1
			L649.9,301.1z"/>
	</g>
	<g class="st11">
		<ellipse class="st5" cx="431.2" cy="276.1" rx="9.5" ry="3.2"/>
		<g>
			<path class="st12" d="M425.6,246.4c3.9,2.8,6.7,2.8,11.2,0c1.7,2.2,2.3,4.7,2.8,7.4c0.2,1,0.5,3.5,0.4,4.5
				c-0.1,2.5-0.6,2.6-1.3,3c-0.3,0.2-0.4,0.7-0.5,1c-0.4,3-1,6-1.2,8.9c-0.2,4.5-5.2,6-8.2,4.8c-2.1-0.9-3.3-2.3-3.6-4.6
				c-0.3-3-0.8-6.1-1.2-9.1c-0.1-0.5,0-1.1-0.7-1.3c0,0-1.2-0.5-1.2-2.7c-0.1-3.9,0.6-7.7,2.7-11.1
				C425,247.1,425.5,246.5,425.6,246.4L425.6,246.4z M437.8,240.4c-0.1,3.6-3.1,6.5-6.7,6.5c-3.6,0-6.6-3.1-6.5-6.8
				c0-3.6,3-6.5,6.7-6.5C435,233.7,437.9,236.7,437.8,240.4L437.8,240.4z"/>
		</g>
	</g>
	<g class="st11">
		<ellipse class="st5" cx="623.4" cy="283.1" rx="9.5" ry="3.2"/>
		<g>
			<path class="st12" d="M617.9,253.4c3.9,2.8,6.7,2.8,11.2,0c1.7,2.2,2.3,4.7,2.8,7.4c0.2,1,0.5,3.5,0.4,4.5
				c-0.1,2.5-0.6,2.6-1.3,3c-0.3,0.2-0.4,0.7-0.5,1c-0.4,3-1,6-1.2,8.9c-0.2,4.5-5.2,6-8.2,4.8c-2.1-0.9-3.3-2.3-3.6-4.6
				c-0.3-3-0.8-6.1-1.2-9.1c-0.1-0.5,0-1.1-0.7-1.3c0,0-1.2-0.5-1.2-2.7c-0.1-3.9,0.6-7.7,2.7-11.1
				C617.2,254.1,617.7,253.5,617.9,253.4L617.9,253.4z M630,247.4c-0.1,3.6-3.1,6.5-6.7,6.5c-3.6,0-6.6-3.1-6.5-6.8
				c0-3.6,3-6.5,6.7-6.5C627.2,240.7,630.1,243.7,630,247.4L630,247.4z"/>
		</g>
	</g>
	<ellipse class="st5" cx="442.6" cy="345.1" rx="9.5" ry="3.2"/>
	<g>
		<path class="st8" d="M437,315.4c3.9,2.8,6.7,2.8,11.2,0c1.7,2.2,2.3,4.7,2.8,7.4c0.2,1,0.5,3.5,0.4,4.5c-0.1,2.5-0.6,2.6-1.3,3
			c-0.3,0.2-0.4,0.7-0.5,1c-0.4,3-1,6-1.2,8.9c-0.2,4.5-5.2,6-8.2,4.8c-2.1-0.9-3.3-2.3-3.6-4.6c-0.3-3-0.8-6-1.2-9.1
			c-0.1-0.5,0-1.1-0.7-1.3c0,0-1.2-0.5-1.2-2.7c-0.1-3.9,0.6-7.7,2.7-11.1C436.4,316.1,436.9,315.5,437,315.4L437,315.4z
			 M449.2,309.4c-0.1,3.6-3.1,6.5-6.7,6.5c-3.6,0-6.6-3.1-6.5-6.8c0-3.6,3-6.5,6.7-6.5C446.4,302.7,449.3,305.7,449.2,309.4
			L449.2,309.4z"/>
	</g>
	<ellipse class="st5" cx="478.2" cy="306.1" rx="9.5" ry="3.2"/>
	<g>
		<path class="st9" d="M472.6,276.4c3.9,2.8,6.7,2.8,11.2,0c1.7,2.2,2.3,4.7,2.8,7.4c0.2,1,0.5,3.5,0.4,4.5c-0.1,2.5-0.6,2.6-1.3,3
			c-0.3,0.2-0.4,0.7-0.5,1c-0.4,3-1,6-1.2,8.9c-0.2,4.5-5.2,6-8.2,4.8c-2.1-0.9-3.3-2.3-3.6-4.6c-0.3-3-0.8-6-1.2-9.1
			c-0.1-0.5,0-1.1-0.7-1.3c0,0-1.2-0.5-1.2-2.7c-0.1-3.9,0.6-7.7,2.7-11.1C472,277.1,472.5,276.5,472.6,276.4L472.6,276.4z
			 M484.8,270.4c-0.1,3.6-3.1,6.5-6.7,6.5c-3.6,0-6.6-3.1-6.5-6.8c0-3.6,3-6.5,6.7-6.5C481.9,263.7,484.9,266.7,484.8,270.4
			L484.8,270.4z"/>
	</g>
	<g class="st11">
		<ellipse class="st5" cx="377.2" cy="324.1" rx="9.5" ry="3.2"/>
		<g>
			<path class="st12" d="M371.6,294.4c3.9,2.8,6.7,2.8,11.2,0c1.7,2.2,2.3,4.7,2.8,7.4c0.2,1,0.5,3.5,0.4,4.5
				c-0.1,2.5-0.6,2.6-1.3,3c-0.3,0.2-0.4,0.7-0.5,1c-0.4,3-1,6-1.2,8.9c-0.2,4.5-5.2,6-8.2,4.8c-2.1-0.9-3.3-2.3-3.6-4.6
				c-0.3-3-0.8-6-1.2-9.1c-0.1-0.5,0-1.1-0.7-1.3c0,0-1.2-0.5-1.2-2.7c-0.1-3.9,0.6-7.7,2.7-11.1C371,295.1,371.5,294.5,371.6,294.4
				L371.6,294.4z M383.8,288.4c-0.1,3.6-3.1,6.5-6.7,6.5c-3.6,0-6.6-3.1-6.5-6.8c0-3.6,3-6.5,6.7-6.5
				C380.9,281.7,383.9,284.7,383.8,288.4L383.8,288.4z"/>
		</g>
	</g>
	<g class="st11">
		<ellipse class="st5" cx="685.2" cy="292.1" rx="9.5" ry="3.2"/>
		<g>
			<path class="st12" d="M679.6,262.4c3.9,2.8,6.7,2.8,11.2,0c1.7,2.2,2.3,4.7,2.8,7.4c0.2,1,0.5,3.5,0.4,4.5
				c-0.1,2.5-0.6,2.6-1.3,3c-0.3,0.2-0.4,0.7-0.5,1c-0.4,3-1,6-1.2,8.9c-0.2,4.5-5.2,6-8.2,4.8c-2.1-0.9-3.3-2.3-3.6-4.6
				c-0.3-3-0.8-6-1.2-9.1c-0.1-0.4,0-1.1-0.7-1.3c0,0-1.2-0.5-1.2-2.7c-0.1-3.9,0.6-7.7,2.7-11.1C679,263.1,679.5,262.5,679.6,262.4
				L679.6,262.4z M691.8,256.4c-0.1,3.6-3.1,6.5-6.7,6.5c-3.6,0-6.6-3.1-6.5-6.8c0-3.6,3-6.5,6.7-6.5
				C688.9,249.7,691.9,252.7,691.8,256.4L691.8,256.4z"/>
		</g>
	</g>
	<g class="st11">
		<ellipse class="st5" cx="647.3" cy="542.3" rx="11.9" ry="4"/>
		<g>
			<path class="st12" d="M640.3,505c4.9,3.5,8.4,3.5,14.1,0c2.2,2.8,2.9,5.9,3.5,9.3c0.2,1.3,0.6,4.4,0.5,5.7
				c-0.2,3.1-0.8,3.2-1.6,3.8c-0.4,0.2-0.5,0.8-0.6,1.3c-0.5,3.7-1.3,7.5-1.5,11.2c-0.3,5.7-6.5,7.6-10.4,6
				c-2.6-1.1-4.2-2.9-4.5-5.8c-0.4-3.8-1-7.6-1.5-11.4c-0.1-0.6-0.1-1.4-0.9-1.6c0,0-1.6-0.6-1.6-3.4c-0.1-4.9,0.7-9.7,3.4-14
				C639.5,505.9,640.2,505.2,640.3,505L640.3,505z M655.6,497.4c-0.1,4.5-3.9,8.2-8.4,8.2c-4.6,0-8.2-3.9-8.2-8.5
				c0-4.5,3.8-8.2,8.4-8.1C652.1,489,655.7,492.8,655.6,497.4L655.6,497.4z"/>
		</g>
	</g>
	<g class="st11">
		<ellipse class="st5" cx="590.2" cy="563.9" rx="13.1" ry="4.4"/>
		<g>
			<path class="st12" d="M582.5,522.8c5.4,3.9,9.3,3.9,15.6,0c2.4,3.1,3.2,6.5,3.9,10.3c0.2,1.4,0.6,4.8,0.6,6.3
				c-0.2,3.5-0.9,3.6-1.8,4.2c-0.4,0.3-0.6,0.9-0.6,1.4c-0.6,4.1-1.4,8.2-1.6,12.4c-0.3,6.3-7.2,8.4-11.4,6.6
				c-2.9-1.2-4.6-3.2-5-6.4c-0.4-4.2-1.1-8.4-1.7-12.5c-0.1-0.6-0.1-1.5-0.9-1.8c0,0-1.7-0.7-1.7-3.7c-0.1-5.4,0.8-10.7,3.7-15.4
				C581.6,523.8,582.3,523,582.5,522.8L582.5,522.8z M599.3,514.5c-0.1,5-4.3,9-9.2,9c-5,0-9.1-4.3-9-9.4c0.1-5,4.2-9,9.2-8.9
				C595.4,505.2,599.4,509.3,599.3,514.5L599.3,514.5z"/>
		</g>
	</g>
	<ellipse class="st5" cx="589.5" cy="311.1" rx="9.5" ry="3.2"/>
	<g>
		<path class="st10" d="M584,281.4c3.9,2.8,6.7,2.8,11.2,0c1.7,2.2,2.3,4.7,2.8,7.4c0.2,1,0.5,3.5,0.4,4.5c-0.1,2.5-0.6,2.6-1.3,3
			c-0.3,0.2-0.4,0.7-0.5,1c-0.4,3-1,6-1.2,8.9c-0.2,4.5-5.2,6-8.2,4.8c-2.1-0.9-3.3-2.3-3.6-4.6c-0.3-3-0.8-6-1.2-9.1
			c-0.1-0.5,0-1.1-0.7-1.3c0,0-1.2-0.5-1.2-2.7c-0.1-3.9,0.6-7.7,2.7-11.1C583.4,282.1,583.9,281.5,584,281.4L584,281.4z
			 M596.2,275.4c-0.1,3.6-3.1,6.5-6.7,6.5c-3.6,0-6.6-3.1-6.5-6.8c0-3.6,3-6.5,6.7-6.5C593.3,268.7,596.2,271.7,596.2,275.4
			L596.2,275.4z"/>
	</g>
	<ellipse class="st5" cx="466.3" cy="385.3" rx="11.9" ry="4"/>
	<g>
		<path class="st13" d="M459.3,348c4.9,3.5,8.4,3.5,14.1,0c2.2,2.8,2.9,5.9,3.5,9.3c0.2,1.3,0.6,4.4,0.5,5.7
			c-0.1,3.1-0.8,3.2-1.6,3.8c-0.4,0.2-0.5,0.8-0.6,1.3c-0.5,3.7-1.3,7.5-1.5,11.2c-0.3,5.7-6.5,7.6-10.4,6c-2.6-1.1-4.2-2.9-4.5-5.8
			c-0.4-3.8-1-7.6-1.5-11.4c-0.1-0.6-0.1-1.4-0.9-1.6c0,0-1.6-0.6-1.6-3.4c-0.1-4.9,0.7-9.7,3.4-14
			C458.5,348.9,459.2,348.2,459.3,348L459.3,348z M474.6,340.4c-0.1,4.5-3.9,8.2-8.4,8.2c-4.6,0-8.2-3.9-8.2-8.5
			c0-4.5,3.8-8.2,8.4-8.1C471.1,332,474.7,335.8,474.6,340.4L474.6,340.4z"/>
	</g>
	<ellipse class="st5" cx="513.6" cy="319.1" rx="9.5" ry="3.2"/>
	<g>
		<path class="st8" d="M508,289.4c3.9,2.8,6.7,2.8,11.2,0c1.7,2.2,2.3,4.7,2.8,7.4c0.2,1,0.5,3.5,0.4,4.5c-0.1,2.5-0.6,2.6-1.3,3
			c-0.3,0.2-0.4,0.7-0.5,1c-0.4,3-1,6-1.2,8.9c-0.2,4.5-5.2,6-8.2,4.8c-2.1-0.9-3.3-2.3-3.6-4.6c-0.3-3-0.8-6-1.2-9.1
			c-0.1-0.5,0-1.1-0.7-1.3c0,0-1.2-0.5-1.2-2.7c-0.1-3.9,0.6-7.7,2.7-11.1C507.4,290.1,507.9,289.5,508,289.4L508,289.4z
			 M520.2,283.4c-0.1,3.6-3.1,6.5-6.7,6.5c-3.6,0-6.6-3.1-6.5-6.8c0-3.6,3-6.5,6.7-6.5C517.4,276.7,520.3,279.7,520.2,283.4
			L520.2,283.4z"/>
	</g>
	<ellipse class="st5" cx="760.9" cy="433.9" rx="13.1" ry="4.4"/>
	<g>
		<path class="st13" d="M753.2,392.8c5.4,3.9,9.3,3.9,15.6,0c2.4,3.1,3.2,6.5,3.9,10.3c0.2,1.4,0.6,4.8,0.6,6.3
			c-0.2,3.5-0.9,3.6-1.8,4.2c-0.4,0.3-0.6,0.9-0.6,1.4c-0.6,4.1-1.4,8.2-1.6,12.4c-0.3,6.3-7.2,8.4-11.4,6.6c-2.9-1.2-4.6-3.2-5-6.4
			c-0.4-4.2-1.1-8.4-1.7-12.5c-0.1-0.6-0.1-1.5-0.9-1.8c0,0-1.7-0.7-1.7-3.7c-0.1-5.4,0.8-10.7,3.7-15.4
			C752.3,393.8,753,393,753.2,392.8L753.2,392.8z M770,384.5c-0.1,5-4.3,9-9.2,9c-5,0-9.1-4.3-9-9.4c0.1-5,4.2-9,9.2-8.9
			C766.1,375.2,770.1,379.3,770,384.5L770,384.5z"/>
	</g>
	<g>
		<path class="st15" d="M477.5,264v-2"/>
		<path class="st16" d="M477.5,260v-85"/>
		<path class="st15" d="M477.5,174v-2"/>
	</g>
	<path class="st17" d="M465.5,216.5h24v26h-24V216.5z"/>
	<g>
		<path class="st6" d="M470.3,231.1c0,0.9,0,1.8,0,2.7c0,0.2,0.1,0.3,0.3,0.4c0.8,0.1,1.5,0.3,2.3,0.5c0.6,0.2,1.2,0.4,1.8,0.6
			c2.1,0.5,4.2,0.5,6.3,0.4c1-0.1,2-0.2,3-0.8c0.6-0.4,1-0.8,0.5-1.6c-0.2-0.2-0.1-0.4,0.1-0.6c1.1-0.8,1.2-1.1,0.2-2.1
			c-0.2-0.2-0.2-0.3,0-0.5c0.1-0.1,0.2-0.1,0.3-0.2c0.6-0.5,0.5-1.5-0.1-1.8c-0.6-0.3-0.6-0.3-0.4-0.9c0,0,0-0.1,0-0.1
			c0.2-0.9-0.1-1.4-1-1.6c-0.4-0.1-0.7,0-1.1,0c-1.1,0.1-2.2,0.3-3.3,0.4c-1,0.1-1.5-0.4-1.3-1.4c0.1-0.5,0.4-0.9,0.5-1.4
			c0.2-0.7,0.5-1.3,0.6-2c0.1-0.7-0.2-1.3-0.8-1.7c-0.6-0.4-1.1-0.2-1.3,0.5c-0.5,1.9-1.6,3.4-2.9,4.8c-0.8,0.9-1.6,1.7-2.1,2.7
			c-0.2,0.5-0.6,0.8-1.2,0.9c-0.3,0-0.4,0.2-0.4,0.4C470.3,229.4,470.3,230.3,470.3,231.1L470.3,231.1z"/>
		<path class="st6" d="M470.3,231.1c0-0.9,0-1.7,0-2.6c0-0.3,0-0.4,0.4-0.4c0.6,0,1-0.4,1.2-0.9c0.5-1,1.3-1.8,2.1-2.7
			c1.3-1.4,2.4-2.9,2.9-4.8c0.2-0.7,0.7-0.9,1.3-0.5c0.6,0.4,0.9,1,0.8,1.7c-0.1,0.7-0.4,1.4-0.6,2c-0.2,0.5-0.4,0.9-0.5,1.4
			c-0.2,1,0.2,1.5,1.3,1.4c1.1-0.1,2.2-0.3,3.3-0.4c0.4,0,0.7-0.1,1.1,0c0.9,0.1,1.2,0.7,1,1.6l0,0.1c-0.2,0.6-0.2,0.6,0.4,0.9
			c0.6,0.3,0.7,1.3,0.1,1.8c-0.1,0.1-0.2,0.1-0.3,0.2c-0.2,0.1-0.2,0.3,0,0.5c1,1,0.9,1.3-0.2,2.1c-0.2,0.2-0.3,0.4-0.1,0.6
			c0.5,0.7,0.1,1.2-0.5,1.6c-0.9,0.5-1.9,0.7-3,0.8c-2.1,0.1-4.2,0.1-6.3-0.4c-0.6-0.1-1.2-0.4-1.8-0.6c-0.7-0.2-1.5-0.4-2.3-0.5
			c-0.3-0.1-0.3-0.1-0.3-0.4C470.3,232.9,470.3,232,470.3,231.1L470.3,231.1z"/>
	</g>
	<g>
		<path class="st15" d="M642.5,296v-2"/>
		<path class="st16" d="M642.5,292V175"/>
		<path class="st15" d="M642.5,174v-2"/>
	</g>
	<path class="st17" d="M630.5,179.5h24v26h-24V179.5z"/>
	<g>
		<path class="st6" d="M635.3,194.1c0,0.9,0,1.8,0,2.7c0,0.2,0.1,0.3,0.3,0.4c0.8,0.1,1.5,0.3,2.3,0.5c0.6,0.2,1.2,0.4,1.8,0.6
			c2.1,0.5,4.2,0.5,6.3,0.4c1-0.1,2-0.2,3-0.8c0.6-0.4,1-0.8,0.5-1.6c-0.2-0.2-0.1-0.4,0.1-0.6c1.1-0.8,1.2-1.1,0.2-2.1
			c-0.2-0.2-0.2-0.3,0-0.5c0.1-0.1,0.2-0.1,0.3-0.2c0.6-0.5,0.5-1.5-0.1-1.8c-0.6-0.3-0.6-0.3-0.4-0.9c0,0,0-0.1,0-0.1
			c0.2-0.9-0.1-1.4-1-1.6c-0.4-0.1-0.7,0-1.1,0c-1.1,0.1-2.2,0.3-3.3,0.4c-1,0.1-1.5-0.4-1.3-1.4c0.1-0.5,0.4-0.9,0.5-1.4
			c0.2-0.7,0.5-1.3,0.6-2c0.1-0.7-0.2-1.3-0.8-1.7c-0.6-0.4-1.1-0.2-1.3,0.5c-0.5,1.9-1.6,3.4-2.9,4.8c-0.8,0.9-1.6,1.7-2.1,2.7
			c-0.2,0.5-0.6,0.8-1.2,0.9c-0.3,0-0.4,0.2-0.4,0.4C635.3,192.4,635.3,193.3,635.3,194.1L635.3,194.1z"/>
		<path class="st6" d="M635.3,194.1c0-0.9,0-1.7,0-2.6c0-0.3,0-0.4,0.4-0.4c0.6,0,1-0.4,1.2-0.9c0.5-1,1.3-1.8,2.1-2.7
			c1.3-1.4,2.4-2.9,2.9-4.8c0.2-0.7,0.7-0.9,1.3-0.5c0.6,0.4,0.9,1,0.8,1.7c-0.1,0.7-0.4,1.4-0.6,2c-0.2,0.5-0.4,0.9-0.5,1.4
			c-0.2,1,0.2,1.5,1.3,1.4c1.1-0.1,2.2-0.3,3.3-0.4c0.4,0,0.7-0.1,1.1,0c0.9,0.1,1.2,0.7,1,1.6l0,0.1c-0.2,0.6-0.2,0.6,0.4,0.9
			c0.6,0.3,0.7,1.3,0.2,1.8c-0.1,0.1-0.2,0.1-0.3,0.2c-0.2,0.1-0.2,0.3,0,0.5c1,1,0.9,1.3-0.2,2.1c-0.2,0.2-0.3,0.4-0.1,0.6
			c0.5,0.7,0.1,1.2-0.5,1.6c-0.9,0.5-1.9,0.7-3,0.8c-2.1,0.1-4.2,0.1-6.3-0.4c-0.6-0.1-1.2-0.4-1.8-0.6c-0.7-0.2-1.5-0.4-2.3-0.5
			c-0.3-0.1-0.3-0.1-0.3-0.4C635.3,195.9,635.3,195,635.3,194.1L635.3,194.1z"/>
	</g>
	<path class="st18" d="M666.4,357.2"/>
	<g>
		<path class="st15" d="M703.5,171v2"/>
		<path class="st16" d="M703.5,175v219"/>
		<path class="st15" d="M703.5,395v2"/>
	</g>
	<path class="st17" d="M691.5,190.5h24v26h-24V190.5z"/>
	<g>
		<path class="st6" d="M696.3,205.1c0,0.9,0,1.8,0,2.7c0,0.2,0.1,0.3,0.3,0.4c0.8,0.1,1.5,0.3,2.3,0.5c0.6,0.2,1.2,0.4,1.8,0.6
			c2.1,0.5,4.2,0.5,6.3,0.4c1-0.1,2-0.2,3-0.8c0.6-0.4,1-0.8,0.5-1.6c-0.2-0.2-0.1-0.4,0.1-0.6c1.1-0.8,1.2-1.1,0.2-2.1
			c-0.2-0.2-0.2-0.3,0-0.5c0.1-0.1,0.2-0.1,0.3-0.2c0.6-0.5,0.5-1.5-0.1-1.8c-0.6-0.3-0.6-0.3-0.4-0.9c0,0,0-0.1,0-0.1
			c0.2-0.9-0.1-1.4-1-1.6c-0.4-0.1-0.7,0-1.1,0c-1.1,0.1-2.2,0.3-3.3,0.4c-1,0.1-1.5-0.4-1.3-1.4c0.1-0.5,0.4-0.9,0.5-1.4
			c0.2-0.7,0.5-1.3,0.6-2c0.1-0.7-0.2-1.3-0.8-1.7c-0.6-0.4-1.1-0.2-1.3,0.5c-0.5,1.9-1.6,3.4-2.9,4.8c-0.8,0.9-1.6,1.7-2.1,2.7
			c-0.2,0.5-0.6,0.8-1.2,0.9c-0.3,0-0.4,0.2-0.4,0.4C696.3,203.4,696.3,204.3,696.3,205.1L696.3,205.1z"/>
		<path class="st6" d="M696.3,205.1c0-0.9,0-1.7,0-2.6c0-0.3,0-0.4,0.4-0.4c0.6,0,1-0.4,1.2-0.9c0.5-1,1.3-1.8,2.1-2.7
			c1.3-1.4,2.4-2.9,2.9-4.8c0.2-0.7,0.7-0.9,1.3-0.5c0.6,0.4,0.9,1,0.8,1.7c-0.1,0.7-0.4,1.4-0.6,2c-0.2,0.5-0.4,0.9-0.5,1.4
			c-0.2,1,0.2,1.5,1.3,1.4c1.1-0.1,2.2-0.3,3.3-0.4c0.4,0,0.7-0.1,1.1,0c0.9,0.1,1.2,0.7,1,1.6l0,0.1c-0.2,0.6-0.2,0.6,0.4,0.9
			c0.6,0.3,0.7,1.3,0.2,1.8c-0.1,0.1-0.2,0.1-0.3,0.2c-0.2,0.1-0.2,0.3,0,0.5c1,1,0.9,1.3-0.2,2.1c-0.2,0.2-0.3,0.4-0.1,0.6
			c0.5,0.7,0.1,1.2-0.5,1.6c-0.9,0.5-1.9,0.7-3,0.8c-2.1,0.1-4.2,0.1-6.3-0.4c-0.6-0.1-1.2-0.4-1.8-0.6c-0.7-0.2-1.5-0.4-2.3-0.5
			c-0.3-0.1-0.3-0.1-0.3-0.4C696.3,206.9,696.3,206,696.3,205.1L696.3,205.1z"/>
	</g>
	<path class="st17" d="M747.5,178.5h24v26h-24V178.5z"/>
	<g>
		<path class="st6" d="M752.3,193.1c0,0.9,0,1.8,0,2.7c0,0.2,0.1,0.3,0.3,0.4c0.8,0.1,1.5,0.3,2.3,0.5c0.6,0.2,1.2,0.4,1.8,0.6
			c2.1,0.5,4.2,0.5,6.3,0.4c1-0.1,2-0.2,3-0.8c0.6-0.4,1-0.8,0.5-1.6c-0.2-0.2-0.1-0.4,0.1-0.6c1.1-0.8,1.2-1.1,0.2-2.1
			c-0.2-0.2-0.2-0.3,0-0.5c0.1-0.1,0.2-0.1,0.3-0.2c0.6-0.5,0.5-1.5-0.1-1.8c-0.6-0.3-0.6-0.3-0.4-0.9c0,0,0-0.1,0-0.1
			c0.2-0.9-0.1-1.4-1-1.6c-0.4-0.1-0.7,0-1.1,0c-1.1,0.1-2.2,0.3-3.3,0.4c-1,0.1-1.5-0.4-1.3-1.4c0.1-0.5,0.4-0.9,0.5-1.4
			c0.2-0.7,0.5-1.3,0.6-2c0.1-0.7-0.2-1.3-0.8-1.7c-0.6-0.4-1.1-0.2-1.3,0.5c-0.5,1.9-1.6,3.4-2.9,4.8c-0.8,0.9-1.6,1.7-2.1,2.7
			c-0.2,0.5-0.6,0.8-1.2,0.9c-0.3,0-0.4,0.2-0.4,0.4C752.3,191.4,752.3,192.3,752.3,193.1L752.3,193.1z"/>
		<path class="st6" d="M752.3,193.1c0-0.9,0-1.7,0-2.6c0-0.3,0-0.4,0.4-0.4c0.6,0,1-0.4,1.2-0.9c0.5-1,1.3-1.8,2.1-2.7
			c1.3-1.4,2.4-2.9,2.9-4.8c0.2-0.7,0.7-0.9,1.3-0.5c0.6,0.4,0.9,1,0.8,1.7c-0.1,0.7-0.4,1.4-0.6,2c-0.2,0.5-0.4,0.9-0.5,1.4
			c-0.2,1,0.2,1.5,1.3,1.4c1.1-0.1,2.2-0.3,3.3-0.4c0.4,0,0.7-0.1,1.1,0c0.9,0.1,1.2,0.7,1,1.6l0,0.1c-0.2,0.6-0.2,0.6,0.4,0.9
			c0.6,0.3,0.7,1.3,0.2,1.8c-0.1,0.1-0.2,0.1-0.3,0.2c-0.2,0.1-0.2,0.3,0,0.5c1,1,0.9,1.3-0.2,2.1c-0.2,0.2-0.3,0.4-0.1,0.6
			c0.5,0.7,0.1,1.2-0.5,1.6c-0.9,0.5-1.9,0.7-3,0.8c-2.1,0.1-4.2,0.1-6.3-0.4c-0.6-0.1-1.2-0.4-1.8-0.6c-0.7-0.2-1.5-0.4-2.3-0.5
			c-0.3-0.1-0.3-0.1-0.3-0.4C752.3,194.9,752.3,194,752.3,193.1L752.3,193.1z"/>
	</g>
	<g>
		<path class="st15" d="M759.5,374v-2"/>
		<path class="st16" d="M759.5,370V137"/>
		<path class="st15" d="M759.9,136.2v-2h-2"/>
		<path class="st16" d="M756,134.5h-44"/>
		<path class="st15" d="M711,134.5h-2"/>
	</g>
	<g>
		<path class="st19" d="M730.5,349v-2"/>
		<path class="st20" d="M730.5,345V155"/>
		<path class="st19" d="M730.9,154.2v-2h-2"/>
		<path class="st20" d="M727,152.5h-16"/>
		<path class="st19" d="M710,152.5h-2"/>
	</g>
	<g>
		<path class="st15" d="M513.5,276v-2"/>
		<path class="st16" d="M513.5,272v-97"/>
		<path class="st15" d="M513.5,174v-2"/>
	</g>
	<path class="st17" d="M501.5,180.5h24v26h-24V180.5z"/>
	<g>
		<path class="st6" d="M506.3,195.1c0,0.9,0,1.8,0,2.7c0,0.2,0.1,0.3,0.3,0.4c0.8,0.1,1.5,0.3,2.3,0.5c0.6,0.2,1.2,0.4,1.8,0.6
			c2.1,0.5,4.2,0.5,6.3,0.4c1-0.1,2-0.2,3-0.8c0.6-0.4,1-0.8,0.5-1.6c-0.2-0.2-0.1-0.4,0.1-0.6c1.1-0.8,1.2-1.1,0.2-2.1
			c-0.2-0.2-0.2-0.3,0-0.5c0.1-0.1,0.2-0.1,0.3-0.2c0.6-0.5,0.5-1.5-0.1-1.8c-0.6-0.3-0.6-0.3-0.4-0.9c0,0,0-0.1,0-0.1
			c0.2-0.9-0.1-1.4-1-1.6c-0.4-0.1-0.7,0-1.1,0c-1.1,0.1-2.2,0.3-3.3,0.4c-1,0.1-1.5-0.4-1.3-1.4c0.1-0.5,0.4-0.9,0.5-1.4
			c0.2-0.7,0.5-1.3,0.6-2c0.1-0.7-0.2-1.3-0.8-1.7c-0.6-0.4-1.1-0.2-1.3,0.5c-0.5,1.9-1.6,3.4-2.9,4.8c-0.8,0.9-1.6,1.7-2.1,2.7
			c-0.2,0.5-0.6,0.8-1.2,0.9c-0.3,0-0.4,0.2-0.4,0.4C506.3,193.4,506.3,194.3,506.3,195.1L506.3,195.1z"/>
		<path class="st6" d="M506.3,195.1c0-0.9,0-1.7,0-2.6c0-0.3,0-0.4,0.4-0.4c0.6,0,1-0.4,1.2-0.9c0.5-1,1.3-1.8,2.1-2.7
			c1.3-1.4,2.4-2.9,2.9-4.8c0.2-0.7,0.7-0.9,1.3-0.5c0.6,0.4,0.9,1,0.8,1.7c-0.1,0.7-0.4,1.4-0.6,2c-0.2,0.5-0.4,0.9-0.5,1.4
			c-0.2,1,0.2,1.5,1.3,1.4c1.1-0.1,2.2-0.3,3.3-0.4c0.4,0,0.7-0.1,1.1,0c0.9,0.1,1.2,0.7,1,1.6l0,0.1c-0.2,0.6-0.2,0.6,0.4,0.9
			c0.6,0.3,0.7,1.3,0.2,1.8c-0.1,0.1-0.2,0.1-0.3,0.2c-0.2,0.1-0.2,0.3,0,0.5c1,1,0.9,1.3-0.2,2.1c-0.2,0.2-0.3,0.4-0.1,0.6
			c0.5,0.7,0.1,1.2-0.5,1.6c-0.9,0.5-1.9,0.7-3,0.8c-2.1,0.1-4.2,0.1-6.3-0.4c-0.6-0.1-1.2-0.4-1.8-0.6c-0.7-0.2-1.5-0.4-2.3-0.5
			c-0.3-0.1-0.3-0.1-0.3-0.4C506.3,196.9,506.3,196,506.3,195.1L506.3,195.1z"/>
	</g>
	<g>
		<path class="st15" d="M589.5,269v-2"/>
		<path class="st16" d="M589.5,265v-90"/>
		<path class="st15" d="M589.5,174v-2"/>
	</g>
	<path class="st17" d="M577.5,197.5h24v26h-24V197.5z"/>
	<g>
		<path class="st6" d="M582.3,212.1c0,0.9,0,1.8,0,2.7c0,0.2,0.1,0.3,0.3,0.4c0.8,0.1,1.5,0.3,2.3,0.5c0.6,0.2,1.2,0.4,1.8,0.6
			c2.1,0.5,4.2,0.5,6.3,0.4c1-0.1,2-0.2,3-0.8c0.6-0.4,1-0.8,0.5-1.6c-0.2-0.2-0.1-0.4,0.1-0.6c1.1-0.8,1.2-1.1,0.2-2.1
			c-0.2-0.2-0.2-0.3,0-0.5c0.1-0.1,0.2-0.1,0.3-0.2c0.6-0.5,0.5-1.5-0.1-1.8c-0.6-0.3-0.6-0.3-0.4-0.9c0,0,0-0.1,0-0.1
			c0.2-0.9-0.1-1.4-1-1.6c-0.4-0.1-0.7,0-1.1,0c-1.1,0.1-2.2,0.3-3.3,0.4c-1,0.1-1.5-0.4-1.3-1.4c0.1-0.5,0.4-0.9,0.5-1.4
			c0.2-0.7,0.5-1.3,0.6-2c0.1-0.7-0.2-1.3-0.8-1.7c-0.6-0.4-1.1-0.2-1.3,0.5c-0.5,1.9-1.6,3.4-2.9,4.8c-0.8,0.9-1.6,1.7-2.1,2.7
			c-0.2,0.5-0.6,0.8-1.2,0.9c-0.3,0-0.4,0.2-0.4,0.4C582.3,210.4,582.3,211.3,582.3,212.1L582.3,212.1z"/>
		<path class="st6" d="M582.3,212.1c0-0.9,0-1.7,0-2.6c0-0.3,0-0.4,0.4-0.4c0.6,0,1-0.4,1.2-0.9c0.5-1,1.3-1.8,2.1-2.7
			c1.3-1.4,2.4-2.9,2.9-4.8c0.2-0.7,0.7-0.9,1.3-0.5c0.6,0.4,0.9,1,0.8,1.7c-0.1,0.7-0.4,1.4-0.6,2c-0.2,0.5-0.4,0.9-0.5,1.4
			c-0.2,1,0.2,1.5,1.3,1.4c1.1-0.1,2.2-0.3,3.3-0.4c0.4,0,0.7-0.1,1.1,0c0.9,0.1,1.2,0.7,1,1.6l0,0.1c-0.2,0.6-0.2,0.6,0.4,0.9
			c0.6,0.3,0.7,1.3,0.2,1.8c-0.1,0.1-0.2,0.1-0.3,0.2c-0.2,0.1-0.2,0.3,0,0.5c1,1,0.9,1.3-0.2,2.1c-0.2,0.2-0.3,0.4-0.1,0.6
			c0.5,0.7,0.1,1.2-0.5,1.6c-0.9,0.5-1.9,0.7-3,0.8c-2.1,0.1-4.2,0.1-6.3-0.4c-0.6-0.1-1.2-0.4-1.8-0.6c-0.7-0.2-1.5-0.4-2.3-0.5
			c-0.3-0.1-0.3-0.1-0.3-0.4C582.3,213.9,582.3,213,582.3,212.1L582.3,212.1z"/>
	</g>
	<g>
		<path class="st21" d="M543.5,312v-2"/>
		<path class="st22" d="M543.5,308V175"/>
		<path class="st21" d="M543.5,174v-2"/>
	</g>
	<path class="st23" d="M531.5,215.5h24v26h-24V215.5z"/>
	<g>
		<path class="st8" d="M551.4,224.7c0-0.9,0-1.8,0-2.7c0-0.2-0.1-0.3-0.3-0.4c-0.8-0.1-1.5-0.3-2.3-0.5c-0.6-0.2-1.2-0.4-1.8-0.6
			c-2.1-0.5-4.2-0.5-6.3-0.4c-1,0.1-2,0.2-3,0.8c-0.6,0.4-1,0.8-0.5,1.6c0.2,0.2,0.1,0.4-0.1,0.6c-1.1,0.8-1.2,1.1-0.2,2.1
			c0.2,0.2,0.2,0.3,0,0.5c-0.1,0.1-0.2,0.1-0.3,0.2c-0.6,0.5-0.5,1.5,0.1,1.8c0.6,0.3,0.6,0.3,0.4,0.9c0,0,0,0.1,0,0.1
			c-0.2,0.9,0.1,1.4,1,1.6c0.4,0.1,0.7,0,1.1,0c1.1-0.1,2.2-0.3,3.3-0.4c1-0.1,1.5,0.4,1.3,1.4c-0.1,0.5-0.4,0.9-0.5,1.4
			c-0.2,0.7-0.5,1.3-0.6,2c-0.1,0.7,0.2,1.3,0.8,1.7c0.6,0.4,1.1,0.2,1.3-0.5c0.5-1.9,1.6-3.4,2.9-4.8c0.8-0.8,1.6-1.7,2.1-2.7
			c0.2-0.5,0.6-0.8,1.2-0.9c0.3,0,0.4-0.2,0.4-0.4C551.4,226.4,551.4,225.6,551.4,224.7L551.4,224.7z"/>
		<path class="st8" d="M551.4,224.7c0,0.9,0,1.7,0,2.6c0,0.3,0,0.4-0.4,0.4c-0.6,0-1,0.4-1.2,0.9c-0.5,1-1.3,1.8-2.1,2.7
			c-1.3,1.4-2.4,2.9-2.9,4.8c-0.2,0.7-0.7,0.9-1.3,0.5c-0.6-0.4-0.9-1-0.8-1.7c0.1-0.7,0.4-1.4,0.6-2c0.2-0.5,0.4-0.9,0.5-1.4
			c0.2-1-0.2-1.5-1.3-1.4c-1.1,0.1-2.2,0.3-3.3,0.4c-0.4,0-0.7,0.1-1.1,0c-0.9-0.1-1.2-0.7-1-1.6l0-0.1c0.2-0.6,0.2-0.6-0.4-0.9
			c-0.6-0.3-0.7-1.3-0.2-1.8c0.1-0.1,0.2-0.1,0.3-0.2c0.2-0.1,0.2-0.3,0-0.5c-1-1-0.9-1.3,0.2-2.1c0.2-0.2,0.3-0.4,0.1-0.6
			c-0.5-0.7-0.1-1.2,0.5-1.6c0.9-0.5,1.9-0.7,2.9-0.8c2.1-0.1,4.2-0.1,6.3,0.4c0.6,0.1,1.2,0.4,1.8,0.6c0.7,0.2,1.5,0.4,2.3,0.5
			c0.3,0.1,0.3,0.1,0.3,0.4C551.4,222.9,551.4,223.8,551.4,224.7L551.4,224.7z"/>
	</g>
	<g>
		<path class="st15" d="M442.5,304v-2"/>
		<path class="st24" d="M442.5,300V151"/>
		<path class="st15" d="M442.9,150.2v-2h2"/>
		<path class="st25" d="M447,148.5h6"/>
		<path class="st15" d="M454,148.5h2"/>
	</g>
	<g>
		<path class="st19" d="M455,133.5h-2"/>
		<path class="st20" d="M451,133.5h-50"/>
		<path class="st19" d="M399.9,133.2h-2v2"/>
		<path class="st26" d="M397.5,137v219"/>
		<path class="st19" d="M397.9,357.2v2h2"/>
		<path class="st27" d="M401,359.5h5"/>
		<path class="st19" d="M406,359.5h2"/>
	</g>
	<path class="st28" d="M385.5,201.5h24v26h-24V201.5z"/>
	<g>
		<path class="st13" d="M400.2,209.5c-0.1-1.4-1-1.9-2-1.4c-0.2,0.1-0.6,0.2-0.7,0.1c-0.9-1.4-1.8-1.1-2.6,0.2
			c-1.4-1.1-1.4-1.1-2.6,0.2c-0.1,0.2-0.4,0.3-0.6,0.3c-1.4-0.1-1.8,0.5-1.6,2.2c0.2,1.8,0.3,3.7,0.6,5.5c0.1,0.4,0.4,0.8,0.6,1.2
			c0.2-0.4,0.6-0.8,0.6-1.2c0-0.2,0-0.4,0-0.6c0.1,0,0.2-0.1,0.2-0.2c0.1-0.1,0.1-0.3,0.2-0.4c0.2,0.1,0.3,0.1,0.5,0.2
			c0,0.7,0.1,1.4,0.2,2.2c0.1,0.6,0.6,1.5,0.9,1.5c0.7,0,0.8-0.9,0.8-1.6c0-0.5,0-1,0-1.6c0.1,0,0.3,0.1,0.4,0.1
			c0.2,0.1,0.4,0.2,0.6,0.3c0,0.6,0.1,1.3,0.1,2c0.1,0.8,0.2,1.7,1,1.5c0.4-0.1,0.7-1.1,0.8-1.8c0-0.6-0.2-1.1-0.3-1.7
			c0-0.1-0.2-0.1-0.2-0.2v-0.9c0-0.4,0.7-0.9,0.7-1.3c0.1-0.1,0.3-0.2,0.3-0.4c0-0.3,0.2-1.9-0.5-1.9c0,0,0,0,0-0.1l0.5,0
			c0.1,0.5,0.3,1.1,0.3,1.6c0.1,1.5,0.1,3,0.1,4.5c0,0.8,0.2,1.7,1,1.5c0.4-0.1,0.8-1,0.9-1.6C400.4,214.9,400.3,212.2,400.2,209.5
			L400.2,209.5z M392,212.7c0.1,0.1,0.2,0.2,0.3,0.3l0.2,0.2c-0.1,0.1-0.2,0.2-0.4,0.4c-0.1,0.1-0.2,0.3-0.3,0.4c0,0,0,0-0.1,0
			c0-0.2,0-0.4,0-0.5C391.8,213.2,391.9,212.9,392,212.7L392,212.7z M395.2,215.2c-0.2-0.1-0.5-0.2-0.7-0.2c0-0.1,0-0.1,0-0.2
			c0.1,0,0.2-0.1,0.3-0.1h0.6c0,0.2,0,0.4,0,0.6C395.4,215.2,395.3,215.2,395.2,215.2L395.2,215.2z M400.7,214.8v-4.4
			c1.1,1.6,2.3,1.6,3.7,1.1c0.8-0.3,1.8,0.1,2.6,0.5c0.8,0.4,0.9,1.6,0.1,2.1c-0.8,0.6-1.8,1-2.7,1.1
			C403.3,215.3,402.1,215,400.7,214.8L400.7,214.8z"/>
	</g>
	<path class="st28" d="M718.5,223.5h24v26h-24V223.5z"/>
	<g>
		<path class="st13" d="M732.6,231.9c-0.1-1.4-1-1.9-2-1.4c-0.2,0.1-0.6,0.2-0.7,0.1c-0.9-1.4-1.8-1.1-2.6,0.2
			c-1.4-1.1-1.4-1.1-2.6,0.2c-0.1,0.2-0.4,0.3-0.6,0.3c-1.4-0.1-1.8,0.5-1.6,2.2c0.2,1.8,0.3,3.7,0.6,5.5c0.1,0.4,0.4,0.8,0.7,1.2
			c0.2-0.4,0.6-0.8,0.6-1.2c0-0.2,0-0.4,0-0.6c0.1,0,0.2-0.1,0.2-0.2c0.1-0.1,0.1-0.3,0.2-0.4c0.2,0.1,0.3,0.1,0.5,0.2
			c0,0.7,0.1,1.4,0.2,2.2c0.1,0.6,0.6,1.5,0.9,1.5c0.7,0,0.8-0.9,0.8-1.6c0-0.5,0-1,0-1.6c0.1,0,0.3,0.1,0.4,0.1
			c0.2,0.1,0.4,0.2,0.6,0.3c0,0.6,0.1,1.3,0.1,1.9c0.1,0.8,0.2,1.7,1,1.5c0.4-0.1,0.7-1.1,0.8-1.8c0-0.6-0.5-1.1-0.5-1.7
			c0-0.1-0.4-0.1-0.4-0.2v-0.9c0-0.4,0.9-0.9,1-1.3c0.1-0.1,0.5-0.2,0.5-0.4c0-0.3,0.2-1.9-0.5-1.9c0,0,0.1,0,0.1-0.1l0.5,0
			c0.1,0.5,0.3,1.1,0.3,1.6c0.1,1.5,0.1,3,0.1,4.5c0,0.8,0.2,1.7,1,1.5c0.4-0.1,0.8-1,0.9-1.6C732.8,237.3,732.8,234.6,732.6,231.9
			L732.6,231.9z M724.5,235.1c0.1,0.1,0.2,0.2,0.3,0.3l0.2,0.2c-0.1,0.1-0.2,0.2-0.3,0.4c-0.1,0.1-0.2,0.3-0.3,0.4c0,0,0,0-0.1,0
			c0-0.2,0-0.4,0-0.5C724.2,235.6,724.4,235.3,724.5,235.1L724.5,235.1z M727.7,237.6c-0.2-0.1-0.5-0.2-0.7-0.2c0-0.1,0-0.1,0-0.2
			c0.1,0,0.2-0.1,0.3-0.1h0.7c0,0.2,0,0.4,0,0.6L727.7,237.6L727.7,237.6z M733.2,237.2v-4.4c1.1,1.6,2.3,1.6,3.7,1.1
			c0.8-0.2,1.8,0.1,2.6,0.5c0.8,0.4,0.9,1.6,0.1,2.1c-0.8,0.6-1.8,1-2.7,1.1C735.8,237.7,734.6,237.4,733.2,237.2L733.2,237.2z"/>
	</g>
	<path class="st29" d="M708.5,159.3c0,6.3-4.6,12.2-11.4,12.2H464.6c-6.8,0-13.1-5.9-13.1-12.2v-49.5c0-6.3,6.4-10.3,13.1-10.3
		h232.5c6.8,0,11.4,4,11.4,10.3L708.5,159.3L708.5,159.3z"/>
	<path class="st8" d="M638,115.7L624.7,75c4.5-1.5,8.5-2.1,13.2-2.1V115.7z"/>
	<path class="st13" d="M638,115.7L597.2,129c-7.3-22.5,5-46.7,27.5-54L638,115.7L638,115.7z"/>
	<path class="st6" d="M638,115.7V72.9c23.7,0,42.9,19.2,42.9,42.9c0,23.7-19.2,42.9-42.9,42.9c-18.9,0-34.9-11.6-40.8-29.6
		L638,115.7L638,115.7z"/>
	<g>
		<path class="st4" d="M503.3,144.8C503.3,144.8,503.3,144.8,503.3,144.8l-0.1,0L503.3,144.8c0-0.1,0-0.2,0-0.2c0,0,0,0,0-0.1
			l-0.1,0l0.1-0.1c0,0,0-0.1,0-0.1c0,0,0,0,0-0.1c0,0,0-0.1-0.1-0.1c0,0,0,0,0,0c0,0-0.1-0.1-0.1-0.1c0,0,0,0,0,0
			c0,0-0.1-0.1-0.1-0.1c0,0,0,0,0,0c0,0-0.1,0-0.1-0.1c0,0,0,0-0.1,0c0,0-0.1,0-0.1,0c-3.9-0.7-7.1-2.1-9.5-4.2c0,0-0.1-0.1-0.1-0.1
			l-0.1-0.1c-0.2-0.2-0.5-0.4-0.6-0.6l-0.1-0.1l0,0c-0.5-0.5-1-1.3-1.1-1.4l-0.1-0.1c-1.1-1.6-1.7-3.4-2-5.4
			c-0.4-3.3,0.2-7.2,1.4-8.6c0.3-0.3,0.5-0.3,0.6-0.3s0.3,0,0.6,0.3c1.1,1.3,1.7,5.3,1.4,8.6c-0.2,1.3-0.5,2.5-1,3.7l0,0.1l0,0.1
			c0.3,0.6,1,1.2,1.2,1.5l0.1,0.1l0.1-0.2c0.8-1.5,1.3-3.2,1.5-5c0.4-3.5-0.2-8.2-1.8-10.2c-0.7-0.8-1.5-1-2-1c-0.5,0-1.3,0.2-2,1
			c-1.7,2-2.2,6.7-1.8,10.2c0.3,2.5,1.2,4.8,2.6,6.7c-2.4,2.6-6,4.3-10.5,5.1c-0.5,0.1-0.9,0.6-0.8,1.2c0.1,0.5,0.5,0.8,1,0.8
			c0.1,0,0.1,0,0.2,0c4.8-0.8,8.8-2.8,11.5-5.6c0,0,0,0,0,0c0,0,0.1,0.1,0.1,0.1c0.2,0.2,0.5,0.5,0.7,0.7c0,0,0.1,0.1,0.1,0.1
			l0.1,0.1c0.3,0.3,0.6,0.5,1,0.8l0.1,0.1c0.4,0.3,0.8,0.5,1.2,0.8c2.2,1.4,4.9,2.3,7.9,2.8l0-0.1l0,0.1c0.1,0,0.1,0,0.2,0
			c0.1,0,0.2,0,0.3-0.1l0,0c0.1,0,0.2-0.1,0.3-0.2l-0.1-0.1l0.1,0.1c0.1-0.1,0.1-0.1,0.2-0.2l0,0c0.1-0.1,0.1-0.2,0.1-0.3
			c0,0,0,0,0,0l0-0.1C503.3,144.9,503.3,144.9,503.3,144.8L503.3,144.8z M502.6,144L502.6,144L502.6,144z M516.3,139.4h-4.8v-9.1
			c0-0.2,0-0.4-0.1-0.6c-0.1-0.2-0.4-0.3-0.7-0.3c-0.3,0-0.6,0.1-0.7,0.3c-0.1,0.2-0.1,0.4-0.1,0.6v9.8c0,0.6,0.3,0.8,0.8,0.8h5.6
			c0.2,0,0.4,0,0.6-0.1c0.2-0.1,0.3-0.3,0.3-0.6c0-0.3-0.1-0.5-0.3-0.6C516.8,139.4,516.6,139.4,516.3,139.4L516.3,139.4z
			 M523.5,129.2c-3.5,0-5.9,2.4-5.9,6c0,3.6,2.4,6,5.9,6c3.5,0,5.9-2.4,5.9-6C529.4,131.6,527,129.2,523.5,129.2L523.5,129.2z
			 M523.5,139.7c-2.6,0-4.2-1.7-4.2-4.5c0-2.8,1.5-4.5,4.1-4.5c2.6,0,4.2,1.7,4.2,4.5C527.6,138,526.1,139.7,523.5,139.7
			L523.5,139.7z M536.8,129.2c-3.5,0-5.9,2.4-5.9,6c0,3.6,2.4,6,5.9,6c3.5,0,5.9-2.4,5.9-6C542.7,131.6,540.4,129.2,536.8,129.2
			L536.8,129.2z M536.8,139.7c-2.6,0-4.2-1.7-4.2-4.5c0-2.8,1.5-4.5,4.1-4.5c2.6,0,4.2,1.7,4.2,4.5
			C540.9,138,539.4,139.7,536.8,139.7L536.8,139.7z M556.4,130.4c0-0.4-0.1-0.6-0.2-0.8c-0.1-0.2-0.4-0.3-0.7-0.3
			c-0.7,0-0.9,0.4-1.1,0.9l-3.7,7.5l-3.6-7.5c-0.2-0.5-0.5-0.9-1.1-0.9c-0.4,0-0.6,0.1-0.7,0.2c-0.2,0.2-0.2,0.5-0.3,0.8l-1,9.5
			c0,0.1,0,0.1,0,0.2c0,0.1,0,0.2,0,0.3c0,0.5,0.3,0.7,0.8,0.7c0.7,0,0.8-0.4,0.8-0.7l0.8-7.8l3.3,7c0.2,0.4,0.4,0.8,0.9,0.8
			c0.5,0,0.7-0.3,0.9-0.7l3.4-7l0.7,7.8c0,0.5,0.3,0.7,0.9,0.7c0.6,0,0.8-0.2,0.8-0.7c0-0.1,0-0.4,0-0.5L556.4,130.4L556.4,130.4z
			 M560.6,129.4c-0.3,0-0.6,0.1-0.7,0.3c-0.1,0.2-0.1,0.4-0.1,0.6v9.8c0,0.2,0,0.4,0.1,0.6c0.1,0.2,0.4,0.3,0.7,0.3
			c0.3,0,0.6-0.1,0.7-0.3c0.1-0.2,0.1-0.4,0.1-0.6v-9.8c0-0.2,0-0.4-0.1-0.6C561.2,129.5,561,129.4,560.6,129.4z M569.8,129.2
			c-3.5,0-5.9,2.4-5.9,6c0,3.6,2.4,6,5.9,6c3.5,0,5.9-2.4,5.9-6C575.6,131.6,573.3,129.2,569.8,129.2L569.8,129.2z M569.8,139.7
			c-2.6,0-4.2-1.7-4.2-4.5c0-2.8,1.5-4.5,4.1-4.5c2.6,0,4.2,1.7,4.2,4.5C573.9,138,572.3,139.7,569.8,139.7L569.8,139.7z"/>
	</g>
	<g>
		<path class="st10" d="M503.3,143.8C503.3,143.8,503.3,143.8,503.3,143.8l-0.1,0L503.3,143.8c0-0.1,0-0.2,0-0.2c0,0,0,0,0-0.1
			l-0.1,0l0.1-0.1c0,0,0-0.1,0-0.1c0,0,0,0,0-0.1c0,0,0-0.1-0.1-0.1c0,0,0,0,0,0c0,0-0.1-0.1-0.1-0.1c0,0,0,0,0,0
			c0,0-0.1-0.1-0.1-0.1c0,0,0,0,0,0c0,0-0.1,0-0.1-0.1c0,0,0,0-0.1,0c0,0-0.1,0-0.1,0c-3.9-0.7-7.1-2.1-9.5-4.2c0,0-0.1-0.1-0.1-0.1
			l-0.1-0.1c-0.2-0.2-0.5-0.4-0.6-0.6l-0.1-0.1l0,0c-0.5-0.5-1-1.3-1.1-1.4l-0.1-0.1c-1.1-1.6-1.7-3.4-2-5.4
			c-0.4-3.3,0.2-7.2,1.4-8.6c0.3-0.3,0.5-0.3,0.6-0.3s0.3,0,0.6,0.3c1.1,1.3,1.7,5.3,1.4,8.6c-0.2,1.3-0.5,2.5-1,3.7l0,0.1l0,0.1
			c0.3,0.6,1,1.2,1.2,1.5l0.1,0.1l0.1-0.2c0.8-1.5,1.3-3.2,1.5-5c0.4-3.5-0.2-8.2-1.8-10.2c-0.7-0.8-1.5-1-2-1c-0.5,0-1.3,0.2-2,1
			c-1.7,2-2.2,6.7-1.8,10.2c0.3,2.5,1.2,4.8,2.6,6.7c-2.4,2.6-6,4.3-10.5,5.1c-0.5,0.1-0.9,0.6-0.8,1.2c0.1,0.5,0.5,0.8,1,0.8
			c0.1,0,0.1,0,0.2,0c4.8-0.8,8.8-2.8,11.5-5.6c0,0,0,0,0,0c0,0,0.1,0.1,0.1,0.1c0.2,0.2,0.5,0.5,0.7,0.7c0,0,0.1,0.1,0.1,0.1
			l0.1,0.1c0.3,0.3,0.6,0.5,1,0.8l0.1,0.1c0.4,0.3,0.8,0.5,1.2,0.8c2.2,1.4,4.9,2.3,7.9,2.8l0-0.1l0,0.1c0.1,0,0.1,0,0.2,0
			c0.1,0,0.2,0,0.3-0.1l0,0c0.1,0,0.2-0.1,0.3-0.2l-0.1-0.1l0.1,0.1c0.1-0.1,0.1-0.1,0.2-0.2l0,0c0.1-0.1,0.1-0.2,0.1-0.3
			c0,0,0,0,0,0l0-0.1C503.3,143.9,503.3,143.9,503.3,143.8L503.3,143.8z M502.6,143L502.6,143L502.6,143z M516.3,138.4h-4.8v-9.1
			c0-0.2,0-0.4-0.1-0.6c-0.1-0.2-0.4-0.3-0.7-0.3c-0.3,0-0.6,0.1-0.7,0.3c-0.1,0.2-0.1,0.4-0.1,0.6v9.8c0,0.6,0.3,0.8,0.8,0.8h5.6
			c0.2,0,0.4,0,0.6-0.1c0.2-0.1,0.3-0.3,0.3-0.6c0-0.3-0.1-0.5-0.3-0.6C516.8,138.4,516.6,138.4,516.3,138.4L516.3,138.4z
			 M523.5,128.2c-3.5,0-5.9,2.4-5.9,6c0,3.6,2.4,6,5.9,6c3.5,0,5.9-2.4,5.9-6C529.4,130.6,527,128.2,523.5,128.2L523.5,128.2z
			 M523.5,138.7c-2.6,0-4.2-1.7-4.2-4.5c0-2.8,1.5-4.5,4.1-4.5c2.6,0,4.2,1.7,4.2,4.5C527.6,137,526.1,138.7,523.5,138.7
			L523.5,138.7z M536.8,128.2c-3.5,0-5.9,2.4-5.9,6c0,3.6,2.4,6,5.9,6c3.5,0,5.9-2.4,5.9-6C542.7,130.6,540.4,128.2,536.8,128.2
			L536.8,128.2z M536.8,138.7c-2.6,0-4.2-1.7-4.2-4.5c0-2.8,1.5-4.5,4.1-4.5c2.6,0,4.2,1.7,4.2,4.5
			C540.9,137,539.4,138.7,536.8,138.7L536.8,138.7z M556.4,129.4c0-0.4-0.1-0.6-0.2-0.8c-0.1-0.2-0.4-0.3-0.7-0.3
			c-0.7,0-0.9,0.4-1.1,0.9l-3.7,7.5l-3.6-7.5c-0.2-0.5-0.5-0.9-1.1-0.9c-0.4,0-0.6,0.1-0.7,0.2c-0.2,0.2-0.2,0.5-0.3,0.8l-1,9.5
			c0,0.1,0,0.1,0,0.2c0,0.1,0,0.2,0,0.3c0,0.5,0.3,0.7,0.8,0.7c0.7,0,0.8-0.4,0.8-0.7l0.8-7.8l3.3,7c0.2,0.4,0.4,0.8,0.9,0.8
			c0.5,0,0.7-0.3,0.9-0.7l3.4-7l0.7,7.8c0,0.5,0.3,0.7,0.9,0.7c0.6,0,0.8-0.2,0.8-0.7c0-0.1,0-0.4,0-0.5L556.4,129.4L556.4,129.4z
			 M560.6,128.4c-0.3,0-0.6,0.1-0.7,0.3c-0.1,0.2-0.1,0.4-0.1,0.6v9.8c0,0.2,0,0.4,0.1,0.6c0.1,0.2,0.4,0.3,0.7,0.3
			c0.3,0,0.6-0.1,0.7-0.3c0.1-0.2,0.1-0.4,0.1-0.6v-9.8c0-0.2,0-0.4-0.1-0.6C561.2,128.5,561,128.4,560.6,128.4z M569.8,128.2
			c-3.5,0-5.9,2.4-5.9,6c0,3.6,2.4,6,5.9,6c3.5,0,5.9-2.4,5.9-6C575.6,130.6,573.3,128.2,569.8,128.2L569.8,128.2z M569.8,138.7
			c-2.6,0-4.2-1.7-4.2-4.5c0-2.8,1.5-4.5,4.1-4.5c2.6,0,4.2,1.7,4.2,4.5C573.9,137,572.3,138.7,569.8,138.7L569.8,138.7z"/>
	</g>
	<path class="st17" d="M430.5,179.5h24v26h-24V179.5z"/>
	<g>
		<path class="st6" d="M435.3,194.1c0,0.9,0,1.8,0,2.7c0,0.2,0.1,0.3,0.3,0.4c0.8,0.1,1.5,0.3,2.3,0.5c0.6,0.2,1.2,0.4,1.8,0.6
			c2.1,0.5,4.2,0.5,6.3,0.4c1-0.1,2-0.2,3-0.8c0.6-0.4,1-0.8,0.5-1.6c-0.2-0.2-0.1-0.4,0.1-0.6c1.1-0.8,1.2-1.1,0.2-2.1
			c-0.2-0.2-0.2-0.3,0-0.5c0.1-0.1,0.2-0.1,0.3-0.2c0.6-0.5,0.5-1.5-0.1-1.8c-0.6-0.3-0.6-0.3-0.4-0.9c0,0,0-0.1,0-0.1
			c0.2-0.9-0.1-1.4-1-1.6c-0.4-0.1-0.7,0-1.1,0c-1.1,0.1-2.2,0.3-3.3,0.4c-1,0.1-1.5-0.4-1.3-1.4c0.1-0.5,0.4-0.9,0.5-1.4
			c0.2-0.7,0.5-1.3,0.6-2c0.1-0.7-0.2-1.3-0.8-1.7c-0.6-0.4-1.1-0.2-1.3,0.5c-0.5,1.9-1.6,3.4-2.9,4.8c-0.8,0.9-1.6,1.7-2.1,2.7
			c-0.2,0.5-0.6,0.8-1.2,0.9c-0.3,0-0.4,0.2-0.4,0.4C435.3,192.4,435.3,193.3,435.3,194.1L435.3,194.1z"/>
		<path class="st6" d="M435.3,194.1c0-0.9,0-1.7,0-2.6c0-0.3,0-0.4,0.4-0.4c0.6,0,1-0.4,1.2-0.9c0.5-1,1.3-1.8,2.1-2.7
			c1.3-1.4,2.4-2.9,2.9-4.8c0.2-0.7,0.7-0.9,1.3-0.5c0.6,0.4,0.9,1,0.8,1.7c-0.1,0.7-0.4,1.4-0.6,2c-0.2,0.5-0.4,0.9-0.5,1.4
			c-0.2,1,0.2,1.5,1.3,1.4c1.1-0.1,2.2-0.3,3.3-0.4c0.4,0,0.7-0.1,1.1,0c0.9,0.1,1.2,0.7,1,1.6l0,0.1c-0.2,0.6-0.2,0.6,0.4,0.9
			c0.6,0.3,0.7,1.3,0.1,1.8c-0.1,0.1-0.2,0.1-0.3,0.2c-0.2,0.1-0.2,0.3,0,0.5c1,1,0.9,1.3-0.2,2.1c-0.2,0.2-0.3,0.4-0.1,0.6
			c0.5,0.7,0.1,1.2-0.5,1.6c-0.9,0.5-1.9,0.7-3,0.8c-2.1,0.1-4.2,0.1-6.3-0.4c-0.6-0.1-1.2-0.4-1.8-0.6c-0.7-0.2-1.5-0.4-2.3-0.5
			c-0.3-0.1-0.3-0.1-0.3-0.4C435.3,195.9,435.3,195,435.3,194.1L435.3,194.1z"/>
	</g>
	<g class="st11">
		<ellipse class="st5" cx="809.8" cy="350.1" rx="9.5" ry="3.2"/>
		<g>
			<path class="st12" d="M804.3,320.4c3.9,2.8,6.7,2.8,11.2,0c1.7,2.2,2.3,4.7,2.8,7.4c0.2,1,0.5,3.5,0.4,4.5
				c-0.1,2.5-0.6,2.6-1.3,3c-0.3,0.2-0.4,0.7-0.5,1c-0.4,3-1,6-1.2,8.9c-0.2,4.5-5.2,6-8.2,4.8c-2.1-0.9-3.3-2.3-3.6-4.6
				c-0.3-3-0.8-6-1.2-9.1c-0.1-0.5,0-1.1-0.7-1.3c0,0-1.2-0.5-1.2-2.7c-0.1-3.9,0.6-7.7,2.7-11.1
				C803.6,321.1,804.1,320.5,804.3,320.4L804.3,320.4z M816.5,314.4c-0.1,3.6-3.1,6.5-6.7,6.5c-3.6,0-6.6-3.1-6.5-6.8
				c0-3.6,3-6.5,6.7-6.5C813.6,307.7,816.5,310.7,816.5,314.4L816.5,314.4z"/>
		</g>
	</g>
</g>
<text transform="matrix(1 0 0 1 327.214 541.2461)" class="st30 st31">做伙決定</text>
<text transform="matrix(1 0 0 1 326.5649 575.9409)"><tspan x="0" y="0" class="st32 st33">多元觀點集結在線上做出決策</tspan><tspan x="0" y="28.8" class="st32 st33">促成共識與集體行動</tspan></text>
</svg>
