<?xml version="1.0" encoding="utf-8"?>
<!-- Generator: Adobe Illustrator 19.1.0, SVG Export Plug-In . SVG Version: 6.00 Build 0)  -->
<!DOCTYPE svg PUBLIC "-//W3C//DTD SVG 1.1//EN" "http://www.w3.org/Graphics/SVG/1.1/DTD/svg11.dtd">
<svg version="1.1" id="圖層_1" xmlns="http://www.w3.org/2000/svg" xmlns:xlink="http://www.w3.org/1999/xlink" x="0px" y="0px"
	 viewBox="139 25.1 889 742.9" style="enable-background:new 139 25.1 889 742.9;" xml:space="preserve">
<style type="text/css">
	.st0{fill:#969696;}
	.st1{fill:none;stroke:#C2C2C4;stroke-miterlimit:10;}
	.st2{fill:#C2C2C4;}
	.st3{fill:#FFFFFF;}
	.st4{fill:none;stroke:#FFFFFF;stroke-width:4;stroke-miterlimit:10;}
	.st5{fill:none;stroke:#FFFFFF;stroke-width:4;stroke-miterlimit:10;stroke-dasharray:3.3122,2.4841;}
	.st6{fill:none;stroke:#FFFFFF;stroke-width:4;stroke-miterlimit:10;stroke-dasharray:3.9799,2.9849;}
	.st7{fill:none;stroke:#FFFFFF;stroke-width:3;stroke-miterlimit:10;stroke-dasharray:8,11;}
	.st8{fill:none;stroke:#FFFFFF;stroke-miterlimit:10;}
	.st9{fill:none;stroke:#FFFFFF;stroke-miterlimit:10;stroke-dasharray:8.0828,11.1139;}
	.st10{fill:#4F4E4E;}
	.st11{fill:#00D096;}
	.st12{fill:#FFA800;}
	.st13{fill:#80529B;}
	.st14{fill:#00ACD0;}
	.st15{fill:#E95A78;}
	.st16{fill:none;stroke:#00ACD0;stroke-miterlimit:10;}
	.st17{fill:none;stroke:#00D096;stroke-miterlimit:10;}
	.st18{fill:none;stroke:#4F4E4E;stroke-miterlimit:10;}
	.st19{fill:none;stroke:#E95A78;stroke-miterlimit:10;}
	.st20{fill:none;stroke:#80529B;stroke-miterlimit:10;}
	.st21{fill:none;stroke:#D6D6D6;stroke-miterlimit:10;stroke-dasharray:4,3;}
	.st22{fill:none;}
	.st23{fill:#D6D6D6;}
	.st24{fill:#80529B;stroke:#E95A78;stroke-miterlimit:10;}
	.st25{fill:#80529B;stroke:#00D096;stroke-miterlimit:10;}
	.st26{fill:none;stroke:#FFA800;stroke-miterlimit:10;}
	.st27{fill:#80529B;stroke:#FFA800;stroke-miterlimit:10;}
	.st28{fill:none;stroke:#424242;stroke-miterlimit:10;}
	.st29{fill:#80529B;stroke:#424242;stroke-miterlimit:10;}
	.st30{fill:#80529B;stroke:#00ACD0;stroke-miterlimit:10;}
	.st31{fill:#80529B;stroke:#80529B;stroke-miterlimit:10;}
	.st32{clip-path:url(#SVGID_2_);}
	.st33{opacity:0.2;fill:#E95A78;enable-background:new    ;}
	.st34{opacity:0.2;fill:#00D096;enable-background:new    ;}
	.st35{opacity:0.2;fill:#FFA800;enable-background:new    ;}
	.st36{opacity:0.2;fill:#00ACD0;enable-background:new    ;}
	.st37{opacity:0.2;fill:#80529B;enable-background:new    ;}
	.st38{clip-path:url(#SVGID_4_);}
	.st39{fill:none;stroke:#424242;stroke-width:4;stroke-miterlimit:10;}
	.st40{font-family:'SourceHanSansTW-Bold-B5pc-H';}
	.st41{font-size:36px;}
	.st42{font-family:'SourceHanSansTW-Light-B5pc-H';}
	.st43{font-size:24px;}
</style>
<g>
	<path d="M349.8,329.3h-3.5l-1.2,3h-0.7l3.4-8.6h0.4l3.4,8.6H351L349.8,329.3L349.8,329.3z M346.5,328.8h3.1l-1.2-3.1
		c-0.1-0.2-0.2-0.6-0.4-1c-0.1,0.4-0.2,0.7-0.3,1L346.5,328.8L346.5,328.8z M357.8,332.4l-2.5-6.4h0.6l1.6,4.3
		c0.2,0.6,0.4,1,0.5,1.5h0c0.2-0.5,0.3-1,0.5-1.5l1.6-4.3h0.6l-2.5,6.4L357.8,332.4L357.8,332.4z M362.2,324.2
		c0-0.4,0.1-0.6,0.4-0.6c0.1,0,0.2,0,0.3,0.1c0.1,0.1,0.1,0.2,0.1,0.4c0,0.2,0,0.3-0.1,0.4c-0.1,0.1-0.2,0.1-0.3,0.1
		C362.3,324.8,362.2,324.6,362.2,324.2L362.2,324.2z M362.8,332.4h-0.6V326h0.6V332.4z M369.2,330.7c0,0.6-0.2,1-0.6,1.3
		s-1,0.5-1.8,0.5c-0.9,0-1.5-0.1-2-0.4v-0.6c0.6,0.3,1.3,0.5,2,0.5c0.6,0,1.1-0.1,1.4-0.3c0.3-0.2,0.5-0.5,0.5-0.8
		c0-0.3-0.1-0.6-0.4-0.8s-0.7-0.4-1.3-0.6c-0.6-0.2-1.1-0.4-1.3-0.6s-0.5-0.4-0.6-0.6s-0.2-0.5-0.2-0.8c0-0.5,0.2-0.9,0.6-1.1
		c0.4-0.3,1-0.4,1.7-0.4c0.7,0,1.3,0.1,2,0.4l-0.2,0.5c-0.6-0.3-1.2-0.4-1.7-0.4c-0.5,0-0.9,0.1-1.2,0.3c-0.3,0.2-0.5,0.4-0.5,0.7
		c0,0.3,0.1,0.6,0.4,0.8c0.2,0.2,0.7,0.4,1.4,0.7c0.6,0.2,1,0.4,1.3,0.6s0.5,0.4,0.6,0.6S369.2,330.4,369.2,330.7L369.2,330.7z
		 M371.1,324.2c0-0.4,0.1-0.6,0.4-0.6c0.1,0,0.2,0,0.3,0.1c0.1,0.1,0.1,0.2,0.1,0.4c0,0.2,0,0.3-0.1,0.4c-0.1,0.1-0.2,0.1-0.3,0.1
		C371.2,324.8,371.1,324.6,371.1,324.2L371.1,324.2z M371.7,332.4h-0.6V326h0.6V332.4z M379.4,329.2c0,1-0.3,1.9-0.8,2.4
		s-1.2,0.9-2.1,0.9c-0.6,0-1-0.1-1.5-0.4c-0.4-0.3-0.8-0.7-1-1.2s-0.3-1.1-0.3-1.7c0-1,0.3-1.9,0.8-2.4c0.5-0.6,1.2-0.9,2.1-0.9
		c0.9,0,1.6,0.3,2.1,0.9S379.4,328.1,379.4,329.2L379.4,329.2z M374.4,329.2c0,0.9,0.2,1.6,0.6,2s0.9,0.7,1.6,0.7
		c0.7,0,1.2-0.2,1.6-0.7s0.6-1.2,0.6-2c0-0.9-0.2-1.6-0.6-2c-0.4-0.5-0.9-0.7-1.6-0.7s-1.2,0.2-1.6,0.7
		C374.6,327.6,374.4,328.3,374.4,329.2L374.4,329.2z M385.9,332.4v-4.1c0-0.6-0.1-1.1-0.4-1.4s-0.7-0.4-1.3-0.4
		c-0.8,0-1.3,0.2-1.7,0.6s-0.5,1-0.5,1.9v3.5h-0.6V326h0.5l0.1,0.9h0c0.4-0.7,1.1-1,2.2-1c1.4,0,2.2,0.8,2.2,2.3v4.2L385.9,332.4
		L385.9,332.4z M394,332c0.4,0,0.7,0,1-0.1v0.5c-0.3,0.1-0.6,0.1-1,0.1c-0.6,0-1-0.1-1.2-0.5s-0.4-0.8-0.4-1.4v-4.1h-0.9v-0.3
		l0.9-0.3l0.3-1.4h0.3v1.5h1.9v0.5h-1.9v4c0,0.5,0.1,0.9,0.3,1.1S393.6,332,394,332L394,332z M401.9,329.2c0,1-0.3,1.9-0.8,2.4
		s-1.2,0.9-2.1,0.9c-0.6,0-1-0.1-1.5-0.4s-0.8-0.7-1-1.2s-0.3-1.1-0.3-1.7c0-1,0.3-1.9,0.8-2.4s1.2-0.9,2.1-0.9
		c0.9,0,1.6,0.3,2.1,0.9S401.9,328.1,401.9,329.2L401.9,329.2z M396.9,329.2c0,0.9,0.2,1.6,0.6,2s0.9,0.7,1.6,0.7s1.2-0.2,1.6-0.7
		s0.6-1.2,0.6-2c0-0.9-0.2-1.6-0.6-2s-0.9-0.7-1.6-0.7s-1.2,0.2-1.6,0.7S396.9,328.3,396.9,329.2L396.9,329.2z M415.3,332.4v-4.2
		c0-0.6-0.1-1.1-0.4-1.4s-0.6-0.4-1.1-0.4c-0.7,0-1.1,0.2-1.4,0.5s-0.5,0.9-0.5,1.7v3.7h-0.6V328c0-1.1-0.5-1.6-1.5-1.6
		c-0.7,0-1.2,0.2-1.5,0.6s-0.5,1-0.5,1.9v3.5h-0.6V326h0.5l0.1,0.9h0c0.2-0.3,0.4-0.6,0.8-0.7s0.7-0.3,1.1-0.3c1,0,1.6,0.4,1.9,1.1
		h0c0.2-0.4,0.5-0.6,0.8-0.8s0.7-0.3,1.2-0.3c0.7,0,1.2,0.2,1.6,0.6s0.5,1,0.5,1.8v4.2L415.3,332.4L415.3,332.4z M422.1,332.4
		l-0.1-1h0c-0.3,0.4-0.6,0.7-1,0.9s-0.7,0.3-1.2,0.3c-0.6,0-1.1-0.2-1.5-0.5s-0.5-0.8-0.5-1.3c0-0.6,0.3-1.1,0.8-1.4
		s1.3-0.5,2.2-0.5l1.2,0v-0.4c0-0.6-0.1-1.1-0.4-1.4s-0.6-0.5-1.2-0.5c-0.6,0-1.2,0.2-1.8,0.5l-0.2-0.5c0.7-0.3,1.4-0.5,2.1-0.5
		c0.7,0,1.2,0.2,1.6,0.5s0.5,0.9,0.5,1.7v4.2L422.1,332.4L422.1,332.4z M419.8,332c0.7,0,1.2-0.2,1.6-0.6s0.6-0.9,0.6-1.6v-0.6
		l-1.1,0c-0.9,0-1.5,0.2-1.9,0.4s-0.6,0.6-0.6,1.1c0,0.4,0.1,0.7,0.4,0.9S419.3,332,419.8,332L419.8,332z M425.5,329.6l3.2-3.6h0.7
		l-2.5,2.7l2.7,3.6H429l-2.4-3.2l-1,1v2.3h-0.6v-9.1h0.6v4.6L425.5,329.6L425.5,329.6L425.5,329.6z M433.6,332.5
		c-0.9,0-1.6-0.3-2.2-0.9s-0.8-1.4-0.8-2.4c0-1,0.2-1.8,0.8-2.4s1.2-0.9,2-0.9c0.8,0,1.3,0.3,1.8,0.8s0.6,1.2,0.6,2.1v0.5h-4.6
		c0,0.9,0.2,1.5,0.6,2s1,0.7,1.7,0.7c0.4,0,0.7,0,1-0.1s0.6-0.2,1-0.3v0.5c-0.4,0.2-0.7,0.3-1,0.3S434,332.5,433.6,332.5
		L433.6,332.5z M433.4,326.4c-0.6,0-1.1,0.2-1.5,0.6s-0.6,1-0.6,1.8h3.9c0-0.7-0.2-1.3-0.5-1.7S434,326.4,433.4,326.4L433.4,326.4z
		 M443,332c0.4,0,0.7,0,1-0.1v0.5c-0.3,0.1-0.6,0.1-1,0.1c-0.6,0-1-0.1-1.2-0.5s-0.4-0.8-0.4-1.4v-4.1h-0.9v-0.3l0.9-0.3l0.3-1.4
		h0.3v1.5h1.9v0.5h-1.9v4c0,0.5,0.1,0.9,0.3,1.1S442.6,332,443,332L443,332z M450.1,332.4v-4.1c0-0.6-0.1-1.1-0.4-1.4
		s-0.7-0.4-1.3-0.4c-0.8,0-1.3,0.2-1.7,0.6s-0.5,1-0.5,1.9v3.5h-0.6v-9.1h0.6v2.9l0,0.8h0c0.2-0.4,0.5-0.7,0.9-0.8s0.8-0.3,1.4-0.3
		c1.4,0,2.2,0.8,2.2,2.3v4.2L450.1,332.4L450.1,332.4z M455.6,332.5c-0.9,0-1.6-0.3-2.2-0.9s-0.8-1.4-0.8-2.4c0-1,0.2-1.8,0.8-2.4
		s1.2-0.9,2-0.9c0.8,0,1.3,0.3,1.8,0.8s0.6,1.2,0.6,2.1v0.5h-4.6c0,0.9,0.2,1.5,0.6,2s1,0.7,1.7,0.7c0.4,0,0.7,0,1-0.1
		s0.6-0.2,1-0.3v0.5c-0.4,0.2-0.7,0.3-1,0.3S456,332.5,455.6,332.5L455.6,332.5z M455.4,326.4c-0.6,0-1.1,0.2-1.5,0.6
		s-0.6,1-0.6,1.8h3.9c0-0.7-0.2-1.3-0.5-1.7S456,326.4,455.4,326.4L455.4,326.4z M468.4,332.4l-1.4-4.3c-0.1-0.3-0.2-0.7-0.3-1.3h0
		l-0.1,0.4l-0.3,0.9l-1.4,4.2h-0.6l-1.8-6.4h0.6l1,3.7c0.2,0.9,0.4,1.6,0.5,2h0c0.2-0.9,0.4-1.5,0.5-1.8l1.3-3.9h0.5l1.2,3.9
		c0.3,0.9,0.5,1.5,0.5,1.8h0c0-0.3,0.2-0.9,0.5-2l1-3.7h0.6l-1.7,6.4L468.4,332.4L468.4,332.4z M477.6,329.2c0,1-0.3,1.9-0.8,2.4
		s-1.2,0.9-2.1,0.9c-0.6,0-1-0.1-1.5-0.4s-0.8-0.7-1-1.2s-0.3-1.1-0.3-1.7c0-1,0.3-1.9,0.8-2.4s1.2-0.9,2.1-0.9
		c0.9,0,1.6,0.3,2.1,0.9S477.6,328.1,477.6,329.2L477.6,329.2z M472.5,329.2c0,0.9,0.2,1.6,0.6,2s0.9,0.7,1.6,0.7s1.2-0.2,1.6-0.7
		s0.6-1.2,0.6-2c0-0.9-0.2-1.6-0.6-2s-0.9-0.7-1.6-0.7s-1.2,0.2-1.6,0.7S472.5,328.3,472.5,329.2L472.5,329.2z M482.1,325.9
		c0.3,0,0.6,0,0.9,0.1l-0.1,0.6c-0.3-0.1-0.5-0.1-0.8-0.1c-0.5,0-1,0.2-1.3,0.7s-0.5,1-0.5,1.7v3.5h-0.6V326h0.5l0.1,1.1h0
		c0.3-0.5,0.5-0.8,0.8-1S481.7,325.9,482.1,325.9L482.1,325.9z M485.2,332.4h-0.6v-9.1h0.6V332.4z M489.9,325.9
		c0.5,0,0.9,0.1,1.2,0.3s0.6,0.5,0.9,0.9h0c0-0.5,0-1,0-1.4v-2.3h0.6v9.1h-0.4l-0.1-1h0c-0.5,0.7-1.2,1.1-2.1,1.1
		c-0.9,0-1.5-0.3-2-0.8s-0.7-1.3-0.7-2.4c0-1.1,0.2-1.9,0.7-2.5S489.1,325.9,489.9,325.9L489.9,325.9z M489.9,326.4
		c-0.7,0-1.2,0.2-1.6,0.7s-0.5,1.2-0.5,2.1c0,1.8,0.7,2.7,2.1,2.7c0.7,0,1.2-0.2,1.6-0.6s0.5-1.1,0.5-2.1v-0.1c0-1-0.2-1.7-0.5-2.1
		S490.7,326.4,489.9,326.4L489.9,326.4z M502.3,332.4l-0.1-1h0c-0.3,0.4-0.6,0.7-1,0.9s-0.7,0.3-1.2,0.3c-0.6,0-1.1-0.2-1.5-0.5
		s-0.5-0.8-0.5-1.3c0-0.6,0.3-1.1,0.8-1.4s1.3-0.5,2.2-0.5l1.2,0v-0.4c0-0.6-0.1-1.1-0.4-1.4s-0.6-0.5-1.2-0.5
		c-0.6,0-1.2,0.2-1.8,0.5l-0.2-0.5c0.7-0.3,1.4-0.5,2.1-0.5c0.7,0,1.2,0.2,1.6,0.5s0.5,0.9,0.5,1.7v4.2L502.3,332.4L502.3,332.4z
		 M500,332c0.7,0,1.2-0.2,1.6-0.6s0.6-0.9,0.6-1.6v-0.6l-1.1,0c-0.9,0-1.5,0.2-1.9,0.4s-0.6,0.6-0.6,1.1c0,0.4,0.1,0.7,0.4,0.9
		S499.6,332,500,332L500,332z M511.2,325.9c0.9,0,1.6,0.3,2,0.8s0.7,1.4,0.7,2.5c0,1.1-0.2,1.9-0.7,2.4c-0.5,0.6-1.1,0.9-2,0.9
		c-0.5,0-0.9-0.1-1.2-0.3s-0.6-0.5-0.9-0.8h-0.1l-0.2,1h-0.4v-9.1h0.6v2.3c0,0.3,0,0.7,0,1l0,0.5h0c0.2-0.4,0.5-0.7,0.9-0.8
		S510.8,325.9,511.2,325.9L511.2,325.9z M511.2,326.4c-0.8,0-1.3,0.2-1.6,0.6s-0.5,1.1-0.5,2.1v0.1c0,1,0.2,1.6,0.5,2.1
		s0.9,0.6,1.6,0.6c0.7,0,1.2-0.2,1.6-0.7c0.4-0.5,0.5-1.2,0.5-2.1C513.3,327.3,512.6,326.4,511.2,326.4L511.2,326.4z M518.6,332.5
		c-0.9,0-1.6-0.3-2.2-0.9c-0.5-0.6-0.8-1.4-0.8-2.4c0-1,0.2-1.8,0.8-2.4s1.2-0.9,2-0.9c0.8,0,1.3,0.3,1.8,0.8s0.7,1.2,0.7,2.1v0.5
		h-4.6c0,0.9,0.2,1.5,0.6,2s1,0.7,1.7,0.7c0.4,0,0.7,0,1-0.1s0.6-0.2,1-0.3v0.5c-0.4,0.2-0.7,0.3-1,0.3S518.9,332.5,518.6,332.5
		L518.6,332.5z M518.4,326.4c-0.6,0-1.1,0.2-1.5,0.6c-0.4,0.4-0.6,1-0.7,1.8h3.9c0-0.7-0.2-1.3-0.5-1.7
		C519.4,326.6,519,326.4,518.4,326.4L518.4,326.4z M524.6,332c0.4,0,0.7,0,1-0.1v0.5c-0.3,0.1-0.6,0.1-1,0.1c-0.6,0-1-0.1-1.2-0.5
		s-0.4-0.8-0.4-1.4v-4.1H522v-0.3l0.9-0.3l0.3-1.4h0.3v1.5h1.9v0.5h-1.9v4c0,0.5,0.1,0.9,0.3,1.1S524.2,332,524.6,332L524.6,332z
		 M528.9,332c0.4,0,0.7,0,1-0.1v0.5c-0.3,0.1-0.6,0.1-1,0.1c-0.6,0-1-0.1-1.2-0.5c-0.3-0.3-0.4-0.8-0.4-1.4v-4.1h-0.9v-0.3l0.9-0.3
		l0.3-1.4h0.3v1.5h1.9v0.5h-1.9v4c0,0.5,0.1,0.9,0.3,1.1S528.5,332,528.9,332L528.9,332z M534.1,332.5c-0.9,0-1.6-0.3-2.2-0.9
		c-0.5-0.6-0.8-1.4-0.8-2.4c0-1,0.2-1.8,0.8-2.4s1.2-0.9,2-0.9c0.8,0,1.3,0.3,1.8,0.8s0.7,1.2,0.7,2.1v0.5h-4.6c0,0.9,0.2,1.5,0.6,2
		c0.4,0.5,1,0.7,1.7,0.7c0.4,0,0.7,0,1-0.1s0.6-0.2,1-0.3v0.5c-0.4,0.2-0.7,0.3-1,0.3C534.8,332.5,534.5,332.5,534.1,332.5
		L534.1,332.5z M533.9,326.4c-0.6,0-1.1,0.2-1.5,0.6c-0.4,0.4-0.6,1-0.7,1.8h3.9c0-0.7-0.2-1.3-0.5-1.7
		C534.9,326.6,534.5,326.4,533.9,326.4L533.9,326.4z M540.9,325.9c0.3,0,0.6,0,0.9,0.1l-0.1,0.6c-0.3-0.1-0.5-0.1-0.8-0.1
		c-0.5,0-1,0.2-1.3,0.7s-0.5,1-0.5,1.7v3.5h-0.6V326h0.5l0.1,1.1h0c0.3-0.5,0.5-0.8,0.8-1S540.5,325.9,540.9,325.9L540.9,325.9z
		 M359.2,348.5c-1,0-1.7-0.4-2.1-1.1h0l0,0.5c0,0.3,0,0.6,0,0.9v2.4h-0.6V342h0.5l0.1,0.9h0c0.4-0.7,1.1-1,2.1-1
		c0.9,0,1.5,0.3,2,0.8c0.5,0.6,0.7,1.4,0.7,2.5c0,1-0.2,1.9-0.7,2.4C360.6,348.2,360,348.5,359.2,348.5L359.2,348.5z M359.1,348
		c0.6,0,1.2-0.2,1.5-0.7s0.5-1.2,0.5-2c0-1.9-0.7-2.8-2-2.8c-0.7,0-1.3,0.2-1.6,0.6c-0.3,0.4-0.5,1.1-0.5,2v0.2c0,1,0.2,1.7,0.5,2.1
		S358.4,348,359.1,348L359.1,348z M364.5,348.4h-0.6v-9.1h0.6V348.4z M370.8,348.4l-0.1-1h0c-0.3,0.4-0.6,0.7-1,0.9
		s-0.7,0.3-1.2,0.3c-0.6,0-1.1-0.2-1.5-0.5c-0.3-0.3-0.5-0.8-0.5-1.3c0-0.6,0.3-1.1,0.8-1.4s1.3-0.5,2.2-0.5l1.2,0v-0.4
		c0-0.6-0.1-1.1-0.4-1.4s-0.6-0.5-1.2-0.5c-0.6,0-1.2,0.2-1.8,0.5l-0.2-0.5c0.7-0.3,1.4-0.5,2.1-0.5c0.7,0,1.2,0.2,1.6,0.5
		s0.5,0.9,0.5,1.7v4.2L370.8,348.4L370.8,348.4z M368.4,348c0.7,0,1.2-0.2,1.6-0.6s0.6-0.9,0.6-1.6v-0.6l-1.1,0
		c-0.9,0-1.5,0.2-1.9,0.4c-0.4,0.2-0.6,0.6-0.6,1.1c0,0.4,0.1,0.7,0.4,0.9S368,348,368.4,348L368.4,348z M376.1,348.5
		c-0.9,0-1.6-0.3-2.1-0.9s-0.8-1.4-0.8-2.4c0-1.1,0.3-1.9,0.8-2.5c0.5-0.6,1.3-0.9,2.2-0.9c0.5,0,1.1,0.1,1.6,0.3l-0.2,0.5
		c-0.6-0.2-1-0.3-1.4-0.3c-0.8,0-1.4,0.2-1.8,0.7c-0.4,0.5-0.6,1.2-0.6,2.1c0,0.9,0.2,1.5,0.6,2s1,0.7,1.7,0.7
		c0.6,0,1.1-0.1,1.6-0.3v0.5C377.3,348.4,376.7,348.5,376.1,348.5L376.1,348.5z M382.1,348.5c-0.9,0-1.6-0.3-2.2-0.9
		s-0.8-1.4-0.8-2.4c0-1,0.2-1.8,0.8-2.4s1.2-0.9,2-0.9c0.8,0,1.3,0.3,1.8,0.8s0.6,1.2,0.6,2.1v0.5h-4.6c0,0.9,0.2,1.5,0.6,2
		s1,0.7,1.7,0.7c0.4,0,0.7,0,1-0.1c0.3-0.1,0.6-0.2,1-0.3v0.5c-0.4,0.2-0.7,0.3-1,0.3C382.8,348.5,382.5,348.5,382.1,348.5
		L382.1,348.5z M381.9,342.4c-0.6,0-1.1,0.2-1.5,0.6s-0.6,1-0.6,1.8h3.9c0-0.7-0.2-1.3-0.5-1.7C383,342.6,382.5,342.4,381.9,342.4
		L381.9,342.4z M391.5,348c0.4,0,0.7,0,1-0.1v0.5c-0.3,0.1-0.6,0.1-1,0.1c-0.6,0-1-0.1-1.2-0.5s-0.4-0.8-0.4-1.4v-4.1h-0.9v-0.3
		l0.9-0.3l0.3-1.4h0.3v1.5h1.9v0.5h-1.9v4c0,0.5,0.1,0.9,0.3,1.1S391.2,348,391.5,348L391.5,348z M398.6,348.4v-4.1
		c0-0.6-0.1-1.1-0.4-1.4s-0.7-0.4-1.3-0.4c-0.8,0-1.3,0.2-1.7,0.6s-0.5,1-0.5,1.9v3.5h-0.6v-9.1h0.6v2.9l0,0.8h0
		c0.2-0.4,0.5-0.7,0.9-0.8s0.8-0.3,1.4-0.3c1.4,0,2.2,0.8,2.2,2.3v4.2L398.6,348.4L398.6,348.4z M404,341.9c0.3,0,0.6,0,0.9,0.1
		l-0.1,0.6c-0.3-0.1-0.5-0.1-0.8-0.1c-0.5,0-1,0.2-1.3,0.7s-0.5,1-0.5,1.7v3.5h-0.6V342h0.5l0.1,1.1h0c0.3-0.5,0.5-0.8,0.8-1
		S403.6,341.9,404,341.9L404,341.9z M411.8,345.2c0,1-0.3,1.9-0.8,2.4s-1.2,0.9-2.1,0.9c-0.6,0-1-0.1-1.5-0.4s-0.8-0.7-1-1.2
		s-0.3-1.1-0.3-1.7c0-1,0.3-1.9,0.8-2.4s1.2-0.9,2.1-0.9c0.9,0,1.6,0.3,2.1,0.9S411.8,344.1,411.8,345.2L411.8,345.2z M406.8,345.2
		c0,0.9,0.2,1.6,0.6,2s0.9,0.7,1.6,0.7s1.2-0.2,1.6-0.7s0.6-1.2,0.6-2c0-0.9-0.2-1.6-0.6-2s-0.9-0.7-1.6-0.7s-1.2,0.2-1.6,0.7
		S406.8,344.3,406.8,345.2L406.8,345.2z M414.3,342v4.1c0,0.6,0.1,1.1,0.4,1.4s0.7,0.4,1.3,0.4c0.8,0,1.3-0.2,1.7-0.6s0.5-1,0.5-1.9
		V342h0.6v6.4h-0.5l-0.1-0.9h0c-0.4,0.7-1.1,1-2.2,1c-1.4,0-2.2-0.8-2.2-2.3V342L414.3,342L414.3,342z M426.2,342v0.4l-1.3,0.1
		c0.4,0.4,0.5,0.9,0.5,1.4c0,0.6-0.2,1.1-0.6,1.5s-1,0.6-1.6,0.6c-0.3,0-0.5,0-0.6,0c-0.2,0.1-0.4,0.3-0.5,0.4s-0.2,0.3-0.2,0.5
		c0,0.2,0.1,0.4,0.2,0.4s0.4,0.1,0.8,0.1h1.1c0.7,0,1.2,0.1,1.6,0.4s0.5,0.7,0.5,1.2c0,0.7-0.3,1.2-0.8,1.6s-1.3,0.5-2.3,0.5
		c-0.8,0-1.4-0.2-1.9-0.5s-0.7-0.7-0.7-1.3c0-0.4,0.1-0.8,0.4-1.1s0.6-0.5,1.1-0.6c-0.2-0.1-0.3-0.2-0.5-0.4s-0.2-0.3-0.2-0.5
		c0-0.4,0.3-0.8,0.8-1.1c-0.4-0.2-0.7-0.4-0.9-0.7s-0.3-0.7-0.3-1.1c0-0.6,0.2-1.1,0.6-1.5s1-0.6,1.6-0.6c0.4,0,0.7,0,1,0.1
		L426.2,342L426.2,342z M421,349.4c0,0.9,0.6,1.3,2,1.3c1.7,0,2.5-0.5,2.5-1.6c0-0.4-0.1-0.7-0.4-0.8s-0.7-0.3-1.3-0.3h-1
		C421.6,348.1,421,348.5,421,349.4z M421.5,344c0,0.5,0.1,0.9,0.5,1.1s0.7,0.4,1.2,0.4c0.5,0,0.9-0.1,1.2-0.4s0.4-0.7,0.4-1.2
		c0-0.5-0.1-1-0.4-1.2s-0.7-0.4-1.2-0.4c-0.5,0-0.9,0.1-1.2,0.4S421.5,343.5,421.5,344L421.5,344z M432.2,348.4v-4.1
		c0-0.6-0.1-1.1-0.4-1.4s-0.7-0.4-1.3-0.4c-0.8,0-1.3,0.2-1.7,0.6s-0.5,1-0.5,1.9v3.5h-0.6v-9.1h0.6v2.9l0,0.8h0
		c0.2-0.4,0.5-0.7,0.9-0.8s0.8-0.3,1.4-0.3c1.4,0,2.2,0.8,2.2,2.3v4.2L432.2,348.4L432.2,348.4z M446.5,348.4v-4.2
		c0-0.6-0.1-1.1-0.4-1.4s-0.6-0.4-1.1-0.4c-0.7,0-1.1,0.2-1.4,0.5s-0.5,0.9-0.5,1.7v3.7h-0.6V344c0-1.1-0.5-1.6-1.5-1.6
		c-0.7,0-1.2,0.2-1.5,0.6s-0.5,1-0.5,1.9v3.5h-0.6V342h0.5l0.1,0.9h0c0.2-0.3,0.4-0.6,0.8-0.7s0.7-0.3,1.1-0.3c1,0,1.6,0.4,1.9,1.1
		h0c0.2-0.4,0.5-0.6,0.8-0.8s0.7-0.3,1.2-0.3c0.7,0,1.2,0.2,1.6,0.6s0.5,1,0.5,1.8v4.2L446.5,348.4L446.5,348.4z M452.1,348.5
		c-0.9,0-1.6-0.3-2.2-0.9s-0.8-1.4-0.8-2.4c0-1,0.2-1.8,0.8-2.4s1.2-0.9,2-0.9c0.8,0,1.3,0.3,1.8,0.8s0.6,1.2,0.6,2.1v0.5h-4.6
		c0,0.9,0.2,1.5,0.6,2s1,0.7,1.7,0.7c0.4,0,0.7,0,1-0.1s0.6-0.2,1-0.3v0.5c-0.4,0.2-0.7,0.3-1,0.3S452.4,348.5,452.1,348.5
		L452.1,348.5z M451.9,342.4c-0.6,0-1.1,0.2-1.5,0.6s-0.6,1-0.6,1.8h3.9c0-0.7-0.2-1.3-0.5-1.7S452.5,342.4,451.9,342.4L451.9,342.4
		z M460.2,348.4l-0.1-1h0c-0.3,0.4-0.6,0.7-1,0.9s-0.7,0.3-1.2,0.3c-0.6,0-1.1-0.2-1.5-0.5s-0.5-0.8-0.5-1.3c0-0.6,0.3-1.1,0.8-1.4
		s1.3-0.5,2.2-0.5l1.2,0v-0.4c0-0.6-0.1-1.1-0.4-1.4s-0.6-0.5-1.2-0.5c-0.6,0-1.2,0.2-1.8,0.5l-0.2-0.5c0.7-0.3,1.4-0.5,2.1-0.5
		c0.7,0,1.2,0.2,1.6,0.5s0.5,0.9,0.5,1.7v4.2L460.2,348.4L460.2,348.4z M457.9,348c0.7,0,1.2-0.2,1.6-0.6s0.6-0.9,0.6-1.6v-0.6
		l-1.1,0c-0.9,0-1.5,0.2-1.9,0.4s-0.6,0.6-0.6,1.1c0,0.4,0.1,0.7,0.4,0.9S457.4,348,457.9,348L457.9,348z M467.5,348.4v-4.1
		c0-0.6-0.1-1.1-0.4-1.4s-0.7-0.4-1.3-0.4c-0.8,0-1.3,0.2-1.7,0.6s-0.5,1-0.5,1.9v3.5H463V342h0.5l0.1,0.9h0c0.4-0.7,1.1-1,2.2-1
		c1.4,0,2.2,0.8,2.2,2.3v4.2L467.5,348.4L467.5,348.4z M470.3,340.2c0-0.4,0.1-0.6,0.4-0.6c0.1,0,0.2,0,0.3,0.1s0.1,0.2,0.1,0.4
		c0,0.2,0,0.3-0.1,0.4s-0.2,0.1-0.3,0.1C470.4,340.8,470.3,340.6,470.3,340.2L470.3,340.2z M471,348.4h-0.6V342h0.6V348.4z
		 M477.9,348.4v-4.1c0-0.6-0.1-1.1-0.4-1.4s-0.7-0.4-1.3-0.4c-0.8,0-1.3,0.2-1.7,0.6s-0.5,1-0.5,1.9v3.5h-0.6V342h0.5l0.1,0.9h0
		c0.4-0.7,1.1-1,2.2-1c1.4,0,2.2,0.8,2.2,2.3v4.2L477.9,348.4L477.9,348.4z M485.8,342v0.4l-1.3,0.1c0.4,0.4,0.5,0.9,0.5,1.4
		c0,0.6-0.2,1.1-0.6,1.5s-1,0.6-1.6,0.6c-0.3,0-0.5,0-0.6,0c-0.2,0.1-0.4,0.3-0.5,0.4s-0.2,0.3-0.2,0.5c0,0.2,0.1,0.4,0.2,0.4
		s0.4,0.1,0.8,0.1h1.1c0.7,0,1.2,0.1,1.6,0.4s0.6,0.7,0.6,1.2c0,0.7-0.3,1.2-0.8,1.6s-1.3,0.5-2.3,0.5c-0.8,0-1.4-0.2-1.9-0.5
		s-0.7-0.7-0.7-1.3c0-0.4,0.1-0.8,0.4-1.1s0.6-0.5,1.1-0.6c-0.2-0.1-0.3-0.2-0.5-0.4s-0.2-0.3-0.2-0.5c0-0.4,0.3-0.8,0.8-1.1
		c-0.4-0.2-0.7-0.4-0.9-0.7s-0.3-0.7-0.3-1.1c0-0.6,0.2-1.1,0.6-1.5s1-0.6,1.6-0.6c0.4,0,0.7,0,1,0.1L485.8,342L485.8,342z
		 M480.6,349.4c0,0.9,0.6,1.3,2,1.3c1.7,0,2.5-0.5,2.5-1.6c0-0.4-0.1-0.7-0.4-0.8s-0.7-0.3-1.3-0.3h-1
		C481.2,348.1,480.6,348.5,480.6,349.4L480.6,349.4z M481.1,344c0,0.5,0.1,0.9,0.4,1.1s0.7,0.4,1.2,0.4c0.5,0,0.9-0.1,1.2-0.4
		s0.4-0.7,0.4-1.2c0-0.5-0.1-1-0.4-1.2s-0.7-0.4-1.2-0.4c-0.5,0-0.9,0.1-1.2,0.4S481.1,343.5,481.1,344L481.1,344z M489.7,342.5
		h-1.5v5.9h-0.6v-5.9h-1.2v-0.3l1.2-0.2v-0.5c0-0.8,0.1-1.4,0.4-1.7s0.8-0.5,1.4-0.5c0.4,0,0.7,0.1,1.1,0.2l-0.1,0.5
		c-0.3-0.1-0.6-0.1-0.9-0.1c-0.5,0-0.8,0.1-1,0.4s-0.3,0.7-0.3,1.3v0.6h1.5L489.7,342.5L489.7,342.5z M491.8,342v4.1
		c0,0.6,0.1,1.1,0.4,1.4s0.7,0.4,1.3,0.4c0.8,0,1.3-0.2,1.7-0.6s0.5-1,0.5-1.9V342h0.6v6.4h-0.5l-0.1-0.9h0c-0.4,0.7-1.1,1-2.2,1
		c-1.4,0-2.2-0.8-2.2-2.3V342L491.8,342L491.8,342z M499.2,348.4h-0.6v-9.1h0.6V348.4z M510.2,348.4l-1.4-4.3
		c-0.1-0.3-0.2-0.7-0.3-1.3h0l-0.1,0.4l-0.3,0.9l-1.4,4.2H506l-1.8-6.4h0.6l1,3.7c0.2,0.9,0.4,1.6,0.5,2h0c0.2-0.9,0.4-1.5,0.5-1.8
		l1.3-3.9h0.5l1.2,3.9c0.3,0.9,0.5,1.5,0.5,1.8h0c0-0.3,0.2-0.9,0.5-2l1-3.7h0.6l-1.7,6.4L510.2,348.4L510.2,348.4z M519.3,345.2
		c0,1-0.3,1.9-0.8,2.4c-0.5,0.6-1.2,0.9-2.1,0.9c-0.6,0-1-0.1-1.5-0.4s-0.8-0.7-1-1.2c-0.2-0.5-0.3-1.1-0.3-1.7c0-1,0.3-1.9,0.8-2.4
		c0.5-0.6,1.2-0.9,2.1-0.9c0.9,0,1.6,0.3,2.1,0.9S519.3,344.1,519.3,345.2L519.3,345.2z M514.3,345.2c0,0.9,0.2,1.6,0.6,2
		s0.9,0.7,1.6,0.7c0.7,0,1.2-0.2,1.6-0.7s0.6-1.2,0.6-2c0-0.9-0.2-1.6-0.6-2s-0.9-0.7-1.6-0.7s-1.2,0.2-1.6,0.7
		C514.5,343.6,514.3,344.3,514.3,345.2L514.3,345.2z M523.9,341.9c0.3,0,0.6,0,0.9,0.1l-0.1,0.6c-0.3-0.1-0.5-0.1-0.8-0.1
		c-0.5,0-1,0.2-1.3,0.7c-0.3,0.5-0.5,1-0.5,1.7v3.5h-0.6V342h0.5l0.1,1.1h0c0.3-0.5,0.5-0.8,0.8-1
		C523.1,342,523.5,341.9,523.9,341.9L523.9,341.9z M526.9,345.6l3.3-3.6h0.7l-2.5,2.7l2.7,3.6h-0.7l-2.4-3.2l-1,1v2.3h-0.6v-9.1h0.6
		v4.6L526.9,345.6L526.9,345.6L526.9,345.6z"/>
	<g>
		<path class="st0" d="M337.8,225.9v5.4h-0.5l-2.4-2.3c-0.7-0.6-1.2-1.1-1.5-1.3c-0.4-0.3-0.7-0.4-1-0.6c-0.3-0.1-0.7-0.2-1-0.2
			c-0.5,0-0.9,0.2-1.2,0.5s-0.5,0.8-0.5,1.3c0,0.7,0.3,1.4,0.8,2.1L330,231c-0.6-0.7-0.9-1.5-0.9-2.4c0-0.7,0.2-1.3,0.6-1.8
			s0.9-0.6,1.6-0.6c0.6,0,1.1,0.1,1.6,0.4c0.5,0.3,1.2,0.8,2,1.6l2.3,2.2h0v-4.6L337.8,225.9L337.8,225.9z M333.5,218.6
			c1.5,0,2.6,0.2,3.3,0.7s1.1,1.2,1.1,2.1c0,0.9-0.4,1.6-1.1,2c-0.7,0.5-1.8,0.7-3.3,0.7c-1.5,0-2.6-0.2-3.3-0.7s-1.1-1.1-1.1-2.1
			c0-0.9,0.4-1.6,1.1-2.1C331,218.8,332.1,218.6,333.5,218.6L333.5,218.6z M333.5,223.4c1.3,0,2.3-0.2,2.9-0.5s1-0.9,1-1.6
			c0-0.7-0.3-1.3-1-1.6s-1.6-0.5-2.9-0.5c-1.3,0-2.2,0.2-2.9,0.5c-0.7,0.3-1,0.9-1,1.6s0.3,1.3,1,1.6
			C331.3,223.3,332.2,223.4,333.5,223.4L333.5,223.4z M337.8,213.6v0.6h-6.2c-0.6,0-1.2,0-1.8-0.1c0.1,0.1,0.1,0.1,0.2,0.2
			s0.5,0.7,1.4,1.8l-0.4,0.3l-1.7-2.3v-0.5L337.8,213.6L337.8,213.6z M333.5,204.3c1.5,0,2.6,0.2,3.3,0.7s1.1,1.2,1.1,2.1
			c0,0.9-0.4,1.6-1.1,2c-0.7,0.5-1.8,0.7-3.3,0.7c-1.5,0-2.6-0.2-3.3-0.7s-1.1-1.1-1.1-2.1c0-0.9,0.4-1.6,1.1-2.1
			C331,204.5,332.1,204.3,333.5,204.3L333.5,204.3z M333.5,209.1c1.3,0,2.3-0.2,2.9-0.5s1-0.9,1-1.6c0-0.7-0.3-1.3-1-1.6
			s-1.6-0.5-2.9-0.5c-1.3,0-2.2,0.2-2.9,0.5c-0.7,0.3-1,0.9-1,1.6s0.3,1.3,1,1.6C331.3,209,332.2,209.1,333.5,209.1L333.5,209.1z"/>
	</g>
	<g>
		<path class="st0" d="M833.7,452.7v-5.4h0.5l2.4,2.3c0.7,0.6,1.2,1.1,1.5,1.3s0.7,0.4,1,0.6s0.7,0.2,1,0.2c0.5,0,0.9-0.2,1.2-0.5
			s0.5-0.8,0.5-1.3c0-0.7-0.3-1.4-0.8-2l0.4-0.3c0.6,0.7,0.9,1.5,0.9,2.4c0,0.7-0.2,1.3-0.6,1.8s-0.9,0.6-1.6,0.6
			c-0.6,0-1.1-0.1-1.6-0.4s-1.2-0.8-2-1.6l-2.3-2.2h0v4.6L833.7,452.7L833.7,452.7z M838,460c-1.5,0-2.6-0.2-3.3-0.7
			s-1.1-1.2-1.1-2.1c0-0.9,0.4-1.6,1.1-2s1.8-0.7,3.3-0.7c1.5,0,2.6,0.2,3.3,0.7s1.1,1.1,1.1,2.1c0,0.9-0.4,1.6-1.1,2.1
			S839.4,460,838,460L838,460z M838,455.1c-1.3,0-2.3,0.2-2.9,0.5s-1,0.9-1,1.6c0,0.7,0.3,1.3,1,1.6s1.6,0.5,2.9,0.5
			c1.3,0,2.2-0.2,2.9-0.5s1-0.9,1-1.6s-0.3-1.3-1-1.6S839.3,455.1,838,455.1L838,455.1z M833.7,464.9v-0.6h6.2c0.6,0,1.2,0,1.8,0.1
			c-0.1-0.1-0.1-0.1-0.2-0.2s-0.5-0.7-1.4-1.8l0.4-0.3l1.7,2.3v0.5L833.7,464.9L833.7,464.9z M838.8,471.2c0,0.9-0.2,1.6-0.7,2.2
			s-1,0.8-1.8,0.8c-0.9,0-1.6-0.3-2-0.8s-0.7-1.3-0.7-2.3c0-0.4,0-0.8,0.1-1.2s0.2-0.7,0.4-1h0.6c-0.2,0.4-0.4,0.8-0.5,1.1
			s-0.1,0.7-0.1,1c0,0.8,0.2,1.4,0.6,1.8s0.9,0.7,1.6,0.7c0.6,0,1.1-0.2,1.5-0.7s0.5-1,0.5-1.8c0-0.5-0.1-1-0.2-1.6l0.2-0.4l3.9,0.3
			v4.1h-0.6v-3.6l-3-0.3C838.8,470.4,838.8,470.9,838.8,471.2L838.8,471.2z"/>
	</g>
	<path d="M628,328c0,1.4-0.4,2.5-1.1,3.3s-1.9,1.1-3.3,1.1h-2v-8.6h2.3c1.4,0,2.4,0.4,3.1,1.1S628,326.6,628,328L628,328z
		 M627.4,328c0-1.2-0.3-2.1-0.9-2.8c-0.6-0.6-1.5-0.9-2.7-0.9h-1.6v7.5h1.4C626.1,331.8,627.4,330.6,627.4,328L627.4,328z
		 M630.1,324.2c0-0.4,0.1-0.6,0.4-0.6c0.1,0,0.2,0,0.3,0.1s0.1,0.2,0.1,0.4c0,0.2,0,0.3-0.1,0.4s-0.2,0.1-0.3,0.1
		C630.2,324.8,630.1,324.6,630.1,324.2L630.1,324.2z M630.7,332.4h-0.6V326h0.6V332.4z M634.6,332.4l-2.5-6.4h0.6l1.6,4.3
		c0.2,0.6,0.4,1,0.5,1.5h0c0.2-0.5,0.3-1,0.5-1.5l1.6-4.3h0.6l-2.5,6.4L634.6,332.4L634.6,332.4z M641.6,332.5
		c-0.9,0-1.6-0.3-2.2-0.9c-0.5-0.6-0.8-1.4-0.8-2.4c0-1,0.2-1.8,0.8-2.4s1.2-0.9,2-0.9c0.8,0,1.3,0.3,1.8,0.8s0.7,1.2,0.7,2.1v0.5
		h-4.6c0,0.9,0.2,1.5,0.6,2s1,0.7,1.7,0.7c0.4,0,0.7,0,1-0.1s0.6-0.2,1-0.3v0.5c-0.4,0.2-0.7,0.3-1,0.3S641.9,332.5,641.6,332.5
		L641.6,332.5z M641.4,326.4c-0.6,0-1.1,0.2-1.5,0.6c-0.4,0.4-0.6,1-0.7,1.8h3.9c0-0.7-0.2-1.3-0.5-1.7
		C642.4,326.6,641.9,326.4,641.4,326.4L641.4,326.4z M648.4,325.9c0.3,0,0.6,0,0.9,0.1l-0.1,0.6c-0.3-0.1-0.5-0.1-0.8-0.1
		c-0.5,0-1,0.2-1.3,0.7c-0.3,0.5-0.5,1-0.5,1.7v3.5h-0.6V326h0.5l0.1,1.1h0c0.3-0.5,0.5-0.8,0.8-1C647.6,326,648,325.9,648.4,325.9
		L648.4,325.9z M654.8,330.7c0,0.6-0.2,1-0.7,1.3s-1,0.5-1.8,0.5c-0.9,0-1.5-0.1-2-0.4v-0.6c0.6,0.3,1.3,0.5,2,0.5
		c0.6,0,1.1-0.1,1.4-0.3s0.5-0.5,0.5-0.8c0-0.3-0.1-0.6-0.4-0.8s-0.7-0.4-1.3-0.6c-0.6-0.2-1.1-0.4-1.3-0.6s-0.5-0.4-0.6-0.6
		s-0.2-0.5-0.2-0.8c0-0.5,0.2-0.9,0.6-1.1s1-0.4,1.7-0.4c0.7,0,1.3,0.1,2,0.4l-0.2,0.5c-0.6-0.3-1.2-0.4-1.7-0.4
		c-0.5,0-0.9,0.1-1.2,0.3s-0.5,0.4-0.5,0.7c0,0.3,0.1,0.6,0.4,0.8s0.7,0.4,1.4,0.7c0.6,0.2,1,0.4,1.3,0.6s0.5,0.4,0.6,0.6
		S654.8,330.4,654.8,330.7L654.8,330.7z M659.3,332.5c-0.9,0-1.6-0.3-2.2-0.9s-0.8-1.4-0.8-2.4c0-1,0.2-1.8,0.8-2.4s1.2-0.9,2-0.9
		c0.8,0,1.3,0.3,1.8,0.8s0.7,1.2,0.7,2.1v0.5H657c0,0.9,0.2,1.5,0.6,2s1,0.7,1.7,0.7c0.4,0,0.7,0,1-0.1s0.6-0.2,1-0.3v0.5
		c-0.4,0.2-0.7,0.3-1,0.3S659.7,332.5,659.3,332.5L659.3,332.5z M659.1,326.4c-0.6,0-1.1,0.2-1.5,0.6s-0.6,1-0.7,1.8h3.9
		c0-0.7-0.2-1.3-0.5-1.7S659.7,326.4,659.1,326.4L659.1,326.4z M669.8,332.5c-1,0-1.7-0.4-2.1-1.1h0l0,0.5c0,0.3,0,0.6,0,0.9v2.4
		H667V326h0.5l0.1,0.9h0c0.4-0.7,1.1-1,2.1-1c0.9,0,1.5,0.3,2,0.8s0.7,1.4,0.7,2.5c0,1-0.2,1.9-0.7,2.4S670.6,332.5,669.8,332.5
		L669.8,332.5z M669.7,332c0.7,0,1.2-0.2,1.5-0.7s0.5-1.2,0.5-2c0-1.9-0.7-2.8-2-2.8c-0.7,0-1.3,0.2-1.6,0.6s-0.5,1.1-0.5,2v0.2
		c0,1,0.2,1.7,0.5,2.1S669,332,669.7,332L669.7,332z M677,325.9c0.3,0,0.6,0,0.9,0.1l-0.1,0.6c-0.3-0.1-0.5-0.1-0.8-0.1
		c-0.5,0-1,0.2-1.3,0.7s-0.5,1-0.5,1.7v3.5h-0.6V326h0.5l0.1,1.1h0c0.3-0.5,0.5-0.8,0.8-1S676.6,325.9,677,325.9L677,325.9z
		 M684.7,329.2c0,1-0.3,1.9-0.8,2.4s-1.2,0.9-2.1,0.9c-0.6,0-1-0.1-1.5-0.4s-0.8-0.7-1-1.2s-0.3-1.1-0.3-1.7c0-1,0.3-1.9,0.8-2.4
		s1.2-0.9,2.1-0.9c0.9,0,1.6,0.3,2.1,0.9S684.7,328.1,684.7,329.2L684.7,329.2z M679.7,329.2c0,0.9,0.2,1.6,0.6,2s0.9,0.7,1.6,0.7
		s1.2-0.2,1.6-0.7s0.6-1.2,0.6-2c0-0.9-0.2-1.6-0.6-2s-0.9-0.7-1.6-0.7s-1.2,0.2-1.6,0.7S679.7,328.3,679.7,329.2L679.7,329.2z
		 M689.1,326.5h-1.5v5.9h-0.6v-5.9h-1.2v-0.3l1.2-0.2v-0.5c0-0.8,0.1-1.4,0.4-1.7s0.8-0.5,1.4-0.5c0.3,0,0.7,0.1,1.1,0.2l-0.1,0.5
		c-0.3-0.1-0.6-0.1-0.9-0.1c-0.5,0-0.8,0.1-1,0.4s-0.3,0.7-0.3,1.3v0.6h1.5L689.1,326.5L689.1,326.5z M693.2,332.5
		c-0.9,0-1.6-0.3-2.2-0.9s-0.8-1.4-0.8-2.4c0-1,0.2-1.8,0.8-2.4s1.2-0.9,2-0.9c0.8,0,1.3,0.3,1.8,0.8s0.7,1.2,0.7,2.1v0.5h-4.6
		c0,0.9,0.2,1.5,0.6,2s1,0.7,1.7,0.7c0.4,0,0.7,0,1-0.1s0.6-0.2,1-0.3v0.5c-0.4,0.2-0.7,0.3-1,0.3S693.6,332.5,693.2,332.5
		L693.2,332.5z M693.1,326.4c-0.6,0-1.1,0.2-1.5,0.6s-0.6,1-0.7,1.8h3.9c0-0.7-0.2-1.3-0.5-1.7S693.6,326.4,693.1,326.4L693.1,326.4
		z M701.5,330.7c0,0.6-0.2,1-0.7,1.3s-1,0.5-1.8,0.5c-0.9,0-1.5-0.1-2-0.4v-0.6c0.6,0.3,1.3,0.5,2,0.5c0.6,0,1.1-0.1,1.4-0.3
		s0.5-0.5,0.5-0.8c0-0.3-0.1-0.6-0.4-0.8s-0.7-0.4-1.3-0.6c-0.6-0.2-1.1-0.4-1.3-0.6s-0.5-0.4-0.6-0.6s-0.2-0.5-0.2-0.8
		c0-0.5,0.2-0.9,0.6-1.1s1-0.4,1.7-0.4c0.7,0,1.3,0.1,2,0.4l-0.2,0.5c-0.6-0.3-1.2-0.4-1.7-0.4c-0.5,0-0.9,0.1-1.2,0.3
		s-0.5,0.4-0.5,0.7c0,0.3,0.1,0.6,0.4,0.8s0.7,0.4,1.4,0.7c0.6,0.2,1,0.4,1.3,0.6s0.5,0.4,0.6,0.6S701.5,330.4,701.5,330.7
		L701.5,330.7z M707.4,330.7c0,0.6-0.2,1-0.7,1.3s-1,0.5-1.8,0.5c-0.9,0-1.5-0.1-2-0.4v-0.6c0.6,0.3,1.3,0.5,2,0.5
		c0.6,0,1.1-0.1,1.4-0.3s0.5-0.5,0.5-0.8c0-0.3-0.1-0.6-0.4-0.8s-0.7-0.4-1.3-0.6c-0.6-0.2-1.1-0.4-1.3-0.6s-0.5-0.4-0.6-0.6
		s-0.2-0.5-0.2-0.8c0-0.5,0.2-0.9,0.6-1.1s1-0.4,1.7-0.4c0.7,0,1.3,0.1,2,0.4l-0.2,0.5c-0.6-0.3-1.2-0.4-1.7-0.4
		c-0.5,0-0.9,0.1-1.2,0.3s-0.5,0.4-0.5,0.7c0,0.3,0.1,0.6,0.4,0.8s0.7,0.4,1.4,0.7c0.6,0.2,1,0.4,1.3,0.6s0.5,0.4,0.6,0.6
		S707.4,330.4,707.4,330.7L707.4,330.7z M709.3,324.2c0-0.4,0.1-0.6,0.4-0.6c0.1,0,0.2,0,0.3,0.1s0.1,0.2,0.1,0.4
		c0,0.2,0,0.3-0.1,0.4s-0.2,0.1-0.3,0.1C709.4,324.8,709.3,324.6,709.3,324.2L709.3,324.2z M709.9,332.4h-0.6V326h0.6V332.4z
		 M717.6,329.2c0,1-0.3,1.9-0.8,2.4s-1.2,0.9-2.1,0.9c-0.6,0-1-0.1-1.5-0.4s-0.8-0.7-1-1.2s-0.3-1.1-0.3-1.7c0-1,0.3-1.9,0.8-2.4
		s1.2-0.9,2.1-0.9c0.9,0,1.6,0.3,2.1,0.9S717.6,328.1,717.6,329.2L717.6,329.2z M712.6,329.2c0,0.9,0.2,1.6,0.6,2s0.9,0.7,1.6,0.7
		s1.2-0.2,1.6-0.7s0.6-1.2,0.6-2c0-0.9-0.2-1.6-0.6-2s-0.9-0.7-1.6-0.7s-1.2,0.2-1.6,0.7S712.6,328.3,712.6,329.2L712.6,329.2z
		 M724.1,332.4v-4.1c0-0.6-0.1-1.1-0.4-1.4s-0.7-0.4-1.3-0.4c-0.8,0-1.3,0.2-1.7,0.6s-0.5,1-0.5,1.9v3.5h-0.6V326h0.5l0.1,0.9h0
		c0.4-0.7,1.2-1,2.2-1c1.4,0,2.2,0.8,2.2,2.3v4.2L724.1,332.4L724.1,332.4z M730.9,332.4l-0.1-1h0c-0.3,0.4-0.7,0.7-1,0.9
		s-0.7,0.3-1.2,0.3c-0.6,0-1.1-0.2-1.5-0.5s-0.5-0.8-0.5-1.3c0-0.6,0.3-1.1,0.8-1.4s1.3-0.5,2.2-0.5l1.2,0v-0.4
		c0-0.6-0.1-1.1-0.4-1.4s-0.6-0.5-1.2-0.5c-0.6,0-1.2,0.2-1.8,0.5l-0.2-0.5c0.7-0.3,1.4-0.5,2.1-0.5c0.7,0,1.2,0.2,1.6,0.5
		s0.5,0.9,0.5,1.7v4.2L730.9,332.4L730.9,332.4z M728.6,332c0.7,0,1.2-0.2,1.6-0.6s0.6-0.9,0.6-1.6v-0.6l-1.1,0
		c-0.9,0-1.5,0.2-1.9,0.4s-0.6,0.6-0.6,1.1c0,0.4,0.1,0.7,0.4,0.9S728.1,332,728.6,332L728.6,332z M734.3,332.4h-0.6v-9.1h0.6V332.4
		z M740.7,330.7c0,0.6-0.2,1-0.7,1.3s-1,0.5-1.8,0.5c-0.8,0-1.5-0.1-2-0.4v-0.6c0.6,0.3,1.3,0.5,2,0.5c0.6,0,1.1-0.1,1.4-0.3
		s0.5-0.5,0.5-0.8c0-0.3-0.1-0.6-0.4-0.8s-0.7-0.4-1.3-0.6c-0.6-0.2-1.1-0.4-1.3-0.6s-0.5-0.4-0.6-0.6s-0.2-0.5-0.2-0.8
		c0-0.5,0.2-0.9,0.6-1.1s1-0.4,1.7-0.4c0.7,0,1.3,0.1,2,0.4l-0.2,0.5c-0.6-0.3-1.2-0.4-1.7-0.4c-0.5,0-0.9,0.1-1.2,0.3
		s-0.5,0.4-0.5,0.7c0,0.3,0.1,0.6,0.4,0.8s0.7,0.4,1.4,0.7c0.6,0.2,1,0.4,1.3,0.6s0.5,0.4,0.6,0.6S740.7,330.4,740.7,330.7
		L740.7,330.7z M748.4,325.9c0.5,0,0.9,0.1,1.2,0.3s0.6,0.5,0.9,0.9h0c0-0.5,0-1,0-1.4v-2.3h0.6v9.1h-0.4l-0.1-1h0
		c-0.5,0.7-1.2,1.1-2.1,1.1c-0.9,0-1.5-0.3-2-0.8s-0.7-1.3-0.7-2.4c0-1.1,0.2-1.9,0.7-2.5S747.5,325.9,748.4,325.9L748.4,325.9z
		 M748.4,326.4c-0.7,0-1.2,0.2-1.6,0.7s-0.5,1.2-0.5,2.1c0,1.8,0.7,2.7,2.1,2.7c0.7,0,1.2-0.2,1.6-0.6s0.5-1.1,0.5-2.1v-0.1
		c0-1-0.2-1.7-0.5-2.1S749.1,326.4,748.4,326.4L748.4,326.4z M756,325.9c0.3,0,0.6,0,0.9,0.1l-0.1,0.6c-0.3-0.1-0.5-0.1-0.8-0.1
		c-0.5,0-1,0.2-1.3,0.7s-0.5,1-0.5,1.7v3.5h-0.6V326h0.5l0.1,1.1h0c0.3-0.5,0.5-0.8,0.8-1S755.6,325.9,756,325.9L756,325.9z
		 M762.3,332.4l-0.1-1h0c-0.3,0.4-0.6,0.7-1,0.9s-0.7,0.3-1.2,0.3c-0.6,0-1.1-0.2-1.5-0.5s-0.5-0.8-0.5-1.3c0-0.6,0.3-1.1,0.8-1.4
		s1.3-0.5,2.2-0.5l1.2,0v-0.4c0-0.6-0.1-1.1-0.4-1.4s-0.6-0.5-1.2-0.5c-0.6,0-1.2,0.2-1.8,0.5l-0.2-0.5c0.7-0.3,1.4-0.5,2.1-0.5
		c0.7,0,1.2,0.2,1.6,0.5s0.5,0.9,0.5,1.7v4.2L762.3,332.4L762.3,332.4z M760,332c0.7,0,1.2-0.2,1.6-0.6s0.6-0.9,0.6-1.6v-0.6l-1.1,0
		c-0.9,0-1.5,0.2-1.9,0.4s-0.6,0.6-0.6,1.1c0,0.4,0.1,0.7,0.4,0.9S759.5,332,760,332L760,332z M770.2,332.4l-1.4-4.3
		c-0.1-0.3-0.2-0.7-0.3-1.3h0l-0.1,0.4l-0.3,0.9l-1.4,4.2H766l-1.8-6.4h0.6l1,3.7c0.2,0.9,0.4,1.6,0.5,2h0c0.2-0.9,0.4-1.5,0.5-1.8
		l1.3-3.9h0.5l1.2,3.9c0.3,0.9,0.5,1.5,0.5,1.8h0c0-0.3,0.2-0.9,0.5-2l1-3.7h0.6l-1.7,6.4L770.2,332.4L770.2,332.4z M778.5,332.4
		v-4.1c0-0.6-0.1-1.1-0.4-1.4s-0.7-0.4-1.3-0.4c-0.8,0-1.3,0.2-1.7,0.6s-0.5,1-0.5,1.9v3.5h-0.6V326h0.5l0.1,0.9h0
		c0.4-0.7,1.2-1,2.2-1c1.4,0,2.2,0.8,2.2,2.3v4.2L778.5,332.4L778.5,332.4z M786.6,332c0.4,0,0.7,0,1-0.1v0.5
		c-0.3,0.1-0.6,0.1-1,0.1c-0.6,0-1-0.1-1.2-0.5s-0.4-0.8-0.4-1.4v-4.1H784v-0.3l0.9-0.3l0.3-1.4h0.3v1.5h1.9v0.5h-1.9v4
		c0,0.5,0.1,0.9,0.3,1.1S786.2,332,786.6,332L786.6,332z M794.5,329.2c0,1-0.3,1.9-0.8,2.4s-1.2,0.9-2.1,0.9c-0.6,0-1-0.1-1.5-0.4
		s-0.8-0.7-1-1.2s-0.3-1.1-0.3-1.7c0-1,0.3-1.9,0.8-2.4s1.2-0.9,2.1-0.9c0.9,0,1.6,0.3,2.1,0.9S794.5,328.1,794.5,329.2L794.5,329.2
		z M789.4,329.2c0,0.9,0.2,1.6,0.6,2s0.9,0.7,1.6,0.7s1.2-0.2,1.6-0.7s0.6-1.2,0.6-2c0-0.9-0.2-1.6-0.6-2s-0.9-0.7-1.6-0.7
		s-1.2,0.2-1.6,0.7S789.4,328.3,789.4,329.2L789.4,329.2z M801.5,326v0.4l-1.3,0.1c0.3,0.4,0.5,0.9,0.5,1.4c0,0.6-0.2,1.1-0.6,1.5
		s-1,0.6-1.6,0.6c-0.3,0-0.5,0-0.6,0c-0.2,0.1-0.4,0.3-0.5,0.4s-0.2,0.3-0.2,0.5c0,0.2,0.1,0.4,0.2,0.4s0.4,0.1,0.8,0.1h1.1
		c0.7,0,1.2,0.1,1.6,0.4s0.5,0.7,0.5,1.2c0,0.7-0.3,1.2-0.8,1.6s-1.3,0.5-2.3,0.5c-0.8,0-1.4-0.2-1.9-0.5s-0.7-0.7-0.7-1.3
		c0-0.4,0.1-0.8,0.4-1.1s0.6-0.5,1.1-0.6c-0.2-0.1-0.3-0.2-0.5-0.4s-0.2-0.3-0.2-0.5c0-0.4,0.3-0.8,0.8-1.1
		c-0.4-0.2-0.7-0.4-0.9-0.7s-0.3-0.7-0.3-1.1c0-0.6,0.2-1.1,0.6-1.5s1-0.6,1.6-0.6c0.4,0,0.7,0,1,0.1L801.5,326L801.5,326z
		 M796.3,333.4c0,0.9,0.7,1.3,2,1.3c1.7,0,2.5-0.5,2.5-1.6c0-0.4-0.1-0.7-0.4-0.8s-0.7-0.3-1.3-0.3h-1
		C796.9,332.1,796.3,332.5,796.3,333.4L796.3,333.4z M796.8,328c0,0.5,0.2,0.9,0.4,1.1s0.7,0.4,1.2,0.4c0.5,0,0.9-0.1,1.2-0.4
		s0.4-0.7,0.4-1.2c0-0.5-0.1-1-0.4-1.2s-0.7-0.4-1.2-0.4c-0.5,0-0.9,0.1-1.2,0.4S796.8,327.5,796.8,328L796.8,328z M805.7,332.5
		c-0.9,0-1.6-0.3-2.2-0.9s-0.8-1.4-0.8-2.4c0-1,0.2-1.8,0.8-2.4s1.2-0.9,2-0.9c0.8,0,1.3,0.3,1.8,0.8s0.7,1.2,0.7,2.1v0.5h-4.6
		c0,0.9,0.2,1.5,0.6,2s1,0.7,1.7,0.7c0.4,0,0.7,0,1-0.1s0.6-0.2,1-0.3v0.5c-0.4,0.2-0.7,0.3-1,0.3S806,332.5,805.7,332.5
		L805.7,332.5z M805.5,326.4c-0.6,0-1.1,0.2-1.5,0.6s-0.6,1-0.7,1.8h3.9c0-0.7-0.2-1.3-0.5-1.7S806.1,326.4,805.5,326.4L805.5,326.4
		z M811.7,332c0.4,0,0.7,0,1-0.1v0.5c-0.3,0.1-0.6,0.1-1,0.1c-0.6,0-1-0.1-1.2-0.5s-0.4-0.8-0.4-1.4v-4.1h-0.9v-0.3l0.9-0.3l0.3-1.4
		h0.3v1.5h1.9v0.5h-1.9v4c0,0.5,0.1,0.9,0.3,1.1S811.3,332,811.7,332L811.7,332z M818.8,332.4v-4.1c0-0.6-0.1-1.1-0.4-1.4
		s-0.7-0.4-1.3-0.4c-0.8,0-1.3,0.2-1.7,0.6s-0.5,1-0.5,1.9v3.5h-0.6v-9.1h0.6v2.9l0,0.8h0c0.2-0.4,0.5-0.7,0.9-0.8s0.8-0.3,1.4-0.3
		c1.4,0,2.2,0.8,2.2,2.3v4.2L818.8,332.4L818.8,332.4z M824.3,332.5c-0.9,0-1.6-0.3-2.2-0.9s-0.8-1.4-0.8-2.4c0-1,0.2-1.8,0.8-2.4
		s1.2-0.9,2-0.9c0.8,0,1.3,0.3,1.8,0.8s0.7,1.2,0.7,2.1v0.5h-4.6c0,0.9,0.2,1.5,0.6,2s1,0.7,1.7,0.7c0.4,0,0.7,0,1-0.1
		s0.6-0.2,1-0.3v0.5c-0.4,0.2-0.7,0.3-1,0.3S824.6,332.5,824.3,332.5L824.3,332.5z M824.1,326.4c-0.6,0-1.1,0.2-1.5,0.6
		s-0.6,1-0.7,1.8h3.9c0-0.7-0.2-1.3-0.5-1.7S824.7,326.4,824.1,326.4L824.1,326.4z M831.1,325.9c0.3,0,0.6,0,0.9,0.1l-0.1,0.6
		c-0.3-0.1-0.5-0.1-0.8-0.1c-0.5,0-1,0.2-1.3,0.7s-0.5,1-0.5,1.7v3.5h-0.6V326h0.5l0.1,1.1h0c0.3-0.5,0.5-0.8,0.8-1
		S830.7,325.9,831.1,325.9L831.1,325.9z M682.7,341.9c0.9,0,1.6,0.3,2,0.8s0.7,1.4,0.7,2.5c0,1.1-0.2,1.9-0.7,2.4s-1.1,0.9-2,0.9
		c-0.5,0-0.9-0.1-1.2-0.3s-0.7-0.5-0.9-0.8h-0.1l-0.2,1H680v-9.1h0.6v2.3c0,0.3,0,0.7,0,1l0,0.5h0c0.2-0.4,0.5-0.7,0.9-0.8
		S682.2,341.9,682.7,341.9L682.7,341.9z M682.7,342.4c-0.8,0-1.3,0.2-1.6,0.6s-0.5,1.1-0.5,2.1v0.1c0,1,0.2,1.6,0.5,2.1
		s0.9,0.6,1.6,0.6c0.7,0,1.2-0.2,1.6-0.7s0.5-1.2,0.5-2.1C684.8,343.3,684.1,342.4,682.7,342.4L682.7,342.4z M686.4,342h0.6l1.3,3.6
		c0.4,1.1,0.7,1.8,0.8,2.2h0c0.2-0.5,0.4-1.3,0.8-2.3l1.3-3.5h0.6l-2.9,7.4c-0.2,0.6-0.4,1-0.6,1.2s-0.3,0.4-0.5,0.5
		s-0.5,0.2-0.8,0.2c-0.2,0-0.5,0-0.7-0.1v-0.5c0.2,0.1,0.5,0.1,0.7,0.1c0.2,0,0.4,0,0.5-0.1s0.3-0.2,0.4-0.4s0.3-0.5,0.4-0.9
		s0.3-0.7,0.3-0.8L686.4,342L686.4,342z M700.6,346.7c0,0.6-0.2,1-0.7,1.3s-1,0.5-1.8,0.5c-0.9,0-1.5-0.1-2-0.4v-0.6
		c0.6,0.3,1.3,0.5,2,0.5c0.6,0,1.1-0.1,1.4-0.3s0.5-0.5,0.5-0.8c0-0.3-0.1-0.6-0.4-0.8s-0.7-0.4-1.3-0.6c-0.6-0.2-1.1-0.4-1.3-0.6
		s-0.5-0.4-0.6-0.6s-0.2-0.5-0.2-0.8c0-0.5,0.2-0.9,0.6-1.1s1-0.4,1.7-0.4c0.7,0,1.3,0.1,2,0.4l-0.2,0.5c-0.6-0.3-1.2-0.4-1.7-0.4
		c-0.5,0-0.9,0.1-1.2,0.3s-0.5,0.4-0.5,0.7c0,0.3,0.1,0.6,0.4,0.8s0.7,0.4,1.4,0.7c0.6,0.2,1,0.4,1.3,0.6s0.5,0.4,0.6,0.6
		S700.6,346.4,700.6,346.7L700.6,346.7z M707,348.4v-4.1c0-0.6-0.1-1.1-0.4-1.4s-0.7-0.4-1.3-0.4c-0.8,0-1.3,0.2-1.7,0.6
		s-0.5,1-0.5,1.9v3.5h-0.6v-9.1h0.6v2.9l0,0.8h0c0.2-0.4,0.5-0.7,0.9-0.8s0.8-0.3,1.4-0.3c1.4,0,2.2,0.8,2.2,2.3v4.2L707,348.4
		L707,348.4z M713.8,348.4l-0.1-1h0c-0.3,0.4-0.7,0.7-1,0.9s-0.7,0.3-1.2,0.3c-0.6,0-1.1-0.2-1.5-0.5s-0.5-0.8-0.5-1.3
		c0-0.6,0.3-1.1,0.8-1.4s1.3-0.5,2.2-0.5l1.2,0v-0.4c0-0.6-0.1-1.1-0.4-1.4s-0.6-0.5-1.2-0.5c-0.6,0-1.2,0.2-1.8,0.5l-0.2-0.5
		c0.7-0.3,1.4-0.5,2.1-0.5c0.7,0,1.2,0.2,1.6,0.5s0.5,0.9,0.5,1.7v4.2L713.8,348.4L713.8,348.4z M711.5,348c0.7,0,1.2-0.2,1.6-0.6
		s0.6-0.9,0.6-1.6v-0.6l-1.1,0c-0.9,0-1.5,0.2-1.9,0.4s-0.6,0.6-0.6,1.1c0,0.4,0.1,0.7,0.4,0.9S711,348,711.5,348L711.5,348z
		 M719.1,341.9c0.3,0,0.6,0,0.9,0.1l-0.1,0.6c-0.3-0.1-0.5-0.1-0.8-0.1c-0.5,0-1,0.2-1.3,0.7s-0.5,1-0.5,1.7v3.5h-0.6V342h0.5
		l0.1,1.1h0c0.3-0.5,0.5-0.8,0.8-1S718.7,341.9,719.1,341.9L719.1,341.9z M724.1,348.5c-0.9,0-1.6-0.3-2.2-0.9s-0.8-1.4-0.8-2.4
		c0-1,0.2-1.8,0.8-2.4s1.2-0.9,2-0.9c0.8,0,1.3,0.3,1.8,0.8s0.7,1.2,0.7,2.1v0.5h-4.6c0,0.9,0.2,1.5,0.6,2s1,0.7,1.7,0.7
		c0.4,0,0.7,0,1-0.1s0.6-0.2,1-0.3v0.5c-0.4,0.2-0.7,0.3-1,0.3S724.5,348.5,724.1,348.5L724.1,348.5z M724,342.4
		c-0.6,0-1.1,0.2-1.5,0.6s-0.6,1-0.7,1.8h3.9c0-0.7-0.2-1.3-0.5-1.7S724.5,342.4,724,342.4L724,342.4z M730.8,341.9
		c0.5,0,0.9,0.1,1.2,0.3s0.6,0.5,0.9,0.9h0c0-0.5,0-1,0-1.4v-2.3h0.6v9.1h-0.4l-0.1-1h0c-0.5,0.7-1.2,1.1-2.1,1.1
		c-0.9,0-1.5-0.3-2-0.8s-0.7-1.3-0.7-2.4c0-1.1,0.2-1.9,0.7-2.5S729.9,341.9,730.8,341.9L730.8,341.9z M730.8,342.4
		c-0.7,0-1.2,0.2-1.6,0.7s-0.5,1.2-0.5,2.1c0,1.8,0.7,2.7,2.1,2.7c0.7,0,1.2-0.2,1.6-0.6s0.5-1.1,0.5-2.1v-0.1c0-1-0.2-1.7-0.5-2.1
		S731.5,342.4,730.8,342.4L730.8,342.4z M740.7,348.4l-2.5-6.4h0.6l1.6,4.3c0.2,0.6,0.4,1,0.5,1.5h0c0.2-0.5,0.3-1,0.5-1.5l1.6-4.3
		h0.6l-2.5,6.4L740.7,348.4L740.7,348.4z M749,348.4l-0.1-1h0c-0.3,0.4-0.7,0.7-1,0.9s-0.7,0.3-1.2,0.3c-0.6,0-1.1-0.2-1.5-0.5
		s-0.5-0.8-0.5-1.3c0-0.6,0.3-1.1,0.8-1.4s1.3-0.5,2.2-0.5l1.2,0v-0.4c0-0.6-0.1-1.1-0.4-1.4s-0.6-0.5-1.2-0.5
		c-0.6,0-1.2,0.2-1.8,0.5l-0.2-0.5c0.7-0.3,1.4-0.5,2.1-0.5c0.7,0,1.2,0.2,1.6,0.5s0.5,0.9,0.5,1.7v4.2L749,348.4L749,348.4z
		 M746.6,348c0.7,0,1.2-0.2,1.6-0.6s0.6-0.9,0.6-1.6v-0.6l-1.1,0c-0.9,0-1.5,0.2-1.9,0.4s-0.6,0.6-0.6,1.1c0,0.4,0.1,0.7,0.4,0.9
		S746.2,348,746.6,348L746.6,348z M752.3,348.4h-0.6v-9.1h0.6V348.4z M755.3,342v4.1c0,0.6,0.1,1.1,0.4,1.4s0.7,0.4,1.3,0.4
		c0.8,0,1.3-0.2,1.7-0.6s0.5-1,0.5-1.9V342h0.6v6.4h-0.5l-0.1-0.9h0c-0.4,0.7-1.2,1-2.2,1c-1.4,0-2.2-0.8-2.2-2.3V342L755.3,342
		L755.3,342z M764.7,348.5c-0.9,0-1.6-0.3-2.2-0.9s-0.8-1.4-0.8-2.4c0-1,0.2-1.8,0.8-2.4s1.2-0.9,2-0.9c0.8,0,1.3,0.3,1.8,0.8
		s0.7,1.2,0.7,2.1v0.5h-4.6c0,0.9,0.2,1.5,0.6,2s1,0.7,1.7,0.7c0.4,0,0.7,0,1-0.1s0.6-0.2,1-0.3v0.5c-0.4,0.2-0.7,0.3-1,0.3
		S765.1,348.5,764.7,348.5L764.7,348.5z M764.6,342.4c-0.6,0-1.1,0.2-1.5,0.6s-0.6,1-0.7,1.8h3.9c0-0.7-0.2-1.3-0.5-1.7
		S765.1,342.4,764.6,342.4L764.6,342.4z M773,346.7c0,0.6-0.2,1-0.7,1.3s-1,0.5-1.8,0.5c-0.9,0-1.5-0.1-2-0.4v-0.6
		c0.6,0.3,1.3,0.5,2,0.5c0.6,0,1.1-0.1,1.4-0.3s0.5-0.5,0.5-0.8c0-0.3-0.1-0.6-0.4-0.8s-0.7-0.4-1.3-0.6c-0.6-0.2-1.1-0.4-1.3-0.6
		s-0.5-0.4-0.6-0.6s-0.2-0.5-0.2-0.8c0-0.5,0.2-0.9,0.6-1.1s1-0.4,1.7-0.4c0.7,0,1.3,0.1,2,0.4l-0.2,0.5c-0.6-0.3-1.2-0.4-1.7-0.4
		c-0.5,0-0.9,0.1-1.2,0.3s-0.5,0.4-0.5,0.7c0,0.3,0.1,0.6,0.4,0.8s0.7,0.4,1.4,0.7c0.6,0.2,1,0.4,1.3,0.6s0.5,0.4,0.6,0.6
		S773,346.4,773,346.7L773,346.7z M349,569.7h-3.5l-1.2,3h-0.7l3.4-8.6h0.4l3.4,8.6h-0.7L349,569.7L349,569.7z M345.7,569.1h3.1
		l-1.2-3.1c-0.1-0.2-0.2-0.6-0.4-1c-0.1,0.4-0.2,0.7-0.3,1L345.7,569.1z M360.1,572.7v-4.1c0-0.6-0.1-1.1-0.4-1.4s-0.7-0.4-1.3-0.4
		c-0.8,0-1.3,0.2-1.7,0.6s-0.5,1-0.5,1.9v3.5h-0.6v-6.4h0.5l0.1,0.9h0c0.4-0.7,1.2-1,2.2-1c1.4,0,2.2,0.8,2.2,2.3v4.2L360.1,572.7
		L360.1,572.7z M365.6,572.8c-0.9,0-1.6-0.3-2.2-0.9c-0.5-0.6-0.8-1.4-0.8-2.4c0-1,0.2-1.8,0.8-2.4s1.2-0.9,2-0.9
		c0.8,0,1.3,0.3,1.8,0.8s0.6,1.2,0.6,2.1v0.5h-4.6c0,0.9,0.2,1.5,0.6,2c0.4,0.5,1,0.7,1.7,0.7c0.4,0,0.7,0,1-0.1s0.6-0.2,1-0.3v0.5
		c-0.4,0.2-0.7,0.3-1,0.3C366.3,572.8,365.9,572.8,365.6,572.8L365.6,572.8z M365.4,566.7c-0.6,0-1.1,0.2-1.5,0.6s-0.6,1-0.6,1.8
		h3.9c0-0.7-0.2-1.3-0.5-1.7S366,566.7,365.4,566.7L365.4,566.7z M371.6,572.3c0.4,0,0.7,0,1-0.1v0.5c-0.3,0.1-0.6,0.1-1,0.1
		c-0.6,0-1-0.2-1.2-0.5s-0.4-0.8-0.4-1.4v-4.1H369v-0.3l0.9-0.3l0.3-1.4h0.3v1.5h1.9v0.5h-1.9v4c0,0.5,0.1,0.8,0.3,1.1
		S371.2,572.3,371.6,572.3L371.6,572.3z M379.3,572.7l-1.4-4.3c-0.1-0.3-0.2-0.7-0.3-1.3h0l-0.1,0.4l-0.3,0.8l-1.4,4.2h-0.6
		l-1.8-6.4h0.6l1,3.7c0.2,0.9,0.4,1.6,0.5,2h0c0.2-0.9,0.4-1.5,0.5-1.8l1.3-3.9h0.5l1.2,3.9c0.3,0.9,0.5,1.5,0.5,1.8h0
		c0-0.3,0.2-0.9,0.5-2l1-3.7h0.6l-1.7,6.4L379.3,572.7L379.3,572.7z M388.5,569.5c0,1-0.2,1.9-0.8,2.4s-1.2,0.9-2.1,0.9
		c-0.6,0-1.1-0.1-1.5-0.4c-0.4-0.3-0.8-0.7-1-1.2s-0.3-1.1-0.3-1.7c0-1,0.3-1.8,0.8-2.4c0.5-0.6,1.2-0.9,2.1-0.9
		c0.9,0,1.6,0.3,2.1,0.9C388.2,567.7,388.4,568.5,388.5,569.5L388.5,569.5z M383.4,569.5c0,0.9,0.2,1.6,0.6,2
		c0.4,0.5,0.9,0.7,1.6,0.7s1.2-0.2,1.6-0.7s0.6-1.2,0.6-2c0-0.9-0.2-1.6-0.6-2c-0.4-0.5-0.9-0.7-1.6-0.7s-1.2,0.2-1.6,0.7
		S383.4,568.6,383.4,569.5L383.4,569.5z M393,566.2c0.3,0,0.6,0,0.9,0.1l-0.1,0.6c-0.3-0.1-0.5-0.1-0.8-0.1c-0.5,0-1,0.2-1.3,0.7
		c-0.3,0.5-0.5,1-0.5,1.7v3.5h-0.6v-6.4h0.5l0.1,1.2h0c0.3-0.5,0.5-0.8,0.8-1C392.2,566.3,392.6,566.2,393,566.2L393,566.2z
		 M396.1,569.9l3.3-3.6h0.7l-2.5,2.7l2.7,3.7h-0.7l-2.4-3.2l-1,1v2.3h-0.6v-9.1h0.6v4.6L396.1,569.9L396.1,569.9L396.1,569.9z
		 M410.3,569.5c0,1-0.3,1.9-0.8,2.4s-1.2,0.9-2.1,0.9c-0.6,0-1-0.1-1.5-0.4s-0.8-0.7-1-1.2s-0.3-1.1-0.3-1.7c0-1,0.3-1.8,0.8-2.4
		s1.2-0.9,2.1-0.9c0.9,0,1.6,0.3,2.1,0.9S410.3,568.5,410.3,569.5L410.3,569.5z M405.2,569.5c0,0.9,0.2,1.6,0.6,2s0.9,0.7,1.6,0.7
		s1.2-0.2,1.6-0.7s0.6-1.2,0.6-2c0-0.9-0.2-1.6-0.6-2s-0.9-0.7-1.6-0.7s-1.2,0.2-1.6,0.7S405.2,568.6,405.2,569.5L405.2,569.5z
		 M414.7,566.8h-1.5v5.9h-0.6v-5.9h-1.2v-0.3l1.2-0.2v-0.5c0-0.8,0.1-1.4,0.4-1.7s0.8-0.5,1.4-0.5c0.4,0,0.7,0.1,1.1,0.2l-0.1,0.5
		c-0.3-0.1-0.6-0.1-0.9-0.1c-0.5,0-0.8,0.1-1,0.4s-0.3,0.7-0.3,1.3v0.6h1.5L414.7,566.8L414.7,566.8z M422.2,572.8
		c-0.9,0-1.6-0.3-2.1-0.9s-0.8-1.4-0.8-2.4c0-1.1,0.3-1.9,0.8-2.5s1.3-0.9,2.2-0.9c0.5,0,1.1,0.1,1.6,0.3l-0.2,0.5
		c-0.5-0.2-1-0.3-1.4-0.3c-0.8,0-1.4,0.2-1.8,0.7s-0.6,1.2-0.6,2.1c0,0.9,0.2,1.5,0.6,2s1,0.7,1.7,0.7c0.6,0,1.1-0.1,1.6-0.3v0.5
		C423.4,572.7,422.9,572.8,422.2,572.8L422.2,572.8z M430.9,569.5c0,1-0.3,1.9-0.8,2.4s-1.2,0.9-2.1,0.9c-0.6,0-1-0.1-1.5-0.4
		s-0.8-0.7-1-1.2s-0.3-1.1-0.3-1.7c0-1,0.3-1.8,0.8-2.4s1.2-0.9,2.1-0.9c0.9,0,1.6,0.3,2.1,0.9S430.9,568.5,430.9,569.5L430.9,569.5
		z M425.9,569.5c0,0.9,0.2,1.6,0.6,2s0.9,0.7,1.6,0.7s1.2-0.2,1.6-0.7s0.6-1.2,0.6-2c0-0.9-0.2-1.6-0.6-2s-0.9-0.7-1.6-0.7
		s-1.2,0.2-1.6,0.7S425.9,568.6,425.9,569.5L425.9,569.5z M440.9,572.7v-4.2c0-0.6-0.1-1.1-0.4-1.4s-0.6-0.4-1.1-0.4
		c-0.7,0-1.1,0.2-1.4,0.5s-0.5,0.9-0.5,1.7v3.7H437v-4.4c0-1.1-0.5-1.6-1.5-1.6c-0.7,0-1.2,0.2-1.5,0.6s-0.5,1-0.5,1.9v3.5H433v-6.4
		h0.5l0.1,0.9h0c0.2-0.3,0.4-0.6,0.8-0.7s0.7-0.3,1.1-0.3c1,0,1.6,0.4,1.9,1.1h0c0.2-0.4,0.5-0.6,0.8-0.8s0.7-0.3,1.2-0.3
		c0.7,0,1.2,0.2,1.6,0.6s0.5,1,0.5,1.8v4.2L440.9,572.7L440.9,572.7z M446.6,572.8c-1,0-1.7-0.4-2.1-1.1h0l0,0.5c0,0.3,0,0.6,0,1
		v2.4h-0.6v-9.3h0.5l0.1,0.9h0c0.4-0.7,1.1-1,2.1-1c0.9,0,1.5,0.3,2,0.8s0.7,1.4,0.7,2.5c0,1-0.2,1.9-0.7,2.4
		S447.4,572.8,446.6,572.8L446.6,572.8z M446.6,572.3c0.6,0,1.2-0.2,1.5-0.7s0.5-1.2,0.5-2c0-1.9-0.7-2.8-2-2.8
		c-0.7,0-1.3,0.2-1.6,0.6s-0.5,1.1-0.5,2v0.2c0,1,0.2,1.7,0.5,2.1S445.8,572.3,446.6,572.3L446.6,572.3z M455.2,572.7l-0.1-1h0
		c-0.3,0.4-0.6,0.7-1,0.9s-0.7,0.3-1.2,0.3c-0.6,0-1.1-0.2-1.5-0.5s-0.5-0.8-0.5-1.3c0-0.6,0.3-1.1,0.8-1.4s1.3-0.5,2.2-0.5l1.2,0
		v-0.4c0-0.6-0.1-1.1-0.4-1.4s-0.6-0.5-1.2-0.5c-0.6,0-1.2,0.2-1.8,0.5l-0.2-0.5c0.7-0.3,1.4-0.5,2.1-0.5c0.7,0,1.2,0.2,1.6,0.5
		s0.5,0.9,0.5,1.7v4.2L455.2,572.7L455.2,572.7z M452.8,572.3c0.7,0,1.2-0.2,1.6-0.6s0.6-0.9,0.6-1.6v-0.6l-1.1,0
		c-0.9,0-1.5,0.2-1.9,0.4s-0.6,0.6-0.6,1.1c0,0.4,0.1,0.7,0.4,0.9S452.4,572.3,452.8,572.3L452.8,572.3z M462.4,572.7v-4.1
		c0-0.6-0.1-1.1-0.4-1.4s-0.7-0.4-1.3-0.4c-0.8,0-1.3,0.2-1.7,0.6s-0.5,1-0.5,1.9v3.5H458v-6.4h0.5l0.1,0.9h0c0.4-0.7,1.1-1,2.2-1
		c1.4,0,2.2,0.8,2.2,2.3v4.2L462.4,572.7L462.4,572.7z M465.3,564.6c0-0.4,0.1-0.6,0.4-0.6c0.1,0,0.2,0,0.3,0.1s0.1,0.2,0.1,0.4
		c0,0.2,0,0.3-0.1,0.4s-0.2,0.2-0.3,0.2C465.4,565.1,465.3,564.9,465.3,564.6L465.3,564.6z M465.9,572.7h-0.6v-6.4h0.6V572.7z
		 M470.9,572.8c-0.9,0-1.6-0.3-2.2-0.9s-0.8-1.4-0.8-2.4c0-1,0.2-1.8,0.8-2.4s1.2-0.9,2-0.9c0.8,0,1.3,0.3,1.8,0.8s0.6,1.2,0.6,2.1
		v0.5h-4.6c0,0.9,0.2,1.5,0.6,2s1,0.7,1.7,0.7c0.4,0,0.7,0,1-0.1s0.6-0.2,1-0.3v0.5c-0.4,0.2-0.7,0.3-1,0.3S471.3,572.8,470.9,572.8
		L470.9,572.8z M470.8,566.7c-0.6,0-1.1,0.2-1.5,0.6s-0.6,1-0.6,1.8h3.9c0-0.7-0.2-1.3-0.5-1.7S471.3,566.7,470.8,566.7L470.8,566.7
		z M479.2,571c0,0.6-0.2,1-0.6,1.3s-1,0.5-1.8,0.5c-0.9,0-1.5-0.1-2-0.4v-0.6c0.6,0.3,1.3,0.5,2,0.5c0.6,0,1.1-0.1,1.4-0.3
		s0.5-0.5,0.5-0.8c0-0.3-0.1-0.6-0.4-0.8s-0.7-0.4-1.3-0.6c-0.6-0.2-1.1-0.4-1.3-0.6s-0.5-0.4-0.6-0.6s-0.2-0.5-0.2-0.8
		c0-0.5,0.2-0.9,0.6-1.1s1-0.4,1.7-0.4c0.7,0,1.3,0.1,2,0.4l-0.2,0.5c-0.6-0.3-1.2-0.4-1.7-0.4c-0.5,0-0.9,0.1-1.2,0.3
		s-0.5,0.4-0.5,0.7c0,0.3,0.1,0.6,0.4,0.8s0.7,0.4,1.4,0.7c0.6,0.2,1,0.4,1.3,0.6s0.5,0.4,0.6,0.6S479.2,570.8,479.2,571L479.2,571z
		 M487.1,572.8c-0.9,0-1.6-0.3-2.1-0.9s-0.8-1.4-0.8-2.4c0-1.1,0.3-1.9,0.8-2.5s1.3-0.9,2.2-0.9c0.5,0,1.1,0.1,1.6,0.3l-0.2,0.5
		c-0.5-0.2-1-0.3-1.4-0.3c-0.8,0-1.4,0.2-1.8,0.7s-0.6,1.2-0.6,2.1c0,0.9,0.2,1.5,0.6,2s1,0.7,1.7,0.7c0.6,0,1.1-0.1,1.6-0.3v0.5
		C488.3,572.7,487.8,572.8,487.1,572.8L487.1,572.8z M495.8,569.5c0,1-0.3,1.9-0.8,2.4s-1.2,0.9-2.1,0.9c-0.6,0-1-0.1-1.5-0.4
		s-0.8-0.7-1-1.2s-0.3-1.1-0.3-1.7c0-1,0.3-1.8,0.8-2.4s1.2-0.9,2.1-0.9c0.9,0,1.6,0.3,2.1,0.9S495.8,568.5,495.8,569.5L495.8,569.5
		z M490.8,569.5c0,0.9,0.2,1.6,0.6,2s0.9,0.7,1.6,0.7s1.2-0.2,1.6-0.7s0.6-1.2,0.6-2c0-0.9-0.2-1.6-0.6-2s-0.9-0.7-1.6-0.7
		s-1.2,0.2-1.6,0.7S490.8,568.6,490.8,569.5L490.8,569.5z M502.3,572.7v-4.1c0-0.6-0.1-1.1-0.4-1.4s-0.7-0.4-1.3-0.4
		c-0.8,0-1.3,0.2-1.7,0.6s-0.5,1-0.5,1.9v3.5h-0.6v-6.4h0.5l0.1,0.9h0c0.4-0.7,1.1-1,2.2-1c1.4,0,2.2,0.8,2.2,2.3v4.2L502.3,572.7
		L502.3,572.7z M509.7,572.7v-4.1c0-0.6-0.1-1.1-0.4-1.4s-0.7-0.4-1.3-0.4c-0.8,0-1.3,0.2-1.7,0.6s-0.5,1-0.5,1.9v3.5h-0.6v-6.4h0.5
		l0.1,0.9h0c0.4-0.7,1.1-1,2.2-1c1.4,0,2.2,0.8,2.2,2.3v4.2L509.7,572.7L509.7,572.7z M515.2,572.8c-0.9,0-1.6-0.3-2.2-0.9
		c-0.5-0.6-0.8-1.4-0.8-2.4c0-1,0.2-1.8,0.8-2.4s1.2-0.9,2-0.9c0.8,0,1.3,0.3,1.8,0.8c0.4,0.5,0.6,1.2,0.6,2.1v0.5h-4.6
		c0,0.9,0.2,1.5,0.6,2c0.4,0.5,1,0.7,1.7,0.7c0.4,0,0.7,0,1-0.1s0.6-0.2,1-0.3v0.5c-0.4,0.2-0.7,0.3-1,0.3
		C515.9,572.8,515.6,572.8,515.2,572.8L515.2,572.8z M515.1,566.7c-0.6,0-1.1,0.2-1.5,0.6c-0.4,0.4-0.6,1-0.6,1.8h3.9
		c0-0.7-0.2-1.3-0.5-1.7C516.1,566.9,515.6,566.7,515.1,566.7L515.1,566.7z M522.1,572.8c-0.9,0-1.6-0.3-2.1-0.9s-0.8-1.4-0.8-2.4
		c0-1.1,0.3-1.9,0.8-2.5s1.3-0.9,2.2-0.9c0.6,0,1.1,0.1,1.6,0.3l-0.2,0.5c-0.5-0.2-1-0.3-1.4-0.3c-0.8,0-1.4,0.2-1.8,0.7
		c-0.4,0.5-0.6,1.2-0.6,2.1c0,0.9,0.2,1.5,0.6,2c0.4,0.5,1,0.7,1.7,0.7c0.6,0,1.1-0.1,1.6-0.3v0.5
		C523.3,572.7,522.7,572.8,522.1,572.8L522.1,572.8z M527.2,572.3c0.4,0,0.7,0,1-0.1v0.5c-0.3,0.1-0.6,0.1-1,0.1
		c-0.6,0-1-0.2-1.2-0.5c-0.3-0.3-0.4-0.8-0.4-1.4v-4.1h-0.9v-0.3l0.9-0.3l0.3-1.4h0.3v1.5h1.9v0.5h-1.9v4c0,0.5,0.1,0.8,0.3,1.1
		C526.6,572.2,526.9,572.3,527.2,572.3L527.2,572.3z M532.4,572.8c-0.9,0-1.6-0.3-2.2-0.9s-0.8-1.4-0.8-2.4c0-1,0.2-1.8,0.8-2.4
		s1.2-0.9,2-0.9c0.8,0,1.3,0.3,1.8,0.8c0.4,0.5,0.7,1.2,0.7,2.1v0.5h-4.6c0,0.9,0.2,1.5,0.6,2c0.4,0.5,1,0.7,1.7,0.7
		c0.4,0,0.7,0,1-0.1s0.6-0.2,1-0.3v0.5c-0.4,0.2-0.7,0.3-1,0.3S532.8,572.8,532.4,572.8L532.4,572.8z M532.3,566.7
		c-0.6,0-1.1,0.2-1.5,0.6s-0.6,1-0.7,1.8h3.9c0-0.7-0.2-1.3-0.5-1.7S532.8,566.7,532.3,566.7L532.3,566.7z M539.1,566.2
		c0.5,0,0.9,0.1,1.2,0.3s0.6,0.5,0.9,0.9h0c0-0.5,0-1,0-1.4v-2.3h0.6v9.1h-0.4l-0.1-1h0c-0.5,0.7-1.2,1.1-2.1,1.1
		c-0.9,0-1.6-0.3-2-0.8s-0.7-1.3-0.7-2.4c0-1.1,0.2-1.9,0.7-2.5C537.5,566.5,538.2,566.2,539.1,566.2L539.1,566.2z M539.1,566.7
		c-0.7,0-1.2,0.2-1.6,0.7s-0.5,1.2-0.5,2.1c0,1.8,0.7,2.7,2.1,2.7c0.7,0,1.2-0.2,1.6-0.6c0.3-0.4,0.5-1.1,0.5-2.1v-0.1
		c0-1-0.2-1.7-0.5-2.1S539.8,566.7,539.1,566.7L539.1,566.7z M378.5,588.3c0.4,0,0.7,0,1-0.1v0.5c-0.3,0.1-0.6,0.1-1,0.1
		c-0.6,0-1-0.2-1.2-0.5s-0.4-0.8-0.4-1.4v-4.1h-0.9v-0.3l0.9-0.3l0.3-1.4h0.3v1.5h1.9v0.5h-1.9v4c0,0.5,0.1,0.8,0.3,1.1
		S378.1,588.3,378.5,588.3L378.5,588.3z M385.6,588.7v-4.1c0-0.6-0.1-1.1-0.4-1.4c-0.3-0.3-0.7-0.4-1.3-0.4c-0.8,0-1.3,0.2-1.7,0.6
		s-0.5,1-0.5,1.9v3.5h-0.6v-9.1h0.6v2.9l0,0.8h0c0.2-0.4,0.5-0.7,0.9-0.8s0.8-0.3,1.4-0.3c1.4,0,2.2,0.8,2.2,2.3v4.2L385.6,588.7
		L385.6,588.7z M391,582.2c0.3,0,0.6,0,0.9,0.1l-0.1,0.6c-0.3-0.1-0.5-0.1-0.8-0.1c-0.5,0-1,0.2-1.3,0.7c-0.3,0.5-0.5,1-0.5,1.7v3.5
		h-0.6v-6.4h0.5l0.1,1.2h0c0.3-0.5,0.5-0.8,0.8-1C390.2,582.3,390.6,582.2,391,582.2L391,582.2z M398.7,585.5c0,1-0.2,1.9-0.8,2.4
		s-1.2,0.9-2.1,0.9c-0.6,0-1.1-0.1-1.5-0.4s-0.8-0.7-1-1.2c-0.2-0.5-0.3-1.1-0.3-1.7c0-1,0.3-1.8,0.8-2.4s1.2-0.9,2.1-0.9
		c0.9,0,1.6,0.3,2.1,0.9S398.7,584.5,398.7,585.5L398.7,585.5z M393.7,585.5c0,0.9,0.2,1.6,0.6,2s0.9,0.7,1.6,0.7s1.2-0.2,1.6-0.7
		s0.6-1.2,0.6-2c0-0.9-0.2-1.6-0.6-2s-0.9-0.7-1.6-0.7s-1.2,0.2-1.6,0.7S393.7,584.6,393.7,585.5L393.7,585.5z M401.3,582.3v4.1
		c0,0.6,0.1,1.1,0.4,1.4s0.7,0.4,1.3,0.4c0.8,0,1.3-0.2,1.7-0.6s0.5-1,0.5-1.9v-3.5h0.6v6.4h-0.5l-0.1-0.9h0c-0.4,0.7-1.1,1-2.2,1
		c-1.4,0-2.2-0.8-2.2-2.3v-4.2L401.3,582.3L401.3,582.3z M413.1,582.3v0.4l-1.3,0.1c0.4,0.4,0.5,0.9,0.5,1.4c0,0.6-0.2,1.1-0.6,1.5
		s-1,0.6-1.6,0.6c-0.3,0-0.5,0-0.6,0c-0.2,0.1-0.4,0.3-0.5,0.4s-0.2,0.3-0.2,0.5c0,0.2,0.1,0.4,0.2,0.4s0.4,0.1,0.8,0.1h1.1
		c0.7,0,1.2,0.1,1.6,0.4s0.5,0.7,0.5,1.2c0,0.7-0.3,1.2-0.8,1.6s-1.3,0.5-2.3,0.5c-0.8,0-1.4-0.2-1.9-0.5s-0.7-0.7-0.7-1.3
		c0-0.4,0.1-0.8,0.4-1.1s0.6-0.5,1.1-0.6c-0.2-0.1-0.3-0.2-0.5-0.3s-0.2-0.3-0.2-0.5c0-0.4,0.3-0.8,0.8-1.1
		c-0.4-0.2-0.7-0.4-0.9-0.7s-0.3-0.7-0.3-1.1c0-0.6,0.2-1.1,0.6-1.5s1-0.6,1.6-0.6c0.4,0,0.7,0,1,0.1L413.1,582.3L413.1,582.3z
		 M408,589.8c0,0.9,0.6,1.3,2,1.3c1.7,0,2.5-0.5,2.5-1.6c0-0.4-0.1-0.7-0.4-0.8s-0.7-0.3-1.3-0.3h-1
		C408.6,588.4,408,588.9,408,589.8L408,589.8z M408.5,584.3c0,0.5,0.1,0.9,0.4,1.1s0.7,0.4,1.2,0.4c0.5,0,0.9-0.1,1.2-0.4
		s0.4-0.7,0.4-1.2c0-0.5-0.1-1-0.4-1.2s-0.7-0.4-1.2-0.4c-0.5,0-0.9,0.1-1.2,0.4S408.5,583.8,408.5,584.3L408.5,584.3z M419.2,588.7
		v-4.1c0-0.6-0.1-1.1-0.4-1.4s-0.7-0.4-1.3-0.4c-0.8,0-1.3,0.2-1.7,0.6s-0.5,1-0.5,1.9v3.5h-0.6v-9.1h0.6v2.9l0,0.8h0
		c0.2-0.4,0.5-0.7,0.9-0.8s0.8-0.3,1.4-0.3c1.4,0,2.2,0.8,2.2,2.3v4.2L419.2,588.7L419.2,588.7z M427.2,588.3c0.4,0,0.7,0,1-0.1v0.5
		c-0.3,0.1-0.6,0.1-1,0.1c-0.6,0-1-0.2-1.2-0.5s-0.4-0.8-0.4-1.4v-4.1h-0.9v-0.3l0.9-0.3l0.3-1.4h0.3v1.5h1.9v0.5h-1.9v4
		c0,0.5,0.1,0.8,0.3,1.1S426.9,588.3,427.2,588.3L427.2,588.3z M434.3,588.7v-4.1c0-0.6-0.1-1.1-0.4-1.4s-0.7-0.4-1.3-0.4
		c-0.8,0-1.3,0.2-1.7,0.6s-0.5,1-0.5,1.9v3.5h-0.6v-9.1h0.6v2.9l0,0.8h0c0.2-0.4,0.5-0.7,0.9-0.8s0.8-0.3,1.4-0.3
		c1.4,0,2.2,0.8,2.2,2.3v4.2L434.3,588.7L434.3,588.7z M439.8,588.8c-0.9,0-1.6-0.3-2.2-0.9s-0.8-1.4-0.8-2.4c0-1,0.2-1.8,0.8-2.4
		s1.2-0.9,2-0.9c0.8,0,1.3,0.3,1.8,0.8s0.6,1.2,0.6,2.1v0.5h-4.6c0,0.9,0.2,1.5,0.6,2s1,0.7,1.7,0.7c0.4,0,0.7,0,1-0.1
		s0.6-0.2,1-0.3v0.5c-0.4,0.2-0.7,0.3-1,0.3S440.2,588.8,439.8,588.8L439.8,588.8z M439.6,582.7c-0.6,0-1.1,0.2-1.5,0.6
		s-0.6,1-0.6,1.8h3.9c0-0.7-0.2-1.3-0.5-1.7S440.2,582.7,439.6,582.7L439.6,582.7z M448.3,588.7h-0.6v-8.6h4.7v0.5h-4.1v3.6h3.9v0.6
		h-3.9L448.3,588.7L448.3,588.7z M459.1,585.5c0,1-0.3,1.9-0.8,2.4s-1.2,0.9-2.1,0.9c-0.6,0-1-0.1-1.5-0.4s-0.8-0.7-1-1.2
		s-0.3-1.1-0.3-1.7c0-1,0.3-1.8,0.8-2.4s1.2-0.9,2.1-0.9c0.9,0,1.6,0.3,2.1,0.9S459.1,584.5,459.1,585.5L459.1,585.5z M454.1,585.5
		c0,0.9,0.2,1.6,0.6,2s0.9,0.7,1.6,0.7s1.2-0.2,1.6-0.7s0.6-1.2,0.6-2c0-0.9-0.2-1.6-0.6-2s-0.9-0.7-1.6-0.7s-1.2,0.2-1.6,0.7
		S454.1,584.6,454.1,585.5L454.1,585.5z M461.7,582.3v4.1c0,0.6,0.1,1.1,0.4,1.4s0.7,0.4,1.3,0.4c0.8,0,1.3-0.2,1.7-0.6
		s0.5-1,0.5-1.9v-3.5h0.6v6.4h-0.5l-0.1-0.9h0c-0.4,0.7-1.1,1-2.2,1c-1.4,0-2.2-0.8-2.2-2.3v-4.2L461.7,582.3L461.7,582.3z
		 M473,588.7v-4.1c0-0.6-0.1-1.1-0.4-1.4s-0.7-0.4-1.3-0.4c-0.8,0-1.3,0.2-1.7,0.6s-0.5,1-0.5,1.9v3.5h-0.6v-6.4h0.5l0.1,0.9h0
		c0.4-0.7,1.1-1,2.2-1c1.4,0,2.2,0.8,2.2,2.3v4.2L473,588.7L473,588.7z M478.3,582.2c0.5,0,0.9,0.1,1.2,0.3s0.6,0.5,0.9,0.9h0
		c0-0.5,0-1,0-1.4v-2.3h0.6v9.1h-0.4l-0.1-1h0c-0.5,0.7-1.2,1.1-2.1,1.1c-0.9,0-1.5-0.3-2-0.8s-0.7-1.3-0.7-2.4
		c0-1.1,0.2-1.9,0.7-2.5S477.4,582.2,478.3,582.2L478.3,582.2z M478.3,582.7c-0.7,0-1.2,0.2-1.6,0.7s-0.5,1.2-0.5,2.1
		c0,1.8,0.7,2.7,2.1,2.7c0.7,0,1.2-0.2,1.6-0.6s0.5-1.1,0.5-2.1v-0.1c0-1-0.2-1.7-0.5-2.1S479,582.7,478.3,582.7L478.3,582.7z
		 M487.3,588.7l-0.1-1h0c-0.3,0.4-0.6,0.7-1,0.9s-0.7,0.3-1.2,0.3c-0.6,0-1.1-0.2-1.5-0.5s-0.5-0.8-0.5-1.3c0-0.6,0.3-1.1,0.8-1.4
		s1.3-0.5,2.2-0.5l1.2,0v-0.4c0-0.6-0.1-1.1-0.4-1.4s-0.6-0.5-1.2-0.5c-0.6,0-1.2,0.2-1.8,0.5l-0.2-0.5c0.7-0.3,1.4-0.5,2.1-0.5
		c0.7,0,1.2,0.2,1.6,0.5s0.5,0.9,0.5,1.7v4.2L487.3,588.7L487.3,588.7z M484.9,588.3c0.7,0,1.2-0.2,1.6-0.6s0.6-0.9,0.6-1.6v-0.6
		l-1.1,0c-0.9,0-1.5,0.2-1.9,0.4s-0.6,0.6-0.6,1.1c0,0.4,0.1,0.7,0.4,0.9S484.5,588.3,484.9,588.3L484.9,588.3z M491.7,588.3
		c0.4,0,0.7,0,1-0.1v0.5c-0.3,0.1-0.6,0.1-1,0.1c-0.6,0-1-0.2-1.2-0.5s-0.4-0.8-0.4-1.4v-4.1h-0.9v-0.3l0.9-0.3l0.3-1.4h0.3v1.5h1.9
		v0.5h-1.9v4c0,0.5,0.1,0.8,0.3,1.1S491.4,588.3,491.7,588.3L491.7,588.3z M494.3,580.6c0-0.4,0.1-0.6,0.4-0.6c0.1,0,0.2,0,0.3,0.1
		s0.1,0.2,0.1,0.4c0,0.2,0,0.3-0.1,0.4s-0.2,0.2-0.3,0.2C494.4,581.1,494.3,580.9,494.3,580.6L494.3,580.6z M495,588.7h-0.6v-6.4
		h0.6V588.7z M502.7,585.5c0,1-0.3,1.9-0.8,2.4s-1.2,0.9-2.1,0.9c-0.6,0-1-0.1-1.5-0.4s-0.8-0.7-1-1.2s-0.3-1.1-0.3-1.7
		c0-1,0.3-1.8,0.8-2.4s1.2-0.9,2.1-0.9c0.9,0,1.6,0.3,2.1,0.9S502.7,584.5,502.7,585.5L502.7,585.5z M497.6,585.5
		c0,0.9,0.2,1.6,0.6,2s0.9,0.7,1.6,0.7s1.2-0.2,1.6-0.7s0.6-1.2,0.6-2c0-0.9-0.2-1.6-0.6-2s-0.9-0.7-1.6-0.7s-1.2,0.2-1.6,0.7
		S497.6,584.6,497.6,585.5L497.6,585.5z M509.2,588.7v-4.1c0-0.6-0.1-1.1-0.4-1.4s-0.7-0.4-1.3-0.4c-0.8,0-1.3,0.2-1.7,0.6
		s-0.5,1-0.5,1.9v3.5h-0.6v-6.4h0.5l0.1,0.9h0c0.4-0.7,1.1-1,2.2-1c1.4,0,2.2,0.8,2.2,2.3v4.2L509.2,588.7L509.2,588.7z
		 M662.4,568.4c0,1.4-0.3,2.4-1,3.2s-1.6,1.2-2.8,1.2c-1.2,0-2.1-0.4-2.8-1.2s-1-1.9-1-3.2c0-1.4,0.3-2.4,1-3.2s1.6-1.2,2.8-1.2
		c1.2,0,2.1,0.4,2.8,1.2S662.4,567,662.4,568.4L662.4,568.4z M655.4,568.4c0,1.2,0.3,2.2,0.8,2.8s1.3,1,2.4,1c1,0,1.8-0.3,2.4-1
		s0.8-1.6,0.8-2.9c0-1.2-0.3-2.2-0.8-2.8s-1.3-1-2.4-1c-1,0-1.8,0.3-2.4,1S655.4,567.2,655.4,568.4L655.4,568.4z M667.2,572.8
		c-1,0-1.7-0.4-2.1-1.1h0l0,0.5c0,0.3,0,0.6,0,1v2.4h-0.6v-9.3h0.5l0.1,0.9h0c0.4-0.7,1.1-1,2.1-1c0.9,0,1.5,0.3,2,0.8
		s0.7,1.4,0.7,2.5c0,1-0.2,1.9-0.7,2.4S668,572.8,667.2,572.8L667.2,572.8z M667.2,572.3c0.7,0,1.2-0.2,1.5-0.7s0.5-1.2,0.5-2
		c0-1.9-0.7-2.8-2-2.8c-0.7,0-1.3,0.2-1.6,0.6s-0.5,1.1-0.5,2v0.2c0,1,0.2,1.7,0.5,2.1S666.5,572.3,667.2,572.3L667.2,572.3z
		 M674.5,572.8c-0.9,0-1.6-0.3-2.2-0.9s-0.8-1.4-0.8-2.4c0-1,0.2-1.8,0.8-2.4s1.2-0.9,2-0.9c0.8,0,1.3,0.3,1.8,0.8s0.7,1.2,0.7,2.1
		v0.5h-4.6c0,0.9,0.2,1.5,0.6,2s1,0.7,1.7,0.7c0.4,0,0.7,0,1-0.1s0.6-0.2,1-0.3v0.5c-0.4,0.2-0.7,0.3-1,0.3S674.9,572.8,674.5,572.8
		L674.5,572.8z M674.3,566.7c-0.6,0-1.1,0.2-1.5,0.6s-0.6,1-0.7,1.8h3.9c0-0.7-0.2-1.3-0.5-1.7S674.9,566.7,674.3,566.7L674.3,566.7
		z M683.3,572.7v-4.1c0-0.6-0.1-1.1-0.4-1.4s-0.7-0.4-1.3-0.4c-0.8,0-1.3,0.2-1.7,0.6s-0.5,1-0.5,1.9v3.5h-0.6v-6.4h0.5l0.1,0.9h0
		c0.4-0.7,1.2-1,2.2-1c1.4,0,2.2,0.8,2.2,2.3v4.2L683.3,572.7L683.3,572.7z M685.7,569.7v-0.5h2.8v0.5H685.7z M694.3,571
		c0,0.6-0.2,1-0.7,1.3s-1,0.5-1.8,0.5c-0.9,0-1.5-0.1-2-0.4v-0.6c0.6,0.3,1.3,0.5,2,0.5c0.6,0,1.1-0.1,1.4-0.3s0.5-0.5,0.5-0.8
		c0-0.3-0.1-0.6-0.4-0.8s-0.7-0.4-1.3-0.6c-0.6-0.2-1.1-0.4-1.3-0.6s-0.5-0.4-0.6-0.6s-0.2-0.5-0.2-0.8c0-0.5,0.2-0.9,0.6-1.1
		s1-0.4,1.7-0.4c0.7,0,1.3,0.1,2,0.4l-0.2,0.5c-0.6-0.3-1.2-0.4-1.7-0.4c-0.5,0-0.9,0.1-1.2,0.3s-0.5,0.4-0.5,0.7
		c0,0.3,0.1,0.6,0.4,0.8s0.7,0.4,1.4,0.7c0.6,0.2,1,0.4,1.3,0.6s0.5,0.4,0.6,0.6S694.3,570.8,694.3,571L694.3,571z M701.5,569.5
		c0,1-0.3,1.9-0.8,2.4s-1.2,0.9-2.1,0.9c-0.6,0-1-0.1-1.5-0.4s-0.8-0.7-1-1.2s-0.3-1.1-0.3-1.7c0-1,0.3-1.8,0.8-2.4s1.2-0.9,2.1-0.9
		c0.9,0,1.6,0.3,2.1,0.9S701.5,568.5,701.5,569.5L701.5,569.5z M696.5,569.5c0,0.9,0.2,1.6,0.6,2s0.9,0.7,1.6,0.7s1.2-0.2,1.6-0.7
		s0.6-1.2,0.6-2c0-0.9-0.2-1.6-0.6-2s-0.9-0.7-1.6-0.7s-1.2,0.2-1.6,0.7S696.5,568.6,696.5,569.5L696.5,569.5z M704.1,566.3v4.1
		c0,0.6,0.1,1.1,0.4,1.4s0.7,0.4,1.3,0.4c0.8,0,1.3-0.2,1.7-0.6s0.5-1,0.5-1.9v-3.5h0.6v6.4H708l-0.1-0.9h0c-0.4,0.7-1.2,1-2.2,1
		c-1.4,0-2.2-0.8-2.2-2.3v-4.2L704.1,566.3L704.1,566.3z M713.5,566.2c0.3,0,0.6,0,0.9,0.1l-0.1,0.6c-0.3-0.1-0.5-0.1-0.8-0.1
		c-0.5,0-1,0.2-1.3,0.7s-0.5,1-0.5,1.7v3.5H711v-6.4h0.5l0.1,1.2h0c0.3-0.5,0.5-0.8,0.8-1S713,566.2,713.5,566.2L713.5,566.2z
		 M718.5,572.8c-0.9,0-1.6-0.3-2.1-0.9s-0.8-1.4-0.8-2.4c0-1.1,0.3-1.9,0.8-2.5s1.3-0.9,2.2-0.9c0.6,0,1.1,0.1,1.6,0.3L720,567
		c-0.5-0.2-1-0.3-1.4-0.3c-0.8,0-1.4,0.2-1.8,0.7s-0.6,1.2-0.6,2.1c0,0.9,0.2,1.5,0.6,2s1,0.7,1.7,0.7c0.6,0,1.1-0.1,1.6-0.3v0.5
		C719.7,572.7,719.1,572.8,718.5,572.8L718.5,572.8z M721.8,564.6c0-0.4,0.1-0.6,0.4-0.6c0.1,0,0.2,0,0.3,0.1s0.1,0.2,0.1,0.4
		c0,0.2,0,0.3-0.1,0.4s-0.2,0.2-0.3,0.2C722,565.1,721.8,564.9,721.8,564.6L721.8,564.6z M722.5,572.7h-0.6v-6.4h0.6V572.7z
		 M729.4,572.7v-4.1c0-0.6-0.1-1.1-0.4-1.4s-0.7-0.4-1.3-0.4c-0.8,0-1.3,0.2-1.7,0.6s-0.5,1-0.5,1.9v3.5h-0.6v-6.4h0.5l0.1,0.9h0
		c0.4-0.7,1.2-1,2.2-1c1.4,0,2.2,0.8,2.2,2.3v4.2L729.4,572.7L729.4,572.7z M737.3,566.3v0.4l-1.3,0.1c0.4,0.4,0.5,0.9,0.5,1.4
		c0,0.6-0.2,1.1-0.6,1.5s-1,0.6-1.6,0.6c-0.3,0-0.5,0-0.6,0c-0.2,0.1-0.4,0.3-0.5,0.4s-0.2,0.3-0.2,0.5c0,0.2,0.1,0.4,0.2,0.4
		s0.4,0.1,0.8,0.1h1.1c0.7,0,1.2,0.1,1.6,0.4s0.5,0.7,0.5,1.2c0,0.7-0.3,1.2-0.8,1.6s-1.3,0.5-2.3,0.5c-0.8,0-1.4-0.2-1.9-0.5
		s-0.7-0.7-0.7-1.3c0-0.4,0.1-0.8,0.4-1.1s0.6-0.5,1.1-0.6c-0.2-0.1-0.3-0.2-0.5-0.3s-0.2-0.3-0.2-0.5c0-0.4,0.3-0.8,0.8-1.1
		c-0.4-0.2-0.7-0.4-0.9-0.7s-0.3-0.7-0.3-1.1c0-0.6,0.2-1.1,0.6-1.5s1-0.6,1.6-0.6c0.4,0,0.7,0,1,0.1L737.3,566.3L737.3,566.3z
		 M732.1,573.8c0,0.9,0.7,1.3,2,1.3c1.7,0,2.5-0.5,2.5-1.6c0-0.4-0.1-0.7-0.4-0.8s-0.7-0.3-1.3-0.3h-1
		C732.7,572.4,732.1,572.9,732.1,573.8L732.1,573.8z M732.6,568.3c0,0.5,0.2,0.9,0.4,1.1s0.7,0.4,1.2,0.4c0.5,0,0.9-0.1,1.2-0.4
		s0.4-0.7,0.4-1.2c0-0.5-0.1-1-0.4-1.2s-0.7-0.4-1.2-0.4c-0.5,0-0.9,0.1-1.2,0.4S732.6,567.8,732.6,568.3L732.6,568.3z M742.2,564.6
		c0-0.4,0.1-0.6,0.4-0.6c0.1,0,0.2,0,0.3,0.1s0.1,0.2,0.1,0.4c0,0.2,0,0.3-0.1,0.4s-0.2,0.2-0.3,0.2
		C742.4,565.1,742.2,564.9,742.2,564.6L742.2,564.6z M742.9,572.7h-0.6v-6.4h0.6V572.7z M749.8,572.7v-4.1c0-0.6-0.1-1.1-0.4-1.4
		s-0.7-0.4-1.3-0.4c-0.8,0-1.3,0.2-1.7,0.6s-0.5,1-0.5,1.9v3.5h-0.6v-6.4h0.5l0.1,0.9h0c0.4-0.7,1.2-1,2.2-1c1.4,0,2.2,0.8,2.2,2.3
		v4.2L749.8,572.7L749.8,572.7z M757.1,572.7v-4.1c0-0.6-0.1-1.1-0.4-1.4s-0.7-0.4-1.3-0.4c-0.8,0-1.3,0.2-1.7,0.6s-0.5,1-0.5,1.9
		v3.5h-0.6v-6.4h0.5l0.1,0.9h0c0.4-0.7,1.2-1,2.2-1c1.4,0,2.2,0.8,2.2,2.3v4.2L757.1,572.7L757.1,572.7z M765.3,569.5
		c0,1-0.2,1.9-0.8,2.4s-1.2,0.9-2.1,0.9c-0.6,0-1.1-0.1-1.5-0.4s-0.8-0.7-1-1.2s-0.3-1.1-0.3-1.7c0-1,0.3-1.8,0.8-2.4
		s1.2-0.9,2.1-0.9c0.9,0,1.6,0.3,2.1,0.9S765.3,568.5,765.3,569.5L765.3,569.5z M760.3,569.5c0,0.9,0.2,1.6,0.6,2s0.9,0.7,1.6,0.7
		s1.2-0.2,1.6-0.7s0.6-1.2,0.6-2c0-0.9-0.2-1.6-0.6-2s-0.9-0.7-1.6-0.7s-1.2,0.2-1.6,0.7S760.3,568.6,760.3,569.5L760.3,569.5z
		 M768.8,572.7l-2.5-6.4h0.6l1.6,4.3c0.2,0.6,0.4,1,0.5,1.5h0c0.2-0.5,0.3-1,0.5-1.5l1.6-4.3h0.6l-2.5,6.4H768.8L768.8,572.7z
		 M777.1,572.7l-0.1-1h0c-0.3,0.4-0.7,0.7-1,0.9s-0.7,0.3-1.2,0.3c-0.6,0-1.1-0.2-1.5-0.5s-0.5-0.8-0.5-1.3c0-0.6,0.3-1.1,0.8-1.4
		s1.3-0.5,2.2-0.5l1.2,0v-0.4c0-0.6-0.1-1.1-0.4-1.4s-0.6-0.5-1.2-0.5c-0.6,0-1.2,0.2-1.8,0.5l-0.2-0.5c0.7-0.3,1.4-0.5,2.1-0.5
		c0.7,0,1.2,0.2,1.6,0.5s0.5,0.9,0.5,1.7v4.2L777.1,572.7L777.1,572.7z M774.7,572.3c0.7,0,1.2-0.2,1.6-0.6s0.6-0.9,0.6-1.6v-0.6
		l-1.1,0c-0.9,0-1.5,0.2-1.9,0.4s-0.6,0.6-0.6,1.1c0,0.4,0.1,0.7,0.4,0.9S774.3,572.3,774.7,572.3L774.7,572.3z M781.6,572.3
		c0.4,0,0.7,0,1-0.1v0.5c-0.3,0.1-0.6,0.1-1,0.1c-0.6,0-1-0.2-1.2-0.5s-0.4-0.8-0.4-1.4v-4.1H779v-0.3l0.9-0.3l0.3-1.4h0.3v1.5h1.9
		v0.5h-1.9v4c0,0.5,0.1,0.8,0.3,1.1S781.2,572.3,781.6,572.3L781.6,572.3z M784.1,564.6c0-0.4,0.1-0.6,0.4-0.6c0.1,0,0.2,0,0.3,0.1
		s0.1,0.2,0.1,0.4c0,0.2,0,0.3-0.1,0.4s-0.2,0.2-0.3,0.2C784.2,565.1,784.1,564.9,784.1,564.6L784.1,564.6z M784.8,572.7h-0.6v-6.4
		h0.6V572.7z M788.6,572.7l-2.5-6.4h0.6l1.6,4.3c0.2,0.6,0.4,1,0.5,1.5h0c0.2-0.5,0.3-1,0.5-1.5l1.6-4.3h0.6l-2.5,6.4H788.6
		L788.6,572.7z M795.6,572.8c-0.9,0-1.6-0.3-2.2-0.9s-0.8-1.4-0.8-2.4c0-1,0.2-1.8,0.8-2.4s1.2-0.9,2-0.9c0.8,0,1.3,0.3,1.8,0.8
		s0.7,1.2,0.7,2.1v0.5h-4.6c0,0.9,0.2,1.5,0.6,2s1,0.7,1.7,0.7c0.4,0,0.7,0,1-0.1s0.6-0.2,1-0.3v0.5c-0.4,0.2-0.7,0.3-1,0.3
		S796,572.8,795.6,572.8L795.6,572.8z M795.4,566.7c-0.6,0-1.1,0.2-1.5,0.6s-0.6,1-0.7,1.8h3.9c0-0.7-0.2-1.3-0.5-1.7
		S796,566.7,795.4,566.7L795.4,566.7z M635.8,588.8c-1,0-1.7-0.4-2.1-1.1h0l0,0.5c0,0.3,0,0.6,0,1v2.4h-0.6v-9.3h0.5l0.1,0.9h0
		c0.4-0.7,1.1-1,2.1-1c0.9,0,1.5,0.3,2,0.8c0.5,0.6,0.7,1.4,0.7,2.5c0,1-0.2,1.9-0.7,2.4S636.6,588.8,635.8,588.8L635.8,588.8z
		 M635.8,588.3c0.6,0,1.2-0.2,1.5-0.7s0.5-1.2,0.5-2c0-1.9-0.7-2.8-2-2.8c-0.7,0-1.3,0.2-1.6,0.6c-0.3,0.4-0.5,1.1-0.5,2v0.2
		c0,1,0.2,1.7,0.5,2.1S635.1,588.3,635.8,588.3L635.8,588.3z M644.4,588.7l-0.1-1h0c-0.3,0.4-0.7,0.7-1,0.9s-0.7,0.3-1.2,0.3
		c-0.6,0-1.1-0.2-1.5-0.5s-0.5-0.8-0.5-1.3c0-0.6,0.3-1.1,0.8-1.4s1.3-0.5,2.2-0.5l1.2,0v-0.4c0-0.6-0.1-1.1-0.4-1.4
		s-0.6-0.5-1.2-0.5c-0.6,0-1.2,0.2-1.8,0.5l-0.2-0.5c0.7-0.3,1.4-0.5,2.1-0.5c0.7,0,1.2,0.2,1.6,0.5c0.3,0.4,0.5,0.9,0.5,1.7v4.2
		L644.4,588.7L644.4,588.7z M642.1,588.3c0.7,0,1.2-0.2,1.6-0.6c0.4-0.4,0.6-0.9,0.6-1.6v-0.6l-1.1,0c-0.9,0-1.5,0.2-1.9,0.4
		s-0.6,0.6-0.6,1.1c0,0.4,0.1,0.7,0.4,0.9C641.3,588.2,641.6,588.3,642.1,588.3L642.1,588.3z M649.7,582.2c0.3,0,0.6,0,0.9,0.1
		l-0.1,0.6c-0.3-0.1-0.5-0.1-0.8-0.1c-0.5,0-1,0.2-1.3,0.7c-0.3,0.5-0.5,1-0.5,1.7v3.5h-0.6v-6.4h0.5l0.1,1.2h0
		c0.3-0.5,0.5-0.8,0.8-1C648.9,582.3,649.3,582.2,649.7,582.2L649.7,582.2z M653.8,588.3c0.4,0,0.7,0,1-0.1v0.5
		c-0.3,0.1-0.6,0.1-1,0.1c-0.6,0-1-0.2-1.2-0.5s-0.4-0.8-0.4-1.4v-4.1h-0.9v-0.3l0.9-0.3l0.3-1.4h0.3v1.5h1.9v0.5h-1.9v4
		c0,0.5,0.1,0.8,0.3,1.1S653.5,588.3,653.8,588.3L653.8,588.3z M656.4,580.6c0-0.4,0.1-0.6,0.4-0.6c0.1,0,0.2,0,0.3,0.1
		s0.1,0.2,0.1,0.4c0,0.2,0,0.3-0.1,0.4s-0.2,0.2-0.3,0.2C656.5,581.1,656.4,580.9,656.4,580.6L656.4,580.6z M657.1,588.7h-0.6v-6.4
		h0.6V588.7z M662,588.8c-0.9,0-1.6-0.3-2.1-0.9s-0.8-1.4-0.8-2.4c0-1.1,0.3-1.9,0.8-2.5s1.3-0.9,2.2-0.9c0.5,0,1.1,0.1,1.6,0.3
		l-0.2,0.5c-0.6-0.2-1-0.3-1.4-0.3c-0.8,0-1.4,0.2-1.8,0.7s-0.6,1.2-0.6,2.1c0,0.9,0.2,1.5,0.6,2s1,0.7,1.7,0.7
		c0.6,0,1.1-0.1,1.6-0.3v0.5C663.2,588.7,662.7,588.8,662,588.8L662,588.8z M665.4,580.6c0-0.4,0.1-0.6,0.4-0.6c0.1,0,0.2,0,0.3,0.1
		s0.1,0.2,0.1,0.4c0,0.2,0,0.3-0.1,0.4s-0.2,0.2-0.3,0.2C665.5,581.1,665.4,580.9,665.4,580.6L665.4,580.6z M666.1,588.7h-0.6v-6.4
		h0.6V588.7z M671.2,588.8c-1,0-1.7-0.4-2.1-1.1h0l0,0.5c0,0.3,0,0.6,0,1v2.4h-0.6v-9.3h0.5l0.1,0.9h0c0.4-0.7,1.1-1,2.1-1
		c0.9,0,1.5,0.3,2,0.8s0.7,1.4,0.7,2.5c0,1-0.2,1.9-0.7,2.4S672.1,588.8,671.2,588.8L671.2,588.8z M671.2,588.3
		c0.7,0,1.2-0.2,1.5-0.7s0.5-1.2,0.5-2c0-1.9-0.7-2.8-2-2.8c-0.7,0-1.3,0.2-1.6,0.6s-0.5,1.1-0.5,2v0.2c0,1,0.2,1.7,0.5,2.1
		S670.5,588.3,671.2,588.3L671.2,588.3z M679.8,588.7l-0.1-1h0c-0.3,0.4-0.7,0.7-1,0.9s-0.7,0.3-1.2,0.3c-0.6,0-1.1-0.2-1.5-0.5
		s-0.5-0.8-0.5-1.3c0-0.6,0.3-1.1,0.8-1.4s1.3-0.5,2.2-0.5l1.2,0v-0.4c0-0.6-0.1-1.1-0.4-1.4s-0.6-0.5-1.2-0.5
		c-0.6,0-1.2,0.2-1.8,0.5l-0.2-0.5c0.7-0.3,1.4-0.5,2.1-0.5c0.7,0,1.2,0.2,1.6,0.5s0.5,0.9,0.5,1.7v4.2L679.8,588.7L679.8,588.7z
		 M677.5,588.3c0.7,0,1.2-0.2,1.6-0.6s0.6-0.9,0.6-1.6v-0.6l-1.1,0c-0.9,0-1.5,0.2-1.9,0.4s-0.6,0.6-0.6,1.1c0,0.4,0.1,0.7,0.4,0.9
		S677,588.3,677.5,588.3L677.5,588.3z M684.3,588.3c0.4,0,0.7,0,1-0.1v0.5c-0.3,0.1-0.6,0.1-1,0.1c-0.6,0-1-0.2-1.2-0.5
		s-0.4-0.8-0.4-1.4v-4.1h-0.9v-0.3l0.9-0.3l0.3-1.4h0.3v1.5h1.9v0.5h-1.9v4c0,0.5,0.1,0.8,0.3,1.1S683.9,588.3,684.3,588.3
		L684.3,588.3z M692.2,585.5c0,1-0.3,1.9-0.8,2.4s-1.2,0.9-2.1,0.9c-0.6,0-1-0.1-1.5-0.4s-0.8-0.7-1-1.2s-0.3-1.1-0.3-1.7
		c0-1,0.3-1.8,0.8-2.4s1.2-0.9,2.1-0.9c0.9,0,1.6,0.3,2.1,0.9S692.2,584.5,692.2,585.5L692.2,585.5z M687.2,585.5
		c0,0.9,0.2,1.6,0.6,2s0.9,0.7,1.6,0.7s1.2-0.2,1.6-0.7s0.6-1.2,0.6-2c0-0.9-0.2-1.6-0.6-2s-0.9-0.7-1.6-0.7s-1.2,0.2-1.6,0.7
		S687.2,584.6,687.2,585.5L687.2,585.5z M696.8,582.2c0.3,0,0.6,0,0.9,0.1l-0.1,0.6c-0.3-0.1-0.5-0.1-0.8-0.1c-0.5,0-1,0.2-1.3,0.7
		s-0.5,1-0.5,1.7v3.5h-0.6v-6.4h0.5l0.1,1.2h0c0.3-0.5,0.5-0.8,0.8-1S696.3,582.2,696.8,582.2L696.8,582.2z M698.2,582.3h0.6
		l1.3,3.6c0.4,1.1,0.7,1.8,0.8,2.2h0c0.2-0.5,0.4-1.3,0.8-2.3l1.3-3.5h0.6l-2.9,7.4c-0.2,0.6-0.4,1-0.6,1.2s-0.3,0.4-0.5,0.5
		s-0.5,0.2-0.8,0.2c-0.2,0-0.5,0-0.7-0.1V591c0.2,0.1,0.5,0.1,0.7,0.1c0.2,0,0.4,0,0.5-0.1s0.3-0.2,0.4-0.4s0.3-0.5,0.4-0.9
		s0.3-0.7,0.3-0.8L698.2,582.3L698.2,582.3z M710.1,588.3c0.4,0,0.7,0,1-0.1v0.5c-0.3,0.1-0.6,0.1-1,0.1c-0.6,0-1-0.2-1.2-0.5
		s-0.4-0.8-0.4-1.4v-4.1h-0.9v-0.3l0.9-0.3l0.3-1.4h0.3v1.5h1.9v0.5h-1.9v4c0,0.5,0.1,0.8,0.3,1.1S709.8,588.3,710.1,588.3
		L710.1,588.3z M718,585.5c0,1-0.2,1.9-0.8,2.4s-1.2,0.9-2.1,0.9c-0.6,0-1.1-0.1-1.5-0.4s-0.8-0.7-1-1.2s-0.3-1.1-0.3-1.7
		c0-1,0.3-1.8,0.8-2.4s1.2-0.9,2.1-0.9c0.9,0,1.6,0.3,2.1,0.9S718,584.5,718,585.5L718,585.5z M713,585.5c0,0.9,0.2,1.6,0.6,2
		s0.9,0.7,1.6,0.7s1.2-0.2,1.6-0.7s0.6-1.2,0.6-2c0-0.9-0.2-1.6-0.6-2s-0.9-0.7-1.6-0.7s-1.2,0.2-1.6,0.7S713,584.6,713,585.5
		L713,585.5z M725.4,585.5c0,1-0.3,1.9-0.8,2.4s-1.2,0.9-2.1,0.9c-0.6,0-1-0.1-1.5-0.4s-0.8-0.7-1-1.2s-0.3-1.1-0.3-1.7
		c0-1,0.3-1.8,0.8-2.4s1.2-0.9,2.1-0.9c0.9,0,1.6,0.3,2.1,0.9S725.4,584.5,725.4,585.5L725.4,585.5z M720.3,585.5
		c0,0.9,0.2,1.6,0.6,2s0.9,0.7,1.6,0.7s1.2-0.2,1.6-0.7s0.6-1.2,0.6-2c0-0.9-0.2-1.6-0.6-2s-0.9-0.7-1.6-0.7s-1.2,0.2-1.6,0.7
		S720.3,584.6,720.3,585.5L720.3,585.5z M728,588.7h-0.6v-9.1h0.6V588.7z M734.4,587c0,0.6-0.2,1-0.7,1.3s-1,0.5-1.8,0.5
		c-0.9,0-1.5-0.1-2-0.4v-0.6c0.6,0.3,1.3,0.5,2,0.5c0.6,0,1.1-0.1,1.4-0.3s0.5-0.5,0.5-0.8c0-0.3-0.1-0.6-0.4-0.8s-0.7-0.4-1.3-0.6
		c-0.6-0.2-1.1-0.4-1.3-0.6s-0.5-0.4-0.6-0.6s-0.2-0.5-0.2-0.8c0-0.5,0.2-0.9,0.6-1.1s1-0.4,1.7-0.4c0.7,0,1.3,0.1,2,0.4l-0.2,0.5
		c-0.6-0.3-1.2-0.4-1.7-0.4c-0.5,0-0.9,0.1-1.2,0.3s-0.5,0.4-0.5,0.7c0,0.3,0.1,0.6,0.4,0.8s0.7,0.4,1.4,0.7c0.6,0.2,1,0.4,1.3,0.6
		s0.5,0.4,0.6,0.6S734.4,586.8,734.4,587L734.4,587z M743.6,588.7l-0.1-1h0c-0.3,0.4-0.7,0.7-1,0.9s-0.7,0.3-1.2,0.3
		c-0.6,0-1.1-0.2-1.5-0.5s-0.5-0.8-0.5-1.3c0-0.6,0.3-1.1,0.8-1.4s1.3-0.5,2.2-0.5l1.2,0v-0.4c0-0.6-0.1-1.1-0.4-1.4
		s-0.6-0.5-1.2-0.5c-0.6,0-1.2,0.2-1.8,0.5l-0.2-0.5c0.7-0.3,1.4-0.5,2.1-0.5c0.7,0,1.2,0.2,1.6,0.5s0.5,0.9,0.5,1.7v4.2
		L743.6,588.7L743.6,588.7z M741.3,588.3c0.7,0,1.2-0.2,1.6-0.6s0.6-0.9,0.6-1.6v-0.6l-1.1,0c-0.9,0-1.5,0.2-1.9,0.4
		s-0.6,0.6-0.6,1.1c0,0.4,0.1,0.7,0.4,0.9S740.8,588.3,741.3,588.3L741.3,588.3z M750.9,588.7v-4.1c0-0.6-0.1-1.1-0.4-1.4
		s-0.7-0.4-1.3-0.4c-0.8,0-1.3,0.2-1.7,0.6s-0.5,1-0.5,1.9v3.5h-0.6v-6.4h0.5l0.1,0.9h0c0.4-0.7,1.2-1,2.2-1c1.4,0,2.2,0.8,2.2,2.3
		v4.2L750.9,588.7L750.9,588.7z M756.1,582.2c0.5,0,0.9,0.1,1.2,0.3s0.6,0.5,0.9,0.9h0c0-0.5,0-1,0-1.4v-2.3h0.6v9.1h-0.4l-0.1-1h0
		c-0.5,0.7-1.2,1.1-2.1,1.1c-0.9,0-1.5-0.3-2-0.8s-0.7-1.3-0.7-2.4c0-1.1,0.2-1.9,0.7-2.5S755.2,582.2,756.1,582.2L756.1,582.2z
		 M756.1,582.7c-0.7,0-1.2,0.2-1.6,0.7s-0.5,1.2-0.5,2.1c0,1.8,0.7,2.7,2.1,2.7c0.7,0,1.2-0.2,1.6-0.6s0.5-1.1,0.5-2.1v-0.1
		c0-1-0.2-1.7-0.5-2.1S756.9,582.7,756.1,582.7L756.1,582.7z M767.4,588.8c-1,0-1.7-0.4-2.1-1.1h0l0,0.5c0,0.3,0,0.6,0,1v2.4h-0.6
		v-9.3h0.5l0.1,0.9h0c0.4-0.7,1.1-1,2.1-1c0.9,0,1.5,0.3,2,0.8s0.7,1.4,0.7,2.5c0,1-0.2,1.9-0.7,2.4S768.2,588.8,767.4,588.8
		L767.4,588.8z M767.4,588.3c0.7,0,1.2-0.2,1.5-0.7s0.5-1.2,0.5-2c0-1.9-0.7-2.8-2-2.8c-0.7,0-1.3,0.2-1.6,0.6s-0.5,1.1-0.5,2v0.2
		c0,1,0.2,1.7,0.5,2.1S766.6,588.3,767.4,588.3L767.4,588.3z M774.6,582.2c0.3,0,0.6,0,0.9,0.1l-0.1,0.6c-0.3-0.1-0.5-0.1-0.8-0.1
		c-0.5,0-1,0.2-1.3,0.7s-0.5,1-0.5,1.7v3.5h-0.6v-6.4h0.5l0.1,1.2h0c0.3-0.5,0.5-0.8,0.8-1S774.2,582.2,774.6,582.2L774.6,582.2z
		 M782.3,585.5c0,1-0.2,1.9-0.8,2.4s-1.2,0.9-2.1,0.9c-0.6,0-1.1-0.1-1.5-0.4s-0.8-0.7-1-1.2s-0.3-1.1-0.3-1.7c0-1,0.3-1.8,0.8-2.4
		s1.2-0.9,2.1-0.9c0.9,0,1.6,0.3,2.1,0.9S782.3,584.5,782.3,585.5L782.3,585.5z M777.3,585.5c0,0.9,0.2,1.6,0.6,2s0.9,0.7,1.6,0.7
		s1.2-0.2,1.6-0.7s0.6-1.2,0.6-2c0-0.9-0.2-1.6-0.6-2s-0.9-0.7-1.6-0.7s-1.2,0.2-1.6,0.7S777.3,584.6,777.3,585.5L777.3,585.5z
		 M786.9,588.8c-0.9,0-1.6-0.3-2.1-0.9s-0.8-1.4-0.8-2.4c0-1.1,0.3-1.9,0.8-2.5s1.3-0.9,2.2-0.9c0.5,0,1.1,0.1,1.6,0.3l-0.2,0.5
		c-0.5-0.2-1-0.3-1.4-0.3c-0.8,0-1.4,0.2-1.8,0.7s-0.6,1.2-0.6,2.1c0,0.9,0.2,1.5,0.6,2s1,0.7,1.7,0.7c0.6,0,1.1-0.1,1.6-0.3v0.5
		C788.1,588.7,787.6,588.8,786.9,588.8L786.9,588.8z M793,588.8c-0.9,0-1.6-0.3-2.2-0.9s-0.8-1.4-0.8-2.4c0-1,0.2-1.8,0.8-2.4
		s1.2-0.9,2-0.9c0.8,0,1.3,0.3,1.8,0.8s0.7,1.2,0.7,2.1v0.5h-4.6c0,0.9,0.2,1.5,0.6,2s1,0.7,1.7,0.7c0.4,0,0.7,0,1-0.1
		s0.6-0.2,1-0.3v0.5c-0.4,0.2-0.7,0.3-1,0.3S793.3,588.8,793,588.8L793,588.8z M792.8,582.7c-0.6,0-1.1,0.2-1.5,0.6s-0.6,1-0.7,1.8
		h3.9c0-0.7-0.2-1.3-0.5-1.7S793.4,582.7,792.8,582.7L792.8,582.7z M801.2,587c0,0.6-0.2,1-0.7,1.3s-1,0.5-1.8,0.5
		c-0.9,0-1.5-0.1-2-0.4v-0.6c0.6,0.3,1.3,0.5,2,0.5c0.6,0,1.1-0.1,1.4-0.3s0.5-0.5,0.5-0.8c0-0.3-0.1-0.6-0.4-0.8s-0.7-0.4-1.3-0.6
		c-0.6-0.2-1.1-0.4-1.3-0.6s-0.5-0.4-0.6-0.6s-0.2-0.5-0.2-0.8c0-0.5,0.2-0.9,0.6-1.1s1-0.4,1.7-0.4c0.7,0,1.3,0.1,2,0.4l-0.2,0.5
		c-0.6-0.3-1.2-0.4-1.7-0.4c-0.5,0-0.9,0.1-1.2,0.3s-0.5,0.4-0.5,0.7c0,0.3,0.1,0.6,0.4,0.8s0.7,0.4,1.4,0.7c0.6,0.2,1,0.4,1.3,0.6
		s0.5,0.4,0.6,0.6S801.2,586.8,801.2,587L801.2,587z M807.1,587c0,0.6-0.2,1-0.7,1.3s-1,0.5-1.8,0.5c-0.9,0-1.5-0.1-2-0.4v-0.6
		c0.6,0.3,1.3,0.5,2,0.5c0.6,0,1.1-0.1,1.4-0.3s0.5-0.5,0.5-0.8c0-0.3-0.1-0.6-0.4-0.8s-0.7-0.4-1.3-0.6c-0.6-0.2-1.1-0.4-1.3-0.6
		s-0.5-0.4-0.6-0.6s-0.2-0.5-0.2-0.8c0-0.5,0.2-0.9,0.6-1.1s1-0.4,1.7-0.4c0.7,0,1.3,0.1,2,0.4l-0.2,0.5c-0.6-0.3-1.2-0.4-1.7-0.4
		c-0.5,0-0.9,0.1-1.2,0.3s-0.5,0.4-0.5,0.7c0,0.3,0.1,0.6,0.4,0.8s0.7,0.4,1.4,0.7c0.6,0.2,1,0.4,1.3,0.6s0.5,0.4,0.6,0.6
		S807.1,586.8,807.1,587L807.1,587z M811.6,588.8c-0.9,0-1.6-0.3-2.2-0.9s-0.8-1.4-0.8-2.4c0-1,0.2-1.8,0.8-2.4s1.2-0.9,2-0.9
		c0.8,0,1.3,0.3,1.8,0.8s0.7,1.2,0.7,2.1v0.5h-4.6c0,0.9,0.2,1.5,0.6,2s1,0.7,1.7,0.7c0.4,0,0.7,0,1-0.1s0.6-0.2,1-0.3v0.5
		c-0.4,0.2-0.7,0.3-1,0.3S812,588.8,811.6,588.8L811.6,588.8z M811.5,582.7c-0.6,0-1.1,0.2-1.5,0.6s-0.6,1-0.7,1.8h3.9
		c0-0.7-0.2-1.3-0.5-1.7S812,582.7,811.5,582.7L811.5,582.7z M819.9,587c0,0.6-0.2,1-0.7,1.3s-1,0.5-1.8,0.5c-0.9,0-1.5-0.1-2-0.4
		v-0.6c0.6,0.3,1.3,0.5,2,0.5c0.6,0,1.1-0.1,1.4-0.3s0.5-0.5,0.5-0.8c0-0.3-0.1-0.6-0.4-0.8s-0.7-0.4-1.3-0.6
		c-0.6-0.2-1.1-0.4-1.3-0.6s-0.5-0.4-0.6-0.6s-0.2-0.5-0.2-0.8c0-0.5,0.2-0.9,0.6-1.1s1-0.4,1.7-0.4c0.7,0,1.3,0.1,2,0.4l-0.2,0.5
		c-0.6-0.3-1.2-0.4-1.7-0.4c-0.5,0-0.9,0.1-1.2,0.3s-0.5,0.4-0.5,0.7c0,0.3,0.1,0.6,0.4,0.8s0.7,0.4,1.4,0.7c0.6,0.2,1,0.4,1.3,0.6
		s0.5,0.4,0.6,0.6S819.9,586.8,819.9,587L819.9,587z"/>
	<path class="st1" d="M565,217.5h24"/>
	<path class="st2" d="M586,220.9l1.6-3.7l-1.6-3.7l8.8,3.7L586,220.9z"/>
	<path class="st1" d="M597.8,319.9L567.4,356"/>
	<path class="st2" d="M566.3,351.5l1.8,3.6l3.8,1.2l-8.5,4.3L566.3,351.5z"/>
	<path class="st1" d="M565,460.5h24"/>
	<path class="st2" d="M586,463.9l1.6-3.7l-1.6-3.7l8.8,3.7L586,463.9z"/>
	<path class="st3" d="M449.6,254.4c-22.8,4.2-44.7-11-48.9-33.8c-3.9-21.6,10.4-42.2,31.9-46.2c20.4-3.7,39.9,9.8,43.6,30.1v0l9-1.9
		C489.8,226.9,473.8,250,449.6,254.4L449.6,254.4z"/>
	<g>
		<path class="st4" d="M484.1,193.2c0.2,0.6,0.5,1.2,0.7,1.9l0,0l1.9-0.7"/>
		<path class="st5" d="M489,193.5l4.3-1.6"/>
		<path class="st4" d="M494.5,191.5l1.9-0.7c0.2,0.6,0.4,1.3,0.6,1.9"/>
		<path class="st6" d="M497.7,195.5c7.4,29.5-9,60.2-38.3,70.1c-29.2,9.9-60.9-5.7-70.8-34.8c-9.4-27.6,5.4-57.5,32.9-66.9
			c24.9-8.5,51.9,3.9,62,27.8"/>
	</g>
	<path class="st7" d="M473.9,275.3c-35.1,18.3-78.4,4.7-96.6-30.4c-17.3-33.1-4.4-74,28.7-91.3c31.3-16.3,70-4.2,86.3,27.1l0,0
		L506,173C525.4,210.1,511,255.9,473.9,275.3L473.9,275.3z"/>
	<g>
		<path class="st8" d="M497.6,154.7c0.9,1,1.7,2,2.6,3.1v0l3.1-2.6 M512.9,146.9l3-2.6c0.8,1,1.6,2.1,2.4,3.2"/>
		<path class="st9" d="M524.5,156.8c24.2,41.9,14.9,96.3-24,127.5c-40.6,32.5-99.8,25.9-132.2-14.6c-30.7-38.3-24.5-94.3,13.9-125
			c33.7-27,81.8-23.8,111.7,6"/>
	</g>
	<circle class="st10" cx="440.1" cy="214.7" r="10.5"/>
	<path class="st3" d="M743.4,281.3c-37.8,6.9-74.1-18.2-80.9-55.9c-6.5-35.7,17.2-70,52.9-76.5c33.8-6.2,66.1,16.2,72.3,50v0l15-3.2
		C810,235.7,783.4,274,743.4,281.3L743.4,281.3z"/>
	<circle class="st11" cx="808.8" cy="247.8" r="6.9"/>
	<circle class="st12" cx="757.9" cy="247.7" r="6.9"/>
	<circle class="st13" cx="673.1" cy="273.5" r="6.9"/>
	<path class="st11" d="M662.1,215c-3.6-1.2-5.6-5.1-4.5-8.7c1.2-3.6,5.1-5.6,8.7-4.4c3.6,1.2,5.6,5.1,4.5,8.7
		C669.7,214.2,665.8,216.2,662.1,215L662.1,215z"/>
	<circle class="st11" cx="807.5" cy="171.7" r="6.9"/>
	<circle class="st12" cx="694.5" cy="199.4" r="6.9"/>
	<circle class="st14" cx="729" cy="264.4" r="6.9"/>
	<circle class="st14" cx="799.1" cy="284.6" r="6.9"/>
	<circle class="st10" cx="630.7" cy="233.8" r="6.9"/>
	<circle class="st15" cx="660.2" cy="163" r="6.9"/>
	<path class="st16" d="M798.5,284.8L784,272.5"/>
	<path class="st14" d="M789.2,271.6l0,1l-4.9,0.2l0.6,4.9l-1,0.1l-0.7-6L789.2,271.6z"/>
	<path class="st17" d="M810.2,169.5l-14.6,12.1"/>
	<path class="st11" d="M795.5,176.3l1,0.1l-0.6,4.9l4.9,0.3l-0.1,1l-6-0.3L795.5,176.3z"/>
	<path class="st17" d="M807.8,246.4l-18.5-4.1"/>
	<path class="st11" d="M793.4,239l0.5,0.9l-4.3,2.5l2.8,4.1l-0.8,0.6l-3.4-4.9L793.4,239z"/>
	<path class="st18" d="M628,234.4l18.2-5.2"/>
	<path class="st10" d="M644.2,234.1l-0.9-0.5l2.6-4.2l-4.4-2.2l0.5-0.9l5.3,2.7L644.2,234.1z"/>
	<path class="st19" d="M659.8,162.4l16.2,9.9"/>
	<path class="st15" d="M671,174.1l-0.2-1l4.8-1l-1.3-4.8l1-0.3l1.6,5.8L671,174.1z"/>
	<path class="st20" d="M672.4,274.9l13.2-13.6"/>
	<path class="st13" d="M686.2,266.6l-1,0l0.1-4.9l-4.9,0.2l0-1l6-0.3L686.2,266.6z"/>
	<path class="st21" d="M670.4,206.9l17.7-5.5 M700.9,177.7L696,193 M700.3,204.1l17.8,10.4 M719.3,223l-13.5,11.6 M732.2,215.1
		l19.6-3.7 M751.8,211.4l2.5-0.6 M732.8,171l-8,39.2 M725,210.5h1 M725.4,163.6l-18.4,4.3 M738.9,166.7l9.8,9.2 M757.3,184.5
		l1.8,17.8 M764.6,210.2l21.4,8.6 M764.6,243.9l21.4-17.8 M757.9,240.8l1.8-25.1 M752.4,251.8l-16.5,8.6 M702.2,246.3l20.2,14.7
		 M685,261.6l12.2-16.5 M693.6,234.7l-23.3-20.8 M669.7,213.2l1.2-0.6 M794.6,182l-29.4,22.7 M727.9,221.8l1.2,0.6 M730.3,223
		l22,20.8"/>
	<circle class="st10" cx="725.7" cy="217.5" r="6.9"/>
	<circle class="st15" cx="790.6" cy="220" r="6.9"/>
	<circle class="st14" cx="700.5" cy="171.7" r="6.9"/>
	<circle class="st10" cx="733" cy="165.1" r="6.9"/>
	<circle class="st13" cx="755.6" cy="178.8" r="6.9"/>
	<circle class="st11" cx="758.8" cy="209" r="6.9"/>
	<circle class="st15" cx="699.7" cy="239.3" r="6.9"/>
	<path class="st21" d="M784.2,272l-21.4-18.4"/>
	<path class="st3" d="M739.8,516.6c-33.4,6.1-65.3-16-71.4-49.4c-5.8-31.5,15.2-61.8,46.7-67.5c29.8-5.4,58.4,14.3,63.8,44.1v0
		L792,441C798.5,476.3,775.1,510.2,739.8,516.6L739.8,516.6z"/>
	<path class="st22" d="M730.4,433.9"/>
	<path class="st23" d="M718.5,459.9l-0.7-0.7l3.6-3.4l-3.6-3.4l0.7-0.7l4.4,4.1L718.5,459.9z M720.1,468.2l-0.3-1l4.7-1.4l-1.7-4.6
		l0.9-0.4l2.1,5.6L720.1,468.2z"/>
	<path class="st22" d="M727,467"/>
	<path class="st10" d="M721,456.3c3.2-1,6.7,0.7,7.7,3.9c1,3.2-0.7,6.7-3.9,7.7c-3.2,1-6.7-0.7-7.7-3.9
		C716,460.8,717.7,457.4,721,456.3L721,456.3z"/>
	<path class="st19" d="M663.9,513.4l43.6-63.5"/>
	<path class="st24" d="M671.6,512.8l-0.3-1.4l-7,1.6l-1.1-7.1l-1.4,0.2l1.3,8.7L671.6,512.8z M709.7,457.2l-1.4,0.2l-1.1-7.1l-7,1.6
		l-0.3-1.4l8.5-1.9L709.7,457.2z"/>
	<path class="st17" d="M645.6,474.5l69.5-33.2"/>
	<path class="st25" d="M652.5,477.8l0.4-1.4l-6.9-2.1l2.6-6.7l-1.4-0.5l-3.2,8.1L652.5,477.8z M713.3,448.8l-1.4-0.5l2.6-6.7
		l-6.9-2.1l0.4-1.4l8.3,2.6L713.3,448.8z"/>
	<path class="st26" d="M649.5,432l75.8,5.9"/>
	<path class="st27" d="M653.5,438.1l1.1-1l-4.9-5.3l5.6-4.5l-0.9-1.1l-6.9,5.4L653.5,438.1z M720.7,443.3l-0.9-1.1l5.6-4.5l-4.9-5.3
		l1.1-1l5.9,6.4L720.7,443.3z"/>
	<path class="st28" d="M673.6,396.4l63.5,43.6"/>
	<path class="st29" d="M674.2,404.1l1.4-0.3l-1.6-7l7.1-1.1l-0.2-1.4l-8.7,1.3L674.2,404.1z M729.8,442.2l-0.2-1.4l7.1-1.1l-1.6-7
		l1.4-0.3l1.9,8.5L729.8,442.2z"/>
	<path class="st16" d="M712.5,378.1l33.2,69.5"/>
	<path class="st30" d="M709.2,385l1.4,0.4l2.2-6.9l6.7,2.6l0.5-1.4l-8.1-3.2L709.2,385z M738.2,445.8l0.5-1.4l6.7,2.6l2.2-6.9
		l1.4,0.4l-2.6,8.4L738.2,445.8z"/>
	<path class="st20" d="M755.6,381.5l-6,76.8"/>
	<path class="st31" d="M749,386l1,1.1l5.3-4.9l4.5,5.6l1.1-0.9l-5.4-6.9L749,386z M743.7,453.2l1.1-0.9l4.5,5.6l5.3-4.9l1,1.1
		l-6.4,5.9L743.7,453.2z"/>
	<path class="st19" d="M790.6,406.1L747,469.7"/>
	<path class="st24" d="M782.9,406.8l0.3,1.4l7-1.6l1.1,7.1l1.4-0.2l-1.3-8.7L782.9,406.8z M744.8,462.3l1.4-0.2l1.1,7.1l7-1.6
		l0.3,1.4l-8.5,1.9L744.8,462.3z"/>
	<path class="st17" d="M808.9,445l-69.5,33.2"/>
	<path class="st25" d="M802,441.7l-0.4,1.4l6.9,2.1l-2.6,6.7l1.4,0.5l3.2-8.1L802,441.7z M741.2,470.7l1.4,0.5l-2.6,6.7l6.9,2.1
		l-0.4,1.4l-8.4-2.6L741.2,470.7z"/>
	<path class="st26" d="M805,488.6l-75.8-5.9"/>
	<path class="st27" d="M801,481.5l-1.1,1l4.9,5.3l-5.6,4.5l0.9,1.1l6.9-5.4L801,481.5z"/>
	<path class="st13" d="M733.8,476.2l0.9,1.1l-5.6,4.5l4.9,5.3l-1.1,1l-5.9-6.4L733.8,476.2z"/>
	<path class="st28" d="M780.9,523.1l-63.5-43.6"/>
	<path class="st29" d="M780.3,515.4l-1.4,0.3l1.6,7l-7.1,1.1l0.2,1.4l8.7-1.3L780.3,515.4z M724.7,477.3l0.2,1.4l-7.1,1.1l1.6,7
		l-1.4,0.3l-1.9-8.5L724.7,477.3z"/>
	<path class="st16" d="M742,541.4l-33.2-69.5"/>
	<path class="st30" d="M745.3,534.5l-1.4-0.4l-2.1,6.9l-6.7-2.6l-0.5,1.4l8.1,3.2L745.3,534.5z"/>
	<path class="st13" d="M716.3,473.7l-0.5,1.4l-6.7-2.6l-2.2,6.9l-1.4-0.4l2.6-8.4L716.3,473.7z"/>
	<path class="st20" d="M698.9,538l6-76.8"/>
	<path class="st31" d="M705.5,533.5l-1-1.1l-5.3,4.9l-4.5-5.6l-1.1,0.9l5.4,6.9L705.5,533.5z M710.8,466.3l-1.1,0.9l-4.5-5.6
		l-5.3,4.9l-1-1.1l6.4-5.9L710.8,466.3z"/>
	<g>
		<defs>
			<rect id="SVGID_1_" x="694.6" y="427.7" width="65.8" height="62.2"/>
		</defs>
		<clipPath id="SVGID_2_">
			<use xlink:href="#SVGID_1_"  style="overflow:visible;"/>
		</clipPath>
		<path class="st32" d="M732.5,489.3c-17.5,3.2-34.2-8.4-37.4-25.9c-3-16.5,7.9-32.3,24.4-35.3c15.6-2.8,30.6,7.5,33.4,23.1l6.9-1.5
			C763.3,468.2,751,486,732.5,489.3L732.5,489.3z"/>
	</g>
	<path class="st3" d="M705.3,456.8c0.1-0.5,0.2-0.9,0.3-1.3c0.1-0.4,0.3-0.7,0.5-1c0.2-0.3,0.5-0.4,0.7-0.5c0.3-0.1,0.5,0,0.7,0.2
		c0.2,0.2,0.3,0.4,0.4,0.8c0.1,0.4,0.1,0.7,0,1c-0.1,0.3-0.3,0.6-0.5,0.9c-0.2,0.3-0.5,0.5-0.9,0.7c-0.3,0.2-0.7,0.3-1.2,0.4l-0.2,0
		C705.3,457.7,705.3,457.3,705.3,456.8L705.3,456.8z M704.5,462.7c0.4,0.2,0.9,0.4,1.4,0.4s1,0,1.5-0.1c0.6-0.1,1.1-0.3,1.5-0.5
		c0.4-0.2,0.7-0.5,1-0.7c0.2-0.3,0.4-0.5,0.5-0.8c0.1-0.3,0.1-0.5,0.1-0.7c0-0.1-0.1-0.3-0.1-0.4s-0.1-0.2-0.2-0.3
		c-0.1,0.2-0.2,0.4-0.3,0.6c-0.1,0.2-0.3,0.4-0.5,0.6c-0.2,0.2-0.4,0.3-0.6,0.5s-0.5,0.2-0.8,0.3c-0.6,0.1-1.1,0.1-1.5-0.2
		c-0.4-0.3-0.7-0.8-0.8-1.5c0-0.1,0-0.2-0.1-0.3c0-0.1,0-0.2,0-0.4c0.1,0,0.2,0,0.3-0.1l0.3-0.1c0.7-0.2,1.4-0.4,2-0.7
		s1.1-0.7,1.5-1.1c0.4-0.4,0.7-0.9,0.8-1.4c0.2-0.5,0.2-1,0.1-1.4c-0.1-0.6-0.5-1.1-1-1.4s-1.2-0.3-2-0.1c-0.6,0.1-1.2,0.4-1.7,0.6
		c-0.5,0.3-0.9,0.6-1.3,1c-0.4,0.4-0.7,0.8-0.9,1.3c-0.2,0.5-0.4,1-0.6,1.5c-0.1,0.5-0.2,1-0.2,1.5c0,0.5,0,1,0.1,1.4
		c0.1,0.6,0.3,1.1,0.6,1.5C703.7,462.2,704.1,462.5,704.5,462.7L704.5,462.7z M718.8,467.8c0,0.4-0.1,0.8-0.2,1.2
		c-0.1,0.4-0.2,0.8-0.4,1.1c-0.2,0.3-0.4,0.6-0.6,0.8c-0.2,0.2-0.5,0.4-0.8,0.4c-0.1,0-0.3,0-0.4,0c-0.1,0-0.3,0-0.4,0
		c-0.1,0-0.2-0.1-0.3-0.1c-0.1,0-0.2-0.1-0.3-0.1l0-3.3c0-2.7,1.4-4,1.9-4.1c0.2,0,0.3,0,0.5,0.1s0.3,0.2,0.4,0.4
		c0.1,0.2,0.2,0.4,0.3,0.6c0.1,0.2,0.1,0.4,0.2,0.7c0.1,0.3,0.1,0.7,0.1,1.1C718.8,467,718.8,467.4,718.8,467.8L718.8,467.8z
		 M720.8,463.5c-0.2-0.4-0.4-0.7-0.7-0.9c-0.3-0.2-0.6-0.4-0.9-0.4c-0.3-0.1-0.7-0.1-1.1,0c-0.4,0.1-0.8,0.2-1.1,0.4
		c-0.3,0.2-0.5,0.4-0.8,0.7s-0.4,0.6-0.5,0.9c-0.1,0.4-0.3,0.7-0.4,1.1l-0.1-2.4l-3.8,0.8v1l0.4-0.1c0.2,0,0.3-0.1,0.4-0.1
		s0.2,0,0.3,0c0.1,0,0.2,0.1,0.2,0.2c0.1,0.1,0.1,0.2,0.1,0.4c0,0,0,0.1,0,0.1c0,0.1,0,0.1,0,0.2l0,0.2c0,0.1,0,0.2,0,0.2v11.1
		l3.7-0.8v-0.8c0,0-0.3,0.1-0.4,0.1c-0.1,0-0.2,0-0.3,0c-0.1,0-0.2-0.1-0.2-0.2c-0.1-0.1-0.1-0.2-0.1-0.4c0,0,0-0.1,0-0.1
		c0-0.1,0-0.1,0-0.2s0-0.1,0-0.2c0-0.1,0-0.2,0-0.2v-1.7c0.3,0.1,0.5,0.1,0.8,0.1c0.3,0,0.7,0,1-0.1c0.6-0.1,1.1-0.4,1.6-0.7
		c0.5-0.3,0.8-0.7,1.2-1.1s0.6-0.9,0.8-1.4c0.2-0.5,0.4-1,0.4-1.6c0.1-0.5,0.1-1,0.1-1.6c0-0.5,0-1-0.1-1.4
		C721.2,464.3,721,463.9,720.8,463.5L720.8,463.5z M742.2,461.8c0,0.5,0,1-0.1,1.5s-0.2,1-0.4,1.4c-0.2,0.4-0.4,0.8-0.6,1
		c-0.2,0.3-0.5,0.4-0.7,0.5c-0.1,0-0.3,0-0.4,0c-0.1,0-0.2-0.1-0.4-0.2c-0.1-0.1-0.2-0.3-0.3-0.5c-0.1-0.2-0.2-0.5-0.2-0.8
		c-0.1-0.3-0.1-0.7-0.1-1.1s0-0.8,0-1.3c0-0.4,0.1-0.9,0.2-1.3c0.1-0.4,0.2-0.8,0.4-1.1c0.2-0.3,0.4-0.6,0.6-0.9s0.5-0.4,0.9-0.5
		c0.2,0,0.4-0.1,0.7,0s0.4,0.1,0.5,0.3L742.2,461.8L742.2,461.8z M746.2,464.8c-0.1,0.1-0.3,0.2-0.5,0.2c-0.2,0-0.3,0-0.5-0.1
		c-0.1-0.1-0.2-0.3-0.3-0.6c0-0.1,0-0.3-0.1-0.4c0-0.2,0-0.4,0-0.5c0-0.2,0-0.4,0-0.5c0-0.2,0-0.3,0-0.4v-5.7c0,0-1,0.1-1.8,0.8
		c0,0-0.3-0.1-0.5-0.1c-0.2,0-0.4-0.1-0.6-0.1c-0.2,0-0.5,0-0.7,0c-0.2,0-0.5,0-0.7,0.1c-0.6,0.1-1.1,0.3-1.6,0.6
		c-0.5,0.3-0.9,0.7-1.2,1.1s-0.6,0.9-0.8,1.4c-0.2,0.5-0.4,1-0.5,1.5c-0.1,0.5-0.2,1.1-0.2,1.6c0,0.5,0,1,0.1,1.5
		c0.1,0.5,0.2,0.9,0.4,1.2c0.2,0.4,0.4,0.7,0.7,0.9c0.3,0.2,0.6,0.4,0.9,0.5c0.3,0.1,0.7,0.1,1.1,0c0.4-0.1,0.8-0.2,1.1-0.4
		c0.3-0.2,0.5-0.4,0.8-0.7c0.8-1,1.1-2.2,1.1-2.2s0,0.4,0.1,0.6c0,0.2,0,0.4,0.1,0.5c0.1,0.5,0.3,0.8,0.7,0.9s0.8,0.2,1.3,0.1
		c0.3-0.1,0.6-0.2,0.8-0.3c0.3-0.1,0.5-0.3,0.7-0.4c0.2-0.1,0.4-0.3,0.6-0.5c0.2-0.2,0.3-0.3,0.4-0.5l-0.5-0.6
		C746.5,464.6,746.3,464.7,746.2,464.8L746.2,464.8z M723.5,459c0.1,0.1,0.2,0.2,0.4,0.3c0.1,0.1,0.3,0.1,0.5,0.1s0.4,0,0.5,0
		c0.2,0,0.4-0.1,0.6-0.2c0.2-0.1,0.3-0.2,0.5-0.4c0.1-0.1,0.2-0.3,0.3-0.5c0.1-0.2,0.1-0.4,0-0.7c0-0.2-0.1-0.4-0.2-0.5
		c-0.1-0.1-0.2-0.2-0.4-0.3c-0.1-0.1-0.3-0.1-0.5-0.1c-0.2,0-0.4,0-0.5,0c-0.2,0-0.4,0.1-0.6,0.2c-0.2,0.1-0.3,0.2-0.5,0.4
		c-0.1,0.1-0.2,0.3-0.3,0.5s0,0.4,0,0.7C723.3,458.7,723.4,458.9,723.5,459L723.5,459z M710.6,469.8c-0.1-0.2-0.3-0.5-0.6-0.6
		c-0.2-0.2-0.5-0.3-0.8-0.5c-0.3-0.1-0.7-0.2-1.1-0.3c-0.4-0.1-0.7-0.2-1-0.2c-0.3-0.1-0.5-0.1-0.7-0.2s-0.3-0.2-0.4-0.3
		c-0.1-0.1-0.2-0.3-0.2-0.5c0-0.2,0-0.3,0-0.5c0-0.2,0.1-0.3,0.2-0.5c0.1-0.1,0.2-0.3,0.4-0.4c0.2-0.1,0.4-0.2,0.6-0.2
		c0.2-0.1,0.5,0,0.7,0s0.4,0.2,0.5,0.4c0.1,0.2,0.3,0.4,0.4,0.6c0.1,0.2,0.2,0.5,0.2,0.7c0.6-0.1,1.1-0.3,1.4-0.6s0.4-0.7,0.3-1.1
		c0-0.2-0.1-0.4-0.3-0.6c-0.2-0.2-0.4-0.3-0.7-0.4s-0.6-0.1-1.1-0.2c-0.4,0-0.9,0.1-1.5,0.2c-0.6,0.1-1.1,0.3-1.6,0.5
		c-0.5,0.2-0.8,0.5-1.1,0.8c-0.3,0.3-0.5,0.7-0.6,1c-0.1,0.4-0.1,0.8,0,1.2c0.1,0.3,0.2,0.6,0.3,0.9s0.4,0.5,0.6,0.6
		c0.2,0.2,0.5,0.3,0.8,0.5c0.3,0.1,0.7,0.2,1,0.3c0.4,0.1,0.7,0.2,1,0.3c0.3,0.1,0.5,0.2,0.7,0.3c0.2,0.1,0.3,0.2,0.4,0.4
		c0.1,0.1,0.2,0.3,0.2,0.5c0,0.2,0,0.4,0,0.6s-0.1,0.3-0.3,0.5c-0.1,0.1-0.3,0.3-0.5,0.4c-0.2,0.1-0.4,0.2-0.6,0.2
		c-0.3,0.1-0.6,0.1-0.8,0c-0.2-0.1-0.5-0.2-0.6-0.4c-0.2-0.2-0.3-0.4-0.5-0.7c-0.1-0.3-0.2-0.6-0.3-0.9c-0.2,0-0.5,0.1-0.7,0.2
		s-0.4,0.2-0.5,0.4c-0.1,0.2-0.3,0.3-0.3,0.5s-0.1,0.5,0,0.7c0.1,0.3,0.2,0.6,0.4,0.8c0.2,0.2,0.5,0.4,0.8,0.5
		c0.3,0.1,0.7,0.2,1.1,0.2c0.4,0,0.9-0.1,1.4-0.2c0.7-0.1,1.3-0.4,1.8-0.6c0.5-0.2,0.9-0.5,1.2-0.9c0.3-0.3,0.5-0.7,0.6-1.1
		c0.1-0.4,0.1-0.9,0-1.3C710.9,470.4,710.7,470.1,710.6,469.8L710.6,469.8z M722.6,459.1l-0.4-0.7c-0.1,0-0.1,0.1-0.2,0.1
		c-0.1,0.1-0.3,0.2-0.5,0.2c-0.2,0-0.4,0-0.5-0.1c-0.1-0.1-0.3-0.3-0.3-0.6c0-0.2-0.1-0.5-0.1-0.8c0-0.3,0-0.6,0-0.9v-2
		c0-0.2,0-0.3,0-0.5c0-0.2,0-0.4,0-0.5c0-0.2,0-0.4,0-0.5c0-0.2,0-0.3-0.1-0.5c-0.1-0.3-0.1-0.5-0.3-0.7c-0.1-0.2-0.3-0.4-0.5-0.6
		c-0.2-0.1-0.4-0.3-0.7-0.3s-0.6,0-1,0c-0.4,0.1-0.7,0.2-1,0.3c-1.4,0.7-2,2.4-2,2.4l-0.1-1.9l-4,0.8v1l0.4-0.1
		c0.2,0,0.3-0.1,0.4-0.1c0.1,0,0.2,0,0.3,0c0.1,0,0.2,0.1,0.2,0.2c0.1,0.1,0.1,0.2,0.1,0.4c0,0,0,0.1,0,0.1c0,0.1,0,0.1,0,0.2
		c0,0.1,0,0.1,0,0.2c0,0.1,0,0.2,0,0.2l0,7.3l2.6-0.6v-4.3c0-2.6,1-3.9,1.3-4.1c0.2-0.2,0.3-0.3,0.5-0.3c0.2,0,0.3,0,0.4,0
		c0.1,0,0.2,0.1,0.3,0.2c0.1,0.1,0.1,0.2,0.2,0.3c0,0.1,0.1,0.2,0.1,0.3c0,0.1,0,0.3,0.1,0.5c0,0.2,0,0.4,0,0.6l0,0.5
		c0,0.2,0,0.3,0,0.4l0,1.4c0,0.9,0.1,1.6,0.2,2.1c0.1,0.6,0.4,1,0.8,1.2c0.4,0.2,1,0.3,1.6,0.1c0.3-0.1,0.6-0.2,0.9-0.3
		c0.3-0.1,0.5-0.3,0.7-0.4C722.3,459.4,722.5,459.2,722.6,459.1L722.6,459.1z M727.4,468.8c-0.1,0.1-0.3,0.2-0.5,0.2
		c-0.2,0-0.4,0-0.5-0.1c-0.1-0.1-0.2-0.3-0.3-0.6c-0.1-0.2-0.1-0.5-0.1-0.8c0-0.3,0-0.6,0-0.9l0-5.9l-4.1,0.9v1l0.4-0.1
		c0.2,0,0.3-0.1,0.4-0.1c0.1,0,0.2,0,0.3,0c0.1,0,0.2,0.1,0.2,0.2c0.1,0.1,0.1,0.2,0.1,0.4c0,0,0,0.1,0,0.1c0,0.1,0,0.1,0,0.2l0,0.2
		c0,0.1,0,0.2,0,0.2l0,3.4c0,0.5,0,0.9,0,1.2c0,0.4,0.1,0.7,0.1,0.9c0.1,0.6,0.4,1,0.8,1.2c0.4,0.2,1,0.3,1.6,0.1
		c0.3-0.1,0.6-0.2,0.8-0.3c0.2-0.1,0.5-0.3,0.7-0.4c0.2-0.2,0.4-0.3,0.5-0.5c0.1-0.2,0.3-0.4,0.4-0.5l-0.5-0.5
		C727.7,468.5,727.5,468.7,727.4,468.8L727.4,468.8z M736.3,459.6c-0.5-1.4-2.6-1.5-3.8,0.2c-0.8,1.2-0.8,2.2-0.8,2.2l-0.1-2.5
		l-3.9,0.8l0,1l0.3-0.1c0.3-0.1,0.6-0.1,0.7,0c0.2,0.1,0.3,0.2,0.3,0.4c0,0.1,0,0.3,0,0.4c0,0.2,0,0.3,0,0.4v7.3l2.6-0.6l0-3.2
		c0-2.9,0.5-5.4,1.8-5.7c1-0.2,1.2,1.5,1.2,1.5C736.3,461.6,736.5,460.2,736.3,459.6L736.3,459.6z M751.9,463.3
		c-0.2,0.2-0.3,0.3-0.5,0.4c-0.1,0.1-0.3,0.2-0.5,0.2c-0.2,0-0.4,0-0.5-0.1c-0.1-0.1-0.2-0.3-0.3-0.6c0-0.2-0.1-0.5-0.1-0.8
		c0-0.3,0-0.6,0-0.9v-9.7l-4.1,0.9v1l0.4-0.1c0.2,0,0.3-0.1,0.4-0.1s0.2,0,0.3,0c0.1,0,0.2,0.1,0.2,0.2c0.1,0.1,0.1,0.2,0.1,0.4
		c0,0,0,0.1,0,0.1c0,0,0,0.1,0,0.2c0,0.1,0,0.1,0,0.2c0,0.1,0,0.2,0,0.2l0,7.1c0,0.9,0.1,1.6,0.2,2.1c0.1,0.6,0.4,1,0.8,1.2
		c0.4,0.2,1,0.3,1.6,0.1c0.3-0.1,0.6-0.2,0.9-0.3c0.2-0.1,0.5-0.3,0.7-0.4c0.2-0.2,0.4-0.3,0.5-0.5c0.1-0.2,0.3-0.4,0.4-0.5
		L751.9,463.3L751.9,463.3z M454.9,536.4c-40.7,7.4-79.8-19.6-87.2-60.3c-7-38.5,18.5-75.4,57-82.4c36.4-6.6,71.3,17.5,77.9,53.8v0
		l16.1-3.4C526.5,487.3,498,528.6,454.9,536.4L454.9,536.4z"/>
	<path class="st33" d="M497.8,491.6c0,11.3-9.2,20.5-20.5,20.5c-11.3,0-20.5-9.2-20.5-20.5c0-11.3,9.2-20.5,20.5-20.5
		C488.6,471.1,497.8,480.3,497.8,491.6L497.8,491.6z"/>
	<path class="st34" d="M445.5,507.3c0,11-8.9,19.9-19.9,19.9c-11,0-19.9-8.9-19.9-19.9c0-11,8.9-19.9,19.9-19.9
		C436.6,487.4,445.5,496.3,445.5,507.3L445.5,507.3z"/>
	<path class="st15" d="M474.8,486.5c0,3.6-2.9,6.6-6.6,6.6c-3.6,0-6.6-2.9-6.6-6.6s2.9-6.6,6.6-6.6
		C471.9,479.9,474.8,482.8,474.8,486.5L474.8,486.5z M491.1,482.6c0,3.6-2.9,6.6-6.6,6.6c-3.6,0-6.6-2.9-6.6-6.6
		c0-3.6,2.9-6.6,6.6-6.6C488.2,476.1,491.1,479,491.1,482.6z M484.3,502.3c-0.8,3.5-4.3,5.8-7.8,5c-3.5-0.8-5.8-4.3-5-7.8
		c0.8-3.5,4.3-5.8,7.8-5C482.8,495.3,485,498.8,484.3,502.3L484.3,502.3z"/>
	<path class="st35" d="M410.1,483.7c-8.9,7-21.8,5.5-28.8-3.5c-7-8.9-5.5-21.8,3.5-28.8c8.9-7,21.8-5.5,28.8,3.5
		C420.6,463.8,419,476.7,410.1,483.7L410.1,483.7z"/>
	<path class="st12" d="M399.9,462.4c-2.9,2.2-7,1.7-9.2-1.1c-2.2-2.9-1.7-7,1.1-9.2c2.8-2.2,7-1.7,9.2,1.1
		C403.3,456.1,402.8,460.2,399.9,462.4L399.9,462.4z"/>
	<circle class="st12" cx="409" cy="467.8" r="6.6"/>
	<path class="st12" d="M393.3,479.7c-3.3,1.6-7.2,0.2-8.8-3.1c-1.6-3.3-0.2-7.2,3.1-8.8c3.3-1.6,7.2-0.2,8.8,3.1
		C397.9,474.2,396.6,478.1,393.3,479.7z"/>
	<circle class="st36" cx="460.9" cy="428.1" r="20.5"/>
	<circle class="st14" cx="451.4" cy="432.2" r="6.6"/>
	<path class="st14" d="M462.1,411.6c2.9,2.2,3.5,6.3,1.3,9.2c-2.2,2.9-6.3,3.5-9.2,1.3c-2.9-2.2-3.5-6.3-1.3-9.2
		C455.1,410,459.2,409.4,462.1,411.6L462.1,411.6z"/>
	<circle class="st14" cx="468.7" cy="433.2" r="6.6"/>
	<path class="st11" d="M430.4,501.4c-0.8,3.5-4.3,5.8-7.8,5c-3.5-0.8-5.8-4.3-5-7.8c0.8-3.5,4.3-5.8,7.8-5
		C428.9,494.3,431.2,497.8,430.4,501.4L430.4,501.4z"/>
	<circle class="st37" cx="417.9" cy="418.5" r="13.8"/>
	<circle class="st13" cx="416.3" cy="417.2" r="6.6"/>
	<path class="st23" d="M395.3,434c-0.8,3.5-4.3,5.8-7.8,5c-3.5-0.8-5.8-4.3-5-7.8c0.8-3.5,4.3-5.8,7.8-5
		C393.8,427,396,430.5,395.3,434L395.3,434z M486.2,458.1c-0.8,3.5-4.3,5.8-7.8,5c-3.5-0.8-5.8-4.3-5-7.8c0.8-3.5,4.3-5.8,7.8-5
		C484.7,451,487,454.5,486.2,458.1L486.2,458.1z M510.9,463.1c-0.8,3.5-4.3,5.8-7.8,5c-3.5-0.8-5.8-4.3-5-7.8c0.8-3.5,4.3-5.8,7.8-5
		C509.4,456,511.7,459.5,510.9,463.1z M465,523.5c-0.8,3.5-4.3,5.8-7.8,5c-3.5-0.8-5.8-4.3-5-7.8c0.8-3.5,4.3-5.8,7.8-5
		C463.6,516.4,465.8,519.9,465,523.5L465,523.5z"/>
	<circle class="st23" cx="395.6" cy="503.1" r="6.6"/>
	<path class="st11" d="M433.3,517.7c-0.8,3.5-4.3,5.8-7.8,5s-5.8-4.3-5-7.8c0.8-3.5,4.3-5.8,7.8-5
		C431.8,510.7,434,514.2,433.3,517.7L433.3,517.7z"/>
	<g>
		<defs>
			<rect id="SVGID_3_" x="423.8" y="448.3" width="34.9" height="32.9"/>
		</defs>
		<clipPath id="SVGID_4_">
			<use xlink:href="#SVGID_3_"  style="overflow:visible;"/>
		</clipPath>
		<path class="st38" d="M443.8,481c-9.2,1.7-18.1-4.4-19.8-13.7c-1.6-8.7,4.2-17.1,12.9-18.7c8.3-1.5,16.2,4,17.7,12.2l3.7-0.8
			C460.1,469.8,453.6,479.2,443.8,481L443.8,481z"/>
	</g>
	<path class="st3" d="M429.4,463.8c0-0.2,0.1-0.5,0.1-0.7c0.1-0.2,0.2-0.4,0.3-0.5c0.1-0.1,0.2-0.2,0.4-0.3c0.1,0,0.3,0,0.4,0.1
		c0.1,0.1,0.2,0.2,0.2,0.4c0,0.2,0,0.4,0,0.6c0,0.2-0.1,0.3-0.3,0.5c-0.1,0.1-0.3,0.3-0.5,0.4s-0.4,0.2-0.6,0.2l-0.1,0
		C429.4,464.2,429.4,464,429.4,463.8L429.4,463.8z M429,466.9c0.2,0.1,0.5,0.2,0.7,0.2c0.3,0,0.5,0,0.8-0.1c0.3-0.1,0.6-0.2,0.8-0.3
		s0.4-0.2,0.5-0.4s0.2-0.3,0.3-0.4c0-0.1,0.1-0.3,0-0.4c0-0.1,0-0.1-0.1-0.2c0-0.1-0.1-0.1-0.1-0.2c0,0.1-0.1,0.2-0.2,0.3
		s-0.2,0.2-0.3,0.3c-0.1,0.1-0.2,0.2-0.3,0.3c-0.1,0.1-0.3,0.1-0.4,0.2c-0.3,0.1-0.6,0-0.8-0.1s-0.4-0.4-0.4-0.8l0-0.2
		c0,0,0-0.1,0-0.2c0.1,0,0.1,0,0.2,0l0.2,0c0.4-0.1,0.8-0.2,1.1-0.4c0.3-0.2,0.6-0.4,0.8-0.6s0.4-0.5,0.4-0.7
		c0.1-0.3,0.1-0.5,0.1-0.8c-0.1-0.3-0.2-0.6-0.5-0.7c-0.3-0.1-0.6-0.2-1.1-0.1c-0.3,0.1-0.6,0.2-0.9,0.3c-0.3,0.2-0.5,0.3-0.7,0.6
		s-0.4,0.4-0.5,0.7s-0.2,0.5-0.3,0.8c-0.1,0.3-0.1,0.5-0.1,0.8c0,0.3,0,0.5,0.1,0.7c0.1,0.3,0.2,0.6,0.3,0.8
		C428.6,466.6,428.8,466.8,429,466.9L429,466.9z M436.6,469.6c0,0.2,0,0.4-0.1,0.6c0,0.2-0.1,0.4-0.2,0.6c-0.1,0.2-0.2,0.3-0.3,0.4
		s-0.3,0.2-0.4,0.2c-0.1,0-0.1,0-0.2,0c-0.1,0-0.1,0-0.2,0c-0.1,0-0.1,0-0.2-0.1c0,0-0.1,0-0.2-0.1l0-1.7c0-1.4,0.7-2.1,1-2.2
		c0.1,0,0.2,0,0.3,0c0.1,0,0.1,0.1,0.2,0.2c0.1,0.1,0.1,0.2,0.1,0.3c0,0.1,0.1,0.2,0.1,0.4c0,0.2,0.1,0.4,0.1,0.6
		S436.6,469.4,436.6,469.6L436.6,469.6z M437.6,467.3c-0.1-0.2-0.2-0.4-0.4-0.5s-0.3-0.2-0.5-0.2c-0.2,0-0.4,0-0.6,0
		c-0.2,0-0.4,0.1-0.6,0.2s-0.3,0.2-0.4,0.4c-0.1,0.1-0.2,0.3-0.3,0.5c-0.1,0.2-0.1,0.4-0.2,0.6l-0.1-1.3l-2,0.4v0.5l0.2,0
		c0.1,0,0.2,0,0.2,0c0.1,0,0.1,0,0.2,0c0,0,0.1,0.1,0.1,0.1c0,0,0.1,0.1,0.1,0.2c0,0,0,0,0,0.1c0,0,0,0.1,0,0.1l0,0.1
		c0,0,0,0.1,0,0.1v5.9l2-0.4v-0.4c0,0-0.2,0-0.2,0c-0.1,0-0.1,0-0.2,0c0,0-0.1-0.1-0.1-0.1c0,0-0.1-0.1-0.1-0.2c0,0,0,0,0-0.1
		c0,0,0-0.1,0-0.1c0,0,0-0.1,0-0.1v-1c0.1,0,0.3,0.1,0.4,0.1c0.2,0,0.3,0,0.5-0.1c0.3-0.1,0.6-0.2,0.8-0.4s0.5-0.4,0.6-0.6
		c0.2-0.2,0.3-0.5,0.4-0.8c0.1-0.3,0.2-0.5,0.2-0.8c0.1-0.3,0.1-0.6,0.1-0.8c0-0.3,0-0.5-0.1-0.7
		C437.8,467.7,437.7,467.5,437.6,467.3L437.6,467.3z M449,466.4c0,0.3,0,0.5-0.1,0.8c-0.1,0.3-0.1,0.5-0.2,0.7
		c-0.1,0.2-0.2,0.4-0.3,0.5c-0.1,0.1-0.2,0.2-0.4,0.3c-0.1,0-0.1,0-0.2,0s-0.1-0.1-0.2-0.1s-0.1-0.2-0.2-0.3c0-0.1-0.1-0.3-0.1-0.4
		c0-0.2-0.1-0.4-0.1-0.6c0-0.2,0-0.4,0-0.7s0-0.5,0.1-0.7s0.1-0.4,0.2-0.6s0.2-0.3,0.3-0.5c0.1-0.1,0.3-0.2,0.5-0.2
		c0.1,0,0.2,0,0.4,0c0.1,0,0.2,0.1,0.3,0.1L449,466.4L449,466.4z M451.1,468c-0.1,0.1-0.1,0.1-0.2,0.1c-0.1,0-0.2,0-0.3-0.1
		s-0.1-0.2-0.2-0.3c0-0.1,0-0.1,0-0.2c0-0.1,0-0.2,0-0.3c0-0.1,0-0.2,0-0.3c0-0.1,0-0.2,0-0.2v-3c0,0-0.5,0-0.9,0.4
		c0,0-0.2,0-0.3-0.1c-0.1,0-0.2,0-0.3,0c-0.1,0-0.2,0-0.4,0c-0.1,0-0.3,0-0.4,0c-0.3,0.1-0.6,0.2-0.8,0.3c-0.2,0.2-0.5,0.4-0.6,0.6
		c-0.2,0.2-0.3,0.5-0.4,0.7c-0.1,0.3-0.2,0.5-0.3,0.8c-0.1,0.3-0.1,0.6-0.1,0.8s0,0.5,0.1,0.8c0,0.2,0.1,0.5,0.2,0.7
		c0.1,0.2,0.2,0.4,0.4,0.5c0.1,0.1,0.3,0.2,0.5,0.3c0.2,0.1,0.4,0.1,0.6,0c0.2,0,0.4-0.1,0.6-0.2c0.2-0.1,0.3-0.2,0.4-0.4
		c0.4-0.5,0.6-1.2,0.6-1.2s0,0.2,0,0.3c0,0.1,0,0.2,0,0.3c0,0.2,0.2,0.4,0.4,0.5c0.2,0.1,0.4,0.1,0.7,0c0.2,0,0.3-0.1,0.4-0.1
		c0.1-0.1,0.3-0.1,0.4-0.2c0.1-0.1,0.2-0.2,0.3-0.2c0.1-0.1,0.2-0.2,0.2-0.2l-0.3-0.3C451.2,467.9,451.1,467.9,451.1,468L451.1,468z
		 M439.1,464.9c0.1,0.1,0.1,0.1,0.2,0.1c0.1,0,0.2,0.1,0.2,0.1c0.1,0,0.2,0,0.3,0c0.1,0,0.2-0.1,0.3-0.1c0.1,0,0.2-0.1,0.3-0.2
		s0.1-0.2,0.1-0.3c0-0.1,0-0.2,0-0.4c0-0.1-0.1-0.2-0.1-0.2c-0.1-0.1-0.1-0.1-0.2-0.1c-0.1,0-0.2-0.1-0.3-0.1s-0.2,0-0.3,0
		c-0.1,0-0.2,0.1-0.3,0.1s-0.2,0.1-0.2,0.2c-0.1,0.1-0.1,0.2-0.1,0.3s0,0.2,0,0.4C439,464.8,439,464.9,439.1,464.9L439.1,464.9z
		 M432.2,470.7c-0.1-0.1-0.2-0.2-0.3-0.3c-0.1-0.1-0.3-0.2-0.4-0.3c-0.2-0.1-0.4-0.1-0.6-0.2c-0.2,0-0.4-0.1-0.5-0.1
		c-0.1,0-0.3-0.1-0.4-0.1c-0.1,0-0.2-0.1-0.2-0.2s-0.1-0.2-0.1-0.3c0-0.1,0-0.2,0-0.3s0.1-0.2,0.1-0.2c0.1-0.1,0.1-0.1,0.2-0.2
		s0.2-0.1,0.3-0.1c0.1,0,0.2,0,0.4,0c0.1,0,0.2,0.1,0.3,0.2s0.1,0.2,0.2,0.3c0,0.1,0.1,0.2,0.1,0.4c0.3-0.1,0.6-0.2,0.7-0.3
		s0.2-0.4,0.2-0.6c0-0.1-0.1-0.2-0.2-0.3c-0.1-0.1-0.2-0.2-0.3-0.2c-0.1,0-0.3-0.1-0.6-0.1c-0.2,0-0.5,0-0.8,0.1
		c-0.3,0.1-0.6,0.2-0.9,0.3c-0.2,0.1-0.4,0.3-0.6,0.4c-0.2,0.2-0.3,0.4-0.3,0.6c-0.1,0.2-0.1,0.4,0,0.6c0,0.2,0.1,0.3,0.2,0.5
		c0.1,0.1,0.2,0.2,0.3,0.3c0.1,0.1,0.3,0.2,0.4,0.2c0.2,0.1,0.3,0.1,0.5,0.2c0.2,0,0.4,0.1,0.5,0.1c0.1,0,0.3,0.1,0.4,0.1
		c0.1,0.1,0.2,0.1,0.2,0.2c0.1,0.1,0.1,0.2,0.1,0.3c0,0.1,0,0.2,0,0.3c0,0.1-0.1,0.2-0.1,0.3c-0.1,0.1-0.1,0.1-0.2,0.2
		c-0.1,0.1-0.2,0.1-0.3,0.1c-0.2,0-0.3,0-0.4,0c-0.1,0-0.2-0.1-0.3-0.2c-0.1-0.1-0.2-0.2-0.2-0.4c-0.1-0.1-0.1-0.3-0.1-0.5
		c-0.1,0-0.2,0.1-0.4,0.1s-0.2,0.1-0.3,0.2c-0.1,0.1-0.1,0.2-0.2,0.3c0,0.1,0,0.2,0,0.4c0,0.2,0.1,0.3,0.2,0.4s0.2,0.2,0.4,0.2
		c0.2,0.1,0.4,0.1,0.6,0.1s0.5,0,0.7-0.1c0.4-0.1,0.7-0.2,0.9-0.3s0.5-0.3,0.6-0.5c0.2-0.2,0.3-0.4,0.3-0.6s0.1-0.5,0-0.7
		C432.4,470.9,432.3,470.8,432.2,470.7L432.2,470.7z M438.6,464.9l-0.2-0.4l-0.1,0.1c-0.1,0.1-0.2,0.1-0.3,0.1c-0.1,0-0.2,0-0.3-0.1
		c-0.1-0.1-0.1-0.2-0.2-0.3c0-0.1,0-0.3-0.1-0.4c0-0.1,0-0.3,0-0.5v-1c0-0.1,0-0.2,0-0.3c0-0.1,0-0.2,0-0.3c0-0.1,0-0.2,0-0.3
		c0-0.1,0-0.2,0-0.3c0-0.1-0.1-0.3-0.1-0.4c-0.1-0.1-0.1-0.2-0.2-0.3c-0.1-0.1-0.2-0.1-0.4-0.2c-0.1,0-0.3,0-0.5,0
		c-0.2,0-0.4,0.1-0.5,0.2c-0.7,0.4-1.1,1.3-1.1,1.3l0-1l-2.1,0.4v0.5l0.2,0c0.1,0,0.2,0,0.2,0c0.1,0,0.1,0,0.2,0
		c0,0,0.1,0.1,0.1,0.1s0.1,0.1,0.1,0.2c0,0,0,0,0,0.1c0,0,0,0.1,0,0.1l0,0.1c0,0,0,0.1,0,0.1v3.9l1.4-0.3v-2.3
		c0-1.4,0.6-2.1,0.7-2.2c0.1-0.1,0.2-0.1,0.3-0.2c0.1,0,0.1,0,0.2,0c0.1,0,0.1,0.1,0.1,0.1c0,0,0.1,0.1,0.1,0.2c0,0.1,0,0.1,0.1,0.2
		c0,0.1,0,0.2,0,0.3c0,0.1,0,0.2,0,0.3c0,0.1,0,0.2,0,0.3v0.2l0,0.8c0,0.5,0,0.9,0.1,1.1c0.1,0.3,0.2,0.5,0.4,0.6
		c0.2,0.1,0.5,0.2,0.9,0.1c0.2,0,0.3-0.1,0.5-0.1c0.1-0.1,0.2-0.1,0.4-0.2S438.5,465,438.6,464.9L438.6,464.9z M441.1,470.1
		c-0.1,0.1-0.2,0.1-0.3,0.1c-0.1,0-0.2,0-0.3-0.1s-0.1-0.2-0.1-0.3c0-0.1,0-0.3,0-0.4s0-0.3,0-0.5l0-3.1l-2.2,0.5v0.5l0.2,0
		c0.1,0,0.2,0,0.2,0c0.1,0,0.1,0,0.2,0c0,0,0.1,0.1,0.1,0.1c0,0,0.1,0.1,0.1,0.2c0,0,0,0,0,0.1l0,0.1l0,0.1c0,0,0,0.1,0,0.1l0,1.8
		c0,0.2,0,0.5,0,0.7s0,0.4,0.1,0.5c0.1,0.3,0.2,0.5,0.4,0.6s0.5,0.2,0.9,0.1c0.2,0,0.3-0.1,0.4-0.2c0.1-0.1,0.2-0.1,0.4-0.2
		s0.2-0.2,0.3-0.3c0.1-0.1,0.1-0.2,0.2-0.3l-0.3-0.3C441.3,470,441.2,470,441.1,470.1L441.1,470.1z M445.8,465.2
		c-0.3-0.8-1.4-0.8-2,0.1c-0.4,0.6-0.4,1.2-0.4,1.2l0-1.3l-2.1,0.4l0,0.5l0.2,0c0.2,0,0.3,0,0.4,0c0.1,0,0.1,0.1,0.2,0.2
		c0,0.1,0,0.1,0,0.2l0,0.2v3.9l1.4-0.3l0-1.7c0-1.5,0.3-2.9,0.9-3c0.5-0.1,0.6,0.8,0.6,0.8C445.8,466.3,445.9,465.5,445.8,465.2
		L445.8,465.2z M454.1,467.2c-0.1,0.1-0.2,0.2-0.2,0.2c-0.1,0.1-0.2,0.1-0.3,0.1c-0.1,0-0.2,0-0.3-0.1c-0.1-0.1-0.1-0.2-0.1-0.3
		c0-0.1,0-0.3,0-0.4c0-0.1,0-0.3,0-0.5v-5.1l-2.2,0.5v0.5l0.2-0.1c0.1,0,0.2,0,0.2,0s0.1,0,0.2,0c0,0,0.1,0.1,0.1,0.1
		c0,0,0,0.1,0.1,0.2l0,0.1c0,0,0,0.1,0,0.1c0,0,0,0.1,0,0.1v0.1l0,3.8c0,0.5,0,0.9,0.1,1.1c0.1,0.3,0.2,0.5,0.4,0.6
		c0.2,0.1,0.5,0.2,0.9,0.1c0.2,0,0.3-0.1,0.5-0.2s0.2-0.1,0.4-0.2c0.1-0.1,0.2-0.2,0.3-0.3s0.1-0.2,0.2-0.3L454.1,467.2L454.1,467.2
		z"/>
	<path class="st21" d="M422.7,430l8.7,19.9 M432.5,415.4l10.1,2.6 M476.5,442.5l5.8,29.2 M453.9,476.2l4.5,4.5 M423.7,465.9
		l-5.1-0.6 M409.3,429.1l-6.7,17 M407.7,485.2l5.7,7.6 M494.9,480.7l8.1-17 M459,460.2l22.3-2.3 M383.9,452.5l2.5-18.4 M391,487.8
		l4.4,16.2 M439.1,522.4l20.4,1.1 M475,512.8l-11.5,5.8 M444.6,482.2l10.1,34.5 M480.4,455.4l22,7.3 M389.1,429.4l14.7-8"/>
	<path d="M491.9,703.5H483v-15.7h8.9v2.2h-6.3v4.3h5.9v2.1h-5.9v4.9h6.3V703.5z M505.4,703.5h-2.5v-7.3c0-0.9-0.2-1.6-0.6-2
		c-0.4-0.5-1-0.7-1.8-0.7c-1.1,0-1.8,0.3-2.3,0.9s-0.7,1.7-0.7,3.2v5.9H495v-11.9h2l0.4,1.6h0.1c0.4-0.6,0.9-1,1.5-1.3
		s1.4-0.5,2.2-0.5c2.9,0,4.3,1.5,4.3,4.3V703.5z M516.9,700.1c0,1.2-0.4,2-1.3,2.7s-2.1,0.9-3.6,0.9c-1.6,0-2.9-0.2-3.8-0.7v-2.2
		c1.4,0.6,2.7,1,3.9,1c1.6,0,2.3-0.5,2.3-1.4c0-0.3-0.1-0.5-0.3-0.8s-0.5-0.4-0.9-0.6s-0.9-0.5-1.6-0.7c-1.4-0.5-2.3-1.1-2.8-1.6
		s-0.7-1.2-0.7-2.1c0-1,0.4-1.8,1.2-2.4c0.8-0.6,1.9-0.8,3.3-0.8c1.4,0,2.7,0.3,4,0.8l-0.8,1.9c-1.3-0.5-2.4-0.8-3.2-0.8
		c-1.3,0-2,0.4-2,1.1c0,0.4,0.2,0.7,0.5,0.9c0.4,0.3,1.1,0.6,2.3,1.1c1,0.4,1.7,0.7,2.1,1s0.8,0.7,1,1.1
		C516.8,699,516.9,699.5,516.9,700.1L516.9,700.1z M525.7,703.7c-1.5,0-2.7-0.5-3.5-1.6H522c0.1,1,0.1,1.6,0.1,1.8v4.9h-2.5v-17.2h2
		c0.1,0.2,0.2,0.8,0.4,1.6h0.1c0.8-1.2,2-1.8,3.5-1.8c1.5,0,2.6,0.5,3.5,1.6s1.2,2.6,1.2,4.5s-0.4,3.5-1.3,4.5
		C528.3,703.1,527.2,703.7,525.7,703.7L525.7,703.7z M525.1,693.4c-1,0-1.7,0.3-2.2,0.9s-0.7,1.5-0.7,2.8v0.4c0,1.4,0.2,2.5,0.7,3.1
		s1.2,1,2.2,1c0.9,0,1.5-0.4,2-1.1s0.7-1.7,0.7-3.1c0-1.3-0.2-2.3-0.7-3C526.7,693.8,526,693.4,525.1,693.4L525.1,693.4z
		 M533.2,688.4c0-0.5,0.1-0.8,0.4-1c0.2-0.2,0.6-0.4,1.1-0.4c0.4,0,0.8,0.1,1,0.4s0.4,0.6,0.4,1c0,0.4-0.1,0.8-0.4,1
		c-0.2,0.2-0.6,0.4-1,0.4c-0.5,0-0.8-0.1-1.1-0.4C533.3,689.2,533.2,688.9,533.2,688.4L533.2,688.4z M535.9,703.5h-2.5v-11.9h2.5
		V703.5z M545.5,691.4c0.5,0,0.9,0,1.3,0.1l-0.2,2.4c-0.4-0.1-0.7-0.1-1.1-0.1c-1,0-1.8,0.3-2.5,1c-0.6,0.7-0.9,1.5-0.9,2.6v6.2
		h-2.5v-11.9h2l0.3,2.1h0.1c0.4-0.7,0.9-1.3,1.5-1.7C544.1,691.6,544.8,691.4,545.5,691.4L545.5,691.4z M556.4,703.5l-0.5-1.7h-0.1
		c-0.6,0.7-1.1,1.2-1.7,1.5c-0.6,0.3-1.3,0.4-2.2,0.4c-1.2,0-2.1-0.3-2.7-0.9s-1-1.5-1-2.7c0-1.2,0.5-2.1,1.4-2.8s2.3-1,4.2-1
		l2.1-0.1v-0.6c0-0.8-0.2-1.3-0.5-1.7c-0.4-0.4-0.9-0.6-1.6-0.6c-0.6,0-1.2,0.1-1.8,0.3s-1.1,0.4-1.6,0.6l-0.8-1.8
		c0.6-0.3,1.4-0.6,2.1-0.8c0.8-0.2,1.5-0.3,2.2-0.3c1.5,0,2.7,0.3,3.4,1c0.8,0.7,1.2,1.7,1.2,3.1v8L556.4,703.5L556.4,703.5z
		 M552.7,701.7c0.9,0,1.7-0.3,2.2-0.8c0.6-0.5,0.8-1.2,0.8-2.2v-1l-1.5,0.1c-1.2,0-2.1,0.2-2.6,0.6c-0.5,0.4-0.8,0.9-0.8,1.6
		c0,0.5,0.2,0.9,0.5,1.2S552,701.7,552.7,701.7L552.7,701.7z M564.3,703.5h-2.5v-16.7h2.5L564.3,703.5L564.3,703.5z M569.9,687.8
		l0.2,0.2c-0.4,1.5-1,3.2-1.9,5.1h-1.8c0.5-2.1,0.9-3.9,1.1-5.4L569.9,687.8L569.9,687.8z M580.1,700.1c0,1.2-0.4,2-1.3,2.7
		c-0.8,0.6-2.1,0.9-3.6,0.9c-1.6,0-2.9-0.2-3.8-0.7v-2.2c1.4,0.6,2.7,1,3.9,1c1.6,0,2.3-0.5,2.3-1.4c0-0.3-0.1-0.5-0.3-0.8
		s-0.5-0.4-0.8-0.6s-0.9-0.5-1.6-0.7c-1.4-0.5-2.3-1.1-2.8-1.6c-0.5-0.5-0.7-1.2-0.7-2.1c0-1,0.4-1.8,1.2-2.4
		c0.8-0.6,1.9-0.8,3.3-0.8c1.4,0,2.7,0.3,4,0.8l-0.8,1.9c-1.3-0.5-2.4-0.8-3.2-0.8c-1.3,0-2,0.4-2,1.1c0,0.4,0.2,0.7,0.5,0.9
		c0.4,0.3,1.1,0.6,2.3,1.1c1,0.4,1.7,0.7,2.1,1s0.8,0.7,1,1.1C580,699,580.1,699.5,580.1,700.1L580.1,700.1z M597.7,703.5h-8.9
		v-15.7h8.9v2.2h-6.3v4.3h5.9v2.1h-5.9v4.9h6.3V703.5z M603.5,703.5l-4.5-11.9h2.7l2.4,6.9c0.4,1.2,0.7,2.1,0.8,2.8h0.1
		c0.1-0.5,0.3-1.5,0.8-2.8l2.4-6.9h2.7l-4.5,11.9L603.5,703.5L603.5,703.5z M623.1,697.5c0,1.9-0.5,3.5-1.5,4.5
		c-1,1.1-2.4,1.6-4.2,1.6c-1.1,0-2.1-0.2-2.9-0.8s-1.5-1.2-2-2.2s-0.7-2-0.7-3.3c0-1.9,0.5-3.4,1.5-4.5s2.4-1.6,4.2-1.6
		c1.7,0,3.1,0.6,4.1,1.7C622.6,694.1,623.1,695.6,623.1,697.5L623.1,697.5z M614.5,697.5c0,2.7,1,4.1,3,4.1c2,0,3-1.4,3-4.1
		c0-2.7-1-4.1-3-4.1c-1.1,0-1.8,0.3-2.3,1.1C614.7,695.2,614.5,696.2,614.5,697.5L614.5,697.5z M628.6,703.5H626v-16.7h2.5
		L628.6,703.5L628.6,703.5z M640.5,703.5l-0.4-1.6h-0.1c-0.3,0.6-0.8,1-1.5,1.3c-0.6,0.3-1.4,0.5-2.2,0.5c-1.4,0-2.5-0.4-3.2-1.1
		s-1.1-1.8-1.1-3.3v-7.8h2.5v7.3c0,0.9,0.2,1.6,0.6,2c0.4,0.5,1,0.7,1.8,0.7c1.1,0,1.8-0.3,2.3-1c0.5-0.6,0.7-1.7,0.7-3.2v-5.9h2.5
		v11.9L640.5,703.5L640.5,703.5z M650.6,701.6c0.6,0,1.2-0.1,1.8-0.3v1.9c-0.3,0.1-0.6,0.2-1.1,0.3c-0.4,0.1-0.9,0.1-1.4,0.1
		c-2.4,0-3.6-1.3-3.6-3.8v-6.4h-1.6v-1.1l1.7-0.9l0.9-2.5h1.6v2.6h3.4v1.9h-3.4v6.4c0,0.6,0.2,1.1,0.5,1.3
		C649.7,701.5,650.1,701.6,650.6,701.6L650.6,701.6z M654.6,688.4c0-0.5,0.1-0.8,0.4-1s0.6-0.4,1.1-0.4c0.4,0,0.8,0.1,1,0.4
		s0.4,0.6,0.4,1c0,0.4-0.1,0.8-0.4,1c-0.2,0.2-0.6,0.4-1,0.4c-0.5,0-0.8-0.1-1.1-0.4C654.8,689.2,654.6,688.9,654.6,688.4
		L654.6,688.4z M657.3,703.5h-2.5v-11.9h2.5L657.3,703.5L657.3,703.5z M671.4,697.5c0,1.9-0.5,3.5-1.5,4.5s-2.4,1.6-4.2,1.6
		c-1.1,0-2.1-0.2-2.9-0.8s-1.5-1.2-2-2.2s-0.7-2-0.7-3.3c0-1.9,0.5-3.4,1.5-4.5s2.4-1.6,4.2-1.6c1.7,0,3.1,0.6,4.1,1.7
		C670.9,694.1,671.4,695.6,671.4,697.5L671.4,697.5z M662.8,697.5c0,2.7,1,4.1,3,4.1c2,0,3-1.4,3-4.1c0-2.7-1-4.1-3-4.1
		c-1.1,0-1.8,0.3-2.3,1.1C663,695.2,662.8,696.2,662.8,697.5L662.8,697.5z M684.8,703.5h-2.5v-7.3c0-0.9-0.2-1.6-0.6-2
		c-0.4-0.5-1-0.7-1.8-0.7c-1.1,0-1.8,0.3-2.3,0.9s-0.7,1.7-0.7,3.2v5.9h-2.5v-11.9h2l0.4,1.6h0.1c0.4-0.6,0.9-1,1.5-1.3
		s1.4-0.5,2.2-0.5c2.8,0,4.3,1.5,4.3,4.3L684.8,703.5L684.8,703.5z"/>
	<path class="st39" d="M569,735h29"/>
</g>
<text transform="matrix(1 0 0 1 514.7329 676.4071)" class="st40 st41">演進過程</text>
<text transform="matrix(1 0 0 1 327 112.061)"><tspan x="0" y="0" class="st42 st43">透過有意義的工作</tspan><tspan x="0" y="28.8" class="st42 st43">來讓世界更美好的願景</tspan></text>
<text transform="matrix(1 0 0 1 636 110.061)"><tspan x="0" y="0" class="st42 st43">共享的價值觀凝聚了</tspan><tspan x="24" y="28.8" class="st42 st43">多元領域專業人士</tspan></text>
<text transform="matrix(1 0 0 1 334.5311 621.061)" class="st42 st43">基金會聯結創業網絡</text>
<text transform="matrix(1 0 0 1 597.4822 621.061)" class="st42 st43">開源創新參與工具流程</text>
</svg>
