<?xml version="1.0" encoding="utf-8"?>
<!-- Generator: Adobe Illustrator 19.1.0, SVG Export Plug-In . SVG Version: 6.00 Build 0)  -->
<!DOCTYPE svg PUBLIC "-//W3C//DTD SVG 1.1//EN" "http://www.w3.org/Graphics/SVG/1.1/DTD/svg11.dtd">
<svg version="1.1" id="圖層_1" xmlns="http://www.w3.org/2000/svg" xmlns:xlink="http://www.w3.org/1999/xlink" x="0px" y="0px"
	 viewBox="139 25.1 889 742.9" style="enable-background:new 139 25.1 889 742.9;" xml:space="preserve">
<style type="text/css">
	.st0{clip-path:url(#SVGID_2_);}
	.st1{fill:#FFFFFF;}
	.st2{fill:#CCCCCC;}
	.st3{fill:none;stroke:#F2F2F2;stroke-width:2;stroke-miterlimit:10;}
	.st4{fill:#F2F2F2;}
	.st5{fill:#E6E6E6;}
	.st6{fill:none;stroke:#B3B3B3;stroke-width:2;stroke-miterlimit:10;}
	.st7{fill:#B3B3B3;}
	.st8{font-family:'SourceHanSansTW-Light-B5pc-H';}
	.st9{font-size:36px;}
	.st10{font-size:48px;}
</style>
<g>
	<path d="M334.6,442.6l-13-32.1h-0.2c0.1,2,0.2,4,0.2,6v26h-2.3v-34.8h3.8l12.3,30.6h0.1l12.3-30.6h3.7v34.8h-2.4v-26.3
		c0-1.8,0.1-3.7,0.3-5.7h-0.2l-13,32L334.6,442.6L334.6,442.6z M381.9,429.6c0,4.2-1,7.5-3.1,9.9c-2,2.4-4.9,3.6-8.5,3.6
		c-2.3,0-4.3-0.5-6-1.6c-1.7-1.1-3-2.7-4-4.7c-0.9-2-1.4-4.4-1.4-7.1c0-4.2,1-7.5,3.1-9.9c2-2.4,4.9-3.5,8.4-3.5
		c3.6,0,6.3,1.2,8.4,3.6S381.9,425.5,381.9,429.6L381.9,429.6z M361.5,429.6c0,3.5,0.8,6.3,2.3,8.3c1.6,2,3.8,3,6.6,3
		c2.9,0,5.1-1,6.6-3s2.3-4.8,2.3-8.3c0-3.6-0.8-6.3-2.4-8.3c-1.6-2-3.8-2.9-6.6-2.9c-2.9,0-5.1,1-6.6,2.9S361.5,426.1,361.5,429.6
		L361.5,429.6z M398.9,416.3c1.1,0,2.3,0.1,3.5,0.3l-0.5,2.3c-1.1-0.3-2.2-0.4-3.4-0.4c-2.2,0-4,0.9-5.4,2.8
		c-1.4,1.9-2.1,4.2-2.1,7.1v14.3h-2.4v-25.8h2l0.2,4.7h0.2c1.1-1.9,2.2-3.2,3.4-4C395.8,416.6,397.2,416.3,398.9,416.3L398.9,416.3z
		 M417.9,443.1c-3.8,0-6.7-1.2-8.8-3.5c-2.1-2.3-3.1-5.6-3.1-9.7c0-4.1,1-7.4,3-9.9c2-2.5,4.8-3.7,8.2-3.7c3,0,5.4,1.1,7.2,3.2
		c1.8,2.1,2.6,5,2.6,8.6v1.9h-18.6c0,3.5,0.9,6.3,2.5,8.1c1.6,1.9,4,2.8,7,2.8c1.5,0,2.8-0.1,3.9-0.3c1.1-0.2,2.5-0.6,4.2-1.3v2.1
		c-1.5,0.6-2.8,1.1-4,1.3C420.8,442.9,419.4,443.1,417.9,443.1L417.9,443.1z M417.2,418.3c-2.5,0-4.5,0.8-6,2.5
		c-1.5,1.6-2.4,4-2.6,7.1h16c0-3-0.6-5.3-2-7C421.3,419.2,419.5,418.3,417.2,418.3L417.2,418.3z M462.3,443.1c-4,0-6.9-1.5-8.7-4.5
		h-0.2l0.1,2c0.1,1.2,0.1,2.5,0.1,3.9v9.8h-2.4v-37.5h2l0.5,3.7h0.1c1.8-2.8,4.6-4.2,8.5-4.2c3.5,0,6.1,1.1,8,3.4s2.7,5.6,2.7,10
		c0,4.2-1,7.5-2.9,9.9S465.6,443.1,462.3,443.1L462.3,443.1z M462.2,441c2.6,0,4.7-1,6.1-2.9c1.5-2,2.2-4.7,2.2-8.2
		c0-7.6-2.7-11.4-8.2-11.4c-3,0-5.2,0.8-6.6,2.5c-1.4,1.7-2.1,4.4-2.1,8.1v0.8c0,4,0.7,6.9,2,8.7C457,440.1,459.2,441,462.2,441
		L462.2,441z M490.4,443.1c-3.8,0-6.7-1.2-8.8-3.5c-2.1-2.3-3.1-5.6-3.1-9.7c0-4.1,1-7.4,3-9.9c2-2.5,4.8-3.7,8.2-3.7
		c3,0,5.4,1.1,7.2,3.2c1.8,2.1,2.6,5,2.6,8.6v1.9h-18.6c0,3.5,0.9,6.3,2.5,8.1c1.6,1.9,4,2.8,7,2.8c1.5,0,2.8-0.1,3.9-0.3
		c1.1-0.2,2.5-0.6,4.2-1.3v2.1c-1.5,0.6-2.8,1.1-4,1.3C493.2,442.9,491.9,443.1,490.4,443.1L490.4,443.1z M489.7,418.3
		c-2.5,0-4.5,0.8-6,2.5c-1.5,1.6-2.4,4-2.6,7.1h16c0-3-0.6-5.3-2-7C493.8,419.2,492,418.3,489.7,418.3L489.7,418.3z M527.8,429.6
		c0,4.2-1,7.5-3.1,9.9c-2,2.4-4.9,3.6-8.5,3.6c-2.3,0-4.3-0.5-6-1.6c-1.7-1.1-3-2.7-4-4.7s-1.4-4.4-1.4-7.1c0-4.2,1-7.5,3.1-9.9
		c2-2.4,4.9-3.5,8.4-3.5c3.6,0,6.3,1.2,8.4,3.6C526.8,422.2,527.8,425.5,527.8,429.6L527.8,429.6z M507.4,429.6
		c0,3.5,0.8,6.3,2.3,8.3c1.6,2,3.8,3,6.6,3s5.1-1,6.6-3s2.3-4.8,2.3-8.3c0-3.6-0.8-6.3-2.4-8.3c-1.6-2-3.8-2.9-6.6-2.9
		c-2.9,0-5,1-6.6,2.9S507.4,426.1,507.4,429.6L507.4,429.6z M545.7,443.1c-4,0-6.9-1.5-8.7-4.5h-0.2l0.1,2c0.1,1.2,0.1,2.5,0.1,3.9
		v9.8h-2.4v-37.5h2l0.5,3.7h0.1c1.8-2.8,4.6-4.2,8.5-4.2c3.5,0,6.1,1.1,8,3.4c1.8,2.3,2.7,5.6,2.7,10c0,4.2-1,7.5-2.9,9.9
		C551.7,441.9,549.1,443.1,545.7,443.1L545.7,443.1z M545.7,441c2.6,0,4.7-1,6.1-2.9c1.5-2,2.2-4.7,2.2-8.2c0-7.6-2.7-11.4-8.2-11.4
		c-3,0-5.2,0.8-6.6,2.5c-1.4,1.7-2.1,4.4-2.1,8.1v0.8c0,4,0.7,6.9,2,8.7C540.4,440.1,542.6,441,545.7,441L545.7,441z M565.8,442.6
		h-2.4v-37h2.4L565.8,442.6L565.8,442.6z M584.6,443.1c-3.8,0-6.7-1.2-8.8-3.5c-2.1-2.3-3.1-5.6-3.1-9.7c0-4.1,1-7.4,3-9.9
		c2-2.5,4.8-3.7,8.2-3.7c3,0,5.4,1.1,7.2,3.2c1.8,2.1,2.6,5,2.6,8.6v1.9h-18.6c0,3.5,0.9,6.3,2.5,8.1c1.6,1.9,4,2.8,7,2.8
		c1.5,0,2.8-0.1,3.9-0.3c1.1-0.2,2.5-0.6,4.2-1.3v2.1c-1.5,0.6-2.8,1.1-4,1.3C587.5,442.9,586.1,443.1,584.6,443.1L584.6,443.1z
		 M583.9,418.3c-2.5,0-4.5,0.8-6,2.5c-1.5,1.6-2.4,4-2.6,7.1h16c0-3-0.7-5.3-2-7C588,419.2,586.2,418.3,583.9,418.3L583.9,418.3z
		 M637.6,442.6l-5.7-17.3c-0.4-1.2-0.8-2.9-1.4-5.2h-0.1l-0.5,1.8l-1.1,3.4l-5.8,17.2h-2.3l-7.4-25.8h2.5l4.1,15
		c1,3.7,1.6,6.4,1.9,8.2h0.1c0.9-3.7,1.6-6.2,2-7.4l5.3-15.8h2.1l5.1,15.7c1.1,3.7,1.8,6.2,2.1,7.4h0.1c0.1-1,0.8-3.8,1.9-8.3
		l3.9-14.8h2.4l-7,25.8L637.6,442.6L637.6,442.6z M673.3,429.6c0,4.2-1,7.5-3.1,9.9c-2,2.4-4.9,3.6-8.5,3.6c-2.3,0-4.3-0.5-6-1.6
		c-1.7-1.1-3-2.7-4-4.7s-1.4-4.4-1.4-7.1c0-4.2,1-7.5,3.1-9.9c2-2.4,4.8-3.5,8.4-3.5c3.5,0,6.3,1.2,8.4,3.6S673.3,425.5,673.3,429.6
		L673.3,429.6z M652.9,429.6c0,3.5,0.8,6.3,2.3,8.3c1.6,2,3.8,3,6.6,3s5.1-1,6.6-3s2.3-4.8,2.3-8.3c0-3.6-0.8-6.3-2.4-8.3
		c-1.6-2-3.8-2.9-6.6-2.9c-2.9,0-5,1-6.6,2.9S652.9,426.1,652.9,429.6L652.9,429.6z M690.4,416.3c1.1,0,2.3,0.1,3.5,0.3l-0.5,2.3
		c-1.1-0.3-2.2-0.4-3.4-0.4c-2.2,0-4,0.9-5.4,2.8c-1.4,1.9-2.1,4.2-2.1,7.1v14.3h-2.4v-25.8h2l0.2,4.7h0.2c1.1-1.9,2.2-3.2,3.4-4
		S688.6,416.3,690.4,416.3L690.4,416.3z M701.2,431.2l13.2-14.5h2.9l-10.2,11l11.1,14.8h-2.8l-9.8-13l-4.2,3.9v9.2h-2.4v-37h2.4
		v18.5l-0.2,7.1L701.2,431.2L701.2,431.2z M721.9,409.6c0-1.5,0.5-2.3,1.5-2.3c0.5,0,0.9,0.2,1.2,0.6c0.3,0.4,0.4,1,0.4,1.7
		c0,0.7-0.1,1.3-0.4,1.7c-0.3,0.4-0.7,0.6-1.2,0.6C722.4,411.9,721.9,411.1,721.9,409.6L721.9,409.6z M724.5,442.6h-2.4v-25.8h2.4
		V442.6z M751,442.6v-16.8c0-2.6-0.5-4.5-1.6-5.7c-1.1-1.2-2.8-1.8-5.1-1.8c-3.1,0-5.4,0.8-6.8,2.3c-1.4,1.6-2.2,4.1-2.2,7.6v14.3
		H733v-25.8h2l0.5,3.5h0.1c1.7-2.7,4.7-4,9-4c5.9,0,8.8,3.1,8.8,9.4v16.9L751,442.6L751,442.6z M781.6,416.8v1.6l-5.3,0.3
		c1.4,1.8,2.1,3.7,2.1,5.8c0,2.5-0.8,4.5-2.5,6c-1.7,1.5-3.9,2.3-6.7,2.3c-1.2,0-2,0-2.5-0.1c-0.9,0.5-1.6,1.1-2.1,1.7
		c-0.5,0.7-0.7,1.4-0.7,2.1c0,0.8,0.3,1.4,0.9,1.8c0.6,0.4,1.7,0.6,3.1,0.6h4.5c2.8,0,5,0.6,6.4,1.7c1.5,1.1,2.2,2.8,2.2,5
		c0,2.7-1.1,4.8-3.3,6.3c-2.2,1.5-5.4,2.2-9.4,2.2c-3.2,0-5.8-0.6-7.5-1.9c-1.8-1.2-2.7-3-2.7-5.2c0-1.8,0.5-3.2,1.7-4.4
		c1.1-1.2,2.6-2,4.5-2.4c-0.8-0.3-1.4-0.8-1.9-1.4c-0.5-0.6-0.7-1.3-0.7-2.1c0-1.7,1.1-3.2,3.3-4.6c-1.5-0.6-2.7-1.6-3.5-2.9
		s-1.3-2.8-1.3-4.6c0-2.6,0.8-4.7,2.5-6.2c1.6-1.6,3.9-2.3,6.6-2.3c1.7,0,3,0.2,3.9,0.5L781.6,416.8L781.6,416.8z M760.7,447
		c0,3.5,2.6,5.3,7.9,5.3c6.8,0,10.2-2.2,10.2-6.5c0-1.6-0.5-2.7-1.6-3.4c-1.1-0.7-2.8-1-5.2-1h-4.2C763,441.4,760.7,443.2,760.7,447
		L760.7,447z M762.6,424.8c0,2,0.6,3.5,1.8,4.6c1.2,1.1,2.8,1.6,4.9,1.6c2.2,0,3.8-0.5,5-1.6c1.2-1.1,1.7-2.7,1.7-4.8
		c0-2.2-0.6-3.9-1.8-5c-1.2-1.1-2.8-1.7-5-1.7c-2.1,0-3.7,0.6-4.9,1.8C763.2,421.1,762.6,422.7,762.6,424.8L762.6,424.8z
		 M820.4,429.6c0,4.2-1,7.5-3.1,9.9c-2,2.4-4.9,3.6-8.5,3.6c-2.3,0-4.3-0.5-6-1.6c-1.7-1.1-3-2.7-4-4.7s-1.4-4.4-1.4-7.1
		c0-4.2,1-7.5,3.1-9.9c2-2.4,4.8-3.5,8.4-3.5c3.5,0,6.3,1.2,8.4,3.6C819.4,422.2,820.4,425.5,820.4,429.6L820.4,429.6z M800,429.6
		c0,3.5,0.8,6.3,2.3,8.3c1.6,2,3.8,3,6.6,3s5.1-1,6.6-3s2.3-4.8,2.3-8.3c0-3.6-0.8-6.3-2.4-8.3c-1.6-2-3.8-2.9-6.6-2.9
		c-2.9,0-5,1-6.6,2.9S800,426.1,800,429.6L800,429.6z M845.3,442.6v-16.8c0-2.6-0.5-4.5-1.6-5.7c-1.1-1.2-2.8-1.8-5.1-1.8
		c-3.1,0-5.4,0.8-6.8,2.3c-1.4,1.6-2.2,4.1-2.2,7.6v14.3h-2.4v-25.8h2l0.5,3.5h0.1c1.7-2.7,4.7-4,9-4c5.9,0,8.8,3.1,8.8,9.4v16.9
		L845.3,442.6L845.3,442.6z M413.4,506.9c0,2.3-0.9,4.1-2.6,5.3c-1.8,1.2-4.3,1.9-7.5,1.9c-3.5,0-6.2-0.5-8.2-1.6v-2.5
		c2.6,1.3,5.3,2,8.2,2c2.6,0,4.5-0.4,5.8-1.3s2-2,2-3.4c0-1.3-0.5-2.4-1.6-3.3s-2.8-1.8-5.2-2.6c-2.6-0.9-4.4-1.7-5.4-2.4
		c-1-0.7-1.8-1.4-2.4-2.3c-0.5-0.8-0.8-1.9-0.8-3.1c0-1.9,0.8-3.5,2.4-4.6s3.9-1.7,6.8-1.7c2.8,0,5.4,0.5,7.9,1.6L412,491
		c-2.5-1-4.9-1.6-7.1-1.6c-2.1,0-3.8,0.4-5,1c-1.2,0.7-1.9,1.7-1.9,2.9c0,1.3,0.5,2.4,1.4,3.2c1,0.8,2.8,1.7,5.6,2.7
		c2.3,0.8,4,1.6,5.1,2.3c1.1,0.7,1.9,1.4,2.4,2.3S413.4,505.7,413.4,506.9L413.4,506.9z M426.6,512c1.5,0,2.8-0.1,3.9-0.4v1.9
		c-1.1,0.4-2.5,0.6-3.9,0.6c-2.3,0-4-0.6-5-1.8c-1.1-1.2-1.6-3.1-1.6-5.8v-16.7h-3.8v-1.4l3.8-1.1l1.2-5.8h1.2v6.2h7.6v2h-7.6v16.4
		c0,2,0.4,3.4,1,4.4C424.1,511.5,425.2,512,426.6,512L426.6,512z M437.9,487.8v16.7c0,2.6,0.5,4.5,1.6,5.7c1.1,1.2,2.8,1.8,5.1,1.8
		c3.1,0,5.3-0.8,6.8-2.3s2.2-4.1,2.2-7.6v-14.3h2.3v25.8h-2l-0.4-3.6h-0.1c-1.7,2.7-4.7,4-9,4c-5.9,0-8.8-3.1-8.8-9.4v-16.9H437.9
		L437.9,487.8z M474,489.8h-6.1v23.8h-2.4v-23.8h-4.8v-1.4l4.8-0.9v-2c0-3.2,0.6-5.5,1.7-7s3.1-2.2,5.7-2.2c1.4,0,2.9,0.2,4.3,0.6
		l-0.5,2c-1.3-0.4-2.5-0.6-3.8-0.6c-1.8,0-3.1,0.5-3.9,1.6c-0.8,1.1-1.1,2.8-1.1,5.3v2.4h6.1L474,489.8L474,489.8z M488.6,489.8
		h-6.1v23.8h-2.4v-23.8h-4.8v-1.4l4.8-0.9v-2c0-3.2,0.6-5.5,1.7-7c1.2-1.5,3.1-2.2,5.7-2.2c1.4,0,2.9,0.2,4.3,0.6l-0.5,2
		c-1.3-0.4-2.5-0.6-3.8-0.6c-1.8,0-3.1,0.5-3.9,1.6c-0.8,1.1-1.2,2.8-1.2,5.3v2.4h6.1L488.6,489.8L488.6,489.8z M517.4,512
		c1.5,0,2.8-0.1,3.9-0.4v1.9c-1.1,0.4-2.5,0.6-3.9,0.6c-2.3,0-4-0.6-5-1.8c-1.1-1.2-1.6-3.1-1.6-5.8v-16.7h-3.8v-1.4l3.8-1.1
		l1.2-5.8h1.2v6.2h7.6v2h-7.6v16.4c0,2,0.3,3.4,1,4.4C514.8,511.5,515.9,512,517.4,512L517.4,512z M544.7,513.6v-16.8
		c0-2.6-0.5-4.5-1.6-5.7c-1.1-1.2-2.8-1.8-5.1-1.8c-3.1,0-5.4,0.8-6.8,2.3c-1.4,1.6-2.1,4.1-2.1,7.6v14.3h-2.4v-37h2.4v11.8
		l-0.1,3.3h0.2c1-1.6,2.2-2.7,3.7-3.4c1.5-0.7,3.3-1,5.5-1c5.9,0,8.8,3.1,8.8,9.4v16.9L544.7,513.6L544.7,513.6z M570.8,513.6
		l-0.6-4.1H570c-1.3,1.7-2.6,2.8-4,3.5c-1.4,0.7-3,1-4.9,1c-2.5,0-4.5-0.6-5.9-1.9c-1.4-1.3-2.1-3.1-2.1-5.4c0-2.5,1-4.5,3.1-5.9
		s5.1-2.1,9.1-2.2l4.9-0.1v-1.7c0-2.5-0.5-4.3-1.5-5.6c-1-1.2-2.6-1.9-4.8-1.9c-2.4,0-4.9,0.7-7.4,2l-0.9-2c2.8-1.3,5.6-2,8.4-2
		c2.8,0,5,0.7,6.4,2.2s2.1,3.8,2.1,6.9v17.2L570.8,513.6L570.8,513.6z M561.3,511.9c2.8,0,4.9-0.8,6.5-2.4c1.6-1.6,2.4-3.8,2.4-6.6
		v-2.5l-4.5,0.2c-3.6,0.2-6.2,0.7-7.8,1.7s-2.3,2.5-2.3,4.5c0,1.6,0.5,2.9,1.5,3.8S559.5,511.9,561.3,511.9L561.3,511.9z M587.5,512
		c1.5,0,2.8-0.1,3.9-0.4v1.9c-1.1,0.4-2.5,0.6-3.9,0.6c-2.3,0-4-0.6-5-1.8c-1.1-1.2-1.6-3.1-1.6-5.8v-16.7h-3.8v-1.4l3.8-1.1
		l1.2-5.8h1.2v6.2h7.6v2h-7.6v16.4c0,2,0.4,3.4,1,4.4C584.9,511.5,586,512,587.5,512L587.5,512z M641.4,513.6v-16.9
		c0-2.5-0.5-4.4-1.5-5.5c-1-1.2-2.5-1.7-4.5-1.7c-2.6,0-4.6,0.7-5.9,2.2c-1.3,1.5-1.9,3.7-1.9,6.9v15.1h-2.4v-17.7
		c0-4.4-2-6.5-6-6.5c-2.7,0-4.7,0.8-5.9,2.4c-1.2,1.6-1.9,4.1-1.9,7.6v14.3h-2.4v-25.8h2l0.5,3.5h0.1c0.7-1.3,1.7-2.3,3-3
		c1.3-0.7,2.8-1.1,4.4-1.1c4.1,0,6.7,1.5,7.8,4.6h0.1c0.8-1.5,2-2.6,3.4-3.4s3-1.2,4.8-1.2c2.8,0,4.9,0.8,6.3,2.3
		c1.4,1.5,2.1,3.9,2.1,7.2v16.9L641.4,513.6L641.4,513.6z M667.5,513.6l-0.6-4.1h-0.2c-1.3,1.7-2.6,2.8-4,3.5c-1.4,0.7-3,1-4.9,1
		c-2.5,0-4.5-0.6-5.9-1.9c-1.4-1.3-2.1-3.1-2.1-5.4c0-2.5,1-4.5,3.2-5.9s5.1-2.1,9.1-2.2l4.9-0.1v-1.7c0-2.5-0.5-4.3-1.5-5.6
		c-1-1.2-2.6-1.9-4.8-1.9c-2.4,0-4.9,0.7-7.4,2l-0.9-2c2.8-1.3,5.6-2,8.4-2c2.8,0,5,0.7,6.4,2.2s2.1,3.8,2.1,6.9v17.2L667.5,513.6
		L667.5,513.6z M658,511.9c2.8,0,4.9-0.8,6.5-2.4c1.6-1.6,2.4-3.8,2.4-6.6v-2.5l-4.5,0.2c-3.6,0.2-6.2,0.7-7.8,1.7s-2.3,2.5-2.3,4.5
		c0,1.6,0.5,2.9,1.5,3.8S656.2,511.9,658,511.9L658,511.9z M684.2,512c1.5,0,2.8-0.1,3.9-0.4v1.9c-1.1,0.4-2.5,0.6-3.9,0.6
		c-2.3,0-4-0.6-5-1.8c-1.1-1.2-1.6-3.1-1.6-5.8v-16.7h-3.8v-1.4l3.8-1.1l1.2-5.8h1.2v6.2h7.6v2h-7.6v16.4c0,2,0.3,3.4,1,4.4
		C681.6,511.5,682.7,512,684.2,512L684.2,512z M700.3,512c1.5,0,2.8-0.1,3.9-0.4v1.9c-1.1,0.4-2.5,0.6-3.9,0.6c-2.3,0-4-0.6-5-1.8
		c-1.1-1.2-1.6-3.1-1.6-5.8v-16.7h-3.8v-1.4l3.8-1.1l1.2-5.8h1.2v6.2h7.6v2H696v16.4c0,2,0.3,3.4,1,4.4
		C697.7,511.5,698.8,512,700.3,512L700.3,512z M720,514.1c-3.8,0-6.7-1.2-8.8-3.5c-2.1-2.3-3.2-5.6-3.2-9.7c0-4.1,1-7.4,3-9.9
		c2-2.5,4.8-3.7,8.2-3.7c3,0,5.4,1.1,7.2,3.2c1.8,2.1,2.6,5,2.6,8.6v1.9h-18.6c0,3.5,0.9,6.3,2.5,8.1c1.6,1.9,4,2.8,7,2.8
		c1.5,0,2.8-0.1,3.9-0.3c1.1-0.2,2.5-0.6,4.2-1.3v2.1c-1.5,0.6-2.8,1.1-4,1.3C722.8,513.9,721.5,514.1,720,514.1L720,514.1z
		 M719.3,489.3c-2.5,0-4.5,0.8-6,2.5c-1.5,1.6-2.4,4-2.6,7.1h16c0-3-0.7-5.3-2-7C723.4,490.2,721.6,489.3,719.3,489.3L719.3,489.3z
		 M746.2,487.3c1.1,0,2.3,0.1,3.5,0.3l-0.5,2.3c-1.1-0.3-2.2-0.4-3.4-0.4c-2.2,0-4,0.9-5.4,2.8c-1.4,1.9-2.1,4.2-2.1,7.1v14.3H736
		v-25.8h2l0.2,4.7h0.2c1.1-1.9,2.2-3.2,3.4-4S744.5,487.3,746.2,487.3L746.2,487.3z M770.7,506.9c0,2.3-0.9,4.1-2.6,5.3
		c-1.8,1.2-4.3,1.9-7.5,1.9c-3.5,0-6.2-0.5-8.2-1.6v-2.5c2.6,1.3,5.3,2,8.2,2c2.6,0,4.5-0.4,5.8-1.3s2-2,2-3.4
		c0-1.3-0.5-2.4-1.6-3.3s-2.8-1.8-5.2-2.6c-2.6-0.9-4.4-1.7-5.4-2.4c-1-0.7-1.8-1.4-2.4-2.3c-0.5-0.8-0.8-1.9-0.8-3.1
		c0-1.9,0.8-3.5,2.4-4.6s3.9-1.7,6.8-1.7c2.8,0,5.4,0.5,7.9,1.6l-0.9,2.1c-2.5-1-4.9-1.6-7.1-1.6c-2.1,0-3.8,0.4-5,1
		c-1.2,0.7-1.9,1.7-1.9,2.9c0,1.3,0.5,2.4,1.4,3.2c1,0.8,2.8,1.7,5.6,2.7c2.3,0.8,4,1.6,5.1,2.3c1.1,0.7,1.9,1.4,2.4,2.3
		S770.7,505.7,770.7,506.9L770.7,506.9z"/>
	<g>
		<defs>
			<rect id="SVGID_1_" x="448.5" y="82" width="269.1" height="254.3"/>
		</defs>
		<clipPath id="SVGID_2_">
			<use xlink:href="#SVGID_1_"  style="overflow:visible;"/>
		</clipPath>
		<path class="st0" d="M603.5,334.2c-71.4,13-139.9-34.3-152.9-105.7C438.2,161,483,96.2,550.5,83.9
			c63.8-11.6,124.9,30.6,136.6,94.4v0l28.3-6C729.1,247.9,679,320.4,603.5,334.2z"/>
	</g>
	<path class="st1" d="M492.2,201.2c0.2-1.9,0.6-3.6,1.2-5.2c0.5-1.6,1.2-2.9,2.1-4c0.9-1.1,1.9-1.8,3-2c1.1-0.2,2.1,0,2.8,0.7
		c0.8,0.7,1.3,1.8,1.6,3.2c0.3,1.5,0.3,2.9-0.1,4.3c-0.4,1.3-1,2.6-2,3.7c-0.9,1.1-2.1,2.1-3.5,2.9c-1.4,0.8-3,1.4-4.8,1.7l-0.6,0.1
		C491.9,204.9,492,203.1,492.2,201.2L492.2,201.2z M488.7,225.3c1.7,0.9,3.6,1.5,5.6,1.7c2,0.2,4.2,0.1,6.3-0.4
		c2.4-0.5,4.5-1.2,6.1-2.1s3-1.9,4-2.9c1-1.1,1.6-2.1,2-3.2c0.4-1.1,0.4-2,0.3-2.9c-0.1-0.6-0.3-1.2-0.6-1.7
		c-0.3-0.5-0.6-0.9-0.9-1.2c-0.4,0.8-0.8,1.7-1.4,2.5c-0.6,0.8-1.2,1.6-2,2.4c-0.8,0.7-1.6,1.4-2.6,1.9c-1,0.6-2,1-3.2,1.2
		c-2.6,0.6-4.7,0.2-6.3-1c-1.6-1.2-2.7-3.2-3.3-6c-0.1-0.4-0.2-0.8-0.3-1.3c-0.1-0.5-0.1-1-0.2-1.4c0.4,0,0.9-0.1,1.4-0.2
		c0.5-0.1,0.9-0.2,1.3-0.3c3.1-0.6,5.8-1.6,8.2-3c2.4-1.3,4.4-2.9,6-4.6c1.6-1.7,2.7-3.6,3.4-5.6c0.7-2,0.8-4,0.4-5.9
		c-0.6-2.7-1.9-4.5-4.1-5.6c-2.2-1.1-5-1.3-8.4-0.5c-2.6,0.6-4.9,1.4-7,2.6c-2.1,1.2-3.8,2.6-5.4,4.3c-1.5,1.6-2.8,3.4-3.8,5.4
		c-1,1.9-1.8,4-2.3,6c-0.5,2-0.8,4.1-0.9,6.1c-0.1,2,0.1,3.9,0.5,5.7c0.5,2.5,1.4,4.6,2.6,6.3C485.6,223.1,487,224.4,488.7,225.3
		L488.7,225.3z M547.2,246.2c-0.1,1.7-0.4,3.4-0.8,5c-0.4,1.7-0.9,3.2-1.5,4.5c-0.6,1.4-1.4,2.5-2.4,3.4c-0.9,0.9-2.1,1.5-3.3,1.8
		c-0.6,0.1-1.1,0.2-1.7,0.1c-0.5,0-1.1-0.1-1.5-0.2c-0.5-0.1-0.9-0.2-1.3-0.4c-0.4-0.2-1-0.3-1.2-0.5l0-13.4
		c0-11.1,5.6-16.6,7.8-16.9c0.7-0.1,1.4-0.1,2,0.3c0.6,0.3,1.1,0.8,1.5,1.5c0.4,0.7,0.8,1.4,1.1,2.3c0.3,0.9,0.6,1.8,0.8,2.8
		c0.3,1.4,0.5,2.9,0.6,4.5C547.4,242.8,547.3,244.5,547.2,246.2L547.2,246.2z M555.4,228.4c-0.8-1.5-1.8-2.7-2.9-3.6
		c-1.1-0.9-2.4-1.5-3.8-1.8c-1.4-0.3-2.9-0.3-4.4,0.1c-1.8,0.4-3.2,0.9-4.5,1.7c-1.2,0.8-2.2,1.7-3.1,2.9c-0.9,1.1-1.6,2.4-2.2,3.9
		c-0.6,1.4-1.1,3-1.6,4.7l-0.5-9.9l-15.5,3.3v4l1.5-0.3c0.7-0.1,1.2-0.2,1.7-0.3c0.5,0,0.9,0,1.2,0.2c0.3,0.1,0.6,0.4,0.9,0.8
		c0.2,0.4,0.4,0.9,0.5,1.5c0,0.1,0,0.2,0.1,0.5c0,0.2,0,0.5,0.1,0.8c0,0.3,0,0.6,0,1c0,0.3,0,0.7,0,1l0,45.3l15.1-3.3l0-3.1
		c0,0-1.3,0.2-1.8,0.3c-0.5,0-0.9,0-1.3-0.2c-0.3-0.1-0.6-0.4-0.8-0.8s-0.4-0.9-0.5-1.5c0-0.1,0-0.3-0.1-0.5c0-0.2,0-0.5-0.1-0.8
		c0-0.3,0-0.6,0-1c0-0.3,0-0.7,0-1l0-7.1c1,0.3,2,0.5,3.3,0.6c1.3,0,2.7-0.1,4.1-0.4c2.5-0.5,4.6-1.4,6.5-2.7
		c1.9-1.3,3.5-2.8,4.8-4.6c1.3-1.8,2.4-3.7,3.3-5.8c0.8-2.1,1.4-4.2,1.8-6.4c0.4-2.2,0.6-4.3,0.6-6.4c0-2.1-0.2-4-0.6-5.7
		C556.9,231.8,556.3,230,555.4,228.4L555.4,228.4z M643,221.4c0,2-0.2,4-0.6,6c-0.4,2-0.9,3.9-1.6,5.6c-0.7,1.7-1.5,3.1-2.4,4.2
		c-0.9,1.1-1.9,1.8-2.9,2c-0.6,0.1-1.1,0.1-1.6,0c-0.5-0.1-1-0.5-1.5-1c-0.5-0.5-0.9-1.2-1.3-2.1c-0.4-0.9-0.7-2-1-3.4
		c-0.3-1.3-0.5-2.8-0.6-4.5c-0.1-1.7-0.1-3.4,0-5.1c0.1-1.8,0.4-3.5,0.8-5.2c0.4-1.7,0.9-3.2,1.6-4.6c0.7-1.4,1.5-2.6,2.5-3.6
		c1-1,2.2-1.6,3.6-1.9c0.9-0.2,1.8-0.2,2.7-0.1c0.9,0.2,1.6,0.5,2.2,1.1L643,221.4L643,221.4z M659.2,233.9
		c-0.6,0.4-1.2,0.7-1.8,0.8c-0.7,0.2-1.4,0-2-0.5c-0.6-0.5-1-1.3-1.3-2.5c-0.1-0.5-0.2-1.1-0.2-1.8c0-0.7-0.1-1.4-0.1-2.2
		c0-0.8,0-1.5,0-2.2c0-0.7,0-1.2,0-1.6v-23.4c0,0-3.9,0.3-7.2,3.4c0,0-1.3-0.4-2.1-0.5c-0.8-0.1-1.7-0.2-2.6-0.3c-0.9,0-1.9,0-2.9,0
		c-1,0.1-1.9,0.2-2.9,0.4c-2.4,0.5-4.5,1.4-6.4,2.6c-1.9,1.2-3.5,2.7-4.9,4.4c-1.4,1.7-2.5,3.6-3.4,5.6c-0.9,2.1-1.6,4.2-2,6.3
		c-0.4,2.2-0.7,4.3-0.7,6.4c0,2.1,0.2,4.1,0.6,6c0.4,1.9,1,3.5,1.7,5.1c0.8,1.5,1.7,2.8,2.8,3.7c1.1,1,2.3,1.7,3.7,2.1
		c1.4,0.4,3,0.4,4.6,0.1c1.7-0.4,3.2-0.9,4.4-1.6c1.2-0.7,2.2-1.7,3.1-2.7c3.4-4.1,4.3-8.9,4.3-8.9s0.1,1.8,0.2,2.5
		c0.1,0.7,0.2,1.5,0.4,2.2c0.4,1.9,1.3,3.1,2.8,3.8c1.5,0.7,3.3,0.8,5.4,0.4c1.3-0.3,2.4-0.6,3.5-1.2c1-0.5,2-1.1,2.8-1.7
		c0.8-0.6,1.6-1.3,2.3-1.9c0.7-0.7,1.2-1.3,1.7-1.9l-2.2-2.5C660.4,232.9,659.8,233.4,659.2,233.9L659.2,233.9z M566.5,210.1
		c0.4,0.5,0.9,0.9,1.5,1.1c0.6,0.3,1.2,0.4,1.9,0.5c0.7,0,1.5,0,2.2-0.2c0.9-0.2,1.7-0.5,2.4-0.9c0.8-0.4,1.4-0.9,1.9-1.5
		s0.9-1.3,1.1-2.1c0.2-0.8,0.2-1.7,0-2.7c-0.2-0.8-0.5-1.4-0.9-1.9c-0.4-0.5-0.9-0.9-1.5-1.2c-0.6-0.3-1.3-0.4-2-0.4
		c-0.7,0-1.5,0.1-2.2,0.2c-0.9,0.2-1.7,0.5-2.5,0.9c-0.8,0.4-1.4,0.9-1.9,1.5c-0.5,0.6-0.9,1.3-1.1,2.1c-0.2,0.8-0.2,1.7,0,2.8
		C565.8,209,566.1,209.6,566.5,210.1L566.5,210.1z M513.8,254.4c-0.6-1-1.3-1.9-2.3-2.7c-0.9-0.8-2-1.4-3.3-2
		c-1.3-0.5-2.7-1-4.4-1.4c-1.5-0.3-2.8-0.6-4-0.9c-1.1-0.3-2.1-0.6-2.8-1c-0.8-0.4-1.4-0.8-1.8-1.3c-0.4-0.5-0.7-1.2-0.9-2
		c-0.1-0.7-0.1-1.4,0-2c0.1-0.7,0.4-1.3,0.9-1.8c0.4-0.6,1-1.1,1.6-1.5c0.7-0.4,1.5-0.7,2.4-0.9c1-0.2,1.9-0.2,2.7,0.2
		c0.8,0.3,1.5,0.9,2.1,1.6c0.6,0.7,1.1,1.5,1.5,2.4c0.4,0.9,0.7,1.9,0.9,2.8c2.5-0.5,4.4-1.4,5.7-2.6c1.3-1.2,1.7-2.7,1.3-4.6
		c-0.2-0.9-0.6-1.7-1.2-2.4c-0.6-0.7-1.5-1.3-2.7-1.7c-1.2-0.4-2.6-0.6-4.3-0.6c-1.7,0-3.8,0.2-6.2,0.7c-2.5,0.5-4.7,1.3-6.5,2.2
		c-1.9,0.9-3.4,2.1-4.6,3.3c-1.2,1.3-2,2.7-2.4,4.3c-0.4,1.6-0.5,3.2-0.1,4.9c0.3,1.4,0.8,2.6,1.4,3.6c0.7,1,1.5,1.9,2.5,2.7
		c1,0.7,2.1,1.4,3.4,1.9c1.3,0.5,2.7,0.9,4.2,1.3c1.5,0.4,2.9,0.7,4,1.1c1.1,0.3,2.1,0.7,2.8,1.1c0.8,0.4,1.4,0.9,1.8,1.5
		c0.4,0.6,0.8,1.2,0.9,2.1c0.2,0.9,0.2,1.7,0,2.4c-0.2,0.7-0.6,1.4-1.1,2c-0.5,0.6-1.1,1.1-1.9,1.5c-0.8,0.4-1.7,0.7-2.6,0.9
		c-1.3,0.3-2.4,0.2-3.4-0.1c-1-0.3-1.9-0.9-2.6-1.7c-0.7-0.8-1.4-1.7-1.9-2.8c-0.5-1.1-0.9-2.3-1.1-3.6c-0.9,0.2-1.9,0.5-2.7,0.9
		c-0.9,0.4-1.6,0.9-2.2,1.6c-0.6,0.6-1,1.4-1.3,2.2c-0.3,0.9-0.3,1.9-0.1,3c0.3,1.2,0.8,2.3,1.6,3.1c0.8,0.8,1.9,1.5,3.2,1.9
		c1.3,0.4,2.8,0.6,4.6,0.6c1.7,0,3.6-0.2,5.6-0.6c2.8-0.6,5.3-1.4,7.3-2.4c2-1,3.7-2.2,4.9-3.6c1.2-1.4,2.1-2.9,2.5-4.6
		c0.4-1.7,0.4-3.5,0-5.4C514.8,256.5,514.4,255.4,513.8,254.4L513.8,254.4z M562.9,210.3l-1.7-2.9c-0.2,0.2-0.4,0.4-0.6,0.5
		c-0.6,0.4-1.2,0.7-1.9,0.9c-0.8,0.2-1.5,0-2-0.4c-0.5-0.5-1.1-1.3-1.3-2.3c-0.2-1-0.4-2.2-0.4-3.4c0-1.2-0.1-2.4-0.1-3.8l0-8
		c0-0.7,0-1.3,0-2.1c0-0.7,0-1.5,0-2.2c0-0.7-0.1-1.4-0.1-2.1c-0.1-0.7-0.2-1.4-0.3-2c-0.2-1.1-0.6-2.1-1.1-3
		c-0.5-0.9-1.1-1.7-1.9-2.3c-0.8-0.6-1.8-1-2.9-1.3c-1.1-0.2-2.4-0.2-3.9,0.1c-1.6,0.3-3,0.8-4.2,1.4c-5.7,2.9-8.3,10-8.3,10
		l-0.4-7.9l-16.2,3.4v4l1.5-0.3c0.7-0.1,1.2-0.2,1.7-0.3c0.5,0,0.9,0,1.2,0.2c0.3,0.1,0.6,0.4,0.8,0.8c0.2,0.4,0.4,0.9,0.5,1.5
		c0,0.1,0,0.2,0.1,0.5c0,0.2,0,0.5,0.1,0.8c0,0.3,0,0.6,0,1c0,0.3,0,0.7,0,1l0,29.8l10.6-2.3v-17.7c0-10.7,4.3-15.9,5.4-17
		c0.7-0.7,1.4-1.2,2.2-1.3c0.6-0.1,1.2-0.1,1.6,0.1c0.4,0.2,0.8,0.4,1.1,0.8c0.3,0.4,0.5,0.8,0.7,1.2c0.2,0.5,0.3,0.9,0.4,1.4
		c0.1,0.6,0.2,1.2,0.3,2c0.1,0.8,0.1,1.5,0.1,2.3c0,0.8,0,1.5,0,2.2c0,0.7,0,1.3,0,1.8l0,5.9c0,3.8,0.2,6.7,0.6,8.8
		c0.5,2.3,1.6,3.9,3.3,4.9c1.7,1,4,1.2,6.7,0.6c1.3-0.3,2.5-0.7,3.5-1.2c1-0.5,1.9-1.1,2.7-1.7C561.6,211.8,562.3,211.1,562.9,210.3
		L562.9,210.3z M582.4,250.1c-0.6,0.4-1.2,0.7-2,0.9c-0.8,0.2-1.5,0-2-0.5c-0.5-0.5-0.9-1.2-1.1-2.3c-0.2-1-0.3-2.1-0.4-3.3
		c-0.1-1.2-0.1-2.4-0.1-3.8l0.1-24.3l-16.9,3.6v4l1.5-0.3c0.7-0.1,1.2-0.2,1.7-0.3c0.5,0,0.9,0,1.2,0.2c0.3,0.1,0.6,0.4,0.9,0.8
		c0.2,0.4,0.4,0.9,0.5,1.5c0,0.1,0,0.2,0.1,0.5c0,0.2,0,0.5,0.1,0.8c0,0.3,0,0.6,0,1c0,0.3,0,0.7,0,1l0,13.9c0,1.9,0,3.6,0.1,5
		c0.1,1.5,0.3,2.7,0.5,3.7c0.5,2.3,1.6,4,3.3,4.9c1.7,1,4,1.2,6.7,0.6c1.3-0.3,2.5-0.7,3.5-1.2c1-0.5,1.9-1.1,2.7-1.8
		c0.8-0.7,1.5-1.4,2.1-2.1c0.6-0.7,1.1-1.5,1.5-2.2l-2.2-2.1C583.6,249.1,583,249.7,582.4,250.1L582.4,250.1z M618.8,212.5
		c-2-5.8-10.8-6.3-15.6,0.8c-3.2,4.7-3.1,8.9-3.1,8.9l-0.3-10.2l-16,3.4l0,4l1.4-0.3c1.3-0.3,2.3-0.3,3,0c0.7,0.3,1.1,0.8,1.3,1.7
		c0.1,0.5,0.2,1.1,0.2,1.8c0,0.7,0.1,1.2,0.1,1.6v30l10.7-2.3l0.1-12.9c0.1-11.8,2.2-22.1,7.3-23.3c4-0.9,4.9,6.3,4.9,6.3
		C618.8,220.6,619.6,214.9,618.8,212.5L618.8,212.5z M682.7,227.6c-0.7,0.7-1.3,1.3-1.9,1.7c-0.6,0.4-1.2,0.7-2,0.9
		c-0.8,0.2-1.5,0-2-0.5c-0.5-0.5-0.9-1.2-1.1-2.3c-0.2-1-0.3-2.1-0.4-3.3c0-1.2-0.1-2.4-0.1-3.8l0-39.5l-16.9,3.6v4l1.6-0.4
		c0.7-0.1,1.3-0.2,1.8-0.3c0.5,0,0.9,0,1.3,0.2c0.3,0.2,0.6,0.4,0.8,0.8c0.2,0.4,0.4,0.9,0.5,1.5c0,0.1,0,0.2,0.1,0.5
		c0,0.2,0,0.5,0.1,0.8c0,0.3,0,0.6,0,1c0,0.3,0,0.7,0,1l0,29.1c0,3.8,0.2,6.7,0.6,8.8c0.5,2.3,1.6,4,3.3,4.9c1.7,1,4,1.2,6.7,0.6
		c1.3-0.3,2.5-0.7,3.5-1.2c1-0.5,1.9-1.1,2.7-1.8c0.8-0.7,1.5-1.4,2.1-2.1c0.6-0.7,1.1-1.5,1.5-2.2L682.7,227.6L682.7,227.6z"/>
	<path d="M383.6,574.7c-1.4,0-2.6,0.5-3.4,1.4c-0.8,0.9-1.2,2.2-1.2,3.8c0,1.6,0.4,2.9,1.2,3.8c0.8,0.9,1.9,1.4,3.3,1.4
		c1,0,1.8-0.1,2.6-0.4v0.7c-0.8,0.3-1.7,0.4-2.8,0.4c-1.6,0-2.9-0.5-3.8-1.6c-0.9-1-1.4-2.5-1.4-4.3c0-1.2,0.2-2.2,0.7-3.1
		s1.1-1.6,1.9-2s1.8-0.7,2.9-0.7c1.1,0,2.1,0.2,3,0.6l-0.3,0.7C385.4,574.9,384.5,574.7,383.6,574.7L383.6,574.7z M396.3,581.3
		c0,1.4-0.3,2.5-1,3.2c-0.7,0.8-1.6,1.2-2.8,1.2c-0.7,0-1.4-0.2-2-0.5s-1-0.9-1.3-1.5s-0.5-1.4-0.5-2.3c0-1.4,0.3-2.5,1-3.2
		s1.6-1.2,2.8-1.2c1.2,0,2.1,0.4,2.7,1.2S396.3,580,396.3,581.3L396.3,581.3z M389.6,581.3c0,1.2,0.3,2.1,0.8,2.7
		c0.5,0.7,1.2,1,2.2,1s1.7-0.3,2.2-1c0.5-0.7,0.8-1.6,0.8-2.7c0-1.2-0.3-2.1-0.8-2.7c-0.5-0.6-1.2-1-2.2-1c-0.9,0-1.7,0.3-2.2,1
		C389.9,579.2,389.6,580.2,389.6,581.3L389.6,581.3z M400.2,585.6h-0.8v-12.2h0.8V585.6z M404.7,585.6h-0.8v-12.2h0.8V585.6z
		 M413.5,585.6l-0.2-1.3h-0.1c-0.4,0.5-0.9,0.9-1.3,1.2s-1,0.3-1.6,0.3c-0.8,0-1.5-0.2-1.9-0.6c-0.5-0.4-0.7-1-0.7-1.8
		c0-0.8,0.3-1.5,1-1.9c0.7-0.5,1.7-0.7,3-0.7l1.6,0v-0.6c0-0.8-0.2-1.4-0.5-1.8c-0.3-0.4-0.9-0.6-1.6-0.6c-0.8,0-1.6,0.2-2.4,0.7
		l-0.3-0.7c0.9-0.4,1.9-0.7,2.8-0.7c0.9,0,1.6,0.2,2.1,0.7s0.7,1.2,0.7,2.3v5.6L413.5,585.6L413.5,585.6z M410.3,585
		c0.9,0,1.6-0.3,2.1-0.8c0.5-0.5,0.8-1.2,0.8-2.2v-0.8l-1.5,0.1c-1.2,0.1-2,0.2-2.5,0.6c-0.5,0.3-0.8,0.8-0.8,1.5
		c0,0.5,0.2,0.9,0.5,1.2C409.3,584.9,409.7,585,410.3,585L410.3,585z M421.2,576.9c1.2,0,2.1,0.4,2.7,1.1c0.6,0.7,0.9,1.8,0.9,3.3
		c0,1.4-0.3,2.5-1,3.3s-1.5,1.1-2.7,1.1c-0.6,0-1.1-0.1-1.6-0.4s-0.9-0.6-1.1-1.1h-0.1l-0.2,1.3h-0.5v-12.2h0.8v3.1
		c0,0.5,0,0.9,0,1.3l0,0.7h0.1c0.3-0.5,0.7-0.9,1.2-1.1C420,577,420.5,576.9,421.2,576.9L421.2,576.9z M421.1,577.6
		c-1,0-1.7,0.3-2.1,0.9c-0.4,0.6-0.6,1.5-0.6,2.8v0.1c0,1.3,0.2,2.2,0.7,2.8c0.5,0.6,1.2,0.8,2.1,0.8c0.9,0,1.6-0.3,2.1-1
		s0.7-1.6,0.7-2.8C423.9,578.9,423,577.6,421.1,577.6L421.1,577.6z M434.9,581.3c0,1.4-0.3,2.5-1,3.2c-0.7,0.8-1.6,1.2-2.8,1.2
		c-0.7,0-1.4-0.2-2-0.5s-1-0.9-1.3-1.5s-0.5-1.4-0.5-2.3c0-1.4,0.3-2.5,1-3.2s1.6-1.2,2.8-1.2c1.2,0,2.1,0.4,2.7,1.2
		S434.9,580,434.9,581.3L434.9,581.3z M428.2,581.3c0,1.2,0.3,2.1,0.8,2.7c0.5,0.7,1.2,1,2.2,1s1.7-0.3,2.2-1
		c0.5-0.7,0.8-1.6,0.8-2.7c0-1.2-0.3-2.1-0.8-2.7c-0.5-0.6-1.2-1-2.2-1s-1.7,0.3-2.2,1C428.5,579.2,428.2,580.2,428.2,581.3
		L428.2,581.3z M441.4,576.9c0.4,0,0.7,0,1.2,0.1l-0.1,0.7c-0.4-0.1-0.7-0.1-1.1-0.1c-0.7,0-1.3,0.3-1.8,0.9
		c-0.5,0.6-0.7,1.4-0.7,2.3v4.7h-0.8v-8.5h0.7l0.1,1.5h0.1c0.4-0.6,0.7-1.1,1.1-1.3C440.4,577.1,440.9,576.9,441.4,576.9
		L441.4,576.9z M450.3,585.6l-0.2-1.3H450c-0.4,0.5-0.9,0.9-1.3,1.2s-1,0.3-1.6,0.3c-0.8,0-1.5-0.2-1.9-0.6c-0.5-0.4-0.7-1-0.7-1.8
		c0-0.8,0.3-1.5,1-1.9c0.7-0.5,1.7-0.7,3-0.7l1.6,0v-0.6c0-0.8-0.2-1.4-0.5-1.8c-0.3-0.4-0.9-0.6-1.6-0.6c-0.8,0-1.6,0.2-2.4,0.7
		l-0.3-0.7c0.9-0.4,1.9-0.7,2.8-0.7c0.9,0,1.6,0.2,2.1,0.7s0.7,1.2,0.7,2.3v5.6L450.3,585.6L450.3,585.6z M447.1,585
		c0.9,0,1.6-0.3,2.1-0.8c0.5-0.5,0.8-1.2,0.8-2.2v-0.8l-1.5,0.1c-1.2,0.1-2,0.2-2.5,0.6c-0.5,0.3-0.8,0.8-0.8,1.5
		c0,0.5,0.2,0.9,0.5,1.2S446.5,585,447.1,585L447.1,585z M456.6,585.1c0.5,0,0.9,0,1.3-0.1v0.6c-0.4,0.1-0.8,0.2-1.3,0.2
		c-0.8,0-1.3-0.2-1.7-0.6c-0.4-0.4-0.5-1-0.5-1.9v-5.5h-1.3v-0.5l1.3-0.4l0.4-1.9h0.4v2.1h2.5v0.7h-2.5v5.4c0,0.7,0.1,1.1,0.3,1.4
		S456.1,585.1,456.6,585.1L456.6,585.1z M460.4,574.7c0-0.5,0.2-0.8,0.5-0.8c0.2,0,0.3,0.1,0.4,0.2c0.1,0.1,0.1,0.3,0.1,0.6
		c0,0.2,0,0.4-0.1,0.6c-0.1,0.1-0.2,0.2-0.4,0.2C460.6,575.5,460.4,575.2,460.4,574.7L460.4,574.7z M461.3,585.6h-0.8v-8.5h0.8
		V585.6z M472,581.3c0,1.4-0.3,2.5-1,3.2c-0.7,0.8-1.6,1.2-2.8,1.2c-0.7,0-1.4-0.2-2-0.5s-1-0.9-1.3-1.5s-0.5-1.4-0.5-2.3
		c0-1.4,0.3-2.5,1-3.2s1.6-1.2,2.8-1.2c1.2,0,2.1,0.4,2.7,1.2C471.6,578.9,472,580,472,581.3L472,581.3z M465.3,581.3
		c0,1.2,0.3,2.1,0.8,2.7c0.5,0.7,1.2,1,2.2,1s1.7-0.3,2.2-1c0.5-0.7,0.8-1.6,0.8-2.7c0-1.2-0.3-2.1-0.8-2.7c-0.5-0.6-1.2-1-2.2-1
		s-1.7,0.3-2.2,1C465.5,579.2,465.3,580.2,465.3,581.3L465.3,581.3z M481,585.6v-5.5c0-0.9-0.2-1.5-0.5-1.9
		c-0.4-0.4-0.9-0.6-1.7-0.6c-1,0-1.8,0.3-2.2,0.8c-0.5,0.5-0.7,1.3-0.7,2.5v4.7h-0.8v-8.5h0.7l0.1,1.2h0c0.6-0.9,1.5-1.3,2.9-1.3
		c1.9,0,2.9,1,2.9,3.1v5.6L481,585.6L481,585.6z M490.7,579.7c0-0.5,0.1-0.8,0.3-1c0.2-0.2,0.5-0.4,0.9-0.4s0.7,0.1,0.9,0.4
		c0.2,0.2,0.3,0.6,0.3,1c0,0.4-0.1,0.8-0.3,1s-0.5,0.4-0.9,0.4s-0.7-0.1-0.9-0.4C490.8,580.5,490.7,580.2,490.7,579.7L490.7,579.7z
		 M507.8,581.6h-4.6l-1.6,4h-0.9l4.6-11.5h0.5l4.5,11.5h-0.9L507.8,581.6z M503.4,580.8h4.1l-1.6-4.1c-0.1-0.3-0.3-0.8-0.5-1.3
		c-0.1,0.5-0.3,1-0.5,1.4L503.4,580.8L503.4,580.8z M513.2,577.1v5.5c0,0.9,0.2,1.5,0.5,1.9c0.4,0.4,0.9,0.6,1.7,0.6
		c1,0,1.8-0.3,2.2-0.8c0.5-0.5,0.7-1.3,0.7-2.5v-4.7h0.8v8.5h-0.7l-0.1-1.2h0c-0.6,0.9-1.5,1.3-2.9,1.3c-1.9,0-2.9-1-2.9-3.1v-5.5
		L513.2,577.1L513.2,577.1z M525,585.1c0.5,0,0.9,0,1.3-0.1v0.6c-0.4,0.1-0.8,0.2-1.3,0.2c-0.8,0-1.3-0.2-1.7-0.6
		c-0.4-0.4-0.5-1-0.5-1.9v-5.5h-1.3v-0.5l1.3-0.4l0.4-1.9h0.4v2.1h2.5v0.7h-2.5v5.4c0,0.7,0.1,1.1,0.3,1.4S524.5,585.1,525,585.1z
		 M535.9,581.3c0,1.4-0.3,2.5-1,3.2c-0.7,0.8-1.6,1.2-2.8,1.2c-0.7,0-1.4-0.2-2-0.5s-1-0.9-1.3-1.5s-0.5-1.4-0.5-2.3
		c0-1.4,0.3-2.5,1-3.2s1.6-1.2,2.8-1.2c1.2,0,2.1,0.4,2.7,1.2S535.9,580,535.9,581.3L535.9,581.3z M529.2,581.3
		c0,1.2,0.3,2.1,0.8,2.7c0.5,0.7,1.2,1,2.2,1s1.7-0.3,2.2-1c0.5-0.7,0.8-1.6,0.8-2.7c0-1.2-0.3-2.1-0.8-2.7c-0.5-0.6-1.2-1-2.2-1
		s-1.7,0.3-2.2,1C529.5,579.2,529.2,580.2,529.2,581.3L529.2,581.3z M545,585.6v-5.5c0-0.9-0.2-1.5-0.5-1.9
		c-0.4-0.4-0.9-0.6-1.7-0.6c-1,0-1.8,0.3-2.2,0.8c-0.5,0.5-0.7,1.3-0.7,2.5v4.7h-0.8v-8.5h0.7l0.1,1.2h0c0.5-0.9,1.5-1.3,2.9-1.3
		c1.9,0,2.9,1,2.9,3.1v5.6L545,585.6L545,585.6z M556.3,581.3c0,1.4-0.3,2.5-1,3.2c-0.7,0.8-1.6,1.2-2.8,1.2c-0.7,0-1.4-0.2-2-0.5
		s-1-0.9-1.3-1.5s-0.5-1.4-0.5-2.3c0-1.4,0.3-2.5,1-3.2s1.6-1.2,2.8-1.2c1.2,0,2.1,0.4,2.7,1.2C556,578.9,556.3,580,556.3,581.3
		L556.3,581.3z M549.6,581.3c0,1.2,0.3,2.1,0.8,2.7c0.5,0.7,1.2,1,2.2,1s1.7-0.3,2.2-1c0.5-0.7,0.8-1.6,0.8-2.7
		c0-1.2-0.3-2.1-0.8-2.7c-0.5-0.6-1.2-1-2.2-1s-1.7,0.3-2.2,1C549.9,579.2,549.6,580.2,549.6,581.3L549.6,581.3z M570.1,585.6V580
		c0-0.8-0.2-1.4-0.5-1.8s-0.8-0.6-1.5-0.6c-0.9,0-1.5,0.2-1.9,0.7c-0.4,0.5-0.6,1.2-0.6,2.3v5h-0.8v-5.8c0-1.4-0.7-2.1-2-2.1
		c-0.9,0-1.5,0.3-1.9,0.8c-0.4,0.5-0.6,1.3-0.6,2.5v4.7h-0.8v-8.5h0.6l0.2,1.2h0c0.2-0.4,0.6-0.8,1-1c0.4-0.2,0.9-0.3,1.4-0.3
		c1.3,0,2.2,0.5,2.6,1.5h0c0.3-0.5,0.6-0.9,1.1-1.1c0.5-0.3,1-0.4,1.6-0.4c0.9,0,1.6,0.2,2.1,0.7c0.5,0.5,0.7,1.3,0.7,2.4v5.6
		L570.1,585.6L570.1,585.6z M573,577.1h0.8l1.8,4.8c0.5,1.5,0.9,2.5,1,3h0c0.2-0.7,0.6-1.7,1.1-3l1.8-4.7h0.8l-3.8,9.9
		c-0.3,0.8-0.6,1.3-0.8,1.6s-0.5,0.5-0.7,0.6s-0.6,0.2-1,0.2c-0.3,0-0.6-0.1-1-0.2v-0.7c0.3,0.1,0.6,0.1,1,0.1
		c0.3,0,0.5-0.1,0.7-0.2s0.4-0.3,0.5-0.6c0.2-0.3,0.4-0.7,0.6-1.2s0.4-0.9,0.4-1.1L573,577.1L573,577.1z M587.9,579.7
		c0-0.5,0.1-0.8,0.3-1c0.2-0.2,0.5-0.4,0.9-0.4s0.7,0.1,0.9,0.4c0.2,0.2,0.3,0.6,0.3,1c0,0.4-0.1,0.8-0.3,1
		c-0.2,0.2-0.5,0.4-0.9,0.4s-0.7-0.1-0.9-0.4C588,580.5,587.9,580.2,587.9,579.7L587.9,579.7z M602.4,585.6h-0.8v-10.7h-3.7v-0.8
		h8.2v0.8h-3.7L602.4,585.6L602.4,585.6z M611.8,576.9c0.4,0,0.7,0,1.2,0.1l-0.1,0.7c-0.4-0.1-0.7-0.1-1.1-0.1
		c-0.7,0-1.3,0.3-1.8,0.9c-0.5,0.6-0.7,1.4-0.7,2.3v4.7h-0.8v-8.5h0.7l0.1,1.5h0.1c0.3-0.6,0.7-1.1,1.1-1.3
		C610.8,577.1,611.2,576.9,611.8,576.9L611.8,576.9z M620.6,585.6l-0.2-1.3h-0.1c-0.4,0.5-0.9,0.9-1.3,1.2c-0.4,0.2-1,0.3-1.6,0.3
		c-0.8,0-1.5-0.2-1.9-0.6c-0.5-0.4-0.7-1-0.7-1.8c0-0.8,0.3-1.5,1-1.9c0.7-0.5,1.7-0.7,3-0.7l1.6,0v-0.6c0-0.8-0.2-1.4-0.5-1.8
		c-0.3-0.4-0.9-0.6-1.6-0.6c-0.8,0-1.6,0.2-2.4,0.7l-0.3-0.7c0.9-0.4,1.9-0.7,2.8-0.7c0.9,0,1.6,0.2,2.1,0.7
		c0.5,0.5,0.7,1.2,0.7,2.3v5.6L620.6,585.6L620.6,585.6z M617.5,585c0.9,0,1.6-0.3,2.1-0.8c0.5-0.5,0.8-1.2,0.8-2.2v-0.8l-1.5,0.1
		c-1.2,0.1-2,0.2-2.5,0.6c-0.5,0.3-0.8,0.8-0.8,1.5c0,0.5,0.2,0.9,0.5,1.2C616.5,584.9,616.9,585,617.5,585L617.5,585z M630.7,585.6
		v-5.5c0-0.9-0.2-1.5-0.5-1.9c-0.4-0.4-0.9-0.6-1.7-0.6c-1,0-1.8,0.3-2.2,0.8c-0.5,0.5-0.7,1.3-0.7,2.5v4.7h-0.8v-8.5h0.7l0.1,1.2h0
		c0.6-0.9,1.5-1.3,2.9-1.3c1.9,0,2.9,1,2.9,3.1v5.6L630.7,585.6L630.7,585.6z M640.3,583.4c0,0.8-0.3,1.3-0.9,1.8
		c-0.6,0.4-1.4,0.6-2.5,0.6c-1.1,0-2-0.2-2.7-0.5v-0.8c0.9,0.4,1.8,0.6,2.7,0.6c0.8,0,1.5-0.1,1.9-0.4c0.4-0.3,0.7-0.7,0.7-1.1
		c0-0.4-0.2-0.8-0.5-1.1c-0.3-0.3-0.9-0.6-1.7-0.9c-0.8-0.3-1.4-0.6-1.8-0.8c-0.3-0.2-0.6-0.5-0.8-0.8c-0.2-0.3-0.3-0.6-0.3-1
		c0-0.6,0.3-1.1,0.8-1.5c0.5-0.4,1.3-0.6,2.2-0.6c0.9,0,1.8,0.2,2.6,0.5l-0.3,0.7c-0.8-0.3-1.6-0.5-2.3-0.5c-0.7,0-1.2,0.1-1.6,0.3
		c-0.4,0.2-0.6,0.5-0.6,1c0,0.4,0.2,0.8,0.5,1.1s0.9,0.6,1.8,0.9c0.8,0.3,1.3,0.5,1.7,0.7c0.3,0.2,0.6,0.5,0.8,0.8
		S640.3,583,640.3,583.4L640.3,583.4z M646.9,585.7c-1.3,0-2.3-0.5-2.9-1.5H644l0,0.7c0,0.4,0,0.8,0,1.3v3.2h-0.8v-12.3h0.7l0.1,1.2
		h0c0.6-0.9,1.5-1.4,2.8-1.4c1.1,0,2,0.4,2.6,1.1c0.6,0.8,0.9,1.8,0.9,3.3c0,1.4-0.3,2.5-1,3.2C648.8,585.4,648,585.7,646.9,585.7
		L646.9,585.7z M646.9,585.1c0.9,0,1.5-0.3,2-1c0.5-0.6,0.7-1.5,0.7-2.7c0-2.5-0.9-3.7-2.7-3.7c-1,0-1.7,0.3-2.2,0.8
		c-0.5,0.5-0.7,1.4-0.7,2.7v0.2c0,1.3,0.2,2.3,0.7,2.8C645.1,584.8,645.9,585.1,646.9,585.1L646.9,585.1z M658.7,585.6l-0.2-1.3
		h-0.1c-0.4,0.5-0.9,0.9-1.3,1.2s-1,0.3-1.6,0.3c-0.8,0-1.5-0.2-1.9-0.6c-0.5-0.4-0.7-1-0.7-1.8c0-0.8,0.3-1.5,1-1.9
		c0.7-0.5,1.7-0.7,3-0.7l1.6,0v-0.6c0-0.8-0.2-1.4-0.5-1.8c-0.3-0.4-0.9-0.6-1.6-0.6c-0.8,0-1.6,0.2-2.4,0.7l-0.3-0.7
		c0.9-0.4,1.9-0.7,2.8-0.7c0.9,0,1.6,0.2,2.1,0.7s0.7,1.2,0.7,2.3v5.6L658.7,585.6L658.7,585.6z M655.6,585c0.9,0,1.6-0.3,2.1-0.8
		c0.5-0.5,0.8-1.2,0.8-2.2v-0.8l-1.5,0.1c-1.2,0.1-2,0.2-2.5,0.6c-0.5,0.3-0.8,0.8-0.8,1.5c0,0.5,0.2,0.9,0.5,1.2
		C654.6,584.9,655,585,655.6,585L655.6,585z M666.2,576.9c0.4,0,0.7,0,1.2,0.1l-0.1,0.7c-0.4-0.1-0.7-0.1-1.1-0.1
		c-0.7,0-1.3,0.3-1.8,0.9c-0.5,0.6-0.7,1.4-0.7,2.3v4.7h-0.8v-8.5h0.7l0.1,1.5h0.1c0.3-0.6,0.7-1.1,1.1-1.3
		C665.2,577.1,665.6,576.9,666.2,576.9L666.2,576.9z M673.3,585.7c-1.2,0-2.2-0.4-2.9-1.1c-0.7-0.8-1-1.8-1-3.2c0-1.4,0.3-2.4,1-3.3
		c0.7-0.8,1.6-1.2,2.7-1.2c1,0,1.8,0.3,2.4,1c0.6,0.7,0.9,1.6,0.9,2.8v0.6h-6.1c0,1.2,0.3,2.1,0.8,2.7c0.5,0.6,1.3,0.9,2.3,0.9
		c0.5,0,0.9,0,1.3-0.1c0.4-0.1,0.8-0.2,1.4-0.4v0.7c-0.5,0.2-0.9,0.3-1.3,0.4S673.8,585.7,673.3,585.7L673.3,585.7z M673.1,577.6
		c-0.8,0-1.5,0.3-2,0.8s-0.8,1.3-0.9,2.3h5.2c0-1-0.2-1.8-0.6-2.3S673.8,577.6,673.1,577.6L673.1,577.6z M685.4,585.6v-5.5
		c0-0.9-0.2-1.5-0.5-1.9c-0.4-0.4-0.9-0.6-1.7-0.6c-1,0-1.8,0.3-2.2,0.8c-0.5,0.5-0.7,1.3-0.7,2.5v4.7h-0.8v-8.5h0.7l0.1,1.2h0
		c0.6-0.9,1.5-1.3,2.9-1.3c1.9,0,2.9,1,2.9,3.1v5.6L685.4,585.6L685.4,585.6z M693.1,585.7c-1.2,0-2.2-0.4-2.9-1.1s-1-1.8-1-3.2
		c0-1.4,0.4-2.5,1.1-3.3c0.7-0.8,1.7-1.2,2.9-1.2c0.7,0,1.4,0.1,2.1,0.4l-0.2,0.7c-0.7-0.2-1.4-0.4-1.9-0.4c-1,0-1.8,0.3-2.4,1
		c-0.5,0.6-0.8,1.6-0.8,2.8c0,1.1,0.3,2,0.8,2.7s1.3,1,2.2,1c0.8,0,1.5-0.1,2.1-0.4v0.7C694.7,585.6,694,585.7,693.1,585.7
		L693.1,585.7z M696.7,577.1h0.8l1.8,4.8c0.5,1.5,0.9,2.5,1,3h0c0.2-0.7,0.6-1.7,1.1-3l1.8-4.7h0.8l-3.8,9.9
		c-0.3,0.8-0.6,1.3-0.8,1.6s-0.5,0.5-0.7,0.6s-0.6,0.2-1,0.2c-0.3,0-0.6-0.1-1-0.2v-0.7c0.3,0.1,0.6,0.1,1,0.1
		c0.3,0,0.5-0.1,0.7-0.2s0.4-0.3,0.6-0.6c0.2-0.3,0.4-0.7,0.6-1.2s0.4-0.9,0.4-1.1L696.7,577.1L696.7,577.1z M711.6,579.7
		c0-0.5,0.1-0.8,0.3-1c0.2-0.2,0.5-0.4,0.9-0.4s0.7,0.1,0.9,0.4c0.2,0.2,0.3,0.6,0.3,1c0,0.4-0.1,0.8-0.3,1s-0.5,0.4-0.9,0.4
		s-0.7-0.1-0.9-0.4C711.7,580.5,711.6,580.2,711.6,579.7L711.6,579.7z M731.8,579.8c0,1.9-0.5,3.4-1.5,4.3c-1,1-2.5,1.5-4.4,1.5
		h-2.7v-11.4h3.1c1.8,0,3.2,0.5,4.2,1.4S731.8,577.9,731.8,579.8L731.8,579.8z M731,579.8c0-1.6-0.4-2.9-1.2-3.7
		c-0.8-0.8-2-1.2-3.7-1.2H724v10h1.9C729.3,584.9,731,583.2,731,579.8L731,579.8z M735,574.7c0-0.5,0.2-0.8,0.5-0.8
		c0.2,0,0.3,0.1,0.4,0.2c0.1,0.1,0.1,0.3,0.1,0.6c0,0.2,0,0.4-0.1,0.6c-0.1,0.1-0.2,0.2-0.4,0.2C735.1,575.5,735,575.2,735,574.7
		L735,574.7z M735.8,585.6h-0.8v-8.5h0.8V585.6z M741.3,585.6l-3.3-8.5h0.8l2.2,5.8c0.3,0.7,0.5,1.4,0.7,1.9h0
		c0.2-0.7,0.4-1.4,0.7-2l2.2-5.8h0.8l-3.3,8.5L741.3,585.6L741.3,585.6z M751.1,585.7c-1.2,0-2.2-0.4-2.9-1.1c-0.7-0.8-1-1.8-1-3.2
		c0-1.4,0.3-2.4,1-3.3c0.7-0.8,1.6-1.2,2.7-1.2c1,0,1.8,0.3,2.4,1c0.6,0.7,0.9,1.6,0.9,2.8v0.6H748c0,1.2,0.3,2.1,0.8,2.7
		c0.5,0.6,1.3,0.9,2.3,0.9c0.5,0,0.9,0,1.3-0.1c0.4-0.1,0.8-0.2,1.4-0.4v0.7c-0.5,0.2-0.9,0.3-1.3,0.4S751.5,585.7,751.1,585.7
		L751.1,585.7z M750.8,577.6c-0.8,0-1.5,0.3-2,0.8s-0.8,1.3-0.9,2.3h5.2c0-1-0.2-1.8-0.6-2.3S751.6,577.6,750.8,577.6L750.8,577.6z
		 M760.6,576.9c0.4,0,0.7,0,1.2,0.1l-0.1,0.7c-0.4-0.1-0.7-0.1-1.1-0.1c-0.7,0-1.3,0.3-1.8,0.9c-0.5,0.6-0.7,1.4-0.7,2.3v4.7h-0.8
		v-8.5h0.7l0.1,1.5h0.1c0.3-0.6,0.7-1.1,1.1-1.3C759.5,577.1,760,576.9,760.6,576.9L760.6,576.9z M769.5,583.4
		c0,0.8-0.3,1.3-0.9,1.8c-0.6,0.4-1.4,0.6-2.5,0.6c-1.1,0-2-0.2-2.7-0.5v-0.8c0.9,0.4,1.8,0.6,2.7,0.6c0.8,0,1.5-0.1,1.9-0.4
		c0.4-0.3,0.7-0.7,0.7-1.1c0-0.4-0.2-0.8-0.5-1.1c-0.3-0.3-0.9-0.6-1.7-0.9c-0.8-0.3-1.4-0.6-1.8-0.8c-0.3-0.2-0.6-0.5-0.8-0.8
		c-0.2-0.3-0.3-0.6-0.3-1c0-0.6,0.3-1.1,0.8-1.5c0.5-0.4,1.3-0.6,2.2-0.6c0.9,0,1.8,0.2,2.6,0.5l-0.3,0.7c-0.8-0.3-1.6-0.5-2.3-0.5
		c-0.7,0-1.2,0.1-1.6,0.3c-0.4,0.2-0.6,0.5-0.6,1c0,0.4,0.2,0.8,0.5,1.1s0.9,0.6,1.8,0.9c0.8,0.3,1.3,0.5,1.7,0.7
		c0.3,0.2,0.6,0.5,0.8,0.8S769.5,583,769.5,583.4L769.5,583.4z M772.4,574.7c0-0.5,0.2-0.8,0.5-0.8c0.2,0,0.3,0.1,0.4,0.2
		c0.1,0.1,0.1,0.3,0.1,0.6c0,0.2,0,0.4-0.1,0.6c-0.1,0.1-0.2,0.2-0.4,0.2C772.5,575.5,772.4,575.2,772.4,574.7L772.4,574.7z
		 M773.3,585.6h-0.8v-8.5h0.8V585.6z M779.2,585.1c0.5,0,0.9,0,1.3-0.1v0.6c-0.4,0.1-0.8,0.2-1.3,0.2c-0.8,0-1.3-0.2-1.7-0.6
		c-0.4-0.4-0.5-1-0.5-1.9v-5.5h-1.3v-0.5l1.3-0.4l0.4-1.9h0.4v2.1h2.5v0.7h-2.5v5.4c0,0.7,0.1,1.1,0.3,1.4S778.7,585.1,779.2,585.1
		L779.2,585.1z M781.6,577.1h0.8l1.8,4.8c0.5,1.5,0.9,2.5,1,3h0c0.2-0.7,0.6-1.7,1.1-3l1.8-4.7h0.8l-3.8,9.9
		c-0.3,0.8-0.6,1.3-0.8,1.6s-0.5,0.5-0.7,0.6s-0.6,0.2-1,0.2c-0.3,0-0.6-0.1-1-0.2v-0.7c0.3,0.1,0.6,0.1,1,0.1
		c0.3,0,0.5-0.1,0.7-0.2s0.4-0.3,0.5-0.6c0.2-0.3,0.4-0.7,0.6-1.2s0.4-0.9,0.4-1.1L781.6,577.1L781.6,577.1z M450.3,610.6H444v-11.4
		h6.2v0.7h-5.4v4.3h5.1v0.7h-5.1v4.9h5.4L450.3,610.6L450.3,610.6z M459.4,610.6v-5.5c0-0.9-0.2-1.5-0.5-1.9
		c-0.4-0.4-0.9-0.6-1.7-0.6c-1,0-1.8,0.3-2.2,0.8c-0.5,0.5-0.7,1.3-0.7,2.5v4.7h-0.8v-8.5h0.7l0.1,1.2h0c0.6-0.9,1.5-1.3,2.9-1.3
		c1.9,0,2.9,1,2.9,3.1v5.6L459.4,610.6L459.4,610.6z M465.9,610.1c0.5,0,0.9,0,1.3-0.1v0.6c-0.4,0.1-0.8,0.2-1.3,0.2
		c-0.8,0-1.3-0.2-1.7-0.6s-0.5-1-0.5-1.9v-5.5h-1.3v-0.5l1.3-0.4l0.4-1.9h0.4v2.1h2.5v0.7h-2.5v5.4c0,0.7,0.1,1.1,0.3,1.4
		S465.4,610.1,465.9,610.1z M473.2,601.9c0.4,0,0.7,0,1.2,0.1l-0.1,0.7c-0.4-0.1-0.7-0.1-1.1-0.1c-0.7,0-1.3,0.3-1.8,0.9
		c-0.5,0.6-0.7,1.4-0.7,2.3v4.7h-0.8v-8.5h0.7l0.1,1.5h0.1c0.4-0.6,0.7-1.1,1.1-1.3C472.1,602.1,472.6,601.9,473.2,601.9
		L473.2,601.9z M480.3,610.7c-1.2,0-2.2-0.4-2.9-1.1s-1-1.8-1-3.2c0-1.4,0.3-2.4,1-3.3c0.7-0.8,1.6-1.2,2.7-1.2c1,0,1.8,0.3,2.4,1
		c0.6,0.7,0.9,1.6,0.9,2.8v0.6h-6.1c0,1.2,0.3,2.1,0.8,2.7c0.5,0.6,1.3,0.9,2.3,0.9c0.5,0,0.9,0,1.3-0.1s0.8-0.2,1.4-0.4v0.7
		c-0.5,0.2-0.9,0.3-1.3,0.4C481.2,610.7,480.8,610.7,480.3,610.7L480.3,610.7z M480.1,602.6c-0.8,0-1.5,0.3-2,0.8s-0.8,1.3-0.9,2.3
		h5.2c0-1-0.2-1.8-0.6-2.3S480.8,602.6,480.1,602.6L480.1,602.6z M490.1,610.7c-1.3,0-2.3-0.5-2.9-1.5h-0.1l0,0.7c0,0.4,0,0.8,0,1.3
		v3.2h-0.8v-12.3h0.7l0.1,1.2h0c0.6-0.9,1.5-1.4,2.8-1.4c1.1,0,2,0.4,2.6,1.1c0.6,0.8,0.9,1.8,0.9,3.3c0,1.4-0.3,2.5-1,3.2
		S491.2,610.7,490.1,610.7L490.1,610.7z M490.1,610.1c0.9,0,1.5-0.3,2-1c0.5-0.6,0.7-1.5,0.7-2.7c0-2.5-0.9-3.7-2.7-3.7
		c-1,0-1.7,0.3-2.2,0.8c-0.5,0.5-0.7,1.4-0.7,2.7v0.2c0,1.3,0.2,2.3,0.7,2.8C488.3,609.8,489.1,610.1,490.1,610.1L490.1,610.1z
		 M500.1,601.9c0.4,0,0.7,0,1.2,0.1l-0.1,0.7c-0.4-0.1-0.7-0.1-1.1-0.1c-0.7,0-1.3,0.3-1.8,0.9c-0.5,0.6-0.7,1.4-0.7,2.3v4.7h-0.8
		v-8.5h0.7l0.1,1.5h0.1c0.4-0.6,0.7-1.1,1.1-1.3C499.1,602.1,499.6,601.9,500.1,601.9L500.1,601.9z M507.2,610.7
		c-1.2,0-2.2-0.4-2.9-1.1s-1-1.8-1-3.2c0-1.4,0.3-2.4,1-3.3c0.7-0.8,1.6-1.2,2.7-1.2c1,0,1.8,0.3,2.4,1c0.6,0.7,0.9,1.6,0.9,2.8v0.6
		h-6.1c0,1.2,0.3,2.1,0.8,2.7c0.5,0.6,1.3,0.9,2.3,0.9c0.5,0,0.9,0,1.3-0.1s0.8-0.2,1.4-0.4v0.7c-0.5,0.2-0.9,0.3-1.3,0.4
		C508.2,610.7,507.7,610.7,507.2,610.7L507.2,610.7z M507,602.6c-0.8,0-1.5,0.3-2,0.8s-0.8,1.3-0.9,2.3h5.2c0-1-0.2-1.8-0.6-2.3
		S507.8,602.6,507,602.6L507,602.6z M519.3,610.6v-5.5c0-0.9-0.2-1.5-0.5-1.9c-0.4-0.4-0.9-0.6-1.7-0.6c-1,0-1.8,0.3-2.2,0.8
		c-0.5,0.5-0.7,1.3-0.7,2.5v4.7h-0.8v-8.5h0.7l0.1,1.2h0c0.6-0.9,1.5-1.3,2.9-1.3c1.9,0,2.9,1,2.9,3.1v5.6L519.3,610.6L519.3,610.6z
		 M527,610.7c-1.2,0-2.2-0.4-2.9-1.1s-1-1.8-1-3.2c0-1.4,0.3-2.4,1-3.3c0.7-0.8,1.6-1.2,2.7-1.2c1,0,1.8,0.3,2.4,1
		c0.6,0.7,0.9,1.6,0.9,2.8v0.6h-6.1c0,1.2,0.3,2.1,0.8,2.7c0.5,0.6,1.3,0.9,2.3,0.9c0.5,0,0.9,0,1.3-0.1s0.8-0.2,1.4-0.4v0.7
		c-0.5,0.2-0.9,0.3-1.3,0.4C528,610.7,527.5,610.7,527,610.7L527,610.7z M526.8,602.6c-0.8,0-1.5,0.3-2,0.8s-0.8,1.3-0.9,2.3h5.2
		c0-1-0.2-1.8-0.6-2.3S527.6,602.6,526.8,602.6L526.8,602.6z M533.9,602.1v5.5c0,0.9,0.2,1.5,0.5,1.9c0.4,0.4,0.9,0.6,1.7,0.6
		c1,0,1.8-0.3,2.2-0.8c0.5-0.5,0.7-1.3,0.7-2.5v-4.7h0.8v8.5h-0.7l-0.1-1.2h0c-0.6,0.9-1.5,1.3-2.9,1.3c-1.9,0-2.9-1-2.9-3.1v-5.5
		L533.9,602.1L533.9,602.1z M546.8,601.9c0.4,0,0.7,0,1.2,0.1l-0.1,0.7c-0.4-0.1-0.7-0.1-1.1-0.1c-0.7,0-1.3,0.3-1.8,0.9
		c-0.5,0.6-0.7,1.4-0.7,2.3v4.7h-0.8v-8.5h0.7l0.1,1.5h0.1c0.4-0.6,0.7-1.1,1.1-1.3C545.7,602.1,546.2,601.9,546.8,601.9
		L546.8,601.9z M550.4,599.7c0-0.5,0.2-0.8,0.5-0.8c0.2,0,0.3,0.1,0.4,0.2c0.1,0.1,0.1,0.3,0.1,0.6c0,0.2,0,0.4-0.1,0.6
		c-0.1,0.1-0.2,0.2-0.4,0.2C550.5,600.5,550.4,600.2,550.4,599.7L550.4,599.7z M551.2,610.6h-0.8v-8.5h0.8V610.6z M560,610.6
		l-0.2-1.3h-0.1c-0.4,0.5-0.9,0.9-1.3,1.2c-0.5,0.2-1,0.3-1.6,0.3c-0.8,0-1.5-0.2-1.9-0.6s-0.7-1-0.7-1.8c0-0.8,0.3-1.5,1-1.9
		c0.7-0.5,1.7-0.7,3-0.7l1.6,0v-0.6c0-0.8-0.2-1.4-0.5-1.8c-0.3-0.4-0.9-0.6-1.6-0.6c-0.8,0-1.6,0.2-2.4,0.7l-0.3-0.7
		c0.9-0.4,1.9-0.7,2.8-0.7c0.9,0,1.6,0.2,2.1,0.7s0.7,1.2,0.7,2.3v5.6L560,610.6L560,610.6z M556.9,610c0.9,0,1.6-0.3,2.1-0.8
		c0.5-0.5,0.8-1.2,0.8-2.2v-0.8l-1.5,0.1c-1.2,0.1-2,0.2-2.5,0.6c-0.5,0.3-0.8,0.8-0.8,1.5c0,0.5,0.2,0.9,0.5,1.2
		C555.9,609.9,556.3,610,556.9,610L556.9,610z M564.9,610.6h-0.8v-12.2h0.8L564.9,610.6L564.9,610.6z M568.5,599.7
		c0-0.5,0.2-0.8,0.5-0.8c0.2,0,0.3,0.1,0.4,0.2c0.1,0.1,0.1,0.3,0.1,0.6c0,0.2,0,0.4-0.1,0.6c-0.1,0.1-0.2,0.2-0.4,0.2
		C568.6,600.5,568.5,600.2,568.5,599.7L568.5,599.7z M569.3,610.6h-0.8v-8.5h0.8V610.6z M578.3,608.4c0,0.8-0.3,1.3-0.9,1.8
		c-0.6,0.4-1.4,0.6-2.5,0.6c-1.1,0-2-0.2-2.7-0.5v-0.8c0.9,0.4,1.8,0.6,2.7,0.6c0.8,0,1.5-0.1,1.9-0.4c0.4-0.3,0.7-0.7,0.7-1.1
		c0-0.4-0.2-0.8-0.5-1.1c-0.3-0.3-0.9-0.6-1.7-0.9c-0.9-0.3-1.4-0.6-1.8-0.8c-0.3-0.2-0.6-0.5-0.8-0.8c-0.2-0.3-0.3-0.6-0.3-1
		c0-0.6,0.3-1.1,0.8-1.5c0.5-0.4,1.3-0.6,2.2-0.6c0.9,0,1.8,0.2,2.6,0.5l-0.3,0.7c-0.8-0.3-1.6-0.5-2.3-0.5c-0.7,0-1.2,0.1-1.6,0.3
		c-0.4,0.2-0.6,0.5-0.6,1c0,0.4,0.2,0.8,0.5,1.1c0.3,0.3,0.9,0.6,1.9,0.9c0.8,0.3,1.3,0.5,1.7,0.7c0.4,0.2,0.6,0.5,0.8,0.8
		S578.3,608,578.3,608.4L578.3,608.4z M591.9,610.6V605c0-0.8-0.2-1.4-0.5-1.8c-0.3-0.4-0.8-0.6-1.5-0.6c-0.9,0-1.5,0.2-1.9,0.7
		c-0.4,0.5-0.6,1.2-0.6,2.3v5h-0.8v-5.8c0-1.4-0.7-2.1-2-2.1c-0.9,0-1.5,0.3-1.9,0.8c-0.4,0.5-0.6,1.3-0.6,2.5v4.7h-0.8v-8.5h0.6
		l0.2,1.2h0c0.2-0.4,0.6-0.8,1-1c0.4-0.2,0.9-0.3,1.4-0.3c1.3,0,2.2,0.5,2.6,1.5h0c0.3-0.5,0.6-0.9,1.1-1.1c0.5-0.3,1-0.4,1.6-0.4
		c0.9,0,1.6,0.2,2.1,0.7c0.5,0.5,0.7,1.3,0.7,2.4v5.6L591.9,610.6L591.9,610.6z M601.5,604.7c0-0.5,0.1-0.8,0.3-1
		c0.2-0.2,0.5-0.4,0.9-0.4s0.7,0.1,0.9,0.4c0.2,0.2,0.3,0.6,0.3,1c0,0.4-0.1,0.8-0.3,1s-0.5,0.4-0.9,0.4s-0.7-0.1-0.9-0.4
		C601.6,605.5,601.5,605.2,601.5,604.7L601.5,604.7z M621.4,610.6h-0.8l-6.8-10.1h-0.1c0.1,1.2,0.1,2.1,0.1,2.7v7.4h-0.8v-11.4h0.8
		l6.8,10.1h0c0-0.9-0.1-1.8-0.1-2.7v-7.5h0.8L621.4,610.6L621.4,610.6z M632.3,606.3c0,1.4-0.3,2.5-1,3.2s-1.6,1.2-2.8,1.2
		c-0.7,0-1.4-0.2-2-0.5s-1-0.9-1.3-1.5s-0.5-1.4-0.5-2.3c0-1.4,0.3-2.5,1-3.2s1.6-1.2,2.8-1.2c1.2,0,2.1,0.4,2.7,1.2
		C631.9,603.9,632.3,605,632.3,606.3L632.3,606.3z M625.6,606.3c0,1.2,0.3,2.1,0.8,2.7c0.5,0.7,1.2,1,2.2,1s1.7-0.3,2.2-1
		c0.5-0.7,0.8-1.6,0.8-2.7c0-1.2-0.3-2.1-0.8-2.7c-0.5-0.6-1.2-1-2.2-1s-1.7,0.3-2.2,1C625.8,604.2,625.6,605.2,625.6,606.3
		L625.6,606.3z M641.3,610.6v-5.5c0-0.9-0.2-1.5-0.5-1.9c-0.4-0.4-0.9-0.6-1.7-0.6c-1,0-1.8,0.3-2.2,0.8c-0.5,0.5-0.7,1.3-0.7,2.5
		v4.7h-0.8v-8.5h0.7l0.1,1.2h0c0.6-0.9,1.5-1.3,2.9-1.3c1.9,0,2.9,1,2.9,3.1v5.6L641.3,610.6L641.3,610.6z M644.9,606.6v-0.6h3.7
		v0.6H644.9z M657.5,610.6v-5.5c0-0.9-0.2-1.5-0.5-1.9c-0.4-0.4-0.9-0.6-1.7-0.6c-1,0-1.8,0.3-2.2,0.8c-0.5,0.5-0.7,1.3-0.7,2.5v4.7
		h-0.8v-12.2h0.8v3.9l0,1.1h0.1c0.3-0.5,0.7-0.9,1.2-1.1c0.5-0.2,1.1-0.3,1.8-0.3c1.9,0,2.9,1,2.9,3.1v5.6L657.5,610.6L657.5,610.6z
		 M661.7,599.7c0-0.5,0.2-0.8,0.5-0.8c0.2,0,0.3,0.1,0.4,0.2c0.1,0.1,0.1,0.3,0.1,0.6c0,0.2,0,0.4-0.1,0.6c-0.1,0.1-0.2,0.2-0.4,0.2
		C661.9,600.5,661.7,600.2,661.7,599.7L661.7,599.7z M662.6,610.6h-0.8v-8.5h0.8V610.6z M669.7,610.7c-1.2,0-2.2-0.4-2.9-1.1
		s-1-1.8-1-3.2c0-1.4,0.3-2.4,1-3.3c0.7-0.8,1.6-1.2,2.7-1.2c1,0,1.8,0.3,2.4,1c0.6,0.7,0.9,1.6,0.9,2.8v0.6h-6.1
		c0,1.2,0.3,2.1,0.8,2.7c0.5,0.6,1.3,0.9,2.3,0.9c0.5,0,0.9,0,1.3-0.1s0.8-0.2,1.4-0.4v0.7c-0.5,0.2-0.9,0.3-1.3,0.4
		C670.6,610.7,670.2,610.7,669.7,610.7L669.7,610.7z M669.5,602.6c-0.8,0-1.5,0.3-2,0.8s-0.8,1.3-0.9,2.3h5.2c0-1-0.2-1.8-0.6-2.3
		S670.2,602.6,669.5,602.6L669.5,602.6z M679.2,601.9c0.4,0,0.7,0,1.2,0.1l-0.1,0.7c-0.4-0.1-0.7-0.1-1.1-0.1
		c-0.7,0-1.3,0.3-1.8,0.9c-0.5,0.6-0.7,1.4-0.7,2.3v4.7h-0.8v-8.5h0.7l0.1,1.5h0.1c0.3-0.6,0.7-1.1,1.1-1.3
		C678.1,602.1,678.6,601.9,679.2,601.9L679.2,601.9z M688,610.6l-0.2-1.3h-0.1c-0.4,0.5-0.9,0.9-1.3,1.2s-1,0.3-1.6,0.3
		c-0.8,0-1.5-0.2-1.9-0.6s-0.7-1-0.7-1.8c0-0.8,0.3-1.5,1-1.9c0.7-0.5,1.7-0.7,3-0.7l1.6,0v-0.6c0-0.8-0.2-1.4-0.5-1.8
		c-0.3-0.4-0.9-0.6-1.6-0.6c-0.8,0-1.6,0.2-2.4,0.7l-0.3-0.7c0.9-0.4,1.9-0.7,2.8-0.7c0.9,0,1.6,0.2,2.1,0.7s0.7,1.2,0.7,2.3v5.6
		L688,610.6L688,610.6z M684.9,610c0.9,0,1.6-0.3,2.1-0.8c0.5-0.5,0.8-1.2,0.8-2.2v-0.8l-1.5,0.1c-1.2,0.1-2,0.2-2.5,0.6
		c-0.5,0.3-0.8,0.8-0.8,1.5c0,0.5,0.2,0.9,0.5,1.2C683.8,609.9,684.3,610,684.9,610L684.9,610z M695.5,601.9c0.4,0,0.7,0,1.2,0.1
		l-0.1,0.7c-0.4-0.1-0.7-0.1-1.1-0.1c-0.7,0-1.3,0.3-1.8,0.9c-0.5,0.6-0.7,1.4-0.7,2.3v4.7h-0.8v-8.5h0.7l0.1,1.5h0.1
		c0.3-0.6,0.7-1.1,1.1-1.3C694.4,602.1,694.9,601.9,695.5,601.9L695.5,601.9z M702.6,610.7c-1.2,0-2.2-0.4-2.9-1.1s-1-1.8-1-3.2
		c0-1.4,0.4-2.5,1.1-3.3c0.7-0.8,1.7-1.2,2.9-1.2c0.7,0,1.4,0.1,2.1,0.4l-0.2,0.7c-0.7-0.2-1.4-0.4-1.9-0.4c-1,0-1.8,0.3-2.4,1
		c-0.5,0.6-0.8,1.6-0.8,2.8c0,1.1,0.3,2,0.8,2.7s1.3,1,2.2,1c0.8,0,1.5-0.1,2.1-0.4v0.7C704.1,610.6,703.4,610.7,702.6,610.7
		L702.6,610.7z M713.5,610.6v-5.5c0-0.9-0.2-1.5-0.5-1.9c-0.4-0.4-0.9-0.6-1.7-0.6c-1,0-1.8,0.3-2.2,0.8c-0.5,0.5-0.7,1.3-0.7,2.5
		v4.7h-0.8v-12.2h0.8v3.9l0,1.1h0.1c0.3-0.5,0.7-0.9,1.2-1.1c0.5-0.2,1.1-0.3,1.8-0.3c1.9,0,2.9,1,2.9,3.1v5.6L713.5,610.6
		L713.5,610.6z M716.4,602.1h0.8l1.8,4.8c0.5,1.5,0.9,2.5,1,3h0c0.2-0.7,0.6-1.7,1.1-3l1.8-4.7h0.8l-3.8,9.9
		c-0.3,0.8-0.6,1.3-0.8,1.6s-0.5,0.5-0.7,0.6s-0.6,0.2-1,0.2c-0.3,0-0.6-0.1-1-0.2v-0.7c0.3,0.1,0.6,0.1,1,0.1
		c0.3,0,0.5-0.1,0.7-0.2s0.4-0.3,0.5-0.6c0.2-0.3,0.4-0.7,0.6-1.2s0.4-0.9,0.4-1.1L716.4,602.1L716.4,602.1z"/>
	<path class="st2" d="M634,682.8c0-4.9-4-8.8-8.8-8.8h-26.3c-4.9,0-8.8,4-8.8,8.8v26.3c0,4.9,4,8.8,8.8,8.8h26.3
		c4.9,0,8.8-4,8.8-8.8V682.8L634,682.8z"/>
	<path class="st3" d="M597,696h16"/>
	<path class="st4" d="M610,700.2l14.3-3.8l-14.3-3.8V700.2z"/>
	<path class="st5" d="M633,679.8c0-4.9-4-8.8-8.8-8.8h-26.3c-4.9,0-8.8,4-8.8,8.8v26.3c0,4.9,4,8.8,8.8,8.8h26.3
		c4.9,0,8.8-4,8.8-8.8V679.8L633,679.8z"/>
	<path class="st6" d="M597,693h20"/>
	<path class="st7" d="M612.8,698.3l2.1-4.9l-2.1-4.9l11.6,4.9L612.8,698.3z"/>
	<path class="st2" d="M533,682.8c0-4.9,4-8.8,8.8-8.8h26.3c4.9,0,8.8,4,8.8,8.8v26.3c0,4.9-4,8.8-8.8,8.8h-26.3
		c-4.9,0-8.8-4-8.8-8.8V682.8L533,682.8z"/>
	<path class="st3" d="M568,696h-16"/>
	<path class="st4" d="M555,692.5l-14.3,3.8l14.3,3.8V692.5z"/>
	<path class="st5" d="M532,679.8c0-4.9,4-8.8,8.8-8.8h26.3c4.9,0,8.8,4,8.8,8.8v26.3c0,4.9-4,8.8-8.8,8.8h-26.3
		c-4.9,0-8.8-4-8.8-8.8V679.8L532,679.8z"/>
	<path class="st6" d="M568,693h-20"/>
	<path class="st7" d="M552.2,688.5l-2.1,4.9l2.1,4.9l-11.6-4.9L552.2,688.5z"/>
</g>
<text transform="matrix(1 0 0 1 384 655.061)" class="st8 st9">協作 · 自主 · 透明 · 多元 </text>
<text transform="matrix(1 0 0 1 360 707.3813)" class="st8 st9">新創精神</text>
<text transform="matrix(1 0 0 1 661.843 707.3813)" class="st8 st9">消除階層</text>
<text transform="matrix(1 0 0 1 338 380.061)" class="st8 st10">讓更多人做有意義的事</text>
</svg>
